<svg xmlns="http://www.w3.org/2000/svg" xmlns:xlink="http://www.w3.org/1999/xlink" viewBox="0 0 10080 5040"><defs><path id="a" d="M0-360l69.4 215.8 212-80.3L156-35.6 351 80.1 125 99.8l31.2 224.5L0 160l-156.2 164.3 31.1-224.5L-351 80l195-115.7-125.5-188.9 212 80.3z"/><path id="d" d="M0-210L54.9-75.5 199.7-65l-111 93.7 34.7 141L0 93.4-123.4 170l34.6-141-111-93.8 145-10.6z"/><clipPath id="b"><path d="M0 0v1.5h7V3H6zm6 0H3v3.5H0V3z"/></clipPath><use id="c" xlink:href="#a" transform="scale(2.1)"/></defs><path fill="#00008b" d="M0 0h10080v5040H0z"/><path d="M0 0l5040 2520m0-2520L0 2520" stroke="#fff" stroke-width="504"/><path d="M0 0l6 3m0-3L0 3" stroke="red" stroke-width=".4" clip-path="url(#b)" transform="scale(840)"/><path d="M2520 0v2940M0 1260h5880" stroke="#fff" stroke-width="840"/><path d="M2520 0v2940M0 1260h5880" stroke="red" stroke-width="504"/><path d="M0 2520h5040V0h1680v3360H0z" fill="#00008b"/><g fill="#fff"><use xlink:href="#c" x="2520" y="3780"/><use xlink:href="#a" x="7560" y="4200"/><use xlink:href="#a" x="6300" y="2205"/><use xlink:href="#a" x="7560" y="840"/><use xlink:href="#a" x="8680" y="1869"/><use xlink:href="#d" x="8064" y="2730"/></g></svg>