<svg xmlns="http://www.w3.org/2000/svg" viewBox="0 0 1100 750"><path fill="#007934" d="M0 0h1100v750H0z"/><path fill="#ffe000" d="M0 0h1100v500H0z"/><path fill="#d52b1e" d="M0 0h1100v250H0z"/><g stroke="#000" stroke-width="2"><g stroke-width="0" stroke="none"><path d="M626 329L473 482l-2-1 153-153 2 1z" fill="#a05a2c"/><path d="M635 320c0 1-2 3-1 5l-3-2v3h-4l4 2h3l-5 1h-3c-1 1-3 0-2-1l-1-2a10 12 90 011-5l1 3 2 2v-3h3l-3-2 7-3 7-6-6 8z" fill="#e7e7e7"/><path d="M655 348L458 459l-1-2 196-111 2 2z" fill="#a05a2c"/><path d="M667 341c-1 1-3 3-3 5l-3-3c1 2 0 3-1 3h-3l3 2 3 1h-5l-3-1c-1 1-3-1-2-2v-2a10 12-90 013-4v2l1 3 1-3 3 1-2-3 7-1 9-3-8 5z" fill="#e7e7e7"/><path d="M638 340L462 473l-2-2 176-133 2 2z" fill="#a05a2c"/><path d="M649 331c-1 1-3 4-2 6l-3-3-1 3h-3l3 2h3l-5 1h-3c-1 1-3-1-2-2v-2a10 12 90 012-5v3l2 3v-3h3l-2-3c1 1 5 0 6-1l9-5-7 6z" fill="#e7e7e7"/></g><g stroke-width="0" stroke="none"><path d="M474 329l153 153 2-1-153-153-2 1z" fill="#a05a2c"/><path d="M465 320c0 1 2 3 1 5l3-2v3h4l-4 2h-3l5 1h3c1 1 3 0 2-1l1-2a12 10 0 00-1-5l-1 3-2 2v-3h-3l3-2-7-3-7-6 6 8z" fill="#e7e7e7"/><path d="M445 348l197 111 1-2-196-111-2 2z" fill="#a05a2c"/><path d="M433 341c1 1 3 3 3 5l3-3c-1 2 0 3 1 3h3l-3 2-3 1h5l3-1c1 1 3-1 2-2v-2a12 10 0 00-3-4v2l-1 3-1-3-3 1 2-3-7-1-9-3 8 5z" fill="#e7e7e7"/><path d="M462 340l176 133 2-2-176-133-2 2z" fill="#a05a2c"/><path d="M451 331c1 1 3 4 2 6l3-3 1 3h3l-3 2h-3l5 1h3c1 1 3-1 2-2v-2a12 10 0 00-2-5v3l-2 3v-3h-3l2-3c-1 1-5 0-6-1l-9-5 7 6z" fill="#e7e7e7"/></g><g stroke-width="0" stroke="none"><path d="M519 443c6-4 24-6 26-6-12 10-25 10-26 6z" fill="#00e519"/><path d="M519 443c1 4 14 4 26-6-13 4-24 7-26 6z" fill="#ffe533"/><path d="M519 443c1 4 14 4 26-6-13 4-24 7-26 6z" fill="none"/><path d="M519 443c7-5 24-6 26-6-12 10-25 10-26 6z" fill="none"/><path d="M593 344l-40 82c-2 1-3-1-4-1-2 3-6 4-6 4-3 4-2 7-1 7 2 3-3 6-3 7s-4 1-5 3a335 335 0 00-13 24c-3 0-16-8-16-8 7-12 24-29 24-30 5-8 12-17 16-17 4-3 7-9 6-10 3 0 5-3 6-3l29-58c2-1 2 0 3 1l1-2c2-1 3 0 3 1z" fill="#a05a2c"/><path d="M595 326v2h2l3 2-47 96h-4l32-66 15-29-4-2-1-2 20-34-16 33" fill="#cce5e5"/><path d="M595 326v2h2l3 2-47 96h-4l32-66 15-29-4-2-1-2 20-34-16 33" fill="#e7e7e7"/><path d="M533 426c-5-1-8 3-5 7m2-4h-2m24-21c-3 9-7 15-8 17-3 3-6 11-6 12l-12 21" fill="none"/><path d="M553 426c-2-1-9-7-16-6l-9 13 12 8 2-2c1-1-1-3-1-3 1-4 3-6 6-6l3-1 3-3z" fill="#cce5e5"/><path d="M553 426c-2-1-9-7-16-6l-9 13 12 8 2-2c1-1-1-3-1-3 1-4 3-6 6-6l3-1 3-3z" fill="none"/><path d="M546 426c-3 0-6 2-7 4l7-4" fill="#cce5e5"/><path d="M546 426c-3 0-6 2-7 4m-6 1l2 1a1 1-90 001-1l-2-1-1 1zm4-5l2 1 1-2a1 1-90 00-2-1l-1 2z" fill="none"/><path d="M590 353l1-3-8-3-1 2v1l8 3" fill="#cce5e5"/><path d="M590 353l1-3-8-3-1 2v1l8 3" fill="none"/></g><g stroke-width="0" stroke="none"><path d="M510 447c6-4 24-7 26-6-12 10-25 10-26 6z" fill="#00e519"/><path d="M510 447c1 4 14 4 26-6-13 4-24 7-26 6z" fill="#ffe533"/><path d="M510 447c1 4 14 4 26-6-13 4-24 7-26 6z" fill="none"/><path d="M510 447c7-5 25-7 26-6-12 9-25 10-26 6z" fill="none"/><path d="M582 347l-38 82c-2 2-3 0-4 0-2 3-6 3-6 4-3 4-1 7-1 7 2 3-3 6-2 7-1 1-5 1-5 3l-7 14-6 10c-3 0-16-8-16-8 7-11 23-29 23-30 5-8 12-17 15-17 5-3 7-9 6-11 4 0 6-2 6-2l28-59c3-1 2 0 3 1l2-2c1-1 2 0 2 1z" fill="#a05a2c"/><path d="M582 347l-38 82c-2 2-3 0-4 0-2 3-6 3-6 4-3 4-1 7-1 7 2 3-3 6-2 7-1 1-5 1-5 3l-7 14-6 10c-3 0-16-8-16-8 7-11 23-29 23-30 5-8 12-17 15-17 5-3 7-9 6-11 4 0 6-2 6-2l28-59c3-1 2 0 3 1l2-2c1-1 2 0 2 1z" fill="none"/><path d="M583 329l1 2h2c2 0 3 1 3 2l-45 96c-2 2-4 0-4 0l30-66 15-29-4-2c-1 0-2-1-1-2l19-35-15 33-1 1" fill="#cce5e5"/><path d="M583 329l1 2h2c2 0 3 1 3 2l-45 96c-2 2-4 0-4 0l30-66 15-29-4-2c-1 0-2-1-1-2l19-35-15 33-1 1" fill="#e7e7e7"/><path d="M523 430c-4-1-7 3-4 7m2-4h-2m23-21c-2 9-6 15-7 16-4 4-6 12-6 13l-12 21" fill="none"/><path d="M544 430c-2-1-9-7-16-6l-9 13 12 8 2-2v-3c0-4 2-7 5-7h3l3-3z" fill="#cce5e5"/><path d="M544 430c-2-1-9-7-16-6l-9 13 12 8 2-2v-3c0-4 2-7 5-7h3l3-3z" fill="none"/><path d="M537 430c-3 0-6 1-7 4l7-4" fill="#cce5e5"/><path d="M537 430c-3 0-6 1-7 4m-6 1l2 1a1 1-90 001-2h-2l-1 1zm4-5l2 1 1-2a1 1-90 00-2-1l-1 2z" fill="none"/><path d="M579 356c1 0 2-2 1-3l-7-2-2 1v2l8 2" fill="#cce5e5"/><path d="M579 356c1 0 2-2 1-3l-7-2-2 1v2l8 2" fill="none"/></g><g stroke-width="0" stroke="none"><path d="M582 443c-6-5-24-7-26-6 12 9 25 10 26 6z" fill="#00e519"/><path d="M582 443c-1 4-14 3-26-6l26 6z" fill="#ffe533"/><path d="M582 443c-1 4-14 3-26-6l26 6z" fill="none"/><path d="M582 443c-6-5-25-7-26-6 12 9 25 10 26 6z" fill="none"/><path d="M507 343l41 82c2 2 3 0 4 0 2 3 6 3 6 4 3 4 1 7 1 7-2 3 3 6 3 7s4 1 5 3a338 338 0 0113 24c3 0 16-8 16-8-7-12-24-29-24-31-5-8-12-17-16-17-5-2-7-9-6-10-4 0-6-2-6-2l-29-60c-3 0-3 1-3 2l-2-2c-1-1-3 0-3 1z" fill="#a05a2c"/><path d="M506 325c1 1-1 1-1 2h-2c-2 0-3 1-3 2l48 96c2 2 3 0 4 0l-32-66-16-30 4-1c2-1 2-2 1-3l-19-34 16 33v1" fill="#cce5e5"/><path d="M506 325c1 1-1 1-1 2h-2c-2 0-3 1-3 2l48 96c2 2 3 0 4 0l-32-66-16-30 4-1c2-1 2-2 1-3l-19-34 16 33v1" fill="#e7e7e7"/><path d="M569 425c4 0 7 3 4 8m-2-4c1 1 2-1 2-1m-24-20c3 9 7 14 8 16 3 4 6 12 6 13l13 21" fill="none"/><path d="M548 426c2-1 9-8 16-6l9 13-12 8-2-2v-3c0-4-3-7-5-7h-3l-3-3z" fill="#cce5e5"/><path d="M548 426c2-1 9-8 16-6l9 13-12 8-2-2v-3c0-4-3-7-5-7h-3l-3-3z" fill="none"/><path d="M555 426c3 0 6 1 7 4l-7-4" fill="#cce5e5"/><path d="M555 426c3 0 6 1 7 4m6 1l-2 1a2 1 0 01-1-2l2-1 1 2zm-4-5h-2l-1-1a1 1 0 012-1l1 2z" fill="none"/><path d="M511 352c-1 0-2-2-1-3l7-3 2 1-1 2-7 3" fill="#cce5e5"/><path d="M511 352c-1 0-2-2-1-3l7-3 2 1-1 2-7 3" fill="none"/></g><g stroke-width="0" stroke="none"><path d="M590 447c-6-4-23-7-26-6 12 10 25 10 26 6z" fill="#00e519"/><path d="M590 447c-1 4-14 4-26-6 13 4 24 7 26 6z" fill="#ffe533"/><path d="M590 447c-1 4-14 4-26-6 13 4 24 7 26 6z" fill="none"/><path d="M590 447c-6-5-24-7-26-6 12 9 25 10 26 6z" fill="none"/><path d="M518 347l38 82c2 2 4 0 4 0 3 3 6 3 7 4 2 4 1 7 0 7-2 3 3 6 3 7s4 1 4 3l8 14 5 10c3 0 16-8 17-8-7-11-24-29-24-30-4-8-12-17-15-17-5-3-7-9-6-11-4 0-6-2-6-2l-28-59c-2-1-2 0-3 1l-1-2c-2-1-3 0-3 1z" fill="#a05a2c"/><path d="M518 347l38 82c2 2 4 0 4 0 3 3 6 3 7 4 2 4 1 7 0 7-2 3 3 6 3 7s4 1 4 3l8 14 5 10c3 0 16-8 17-8-7-11-24-29-24-30-4-8-12-17-15-17-5-3-7-9-6-11-4 0-6-2-6-2l-28-59c-2-1-2 0-3 1l-1-2c-2-1-3 0-3 1z" fill="none"/><path d="M517 329c1 2-1 2-1 2h-2c-2 0-3 1-3 2l45 96c2 2 4 0 5 0l-31-66-15-29 4-2c1 0 2-1 1-2l-19-35 16 33v1" fill="#cce5e5"/><path d="M517 329c1 2-1 2-1 2h-2c-2 0-3 1-3 2l45 96c2 2 4 0 5 0l-31-66-15-29 4-2c1 0 2-1 1-2l-19-35 16 33v1" fill="#e7e7e7"/><path d="M577 430c4-1 7 3 4 7m-2-4h2m-23-21c2 9 7 15 7 16 4 4 6 12 6 13l12 21" fill="none"/><path d="M556 430c2-1 9-7 16-6l9 13-12 8-2-2c-1-2 1-3 1-3 0-4-3-7-6-7h-3l-3-3z" fill="#cce5e5"/><path d="M556 430c2-1 9-7 16-6l9 13-12 8-2-2c-1-2 1-3 1-3 0-4-3-7-6-7h-3l-3-3z" fill="none"/><path d="M563 430c3 0 6 1 7 4l-7-4" fill="#cce5e5"/><path d="M563 430c3 0 6 1 7 4m6 1l-2 1a1 1 0 01-1-2h2l1 1zm-4-5l-2 1v-2a1 1 0 011-1c1 0 2 1 1 2z" fill="none"/><path d="M521 356l-1-3 8-2 1 1v2l-8 2" fill="#cce5e5"/><path d="M521 356l-1-3 8-2 1 1v2l-8 2" fill="none"/></g><g stroke-width="0" stroke="none"><path d="M543 392l55-60-2-1-56 59 3 2z" fill="#a05a2c"/><g fill="#e7e7e7"><path d="M597 332c-2-2-6-4-8-3-1-4 4-7 6-7-1 4 5 6 5 6l-3 4z" fill-rule="evenodd"/><path d="M600 329l5 2c2 1 5-2 6-2 0 0 1 5-2 8-3 4-7 5-10 4 0 0 4-4 2-6l-3-3"/><path d="M602 329l-4 5-3-2 4-5z"/></g></g><g fill-rule="evenodd" stroke="none"><path d="M532 454l-2 14 3-4c0-1 2-3 3-11l-3-5-1 6zm3-32l-4 25c0 1 2 2 3-2l2-16-1-7z" fill="#007934"/><path d="M544 445l-3-4v5s3 3 2 7l1-1v-1l1-5-1-1z" fill="#d52b1e"/><path d="M530 468s5-5 6-15v-3s0 2 1 0l1-4s2-2 3 0l-2 15a80 80 0 010 4s-1-2-3 0c-1 1-2 4-6 3zm6-39l-2 16s2 1 2 5c0 2 1 1 1 0l1-3 1-12-3-6z" fill="#ffe000"/><path d="M535 467l-1 4 3-2 2-4s-2-2-3 0l-1 2zm2-17l1-4-1 1v3z" fill="#ffe000"/><path d="M543 449l-2-3-3 19s0 5-3 6c0 0 1 16 7 11l1-8-1-9a42 42 0 011-12v-4z" fill="#d52b1e"/><path d="M545 446l2 1-4 30-1-9c-1-5 0-12 1-15 0 0 2-1 2-7z" fill="#d52b1e"/><path d="M538 436l-1 11s3-4 4-1v-5l-3-5z" fill="#f7e214"/><path d="M536 450s-1-10-5-3v5l2 3c1 2 2 0 2 0l1-5z" fill="#007934"/></g><path d="M587 839c-1-43-15-114-15-162L425 521s-18 120-71 186l233 132" fill="#d52b1e" transform="matrix(.1282 -.00603 0 .1282 424 266)"/><path d="M598 844c6-29 13-62 18-123l-94-97c0 38-44 96-47 168" fill="#ffe000" transform="matrix(.1282 -.00603 0 .1282 424 266)"/><path d="M679 938c11-52-16-59 23-130l-87-88c-16 48-27 80-25 122l74 56" fill="#007934" transform="matrix(.1282 -.00603 0 .1282 424 266)"/><path d="M468 422c-2-7 1-20 1-28-1-6 3-26 3-32l-22-14-3 47c-3 12-3 24-1 33 2 14 5 19 10 25 10 10 31 4 31 4 18-3 28-15 28-15l-15 3c-21-2-29 3-29-18" fill="#d52b1e" stroke="none"/><path d="M527 436v-1l-9 3-12 1c-27 1-24-16-23-43 1-10 3-23 2-27l-18-11c-6 17-4 29-5 37-1 9-3 27 0 35 4 18 19 18 38 16l15-3 12-7" fill="#f7e214" stroke="none"/><path d="M528 435l-10 4-12 1c-20 1-31-12-29-43 0-11 1-16 4-31l11 7v1l-2 14c0 25 16 44 37 47h1" fill="#007a3d" stroke="none"/><path d="M456 360c2 3 13 20 19 23m-17-12c2 3 15 22 21 23m-24 6c3 3 6 11 15 15m-11 5c6 6 21 18 36 19m-36-9c3 3 10 20 38 13m-42-10c2 4 16 27 40 18" fill="none" stroke="none"/><path d="M484 414c-2-7 1-20 0-29l3-30-21-15-3 46c-3 13-4 28-3 38 3 15 11 20 12 21 10 9 34 8 37 8 17-6 24-17 24-17l-17 1c-21-2-31-1-32-22" fill="#d52b1e" stroke="none"/><path d="M543 427l-9 3-12 1c-27 1-24-16-23-43v-24l-16-12c-6 17-4 26-5 35s-3 27 0 35c4 18 19 17 38 16l15-3 12-8" fill="#ffe000" stroke="none"/><path d="M544 427l-10 3-12 2c-20 1-31-12-29-43 0-11 0-12 4-27l17 14s-3 4-2 10c0 25 10 38 31 41l3-20" fill="#007934" stroke="none"/><path d="M472 352c2 3 13 20 19 23m-17-12c2 3 15 22 21 23m-24 5c3 4 6 11 15 16m-11 5c6 6 21 18 36 19m-36-10c3 4 10 21 38 13m-42-9c2 4 16 27 40 18" fill="none" stroke="none"/><path d="M450 350l-1 9v16s2 8 1 9-1 2-3 0l1-10v-15l2-10v1" fill="#e8a30e" stroke="none"/><path d="M450 350l-1 9v16l1 9c-1 2-1 2-3 1l1-11v-15l2-10v1z" fill="none" stroke="none"/><path d="M450 347l-2 15v13l-1 7c0 1 0 0 0 0-2 1-2 0-3-1l2-7c1-16 4-26 4-26s-1 6 0-1" fill="#f7e214" stroke="none"/><path d="M450 347l-2 15v13l-1 7c0 1 0 0 0 0-1 1-2 0-3-1l2-7c1-16 4-26 4-26s-1 6 0-1zm-1 27l-1 1m0-2l1-1m0-1h-1m1-3h-1m1-2h-1m1-4h-1m1-2h-1m0 15l-2-1m2-3h-2m2-2h-1m1-2h-1m1-3h-1m1-2h-1m1 11h-2m20-31l-1 9v15l1 9c-1 2-1 2-3 1l1-10v-15l2-10v1" fill="#e8a30e" stroke="none"/><path d="M466 342l-1 9v15l1 9c-1 2-1 3-3 2l1-11v-15l2-10v1z" fill="none" stroke="none"/><path d="M466 339l-2 15v12l-1 7v1c-2 1-2 0-3-1l2-7c1-17 4-27 4-27" fill="#e8a30e" stroke="none"/><path d="M466 339l-2 15v12l-1 7v1c-2 1-2 0-3-1l2-7c1-17 4-27 4-27zm-1 27h-1m0-2h1m0-2l-1 1m1-3h-1m1-2h-1m1-4h-1m1-3h-1m-1 15h-1m2-3h-2m2-2h-2m2-2h-1m1-3h-1m1-2l-1-1m1 12l-2-1" fill="none" stroke="none"/><g fill="#e8a30e" stroke-width="0" stroke="none"><path d="M479 330v13l-1 10v6c0 1 0 0 0 0h3l-1-6-1-22v-1"/><path d="M479 330v13l-1 10v6c0 1 0 0 0 0h3l-1-6-1-22v-1zm-1 23h2m-2-3h2m-1-2h1m-1-1h1m-1-3h1m-1-2h1m-1-2h1m-2 12h2"/></g><path d="M528 346h1-1z" fill="#005000" stroke="none"/><path d="M545 401h-1 1zm-2 1h4" fill="#fff" fill-rule="evenodd" stroke="none"/><g stroke-width="0" fill-rule="evenodd" stroke="none"><path d="M507 444c-1 5-12 10-20 0-9-7-7-18 0-19l85-83c4-2 4-4 6-6a225 192-2 0015 14c-3 2-5 4-5 6l-81 88z" fill="#e8a30e"/><path d="M578 336c4-6 20 9 16 13-5 5-20-7-16-13z" fill="#e7e7e7"/><path d="M592 348c-3 3-14-7-12-11 3-3 15 9 12 11z" fill="#cccccf"/></g><path d="M3513 737c57-20 96-58 120-113m301 535c72-23 119-70 140-145m-110 177c72-24 119-70 140-145m35 311c71-23 127-76 147-150m-117 182c71-23 128-77 149-151" fill="none" transform="matrix(-.1253 .00359 .00348 .12902 1025 248)"/><path d="M4338 1406c4 16 14 21 27 16m-172-19c28 41 57 27 82 27" fill="none" stroke-linecap="round" transform="matrix(-.1253 .00359 .00348 .12902 1025 248)"/><path d="M4375 1407c1 11-9 20-21 20-11 1-21-8-22-19 0-11 9-20 21-20 12-1 22 11 22 22" fill="#e8a30e" transform="matrix(-.1253 .00359 .00348 .12902 1025 248)"/><path d="M4336 1404c4 16 14 21 26 16m-169-17c28 41 57 27 82 27" fill="none" stroke-linecap="round" transform="matrix(-.1253 .00359 .00348 .12902 1025 248)"/><g fill-rule="evenodd" stroke="none"><path d="M568 454l2 14-3-4c0-1-2-3-3-11l3-5 1 6zm-3-32l4 25c0 1-2 2-3-2l-2-16 1-7z" fill="#007934"/><path d="M556 445l3-4v5s-3 3-2 7l-1-1v-1l-1-5 1-1z" fill="#d52b1e"/><path d="M570 468s-5-5-6-15v-3s0 2-1 0l-1-4s-2-2-3 0a2814 2814 0 002 19s1-2 3 0c1 1 2 4 6 3zm-6-39l2 16s-2 1-2 5c0 2-1 1-1 0l-1-3-1-12 3-6z" fill="#ffe000"/><path d="M565 467l1 4-3-2-2-4s2-2 3 0l1 2zm-2-17l-1-4 1 1v3z" fill="#ffe000"/><path d="M557 449l2-3 3 19s0 5 3 6c0 0-1 16-7 11l-1-8 1-9a42 42 0 00-1-12v-4z" fill="#d52b1e"/><path d="M555 446l-2 1 4 30 1-9c1-5 0-12-1-15 0 0-2-1-2-7z" fill="#d52b1e"/><path d="M562 436l1 11s-3-4-4-1v-5l3-5z" fill="#f7e214"/><path d="M564 450s1-10 5-3v5l-2 3c-1 2-2 0-2 0l-1-5z" fill="#007934"/></g><path d="M587 839c-1-43-15-114-15-162L425 521s-18 120-71 186l233 132" fill="#d52b1e" transform="matrix(-.1282 -.00603 0 .1282 676 266)"/><path d="M598 844c6-29 13-62 18-123l-94-97c0 38-44 96-47 168" fill="#ffe000" transform="matrix(-.1282 -.00603 0 .1282 676 266)"/><path d="M679 938c11-52-16-59 23-130l-87-88c-16 48-27 80-25 122l74 56" fill="#007934" transform="matrix(-.1282 -.00603 0 .1282 676 266)"/><path d="M632 422c2-7-1-20-1-28 1-6-3-26-3-32l22-14 3 47c3 12 3 24 1 33-2 14-5 19-10 25-10 10-31 4-31 4-18-3-28-15-28-15l15 3c21-2 29 3 29-18" fill="#d52b1e" stroke="none"/><path d="M573 436v-1l9 3 12 1c27 1 24-16 23-43-1-10-3-23-2-27l18-11c6 17 4 29 5 37 1 9 3 27 0 35-4 18-19 18-38 16l-15-3-12-7" fill="#f7e214" stroke="none"/><path d="M572 435l10 4 12 1c20 1 31-12 29-43 0-11-1-16-4-31l-11 7v1l2 14c0 25-16 44-37 47h-1" fill="#007a3d" stroke="none"/><path d="M644 360c-2 3-13 20-19 23m17-12c-2 3-15 22-21 23m24 6c-3 3-6 11-15 15m11 5c-6 6-21 18-36 19m36-9c-3 3-10 20-38 13m42-10c-2 4-16 27-40 18" fill="none" stroke="none"/><path d="M616 414c2-7-1-20 0-29l-3-30 21-15a870 870 0 006 84c-3 15-11 20-12 21-10 9-34 8-37 8-17-6-24-17-24-17l17 1c21-2 31-1 32-22" fill="#d52b1e" stroke="none"/><path d="M557 427l9 3 12 1c27 1 24-16 23-43v-24l16-12c6 17 4 26 5 35s3 27 0 35c-4 18-19 17-38 16l-15-3-12-8" fill="#ffe000" stroke="none"/><path d="M556 427l10 3 12 2c20 1 31-12 29-43 0-11 0-12-4-27l-17 14s3 4 2 10c0 25-10 38-31 41l-3-20" fill="#007934" stroke="none"/><path d="M628 352c-2 3-13 20-19 23m17-12c-2 3-15 22-21 23m24 5c-3 4-6 11-15 16m11 5c-6 6-21 18-36 19m36-10c-3 4-10 21-38 13m42-9c-2 4-16 27-40 18" fill="none" stroke="none"/><path d="M650 350a475 475 0 001 25s-2 8-1 9 1 2 3 0l-1-10v-15l-2-10v1" fill="#f7e214" stroke="none"/><path d="M650 350a475 475 0 001 25l-1 9c1 2 1 2 3 1l-1-11v-15l-2-10v1z" fill="#e8a30e" stroke="none"/><path d="M650 347l2 15v13l1 7c0 1 0 0 0 0 2 1 2 0 3-1l-2-7c-1-16-4-26-4-26s1 6 0-1" fill="#f7e214" stroke="none"/><path d="M650 347l2 15v13l1 7c0 1 0 0 0 0 1 1 2 0 3-1l-2-7c-1-16-4-26-4-26s1 6 0-1zm1 27l1 1m0-2l-1-1m0-1h1m-1-3h1m-1-2h1m-1-4h1m-1-2h1m0 15l2-1m-2-3h2m-2-2h1m-1-2h1m-1-3h1m-1-2h1m-1 11h2" fill="#e8a30e" stroke="none"/><path d="M634 342a558 558 0 001 24l-1 9c1 2 1 2 3 1l-1-10v-15l-2-10v1" fill="#f7e214" stroke="none"/><path d="M634 342a558 558 0 001 24l-1 9c1 2 1 3 3 2l-1-11v-15l-2-10v1z" fill="#e8a30e" stroke="none"/><path d="M634 339l2 15v12l1 7v1c2 1 2 0 3-1l-2-7c-1-17-4-27-4-27" fill="#f7e214" stroke="none"/><path d="M634 339l2 15v12l1 7v1c2 1 2 0 3-1l-2-7c-1-17-4-27-4-27zm1 27h1m0-2h-1m0-2l1 1m-1-3h1m-1-2h1m-1-4h1m-1-3h1m1 15h1m-2-3h2m-2-2h2m-2-2h1m-1-3h1m-1-2l1-1m-1 12l2-1" fill="#e8a30e" stroke="none"/><g fill="#e8a30e" stroke-width="0" stroke="none"><path d="M621 330v13l1 10v6c0 1 0 0 0 0h-3l1-6 1-22v-1"/><path d="M621 330v13l1 10v6c0 1 0 0 0 0h-3l1-6 1-22v-1zm1 23h-2m2-3h-2m1-2h-1m1-1h-1m1-3h-1m1-2h-1m1-2h-1m2 12h-2"/></g><path d="M572 346h-1 1z" fill="#005000" stroke="none"/><path d="M555 401h1-1zm2 1h-4" fill="#fff" fill-rule="evenodd" stroke="none"/><g stroke="none"><path d="M506 337c0-4 3-5 3-6l6-2v1c0 1 0 3-3 4l-6 3z" fill="#d52b1e"/><path d="M506 335l46 61 2-3-47-61-1 3z" fill="#a05a2c" fill-rule="evenodd"/><path d="M505 324s5-1 4-4c0-3-4-2-5-3-2 0-6 1-8 3-1 1-4 4-3 8a31 31 0 004 9 8 8 0 010 6l1 3 4-1c2-2 4-5 4-8 0-4 3-5 3-6l6-2s-1-2-3-2-5-1-7-3z" fill="#d52b1e"/><path d="M505 324s5-1 4-4c0-3-4-2-5-3-2 0-6 1-8 3-1 1-4 4-3 8a31 31 0 004 9 8 8 0 010 6l1 3 4-1c2-2 4-5 4-8 0-4 3-5 3-6l6-2s-1-2-3-2-5-1-7-3z" fill="none"/><path d="M505 324l-4-1c-1 1-4 2-4 5m17 0l-5 2-6 5c-2 2-2 4-5 6m14-14l-3 2-1 2" fill="none"/></g><g stroke-width="0" fill-rule="evenodd" stroke="none"><path d="M593 444c1 5 12 10 20 0 9-7 7-18 0-19l-85-83c-4-2-4-4-6-6a192 225-88 01-15 14c3 2 5 4 5 6l81 88z" fill="#e8a30e"/><path d="M522 336c-4-6-20 9-16 13 5 5 20-7 16-13z" fill="#e7e7e7"/><path d="M508 348c3 3 14-7 12-11-3-3-15 9-12 11z" fill="#cccccf"/></g><path d="M3513 737c57-20 96-58 120-113m301 535c72-23 119-70 140-145m-110 177c72-24 119-70 140-145m35 311c71-23 127-76 147-150m-117 182c71-23 128-77 149-151" fill="none" transform="matrix(.1253 .00359 -.00348 .12902 75 248)"/><path d="M4338 1406c4 16 14 21 27 16m-172-19c28 41 57 27 82 27" fill="none" stroke-linecap="round" transform="matrix(.1253 .00359 -.00348 .12902 75 248)"/><path d="M4375 1407c1 11-9 20-21 20-11 1-21-8-22-19 0-11 9-20 21-20 12-1 22 11 22 22" fill="#e8a30e" transform="matrix(.1253 .00359 -.00348 .12902 75 248)"/><path d="M4336 1404c4 16 14 21 26 16m-169-17c28 41 57 27 82 27" fill="none" stroke-linecap="round" transform="matrix(.1253 .00359 -.00348 .12902 75 248)"/></g><g fill="#007934" stroke="#000" stroke-width="2"><path d="M581 274c2 5 7 13 8 19 2 11-1 24-11 33-8 7-21 9-26 10l-10 4 1-2c2-2 6-2 12-3 11-3 23-7 29-19 9-16 4-29-3-42z" fill-rule="evenodd" stroke="none"/><path d="M148 484a6 8 0 11-11 0 6 8 0 1111 0z" transform="matrix(.0845 .08154 -.07896 .07515 610 274)" fill="#d52b1e"/><path d="M592 320l-5 2-4 1-2 1-2 2s1 2 4 2l3-1 2-2 4-5zm-9 2l-3 1 3-1z" fill-rule="evenodd" stroke="none"/><path d="M592 320l-8 5a22 22 0 01-8 1v1l8-2 8-5zm-4 7l-8 2c-2 0-5-1-7 2 7 4 12 1 15-4z" fill-rule="evenodd" stroke="none"/><path d="M582 334c-2-1-13-5-15-1 3 3 11 4 15 1z" fill-rule="evenodd" stroke="none"/><path d="M579 337l-4-1h-3c-2-1-4-3-9-1 2 5 10 6 16 2zm2-3c-6 1-13 0-15-2h-1c7 3 13 3 16 2zm7-7c-4 3-8 5-18 3v1c13 1 14-2 18-4z" fill-rule="evenodd" stroke="none"/><path d="M579 337c-5 0-7 2-16-2l-2-1h-1l2 1c11 4 11 2 17 2z" fill-rule="evenodd" stroke="none"/><path d="M148 484a6 8 0 11-11 0 6 8 0 1111 0z" transform="matrix(-.05923 -.0996 -.0979 .05129 618 321)" fill="#d52b1e"/><path d="M561 332l-1 2h-1l2-3v1z" fill-rule="evenodd" stroke="none"/><path d="M148 484a6 8 0 11-11 0 6 8 0 1111 0z" transform="matrix(.11688 .02781 -.02616 .1032 586 238)" fill="#d52b1e"/><path d="M584 317c0-3-2 2-5-6l-2-6c2 3 5 3 6 5l1 7z" fill-rule="evenodd" stroke="none"/><path d="M577 305l4 6 3 6" fill-rule="evenodd" stroke="none"/><path d="M579 308c2 3 5 6 5 9 0-4-3-6-5-8v-1zm17 4l-4 3-3 1-2 1-3 3s2 2 3 1c4 0 5-2 7-3l2-6z" fill-rule="evenodd" stroke="none"/><path d="M582 320v1l8-4c3-1 4-2 6-5-2 3-4 4-6 5l-8 3z" fill-rule="evenodd" stroke="none"/><path d="M597 305l-4 3-2 2-2 1-2 3 2 1c4 0 5-2 6-5l2-5z" fill-rule="evenodd" stroke="none"/><path d="M148 484a6 8 0 11-11 0 6 8 0 1111 0z" transform="matrix(-.10957 .0476 .04556 .09693 578 258)" fill="#d52b1e"/><path d="M585 315v1c4-2 10-7 12-11-3 5-7 8-12 10zm13-17l-3 3-2 2-2 1-2 4 3 1 3-3 2-3a7 7 0 001-5z" fill-rule="evenodd" stroke="none"/><path d="M595 303l-7 6h-1l8-6zm2-9l-3 3-1 2-2 1-1 4h2a18 18 0 003-2l1-4 1-4zm-7-2l-1 3v-1l1-2z" fill-rule="evenodd" stroke="none"/><path d="M594 299l-6 6c4-2 5-4 6-6v-1zm-8 15a5 5 0 00-1-2v2h1z" fill-rule="evenodd" stroke="none"/><path d="M148 484a6 8 0 11-11 0 6 8 0 1111 0z" transform="matrix(.06585 -.05973 .05891 .0576 546 264)" fill="#d52b1e"/><path d="M586 285l-2-1 2 2v-1zm9 1c-2 3-6 6-5 12 5 4 5-8 5-12z" fill-rule="evenodd" stroke="none"/><path d="M591 278c-1 3-4 7-2 12 6 1 3-7 2-12z" fill-rule="evenodd" stroke="none"/><path d="M587 272c3 6 4 9 0 13 0 0-2-2-2-5-1-3 2-7 2-8z" fill-rule="evenodd" stroke="none"/><path d="M582 269c1 3-2 5 2 10 3-4 2-5-2-10z" fill-rule="evenodd" stroke="none"/><path d="M581 275c-6 1-4-4-5-8 3 2 7 3 5 8zm3 7c-1-7-6-4-9-7 2 4 4 7 9 7zm2 6c-4 0-7-2-9-7 4 2 8 3 9 7z" fill-rule="evenodd" stroke="none"/><path d="M587 294l-2-4a14 14 0 00-5-6c0 5 1 10 7 10z" fill-rule="evenodd" stroke="none"/><path d="M588 299l-9-9c2 4 1 10 9 9z" fill-rule="evenodd" stroke="none"/><path d="M587 306c-8 0-7-7-7-11l4 6c2 1 3 3 3 5z" fill-rule="evenodd" stroke="none"/><path d="M586 311l-1-4c-2-1-5-4-6-7 0 3-1 7 2 8l5 3zm-7 11c-6-5-2-9-2-12 2 4 6 7 2 12zm3-46a86 86 0 00-6-9l6 10" fill-rule="evenodd" stroke="none"/><path d="M579 323c1-5-1-9-1-13l1 14v-1zm8-11c-1-3-7-5-8-12 1 7 7 8 7 12h1zm1-4c-1-4-6-6-8-13 2 7 7 8 8 13zm1-7l-10-11c3 5 8 7 10 11zm0-6c-3-1-6-4-9-11 2 5 5 9 9 12v-1z" fill-rule="evenodd" stroke="none"/><path d="M588 289c-4-3-8-4-11-8 2 3 7 6 11 9v-1zm-3-7c-4-2-7-3-10-7 3 4 6 5 10 8v-1zm10 4c-1 5-2 10-6 13v-1c2-1 4-6 6-12zm-4-8c0 5 0 10-3 13v-1c3-2 2-7 3-12zm-4-6zm-5-3c2 3 3 7 2 11 1-4-1-8-2-11z" fill-rule="evenodd" stroke="none"/><g fill-rule="evenodd" stroke="none"><path d="M575 317c2 5 0 9-4 11-2-7 3-6 4-11z"/><path d="M575 317c1 4-3 7-4 12v1c1-7 5-9 4-13z"/></g><path d="M148 484a6 8 0 11-11 0 6 8 0 1111 0z" transform="matrix(.08752 .01564 -.0096 .08183 579 241)" fill="#d52b1e"/><path d="M587 286v-2h-1l1 2z" fill-rule="evenodd" stroke="none"/><path d="M148 484a6 8 0 11-11 0 6 8 0 1111 0z" transform="matrix(.06806 -.0338 .01538 .06954 568 254)" fill="#d52b1e" stroke-width="3"/><path d="M586 285l-1-2 1 2z" fill-rule="evenodd" stroke="none"/><path d="M148 484a6 8 0 11-11 0 6 8 0 1111 0z" transform="matrix(.08889 -.00182 .00663 .08212 572 253)" fill="#d52b1e"/><path d="M589 295l-1-3 1 3z" fill-rule="evenodd" stroke="none"/><path d="M148 484a6 8 0 11-11 0 6 8 0 1111 0z" transform="matrix(.06188 -.0663 .05536 .06394 551 271)" fill="#d52b1e"/><path d="M589 295a14 14 0 00-2-2 13 13 0 012 2z" fill-rule="evenodd" stroke="none"/><path d="M148 484a6 8 0 11-11 0 6 8 0 1111 0z" transform="matrix(.083 .03187 -.02487 .07855 586 268)" fill="#d52b1e"/><path d="M586 314v-3l-1 3h1z" fill-rule="evenodd" stroke="none"/><path d="M148 484a6 8 0 11-11 0 6 8 0 1111 0z" transform="matrix(-.06585 -.05973 -.05891 .0576 626 293)" fill="#d52b1e"/><path d="M586 314l1-1h1l-3 2v-1z" fill-rule="evenodd" stroke="none"/><path d="M148 484a6 8 0 11-11 0 6 8 0 1111 0z" transform="matrix(.05877 .0667 -.05844 .05807 602 282)" fill="#d52b1e"/><path d="M580 322l2-2-2 2z" fill-rule="evenodd" stroke="none"/><path d="M148 484a6 8 0 11-11 0 6 8 0 1111 0z" transform="matrix(-.11967 -.0134 -.01416 .10528 604 271)" fill="#d52b1e"/><path d="M580 320zm-19 15l-2-1 2 1z" fill-rule="evenodd" stroke="none"/><path d="M148 484a6 8 0 11-11 0 6 8 0 1111 0z" transform="matrix(-.02645 .11159 -.10932 -.0223 618 330)" fill="#d52b1e"/><path d="M570 322a9 9 0 01-6 10c-2-6 4-6 6-10z" fill-rule="evenodd" stroke="none"/><path d="M570 322a34 34 0 01-8 11c4-3 6-7 8-11z" fill-rule="evenodd" stroke="none"/><path d="M148 484a6 8 0 11-11 0 6 8 0 1111 0z" transform="matrix(.05417 .0985 -.0893 .02218 597 308)" fill="#d52b1e"/><path d="M559 334l3-1h-1l-2 1z" fill-rule="evenodd" stroke="none"/><g fill-rule="evenodd" stroke="none"><path d="M563 326c0 2-1 4-3 5l-3 3c-2-5 4-5 6-8z"/><path d="M563 326l-7 9c2-4 5-4 7-9z"/></g><path d="M519 274l-8 19c-2 11 2 24 11 33 8 7 21 9 26 10 6 1 9 3 10 4v-2c-3-2-7-2-13-3-11-3-23-7-29-19-9-16-4-29 4-42h-1z" fill-rule="evenodd" stroke="none"/><path d="M-609 575c3-5 54-53 101-49 34 3 39 11 39 11s3 9-27 16c-30 6-83 28-113 22z" fill-rule="evenodd" transform="matrix(-.11577 0 0 -.11026 470 397)"/><path d="M-470 537c-37-4-74 11-103 23" transform="matrix(-.11577 0 0 -.11026 470 397)"/><g stroke-width="3"><path d="M-609 575c3-5 54-53 101-49 34 3 39 11 39 11s3 9-27 16c-30 6-83 28-113 22z" fill-rule="evenodd" transform="matrix(.0444 .06862 -.05494 .02167 595 355)"/><path d="M-470 537c-37-4-74 11-103 23" transform="matrix(.0444 .06862 -.05494 .02167 595 355)"/></g><g stroke-width="3"><path d="M-609 575c3-5 54-53 101-49 34 3 39 11 39 11s3 9-27 16c-30 6-83 28-113 22z" fill-rule="evenodd" transform="matrix(.05524 -.03793 .04771 .06236 525 216)"/><path d="M-470 537c-37-4-74 11-103 23" transform="matrix(.05524 -.03793 .04771 .06236 525 216)"/></g><g stroke-width="3"><path d="M-609 575c3-5 54-53 101-49 34 3 39 11 39 11s3 9-27 16c-30 6-83 28-113 22z" fill-rule="evenodd" transform="matrix(.02243 -.06172 .053 .0239 501 226)"/><path d="M-470 537c-37-4-74 11-103 23" transform="matrix(.02243 -.06172 .053 .0239 501 226)"/></g><g stroke-width="4"><path d="M-609 575c3-5 54-53 101-49 34 3 39 11 39 11s3 9-27 16c-30 6-83 28-113 22z" fill-rule="evenodd" transform="matrix(.04201 -.04403 -.03718 -.02348 565 264)"/><path d="M-470 537c-37-4-74 11-103 23" transform="matrix(.04201 -.04403 -.03718 -.02348 565 264)"/></g><g stroke-width="3"><path d="M-609 575c3-5 54-53 101-49 34 3 39 11 39 11s3 9-27 16c-30 6-83 28-113 22z" fill-rule="evenodd" transform="matrix(.0109 -.0722 .04959 .01802 494 226)"/><path d="M-470 537c-37-4-74 11-103 23" transform="matrix(.0109 -.0722 .04959 .01802 494 226)"/></g><g stroke-width="3"><path d="M-609 575c3-5 54-53 101-49 34 3 39 11 39 11s3 9-27 16c-30 6-83 28-113 22z" fill-rule="evenodd" transform="matrix(.00144 -.07793 .0687 .00644 476 233)"/><path d="M-470 537c-37-4-74 11-103 23" transform="matrix(.00144 -.07793 .0687 .00644 476 233)"/></g><g stroke-width="3"><path d="M-609 575c3-5 54-53 101-49 34 3 39 11 39 11s3 9-27 16c-30 6-83 28-113 22z" fill-rule="evenodd" transform="matrix(-.01157 -.07209 .05272 .00208 475 243)"/><path d="M-470 537c-37-4-74 11-103 23" transform="matrix(-.01157 -.07209 .05272 .00208 475 243)"/></g><g stroke-width="3"><path d="M-609 575c3-5 54-53 101-49 34 3 39 11 39 11s3 9-27 16c-30 6-83 28-113 22z" fill-rule="evenodd" transform="matrix(.04886 -.04636 -.04417 -.04006 571 275)"/><path d="M-470 537c-37-4-74 11-103 23" transform="matrix(.04886 -.04636 -.04417 -.04006 571 275)"/></g><g stroke-width="3"><path d="M-609 575c3-5 54-53 101-49 34 3 39 11 39 11s3 9-27 16c-30 6-83 28-113 22z" fill-rule="evenodd" transform="matrix(.05208 -.04272 -.04117 -.04314 570 283)"/><path d="M-470 537c-37-4-74 11-103 23" transform="matrix(.05208 -.04272 -.04117 -.04314 570 283)"/></g><g stroke-width="3"><path d="M-609 575c3-5 54-53 101-49 34 3 39 11 39 11s3 9-27 16c-30 6-83 28-113 22z" fill-rule="evenodd" transform="matrix(.05391 -.04792 -.04589 -.04442 572 284)"/><path d="M-470 537c-37-4-74 11-103 23" transform="matrix(.05391 -.04792 -.04589 -.04442 572 284)"/></g><g stroke-width="4" fill-rule="evenodd" stroke="none"><path d="M514 286l-1-2 1-1h-1v2l-1-1v-1 1l2 2"/><path d="M512 282a1 1-6 110 1 1 1-6 110-1z" style="marker:none" fill="#000" overflow="visible"/><path d="M514 282a1 1-71 11-1 1 1 1-71 111-1z" style="marker:none" fill="#000" overflow="visible"/></g><g stroke-width="4" fill-rule="evenodd" stroke="none"><path d="M514 286l1-1 1-1-1 1h2l-1 1h-2"/><path d="M518 284a1 1-44 10-1 1 1 1-44 101-1z" style="marker:none" fill="#000" overflow="visible"/><path d="M516 283a1 1-70 100 1 1 1-70 100-1z" style="marker:none" fill="#000" overflow="visible"/></g><g stroke-width="3"><path d="M-609 575c3-5 54-53 101-49 34 3 39 11 39 11s3 9-27 16c-30 6-83 28-113 22z" fill-rule="evenodd" transform="matrix(-.01678 -.07418 .05494 -.0013 470 248)"/><path d="M-470 537c-37-4-74 11-103 23" transform="matrix(-.01678 -.07418 .05494 -.0013 470 248)"/></g><g stroke-width="3"><path d="M-609 575c3-5 54-53 101-49 34 3 39 11 39 11s3 9-27 16c-30 6-83 28-113 22z" fill-rule="evenodd" transform="matrix(.05289 -.05337 -.05062 -.04316 573 284)"/><path d="M-470 537c-37-4-74 11-103 23" transform="matrix(.05289 -.05337 -.05062 -.04316 573 284)"/></g><g stroke-width="3"><path d="M-609 575c3-5 54-53 101-49 34 3 39 11 39 11s3 9-27 16c-30 6-83 28-113 22z" fill-rule="evenodd" transform="matrix(.05443 -.05577 -.04812 -.02978 572 279)"/><path d="M-470 537c-37-4-74 11-103 23" transform="matrix(.05443 -.05577 -.04812 -.02978 572 279)"/></g><path d="M-609 575c3-5 54-53 101-49 34 3 39 11 39 11s3 9-27 16c-30 6-83 28-113 22z" fill-rule="evenodd" transform="matrix(-.02128 -.07612 .07793 -.01146 453 257)"/><path d="M-470 537c-37-4-74 11-103 23" transform="matrix(-.02128 -.07612 .07793 -.01146 453 257)"/><g stroke-width="3"><path d="M-609 575c3-5 54-53 101-49 34 3 39 11 39 11s3 9-27 16c-30 6-83 28-113 22z" fill-rule="evenodd" transform="matrix(.04466 -.06692 -.05426 -.02125 570 273)"/><path d="M-470 537c-37-4-74 11-103 23" transform="matrix(.04466 -.06692 -.05426 -.02125 570 273)"/></g><path d="M-609 575c3-5 54-53 101-49 34 3 39 11 39 11s3 9-27 16c-30 6-83 28-113 22z" fill-rule="evenodd" transform="matrix(-.0337 -.0747 .07231 -.02674 449 272)"/><path d="M-470 537c-37-4-74 11-103 23" transform="matrix(-.0337 -.0747 .07231 -.02674 449 272)"/><g stroke-width="4" fill-rule="evenodd" stroke="none"><path d="M511 299l-1-1v-2 2h-1v-1h-1l1 1 2 2"/><path d="M508 295a1 1-21 110 2 1 1-21 110-2z" style="marker:none" fill="#000" overflow="visible"/><path d="M510 295a1 1 5 110 2 1 1 5 110-2z" style="marker:none" fill="#000" overflow="visible"/></g><g stroke-width="4" fill-rule="evenodd" stroke="none"><path d="M511 299l1-1 1-1v1h-1 1l1-1v1h-1l-2 2"/><path d="M515 296a1 1-59 10-1 2 1 1-59 101-2z" style="marker:none" fill="#000" overflow="visible"/><path d="M513 295a1 1 6 100 2 1 1 6 100-2z" style="marker:none" fill="#000" overflow="visible"/></g><g stroke-width="3"><path d="M-609 575c3-5 54-53 101-49 34 3 39 11 39 11s3 9-27 16c-30 6-83 28-113 22z" fill-rule="evenodd" transform="matrix(-.05002 -.07495 .06077 -.0238 446 275)"/><path d="M-470 537c-37-4-74 11-103 23" transform="matrix(-.05002 -.07495 .06077 -.0238 446 275)"/></g><path d="M-609 575c3-5 54-53 101-49 34 3 39 11 39 11s3 9-27 16c-30 6-83 28-113 22z" fill-rule="evenodd" transform="matrix(.03692 -.0818 -.0792 -.02929 580 274)"/><path d="M-470 537c-37-4-74 11-103 23" transform="matrix(.03692 -.0818 -.0792 -.02929 580 274)"/><path d="M-609 575c3-5 54-53 101-49 34 3 39 11 39 11s3 9-27 16c-30 6-83 28-113 22z" fill-rule="evenodd" transform="matrix(.0346 -.08362 -.07299 -.0195 577 272)"/><path d="M-470 537c-37-4-74 11-103 23" transform="matrix(.0346 -.08362 -.07299 -.0195 577 272)"/><path d="M-609 575c3-5 54-53 101-49 34 3 39 11 39 11s3 9-27 16c-30 6-83 28-113 22z" fill-rule="evenodd" transform="matrix(-.0568 -.08234 .081 -.0479 432 289)"/><path d="M-470 537c-37-4-74 11-103 23" transform="matrix(-.0568 -.08234 .081 -.0479 432 289)"/><g stroke-width="3"><path d="M-609 575c3-5 54-53 101-49 34 3 39 11 39 11s3 9-27 16c-30 6-83 28-113 22z" fill-rule="evenodd" transform="matrix(.01123 -.08405 -.06502 .0048 563 267)"/><path d="M-470 537c-37-4-74 11-103 23" transform="matrix(.01123 -.08405 -.06502 .0048 563 267)"/></g><path d="M-609 575c3-5 54-53 101-49 34 3 39 11 39 11s3 9-27 16c-30 6-83 28-113 22z" fill-rule="evenodd" transform="matrix(-.0827 -.06704 .07183 -.06909 427 320)"/><path d="M-470 537c-37-4-74 11-103 23" transform="matrix(-.0827 -.06704 .07183 -.06909 427 320)"/><path d="M-609 575c3-5 54-53 101-49 34 3 39 11 39 11s3 9-27 16c-30 6-83 28-113 22z" fill-rule="evenodd" transform="matrix(-.07484 -.07005 .06288 -.04124 434 298)"/><path d="M-470 537c-37-4-74 11-103 23" transform="matrix(-.07484 -.07005 .06288 -.04124 434 298)"/><path d="M-609 575c3-5 54-53 101-49 34 3 39 11 39 11s3 9-27 16c-30 6-83 28-113 22z" fill-rule="evenodd" transform="matrix(.01884 -.09267 -.08599 -.0123 577 268)"/><path d="M-470 537c-37-4-74 11-103 23" transform="matrix(.01884 -.09267 -.08599 -.0123 577 268)"/><g stroke-width="3" fill-rule="evenodd" stroke="none"><path d="M515 315l-2-1-1-2 1 2h-1l-1-1v1h1a6 6 0 013 1"/><path d="M510 312a1 1-44 111 2 1 1-44 11-1-2z" style="marker:none" fill="#000" overflow="visible"/><path d="M512 311a1 1-18 110 2 1 1-18 110-2z" style="marker:none" fill="#000" overflow="visible"/></g><g stroke-width="3" fill-rule="evenodd" stroke="none"><path d="M515 315v-4h1v2l1-1v-1 2l-2 2"/><path d="M517 310a1 1 8 100 2 1 1 8 100-2z" style="marker:none" fill="#000" overflow="visible"/><path d="M515 310a1 1-18 101 2 1 1-18 10-1-2z" style="marker:none" fill="#000" overflow="visible"/></g><path d="M-609 575c3-5 54-53 101-49 34 3 39 11 39 11s3 9-27 16c-30 6-83 28-113 22z" fill-rule="evenodd" transform="matrix(-.0873 -.03844 .03616 -.07072 448 342)"/><path d="M-470 537c-37-4-74 11-103 23" transform="matrix(-.0873 -.03844 .03616 -.07072 448 342)"/><g stroke-width="3"><path d="M-609 575c3-5 54-53 101-49 34 3 39 11 39 11s3 9-27 16c-30 6-83 28-113 22z" fill-rule="evenodd" transform="matrix(.00173 -.07673 -.05583 -.00256 555 279)"/><path d="M-470 537c-37-4-74 11-103 23" transform="matrix(.00173 -.07673 -.05583 -.00256 555 279)"/></g><path d="M-609 575c3-5 54-53 101-49 34 3 39 11 39 11s3 9-27 16c-30 6-83 28-113 22z" fill-rule="evenodd" transform="matrix(-.10019 -.03492 .04827 -.0788 439 353)"/><path d="M-470 537c-37-4-74 11-103 23" transform="matrix(-.10019 -.03492 .04827 -.0788 439 353)"/><path d="M-609 575c3-5 54-53 101-49 34 3 39 11 39 11s3 9-27 16c-30 6-83 28-113 22z" fill-rule="evenodd" transform="matrix(-.0355 -.06479 -.07228 .04669 548 262)"/><path d="M-470 537c-37-4-74 11-103 23" transform="matrix(-.0355 -.06479 -.07228 .04669 548 262)"/><g stroke-width="3" fill-rule="evenodd" stroke="none"><path d="M524 326h-2a4 4 0 01-1-1h-1l2 1v1h-2 4"/><path d="M518 326a1 1-66 112 1 1 1-66 11-2-1z" style="marker:none" fill="#000" overflow="visible"/><path d="M519 324a1 1-40 112 2 1 1-40 11-2-2z" style="marker:none" fill="#000" overflow="visible"/></g><g stroke-width="3" fill-rule="evenodd" stroke="none"><path d="M524 327v-2a4 4 0 00-1-2h1l1 1a8 8 0 010 1v-2h1v1l-1 2"/><path d="M525 321a1 1-21 100 2 1 1-21 100-2z" style="marker:none" fill="#000" overflow="visible"/><path d="M522 322a1 1-46 102 1 1 1-46 10-2-1z" style="marker:none" fill="#000" overflow="visible"/></g><path d="M-609 575c3-5 54-53 101-49 34 3 39 11 39 11s3 9-27 16c-30 6-83 28-113 22z" fill-rule="evenodd" transform="matrix(-.10758 -.0135 .01448 -.10023 458 380)"/><path d="M-470 537c-37-4-74 11-103 23" transform="matrix(-.10758 -.0135 .01448 -.10023 458 380)"/><g stroke-width="3" fill-rule="evenodd" stroke="none"><path d="M536 332l-2 1-2-1-1 1h3l-1 1-1 1h1a25 25 0 003-2"/><path d="M529 334a1 1-85 113 1 1 1-85 11-3-1z" style="marker:none" fill="#000" overflow="visible"/><path d="M530 331a1 1-59 112 2 1 1-59 11-2-2z" style="marker:none" fill="#000" overflow="visible"/></g><path d="M-609 575c3-5 54-53 101-49 34 3 39 11 39 11s3 9-27 16c-30 6-83 28-113 22z" fill-rule="evenodd" transform="matrix(-.05025 -.05913 -.07391 .0559 545 263)"/><path d="M-470 537c-37-4-74 11-103 23" transform="matrix(-.05025 -.05913 -.07391 .0559 545 263)"/><g stroke-width="3" fill-rule="evenodd" stroke="none"><path d="M536 333v-2a5 5 0 00-2-1v-1l2 1 1 1-1-2v-1l1 2v2"/><path d="M534 326a1 1-47 102 2 1 1-47 10-2-2z" style="marker:none" fill="#000" overflow="visible"/><path d="M532 329a1 1-73 103 1 1 1-73 10-3-1z" style="marker:none" fill="#000" overflow="visible"/></g></g><path d="M549 327s-4 8-3 9c0 0 4-7 7-9 2-2 3 0 3-2l-4-3-3 4" fill="#452c25"/><path d="M594 214s-9 20-6 22c0 0 9-15 16-21 4-4 6 0 7-3s-10-8-10-8l-7 10" transform="matrix(.43415 0 0 .44354 291 231)" fill="none" stroke="#000"/><path d="M535 333s-5 9-4 9c2 0 7-11 7-11h-2l-1 2z" fill="#452c25"/><path d="M535 333s-5 9-4 9c2 0 7-11 7-11h-2l-1 2z" fill="none"/><path d="M537 330s-6 10-4 10l7-12h-2l-1 2z" fill="#452c25"/><path d="M537 330s-6 10-4 10l7-12h-2l-1 2z" fill="none"/><path d="M538 329s-6 8-5 9l8-11h-2l-1 2z" fill="#452c25"/><path d="M538 329s-6 8-5 9l8-11h-2l-1 2z" fill="none"/><path d="M540 327s-8 8-6 8c1 1 9-9 9-9h-2l-1 1z" fill="#452c25"/><path d="M540 327s-8 8-6 8c1 1 9-9 9-9h-2l-1 1z" fill="none"/><path d="M540 325s-7 8-5 8c1 1 8-10 8-10h-2l-1 2z" fill="#452c25"/><path d="M540 325s-7 8-5 8c1 1 8-10 8-10h-2l-1 2z" fill="none"/><path d="M538 332s-6 8-5 9c2 0 9-11 9-11h-2l-2 2z" fill="#452c25"/><path d="M538 332s-6 8-5 9c2 0 9-11 9-11h-2l-2 2z" fill="none"/><path d="M542 330l-3 7 7-8c2-4-4 1-4 1" fill="#452c25"/><path d="M542 330l-3 7c0 1 5-4 7-8s-4 1-4 1" fill="none"/><path d="M542 329s-3 9-2 10l6-9v-1l-1-4-3 4" fill="#452c25"/><path d="M579 221s-8 19-5 21c0 0 10-11 13-21 3-9 0 0 0 0l-1-10-7 9" transform="matrix(.43415 0 0 .44354 291 231)" fill="none" stroke="#000"/><path d="M540 329s-7 7-6 8c2 0 10-10 10-10h-2l-2 2z" fill="#452c25"/><path d="M540 329s-7 7-6 8c2 0 10-10 10-10h-2l-2 2z" fill="none"/><path d="M541 330s-7 7-6 8l10-10h-2l-2 2z" fill="#452c25"/><path d="M541 330s-7 7-6 8l10-10h-2l-2 2z" fill="none"/><path d="M542 331s-8 8-7 8c2 0 10-10 10-10h-2l-1 2z" fill="#452c25"/><path d="M542 331s-8 8-7 8c2 0 10-10 10-10h-2l-1 2z" fill="none"/><path d="M542 321s-5 7-5 8c1 1 6-3 8-7 1-3-3-2-3-2" fill="#452c25"/><path d="M542 321s-5 7-5 8c1 1 6-3 8-7 1-3-3-2-3-2" fill="none"/><path d="M542 328l-4 8c2 0 6-7 7-8v-3l-3 2v2" fill="#452c25"/><path d="M542 328l-4 8c2 0 6-7 7-8v-3l-3 2v2" fill="none"/><path d="M542 325s4-7 0 1c-4 9-6 8-6 8l4-7 3-5" fill="#452c25"/><path d="M542 325s4-7 0 1c-4 9-6 7-6 7l4-6 3-5" fill="none"/><path d="M546 324s4-7 0 1c-4 9-6 7-6 7l4-6 4-5" fill="#452c25"/><path d="M546 324s4-7 0 1c-4 9-6 7-6 7l4-6 4-5" fill="none"/><path d="M545 321s-6 7-5 8 6-3 7-6-2-2-2-2" fill="#452c25"/><path d="M601 392a51 58 0 11-102 0 51 58 0 11102 0z" fill="#e8a30e"/><path d="M509 392c0-26 19-47 41-47s41 21 41 47" style="text-indent:0;text-align:start;line-height:normal;text-transform:none;block-progression:tb;marker:none;-inkscape-font-specification:Sans" font-weight="400" color="#000" fill="none" stroke="#390" overflow="visible" font-family="Sans"/><path d="M499 395c1 31 24 55 51 55s50-24 51-55H499z" fill="#007934"/><path d="M-238 1162a578 643 0 11-1155 0 578 643 0 111155 0z" transform="matrix(.08878 0 0 .0897 622 288)" fill="none" stroke="#000" stroke-width="6"/><g stroke="#000"><path d="M541 352c0 2 0 4 2 6l1 4-1 1-9-6 6 9-5-1c-2 1-4 0-6-1l5 4c2 0 3 0 4 2v1l-10 2 10 2-4 3c-1 2-3 3-5 3 2 1 4 0 6-1l4-1 1 1-6 9 9-6v5c0 2 0 4-2 6l4-5 2-4h1l2 10 2-10 3 4 4 5c0-3 0-4-2-6l-1-4 1-1 9 6-6-9h5l6 1-5-3-4-2a12 12 0 000-1l10-2-10-2v-1l4-2 5-4-6 1-4 2a12 12 0 00-1-1l6-9-9 6v-5c0-2 0-4 2-6l-4 5-2 4h-1l-2-11-2 11-3-4-4-5z" style="marker:none" fill="#d52b1e" stroke-width=".23" overflow="visible"/><g transform="translate(564 374) scale(.22284)" stroke="none"><use transform="rotate(23 138 66)" width="330" height="330" fill="#fcbf49"/><use transform="matrix(-1 0 0 1 36 -48)" width="330" height="330" fill="#fcbf49"/><g transform="translate(-31 2)"><path d="M10-22c-12-10-26-11-34-4-6 8-6 17 1 27l-2 1c-5-10-6-20-2-29 11-9 26-10 37 5"/><path d="M-8-25c-7 0-8 2-11 4l-5 3c0 1 0 2 1 1l6-4c3-3 6-2 9-2 9 0 14 7 15 7s-5-9-15-9"/><path d="M3-16c-6-7-18-8-23 0h2c5-8 17-4 18-1v1"/><circle cx="22" cy="-9" r="5" transform="translate(-31 -8)"/><path d="M-20-16c5 5 16 5 23 0l-3-1c-5 6-13 5-18 1v-1"/><path d="M4-14c-9 7-17 6-22 3s-5-4-4-4l6 3c4 2 10 2 20-2M-21 1a3 3 0 11-4 3c0 1-2 4-6 4h-1l1 2c1 0 4 0 6-2a5 5 0 104-7m6 21c-4-3-6-7-11-7l-5 1h-1l1 2c2 0 5-3 8-1l8 5m-1 0c-10-3-12-1-15-1h-1l1 2c4 0 6-3 15-1"/><path d="M-15 22c-11-1-7 6-16 6h-1l1 1c11 0 6-6 16-7"/></g><g transform="matrix(-1 0 0 1 -94 2)"><path d="M10-22c-12-10-26-11-34-4-6 8-6 17 1 27l-2 1c-5-10-6-20-2-29 11-9 26-10 37 5"/><path d="M-8-25c-7 0-8 2-11 4l-5 3c0 1 0 2 1 1l6-4c3-3 6-2 9-2 9 0 14 7 15 7s-5-9-15-9"/><path d="M3-16c-6-7-18-8-23 0h2c5-8 17-4 18-1v1"/><circle cx="22" cy="-9" r="5" transform="translate(-31 -8)"/><path d="M-20-16c5 5 16 5 23 0l-3-1c-5 6-13 5-18 1v-1"/><path d="M4-14c-9 7-17 6-22 3s-5-4-4-4l6 3c4 2 10 2 20-2M-21 1a3 3 0 11-4 3c0 1-2 4-6 4h-1l1 2c1 0 4 0 6-2a5 5 0 104-7m6 21c-4-3-6-7-11-7l-5 1h-1l1 2c2 0 5-3 8-1l8 5m-1 0c-10-3-12-1-15-1h-1l1 2c4 0 6-3 15-1"/><path d="M-15 22c-11-1-7 6-16 6h-1l1 1c11 0 6-6 16-7"/></g></g></g><g fill="#007934" stroke="#000"><path d="M975 1011c14 1 28 0 40-4 11-4 23-7 35-6 0-2 4-3 2-4-5-3-10-2-16-5-9-3-15-10-24-15-1 0-5-2-5-4 20 25 64 11 102 7l20-5c9-3 31-2 37-5 1-1-10-6-12-8-5-6-19-5-26-12-11-11-28-14-41-23-3-2-10-1-14-2-6-4 0-4-44-36-38-14-36-25-60-33-9-4-17-11-24-9-12 4-39 18-52 26-10 6-22 17-31 24-2 2-28 25-58 42s-73 40-77 40c69-5-60 21 248 32z" stroke-linecap="round" transform="matrix(.18472 .00617 -.00642 .19224 381 203)"/><path d="M804 940c17-9 82-46 102-72-3 1 6 8 6 11 6 0 2-7 8-7 4 0 7-2 10-4 4 0 2 2 2 4-5 10-17 16-26 24 1 1 2 1 1 3 4 0 8 0 10-2l1-3c3 2 2 4 1 6-2 5-12 5-15 10-4 5-7 9-13 13 4-3 9-8 15-8 8-1 11-6 18-8s12-8 18-13c-2 4-7 7-5 11a5 5 0 005 1c-6 7-16 12-20 20-3-1-6 2-8 2-4 1-2 7-5 8-10 6-15 15-19 23l-11 6c-5 2-38 28-38 25-4-17-37 15-113-9m258-9l-2-1c1-3-4-3-4-6 9 0 16 10 21 4 1-2-2-4 3-5v-2h-7l-7-2c-3-1-4-4 0-5 8-1 16 4 22 1 5-3 9-3 14-5 2-1 10 0 8 2l-9 2-11 4c3 0 2 3 6 2l16-4c-1-1 1-2 1-3h2c-3-4 5-3 8-6l1 1c-4 2-2 4-3 6l-2 2c2 2 2-1 4 0h5c3 0 6-1 5-3-3-2-5-4-5-7l-2-1c5 0 8 2 10 4s3 5 7 5c7 1 6-2 6-5 5 0 13 2 12 5-1 2-5 3-9 4-3 0-1 2-3 2l-9 2c-1 2 1 6 3 7 4 2 11 0 16 0 1-3 4-4 7-6 4-2-2-3-5-5-2 0 0-1 1-2 2-2 7-1 8-2 1-2-2-5 1-7 2-1 4 1 3 3l6-2c2 0 4 2 3 3-3 2-6 4-5 7 0 2-4 2-3 3 4 3 4 5 5 8s8 3 14 2c-3-6 11-3 17-5v-1c-3-2-4-2-3-5l-2-1c9 3 25 6 31 11-8 1-24-2-32 0-10 3-20 6-31 6l-14-2m-95-2l-3-1" transform="matrix(.18472 .00617 -.00642 .19224 381 203)"/><path d="M958 1017c16-1 19 11 30 0 10 1 19-2 19-3 23 4 93-5 89-10-8-8-20-10-30-17l-9-2c-6-2-13 0-18-2-7-4-15-7-22-12l-10-11c-5-3-12-3-17-5-8-3-12-10-19-15-3-1-7-1-10-3-6-2-10-9-16-8-9 2-14 10-24 14-7 4-10 10-17 14-2 1-22 15-44 25-23 10-52 22-55 22 0 0 21 13 67 10l29 8 16-3 41-2z" transform="matrix(.18472 .00617 -.00642 .19224 381 203)"/><path d="M860 985c11-5 50-25 62-38l4 5c4 0 1-3 5-4l6-1c3-1 1 1 1 1-3 6-10 9-16 13l1 2 6-1 1-2c2 1 1 3 0 4-1 2-7 2-9 5a29 29 0 01-8 7c3-2 6-4 9-4 5-1 7-4 11-5 5-1 8-4 11-7-1 2-4 4-3 6l3 1c-3 4-10 6-12 11h-5c-2 1-1 4-3 5-6 3-9 8-11 12l-7 4c-3 1-23 15-23 13-2-9-22 5-68-8" transform="matrix(.18472 .00617 -.00642 .19224 381 203)"/></g><path d="M550 335c-28 0-51 25-51 57s23 58 51 58 51-26 51-58-23-57-51-57zm0 13c21 0 39 19 39 44 0 26-18 45-39 45s-39-19-39-45c0-25 18-44 39-44z" style="text-indent:0;text-align:start;line-height:normal;text-transform:none;block-progression:tb;marker:none;-inkscape-font-specification:Sans" font-weight="400" color="#000" fill="#00a6de" overflow="visible" font-family="Sans"/><g fill="#e8a30e" stroke="#000"><path d="M134 24c0 7-2 8-13 9-10 2-12 2-12-4 0-7 2-8 12-9 10-2 13-3 13 4z" transform="matrix(.05586 0 0 .0453 550 416)"/><path d="M136 24c0 4-7 5-15 7-8 1-14 2-14-2-1-4 6-5 14-7 9-1 15-3 15 2zM57 334c22-74 28-129-4-208 53-62 92-40 127 4-33 78-25 133-6 204-41 27-77 27-117 0z" transform="matrix(.05586 0 0 .0453 550 416)"/><path d="M115 88h-3c4 89 1 178 0 266h4c0-89 4-175 0-266h-1z" transform="matrix(.05586 0 0 .0453 550 416)"/><path d="M125 89c-9 81-12 163-10 265h4c-1-101 2-183 10-265h-4zm18-85c-9 12-14 12-10 32 11-9 11-16 10-32z" transform="matrix(.05586 0 0 .0453 550 416)"/><path d="M122 12c7 8 16 12 10 34-11-12-10-13-10-34zm-1 22c8 7 15 9 10 28-8-11-11-10-10-28z" transform="matrix(.05586 0 0 .0453 550 416)"/><path d="M118 46c6 8 15 12 10 33-11-12-10-13-10-33z" transform="matrix(.05586 0 0 .0453 550 416)"/><path d="M115 63c7 8 17 12 11 32-12-13-6-16-11-32z" transform="matrix(.05586 0 0 .0453 550 416)"/><path d="M113 80c7 7 18 12 12 31-10-10-11-12-12-31zm37-58c-5 5-17 4-17 26 14-10 14-8 16-26z" transform="matrix(.05586 0 0 .0453 550 416)"/><path d="M149 37c-5 4-18 4-18 24 15-9 15-7 18-24z" transform="matrix(.05586 0 0 .0453 550 416)"/><path d="M147 51c-5 5-18 4-18 26 15-10 15-8 18-26z" transform="matrix(.05586 0 0 .0453 550 416)"/><path d="M146 70c-6 2-19-3-19 24 11-4 11-12 19-24z" transform="matrix(.05586 0 0 .0453 550 416)"/><path d="M140 86c-8 4-13 3-14 25 11-10 11-8 14-25zm8 13c-20 70-24 137-22 255l5-1c-1-116 3-181 21-252l-4-2zm33-78c-11 10-16 8-15 29 11-6 12-13 15-29z" transform="matrix(.05586 0 0 .0453 550 416)"/><path d="M159 24c5 9 13 16 4 35-9-14-8-15-4-35z" transform="matrix(.05586 0 0 .0453 550 416)"/><path d="M153 45c7 9 14 12 6 29-6-12-9-12-6-29z" transform="matrix(.05586 0 0 .0453 550 416)"/><path d="M149 56c5 9 13 15 4 34-9-14-7-15-4-34z" transform="matrix(.05586 0 0 .0453 550 416)"/><path d="M143 71c6 10 15 16 5 34-10-15-3-17-5-34z" transform="matrix(.05586 0 0 .0453 550 416)"/><path d="M138 88c6 9 15 16 6 33-7-13-8-15-6-33zm46-48c-6 4-17 0-21 21 16-6 15-4 21-21z" transform="matrix(.05586 0 0 .0453 550 416)"/><path d="M181 55c-6 3-18-1-22 19 16-5 16-4 22-19z" transform="matrix(.05586 0 0 .0453 550 416)"/><path d="M177 68c-7 3-19-1-23 20 17-5 16-3 23-20z" transform="matrix(.05586 0 0 .0453 550 416)"/><path d="M172 86c-6 1-18-7-22 19 11-1 12-9 22-19z" transform="matrix(.05586 0 0 .0453 550 416)"/><path d="M163 100c-8 2-12 0-17 21 12-6 12-5 17-21zm4 15c-26 64-31 123-18 233l5-3c-13-104-7-163 16-226l-3-4zm44-77c-13 8-18 6-19 27 13-4 14-11 19-27z" transform="matrix(.05586 0 0 .0453 550 416)"/><path d="M188 38c4 10 11 17 0 35-7-16-6-16 0-35z" transform="matrix(.05586 0 0 .0453 550 416)"/><path d="M181 57c5 11 12 15 2 30-4-12-8-13-2-30z" transform="matrix(.05586 0 0 .0453 550 416)"/><path d="M175 67c4 10 11 18 0 35-7-15-5-16 0-35z" transform="matrix(.05586 0 0 .0453 550 416)"/><path d="M167 82c5 10 14 18 2 35-8-18-1-18-2-35z" transform="matrix(.05586 0 0 .0453 550 416)"/><path d="M161 97c5 10 13 19 2 34-6-14-6-16-2-34zm50-39c-6 2-16-3-22 17 15-3 15-2 22-17z" transform="matrix(.05586 0 0 .0453 550 416)"/><path d="M207 72c-7 2-18-4-24 15 17-2 16-1 24-15z" transform="matrix(.05586 0 0 .0453 550 416)"/><path d="M201 84c-6 2-18-3-24 17 17-3 16-1 24-17z" transform="matrix(.05586 0 0 .0453 550 416)"/><path d="M195 101c-6 0-17-10-25 15 12 1 14-7 25-15z" transform="matrix(.05586 0 0 .0453 550 416)"/><path d="M185 114c-9 0-13-2-20 17 13-4 13-2 20-17zm-84-24l-3 1c8 81 14 163 13 263h3c3-101-3-183-13-264zM83 2c10 13 15 13 10 33-10-9-10-17-10-33z" transform="matrix(.05586 0 0 .0453 550 416)"/><path d="M104 12c-6 7-15 11-9 33 11-12 9-13 9-33z" transform="matrix(.05586 0 0 .0453 550 416)"/><path d="M106 34c-8 6-16 8-10 27 7-10 10-9 10-27z" transform="matrix(.05586 0 0 .0453 550 416)"/><path d="M108 46c-6 7-15 11-10 32 12-11 10-12 10-32z" transform="matrix(.05586 0 0 .0453 550 416)"/><path d="M112 63c-8 7-18 11-12 31 13-12 7-15 12-31z" transform="matrix(.05586 0 0 .0453 550 416)"/><path d="M113 80c-7 7-18 11-12 31 10-11 11-12 12-31zM77 20c5 5 16 5 17 26-14-10-14-8-17-26z" transform="matrix(.05586 0 0 .0453 550 416)"/><path d="M78 35c5 5 17 5 17 25-15-10-14-8-17-25z" transform="matrix(.05586 0 0 .0453 550 416)"/><path d="M79 49c6 5 18 5 19 27-16-11-16-9-19-27z" transform="matrix(.05586 0 0 .0453 550 416)"/><path d="M80 68c6 3 19-2 19 25-11-4-10-12-19-25z" transform="matrix(.05586 0 0 .0453 550 416)"/><path d="M86 85c8 4 13 4 14 25-11-10-11-8-14-25zm-7 16l-3 3c18 70 25 135 24 249h4c2-115-5-182-25-252zM46 17c11 11 16 10 15 30-12-6-13-14-15-30z" transform="matrix(.05586 0 0 .0453 550 416)"/><path d="M67 21c-4 9-12 15-3 35 9-14 7-15 3-35z" transform="matrix(.05586 0 0 .0453 550 416)"/><path d="M73 42c-7 9-14 12-5 30 5-12 8-12 5-30z" transform="matrix(.05586 0 0 .0453 550 416)"/><path d="M77 54c-5 9-13 14-4 34 9-14 8-15 4-34z" transform="matrix(.05586 0 0 .0453 550 416)"/><path d="M83 69c-5 10-15 16-5 34 10-15 3-17 5-34z" transform="matrix(.05586 0 0 .0453 550 416)"/><path d="M88 86c-6 9-15 15-6 33 7-12 8-14 6-33zM42 36c6 4 17 1 21 22-15-7-15-5-21-22z" transform="matrix(.05586 0 0 .0453 550 416)"/><path d="M46 51c6 4 17 0 21 20-16-6-16-4-21-20z" transform="matrix(.05586 0 0 .0453 550 416)"/><path d="M50 64c6 4 18 1 22 22-17-6-16-5-22-22z" transform="matrix(.05586 0 0 .0453 550 416)"/><path d="M54 83c6 1 18-7 23 20-12-2-13-10-23-20zm9 14c8 3 12 1 17 22-12-7-12-5-17-22zm-2 21l-3 3c24 65 27 121 20 224l1 1 3 2c9-106 5-162-21-230zM16 33c12 9 17 7 18 27-12-4-14-11-18-27z" transform="matrix(.05586 0 0 .0453 550 416)"/><path d="M38 33c-4 10-11 17 0 36 8-16 6-16 0-36z" transform="matrix(.05586 0 0 .0453 550 416)"/><path d="M46 54c-6 9-13 14-2 29 4-12 7-12 2-29z" transform="matrix(.05586 0 0 .0453 550 416)"/><path d="M51 64c-4 10-11 17 0 35 7-15 6-16 0-35z" transform="matrix(.05586 0 0 .0453 550 416)"/><path d="M59 79c-5 10-14 17-2 34 8-16 2-17 2-34z" transform="matrix(.05586 0 0 .0453 550 416)"/><path d="M65 95c-5 9-14 17-3 34 7-14 7-16 3-34zM15 52c6 3 16-1 23 19-16-4-16-3-23-19z" transform="matrix(.05586 0 0 .0453 550 416)"/><path d="M20 66c6 3 17-2 23 17-17-3-16-2-23-17z" transform="matrix(.05586 0 0 .0453 550 416)"/><path d="M25 79c6 3 18-2 24 18-17-4-16-2-24-18z" transform="matrix(.05586 0 0 .0453 550 416)"/><path d="M31 97c6 0 17-10 25 16-12 0-14-8-25-16z" transform="matrix(.05586 0 0 .0453 550 416)"/><path d="M41 110c9 1 13-1 20 19-13-5-13-4-20-19zM102 1c9 13 14 14 8 33-9-10-9-17-8-33z" transform="matrix(.05586 0 0 .0453 550 416)"/><path d="M123 12c-7 7-16 10-11 32 11-11 10-12 11-32z" transform="matrix(.05586 0 0 .0453 550 416)"/><path d="M123 34c-8 6-16 7-11 26 8-10 11-8 11-26z" transform="matrix(.05586 0 0 .0453 550 416)"/><path d="M125 46c-7 7-16 10-11 31 12-10 10-11 11-31z" transform="matrix(.05586 0 0 .0453 550 416)"/><path d="M128 63c-8 7-18 10-13 31 13-12 7-15 13-31z" transform="matrix(.05586 0 0 .0453 550 416)"/><path d="M128 81c-7 6-18 9-13 29 10-9 12-11 13-29zM95 18c5 5 16 6 15 28-13-12-13-10-15-28z" transform="matrix(.05586 0 0 .0453 550 416)"/><path d="M95 33c5 5 17 6 17 26-15-11-15-9-17-26zm1 14c5 6 18 7 17 28-15-11-15-9-17-28z" transform="matrix(.05586 0 0 .0453 550 416)"/><path d="M96 66c6 3 19 0 18 27-11-5-10-13-18-27z" transform="matrix(.05586 0 0 .0453 550 416)"/><path d="M102 83c7 5 12 5 12 27-11-11-11-9-12-27zM91 94a70 70 0 00-4 2c17 83 20 159 19 258h1l2-1c3-88 0-174-18-259zM63 12c11 11 16 10 14 31-12-8-12-15-14-31z" transform="matrix(.05586 0 0 .0453 550 416)"/><path d="M85 17c-5 9-14 14-6 35 10-13 9-14 6-35z" transform="matrix(.05586 0 0 .0453 550 416)"/><path d="M89 39c-7 8-14 11-7 29 6-12 9-11 7-29z" transform="matrix(.05586 0 0 .0453 550 416)"/><path d="M93 50c-5 9-14 14-6 34 10-13 8-14 6-34z" transform="matrix(.05586 0 0 .0453 550 416)"/><path d="M98 67c-6 8-16 14-7 33 11-14 4-17 7-33z" transform="matrix(.05586 0 0 .0453 550 416)"/><path d="M102 84c-6 8-16 14-8 32 8-12 9-14 8-32zM59 30c5 5 17 3 20 24-15-8-15-6-20-24z" transform="matrix(.05586 0 0 .0453 550 416)"/><path d="M62 45c5 4 17 2 20 22-16-7-16-5-20-22z" transform="matrix(.05586 0 0 .0453 550 416)"/><path d="M65 59c6 4 18 2 21 23-16-7-16-6-21-23z" transform="matrix(.05586 0 0 .0453 550 416)"/><path d="M68 78c6 1 19-5 22 21-12-2-12-10-22-22z" transform="matrix(.05586 0 0 .0453 550 416)"/><path d="M76 93c8 3 13 2 17 23-13-8-12-6-17-23zm-21 32l-2 1c20 48 25 88 21 128 0 26-4 54-9 85l4 2 1 1c15-89 14-154-15-217z" transform="matrix(.05586 0 0 .0453 550 416)"/><path d="M71 108l-4 3c23 73 26 141 23 239l2 1h2c4-100 1-170-23-243zM31 25c12 9 17 8 17 28-12-5-13-12-17-28z" transform="matrix(.05586 0 0 .0453 550 416)"/><path d="M53 27c-4 9-12 16-1 35 8-15 6-16 1-35z" transform="matrix(.05586 0 0 .0453 550 416)"/><path d="M60 47c-6 10-13 14-3 30 4-12 7-12 3-30z" transform="matrix(.05586 0 0 .0453 550 416)"/><path d="M65 58c-4 9-12 16-2 35 9-15 7-16 2-35z" transform="matrix(.05586 0 0 .0453 550 416)"/><path d="M72 73c-5 10-14 17-3 35 9-17 2-18 3-35z" transform="matrix(.05586 0 0 .0453 550 416)"/><path d="M78 89c-5 10-14 17-4 34 7-13 8-15 4-34zM29 44c6 4 17 0 22 20-15-5-15-3-22-20z" transform="matrix(.05586 0 0 .0453 550 416)"/><path d="M34 59c6 3 17-2 22 18-16-5-16-3-22-18z" transform="matrix(.05586 0 0 .0453 550 416)"/><path d="M38 71c7 4 19-1 24 20-17-5-16-3-24-20z" transform="matrix(.05586 0 0 .0453 550 416)"/><path d="M44 89c6 1 17-8 24 18-12 0-13-8-24-18z" transform="matrix(.05586 0 0 .0453 550 416)"/><path d="M54 103c8 2 12 0 19 20-13-6-13-4-19-20zM1 47c13 6 17 4 20 24C9 68 6 62 0 47z" transform="matrix(.05586 0 0 .0453 550 416)"/><path d="M22 44c-2 10-9 18 4 35 6-17 4-17-4-35z" transform="matrix(.05586 0 0 .0453 550 416)"/><path d="M32 63c-5 10-11 15 1 30 3-14 6-14-1-30z" transform="matrix(.05586 0 0 .0453 550 416)"/><path d="M38 72c-2 10-9 18 4 35 6-17 4-17-4-35z" transform="matrix(.05586 0 0 .0453 550 416)"/><path d="M48 85c-4 11-12 20 1 35 7-18 0-17-1-35z" transform="matrix(.05586 0 0 .0453 550 416)"/><path d="M55 100c-3 10-11 20 2 34 4-14 5-16-2-34zM1 66c7 2 17-4 25 15-16-2-15 0-25-15z" transform="matrix(.05586 0 0 .0453 550 416)"/><path d="M8 79c6 2 17-5 24 13-16 0-15 1-24-13z" transform="matrix(.05586 0 0 .0453 550 416)"/><path d="M14 91c7 2 18-5 26 14-17-1-16 1-26-14z" transform="matrix(.05586 0 0 .0453 550 416)"/><path d="M22 108c6-1 16-12 26 12-12 2-14-5-26-12z" transform="matrix(.05586 0 0 .0453 550 416)"/><path d="M34 119c8 0 12-3 21 16-14-3-13-2-21-16zm106-25c-19 84-22 171-20 260a60 60 0 004 0c0-100 3-176 20-258a71 71 0 00-4-2zm28-79c-11 10-16 9-14 30 11-7 12-14 14-31z" transform="matrix(.05586 0 0 .0453 550 416)"/><path d="M146 19c5 9 13 15 5 35-10-14-8-15-5-35z" transform="matrix(.05586 0 0 .0453 550 416)"/><path d="M141 40c8 9 15 12 7 29-6-11-9-11-7-29z" transform="matrix(.05586 0 0 .0453 550 416)"/><path d="M138 52c5 8 13 14 5 34-10-14-8-15-5-34z" transform="matrix(.05586 0 0 .0453 550 416)"/><path d="M132 68c6 9 16 15 7 33-10-15-4-16-7-33z" transform="matrix(.05586 0 0 .0453 550 416)"/><path d="M129 84c5 9 15 15 7 33-8-12-9-14-7-33zm43-51c-6 4-17 2-20 23 15-7 15-5 20-23z" transform="matrix(.05586 0 0 .0453 550 416)"/><path d="M169 48c-6 4-18 1-20 21 15-6 15-5 20-21z" transform="matrix(.05586 0 0 .0453 550 416)"/><path d="M166 62c-6 4-19 1-22 22 17-7 16-5 22-22z" transform="matrix(.05586 0 0 .0453 550 416)"/><path d="M162 80c-6 2-18-6-22 21 12-2 12-10 22-21z" transform="matrix(.05586 0 0 .0453 550 416)"/><path d="M154 95c-8 3-13 1-17 22 13-7 13-5 17-22zm5 12c-26 73-29 143-23 245l6-2c-7-103-4-169 21-240a122 122 0 00-4-3zm41-77c-12 8-17 6-18 27 12-5 14-12 18-27z" transform="matrix(.05586 0 0 .0453 550 416)"/><path d="M178 30c4 10 11 17 1 36-8-16-7-16-1-36z" transform="matrix(.05586 0 0 .0453 550 416)"/><path d="M170 50c7 10 13 14 3 30-4-12-7-13-3-30z" transform="matrix(.05586 0 0 .0453 550 416)"/><path d="M166 61c4 9 11 17 1 34-8-15-7-15-1-34z" transform="matrix(.05586 0 0 .0453 550 416)"/><path d="M158 76c5 10 14 17 3 34-9-17-2-17-3-34z" transform="matrix(.05586 0 0 .0453 550 416)"/><path d="M153 91c4 10 13 18 3 34-7-13-7-15-3-34zm48-42c-6 3-16-2-22 19 16-5 15-3 22-19z" transform="matrix(.05586 0 0 .0453 550 416)"/><path d="M197 63c-6 3-18-2-23 17 17-3 16-2 23-17z" transform="matrix(.05586 0 0 .0453 550 416)"/><path d="M192 76c-6 3-18-3-24 18 17-4 17-2 24-18z" transform="matrix(.05586 0 0 .0453 550 416)"/><path d="M186 93c-6 1-17-9-24 17 12 0 13-8 24-17z" transform="matrix(.05586 0 0 .0453 550 416)"/><path d="M177 107c-9 1-13-2-20 18 14-5 13-3 19-18zm0 19c-30 66-28 136-15 216l4-3c-5-34-8-66-8-96v-1c-2-35 4-70 22-112l-3-4zm53-73c-13 6-18 3-21 23 13-2 15-8 21-23z" transform="matrix(.05586 0 0 .0453 550 416)"/><path d="M208 49c3 10 9 19-4 35-6-17-4-17 4-35z" transform="matrix(.05586 0 0 .0453 550 416)"/><path d="M198 67c5 11 11 17-1 30-2-13-6-14 1-30z" transform="matrix(.05586 0 0 .0453 550 416)"/><path d="M192 76c3 11 9 19-4 35-5-17-4-17 4-35z" transform="matrix(.05586 0 0 .0453 550 416)"/><path d="M182 89c4 11 12 21-1 35-7-19 0-18 1-35z" transform="matrix(.05586 0 0 .0453 550 416)"/><path d="M175 104c3 10 11 20-2 34-4-15-5-17 2-34zm54-32c-6 2-16-5-25 14 16-1 16 1 25-14z" transform="matrix(.05586 0 0 .0453 550 416)"/><path d="M223 85c-7 2-17-6-25 12 17 0 16 2 25-12z" transform="matrix(.05586 0 0 .0453 550 416)"/><path d="M216 97c-7 1-18-7-26 12 17 0 16 2 26-12z" transform="matrix(.05586 0 0 .0453 550 416)"/><path d="M208 113c-6-1-16-13-26 11 12 3 14-5 26-11z" transform="matrix(.05586 0 0 .0453 550 416)"/><path d="M196 124c-8-1-12-4-21 14 14-2 13-1 21-14zm-97 94l32 1c19 1 34 6 34 12s-15 11-34 10H99c-20-1-35-6-35-13 0-6 16-10 35-10z" transform="matrix(.05586 0 0 .0453 550 416)"/><path d="M77 218l-10 19a8 8 0 006 3h5l11-22H77zm25 0l-11 22 12 1 11-22-12-1zm24 1l-10 22h12l11-22h-13zm25 1l-11 22h13l9-19a8 8 0 00-6-3h-5z" transform="matrix(.05586 0 0 .0453 550 416)"/></g><g fill="#e7e7e7" stroke="#000" stroke-width="3"><path d="M-123 1512s3 43 6 64c1 3 4 4 4 7v9c0 4-4 8-3 12 0 2 3 3 4 5 5 12 4 26 6 39 1 5-1-1 9 13 1 2 5 2 5 2h4l3 4-5 5-18 2-8-5s3-4 1-6c-1-2-5-1-5-3l-1-12v-1s-13-15-17-23c-2-5-2-10-5-14-1-3-5-5-6-7-11-25-22-72-22-71m-163-32l45 12-18 63c-9 20-8 20-6 26 4 11 7 27 23 53 6 7 13 8 15 10 1 3 7 7 11 9h15l3-4c-1-3-8-2-12-6-2-8-12-20-13-28-4-18-3-18 0-36 2-10 11-30 15-41 8-12 17-33 17-48l-17-41-10-17m-41-28c-76 21-50 85-29 86m255-190l13-23 2-8-1-2-22 22v1" transform="matrix(.06022 -.00163 .00525 .06438 544 323)"/><path d="M-41 1358c4 2 10 4 12 1 1-3 2-5-1-8-2-2 1-4-1-8-12-9-21-9-24-16v-5c0-6-18-9-22-12l-12-4-5-1c-19 0-30 18-34 29 0 0-8 52-19 75l-4 5c-2 2-4 4-6 4-52-5-88-8-109-8s-47 15-48 17c0 0-25 14-33 37-2 8-1 18 2 27 18 63 47 1 55 2l10 1c12 1 32 37 65 45 101 23 134-26 142-139l1-1v-4l6-9v-12l-1-6v-2l30-3 5-2" transform="matrix(.06022 -.00163 .00525 .06438 544 323)"/><path d="M-88 1325l14-26 2-10-1-2-25 25v2m-247 177c5 19 15 37 14 44-2 10-9 15-10 16l-3 3c-4 2-6 8-8 12-2 5-4 9-3 14 0 18 8 55 8 56 0 0 6 3 8 7v10l-5 17 1 3 8 5h14l-8-9v-5l8-11v-9l-2-4a189 189 0 013-49l5-4 4-5s17-8 25-14c9-7 25-25 25-25l5-11v-4a84 84 0 00-6-22c-3-7-7-14-12-19l-2-2m150 49c-15 8-48 15-49 21 0 0-4 39-11 54-2 6-5 8-8 14l-6 17c-3 6-8 12-9 23l-1 9 10 6-11 3-16-6v-15l5-14v-3l-3-9v-32l5-24 4-89m133-126c6 5 14 8 34 3 4 2 8 5 17-6m-8-12l5 2c1 0 3-2 2-3l-3-1-4 2z" transform="matrix(.06022 -.00163 .00525 .06438 544 323)"/><path d="M547 408v1h1l-1-1z" fill="#000" stroke="none"/></g><g fill-rule="evenodd" stroke="#e3e4e5" stroke-width="0"><g fill="#e7e7e7" stroke="none"><path d="M564 426v5h2v-5a4 4 0 000-1v-2a4 4 0 000-1v-2a4 4 0 000-1v-12a4 4 0 000-1v-2h-1v2a4 4 0 000 1v7l-1 1v4a4 4 0 000 1v6z"/><path d="M564 428h2m-2-2h2m-2-1h2m-2-1a3 3 0 002 0m-2-1h2m-2-1h2m-2-2h2m-2-1h2m-2-1h2m-2-1h2m-1-2a4 4 0 001 0m-1-1h1m-1-1h1m-1-1h1m-1-1h1m-1-2h1m-1-1a5 5 0 001 0m-1-1h1m-1-1h1m-1-1h1m-2 24h2m-2 1h2"/></g><g stroke="#e7e7e7"><path d="M568 402l3-1a21 21 0 00-1 0h3a8 8 0 00-1-1h5a4 4 0 00-1-1 13 13 0 013 0c-4-2-9-1-12 1l1-2a4 4 0 00-1 0 6 6 0 012-1 5 5 0 00-1 0 10 10 0 012-1 5 5 0 00-1 0 8 8 0 012-2h-1l3-2c-5 0-8 4-8 7-2-3-5-5-11-5l4 1h-1l3 2h-2l3 1h-1l2 2h-1l2 1c-3-1-8 0-12 4l4-1-1 1 3-2a8 8 0 000 2l2-2v1l2-1v1h1c-3 2-5 5-4 9l1-3v1l2-3v2l1-3v1l2-3v1l1-2 1 1 1 2v-1a13 13 0 011 4v-2l1 4 1-2 1 4c1-5-1-8-3-10l2 2a8 8 0 00-1-2 23 23 0 013 2l-1-1 3 3-1-2a9 9 0 013 3l-1-2 2 3c0-4-5-8-9-8z" fill="#007934" stroke="none"/><path d="M566 402c5-1 11 3 11 8l-2-3 1 2a9 9 0 00-3-3l1 2-3-3 1 1a23 23 0 00-3-2l1 2a9 9 0 00-2-2m-3-2c-3-2-9-2-14 3l4-1-1 1 3-2v2l2-2v1l2-1v1h1" fill="none" stroke="none"/><path d="M565 401c0-4-5-7-11-7l4 1-1 1 3 1h-2l3 1h-1l2 2a4 4 0 00-1 0l2 1m2 1c-4 2-8 6-7 11l1-3v1l2-3v2l1-3v1l2-3v1l1-2m-2 0l-1 3m-1-2v3m-1-1l-1 3" fill="none" stroke="none"/><path class="fil1 str2" fill="none" d="M565 404v-1" stroke="none"/><path d="M570 408v2m-2-4v2m-1-4v2m7-1l1 2m-3-3a8 8 0 011 2m-3-3l1 2m-16-1a7 7 0 013-2m-1 1l3-1m-1 1l3-2m-1 2a8 8 0 013-1m-6-7l4 1m-2 1l3 1m-2 0a7 7 0 013 1m-2 1a6 6 0 013 1m1 0c3-3 9-4 13-2a13 13 0 00-3 0l1 1h-3 1-3l1 1h-3 1l-3 1m8-3a9 9 0 00-4 0m2 1a9 9 0 00-4-1m2 1h-4m2 1a8 8 0 00-3 0m1 2l1 1" fill="none" stroke="none"/><path d="M565 399c0-3 3-7 8-7a14 14 0 00-3 2h1l-2 2h1l-2 1h1l-2 1h1a10 10 0 00-1 2m3-6l-2 1m1 1h-2m1 1a6 6 0 00-2 1m1 0a5 5 0 00-2 2m-1 3a9 9 0 000 2m2-3c3 3 6 6 5 12l-1-4a4 4 0 01-1 2l-1-4a6 6 0 010 2l-1-4v1l-2-3" fill="none" stroke="none"/></g></g><g style="text-align:center;line-height:125%;-inkscape-font-specification:Linux Biolinum Bold"><path d="M508 365l2 1 1-1v-1l-1-1h-1l-1 1v1m3 1l2 2h1a4 4 0 001-2 1 1 0 000-1h-4v1m-4-1a47 47 0 001-2l1-1v-1h2l1 1v1a4 4 0 011 0 2 2 0 012 0l1 1-1 3v1l-1 1v1l-3-1-2-2a18 18 0 00-3-1l1-1m14-17v4a4 4 0 003 2 2 2 0 002-1v-1a5 5 0 00-1-3l-2-1h-2m5 0a4 4 0 012 3 4 4 0 01-2 3 5 5 0 01-3 1 4 4 0 01-3-1 4 4 0 01-1-3l1-4a5 5 0 014-1 4 4 0 012 2m13-4l1 1a23 23 0 002-1h1a7 7 0 000 1v1l-4 1h-1a20 20 0 00-1-3l-1-3v-2h1l1-1v3l1 3m14-5l1-2a18 18 0 002 0l-1 3v5a18 18 0 00-2 0v-6m16 8a56 56 0 005-4 5 5 0 001 1 436 436 0 00-7 6l-1-1v-3l1-4v-2a12 12 0 002 1 55 55 0 00-1 6m13 6l2-1a18 18 0 001 1l-2 2-2 2-2 2a18 18 0 00-1-2l2-1 2-3m8 16a68 68 0 002-2h-3a30 30 0 001 2m-2-2h-3a4 4 0 000-1h9v1l-6 7a13 13 0 00-1-2 38 38 0 002-2 55 55 0 00-1-3" style="-inkscape-font-specification:Linux Biolinum Bold" font-size="100" font-weight="700" letter-spacing="60" word-spacing="0" text-anchor="middle" fill="#e8a30e" font-family="Linux Biolinum"/></g><path d="M558 438l-1 4h-4l3 2-1 4 3-2 3 2-1-4 3-2h-4zm14-6l-1 4h-4l3 2-1 4 3-2 3 2-1-4 3-2h-4zm22-39l-1 4h-4l3 2-1 4 3-2 3 2-1-4 3-2h-4zm-10 28l1 4h3l-3 2 2 3-3-2-3 2 1-3-3-2h3zm7-13l1 4h4l-3 2 1 4-3-2-3 2 1-4-3-2h4zm-49 30l1 4h4l-3 2 1 4-3-2-3 2 1-4-3-2h4zm-14-6l1 4h4l-3 2 1 4-3-2-3 2 1-4-3-2h4zm-22-39l1 4h4l-3 2 1 4-3-2-3 2 1-4-3-2h4zm10 28l-1 4h-3l3 2-2 3 3-2 3 2-1-3 3-2h-3zm-7-13l-1 4h-4l3 2-1 4 3-2 3 2-1-4 3-2h-4z" fill="#e8a30e"/><g fill="#e7e7e7"><g stroke-width="0"><path d="M552 388v-1l-2-1h-1l-1 1v1h4"/><path d="M552 388v-1l-2-1v-1l-1 1-1 1v1h4zm0 1h-4 4m0 0h-4 4zm-4 0v-1 1-1h4v1-1 1"/><path d="M548 389v-1 1-1h4v1-1 1m-3-1h-1 1m2 0v-1 1zm-2 0v-1h-1v1h1zm1 0v-1h-1v1h1m1 0v-1h-1v1h1m-1-1"/><path d="M551 387v2h-2v-2h2"/><path d="M551 387v2h-2v-2h2zm-2 1h2m-2 1v-1m2 1v-1m0-1l-1-1-1 1h2m-1 0zm0 0zm1 0v1-1"/></g><path d="M550 384v1-1z" fill-rule="evenodd"/></g><path d="M546 329s-4 8-3 9c0 0 5-5 6-9v-5l-3 4" fill="#452c25"/><path d="M587 219s-9 19-6 21c0 0 11-11 13-21 3-9 0 0 0 0v-10l-7 9" transform="matrix(.43415 0 0 .44354 291 231)" fill="none" stroke="#000"/><path d="M546 325s-4 9-3 10l5-8c0-3 0 0 0 0l1-6" fill="#452c25"/><path d="M546 325s-4 9-3 10l5-8c0-3 0 0 0 0l1-6" fill="none"/><path d="M551 322s-5 10-4 10l5-7c1-3 0 0 0 0l1-6" fill="#452c25"/><path d="M551 322s-5 10-4 11l5-8c1-3 0 0 0 0l1-6" fill="none"/><path d="M608 306l5 3s1 1-2 0-9-3-20-10l-6-3h7l16 10z" fill="#452c25"/><path d="M608 306l5 3s1 1-2 0-9-3-20-10l-6-3h7l16 10z" fill="none"/><path d="M609 304l5 3s2 1-1 1c-3-1-9-3-20-10-5-3-1 3-1 3l1-4 16 7z" fill="#452c25"/><path d="M609 304l5 3s2 1-1 1c-3-1-9-3-20-10-5-3-1 3-1 3l1-4 16 7z" fill="none"/><path d="M618 307l-9-3h-2s1 2-8-3c-8-6-5-3-5-3l2-1 15 6 7 4" fill="#452c25"/><path d="M618 307l-9-3h-2s1 2-8-3c-8-6-5-3-5-3l2-1 15 6 7 4z" fill="none"/><path d="M585 310l2 3s0 2-7-3l-7-5 4-1 8 5" fill="#452c25"/><path d="M585 310l2 3s0 2-7-3l-7-5 4-1 8 5" fill="none"/><path d="M576 311l3 5c-1 1-5 0-8-4v-7l5 6" fill="#452c25"/><path d="M576 311l3 5c-1 1-5 0-8-4v-7l5 6" fill="none"/><path d="M579 309l3 5s-5 0-8-4c-4-4-1-6-1-6l6 5" fill="#452c25"/><path d="M579 309l3 5s-5 0-8-4c-4-4-1-6-1-6l6 5z" fill="none"/><path d="M598 307s9 3 2 3c0 0-13-3-20-9l2-3 16 8" fill="#452c25"/><path d="M598 307s9 3 2 3c0 0-13-3-20-9l2-3 16 8" fill="none"/><path d="M603 305l5 5c0 1-15-3-24-10l4-2 15 7z" fill="#452c25"/><path d="M603 305l5 5c0 1-15-3-24-10l4-2 15 7z" fill="none"/><path d="M588 308l3 3c0 1-7 0-13-5l1-2 9 4" fill="#452c25"/><path d="M588 308l3 3c0 1-7 0-13-5l1-2 9 4" fill="none"/><path d="M594 308l3 3c-1 0-3 2-17-6l-1-1 2-3 13 7" fill="#452c25"/><path d="M594 308l3 3c-1 0-3 2-17-6l-1-1 2-3 13 7z" fill="none"/><path d="M581 301l4 4c-1 1-6-1-8-2l-4-4 4-1 4 3z" fill="#452c25"/><path d="M581 301l4 4c-1 1-6-1-8-2l-4-4 4-1 4 3z" fill="none"/><path d="M576 294l7 5 6 5-9-3c-4-2-8-7-8-7" fill="#452c25"/><path d="M576 294l7 5 6 5-9-3c-4-2-8-7-8-7" fill="none"/><path d="M571 316v4c-1 1-3 0-5-3-1-4 2-2 2-2l3 1z" fill="#452c25"/><path d="M571 316v4c-1 1-3 0-5-3-1-4 2-2 2-2l3 1z" fill="none"/><path d="M573 314l2 4s-3 2-7-3c-3-5 4-4 4-4l1 3z" fill="#452c25"/><path d="M573 314l2 4s-3 2-7-3c-3-5 4-4 4-4l1 3z" fill="none"/><path d="M567 297l7 16c-1 1-4 0-6-4l-3-9 2-3z" fill="#452c25"/><path d="M567 297l7 16c-1 1-4 0-6-4l-3-9 2-3z" fill="none"/><path d="M575 301s7 5 5 6c-1 1-3 0-7-4-4-3 2-2 2-2" fill="#452c25"/><path d="M575 301s7 5 5 6c-1 1-3 0-7-4-4-3 2-2 2-2z" fill="none"/><path d="M572 301l4 9-5-4a25 25 0 01-3-5" fill="#452c25"/><path d="M572 301l4 9-5-4a25 25 0 01-3-5" fill="none"/><path d="M539 318v5c0 1 3 1 3-3l-1-4-2 2" fill="#452c25"/><path d="M539 318v5c0 1 3 1 3-3l-1-4-2 2" fill="none"/><path d="M540 312s-1 6 0 7c2 1 3-6 3-7h-3" fill="#452c25"/><path d="M540 312s-1 6 0 7c2 1 3-6 3-7h-3z" fill="none"/><path d="M542 319l1 5c1 1 2-1 2-2l-1-5-3 2" fill="#452c25"/><path d="M542 319l1 5c1 1 2-1 2-2l-1-5-3 2" fill="none"/><path d="M542 313s-2 6 0 7c1 1 3-6 3-7 0-2-3 0-3 0zm0-9l-3 4c0 2 4-1 4-2 1-1-1-2-1-2" fill="#452c25"/><path d="M542 304l-3 4c0 2 4-1 4-2 1-1-1-2-1-2z" fill="none"/><path d="M540 303l-1 5 3-2c1-2-2-3-2-3" fill="#452c25"/><path d="M540 303l-1 5 3-2c1-2-2-3-2-3z" fill="none"/><path d="M568 298l2 6c-1 1-2-1-3-3-2-1 1-3 1-3" fill="#452c25"/><path d="M568 298l2 6c-1 1-2-1-3-3-2-1 1-3 1-3z" fill="none"/><path d="M568 310s1 5 0 6c-2 1-3-4-3-5 0-2 3-1 3-1zm-4 8v4c-1 1-2 1-4-2v-2l3-2 1 2" fill="#452c25"/><path d="M568 317l-1 5s-3-2-3-4c-2-3 3-2 3-2l1 1z" fill="#452c25"/><path d="M564 305s4 9 3 11-5-6-6-9c-1-4 3-2 3-2z" fill="#452c25"/><path d="M562 307s6 10 3 10c-2 0-6-7-7-9s4-1 4-1z" fill="#452c25"/><path d="M562 309s3 10 1 9-4-8-4-10c-1-2 3 1 3 1zm9-14s5 7 3 7l-6-5 3-2z" fill="#452c25"/><path d="M569 295s5 8 4 8l-2-1-5-5 3-2m5 1s4 3 3 5c-1 1-6-5-7-6h5m-10 6s6 11 5 13c-1 1-8-9-8-11l3-2" fill="#452c25"/><path d="M562 302l2 5c0 2-4-2-4-3l2-2zm5-2l1 5c-1 1-3-2-4-4-1-1 3-1 3-1zm-9 4l3 5-5-4 2-1zm19-10l4 5c-1 1-7-4-8-5h4z" fill="#452c25"/><path d="M573 294l4 3 2 3-6-3-1-2 1-1zm12 1s13 5 12 7l-16-6c-2-2 3-1 3-1" fill="#452c25"/><path d="M585 297s10 5 9 6l-12-4-5-4 4-1 4 3zm-24 6l1 5c-1 1-2-1-3-2s2-3 2-3zm0 9s2 5 0 6-3-5-3-7l3 1z" fill="#452c25"/><path d="M554 303l6-2 2-1 2-2s-1-6 6-6l18 2 10 3a367 367 0 0014 6l6 4c2 1 0 0 0 0s-17-9-23-10l1 2-6-3a9 9 0 00-4 0l-4-1h-7l-1-1v1l-2-1-1 2-3-1-2 5-3 2a8 8 0 01-2 1l-2 2h-5l-1-2h1zm7 15v6c-1 0-3 0-3-4l1-4 2 2" fill="#452c25"/><path d="M561 315v-3c-1 0 0 0 0 0l-2-3-1-2v-1l-3-3-2-1-7-1c-3 0-5 3-5 3v3l1-1-1 4 1 4v1l1 5 1 1v2l1 1 1 2 1 2v-1l1 1v1l2-2v-1h1l1-2 2 3 1 1v-1l1 2v-1l1 1 1-1 1-3 1 1v-3l1-1v-3c0-1 0 0 0 0v-4z" fill="#452c25"/><path d="M557 307l1 1-1-1m0 2l1 3-1-3m2 1a5 5 0 010 3v-3m1 4a17 17 0 01-1 2l1-2m-1 3v1a6 6 0 000-1m1 0l1 1a2 2 0 00-1-1m0-4l1 1v-1a5 5 0 00-1 0m-2 3v2a10 10 0 000-2m-1 1v2a10 10 0 000-2"/><path d="M536 304s-2 5-1 5c2 1 3-3 4-5 0-2-3 0-3 0" fill="#452c25"/><path d="M536 304s-2 5-1 5c2 1 3-3 4-5 0-2-3 0-3 0z" fill="none"/><path d="M538 304l-2 4 4-3-2-1" fill="#452c25"/><path d="M538 304l-2 4 4-3-2-1z" fill="none"/><path d="M495 304l-5 4c-1 1 15-2 24-8l-3-2-16 6z" fill="#452c25"/><path d="M495 304l-5 4c-1 1 15-2 24-8l-3-2-16 6z" fill="none"/><path d="M501 305s-9 3-2 4c0 0 14-3 21-9l-2-2-16 7" fill="#452c25"/><path d="M502 305s-10 3-3 4c0 0 14-3 21-9l-2-2-16 7z" fill="none"/><path d="M515 295s-10 6-8 6c1 1 8-1 12-3l5-4-5-1-4 2z" fill="#452c25"/><path d="M515 295s-10 6-8 6c1 1 8-1 12-3l5-4-5-1-4 2z" fill="none"/><path d="M512 307l-3 3s7-1 13-5l-1-3-9 5" fill="#452c25"/><path d="M512 307l-3 3s7-1 13-5l-1-3-9 5" fill="none"/><path d="M505 306l-2 3c1 0 3 2 16-6l2-1-2-3-14 7" fill="#452c25"/><path d="M505 306l-2 3c1 0 3 2 16-6l2-1-2-3-14 7z" fill="none"/><path d="M503 296c-11 4-22 12-22 12l28-12m18 17l-2 4c0 1 3 2 6-3 4-4-3-3-3-3l-1 2z" fill="#452c25"/><path d="M527 313l-2 4c0 1 3 2 6-3 4-4-3-3-3-3l-1 2z" fill="none"/><path d="M529 316l-1 4c1 0 3 0 5-4 2-3-1-1-1-1l-3 1zm-5-6l-3 5c1 1 5 1 8-4 3-4 0 0 0 0l-1-4-4 3" fill="#452c25"/><path d="M529 316l-1 4c1 0 3 0 5-4 2-3-1-1-1-1l-3 1zm-5-6l-3 5c1 1 5 1 8-4 3-4 0 0 0 0l-1-4-4 3" fill="none"/><path d="M521 308l-3 5s4 0 8-4 1-5 1-5l-6 4" fill="#452c25"/><path d="M521 308l-3 5s4 0 8-4 1-5 1-5l-6 4" fill="none"/><path d="M515 308l-3 3s1 3 8-2l7-5-3-1-9 5" fill="#452c25"/><path d="M515 308l-3 3s1 3 8-2l7-5-3-1-9 5z" fill="none"/><path d="M491 304l-5 2s-1 1 2 1 8-1 18-6a52 52 0 008-5l-4-2-19 10z" fill="#452c25"/><path d="M491 304l-5 2s-1 1 2 1 8-1 18-6a52 52 0 008-5l-4-2-19 10z" fill="none"/><path d="M483 307s7-1 9-3h3s-1 3 9-3l11-7-1-1-23 10-8 4" fill="#452c25"/><path d="M504 301l11-7-1-1-23 10-8 4s7-1 9-3h3s-1 3 9-3z" fill="none"/><path d="M532 316v5c1 0 3-1 4-5 1-3-3-3-3-3l-1 2" fill="#452c25"/><path d="M532 316v5c1 0 3-1 4-5 1-3-3-3-3-3l-1 2" fill="none"/><path d="M536 318v4s2 1 3-2l1-2-4-2v2" fill="#452c25"/><path d="M536 318v4s2 1 3-2l1-2-4-2v2z" fill="none"/><path d="M537 311s-3 6-2 6c2 0 4-5 5-6h-3" fill="#452c25"/><path d="M537 311s-3 6-2 6c2 0 4-5 5-6h-3z" fill="none"/><path d="M536 311s-1 7 1 6l2-7-3 1" fill="#452c25"/><path d="M536 311s-1 7 1 6l2-7-3 1z" fill="none"/><path d="M539 312s-2 5 0 6c1 1 3-5 3-7l-3 1" fill="#452c25"/><path d="M539 312s-2 5 0 6c1 1 3-5 3-7l-3 1z" fill="none"/><path d="M532 310s-2 5-1 5c2 1 4-3 4-5s-3 0-3 0zm-12-10l-4 4 8-2 3-3-4-2-3 3z" fill="#452c25"/><path d="M523 296l-2 3 7-3 1-2-6 2z" fill="none"/><path d="M526 295s-3 4-3 5c1 1 7-4 7-5h-4" fill="#452c25"/><path d="M525 294l-8 4-6 4c1 1 6-1 9-2l8-5m-1 3s-9 7-7 8c1 1 7-2 10-6" fill="#452c25"/><path d="M528 301l-4 8 5-4 3-5" fill="#452c25"/><path d="M531 301l-5 11c1 0 4 0 5-4l2-6-2-1z" fill="#452c25"/><path d="M534 302s-6 12-5 13 7-9 8-11c0-2-3-2-3-2m-12-8s-6 2-5 3l7-2-2-1z" fill="#452c25"/><path d="M522 295l-2 3 6-3h-4zm7 0s-4 6-3 6l6-4c1-1-3-2-3-2z" fill="#452c25"/><path d="M531 296s-5 6-3 6h1l4-4-2-2" fill="#452c25"/><path d="M532 298l-2 6 4-3c1-2-2-3-2-3z" fill="#452c25"/><path d="M533 300l-1 5 3-2c1-1-2-3-2-3zm1 11s-1 5 0 5c2 1 3-3 3-5s-3 0-3 0z" fill="#452c25"/><path d="M543 304l-2-1-5-2c-1 0 0 0 0 0v-5l-3-4h-19l-18 7 17-5h5s-4 2 0 1h12l2 4s2 4 5 4l2 2h2l2-1" fill="#452c25"/><path d="M516 294s-13 5-13 6c1 1 14-4 16-5 2-2-3-1-3-1" fill="#452c25"/><path d="M553 304h1a2 2 0 00-1 0l-1-1v1h1m-11 10l1 1-1-1m2-10h2v-1l-2 1m3 0a3 3 0 011-1 3 3 0 00-1 0v1m-5 9a8 8 0 000 1 6 6 0 010-1"/><path d="M545 334l-2 2v1l1 1 1-2 2-2 1 1h2l-1-1h1l-1-1-2-1 2-4-2-2v3l-2 4-4 1-1 2h2v-1h1" fill="#bd8759"/><path d="M545 334l-2 2v1l1 1 1-2 2-2 1 1h2l-1-1h1l-1-1-2-1 2-4-2-2v3l-2 4-4 1-1 2h2v-1h1" fill="none"/><path d="M555 327v3a4 4 0 010 2l-2 1h-2v1h1v1l1-1h2v2l1 2v-1l1 1v-2l-1-2 3 1v1l1-1c1 0 0 0 0 0l-1-2h-2l-1-2v-4h-1" fill="#bd8759"/><path d="M555 327v3a4 4 0 010 2l-2 1h-2v1h1v1l1-1h2v2l1 2v-1l1 1v-2l-1-2 3 1v1l1-1c1 0 0 0 0 0l-1-2h-2l-1-2v-4h-1z" fill="none"/><path d="M542 308l1-2s0-2 2-2h4l2 1h2v2l1 1v2l1 1-1 1-1 2-1 1-1 1-2-1-1-1-2 2a3 3 0 01-2-2l-1-1-1-2 1-1-1-2z" fill="#dcddde"/><path d="M547 331h-1m1-1v1m-2 2a1 1 0 001 0m10-2v1m0-1v-1m-1 3h1m-1 1h1m-7-1v1m-7 0v1m16-2a1 1 0 000 1m1 0h-1" fill="none"/><path d="M540 336h1l-1 1v-1" fill="#d9c0b9"/><path d="M540 336h1l-1 1v-1z" fill="none"/><path d="M543 337s-1 1 0 2l1-2h-1z" fill="#d9c0b9"/><path d="M543 337s-1 1 0 2l1-2h-1z" fill="none"/><path d="M549 335v-1h1v1h-1" fill="#d9c0b9"/><path d="M549 335v-1h1v1h-1z" fill="none"/><path d="M551 333h1v2h-1v-2" fill="#d9c0b9"/><path d="M551 333h1v2h-1v-2z" fill="none"/><path d="M555 337h2l-1 2-1-2" fill="#d9c0b9"/><path d="M555 337h2l-1 2-1-2z" fill="none"/><path d="M559 336l1 1v-2l-1 1z" fill="#d9c0b9"/><path d="M559 336l1 1v-2l-1 1z" fill="none"/><path d="M555 309l1 1a3 3 0 00-1-1m4 11a8 8 0 010 2 8 8 0 000-2m0 1l-1 2 1-2m-16-4l1 2v-1l-1-1m2 0v-1 1m-1 2l1 2-1-2m1 3l1 1-1-1c1 0 0 0 0 0m2 0a4 4 0 010 2v-2m0 2v1a5 5 0 01-1-1h1m0-7l1 1v-1h-1m0 2l2 1-2-1m1 2l1 1-1-1m0 2a3 3 0 011 2v-1a3 3 0 00-1-1m2-6v1a16 16 0 010-1m5-1v1a7 7 0 000-1m0 2v1a6 6 0 000-1m-2 0l-1 1 1-1m-1 5l-1-2 1 2m5 1l-1 1 1-1m1 1a27 27 0 000 3v-3m-16-10v2a3 3 0 010-1v-1"/><path d="M548 307l4-2c-1-1-3 1-4 2m6 1h-5 5m-5 2l1 4-1-4m-2 1v-1 1m3-1a6 6 0 014 2 6 6 0 00-4-3v1m-1 2l-1 2v1l1-3c0-1 0-1 0 0m2-1l2 3c0 1 0 0 0 0a5 5 0 00-2-3m-7 3l1-1-1 1m2-8l-1-2 1 2m-1 0a5 5 0 00-2 0h2m2 0v-2 2m3 1l3-1-3 1m2 2l2 1a4 4 0 00-2-2v1m-5 3c-1 1 0 2-2 3 2 0 1-2 2-3" fill="#fff"/><path d="M549 311l1 3v1l-1-4m2 0a3 3 0 012 2 3 3 0 00-2-3v1m-1-3l4 1v-1h-4m-2-2l2-2-2 2m-1 1l-1-3 1 3m-1 0a3 3 0 00-2-2 3 3 0 012 2c0 1 0 0 0 0m-2 0a4 4 0 00-1-1l1 1m4 4" fill="#fff"/><path d="M549 311l1 3a9 9 0 00-1-4v1m1-2l3 2v-1l-3-1m-3-2v-2c0-1 0-1 0 0a19 19 0 010 2m-2 0a9 9 0 01-2-2v1l2 1m0 5l-1 1 1-1m1 1l-1 1v1a3 3 0 001-2s0-1 0 0m4-6l3-1v-1l-3 2m-7 0s-1 0 0 0m1 5l-1 1 1-1m2 0c-1 1-2 2-1 3l1-2v-1m1 0v3a15 15 0 000-3m3-1l1 3a8 8 0 00-1-3m0 0l3 2-3-3v1m1-2h1l1 1h1-1l-1-1h-1" fill="#fff"/><path d="M554 311v1-1s-1 0 0 0m-4-5l3-1h-3v1m-3 0l1-1v-2 1l-1 2m0 6a1 1 0 000 1 2 2 0 000-1m-1 0l-2 1 2-1m-2 0h1-1m-1 0h-1 1m4-1l1 1v-1a1 1 0 00-1 0m1 0v1a2 2 0 010-1m1 0h1a1 1 0 00-1-1v1m1-1l1 1v-1a2 2 0 01-1 0m0-1h1v-1a4 4 0 00-1 0v1m0-1l1-1h-1v1m-1-1l1-1a2 2 0 00-1 1m0-1l1-1-1 1s0 1 0 0" fill="#fff"/><path d="M548 305v1a6 6 0 010-1m-3 1v1-1m2 1a4 4 0 00-1-3 3 3 0 011 2v1m2-1v-1 1" fill="#fff"/><path d="M546 307l1-2-1 1a2 2 0 000 1m6 3l1 1v-1a2 2 0 00-1-1v1m-2 3v-1 1m-1 0l-1 2 1-2m-2-1c0-1 0 0 0 0m1 0v-1 1m0-1l1 1v-1h-1m2 0v-1 1s-1 0 0 0m0-1l1 1v-1a6 6 0 01-1-1v1m-6-3l-1-1v1h1m2-1v-1 1m2 1v-2 2m1 0v-1 1m1 0h-1 1m0 1l1 1s1 0 0 0l-1-1" fill="#fff"/><path d="M550 309l1 1-1-1m-3-2v-1c0 1 0 0 0 0v1m-4-1l2 1 1 1v-1l-1-1-2-1m1 2v-1 1s-1 0 0 0v1-1m0 4l-1 1v1l1-1v-1m2 4v-3c0-1 0 0 0 0v3m2-3v-1 1m0-1a21 21 0 010 3v-3m1 0l1 2v-1a6 6 0 00-1-1m2-1l-1-1v1" fill="#fff"/><path d="M550 310l1-1h-1v1m1-5a5 5 0 00-1 2s0 1 0 0a4 4 0 011-1v-1m-3 0l1 2v-1l-1-1m0 1h-1c0-1 0 0 0 0l1 1v-1m-1 1a6 6 0 01-2-1l2 1" fill="#fff"/><path d="M548 307h-4l-3 1-2-1h-3l-1 2-1 1v1l2 1 2 1 6-1 6-2v-3h-2" fill="#dba05f"/><path d="M548 307h-4l-3 1-2-1h-3l-1 2-1 1v1l2 1 2 1 6-1 6-2v-3h-2z" fill="none"/><path d="M537 310h-1v-1h1l1-1h-1 1l-1 1h1v-1 1h-1l-1 1"/><path d="M536 309h1l1-1" fill="none"/><path d="M537 308v1h-1m1 0l1-1m-1 1h1" fill="none"/><path d="M538 309l-1 1 1-1"/><path d="M538 309l-1 1m0 0l1-1m-1 1c1 0 0 0 0 0" fill="none"/><path d="M539 307l-1-1a5 5 0 00-2 0h-2v2l-1 1 1 1v-1l1-1h3l1-1z" fill="#c6262c"/><path d="M539 307l-1-1a5 5 0 00-2 0h-2v2l-1 1 1 1v-1l1-1h3l1-1z" fill="none"/><path d="M538 309l-1 1v-1h1"/><path d="M532 313s-1-2 2-3l1 1-2 1-1 1" fill="#d9c0b9"/><path d="M532 313s-1-2 2-3l1 1-2 1-1 1z" fill="none"/><path d="M532 313l3-1h1l-1-1-1 1-2 1" fill="#d9c0b9"/><path d="M532 313l3-1h1l-1-1-1 1-2 1z" fill="none"/><path d="M536 312h1-1m0-3h-1 1m0 0h1-1m2 1v-1 1m-1-1l-1 1 1-1m0 3h2-2m3 0l1-2-1 2c-1 0 0 0 0 0m0-1l1-1v-1l-1 2m0-3h1-1m9 1v-2 2m-7-1c0 1 2 1 1 2 1-1 0-1-1-2m3 4a2 2 0 000-1v1" fill="#7a2e26"/><path d="M534 311l-1 1 1-1" fill="#5e3f17"/><path d="M535 309v-1 1m1-1l-1-1 1 1m1 0l-1-1s1 0 0 0v1h1m-2-2l3 1v-1h-3" fill="#842116"/><path d="M534 310l-1-1h1v1m7 2v-1 1m1 0a1 1 0 000-1v1m6-3v-1 1m0 0l-1 1 1-1" fill="#7a2e26"/><path d="M541 305l-5-2c-3-1-4-4-4-4l-2-4c-2 2-5 0-5 0h-7c-4 1 0-1 0-1h-5l-4 2-4 1-10 4-9 4 12-7 16-6a15 15 0 0110 0h9c2 1 3 5 3 5v4s-1 0 0 0c2 0 5 3 5 3l1-1 1-1h9l2 1h1l5-2 2-1 2-2s-1-6 6-6l18 2a69 69 0 0118 7l6 2a23 23 0 016 4l-5-3-4-1-6-3-7-2 1 1-7-2a9 9 0 00-4-1l-4-1h-10l-1 1h-3l-2 4-4 2-2 1h-2l-2 1-2-1h-10l-2 1" fill="#dcddde"/><path d="M541 305l-5-2c-3-1-4-4-4-4l-2-4c-2 2-5 0-5 0h-7c-4 1 0-1 0-1h-5l-4 2-4 1-10 4-9 4 12-7 16-6a15 15 0 0110 0h9c2 1 3 5 3 5v4s-1 0 0 0c2 0 5 3 5 3l1-1 1-1h9l2 1h1l5-2 2-1 2-2s-1-6 6-6l18 2a69 69 0 0118 7l6 2 6 4-5-3-4-1-6-3-7-2 1 1-7-2a9 9 0 00-4-1l-4-1h-10l-1 1h-3l-2 4-4 2-2 1h-2l-2 1-2-1h-10l-2 1" fill="#e7e7e7"/><path d="M542 304l-1 1" fill="#452c25"/><path d="M555 303a8 8 0 011 1l-1-1" fill="#574f4c"/></svg>