<svg xmlns="http://www.w3.org/2000/svg" viewBox="0 0 900 600"><path fill="#ffd520" d="M0 0h900v600H0z"/><path d="M0 600h900V0z" fill="#ff4e12"/><g stroke="#000"><g fill="#fff"><path d="M482 188c-5-2-8 0-8 7 0 6 3 10 8 8v-15z"/><path d="M486 176c-4-4-8-2-10 4s0 11 6 10l4-14z"/><path d="M493 164c-4-4-8-3-10 2-3 6-2 11 3 11l7-13zm-4 57c-7 2-7 10-3 15 3 6 11 6 14 0l-11-15z"/><path d="M481 203c-5-2-11 6-11 13-2 9-14 12-7 25 1-9 7-13 11-14 5 0 12-1 15-6l-8-18zm19 34c-7 2-8 11-3 17 4 6 17 5 17-1l-14-16zm19 55c0-6-9-8-14-7-4 1-13-1-15-5-1 4 1 8 8 10 4 1 4 5 3 7 4 0 15 0 18-5z"/><path d="M514 255c-7-3-11 1-13 5-4 7-16-1-19 7 5-2 10 3 13 4 7 5 20 3 22-8l-3-8z"/><path d="M517 262c-6 5-9 11-9 15 1 4 6 13 12 14 4-8 6-23-3-29zm-27 31c0-2 4-3 6-2s6 3 5 6l-11-4zm-36-13c-1-3 4-8 10-5s7 8 5 10l-15-5z"/><path d="M469 285c0-1 4-4 12-2 7 1 9 6 9 10l-21-8zm-16-5c4-3 2-9-1-10-7-4-4-12-9-14-4-1-8-4-8-7-2 4-1 8 2 10 3 3-2 13 2 16l14 5zm-86-2c-4-5-12-4-15-1-4 4-3 9 0 12l15-11zm19-8c-1-7-10-8-15-6-4 2-7 9-4 14l19-8z"/><path d="M399 269c3-6-3-15-10-16-5-1-12-1-14-7-2 5 2 8 6 11s-1 10 6 14l12-2z"/><path d="M398 269c-1-4 2-10 7-9 6 0 10 4 7 10l-14-1z"/><path d="M411 270c-1-5 3-10 9-9s8 6 5 11l-14-2z"/><path d="M424 272c-1-5 3-10 9-8 5 1 8 6 4 11l-13-3zm-97 73c-11 0-14 3-15 14-2 14 17 15 15-14z"/><path d="M332 331c-17-6-26 20-42 15 5 9 20 0 25 1 9 2 28-2 17-16zm-11 36c-8-4-17 9-16 14 2 7 21 1 16-14zm-39 54c5 1 10 4 9 12-1 9-17 27-32 28s-20 19-33 14c12-3 12-16 22-20-7-3-11 13-19 13-9 0-13 13-24 12-10-1-12 17-33 17-16 1-36 20-43 11 15-2 22-11 31-20 15-16 32-9 38-22-7 4-15 7-23 6-10 0-21 16-32 9 7-1 11-3 18-11 7-7 17-2 25-10 12-11 23-1 35-16-3-2-10 0-17 3-7 4-16-2-23 2 1-10 19-4 30-11 13-7 23-5 33-4-14 0-19-13-38-10-9 2-16-11-24-4 0-5 9-9 18-5 9 5 13-4 31 7 7 5 20-2 28 3-1-4-6-5-11-5 3-7 25-6 34 1z"/><path d="M297 410c-7-5-17 2-24-1 0 4 2 11 10 14l14-13z"/><path d="M308 395c-11-6-13 8-22 5 0 4 4 9 11 10l11-15z"/><path d="M314 382c-16-6-18 9-28 6 3 6 16 9 24 7l4-13zm23-69c-4-6-14-1-15 6s2 17 8 15l7-21z"/><path d="M348 294c-7-2-16-1-15 6-3 1-4 11 4 13l11-19z"/><path d="M353 289c-7-9-16-9-20-5-9 7-17 3-17 10 5-4 9 0 14-1 4-2 7 6 18 3l5-7zm-18 130c1 2 8 3 12-1 4-5-1-18-8-19s-8 15-4 20z"/><path d="M327 419c10 4 15-5 9-10l-9 10z"/><path d="M289 433c-2 6-12 7-23 25s-22 10-25 22c14-11 24-3 32-14 13-16 23-14 27-25 7-16 37-16 38-40-10-2-41 24-49 32zm254-244c13 5 13 21 28 27 15 5 17 18 29 15-12-3-11-16-23-19-13-4-19-25-30-28m55 93c3 5 2 14-6 17 5 2 11 0 15-6-6 11-2 22 6 24-4-8 5-12 2-17 6 2 10 9 10 14 7-8-5-18-3-25l-24-7zm-83 83c-8-7-11 1-15-2s-9-3-11 0c7 0 4 5 17 7-13 1-11 15-19 14 9 9 14-7 21-5-2 1 4 6 0 13 6 0 9-9 10-13l-3-14zm-174 75c-3-3-11-4-14-2s-2 2 2 3c3 0 8 6 0 7-4 0-3 9-11 10 4 4 13 1 16-3 0 3 5 7 3 11 6 1 2-12 12-11-4 0-3 9 4 7-4 2-2 6 3 5-3 1-4 5 0 7 4-5-1-24-15-34zm351-178a22 22 0 100-45 22 22 0 000 45z"/><path d="M579 284c7-6 17-10 24-5 8 5 31 11 43 3 11-8 17-12 22-12 4 6 8 9 14 10l12 3c5 1 11-1 16-6 8 1 15-5 18-14 8-1 9-10 3-16-4-1-1-17-18-14 7 5 2 14 8 18-5 0-10 2-11 8 1-4 0-7-2-8 1-4-8-13-15-10 5 1 2 10 6 14-3 0-6 1-8 4-2-4-9-8-14-8v-5c-2-4-4-9-3-14-4 4-7 10-9 14-6-4-22 2-29 3-7 2-31-2-36-8-6-6-16-9-26-12-14-4-14-19-29-29 0 18 28 78 34 84zM422 426a22 22 0 100-43 22 22 0 000 43z"/><path d="M370 410c4 5 12 5 15 5 2 6 11 6 14 10 4 4 16 3 19 1-3 0-7-2-11-5-5-5-3-13-7-16 3-3 4-8 3-10l6-6c5-1 10-3 12-5 2 2 9-1 13 3 1-11-9-16-16-13-3-1-10 0-11 2-3-1-9 2-12 4 4-2 4-7 3-9 2-1 6-5 6-7l12-2c-4-5-11-7-18-7-7 1-11 6-12 11-4 3-5 12-4 15l-6 3-11-2m1-9c-1-4 1-8 2-11 2-9 1-11-7-10 0 4 3 18 5 21z"/><path d="M361 353c2 2 9 3 9-3 1-7-2-10-8-7l-1 10z"/><path d="M362 342c3 1 8 4 11-2 3-5 0-9-6-9l-5 11z"/><path d="M367 331c1 1 7 8 12 3 5-4 5-11-2-14-2 0-8 7-10 11z"/><path d="M377 320c1 4 6 11 14 8s5-14 1-16c-2 0-12 4-15 8z"/><path d="M392 312c-1 4 0 13 11 13 12 0 9-13 6-15-5 0-13 0-17 2z"/><path d="M409 310c-1 3-4 21 18 16 3-1 11-17-18-16z"/><path d="M421 312c-2 2 4 20 19 17s2-20-19-17z"/><path d="M434 314c-2 5 1 20 20 20 17 0-1-19-20-20z"/><path d="M449 319c-1 3-3 18 19 20 16 1 12-22-19-20z"/><path d="M473 325c-3 5-6 17 18 18 16 1 6-17-18-18z"/><path d="M493 329c-4 5-1 14 8 16 11 2 13-8 5-13s-13-3-13-3z"/><path d="M504 331c-3 5-1 16 16 16 3 0 17-14-16-16zM371 541a25 25 0 100-50 25 25 0 000 50z"/><path d="M555 177l-7 10c-8 25 14 44 27 71 11 21 9 55-7 76-5 7-4 9-11 17-2 3-5 6-4 16 4-1 11 3 12 7 3-2 8-1 9 0 6-2 10-1 15 4 4 0 9 0 13 5 2-5 7-6 10-5-1-6 5-10 10-8-1-8 6-14 13-11 5-5 17-5 23 2-10-3-10 8-19 7 2 6-3 10-9 12 4-2 8-4 9-2 3-2 10-1 11 0 4-1 8 0 10 5 6 3 10 12 6 19-1-7-6-7-8-9-5 1-9 1-10-2-3 3-12 5-16 1-1 6-6 11-12 11 2 4-3 12-6 16 5 3 4 9 2 13 9 1 2 9 16 14-7 2-21 0-23-9-7 0-12-7-11-15-6-5-7-12 1-18-7 2-10-8-19-4-5 2-17-1-17-6-2 4-14 2-15-3-4 2-13-2-13-7-5 2-12-2-12-7-4 0-5-5-4-8-5-2-3-6-2-11-3-3-1-8 1-12-3-3-3-7-2-11-15-2-35-5-79-19-67-21-85 28-70 58 17 35-2 42 4 68 6 2 9 7 9 12 3 0 6 4 5 10 3 0 7 1 9 3 2-4 10-5 14 0 8-1 12 6 12 14 4 8 3 18-2 25v-12c0-5-8-6-7-10-4 0-8-2-9-5-2 2-5 3-8 2 4 2 8 9 6 14 3 4 2 11-1 14-1 7-6 9-12 6 3-2 5-6 5-9-3-2-4-6-4-8-6 1-15-5-17-7-13 0-25 11-25 25 0-5-7-10-6-14-4-12 2-23 17-26-1-4 5-9 3-14-4-7-10-15-19-25 6-9 4-22 1-30-5-11-9-8-25 10-27 29-63 21-94 41-9 5-17 7-8-2s33-18 48-26c29-15 54-39 63-86 23-110 106-74 159-53 50 19 41-25 16-51-30-32-24-57-10-77 25-3 74 6 64 14z"/><path d="M645 448a28 28 0 100-55 28 28 0 000 55z"/></g><g fill="none"><path d="M540 178c-6 27-1 40 8 52 18 24 33 80 12 117"/><g stroke-linecap="round"><path d="M572 315c2-1 7-4 8-9m-6-2c1-5 8-7 8-12m-8-7c-1-4 7-9 6-14m-10-3c-1-3 6-8 4-12m-10-5c-1-3 4-6 2-10m-9-3c-1-2 2-7 1-10m-9-6c1-1 3-3 2-5m-7-7c1-1 4-1 4-4"/><path stroke-linejoin="round" d="M383 514c-7-3-15 1-17 6m5 5c1-5 9-8 12-5-5-3-8 7-3 7m43-129c-4 2-5 9 0 14m6-13c-3 3-3 9 1 11-3-3 0-7 3-7 2 0 4 3 1 6m221 6c-9-2-16 8-8 18 0-9 6-15 14-14m-3 6c-3 0-4 2-4 4s2 3 4 3 3-1 3-3m28-201c2 5 9 8 15 6m0-3c-4 0-8-4-8-8 0 3 6 4 8 2"/><path d="M385 415c-1-4 4-7 4-10s6-5 11 0m-2-34l-3 2m14 16l-6-1m0 7l-5 2m-50 95c0 3 3 7 4 8m9-15c-2 2-3 7-2 10m26 0c-3-2-1-7-2-10 0-4 4-9 11-4m-37-5l8 1m29-10l-2 5m16-5c-3 0-4 1-5 3m-27-86c3 1 10 5 10 10m18-30c-8-1-11-9-5-9m19 19c-3 2-2 7 3 9m-22 42c-1-2 1-8 6-6m6 65c0-5 6-8 9-3m-32 17c0-6 2-8 5-8 2 0 6 2 7 5m-60 7c0-4 3-7 6-6m289-137c-2 1-4 8 4 9m-17 2l2 2m36 11c-2-2-7 5-2 10m-49 44c-1-5 3-6 7-5m-17-28l8-4m-9 22c0-4 2-7 3-8m11-36c-1 4 1 9 3 11m35-11l-5 4m3 9l3-3m57-137c0 4-5 7-9 4m22-4c2 2 11 0 9-5m-20 31c-2-1-5-2-6-4m24-10h-6m-40 17c2 0 6-1 8-3m-13-26l-4 1m37 7c-1 2-2 5-4 6"/><path stroke-linejoin="round" d="M672 266c4-2 9 12 19 7m0-14l-2 7"/></g><path d="M499 238l4-2M333 388c5 3 8 7 6 14m216-179h9m4 3c0 3 1 11-4 13m2-1c4 1 12 1 15-7m-6 6c2 4 3 10-3 13m5-7c4 1 15 2 14-8m-4 8c4 4 18 10 15 0m-28 13c6 1 14-3 10-12m16 5c1 3 19 7 16-1m-3 5c3 7 21 7 15-4m-2 8c3 5 19 2 13-8m-1 8c10 8 22-3 9-11m6 9c9 7 19-6 12-9m-81 6c3 1 9 0 10-5m-2 4c-1 7 12 10 15 2m-4 4c2 5 13 7 15 0m-2 3c2 5 11 5 14 0m-4 3c3 6 15 6 18-3m-2 4c4 3 14 2 13-7m-1 6c6 6 16 0 11-9m0 16c4 0 6-8 2-9m-88 11c8-4 9-11 4-18m3 11c5 3 14 0 15-8m-9 9c3 3 4 7 0 11m3-7c8-5 19 5 11 10m-2-10c2-1 6-4 6-9m-2 12c4-3 28 4 13 12m-1-22c4 2 7 8 0 11m6 5c5-5 21-2 15 5m-4-7c3-10 20-4 15 0m-18-10c0 2 0 7-3 10m17-12c1 2 1 5-1 7m12-6c1 1 3 5-1 7m-137-82c1 10 4 16 16 10m-12 1c-6 9 1 17 13 9m-32-5c9 9 24 3 14-11m10 19c-1 9 6 11 12 7m-43-13c1 9 11 16 19 10m-8 2c0 13 17 14 21 1m-6 8c6 12 18 7 22 0m-34-18c2 5 7 12 17 7m-49-10c1 5 9 10 19 4m-13 2c-6 7 5 14 17 3m-11 6c2 11 6 19 21 6m-7 5c5 7 13 11 21 0"/><path d="M534 236c0 8 1 12 7 12 5 0 10-4 13-9m-14 9c0 9 7 16 21 7m-15 4c-3 7 5 18 20 12m-52-31c-1 9 7 15 20 4m-14 6c1 7 9 16 21 3m-15 6c-1 13 11 16 20 7m-37-16c3 0 5-2 6-4m-1 13c3 1 7-2 8-4m-2 19c3 2 11 1 12-3m-2 3c5 11 17 10 23-2m-3 4c3 7 9 11 19 9m-14-2c-5 9 2 20 14 9m-11 5c0 5 5 12 12 13m-36-30c-2 13 8 19 20 12m-33-6c3 2 8 3 13 1m7 7c-3 11 8 19 18 7m-34-13c0 5 6 11 15 10m27 11c-7 4-8 12 1 17m-17-19c0 6 3 10 11 11m-21-15c-9 9 0 19 12 11m-5 3c-3 10 9 16 16 5m-36-27c-3 10 1 17 9 16m-21-18c0 6 5 8 11 7m-8-1c-4 9 3 13 11 10m27 19c-2 5-1 9 7 11m-7-4c-9 5-10 14-3 20m-5-30c-5 4-4 12 2 15m-44-44c-5 5 0 20 12 12m20 6c-8 7-4 18 8 15m-21-19c-4 11 0 15 9 15"/><path d="M499 295c-6 5-5 12-2 15 3 4 9 2 10-2m-22-17c-7 9 0 21 11 17m29 11c-8 3-13 10-9 16 3 3 15 4 18-10m-23-15c-4 6-3 12 5 15m-5-3c-5 2-8 5-7 11m-4-21c-2 8 1 12 5 15m-5-6c-7 0-11 3-8 10m0-8c-7-3-8-9-5-15m-1 9c-8 1-11 4-11 10"/><path d="M476 287c-6 2-8 10-6 14s9 5 13 2m-23-22c-5 6 1 17 10 14m-23-18c-5 6 0 18 13 14m0 32c-1-8 7-14 18-3m-5-16c-3 2-5 7-4 10m-36-41c-5 9 2 17 13 14m17 8c-7 8-5 15 1 20m-6-11c-11 0-12 13-2 18m-6-31c-5 3-6 12 2 15m-3 5c-4-3-10 0-10 6m3-6c-4-11-17-9-16 2m20-15c-3 1-9 2-11 6m1-18c-5 6-1 13 3 15m-18-31c-1 7 2 10 10 10m-7-1c-3 8 1 12 10 12m-8-2c-5 6-2 13 3 16m-6-8c-9-1-10 10-7 15"/><path d="M416 269c-6 3-9 10-6 14 3 5 9 3 13 1m-11 1c-4 7 0 13 5 15"/><path d="M394 269c-4 3-1 11 8 11 7 1 11-6 8-11m-10 11c-2 7-1 14 10 13m5 10c-7-3-16 0-12 8m-1-20c-3 4-2 10 1 13m-1-2c-5 1-9 3-7 10m0-6c-6-2-13 3-9 9m-1-6c-5-1-11 4-6 10m-2-5c-4 2-10 7-5 11m28-36c-7 3-7 10-4 16m-3-29c-10 4-9 16 1 20m-4-2c-6 3-7 9-3 14m-7-37c-4 1-4 13 6 13m-17-9c-8 5 2 18 14 9m-7 3c-1 5 0 11 9 12m-8-5c-6 2-8 15 3 16m-23-27c-8 7 7 13 12 3m-23 9c-4 4 10 17 16-4m1 0c1 5 3 8 9 8m0 5c-9 1-12 13-2 16m-15-18c-1 5 4 8 9 7m5 10c-8 2-10 13-2 13m-4 10c-7-2-7-10-1-14"/><path d="M357 335c-6 3-4 12 0 14 3 1 5-1 6-3m-1 12c1 4-15 2-7-11m0 12c-5 8 4 15 9 8m-8 2c-2 6 6 11 11 6m-28-68c-3 6 11 8 12-4m-16 13c-3 11 19 9 13-6m0 8c4 1 13 1 15-8m-7 8l6 8m-16-5c-1 6 5 11 12 11m-11-5c-4 5-5 14 6 15m-23-13c-2 5 9 10 15 2m-18 10c-1 4 8 9 14-7m-4 8c2 4 9 8 14 0m-8 4c-1 6 4 11 10 10m-22-11c-1 8 8 13 14 9m-20-5c-2 10 11 14 16 6m-4 3c1 6 10 11 17 6m-33-1c0 3 10 5 12-4m-5 6c2 7 11 9 16 0m-3 4c1 6 9 9 16 5m3 2c-2 9 6 15 12 11m-26-12c-3 9 9 14 15 9m-28-14c-1 9 5 14 13 10m-28-9c-2 6 10 10 15 6m-22 9c3 4 13 0 14-8m-2 6c3 5 13 7 16-3m-3 5c0 7 12 12 16 0m15 2c-1 3 1 9 7 10m-17-12c-1 4 4 9 10 7m2 2c-2 4-1 10 5 10m-5-2c-4 3-2 9 4 10m-6-5c-6 4-4 13 4 13m-22-30c0 9 11 10 13 2m-4 5c-2 6 2 11 9 9m-8 54c1 2 7-2 6-5s-8-2-8 2m6-4c1-7-7-8-9-2m3-3c2-4-5-9-8-4m2-2c2-5-6-7-6-3m-2-6c1-3 10-1 6 4m7 7c3-4-3-10-6-8m30 17c-3 1-6 3-4 8s8 5 9 2"/><path d="M376 457c-3-1-9 2-6 7 2 5 7 3 8 1m-18 1c2 2 8 1 10-2m-5-6c1-1 4 0 5 1m-6-41c-4 3-1 12 6 10m-7-2c-4 2 0 11 7 8m-6 0c-3 3 0 10 7 8m-8-4c-1-1-5-1-7 2m3-35c-4 3-2 10 5 11m-6-4c-5 3-5 13 5 13m-6-2c-3 3-1 11 6 10m-3 0c-1 1-2 4-1 5m-3-8c-2 0-6 2-7 4m-4-9c1-3 9-3 9 5m1-9l-4 3m1-27c-4 4-5 13 5 15m-12 6c0-3 7-5 9-1m-14-14c1 2 6 5 9 3m-35-18c0 4 4 9 9 8s7-5 5-8m-4 8c-4 4 1 11 5 9m-1-12c2-1 9-2 11 1m-33 0c-2 3 8 5 11 0m-3 3c0 3 1 9 9 6"/><path d="M325 408c1-2-5-7-10-2-4 5 1 11 4 9m-16-17c-2 4 7 11 13 4"/><path d="M297 405c-3 3 1 10 6 8s5-8 3-9"/><path d="M291 411c-3 3 0 9 3 9 4 0 6-3 6-7m6-2c0 3 5 6 9 3m0-7l-1-3m-29 12c-3 3 3 10 8 3m16-4c-2 2 1 7 4 5m-15-2c0 4 7 6 12 1m-8 3c-1 2 1 5 3 5m61 15c-3 5 5 10 11 4m-5 3c-2 3 0 6 2 8m-10-2c1-3 4-5 7-4m-11-3c0-2 3-4 5-4m184-96c-11 0-6 18 4 15m-7-2c-3 4 2 10 7 6m-2 1c-3 6 9 14 14 6m-4 3c0 5 16 9 13-2m-1 6c4 6 17 7 16-3m-3 7c3 4 16 7 16-2m-71-51c2 5 9 7 16 4m-20-1c4 3-2 16-9 11m9-2c5 2 11 0 13-7m-3 6c0 3 5 6 12 5m-25-2c7 6-3 17-7 12m10-7c3 2 11 1 11-5m-3 5c1 4 4 5 8 5m-18 0c3 4 11 6 15 0m-4 3c0 5 5 8 10 7m-27 3c4 2 8-6 5-11m-1 19c5 1 6-7 1-11m11 18c4-1 3-10-7-11m20 18c4-1 0-11-11-11m26 14c3-4-6-11-14-7m21 13c5 2 9-12-7-9m17 9c4-1 7-9-6-6m15 7c4 2 6-9-6-6m-59-29c5 3 13-1 12-7m-2 6c2 2 1 8-2 9m3-3c3 2 7 0 10-5m-5 5c1 3 2 7 0 9m1-5c4 2 8-1 10-4m-3 3c3 2 5 9 1 12m2-3c3 0 8 0 11-4m-2 2c2 1 6 5 4 9m1-1c3 0 8-2 9-6m-1 2c3 2 4 5 4 8m0-2c3 0 6-2 7-5m-1 2c2 1 5 3 5 6m0-2c2 0 4-1 5-4m6 0c3 3-1 13-7 11m-55-206c-6 3-23 2-14-12m16 2c-12 5-26-4-11-14m-4-3c-10 0-17 16-3 21m-35-14c-3 5 6 10 12 5 5-4 5-14 2-18m-19 25c-4 10 20 11 16-6m-18 21c1 8 23 6 16-10m3-5c1 2 6 7 14 6m-11-17c1 2 6 5 12 3M282 419c-6 3 3 10 6 3m-11 0c-5 4 3 10 6 3m-10 0c-6 3 3 10 6 3m-11-1c-5 3 1 10 6 4m-11-1c-6 3 1 10 6 4m21-12c0 4 7 5 10-1m-5 4c-3 3 2 7 4 6m-15-6c0 3 7 5 10 2m-6 2c-2 2 2 6 5 5m-13-6c0 3 4 6 8 4m-6 0c-1 1-1 5 2 6m-10-7c-1 3 3 7 8 4m-7-1c-3 2-3 5 1 6m-7-6c-1 2 1 4 4 4m-18-4c-3 1 4 8 8 2m-15 1c-3 1 5 9 9 1m12-2c-2 1-4 5-2 6m-6-4c0 1 3 4 5 3m-7-3c-2 2-1 6 2 6m-11-3c-2 2 0 5 3 4m2-4l3 2m-15-3c-3 1-3 8 6 4m-13-2c-4 2-2 8 6 3m1 0c-1 1-2 4 2 3m-9-1c-2 1-1 4 3 3m-12-3c-2 2 4 4 8 0m-6 2c-1 1-1 5 2 4m-10-2c-2 1 1 3 8 0m-5 2c-3 2-2 4 1 3m-8-2c-3 2 1 4 5 2m-5 0c-4 2-2 6 0 4m142 9c-1 2 3 4 6 3 3 0 5-3 3-6m0 4c3 2 8 0 8-4"/></g><g fill="#fff"><path d="M546 129c-13-7-40-19-47-9 7-3 27 0 44 16l3-7z"/><path d="M554 128c-15-17-24-13-35-19-10-6-26-7-29 2 15-7 28 4 37 5 11 2 18 11 21 15l6-3zm56-2c-8-18-24-13-32-21-10-11-37-21-48-13 24-1 35 17 48 23 9 4 19 14 32 11z"/><path d="M581 124c-13-16-34-31-43-25 12 0 16 9 25 14 9 6 5 14 18 11zm-63 29c-14-5-41-8-53 8 21 4 52 2 53-8z"/><path d="M516 159c-14-6-25 3-38 1-25-2-43-1-45 11 14-12 38-2 48-4 9-3 45-1 56 4-5-7-14-9-21-12zm43-37c-3-10-3-22 13-21-4-5-19-7-21 11-18-13-37-15-41-4 9-8 23-2 40 17l9-3z"/><path d="M535 137c-10-7-24-17 0-21-10-6-25-3-23 15-27-11-47-7-51 4-4 12 12 18 15 11-3 1-13-2-8-9 6-7 34-2 60 12 8 4 33 3 7-12z"/><path d="M528 155c-8-16-33-2-38-17-7 22 36 10 38 17zm159 17c5 2 9-2 1-5 6 3 10-1 2-5 5 3 10-1 2-4-2 2-5 10-5 14zm2-31c12-12-1-16 14-29 11-10 2-17 13-25 3-2 11-7 12-13 4 12-15 14-13 32 0 12-8 11-11 31 0 4-3 14-15 4z"/><path d="M695 147c6-14 13-14 17-19 7-10 21 2 33-8-2 13-18 9-25 17-7 9-13 12-25 10z"/><path d="M696 151c11-9 20-3 28-7 19-12 27 2 45-4-5 12-31 2-42 10-12 9-51 17-31 1zm-33 65c0-6-5-12-11-13-7-1-10-8-15-8s-9-11-16-11c-7 1-10 10 7 18 16 8 35 18 35 14zm-21 4c-7 0-8 11-14 11 9 5 16-2 21-9l-7-2z"/><path d="M648 221c-6 5-8 16 1 19-5-7 10-10 5-17l-6-2z"/><path d="M654 222c-5 9 8 10 5 17 7-2 8-15 1-18l-6 1z"/><path d="M607 202c12-1 22 5 29 15 5 7 20 9 25 4s2-16-11-12c-3-6-12-4-17-8-4-5-22-18-26 1z"/><path stroke-linecap="round" d="M650 209c-3 0-4 6-2 8m9-5v5m-32-15c6 0 7 5 14 6"/><path d="M621 187c21 6 37 10 47 16 11 6 26 7 40 3 14-3 40-7 39 10 7-8-2-18-20-19 0-9-9-16-16-11 6-1 12 10 0 15 2-9-6-16-15-13 6 2 11 11-1 15-8 2-19-1-28-6-8-5-56-24-46-10z"/><path d="M673 179c-6 3-2 10-12 14-10 3-17 12-15 20 7-15 19-14 23-20s11-14 4-14z"/><path d="M675 180c0 12-9 7-6 24 1 5 3 14 0 22 10-8 4-24 8-30 2-2 5-7 6-11-2 7-2 19 5 23-6-13 14-23 1-38-2 4-8 10-14 10zm-33-12c2 3 3 9 2 12 3-2 8-7 9-10 7 1 10 9 3 13 4 0 11 0 14-5-4-5-18-12-28-10z"/><path d="M542 145l-6-2c-10-2-5-11 4-11 17-19 27-4 49-11 8-2 13-1 17 1 9-7 21-5 29 3 1-2 2-3 4-3 7-3 14 4 16 12 6-1 12 2 17 6 6-3 10-3 12 0 5-2 12-4 16 5 3 8-9 6-11 24-1 11-13 16-23 9-16-11-32-12-40 4-7 16-13 26-32 21-7-2-16 0-21 8-6 7-14 0-24 1 13-2 8-5 19-6 10-1 7-10 14-11-26 6-25-3-45 3 9-11 23-5 30-12-19 0-27-12-35-7-14 8-8 31-42 29-17-1-28 1-38 11 18-36 41-16 53-27 7-7 12-12 15-19l5-4c-28-9-11-23 17-24z"/><path stroke-linecap="round" d="M684 140v4c0 7-10 7-11 18 0 5-1 8-5 7-3 0-7-6-3-13"/><path d="M547 135c-2-2-5-3-7-3m66-10c8 3 12 12 25 13 12 0 19 17 39 6l2-1m-37-15c-2 2-2 6-2 10m-37 26c-15 0-19 8-19 15 0 8 7 17 20 17 12 0 19-8 19-16s-8-16-20-16z"/><path d="M599 193c-1-4-8-4-8-7 1-3 4-4 4-9 0-4 7-5 9-1 3 3 9 10 11 7m-11-7c-3 3-5 11 0 16m5-11v9"/><path fill="none" d="M669 169c12 1 14-12 5-12m-19-23c-4-5-14-7-14 4"/><path d="M640 151c-4-10-14-11-20-6-4 4-4 15 5 17 4-4 10-10 15-11zm-4-6c-6-5-15 4-7 13m-104 11c4-1 10 1 19 5 5 3 21 8 32 3-11 4-19-12-27-10-8 1-23 4-29-1 15 1 23-11 41-1 4 3 11 5 16 4-14-17-33-6-35-20 9 10 30-2 40 16m-37-13c-2-2-1-5-3-7"/></g><path d="M655 134c-4-3-11 0-9 7 1-3 5-6 9-7zm-22 21l7-4c-1-3-3-5-5-6-2-2-7 5-2 10z" stroke="none"/><path d="M623 142c-5-4-11-4-12 0-5-1-8 2-8 9m9 2c-7-5-17-3-16 8m-4 6c3-3 8-5 12 0m39-11c-1 2-2 5 0 9-2-3-9-3-16 6m32-15c-9 1-9 6-2 9m-58-30c-7-1-12 3-2 7m16-11c-10-3-14 0-10 2m-19 38c-1 3 1 8 7 3m-5 7l-1 3m-22-50c-7-2-8-7-1-7m-2 20c-6-2-6-9-1-8m14 5c-8-2-8-8-2-7m3-10c-4 0-11 4 0 7m12 2c-10-1-10 3-4 6m11-15c-7-1-10 3-5 5m-19 23c-2-2-3-9 6-7m13 5c-6-2-12 4-6 7m14-14c-7-1-12 0-9 3" fill="none" stroke-linecap="round"/><path fill="#fff" d="M654 134c-3 1-6 3-8 7"/></g></svg>