<svg xmlns="http://www.w3.org/2000/svg" xmlns:xlink="http://www.w3.org/1999/xlink" viewBox="0 0 750 500"><defs><radialGradient id="a"><stop stop-color="#ffef5d" offset="0"/><stop stop-color="#ea5700" offset="1"/></radialGradient><radialGradient id="b"><stop stop-color="#952d1a" offset="0"/><stop stop-color="#570a00" offset="1"/></radialGradient></defs><path fill="#ce1126" d="M0 0h750v500H0z"/><path fill="#003f87" d="M0 36h750v428H0z"/><circle cx="375" cy="250" r="196" fill="#fff"/><circle cx="375" cy="249" r="163" fill="none" stroke="#552300" stroke-width="4"/><path d="M356 76c15-16 28 3 28 11 0 9-15 28-29 12 14 4 18-12 25-12-7 0-10-15-24-11zM203 200c-8-20 15-24 22-20 8 4 18 26-2 31 10-11-2-21 1-27-3 6-19 2-21 16zm330-20c20 8 8 27 0 30s-31-4-22-22c2 14 18 12 21 19-3-7 10-15 1-27zM270 393c-22-2-15-24-8-28 7-5 31-5 27 15-6-13-21-7-25-13 4 6-6 17 6 26zm218-15c0 21-22 17-28 11-6-7-8-31 12-29-12 7-5 21-10 26 5-5 18 4 26-8zM219 159c-2-21 20-19 26-13 7 6 11 30-10 30 12-8 4-22 8-27-4 5-18-3-24 10zm23 201c-22-3-14-24-6-29 7-4 31-2 26 17-5-13-20-8-24-14 4 6-8 17 4 26zM411 77c19-9 25 12 22 20-4 8-24 20-31 2 11 8 21-5 27-3-6-2-3-18-18-19zm41 327c-10 20-28 6-30-2-2-9 7-31 24-20-14 0-14 17-20 19 6-2 14 11 26 3zm94-186c17 15-1 28-10 28s-28-14-13-28c-3 14 12 18 13 25-1-7 15-11 10-25zM272 105c5-21 26-12 30-4s0 31-19 25c14-4 10-20 16-23-6 3-16-9-27 2zm-64 180c-19-11-4-28 4-30 9-1 31 8 19 25 0-14-16-14-18-21 2 7-12 13-5 26zm275-167c21-3 20 20 14 26-5 7-29 12-30-8 9 11 22 2 28 6-6-4 2-18-12-24zM361 425c-20 9-25-13-21-21 3-8 24-19 31 0-12-9-22 4-28 2 6 2 3 17 18 19zm177-120c9 20-13 25-21 21-7-4-19-24 0-31-9 12 4 21 2 28 2-7 18-3 19-18zm-338-63c-13-18 8-27 16-25 9 3 24 21 6 31 7-13-8-20-6-27-2 7-17 6-16 21zm117 170c-21 8-24-15-20-22 4-8 26-18 31 2-11-10-21 2-28-1 7 3 2 18 17 21zm-6-327c12-18 28-2 29 7s-11 29-27 16c15 1 16-15 23-16-7 1-12-13-25-7zm208 263c2 21-21 18-27 12s-9-30 11-29c-12 7-4 21-9 26 5-5 18 4 25-9zm-5-203c21 4 12 25 5 29-8 4-32 2-26-18 4 14 20 9 24 15-4-6 8-16-3-26zm-269-15c0-22 22-17 27-10 6 6 8 30-12 28 12-7 5-21 10-26-5 5-18-5-25 8zm-27 194c-20-10-6-28 3-30 8-2 30 7 19 24 0-14-16-14-18-20 2 6-12 13-4 26zM450 95c20-8 24 14 20 22-4 7-26 18-31-2 11 10 21-3 28 0-7-3-2-18-17-20zm-43 328c-16 15-28-5-27-13 1-9 17-26 29-10-13-5-18 10-25 10 7 0 8 16 23 13zm138-165c15 16-4 28-13 27-8-1-26-17-10-30-5 14 11 19 10 26 1-7 16-8 13-23z" fill="#007f00"/><path d="M355 99c14 4 18-11 25-11-4 4-15 17-25 11zm1-23c15-16 28 3 28 11-12-21-16-17-28-11zM223 211c10-11-2-20 1-27 2 6 9 21-1 27zm-20-11c-8-20 15-24 22-20-24 2-23 7-22 20zm308-12c2 14 18 12 20 18-6-2-22-7-20-18zm22-8c20 8 8 27 0 30 15-19 11-21 0-30zM289 380c-6-13-20-7-25-12 7 0 23 1 25 12zm-19 13c-22-2-15-24-8-28-10 22-5 23 8 28zm202-33c-12 7-4 21-9 25-1-6-2-22 9-25zm16 18c0 21-22 17-28 11 23 6 24 2 28-11zM235 176c12-8 3-21 8-27 1 7 3 23-8 27zm-16-17c-2-21 20-19 26-13-23-5-23 0-26 13zm43 189c-5-13-20-8-24-13 7 0 23 2 24 13zm-20 12c-22-3-14-24-6-29-11 22-6 23 6 29zM402 99c11 8 20-5 27-3-6 3-20 11-27 3zm9-22c19-9 25 12 22 20-4-24-9-22-22-20zm35 305c-14 0-13 16-20 18 3-6 10-21 20-18zm6 22c-10 20-28 6-30-2 18 16 20 12 30 2zm71-186c-3 14 12 17 13 24-5-4-18-14-13-24zm23 0c17 15-1 28-10 28 21-12 17-16 10-28zm-263-92c14-4 9-19 15-23-1 7-4 23-15 23zm-11-21c5-21 26-12 30-4-21-12-23-8-30 4zm-41 175c0-14-16-14-17-21 5 3 20 10 17 21zm-23 5c-19-11-4-28 4-30-17 17-13 20-4 30zm259-149c9 11 21 2 27 6-6 1-23 4-27-6zm16-18c21-3 20 20 14 26 4-23-1-23-14-26zM371 404c-12-9-21 4-27 2 5-3 20-11 27-2zm-10 21c-20 9-25-13-21-21 2 24 7 23 21 21zm156-130c-9 12 4 21 2 27-3-5-11-20-2-27zm21 10c9 20-13 25-21 21 24-3 23-7 21-21zm-316-57c7-13-8-20-6-26 4 5 14 18 6 26zm-22-6c-13-18 8-27 16-25-23 8-20 12-16 25zm128 150c-11-10-21 2-27-1 6-2 21-8 27 1zm-11 20c-21 8-24-15-20-22 1 24 6 23 20 22zm-4-304c15 1 16-14 23-16-4 6-12 20-23 16zm-2-23c12-18 28-2 29 7-15-19-18-15-29-7zm192 246c-12 7-3 21-8 26-1-7-3-23 8-26zm16 17c2 21-21 18-27 12 24 6 24 1 27-12zm-26-192c4 14 19 9 23 15-6-1-22-4-23-15zm21-11c21 4 12 25 5 29 11-21 7-22-5-29zm-254 3c12-7 4-21 10-25 0 6 0 22-10 25zm-15-18c0-22 22-17 27-10-22-8-23-3-27 10zm-5 188c0-14-16-13-18-20 6 3 21 10 18 20zm-22 6c-20-10-6-28 3-30-17 18-13 20-3 30zm221-209c11 10 21-3 27 0-6 3-21 9-27 0zm11-20c20-8 24 14 20 22-1-24-6-23-20-22zm-40 305c-14-5-19 10-26 10 5-5 16-16 25-10zm-3 23c-16 15-28-5-27-13 11 21 15 19 27 13zm115-168c-5 14 10 19 10 26-4-5-16-16-10-26zm23 3c15 16-4 28-13 27 22-11 19-15 13-27z" fill="#005800"/><g fill="#730000" stroke="#000"><path d="M405 125s1-1 2 0l1 4-1 1s1-1-2-5zm-9 32v-3l1-1v4h-1m28-5l-4 2 2 1 5-3h-3m-52 15l-1 3-2 3a7 7 0 000 4c0 1 3 9 2 14v9l2 3c2 0 1-1 1-2 2-3 0-23 0-29l-3-9-1-2c-1-4-3-7-3-15 0 0-5 2-10-8-2-5-5-5-9-6l2-1 5 1c2 0 1-3 1-3l1-2v8c0 3 5 7 8 9 1 0 3-3 3-6v-8l2 2-1 2c1 1 2-1 3-2h1l-3 5-1 8 1 8 4 8 1 3c2 2 2 3 2 5 1 1 2 3 2 7l1 8c0 2 2 0 5-1 2-2 2-7 2-7h2c-1 1 1 2 1 2-2 3-1 3 1 3l6-5h4l-2 2h4l-7 4a94 94 0 01-9 4c-2 1-7 4-7 6v11l-1 11h-11s2-8 0-10c-2-3-7-9-11-11-3-3 3-1 3-1v-2l5 6s8-8 0-18l-8-9h-7c-4 1-13 1-17-5h3l3-2s-1 4 6 4c8 0 9 0 9-7l2-1 1 2v5c0 2 3 3 5 5h3l2-1 3-3 1-2 1 3z"/><path d="M374 161l2-3 4-6c2-2 2-5 2-8l1 1v4l3-2h1s-6 7-12 17l-1-3zm-53-21c0 2 1 4 4 7l1-1-4-6h-1m9-2s1 5-1 7l2-1 1-5-2-1zm54-17l1 12h2l1-2c2-1 6-2 7-4v-2l-4 3-4 1c-1 0-2-2-1-6l-2-2m21 35v7h2s-1-6 0-6l-2-1m8 4s-2 3-4 3l3-1 3-2h-2"/></g><g fill="#289400" stroke="#030"><path d="M382 144l1 1h2l3 3h1l1 3h1v3l2-1 2 2 2-2 2-1c-6-2-8-5-6-8 2-4 7-1 8-1l20 11s1-1 0-2l-1-3 4 2 3 1v-1l3 4 2-2c-1-1 4 1 4 3l1-1 1-5 2-2 2-2-1-1-2-2 2-1 1-1-4-2s0-3-2-3h1l-3-3 2-1s-2-2-4-1l1-1s-1-1-5-1c0 0 1-1-1-2l-1 1-3-1 1 1-4-1v-3l-2 2-1-1-2 1-1-2-1 2v-2l-2 3s-2 1-2 3c0 0-1-2-2 0v1h-1v1h-2v1s-3 0-3-2h-2l-2 1-1-1-1 1-1-1v1s-2-2-1-3c0 0-2 2-1 3l-1 1v-1l-2 1v-3s-2 0-2 3h-3c-1 1 1 2 1 2h-3l1 1h-5v1h-4l2 2s-2 0-3 2h2l-1 2h1l-2 3 3-1c2-1 0-1 0-1v1l2-1c0-1 0 0 0 0l2-1 2 1z"/><path d="M380 112l-1-2 6 1 1-2 3 2s5-2 6-1l-1 2 6 1c2 0 0 2 0 2l7 1c2 2 2 3 1 3l3 5-6 1-1-1-1 3-4-2v2l-5-3s-3 0-3 2l-3-4-2 1-2-2v2l-2-2-2-2-2 2-1-2h-4s-1-4 3-6l4-1zm-20 14l-2 2-1-1-2 3v-2l-1 2h-2l-1 1h-1l-2 1v-2l-2 2h-1l-1 1-1-1-2 1v-1l1-2-1-2 1-1h-2l2-3v-3l3-1v-3l3-2v-2h5l1-2 4 1 4-2 2 3 4 1v3l5 2-1 3 4-1v4l6 2-2 2v5l-3-2-1 2-2-1h-1l-1-1v-1l-2 1-2-2v-2l-2 2-1-2-1 2-1-3v2s-2-1-3-3z"/><path d="M328 136l4 3v-3l2 2v-3c-1-1 4-2 5 0 0 0 2-2-3-4 0 0 0-2 3-2l-1-1h3l-5-2c-2 0-1-1-1-1v-3l-2 1v-1h-3l-2-2-2 1s-1 2-3 2l-2-1-1 3h-2v1h-4s2 2 1 3l-3 1h1l-3 2 1 1-1 2h1l-3 1h2l-1 1h1l-1 6 3-3-2 3 4-1v-1 1l2-2 2 1v-1h5v1l1-1h1l1-4h2zm-14 15l1 3-3 2-1 5v3l8-5 9-5 1 1 3-2 1 5-2 1 3 5h2l3-2v2l3-2 1 1 3-2 2 1 1-2 3-1 1 1 3-2 1 2 4 1 1-2 4 1-2-4 2-2h-2l2-2h-2v-1l-2-1 1-3-7-2 1-2-1-1h-6l-2-2-2 2h-4v1l-3-3-3 4s0 2-1 0c-1-1-3-2-4-1l-2 2h-3l-3 3-4-1v2l-5 2zm46 41v-2l2 1 2-1 1 2 2-2v3l2-3 2 1v-2l1-4 2-1-4-3h-2l-3-3h-3l-2-2-1 2-2-2c-2-1-1 1-1 1l-5-1 1 1-4-1v2l-3-1v2h-4v2l-2-1v2l-3 1 1 1-5 2c-1 1 1 2 1 2l-4-1 2 2-4 3 3 2-2 3h4l2 3h3v3l5-4 4 2v-4h2v-2l1 1 2-3 3 4 2-6 4 1zm20-12l-1-5-1 1v-4h-2l1-5h-2l1-2 1-2 3-3 7 1 1-3 5 1c1 1 3-2 3-2h1l1 2 5 1-2 3h4l2 1 3-1 3-1 1 2h3l-1 1 4 2-1 1h5s1 2 0 3c0 0 1 3 3 3l3 2s0 3-3 3v3l-2 2-2-1-1 3-5-5c-2 0-1 3-1 3l-4-4-1 3-3-3-2 1-3-3h-4l2-2h-4l-1-3-1 3-2-2-3 4-1-2c-1-2-2 2-2 2l-1-3-2 3-2-3c-1-1-2 3-2 5zm0 10v-1l6-3 5-1 3-1 1 1 1-2 2 3 2-2 2 1h1v3l5-1 1 3h3l1 5 2 5c-1 2-3-2-3-2v4l-5-1-2 4-4-3-1 3-5-5c-1-2-1 2-1 2l-2-5-2-2-6 5-1-4-3 2v-8z"/></g><g fill="none" stroke="#004b00"><path d="M407 130l1 2 3-1-1 3h4l-1 1 3 2-3 2 5 2-3 2 1 2h-3l1 3h-4m15-5s1-4 0-5l4 2c2 0 0-3 0-3l4 1-1-2h2m-47-16v-2l3 3m5 0l3 1-1-3 4 1 1-2 5 1m-26-1l-1-3m-25 14l1-3h1v-2h1l2-2 1 2 2-2 1 1 1-1h2l1-2m-20 11l-1-4m-24 10v-4l2 1m10-1l-4-1m-17 8l1-3m26 54l1-3 2 4 1-3v1l3-2 2 3m43-17l1-3 3 1 1-3 2 1 2-3 3 1v-2l2 1v-2l2 1s2-2 0-3"/><path d="M400 170l2 3 2-2 2 4 2-1 4 2 1-2 4 3 1-3 4 1 2-4m-88-9l1-4 3 2v-4l4 4v-5l4 1c1 0 3 0 2-1-1-2 3 1 3 1s1-3 0-4l4 2-2-3h4l-1-3m32 47l2-1 2 2 2-4 3 3 1-3 3 1v-1l3 1 1-2h1l1-1"/></g><path fill="#9dd7ff" d="M337 311a73 73 0 01-7-14l44-39 44 39a67 67 0 01-6 14l-4-1-2 1c-2 1-3-1-3-1l-4 1-3-1s-2 2-3 1l-2-1s-2 2-3 1l-3-1-5 1c-1 1-3-1-3-1l-3 1-3-1-5 1-4-1-4 1-4-1-3 1-3-1-4 1-4-2-3 2"/><path fill="#fff" stroke="#000" d="M374 214v44l-44 39a88 88 0 01-4-28v-55h48"/><path fill="#ffd83c" stroke="#000" d="M374 214v44l44 39a88 88 0 005-28v-55h-49"/><g stroke="#000"><path fill="#730000" d="M346 301l9 4c6 2 12 3 22 3 8 0 13-1 15-2l4-1-7 6s-28 2-33-1l-10-9z"/><path d="M386 288s9 5 0 15m-39-1l12-12-1 16m7 1v-27m21 27v-28m-11 29v-31" fill="none"/><path d="M365 282l-6 2h6v-2m10-4l-6 2h6v-2m11 1l-6 3h6v-3zm4 13c-1-1 3-1 3-1s1 4 0 7l-3-1v-5z" fill="#ff0018"/><g fill="#fff"><path d="M349 300l10-10v6s-6 4-6 6l-4-2m5 2s2-3 5-5l-1 7-4-2zm16-18h7v5s-6-1-8 1c0 0-1-4 1-6zm-9 1h7v6s-5-3-7 0c0 0-2-4 0-6zm-1 6h8v5s-6-1-8 1v-6zm9-1h10s-2 4 0 6c0 0-7-2-9 0 0 0-3-4-1-6zm-9 7l8 1v7s-7-2-8 0c0 0-2-5 0-8zm9 0h11s-2 5 0 9c0 0-9-3-11-1 0 0-2-5 0-8zm12-13h7v5s-6-1-8 1c0 0-1-4 1-6zm0 6h7v5s-6-1-8 1c0 0-1-4 1-6zm0 7h8l-1 7s-5-2-7 0c0 0-2-5 0-7z"/><path d="M390 297s1 5 3 6l-2 3s-3-2-3-5l2-4z"/></g></g><g stroke="#000"><path fill="#006ac8" d="M412 311c-7 12-19 23-38 30-19-7-30-19-37-30l3-2 4 2 4-1 3 1 3-1 4 1 4-1 4 1 5-1 3 1 3-1s2 2 3 1l5-1 3 1c1 1 3-1 3-1l2 1c1 1 3-1 3-1l3 1c2 1 4-1 4-1l3 1 2-1 4 1" stroke="none"/><path fill="none" d="M410 314l-2-1s-2 2-4 1l-3-1-3 1-3-1-3 1-3-1-4 1c-2 1-3-1-3-1l-5 1-4-1-3 1-5-2-4 1-4-1s-2 2-4 1l-2-1s-3 2-5 1a15 15 0 01-4-1l-3 1"/><path fill="#5ac800" d="M347 318l-3 1h-1 1-1c3 5 8 9 12 12 5 3 10 7 20 10a75 75 0 0031-22l-4 1-2-1-3 1-3-1-5 1-3-1-5 1-3-1-4 1-4-1h-19l-4-1z"/><path fill="#ffd800" d="M375 341l17-9c-1 0-4-1-3-2l-2 1-4-1-5 1-3-1-5 1-2-1-5 1-3-2-4 2c4 3 9 7 19 10z"/></g><g stroke="#000"><path fill="#b34b00" d="M368 259c2-1 3-3 2-4h-3l-2-2-4-3-9-11c-2-1-2-5-3-6l-14-15c-1-1-2-1-4 1-3 2-3 4-1 6l14 12 6 3 13 14c2 2 3 3 2 4v3l2-1 1-1z"/><path fill="none" d="M334 223l14 14"/><path fill="#fff" d="M353 229l1-2c0-1 4-7 6-7l12 9s-5 8-6 7c0 0-14-6-13-7z"/><path fill="#ccb8c8" d="M360 231l-6-4-1 2 12 7-5-5z" stroke="none"/><path fill="none" d="M354 227l5 3 7 6" stroke="none"/><path fill="#782121" d="M330 263l27-32c0-1 3-1 3 2l-25 34s-3 0-5-4z"/><path fill="#730000" d="M419 264l-2 1-6-7-26-33 3-2 23 28 9 10s1 2-1 3z"/><path fill="#fff" d="M394 229l-4-5s-4 1-4 2c0 0-3 4-9 5 0 0 2 7 9 11 0 0 3-8 5-9 0 0 3-2 3-4z"/><path fill="#730000" d="M383 252l-2 1-2-1 1-2a7 7 0 016 0l-3 2m29-29v-2c1-1 1-2-1-2-1 1-2 3 0 6l1-2z"/><path fill="#fff" d="M383 253l30-30 7 8-2-1c-1 1 1 2 1 2h-2v2h-2v2h-2v2h-3c-1 1 1 2 1 2s-2-1-3 1v2h-2v2h-2v2h-2v2h-2v2h-3v2h-2v2h-2v2h-1v2l-2-1v3l-1-1z"/><path d="M411 225l-2 2v9s1-3 1-1l1-2v-8m-4 5l-2 1v8s1-3 2 0v-9m-19 18l-1 1v5s1-3 1-1v-5" fill="#7e4b7e" stroke="none"/><g fill="none" stroke="#7e4b7e"><path d="M386 227a96 96 0 015 6m-3-3l-2 3m2-3l-1 3m2-2l-1 1m1-1v1m-4-3c0 1-3 3-5 3m5-2l-4 3m3-1l-2 1m2 0l-2 1"/><path d="M366 234l2-3 1-2" stroke-linecap="square"/></g></g><path fill="#289400" stroke="#060" d="M268 316v-7c1-2 5 5 7 6 3 2 16-5 16-5l3-6 2 5 5-6-1 5c-1 2 3 2 3 5-1 4 4-2 4-2l13 1s2-7 5-12l1 5 5-5c6 15 18 32 43 41 24-9 36-24 42-39l7 8 7-3 13 5 3 1v-3s6 1 6 4l2-3 5 3 15 4 1 3h5l-1 2c0 2-1 3-3 4-1 1 0 1 2 2 3 0 0 3-4 4 0 0-1 3 1 3h-5l-1 4-5-2s-2 1-1 2c0 0-7-1-8-4l-3 2-6-3-2 1-4-2v2l-5-3-2 3-6-3c-1-1-1 2-2 2 0 0-1-2-4-2v4l-7-2c-2 0-1 1 0 3l-6-3v3l-5-2-3 4h-3l-1 3s-7-2-7-1v3l-6-1-1 2s-7-2-8-1l-4 3v-1l-2-3-4 1c-1-1-5 2-7 1l-1-2c-1-1-3-1-4 1l-2-4c-1-2-3 1-3 1l-1-3h-3c-3-1-3-3-3-3l-7 1 2-2-10 1c-2 0 2-2 2-2l-9-2c-1-1-9 1-10 1l-2-2-3 2-1-3-5 2s-2-2-1-3l-4 5v-2l-4 4v-2s-9 4-12 4l1-3h-5l-5-1c-1 0 2-2 5-1 0 0-7-3-8-1 0 0-1-3 2-3 0 0-4-5-7-4 0 0 3-2 5-1 0 0-2-7-4-8h8z"/><path fill="#730000" stroke="#000" d="M259 197l74-39c1-2 0-3-2-5-21 11-40 23-64 31-1 0-13 5-19 12-2 2-2 5-2 5l1 4 1 2h2l2-2a55 55 0 017-8z"/><path d="M319 159l9-5s4 3 3 5c0 0 1 7 9 11 0 0-7 8-18 9 0 0 1-11-1-14h-1c1-1 0-5-1-6-1 0 0 0 0 0z" stroke="#000" fill="#FFF"/><path d="M330 160l-9 4m6-2v5m-1-5v5m-1-4v3m-1-2v1m6-2l5 7m-4-5c0 1 1 4 3 5m-4-3l2 4m-2-2l2 2" fill="none" stroke="#7e4b7e"/><g stroke="#000"><path fill="#b34b00" d="M398 154l27 14c6 2 8 0 11 1l54 28c4 2 7 2 6 5 0 3 2 4 2 4l3-2h1l1-1c2-3 3-6 1-8-3-1-3 1-6 1l-7-3-9-5-44-23c-2-1-2-6-5-8l-32-15c-3-1-5-2-8 2-3 5-2 7 5 10z"/><path fill="none" d="M401 149l30 15"/></g><g fill="#ffa54b" stroke="#000"><path fill="url(#a)" d="M310 165l-1 1-1 4-3 3c-2 0-4 3-8 0h-1s1 4-3 6l-16 8v7l-1 1-3 6s-3-1-3-3l1-4 1-6-3-2-1 2 1 1v3l-10 5 2 2c0 1 1 10 4 15s4 3 4 4l2 1h5a9 9 0 013-5c2-1 6-5 6-7l2 13 16 1c8 1 12-1 12-1v-8l2 6c1 2 2 5 5 5 2 1 4-2 4-3v-6h8l6 1v-2l2 1h5v-1l-5-3-4-1h-6l-6 2-1-1-1-11-1-5v-9c0-2-3-4-7-4-4-1-7-4-7-7l1-9"/><g fill="none"><path fill="url(#a)" d="M292 154v9l2 7c0 1 1 3 3 3 3 3 7 0 8-1a6 6 0 003-2l1-4 1-1 1-3-2-2 1-6-1-2c-5 2-10 2-15 2l-1-1-1 1"/><path fill="#000" d="M292 155v-3l1-3 2-2h3l3-1h6l4 4 1 8c0 4-1 3-1 3s-1-2-2 0v-8l-9 2-7-2-1 2"/><path fill="#fff" stroke="#fff" d="M295 152c0-1-2-3-1-4l2 4h-1z"/><path d="M298 160l-1 3m11 2h1m0-4c1 0 2 0 1 2m-18-5l3 1c2 0 1 3 0 4v3h2l1-1 1 1 1-2m-1-4l2-1h5m-5 11h-6m0-1h3l1-1 2 1m-6 1h6"/><path fill="#fff" d="M292 160h3c2 1-1 2-1 2l-2-1v-1zm9 1l3-1 1 1h-1l-3 1-1-1h1z" stroke="none"/><path fill="#000" d="M294 161v-1l-1 1h1zm8 1l1-1a1 1 0 00-1-1v2z" stroke="none"/></g><g id="c"><g fill="none"><path d="M346 214a4 4 0 00-2-2l-2-1-2-1m0 3h-1l-1-1a3 3 0 01-2-1m-63-10c1 1 3 3 3 6a11 11 0 001 3m-13-8c1 2 1 7 6 13m-5-21v3m15 11c1-3 4-3 4-5"/><path d="M285 207l-1-8v-9s2 8-3 10m34 12l1-6v-9c1-1 2-4 0-9 0 0 3 11-4 11-8 0-7-3-7-3"/><path d="M284 190c0 3 0 9 9 9 3 0 6-2 8-3m2-3v-7m-14-3l9-1m0-6c1 2 0 5 4 6m5-7l-1 4m0 3h9m1 22c1 2 1 4 4 7m-32-12v9a12 12 0 01-1 12m6-19l-2 4m7-1l-5 10s3 2 3 7m7-21l1 2m3 0c1 2 5 7 4 10m-7-7l-1 9m-2 0c-1 0-3 1-3 3m9-3c1-1 3 1 3 7m16-10l-3 1-2 1"/></g><path fill="#000" stroke-width="0" d="M290 198l1-1-1-1-1 1 1 1zm23 0l1-1h-2l1 1z"/><path fill="#fff" d="M281 240c1-8 5-15 5-15l10 1h12l7-1 1 5 2 34 1 12 3 40h-3s-14 1-14-1-1-27 1-42l-1-5-5-12-6 19-1 41-10 7c-1 1-9-3-9-4l5-33v-11c0-2 0-27 2-35z"/><path d="M294 275l-3 6m-3-54c0 1-2 7-7 11m14-10c-1 4-5 23-6 46m-1 7l-1 20m-1 4c0 1-3 10-3 18m33-36c-1 2-1 16 3 28m-18-86l-1 18 2 3-2 6m-4-13l-3 11m13-25s5 1 5 0l4 46m-11-42v16m2 2l1 4m-17-28l3 1m5 2l-1 4m9 39l1 5" fill="none"/><path fill="#9b5f00" d="M285 224l1-4 8 1h13l8-1v5l-8 1h-15l-7-2z"/><path fill="#fff" d="M288 225l1-5h1l-1 5h-1m22-4v5h1v-6l-1 1m-16 0v5h1v-5h-1"/><path d="M277 321l-1 5c0 1-1 4 1 4l1-3v3c2 1 3-3 3-3-1 1-2 4 0 4s2-4 2-4-1 4 0 5c2 0 2-4 2-4s-1 5 2 4l2-3v-6l-1-3-5 3c-1 1-6-2-6-2zm29-5v3c0 1 0 4 4 3h8l7 1 4-1h3l2-1c0-2-2-2-3-2l-5-1-6-2h-14z"/></g><g fill="none"><path fill="#ffb366" d="M256 190v-3l2-2s1-2 3-2l3-1 3 3v2c-1 1-1 0-1-1l-1 2h-1l-1 2-2-1v2l-2-1h-3z"/><path d="M266 186c-1-2-2-3-4-3m2 5l-1-2-4-1m2 4l-1-1-4-1"/></g></g><g stroke="#000"><path fill="url(#b)" d="M439 165l1 1 1 4 1 2c2 1 7 4 10 1h1s-1 4 3 6l15 8s2 3 1 7v1l4 6s3-1 3-3l-2-4v-6l3-2 1 1c0 2-1 1-2 2l1 3 10 5-2 2c-1 1-1 10-4 15l-4 4-3 1h-4a9 9 0 00-3-5c-2-1-6-5-6-7l-2 13-16 1c-8 1-12-1-12-1v-8l-2 6c-2 2-3 5-5 5-2 1-4-2-4-3v-6h-9l-5 1c-1 0-2-1-1-2h1l-3 1h-4v-1l4-3 5-1h6l6 2 1-1v-9l1-5-1-7c0-6 4-8 8-10 4-1 7-2 7-5v-9"/><g fill="none"><path fill="url(#b)" d="M456 154l1 5v3c1 2 0 5-2 8l-3 3c-3 3-7 0-9-1a4 4 0 01-2-2l-1-4-1-1-1-3c-1-1 1-2 2-2l-1-6 1-2c4 2 10 2 15 2l1-1v1"/><path fill="#000" d="M457 155l-1-4-2-3c-1-2-1-1-2-1h-6l-5 1c-2 0-3 1-3 3l-1 7c0 4 1 3 1 3s1-1 2 0l-1-4 1-5 9 2 7-1 1 2z"/><path d="M450 160l1 2m-10 3h-1m17-6h-4v4l1 2-2 1h-2l-1-2m0-4l-2-1-5 1m12 9l-2-1h-2l-2 1m6 0h-6m0 1h5"/><path fill="#fff" d="M456 160h-3c-1 1 2 2 2 2l1-1v-1zm-8 1l-3-1-1 1h1l3 1v-1z" stroke="none"/><path fill="#000" d="M455 161a1 1 0 01-1 0l1-1 1 1h-1zm-9 1v-2l1 1-1 1z" stroke="none"/></g><use xlink:href="#c" fill="#730000" transform="matrix(-1 0 0 1 749 0)"/><g fill="none"><path fill="#730000" d="M492 194s2-3 0-4l-2-2s-1-2-3-1l-3-2-3 3v3l1-1 1 2c1 1 1 0 1-1l2 2h1v1h2c1 0 0-2 3 0z"/><path d="M482 190c1-2 3-3 5-3m-3 4l1-1 5-2m-3 5l1-2a5 5 0 014 0"/><path fill="#730000" d="M482 187l-2 2 1 2h1l1 2 1-1 1 2h2v1h2c0-1 0-2 2-1l1-1-7-5-3-1z" stroke="none"/><path d="M481 188c-2 3 0 4 1 3 0 2 1 2 2 1 1 3 2 2 3 2-1 2 2 1 2 1 1-2 2-1 2-1l1-1m-8-6l-2 4m5-2l-3 3m6-1l-3 3"/></g></g><path d="M290 324v-5l2 2v-4l2 1v-3l3 3 1-4 2 4c0 2 2-3 2-3l2 5 1-2 1 5 3-4 2 4h4l1 2 1-2 3 2 3-1 3 2 1-2c1-1 2 0 3 1l1-3 3 3v-3c1-1 2 0 2 1l2-4 2 2c1 2 1-3 1-3l3 6s-17 6-28 4l-26-4m116-1l2-3 2 3 1-1 2 2 2-2 2 2 3-1 1 1 6-1 2 1 1-2 2 2 3-3 2 2 2-2h3l1-2 2 1 2-2 1 4 4-2-1 5 3-3 1 6 2-2 1 3 2-1s-14 3-28 1c-14-1-26-6-26-6m-10 10s-5 11-18 12c-17 0-32-8-32-8l3-4 3 4 1-3 4 3 2-2 1 4 3-2 3 4s2-2 3-1c0 0 2 1 2 3-1 2 2-1 5-2l3 2 4-4s2 0 2 2l2-5 2 3s0-3 2-4l1 2 4-4z" fill="#5ac800"/><path d="M290 324v-5l2 2v-4l2 1v-3l3 3 1-4 2 4c0 2 2-3 2-3l2 5 1-2 1 5 3-4 2 4h4l1 2 1-2 3 2 3-1 3 2 1-2c1-1 2 0 3 1l1-3 3 3v-3c1-1 2 0 2 1l2-4 2 2c1 2 1-3 1-3l3 6m62-1l1-3 3 3 1-1 2 2 2-2 2 2 3-1 1 1 6-1 2 1 1-2 2 2 3-3 2 2 2-2h3l1-2 2 1 2-2 1 4 4-2-1 5 3-3 1 6 2-2 1 3 2-1m-114 9l3-4 3 4 1-3 4 3 1-2c1-1 2 2 2 4l3-2 3 4s2-2 3-1c0 0 2 1 2 3-1 2 2-1 5-2l3 2 4-4s2 0 2 2l2-5 2 3s0-3 2-4l1 2 3-4" stroke="#060" fill="none"/><g fill="#fff"><path d="M374 377c23 0 37-8 44-13 18-12 21-12 24-12s8 1 8 4c1 5-6 7-10 7l-16-3-2 2c2 1 24 8 28 1l9-19s-5-8-16-8-22 7-29 12-16 12-40 12c-23 0-32-7-40-12-7-5-17-12-28-12s-16 8-16 8l9 19c4 7 26 0 28-1l-3-2-15 3c-4 0-11-2-11-7 1-3 5-4 9-4 2 0 6 0 23 12 8 5 21 13 44 13"/><path d="M338 350l-1-5c0-3-2-4-4-4l-3 3a32 32 0 00-3-2l6-3c1 0 15 5 20 9 1 1 2 8 1 10a48 48 0 01-16-8m-7 14s-3 3-3 9c0 7 4 7 8 7 3 0 6-3 6-10 0 0-6-2-11-6m80-14l1-5c0-3 2-4 4-4l3 3a32 32 0 013-2l-6-3c-1 0-15 5-20 9-1 1-2 8-1 10a47 47 0 0016-8m7 14s3 3 3 9c0 7-5 7-8 7-4 0-7-3-7-10 0 0 7-2 12-6"/></g><path d="M324 360l-15 3c-4 0-11-2-11-7 1-3 5-4 9-4 2 0 5 0 17 8m101 0l15 3c4 0 11-2 10-7 0-3-5-4-8-4-2 0-5 0-18 8m-86-10a98 98 0 01-4-2l-4-4 3-3c2 0 4 1 4 4l1 5m-8 29l6 1c3 0 6-3 6-10 0 0 5 3 13 5l1 4c0 3-1 6-3 5l-18-3c-3 0-5-2-5-2m81-29l4-2 4-4-3-3c-2 0-4 1-4 4l-1 5m8 29l-6 1c-4 0-7-3-7-10 0 0-4 3-12 5l-1 4c0 3 1 6 3 5l17-3c4 0 6-2 6-2" fill="#69f"/><g fill="none" stroke="#000"><path d="M374 377c23 0 37-8 44-13 18-12 21-12 24-12s8 1 8 4c1 5-6 7-10 7l-16-3-2 2c2 1 24 8 28 1 5-7 9-19 9-19s-5-8-16-8-22 7-29 12-16 12-40 12-32-7-40-12c-7-5-17-12-28-12s-16 8-16 8l9 19c4 7 26 0 28-1l-3-2-15 3c-4 0-11-2-11-7 1-3 5-4 9-4 2 0 6 0 23 12 8 5 21 13 44 13z"/><path d="M324 360l-15 3c-4 0-11-2-11-7 1-3 5-4 9-4 2 0 5 0 17 8zm100 0l16 3c4 0 11-2 10-7 0-3-5-4-8-4-2 0-5 0-18 8zm-86-10a97 97 0 01-4-2l-4-4 3-3c2 0 4 1 4 4l1 5z"/><path d="M338 350l-1-5c0-3-2-4-4-4l-3 3a33 33 0 00-3-2l6-3c1 0 15 5 20 9 1 1 2 8 1 10a49 49 0 01-16-8m-7 14s-3 3-3 9c0 7 4 7 8 7 3 0 6-3 6-10 0 0-6-2-11-6z"/><path d="M333 366s-2 2-2 6c-1 4 2 6 4 5 4 0 6-5 4-8l-6-3"/><path d="M330 379l6 1c3 0 6-3 6-10a63 63 0 0013 5l1 4c0 3-1 6-3 5l-18-3c-3 0-5-2-5-2zm81-29l4-2 4-4-3-3c-2 0-4 1-4 4l-1 5z"/><path d="M411 350l1-5c0-3 2-4 4-4l3 3a33 33 0 013-2l-6-3c-1 0-15 5-20 9-1 1-2 8-1 10a48 48 0 0016-8m7 14s3 3 3 9c0 7-5 7-8 7-4 0-7-3-7-10 0 0 7-2 12-6z"/><path d="M415 366s3 2 3 6-2 6-4 5c-4 0-6-5-4-8l5-3"/><path d="M419 379l-6 1c-4 0-7-3-7-10 0 0-4 3-12 5l-1 4c0 3 1 6 3 5l17-3c4 0 6-2 6-2z"/></g><path d="M354 376s3 3-1 6m-9-7l10 4m-9-2l8 3m-5-5l6 3m41-2s-3 3 1 6m9-7l-10 4m8-2l-7 3m5-5l-6 3" fill="none" stroke="#fff"/><path d="M314 345v2a2 2 0 01-1 1l-3 1a5 5 0 01-2-1h-1l1-3 1 1v1a2 2 0 002 1 1 1 0 001 0 2 2 0 000-2v-1h-1l-1-1a3 3 0 01-1-1v-2a3 3 0 012-1 3 3 0 012 0l1 1v-1l1 1-1 2a12 12 0 00-1-1 4 4 0 000-1 2 2 0 00-1-1 1 1 0 00-1 1h-1v1l1 1 1 1a15 15 0 011 1h1m12 2h-2v1l-2 3a3 3 0 01-2 2h-1a4 4 0 01-3-3 2 2 0 010-2l3-4v-1h-1v-1l4 2h-2l-2 5h-1a2 2 0 001 2v1h2a2 2 0 001-1h1l1-3 1-1v-1a2 2 0 00-1 0v-1l3 2m5 8a2 2 0 01-1 2l-1 1h-1a4 4 0 01-1-1l-4-2a5 5 0 001 0h1l3-6a1 1 0 000-1h-1l4 2h1v1a2 2 0 010 1 2 2 0 01-1 1 3 3 0 01-2 0l1 1 1 1zm-1-2v-1h1v-1l-1-1v-1h-1l-1 3v1h2zm-1 3v-2l-1-1h-1l-1 2a1 1 0 000 1l1 1h1l1-1zm20 4a4 4 0 00-1 0h-1v1l-2 4a3 3 0 01-1 1h-2a4 4 0 01-2-1 3 3 0 01-1-1 2 2 0 010-1l2-5a1 1 0 000-1v-1l3 2a4 4 0 00-1 0l-2 5h-1a2 2 0 001 2l1 1h2v-1l1-1 1-3 1-1v-1h-1v-1l3 2m10 11l-4-1h1a1 1 0 000-1l2-6-5 7-1-9-1 5-1 2h1a3 3 0 001 1h-1l-3-1a5 5 0 001 0h1v-2l1-4v-1l-1-1 3 1 1 7 4-5a5 5 0 000-1l3 1a4 4 0 00-1 0l-1 1-1 6v1a4 4 0 001 0m9-2a2 2 0 010 1 2 2 0 01-1 2h-6v-1a4 4 0 001 0l1-6a1 1 0 000-1 2 2 0 00-1 0v-1l4 1h2a2 2 0 010 2 2 2 0 010 1 4 4 0 01-2 1h1l1 1zm-2-2h1v-2l-2-1a28 28 0 00-1 0v3h2zm1 3a2 2 0 00-1-1l-1-1h-1v4h2l1-2zm12 3h-3l-1-2-2-2v3h1v1h-4v-1h1v-7h-1v-1h5l1 1h1a2 2 0 010 2l-1 1a6 6 0 01-1 0l1 2 1 1a3 3 0 001 1h1v1zm-4-7v-1h-2v3h2v-2zm14 6h-4 1v-1l-1-2-3 1v2h1v1h-3v-1a2 2 0 001 0v-1l1-4 1-3h1l3 7a1 1 0 001 1h1zm-4-3l-2-3-1 3h3zm16-7l-1-1h-3l1 4h1v-1h1v-1l1 3a3 3 0 00-1 0v-1h-2l1 3v1h1l-4 1a10 10 0 001-1l-1-6v-1h-2l7-2v2m10-1l1 3-6 3v-1h1v-1l-3-6a1 1 0 00-1 0h-1l4-2v1h-1v1l3 5v1h1v-1h2v-3m5-8h1a5 5 0 012 4 4 4 0 010 3l-2 1a4 4 0 01-4 0 5 5 0 01-2-4 4 4 0 012-4 4 4 0 013 0zm2 5v-1a8 8 0 00-2-3 4 4 0 00-1-1 2 2 0 00-2 0l-1 1v3a7 7 0 002 3h1l1 1 1-1a2 2 0 001-2zm11-6l-2 2-2-1-2-1-1 1 2 2a5 5 0 001 0l-3 2a8 8 0 001-1l-4-5a1 1 0 000-1h-1a3 3 0 00-1 1v-1l4-2v-1h2l1 1v3l1 1h2a3 3 0 001 0 3 3 0 001 0zm-6-3l-1-1-2 1 2 3 1-2v-1zm14-2v2l-7 3v-1a4 4 0 001 0 1 1 0 000-1l-2-6h-2l7-3 1 2h-1a3 3 0 00-1 0l-1-1v1h-2l1 4 1-1h1v-1a3 3 0 000-1l2 3-1 1a3 3 0 000-1h-1a1 1 0 000-1l-1 1h-1l1 2 1 1h2a4 4 0 001-1v-2h1m7-6l1 1a5 5 0 011 4l-1 1a4 4 0 01-3 2 4 4 0 01-3-1 4 4 0 01-1-1 5 5 0 01-1-2v-2a4 4 0 014-3 4 4 0 013 1zm0 6v-1a8 8 0 000-3 4 4 0 00-1-2 2 2 0 00-2 0h-1l-1 1v1a7 7 0 000 3l1 2h1l1 1a2 2 0 002-2z" stroke="#000"/><path d="M423 214v55c0 11-2 55-49 72a73 73 0 01-48-72v-55h97" stroke="#000" fill="none"/></svg>