<svg xmlns="http://www.w3.org/2000/svg" xmlns:xlink="http://www.w3.org/1999/xlink" viewBox="0 0 750 500"><path fill="#fff" d="M0 0h750v500H0z"/><path fill="#002d62" d="M0 0h325v200H0z"/><path fill="#ce1126" d="M0 300h325v200H0z"/><path fill="#002d62" d="M425 300h325v200H425z"/><path fill="#ce1126" d="M425 0h325v200H425z"/><g transform="matrix(.8 0 0 .8 -25 0)"><path fill="#fff" d="M475 281v41l1 8 6 4h10c5 0 5 1 7 3 2-3 4-3 8-3h9a9 9 0 005-4c2-2 2-6 2-9v-38l1-3 6-6h-62l6 7z"/><path fill="#002d62" d="M494 299v-25h-26l7 7v18z"/><path fill="#ce1126" d="M504 299v-25h26l-7 7v18zm-10 10h-20v16c1 7 6 9 11 9h9z"/><path fill="#002d62" d="M504 309h19v16c0 7-6 9-10 9h-9z"/><path fill="none" d="M475 281v41l1 8a9 9 0 006 4h10c3 0 4 0 6 2l1 1a5 5 0 013-3h14a11 11 0 005-4c3-2 2-6 2-9v-38l1-3 6-6h-62l7 7z"/><path fill="#eac102" d="M498 280v3h-3v3h3v9h2v-9h3v-3h-3v-3z"/><g id="a"><path fill="#fff" d="M482 284v5l-2-2v32c0 4 4 8 8 8s8-4 8-8l-1-17-2-2v-2z"/><path fill="#002d62" d="M482 284v5l-2-2v18l8 8v-21l-6-8z"/><path fill="#ce1126" d="M491 296l2 3v1l-2-3zm4 6l1 12c-2 2-4 1-4 1v-16z"/><path fill="#002d62" d="M496 320c-4 2-4-1-4-1a4 4 0 004-3z"/><path fill="#ce1126" d="M480 310l8 7c1 8 6 5 7 4-1 4-4 6-7 6-4 0-8-3-8-8z"/><path fill="none" stroke="#000" stroke-width="0" d="M493 300v-2l-11-14v4z"/><path fill="none" stroke="#000" stroke-width="0" d="M480 287v32c0 4 4 8 8 8s8-4 8-8l-1-17z"/><g fill="#eac102" stroke="#000" stroke-width="0"><path d="M486 281v-2l-3-3 1 4 2 1zm-3-5l3 5"/><path d="M498 301h-1l-12-20 1-1z"/><path d="M485 281v-1h1v1h-1zm-4 1v-2l-4-3 2 4 2 1zm-4-5l4 5"/><path d="M495 300l-15-18 1-1z"/><path d="M480 282v-1h1v1h-1zm0 4l-1-2-3-2 2 3 2 1zm-4-4l4 4"/><path d="M496 303l-17-17 1-1 16 17z"/><path d="M479 286v-1h1v1h-1z"/></g></g><use xlink:href="#a" transform="matrix(-1 0 0 1 998 0)"/><g stroke-width="0"><path fill="#ce1126" d="M497 315l-1 10-2-1 1-10 2 1z"/><path fill="#002d62" d="M496 314v3l2 1v-5l-2 1z"/><path fill="#002d62" d="M496 327c2-2 5 0 5 0 3 0 2-4 2-4l-1-13-5 4z"/><path fill="#002d62" d="M496 327c0 2 2 2 2 2 3 0 2-3 2-3-3-1-4 1-4 1z"/><path fill="#ce1126" d="M498 313v9c0 2 2 1 2 1h1v-3c4 0 3-3 3-3l-1-7z"/><path fill="none" d="M501 320l-3 1"/><path fill="#fff" d="M501 326l-1-15 2-1 1 14c0 3-2 2-2 2z"/></g><g fill="#fff"><path fill="#000" d="M488 302l7 13 15-10-8-11z"/><path d="M488 302l14-8 8 11-15 9z"/><path fill="#000" d="M495 314l14-9-1-2-7-9-5 4-6 3h-1v1z"/><path d="M496 298c-2-1-4 2-5 2l-2 1 6 11c2 0 3-2 4-3l3-1zm0 0c0-3 3-3 4-4l1-2 7 11c0 2-3 2-3 3l-2 2z"/><path d="M495 312l-6-11v1a128 128 0 016 11v-1z"/><path d="M491 302v1-1zm0 0h1-1zm1 0zm0 0zm0 0zm0-1h1-1l1 1h-1 1-1v-1zm1 0zm0 0zm0 0zm-2 2h1l-1 1h1v-1h-1zm1 0zm0 0zm0 0zm1-1v1h-1l1-1zm0 0c0 1 0 0 0 0zm0 0zm0 1zm1-1h-1zm-1 0zm0 0h1-1zm1 0zm0 0zm0 0zm0 0zm-2 2zm1 0h-1 1zm-1 0zm1 0zm0 0zm0 0zm0-1v1c0-1 0 0 0 0v-1 1-1zm0 0h1l-1 1v-1zm1 0zm0 0zm0 0zm1-1v1-1h-1 1zm0 0zm1 0h-1 1zm0 0zm0 0zm0-1l1 1h-1v-1 1-1zm-2 5h-1v1h1v-1 1h-1v-1h1zm0 0zm0 0zm0 0h1-1c1 0 1 0 0 0zm0 0zm1 0h-1l1-1v1zm0-1v1-1zm0 0a114 114 0 001 0h-1 1-1zm1 0zm0-1h1v1h-1v-1zm0 0v1h1l-1-1zm1 0zm1 0h-1 1zm0 0h-1 1zm0 0v-1 1zm-4 4c1 0 1 0 0 0zm1 0h-1zm0-1v1h1a366 366 0 01-1 0v-1zm1 0zm0 0zm0 0zm0 0zm1 0h-1 1zm0-1zm0 0v1c0-1 0-1 0 0v-1zm0 1v-1 1zm0-1zm0 0h1-1zm1 0zm0 0zm0 0zm0-1l1 1h-1v-1 1-1zm1 0c-1 0 0 0 0 0v1c0-1 0 0 0 0v-1c-1 0-1 0 0 0zm0 0zm0 0zm-4 4zm0 0zm0 0zm0-1v1-1zm1 0zm0 0v1-1zm0 0zm1 0h-1 1zm0 0h-1 1zm-1 0h1-1zm1 0zm0 0v-1 1zm0 0zm0-1zm1 0zm0 0zm0 0zm0 0zm0 0zm1-1v1-1zm0 0zm0 0zm-4 4h1-1 1-1zm1 0v-1 1zm0 0zm0-1v1-1zm0 0zm0 0zm0 0h1-1zm1 0c-1 0 0 0 0 0h-1 1zm0 0zm0 0zm1 0h-1v-1c1 0 1 0 0 0v1h1zm0-1v1-1s-1 0 0 0zm0 0zm0 0zm0 0zm0 0zm1 0h-1 1zm0 0h-1 1zm0 0zm0 0zm-1-10v1-1zm0 0zm0 0v1-1zm0 0zm1 0h-1 1zm0 0zm0 0zm0 0zm0 0zm0-1v1c1 0 0 0 0 0v-1zm0 0h1v1l-1-1zm1 0zm0 0zm0 0zm-2 2v1-1zm0 0c0 1 0 1 0 0zm0 0h1-1zm0 0zm1 0h-1 1zm0 0zm0 0c0-1 0-1 0 0v-1 1zm0 0zm1-1v1l-1-1h1zm0 0zm0 0zm0 0zm0 0zm0 0zm1 0h-1 1zm0 0v-1 1zm0 0zm0-1zm0 0v1-1zm0 0v1-1c0 1 0 1 0 0zm-2 3h-1 1zm-1 0h1c-1 0-1 0 0 0zm1 0zm0 0v-1h1v1l-1-1v1h1-1zm1-1s-1 0 0 0zm0 0s0 1 0 0zm0 0v1-1zm0 0zm0 0zm0 0zm0 0h1-1zm1 0zm0 0zm0 0v-1 1-1 1zm0 0v-1 1zm0-1v1-1zm1 0h-1 1-1 1zm0 0h-1 1zm-3 3zm0 0zm0 0zm0-1h1-1l1 1h-1v-1zm1 0zm0 0zm0 0zm0 0zm0 0zm0 0h1-1 1-1zm1 0zm0 0zm0-1v1-1zm0 0v1-1zm0 0zm1 0h-1 1zm0 0zm0 0zm0 0zm0 0zm0 0zm0 0zm1 0h-1c0-1 0 0 0 0v-1h1v1zm0 0zm0-1c0 1 0 0 0 0v1-1 1-1zm0 0zm0 0zm0 0h1-1c1 0 0 0 0 0zm1 0zm0 0zm0 0zm-5 4v-1h1c0 1 0 0 0 0v1-1 1-1h-1v1h1-1v-1 1zm1-1zm0 0zm0 0zm1 0h-1 1zm0 0h-1 1zm0 0c0-1 0 0 0 0zm0 0zm0-1v1-1zm0 0zm0 0zm0 0h1l-1 1v-1zm0 0h1-1zm0 0zm1 0zm0 0zm0 0zm0 0zm0 0zm0 0v-1zm-1 4zm0 0v-1 1zm0 0c1 0 1 0 0 0zm1-1h-1 1zm0 0zm1 0h-1zm0 0h-1 1zm0 0v-1 1-1 1zm0-1zm0 0zm1 0h-1 1zm0 0zm0 0zm0 0zm0 0zm0 0zm0-1zm0 0v1h1-1zm1 0h-1l1 1h-1 1-1v-1h1zm0 0zm0 0zm0 0zm-4 4v-1 1-1 1zm1-1v1l-1-1h1zm0 0c-1 0-1 0 0 0zm0 0zm0 0zm0 0zm0 0zm0 0zm1 0v-1 1zm0 0zm0 0zm0-1v1-1zm0 0h1-1zm1 0zm0 0zm0 0zm0 0v-1h1v1h-1zm0 0c0-1 0-1 0 0zm1-1v1-1zm0 0zm0 0zm0 0zm0 0zm1 0h-1 1zm0 0h-1 1zm0 0zm0 0zm0-1zm-4 4zm0 0zm0 0zm0 0zm1 0h-1 1zm0 0h-1 1zm0-1v1-1zm0 0zm0 0v1-1zm0 0v1-1zm0 0zm0 0h1c-1 0 0 0 0 0h-1zm1 0zm0 0zm0 0zm0 0z" fill="#000"/></g></g><path fill="#201b18" d="M362 204c-6 0-12 1-17 4-3 2-3 2-2 5l-3 1-6 2-2 2h5l-1 1-2 3 5-2c3-2 10-2 12-5v-3l5-1c6-2 10 0 12-1l2-1v-3h9c0 1-2 3 1 4s8-1 13 1l5 1-1 2v1a8 8 0 002 1 21 21 0 005 2c6 1 6 2 10 4l-3-4h5l-5-3-6-2 1-3-7-4a64 64 0 00-7-1l-6-1-1-3-3-1h-16l-3 1-1 3z"/><g fill="#002d62"><path d="M364 207l2-1 8-1h6l5 2v-4c0-2 0-2-2-3h-9l-9 1-2 2 1 4z"/><path d="M346 215l2-2a32 32 0 018-3h12l1-1 1-1c-1-1-4 2-6 1l-1-2v-3c-4 0-11 1-14 3l-6 3c-1 1 0 2 1 3l2 2zm33-7l2 2h11a34 34 0 0110 4l1 1 2-2v-3l-5-3a36 36 0 00-7-2l-7-1-2 5c-2 1-3-1-5-1z"/><path d="M398 213v2c3 3 8 3 11 4l4 2-2-4 4 1v-1l-10-4-2 3h-1l-2-1-2-2zm-19-5h3l1 1 1-1c1-1-1-2-1-2h-4zm-9 0l-1-2c-1 0-5 0-5 2l1 1 5-1zm-24 7c1 2 3 0 4-1l1-1v-1l-3 2-2 1z"/><path d="M398 213l4 3c1-1-1-2-1-2l-3-1zm-47 1l-1 1c-3 3-8 3-11 4l-4 2 3-3h-5l10-5 1 1 2 2h1l2-1 2-1z"/></g><path d="M352 207h-2l1 1v2s0 1 0 0h1l1-1v-2a2 2 0 00-1 0zm-1 0l1 1 1 1-1 1v-1l-1-1a4 4 0 010-1zm2-1v1l1 1v1s0 1 0 0h1l-1-1v-2h-1zm3 0h-1v3h2v-2a2 2 0 000-1h-1zm0 0l1 1v2h-1v-2h-1v-1h1zm2-1v2h1v1a1 1 0 01-1 0c0-1 0 0 0 0l1 1v-1h1v-1a1 1 0 00-1 0v-1h-1v-1h1a1 1 0 00-1 0zm10-4h-1v4h1v-2h1v-1a1 1 0 000-1h-1zm0 0l1 1-1 1v-1c0-1 0 0 0 0zm3 0s-1 0 0 0l-1 1v2c1 0 0 0 0 0v-1h1v1h1v-1h-1v-2zm0 1v1h-1l1-1zm2-1h-1v1l1-1v3h1v-3 1h1v-1h-2zm3 0h-1v3h1v-1l1 1v-3h-1zm0 0h1v1l-1 1v-2zm2 0v3h1v-3h-1zm3 0l-1 1v2c-1 0 0 1 0 0h1v1h1v-1l-1-1v-2zm0 1v1c0 1 0 0 0 0h-1l1-1zm6 3v4h2v-1h-2a30 30 0 010-2l1-1h-1zm2 4h1v-4h-1v4zm1-4v4h2v-2a1 1 0 000-1v-1h-2zm1 1h1v1h-1v-1zm0 1h1v1h-1v-1zm1 2h2c1 0 0 0 0 0l-1-1v-1h1-1l1-1 1 1v-1h-2v3h-1zm3-3v3s-1 0 0 0l1-1v2h1l-1-1v-1h1v-1l-2-1zm1 1a1 1 0 011 0l-1 1v-1zm1 1h1c0-1 0-1 0 0v2l1-1v-1l1 1v-1l-1-1h-1l-1 1zm4 0l-1 1-1 1a1 1 0 010 1l1-1v2h1v-4zm-1 1v1c0 1 0 0 0 0v-1zm2 0v2l-1 1v1h2a2 2 0 001-2 2 2 0 00-1-1l-1-1zm1 1v2l-1 1v-2l1-1z" fill="#eac102"/><path fill="#006300" d="M363 281l3 1 1 3 2 1-5 2v1h3l5-3 2-1 7 4h2l1-1h-1l-4-2h1v-1l2-3 2-1c0-2-16-3-21 0z"/><path fill="#ff0" d="M364 288l1 1-1-1zm18 0v1h1v-1h-1z"/><path fill="#006300" d="M399 222l2 6v-1a29 29 0 01-2-3 1 1 0 00-1-1l1 3 3 6-1-1-1-2a19 19 0 01-1-3l-1-2v5l-2-1v-1h-1l2 2 2 2 2 3 1 1-2-1-3-3 1 1 2 2 2 3 1 2a13 13 0 00-1-1l-2-2-2-3a9 9 0 00-2-1v1l3 2 1 1a20 20 0 013 4l1 2-5-5-1-1 2 3 1 1 1 1 2 3 1 1a20 20 0 00-2-2 9 9 0 00-1-1l-2-2-2-2v1l1 1a21 21 0 014 5v-1h-1l-2-1-3-2 2 1 2 2h1l1 2 1 2 1 1 1 5-2-5-2-3-1 1-2 2a17 17 0 00-1 4l2-4-1 5 1-1 1-3c2 1 2 6 2 8l-1-3-1-2-2 2-1-1-1 1 1 2v2-4l2 4-3 8-1 2a8 8 0 01-1 0v1l2-4 1-5a3 3 0 000-1v1l-5 10v-3 1l-2 3 1-1v-4 1l-2 4v-1l1-2h-1v1l-3 5h1-1 1l5 1h9l-2-1h-3 7v-1h-6l6-1h2l-4-1h7l-5-2 3-1a39 39 0 015-1c1-1 3-2 0-1h-4 1l4-1v-1h-1l4-1h3v-1l-6 1h-2l5-2h2-1l-5 1h-1l8-2h1-6l2-2 2-1h2-2l1-1v-2l-2 2-1 1h-3l3-2 2-1 1-1-3 1-3 2a43 43 0 015-5l1-1-4 2a34 34 0 00-3 3 26 26 0 012-3h1l1-1 2-2 1-1 1-1a52 52 0 00-4 3l-2 1-2 2 2-4a43 43 0 015-4l1-1-2 1a36 36 0 00-4 3l-1 1-2 2a60 60 0 00-2 4c0-2 2-4 3-5l3-3 3-6-2 2-5 6 1-3a59 59 0 016-7l1-1 1-1-3 1-5 6a25 25 0 012-6l1-2 2-2-1 1h-1l-4 7 2-5 2-3-2 1-1 3a29 29 0 00-3 5l2-7 2-2 1-2 2-1-4 3-2 2 2-4 2-3 1-1-4 5-1 1-1 1v1l1-5 2-4-2 1-1 3 2-6-1 1-2 3 2-3-3 5-1 1v1l1-8h-1v2l-1 4-4-8-2-2zm1 32l2 6v1l-1-2v-3 1l-1-1v-2z"/><g fill="#008f4c"><path d="M407 249l6-12-2 5a53 53 0 00-3 7 16 16 0 01-1 2v-2zm10-2l-2 2a42 42 0 00-9 13c-2 4-1 3-1 1 2-5 6-11 9-14l3-2zm-11-8l2-8 2-3v1a48 48 0 00-4 12v-2zm-5 18a19 19 0 01-2 8c0 2-3 6-4 6h1a21 21 0 004-13c0-2 0-3 1-1z"/><path d="M409 254v5a10 10 0 01-8 8l1-1a12 12 0 007-10l-1-2v-1l1 1z"/><path d="M418 261l-4 1a160 160 0 00-9 1 167 167 0 0113-2zm-17-37l2 5v2a32 32 0 00-3-7 4 4 0 010-1l1 1z"/><path d="M399 226l3 5 2 2v-1a32 32 0 01-5-6 4 4 0 000-1v1zm13 7c-3 2-6 8-6 9l2-3a47 47 0 015-7l-1 1zm1 1c-3 3-7 10-6 11l2-4a51 51 0 014-6l1-2-1 1zm-15-6l3 5 1 2v-1l-3-7a4 4 0 00-1-1v2z"/><path d="M397 229c1 2 2 2 5 3l2 1-1-1a31 31 0 01-6-3 3 3 0 00-1-1l1 1zm20 11c-4 2-10 10-9 12l3-4a62 62 0 016-7l2-2-2 1zm-1 5c-1 3-7 8-8 8l3-3a49 49 0 005-5l1-2-1 2zm-20 20c0 3-4 10-5 10l2-4a45 45 0 003-5l1-2-1 1zm10-17l-5-7c-2-2-3-2-1 0a27 27 0 015 7l1 1v-1zm1 24h-6a45 45 0 018 0h-2zm-2 1h-10 3a45 45 0 018 0h-1zm-3 1l-10 1h3a45 45 0 018 0l-1-1zm-2 2h-9 3a34 34 0 017 0 8 8 0 00-1 0zm10-8l-12 3 5-1a52 52 0 019-3l-2 1zm7-4a97 97 0 01-12 2l-3 1a1 1 0 010-1 188 188 0 0115-2z"/><path d="M416 263l-4 1a191 191 0 00-9 2 151 151 0 0113-3zm-2-7c-3 2-11 8-11 10l4-3 7-6a18 18 0 002-2l-2 1z"/><path d="M417 258c-4 0-12 4-12 6l4-2a60 60 0 0110-4h-2z"/><path d="M417 258c-10 9-15 13-17 12l7-5a72 72 0 0011-9l-1 2zm-10 3l7-7 3-2v1a52 52 0 00-11 10l1-2zm1-9c0-4 6-16 7-16l-2 5a53 53 0 00-3 7 69 69 0 01-2 6v-2zm-3-14v-7l1-2a27 27 0 000 11l-1-2zm2 13c0-2-2-4-4-5l-1-1a24 24 0 015 6zm-9 3c2-7 3-6 3-6 4 4 2 18 2 18 0-28-5-12-5-12z"/><path d="M399 253c2-7 3-6 3-6 3 0 3 16 3 16-2-26-6-10-6-10zm-2 6c0-5 1-4 1-4 3 2 4 12 4 12-4-20-5-8-5-8zm9-15c-1-3-3-6-7-9-3-3-4-3-1 0a38 38 0 018 11v-2z"/><path d="M406 242l-5-7c-3-2-4-3-1 0a29 29 0 016 9v-2zm-14 27l-3 5 1-2a23 23 0 002-3zm-2 1l-2 5 1-2a23 23 0 001-4v1zm2 0l-2 5 1-2a23 23 0 001-3z"/></g><path fill="#00873f" d="M341 232l1 2v-2h-1z"/><g fill="none" stroke="#006300" transform="matrix(.8 0 0 .8 -25 0)"><path d="M455 304l-1-1m2-4l-1-1m-1 13l-2-3m11 30c-5-6-7-16-7-16 2-5 4-6 4-6m-4 6l-1-15 3-17m-3 20c1-7 7-6 7-6"/><path d="M455 311c5-2 4-6 5-8l2-3m-2 32c-2-4 0-5 0-5m-1 4c-2-3-5-3-5-3m4-10v-5m1 17l-4-5m2-31c1-2-1-2-1-2"/><g transform="translate(442 224) scale(.1567)"><path id="b" fill="red" stroke-width="2" d="M91 426a6 6 0 11-12 0 6 6 0 0112 0z"/></g><use xlink:href="#b" transform="matrix(.1567 0 0 .18128 445 235)"/><use xlink:href="#b" transform="translate(444 248) scale(.1567)"/><use xlink:href="#b" transform="translate(440 252) scale(.16899)"/><use xlink:href="#b" transform="translate(439 256) scale(.16899)"/><use xlink:href="#b" transform="translate(440 258) scale(.16899)"/><use xlink:href="#b" transform="translate(463 286) scale(.12289)"/><use xlink:href="#b" transform="translate(464 287) scale(.12289)"/><path d="M459 317a2 2 0 00-1-2m14 25h2"/></g><g fill="#006300"><path d="M355 274l-1-3m-6-2v-1c1-1 3 0 4-4l-2 1v-1l-1-2 1-1s-1-1-4 2l-2-2v5l2 2 1 2h1v-1zm-2 4h-1c-3 0-5-4-5-4h3l3 1v3zm-4-8h-5l2 2c2 2 5 1 5 1l1 1-3-4zm-6-13c0-1 0 0 0 0-1-2-5-2-5-2v1l2 3h-3l3 3h4l1 1c2 0 2 2 2 2l-1-6-3-2z"/><path d="M354 275l-2 1c-1 2-5 0-5 0h-1l2-1a8 8 0 01-3-5h5l-2-1v-1l5 3 1 3v1zm-14-14h-5l-3-3h5l1 2 2 1s0 1 0 0zm3 1h3c2 0 3-3 3-3l1-1h-3v-3h-1l-3 3-1-2h-1v3l1 2v1z"/><path d="M360 270l-2 2c-1-3-3-3-3-3a3 3 0 010 3v1l-2-1 1 5 4-1 2-1v-5zm-19-15l2 1c0 2 4 2 4 2 3 0 2-1 2-1l-2-2-3-1h-2l-1 1zm-3-5c-1-3 1-6 1-6l2 4-2 5-1-3z"/><path d="M337 251c-3 0-5-3-5-3l4-1 4 3-3 1zm-2-4l-3-1-2-4h1a4 4 0 002 1c-4-2-1-7-1-7v1l2 2 1 1v-1l2 3v5h-2zm8 6v-3c-1-3 2-5 2-5l1 3 3-1-1 4 3-1c-1 5-5 4-5 4l-3-1z"/><path d="M336 240l1-3v1c2 1 2 3 2 3v2c-3 0-3-3-3-3zm8 0v-3l-2 1c-2 0-2 2-2 2l-1 3c3 1 4-2 5-3z"/><path d="M336 235l1-4 1 2c2 1 2 3 2 3 0 3-1 2-1 2-2 0-3-2-3-3zm9 0v-3l-1 1c-3 0-3 2-3 2l-1 3c3 1 4-2 5-3zm3 9l3-3-2 1c-2-2-4-1-4-1l-2 2c2 2 4 2 5 1z"/><path d="M348 246l3-2h-2l-3-1-2 1c1 2 3 2 4 2zm-8-15c-1-3 2-6 2-6l1 3c2-3 4-3 4-3v2l2-1c0 3-3 5-3 5h-2l-3 2-1-2zm4 10c2-2 4-1 4-1l3-2 1-2h-1v-3l-3 1v-1h-1l-2 3-1 5z"/></g><g fill="#00863d"><path d="M344 252l1-1 1-1v-1 1l-1 1-1 1h2l3-4-3 1c-2 1-1 1-2 3zm-5 6v-1l-1-2-1-1 1 1v-1 1l1 1 1 2c-1-2 0-3-3-5l-1-1c0 2 0 4 2 5l1 1zm0-20l-1-1v-1h-1 1a3 3 0 000-1l-1-1 1 2 1 3v-4l-2-2v-1a7 7 0 00-1 2l1 3 2 1zm4-8l1-1v-1l1-1v1l-1 1-1 2v-1l3-1 1-3-4 2v2zm-9 13l-2-3v-1 1l1 1v-1 2l1 1v-4h-2v3l1 1h1zm6-5l2-2 1-1 1-1-1 2h-1l-1 2v-1l3-1 1-3a8 8 0 00-3 1l-1 3-1 1zm-4 8h-1l-1-1-2-1 1 1h1v-1 1l1 1v-1l-1-1-2-1h-1l1 3h4zm-1 7h-2v-1h1-1l-1-1h1l2 2 1 1-2-3-3-1 1 3h3zm2-7l-2-5 1 1v1c1 0 0 0 0 0v1l1 2v-4l-2-2v5l2 1zm2 5v-4 2l1-1v1h-1v2l1-1 1-2-2-3v1a7 7 0 00-1 2l1 3zm2-19v-4c1 0 0 0 0 0 1 0 0 0 0 0v4h1v-7l-1 2-1 3 1 2zm-10 22a6 6 0 004 2h1v-1h-1a13 13 0 01-2 0h-1 2l-1-1 2 1h1v-1a4 4 0 00-3 0h-2zm2 4l2 3h3l-1-1h-2 1l-1-1h-1 1l4 2-1-1c-2-2-3-2-5-2zm12-20l1-1v-1 1l1-2-1 3-1 1 2-2v-4a10 10 0 00-1 2l-1 3zm-1 23l2-1 1-1v1l-2 1h-1 2c1 1 2-1 3-2v-1a9 9 0 00-4 2l-1 1z"/><path d="M343 252l1-3 1-1v1l-1 1a1 1 0 001-1l1-1-1-2-1 1-1 1v4zm0 9l2-3v-1 1l1-1-1 1-2 3 2-1v-1h1v-3a10 10 0 00-2 1l-1 4zm3-9h2l-1 1h-3 1l1 1h2l2-3h-2l-1 1h-1zm-13-4l3 2 1-1h-3v-1l3 1-2-1h-2zm9 13v-4 1l1 3v-3l-1-2-1 3 1 1zm4-32l1-1v1l-1 1-2 1c2 0 4-2 5-4-3 0-2 0-2 1l-1 1zm1 10l1-1 1-1h-1l1-1-2 2-1 1 1-3 4-2a10 10 0 01-1 3l-3 2zm-9 4l-1-2v-2 1l1 1v-1 1l1 1-1-2-1-2v3l1 1v1zm2 0l1-2 2-2-1 1-1 1v-1 1l-1 1 1-3 3-1-1 3-2 1-1 1zm4 0l3-1h1v1h-5c2 1 2 2 4 1l3-2c-2 0-3-2-5 0l-1 1z"/><path d="M347 244h-2l2 1 3-1h-2zm-1 11a3 3 0 000-1h-4l2 1h2zm1 1v1h2a16 16 0 00-2-2v1zm-3 1l1-1-1-1h-1v1l1 1zm6-20l-1 2h-3 4l2-3h-2v1zm-5 33l1 2 2 2h1l1-1h-1l-2-1h2l-2-1 2 1v-1 1l1 1h1l2 1-2-2a3 3 0 00-1-1l-5-1zm2-2v-4 1l1-2-1 2v2h1v-1c2-2 1-3 1-3v-2l-1 1-2 4 1 1v1z"/><path d="M347 275l1 1c1 0 3 1 4-1l1-1-2 1-1 1v-1h-1 1l3-1c-2 0-2-2-5 0zm10-1v-1l-1-1 1 1v-3 4l1 1v-4l-2-2v2l-1 1 1 1 1 1zm-11-2l-1-1h-2l-1-1 2 1-1-1 1 1h1v-1a3 3 0 00-2-1h-3l1 2c1 0 2 2 4 1h1zm-8-7l1 1 1 1 3 1a7 7 0 000-1l-2-1h-1 1l-1-1 2 1 2 2-1-2c-1-1-3-2-4-1h-1zm9 4l-2-4v-1l1 2v-3l-2-1v4l3 2zm8 7h1a6 6 0 01-1-1v-1 1l1 1v-1 1l2-1-4-2v2l1 1zm-2-3l-1-1-1-2v-1l1 1 1 3v-1c1-1 0-2-1-2l-3-2 1 2 1 1 2 2zm6 0v-1 3l1-1a4 4 0 000-1v-3l-1 1v2zm-10-7l1-1-1 1-1 1c2 0 3-2 3-3l-1 1h-1v1z"/></g><g fill="#ce1126"><path d="M362 284l2 1-1 2 4-2v-3l-2 1-3 1zm23-1l-1 1 1 2-5-1 1-1v-2l2 1h2z"/><path d="M369 287l3-2h3l4 1 2-1v-1l-1-3h-3l-2 1h-3a16 16 0 01-2-1h-3v3c0 2 2 3 2 3z"/><path d="M375 284c5 1 4 2 4 2h-1c-4-1-3-2-3-2zm-2 0c-5 1-4 2-4 2h1c4-1 3-2 3-2z"/><path fill="#aa241e" d="M373 281c-2 1-1 2-1 3l1 1h3l-1-2v-2h-2z"/><path fill="none" d="M375 282h5m-4 2l4 1m-8-1l-4 2m4-4h-4"/></g><path d="M354 277l-6 2-3-4a6 6 0 00-2-2h-3l-1-1-4-5-1-1 1 5-2-1a8 8 0 00-3-1l1 1a11 11 0 013 5 15 15 0 004 6 7 7 0 002 2l2-1 4 6c2 1 4 2 7 1l3-1c3-2 1-3 1-5a94 94 0 017-1c5-1 14-2 21-1l7 2a5 5 0 00-1 3l2 2a9 9 0 006 1c3 0 4-1 5-2l3-5 1 1h1l2-2a14 14 0 004-6l4-6c-3 0-4 1-5 2v-3l1-2-3 3-2 2-1 2c-4-2-5 3-8 6l-14-4h-24l-9 2z"/><g fill="#ce1126"><path d="M349 287l2-2 9-3a49 49 0 017-1l3-1a64 64 0 0119 2l8 3 2 2 3-3 1-2-1-2-8-3c-11-3-28-3-39 0a23 23 0 00-9 4l1 3 1 2 1 1z"/><path d="M338 277c1 0 2 0 2 2l6 8 2 2h4a8 8 0 003-1l2-1v-2l-4 3c-2 1-3 1-4-1l-3-3v-3l1-1-2-3-2-3-2-1-2 2-1 2z"/><path d="M336 272l-2-2h-3l2 1 2 6a15 15 0 004 5h2l-1-1a10 10 0 01-2-2c-2-1 0-3 1-4v-1c1-1-1-2-1-3l-3-4v3l1 2zm21 13l-1-1-5 2s-2 1-1 2c2 1 4-1 5-2l2-1z"/><path d="M342 282l-1-1-3-2v-2c2 0 4 5 4 5zm69-5c-1 0-2 0-3 2l-5 8-2 2a7 7 0 01-4 0 8 8 0 01-3-1l-2-1v-1c1-1 2 1 4 2s2 1 4-1l2-3 1-3-1-1 2-3 2-3 2-1 2 2 1 2z"/><path d="M413 272l2-1 3-1-2 1-2 6a15 15 0 01-4 5h-3l2-1 2-2c1-1 0-3-1-4l-1-1 2-3 3-4v3l-1 2zm-21 13v-1l6 2 1 2c-2 1-4-1-5-2l-2-1z"/><path d="M407 282l1-1 3-2v-2c-2 0-4 5-4 5z"/></g><path d="M354 279h-1l-1 1v1l1 1v1l1-1h-1v-1h1v1-2a1 1 0 000-1zm-1 1h1a1 1 0 01-1 1v-1zm2-1v3l2-1h-1v-2 1l-1-1h2l-1-1-1 1zm3-1h-1v2l1 1h-1 1v-1l1-1v-1h-1zm1 0zm-1 0h1v1h-1v-1zm3-1v1h1v2a1 1 0 01-1 0 1 1 0 010-1h-1v-2 1c-1 0 0 0 0 0v2h2v-3h-1zm3 0h-2v1l1 1v1s-1 0 0 0h1l1-1v-1h-1a1 1 0 000-1zm-1 0h1v1h-1a4 4 0 010-1zm0 1l1 1v1h-1v-2zm2-1v3l1-1h1-1v-3h-1c-1 0 0 0 0 0v1zm2-1v1l1 2s-1 0 0 0v-3h-1zm4 2l-1 1v-1a2 2 0 01-1 0v-1l1-1v1h1v-1h-1a1 1 0 00-1 0 1 1 0 000 1v2h2a1 1 0 000-1zm1-2v1l-1 1v1h1v-1l1 1s-1 0 0 0v-2l-1-1zm0 1zm4-1h-1v3h1a1 1 0 001 0v-1a2 2 0 000-1v-1h-1zm0 0l1 1v1h-1v-2zm3 0a1 1 0 00-1 0v2a1 1 0 001 1l1-1v-2h-1zm0 0v2a1 1 0 010 1h-1v-3h1zm1 3c1 0 0 0 0 0v-1h1v-1 2l1-1v-1 2h1c0 1 0 0 0 0v-3h-1v1l-1 1v-2h-1v3zm3 1h1v-2a21 21 0 010-1v-1h-1v4zm1 0h1a1 1 0 010-1v-2 1l1 2v-3h1-1v1l-1-1a3 3 0 01-1 0h1v1a4 4 0 01-1 0v2zm3-3v3h-1 1v-2h1v-1h-1zm1 2a2 2 0 000 1l1 1 1-1h-1l-1-1 1-1h1-1c0-1 0-1 0 0h-1v1zm3-1v1l-1 1h1v1l1 1v-4h-1zm0 1v1c-1 0 0 0 0 0v-1zm1 3v-1h1v-2 3h1v-3h1-1v2l-1-1v-1c0-1-1 0 0 0l-1 1v2zm4-2h-1v1l-1 1 1 1v-1s1 0 0 0v1h1v-3zm0 0v2h-1v-1l1-1z" fill="#eac102"/></svg>