<svg xmlns="http://www.w3.org/2000/svg" xmlns:xlink="http://www.w3.org/1999/xlink" viewBox="0 0 1440 960"><defs><linearGradient id="d" y2="278" gradientUnits="userSpaceOnUse" x2="601" gradientTransform="matrix(1.14637 0 0 1.17117 33 82)" y1="342" x1="598"><stop stop-color="#fff" offset="0"/><stop stop-color="#1ea8d1" offset="1"/></linearGradient><linearGradient id="e" y2="400" gradientUnits="userSpaceOnUse" x2="600" gradientTransform="matrix(1.14637 0 0 1.17117 33 82)" y1="326" x1="600"><stop stop-color="#FFF" offset="0"/><stop stop-color="#c1d3e8" offset="0"/><stop stop-color="#88b0d5" offset="0"/><stop stop-color="#5998c6" offset="0"/><stop stop-color="#2c87bc" offset="1"/><stop stop-color="#007db5" offset="1"/><stop stop-color="#0077b0" offset="1"/><stop stop-color="#0075af" offset="1"/></linearGradient></defs><path fill="#ed1c24" d="M0 0h1440v960H0z"/><path fill="#034ea2" d="M0 0h1440v720H0z"/><path fill="#fd0" d="M0 0h1440v480H0z"/><g id="a" stroke="#000" stroke-width="0" transform="matrix(1.14637 0 0 1.17117 33 82)"><path fill="#b1babf" d="M452 477l-6 1s-2 9-5 11l11-5c0-2 0-5 2-6a10 10 0 00-2-1z"/><path fill="none" d="M442 488l11-10m-1 6l-6-6"/><path fill="#b1babf" d="M473 456l3 3-20 19h-2l-2-2v-1z"/><path fill="none" d="M454 477l20-19"/><path fill="#b1babf" d="M479 218l8 8-2 1-8-8 2-1"/><path fill="#034ea2" d="M510 318l11 11 5-13 1-8v-43l3 3-12-13-8-7v70z"/><path fill="#ed1c24" d="M527 308l11-32-11-11v43z"/><path fill="#fd0" d="M510 248l8 7-37-37c-2-1-2 32-2 69l31 31v-70z"/><path fill="none" d="M535 272l-59-59"/><path fill="#b1babf" d="M477 214s-2-3-2-7c0 0-10-4-13-8 3 5 5 13 5 14 3 1 7 1 8 3l2-2z"/><path fill="#ed1c24" d="M485 223l-3-2-1 3v21l-2 13 1 7h2l1-8 1-9v-13l1-12z"/><path fill="#034ea2" d="M480 218s-3 8-3 14l-1 15-1 10 1 2s2 1 3-1l2-13v-21a76 76 0 012-4l-3-2z"/><path fill="#ed1c24" d="M488 217a87 87 0 01-8 1c6 0 9 4 9 4l2-2c2-4-1-4-3-3z"/><path fill="#ed1c24" d="M480 218v1c1 1 4 6 8 4l1-1s-2-4-9-4z"/><path fill="#034ea2" d="M481 218l7-3 1 2c0 1 0 2-3 2l-5-1z"/><path fill="#034ea2" d="M491 214c-1-4-6-3-6-3-4 0-5 6-5 7v1c11-9 9 0 9 0l2-5z"/><path fill="none" d="M462 200l14 15m-9-1l8-7"/><path fill="#b1babf" d="M480 204a2 2 0 000-1l-1 9a13 13 0 01-4 5c-4 2-8 3-13 1l2 1c7 4 15 2 17-4 2-3 1-7-1-11z"/><circle fill="#e8b909" cx="477" cy="258" r="2"/><path fill="#e8b909" d="M480 270l-7-1c0-4 1-9 4-9s3 6 3 10z"/><path fill="none" d="M476 263l-1 6m2-6v7"/><circle fill="#e8b909" cx="481" cy="263" r="2"/><path fill="#e8b909" d="M484 275h-6c0-4 0-9 3-9s3 5 3 9z"/><path fill="none" d="M480 269v6m1-6l1 6"/></g><use xlink:href="#a" transform="matrix(-1 0 0 1 1439 0)"/><g stroke-width="0"><path fill="none" d="M641 383l-13 5"/><path fill="#39b54a" d="M619 392v-11c1-1 9-7 6-23v-7s-8 14-8 18c-1 4 0 10 1 12l1 6"/><path fill="none" d="M624 355l-1 6-1 5-3 8v6m0 1c-1-1 2-4 3-5m-3-2c1-1-1-4-1-5m1 7c0-3 4-4 4-7m-2 0c-1-1-3-2-2-4m3 2l1-3 2-2m-3 1v-5"/><path fill="#39b54a" d="M628 381c0-4 0-6 3-8 2-2 5-2 6-6v4a19 19 0 01-2 4 33 33 0 01-3 6"/><path fill="#39b54a" d="M616 392c1-4 4-8 9-10l10-2 7-1c1-1 4-1 5-3-6 4-10 11-16 14-6 2-13 1-17 4"/><path fill="none" d="M616 392c3-3 7-5 12-7l11-4m-11 5l5 1m0-3h3m-7 1c-1-2 2-3 3-4"/><path fill="#39b54a" d="M648 368c2-2 1-5 2-7l3-7v8l-5 7"/><path fill="none" d="M650 365l2-6"/><path fill="#39b54a" d="M612 440c3 4 6 11 2 15 0-1 0-3-2-4l-3-1c-3-1-2-4-4-6v-1l7-3z"/><path fill="none" d="M609 444c3 2 6 6 5 10m-5-11v6m1-5l5 5"/><path fill="#39b54a" d="M601 429l2-6 6-5a28 29 0 019-1h8l-15 5-9 8c-2 2-2 5-3 7"/><path fill="none" d="M601 431l6-9 9-3m-13 8l5-4"/><path fill="#39b54a" d="M613 420c1-2 3-2 5-2m-19 21l1-3 3-3a50 51 0 016-7 17 17 0 017-4c3-1 7 0 9-2l-3 5-8 7-8 3c-2 1-6 1-7 3l1-1"/><path fill="none" d="M600 436c2 0 3-2 4-3l5-3a44 45 0 016-4l6-3"/><path fill="none" d="M607 430l5-1 3-1m-5 1l4-5"/><path fill="#39b54a" d="M635 380l7-7 5-5c6-2 12 3 18 3l-7 3-9 1c-5 0-12 0-14 5"/><path fill="none" d="M638 377l10-5 10-1m-10 1l7 1m-10 1l3-3 2-2"/><path fill="#39b54a" d="M612 410c2 0 3-4 4-6l3-9 4-3c2-2 3-2 5-2l9-1 8-1-7 5c-3 4-4 7-8 9-3 3-8 4-11 5s-6 1-7 4"/><path fill="none" d="M615 407c4-4 6-10 12-12 4-1 10-2 13-5"/><path fill="none" d="M618 403a7 7 0 015-2h6m-1-6l3 1 4-1m-11 1l3-5"/><path fill="#39b54a" d="M608 417c2 0 3-3 3-4l3-4 4-2a8 9 0 014-1h13a13 13 0 00-6 3l-7 5-9 1-5 2"/><path fill="none" d="M611 415c3-2 5-5 10-6 3 0 7 0 10-2"/><path fill="none" d="M614 413a7 7 0 014-1h4m-1-3l3 1 2-1m-8 1l3-3"/><path fill="#39b54a" d="M597 443s-16-17-8-37l1 6c1 1 9 14 8 25l-1 7v-1z"/><path fill="none" d="M597 442s-2-14-5-17c-2-4-3-11-2-13m2 11c1 0 2-1 2-3m0 9l1-3m-1 6l-4-3m2-4c-1-1-4-1-4-3m1-4l-1-3m7 22l-3-3m3 0l2-4"/><path fill="#39b54a" d="M623 375l4-9c1-1 11-3 16-18l2-7s-12 9-15 13-4 9-4 11l-2 6"/><path fill="none" d="M643 345l-4 5-3 4-5 5-4 6m-1 1c1-2 4-3 6-4m-2-2l1-6m-1 6c1-2 6 0 7-2m-4-2v-5m3 3l2-2 3-1m-3 0l2-5"/><path fill="#39b54a" d="M603 381v-6c0-1-6-4-4-13 0 0 2-3 1-4 0 0 5 7 5 10l-1 7-1 3"/><path fill="none" d="M600 360l1 4 1 3 1 4v3m1 1l-3-3m2-1l1-3m-1 4c1-2-3-2-3-4m3 0s2-1 1-2"/><path fill="none" d="M602 367l-1-2-2-1m2 1l1-3"/><path fill="#39b54a" d="M602 404l1-12c1-1 9-7 9-26v-8s-9 15-10 20v21"/><path fill="none" d="M611 363l-2 7-2 6-3 8-1 7m0 1c0-2 2-4 3-5m-2-3c1-1-1-4-1-6m1 7c0-3 6-3 6-6m-4 0l-2-5"/><path fill="none" d="M607 376l2-3 2-2m-3 1v-6"/><path fill="#39b54a" d="M602 393l-4-8-4-6 8 5"/><path fill="none" d="M602 388c-1-2-3-6-5-7m4 7l-2-3m1 1v-3"/><path fill="#39b54a" d="M602 410s1-11 6-14l7-5 1-1c-2 2-3 17-3 18l-5 11-6 8-2 6"/><path fill="none" d="M602 423c2-1 2-4 3-6l2-7 2-8 5-7m-7 16c2-3 4-3 6-4m-8 10l4-3m-3-2l-2-6m4-1a8 8 0 010-7m-5 5a27 28 0 012-9l3-4 2-4"/><path fill="#ffdf4f" d="M610 386l1 1v-1c1 0 3 0 2-1l1-1v-2h-1l-1-1v1l-1-1v1h-1l-1 2h1v1h1"/><path fill="#de2126" d="M611 383l1 1 1-1c-1 0-2 0-1 1"/><path fill="#ffdf4f" d="M611 393h2c1 0 2 0 1-1l1-1v-2l-1-1h-2v1h-1c1 0 1 0 0 0v3h1"/><path fill="#de2126" d="M612 390l2 1v-1h-1"/><path fill="none" d="M611 392c-6 3-10 9-9 15"/><path fill="#39b54a" d="M622 377c4-2 6-7 10-9 2-2 5-2 8-3 2 0 5 0 6-2l-6 6-7 4-7 2c-2 0-3 2-4 3v-1z"/><path fill="none" d="M626 374l6-4 9-3m-11 5c2-2 4 0 6-2m-3-1l3-2m-13 21c-2 1-7 2-8 5"/><path fill="#ffdf4f" d="M623 388l2 1 2-2v-1c1-2-3-3-3-1-1 0-2 0-1 1v2"/><path fill="#de2126" d="M624 386c1 3 2-1 0 0l1 1"/><path fill="#ffdf4f" d="M632 395l2 1c1 0 2 0 1-2l1-1h-1c2-2-2-3-2-1l-1 1v2"/><path fill="#de2126" d="M633 394c0 2 2-2 0-1l1 1"/><path fill="#ffdf4f" d="M627 399l2 1c1 0 2 0 1-2l1-1h-1c1-2-3-3-3-1l-1 1v2"/><path fill="#de2126" d="M628 398c0 2 2-2 0 0"/><path fill="#ffdf4f" d="M619 400l2 1 1-1c1 1 2 0 1-1v-1c1-2-3-3-3-1-1 0-2 0-1 1v2"/><path fill="#de2126" d="M621 398c0 3 2-1 0 0"/><path fill="#ffdf4f" d="M614 406l2 1c1 0 2-1 1-2l1-1h-1c2-2-2-3-2-1-1 0-2 0-1 1v2"/><path fill="#de2126" d="M615 404c0 3 2-1 0 0h1"/><path fill="#ffdf4f" d="M641 385l2 1c1 0 2-1 1-2l1-1h-1c2-2-2-3-2-1-1 0-2 0-1 1v2"/><path fill="#de2126" d="M642 383c0 3 2-1 0 0"/><path fill="#ffdf4f" d="M651 370l2 1c1 0 2 0 1-2l1-1h-1c1-2-3-3-3-1l-1 1c0 1-1 2 1 2"/><path fill="#de2126" d="M652 369c0 2 2-2 0-1v1"/><path fill="#ffdf4f" d="M643 370l2 1v-1c1 1 2 0 1-1l1-1h-1c2-2-2-3-3-2v3"/><path fill="#de2126" d="M644 368c0 2 2-1 0 0"/><path fill="#ffdf4f" d="M623 411c0 1 1 2 2 1 1 0 2 0 1-1l1-2h-1c1-1-3-3-3-1l-1 1v2"/><path fill="#de2126" d="M624 410c0 2 2-2 0 0"/><path fill="#ffdf4f" d="M614 414l2 1h1c1 0 2 0 1-2v-1c1-2-3-3-3-1l-1 1v2"/><path fill="#de2126" d="M616 413c0 2 2-2 0-1v1"/><path fill="#ffdf4f" d="M614 427l2 1v-1c1 1 2 0 1-1l1-1h-1c2-2-2-3-2-1-1 0-2 0-1 1v2"/><path fill="#de2126" d="M615 425c0 3 2-1 0 0h1"/><path fill="#ffdf4f" d="M606 432l2 1h1c1 0 2-1 1-2l1-1h-1c1-2-3-3-3-1-1 0-2 0-1 1v2"/><path fill="#de2126" d="M608 430c0 3 2-1 0 0v1"/><path fill="#ffdf4f" d="M629 379l2 1h1c1 0 2-1 1-2l1-1h-1c1-2-3-3-3-1-1 0-2 0-1 1v2"/><path fill="#de2126" d="M631 377c0 3 2-1 0 0"/><path fill="#39b54a" d="M650 367c3-3 3-8 7-10l7-3c-4 5-8 10-14 13"/><path fill="#39b54a" d="M649 367l6-4h6l7-2c-4 6-13 2-19 6"/><path fill="none" d="M651 365l4-4c2-2 3-3 5-3m-55 66l4-5"/><path fill="#39b54a" d="M598 444l2-5 6-4c5-2 12-1 16-5-2 5-8 10-13 12l-6 2-6 1"/><path fill="none" d="M598 444c2 0 3-2 4-3a23 23 0 016-3l7-2 3-2m-15 7c2 0 3 2 5 1m-1-3l8-1"/><path fill="none" d="M603 441l2-3 1-2m2 2l2-2 3-2m-16 10l2-6 2-5"/><path fill="#39b54a" d="M599 440v-14c0-1-9-10-6-31 0 0 2-7 1-9 0 0 8 18 8 23 1 6-1 14-1 17l-1 7"/><path fill="none" d="M595 392l1 7 1 8 2 9v8"/><path fill="#39b54a" d="M600 426l-4-7"/><path fill="none" d="M599 417l2-7"/><path fill="#39b54a" d="M600 418c0-4-6-5-6-8"/><path fill="none" d="M598 410c1-2 3-3 2-5m-3 2l-2-4-2-3m3 2l1-7"/></g><g stroke-width="0"><g fill="#009c4f"><path d="M843 433c-1-14-7-67-18-84 0 0 11 17 12 90l6-6z"/><path d="M842 425c-7-42-29-79-29-79 8 18 23 63 27 91l3-3-1-9z"/><path d="M806 348c19 35 27 86 28 95l7-7c-6-39-35-88-35-88"/><path d="M795 345c4 5 18 35 24 51 5 14 9 39 12 50l8-8c-8-36-39-86-44-93"/><path d="M784 341a324 324 0 0043 109l9-8c-7-22-30-79-52-101"/><path d="M784 363c12 17 34 58 40 90l10-10c-9-26-39-66-50-80"/><path d="M792 387c15 20 26 54 27 69l10-7c-10-26-37-62-37-62"/></g><path d="M824 452c-3-14-10-29-17-42m23 36c-7-19-19-41-31-61m29 42c-8-20-25-59-37-75m43 83c-5-21-18-50-25-64m27 58c-6-24-13-45-18-56m22 59c-2-19-11-51-19-68m17 44l-6-37" fill="none"/></g><g id="b" fill="none" stroke="#000" stroke-width="0" transform="matrix(1.14637 0 0 1.17117 33 82)"><path fill="#b1babf" d="M487 512l-6 2s-3 8-6 11c4-3 10-5 12-5 0-2 0-5 2-6a10 10 0 00-2-2z"/><path d="M477 524l11-11m-1 7l-6-6"/><path fill="#b1babf" d="M528 478l-38 36h-1l-2-2v-2l38-36 3 4"/><path d="M489 512l35-33"/><path fill="#fd0" d="M517 450c-24-16-28-63-28-70l1-82 7 7-37-37c-3-3-1 100-1 145 0 21 14 96 91 59 0 0 39-14 51-31l-8-1a42 42 0 01-4 2c-45 30-72 8-72 8z"/><path fill="#034ea2" d="M489 380c0 7 4 54 28 70 0 0 27 22 72-8-14 6-25 7-32 5-22-7-45-32-48-57-4-26-3-75-3-75l3 2-12-12-7-7-1 82z"/><path fill="#ed1c24" d="M521 347l-1-19-11-11-3-3v2c0 6-1 50 3 74 3 25 26 50 48 57 7 2 18 1 32-5l3-2c-39-6-67-42-71-93z"/><path d="M520 327l-60-59"/><path fill="#b1babf" d="M459 265l-3-2v-2c-1 0-3 0-5 2-1 1-2 3-1 4h2a6 6 0 002 3c2 2 4 2 6 1 1-2 1-4-1-6z"/><path d="M459 268v-1 1zm9 3l-1 1 1-1z"/><path fill="#ed1c24" d="M461 324v-10l2-10v-17l1-15-3-2-1 4-1 26-1 15v1l1 8"/><path fill="#034ea2" d="M459 268s-3 8-3 16l-1 18c0 2-2 12-1 16l2 2s1-1 2-4v-1l1-15 1-26a113 113 0 011-5l-2-1z"/><path fill="#ed1c24" d="M467 266a87 87 0 01-8 1c6 0 9 4 9 4l2-2c2-4-2-4-3-3z"/><path fill="#ed1c24" d="M459 267v1c1 1 4 6 8 4l1-1s-3-4-9-4z"/><path fill="#034ea2" d="M459 267l6-5c1-1 2 1 2 2 0 0 1 1-2 2l-6 1z"/><path fill="#034ea2" d="M468 260c-3-4-7-1-7-1-4 2-3 7-2 8v1c7-12 9-3 9-3v-5z"/><path fill="#e8b909" stroke-width="1" d="M558 470c1-5 1-12-3-12-3 0-4 6-4 11l7 1" transform="matrix(.87232 0 0 .85385 -29 -70)"/><circle fill="#e8b909" cx="456" cy="319" r="2"/><path d="M454 324v6m2-6v7"/><path fill="#e8b909" stroke-width="1" d="M561 464v7m-2-7l-1 7m5 0h-7c0-5 0-11 4-11 3 0 3 6 3 11z" transform="matrix(.87232 0 0 .85385 -29 -70)"/><circle fill="#e8b909" cx="459" cy="322" r="2"/><ellipse fill="#c0cad0" cx="453" cy="264" rx="2" ry="4" transform="rotate(45 453 264)"/><path fill="#b1babf" d="M449 275s-3-2-3-5l2-5h2l2-2 2-2v-2c2-2 6-6 4-7-1-1-6 2-7 4l-1-1-1 1a32 32 0 01-3-11s-16-4-21-10c5 7 9 18 10 21 4 0 9 1 11 3l-1 1v1a10 10 0 01-5 3c-3 1-5-3-5-3a11 11 0 00-1 4c0 6 5 11 11 11l4-1z"/><path d="M426 236l21 22m-12-2l11-10m0 14a3 3 0 014-3c1 0 3 1 3 3s-2 4-4 4a3 3 0 01-3-4z"/><path d="M533 390c0 2 1 7 3 10s7 4 11 3" transform="matrix(.87232 0 0 .85385 -29 -70)"/></g><use xlink:href="#b" transform="matrix(-1 0 0 1 1440 0)"/><g id="c" stroke="#000" stroke-width="0"><path fill="#fd0" d="M582 468l-18 2s-20 26-20 32c-1 5-1 10 13 8l11-2c6-2 7 0 7 0a1643 1643 0 0111-39v-1h-4z" transform="matrix(1.14637 0 0 1.17117 33 82)"/><path fill="#ed1c24" d="M587 458l-1 5 6 3-1 12-4 37-1 11c1 4-3 8-3 8l-3 5-1 2h1c0 3 4 4 6 3 4 0 11-5 11-5l1-73-11-8z" transform="matrix(1.14637 0 0 1.17117 33 82)"/><path fill="#034ea2" stroke-linecap="round" d="M586 463v6l-8 27-3 14c-1 1-11 13-11 16 0 2 1 3 5 3l11-2c4-1 5-1 6 1v-2l1-11 4-37 1-12-6-3z" transform="matrix(1.14637 0 0 1.17117 33 82)"/><path fill="#ebc900" d="M575 507l-8 1-3 18c0-3 8-11 10-14l1-5z" transform="matrix(1.14637 0 0 1.17117 33 82)"/><path fill="#023f88" d="M586 530v-2c-1-2-2-2-6-1v12l3-5 3-4z" transform="matrix(1.14637 0 0 1.17117 33 82)"/></g><use xlink:href="#c" transform="matrix(-1 0 0 1 1435 0)"/><g fill="#452c25" stroke="#000" stroke-width="0"><path stroke-width="1" d="M594 214s-9 20-6 22c0 0 9-15 16-21 4-4 6 0 7-3s-10-8-10-8l-7 10" transform="matrix(1.14637 0 0 1.17117 33 82)"/><path d="M679 350s-15 25-11 25 19-31 19-31l-5 1-3 5z" stroke="none"/><path d="M683 344s-15 24-11 24c3 0 19-31 19-31l-5 1-3 6z" stroke="none"/><path d="M686 339s-17 23-13 24c3 0 22-29 22-29h-5l-4 5z" stroke="none"/><path d="M690 335s-19 21-16 22c4 1 26-26 26-26h-5l-5 4z" stroke="none"/><path d="M691 328s-17 22-14 23 23-28 23-28h-5l-4 5zm-4 19s-17 23-14 24c4 0 23-29 23-29h-6l-3 5zm9-4s-10 18-9 19 13-10 19-21-10 1-10 1" stroke="none"/><path stroke-width="1" d="M587 219s-9 19-6 21c0 0 11-11 13-21v-10l-7 9" transform="matrix(1.14637 0 0 1.17117 33 82)"/><path stroke-width="1" d="M579 221s-8 19-5 21c0 0 10-11 13-21l-1-10-7 9" transform="matrix(1.14637 0 0 1.17117 33 82)"/><path d="M692 339s-20 20-16 21 26-25 26-25h-6l-4 4z" stroke="none"/><path d="M694 342s-20 20-17 21c4 1 26-25 26-25l-5-1-4 5z" stroke="none"/><path d="M695 345s-19 20-16 21 26-25 26-25l-5-1-5 5zm2-28s-15 19-13 22 15-8 20-17c4-8-7-5-7-5" stroke="none"/><path d="M696 337s-12 24-9 23c3-2 16-20 17-24l1-8-10 6 1 5" stroke="none"/><path d="M696 329s11-19 0 4c-10 22-14 19-14 19-1-2 9-17 9-17l9-13m7 5s12-19 0 3c-11 23-16 19-16 19-1-1 10-16 10-16l10-13" stroke="none"/><path d="M708 328s-12 25-9 27c0 0 9-12 12-20 2-9 0-1 0-1l3-16m6 5s-12 24-9 26c0 0 9-11 12-20 2-9 0 0 0 0l3-16m-23 6s-15 18-12 22c2 3 15-9 19-17s-7-6-7-6" stroke="none"/></g><g fill="#c69024" stroke="#000"><path fill="#b1babf" d="M815 620l-1 4H643v-8h171l1 4z" stroke="none"/><path fill="#b87510" d="M655 620v4h127a90 90 0 000-8H656l-1 4z"/><path fill="#b76e11" d="M656 616h126v-5H656v5z"/><path fill="#ac620e" d="M656 611h126l-1-6H657l-1 6z"/><path fill="#a2550b" d="M777 600H661c-3 0-4 3-4 5h124c0-2-2-5-4-5z"/><path fill="#b76e11" d="M656 630h126v-6H656v6z"/><path fill="#ac620e" d="M657 635h124l1-5H656l1 5z"/><path fill="#a2550b" d="M661 640h116c2 0 4-3 4-5H657c0 2 1 5 4 5z"/><path d="M671 640a94 94 0 011-41h-6s-3 12-3 20l2 21h6zm95 0a93 93 0 000-41h6a100 100 0 001 41h-7zm-57 0a133 133 0 010-41h-6l-1 20 1 21h6zm19 0a133 133 0 000-41h6l2 20-1 21h-7zm-42-20l11 21 6-1-12-20c-8-14-14-21-14-21h-5l14 21zm66 0l-12 21-5-1 12-20c8-14 14-21 14-21h5l-14 21z"/><path d="M749 620a8114 8114 0 0112 21l5-1-12-20c-8-14-14-21-14-21h-5l14 21z"/><path fill="#b1babf" d="M635 627s2-13-2-21c-4-7-10-10-12-9-1 1 15-23 31 0 0 0-15 1-12 29"/><path fill="#d3dce0" d="M624 597c4-5 15-12 26 0a8 8 0 012 0c-16-23-32 1-31 0h3" stroke="none"/><path fill="#b1babf" d="M632 622a28 28 0 00-8 5s-11-6-18-7h-2 2c7-2 15-5 17-7 3 3 6 5 9 5"/><path fill="none" d="M606 620h26m-9-7l1 14" stroke="none"/><path fill="#b1babf" d="M641 627l-3 8c-2 0-3-4-3-8m-4-14h13v14h-13z"/><path fill="none" d="M634 616h8v8h-8z"/><path fill="none" d="M636 619h3v3h-3zm14-22h2c-16-23-32 1-30 0h2"/><path fill="none" d="M650 597c-12-12-22-5-27 0" stroke="none"/><path d="M689 620l-12 21-5-1 11-20 14-21h6l-14 21z"/></g><path fill="url(#d)" d="M631 476c0 63 40 114 88 114s88-51 88-114c0-62-39-113-88-113s-88 51-88 113"/><path fill="#395054" d="M769 468c4-3 7-3 12-4l10-2c3-1 11 5 14 6v8s-14 1-19-1l-17-8"/><path fill="#006c3c" d="M683 487c2 1 1 2 0 3l6 4a5 5 0 013 3l4 3 5 2 8 1 7 1 19 1-12 2h-7c-1 1-1 2-3 2-1 1 0 2 1 2l4 1 6 2 7 1h7l7 1 6-1h5c2 0 4 4 2 4s2-1 0-1h-7l-4 4c-3 2-1 3 0 3l3 1 5 2 7 1 5 1 6 2 4 2h5l4 1 3 2-10 17c-9 14-22 23-32 29-10 5-23 6-42 4-18-2-36-21-43-30a68 68 0 01-11-20h1l4-1h3l4-1 3-2h3l3-1c1-1 3-2 1-2s0-1 0-1h10v-3l-2-1-3-1-4-2h-11c-3-1-6-4-2-4h2l3-1h9l1-1 2 1 3-1h3l3-1c2-1 0-1-1-1l-1-2a8 8 0 00-3-1h-10c-2 0-2-3 2-3h9l3-2 6-1c1-1-1-1-3-2l-1-1-12-8c-2-2 2-1 4-2 0 0 1-2-1-3l-4-1c-2 0-4-3-5-3l-3-1"/><path fill="#6dbe45" d="M683 487v3c0 1 1 4 5 5l4 2 4 3 5 2 8 1 7 1 18 1-14 3c-1 1-3-1-4-1l-2 2c-2 1-1 2 0 2l4 1 6 2 7 1h7l7 1h6l5 1 6 1h-11l-4 4c-3 2-1 3 0 3l3 1 5 2 7 1 5 1 6 2 4 2h5l4 1 2 1 8-22c2-6 4-25 4-27l-4-2h-29c-2-1-6-2-7-1h-7l-16-1h-16l-7 1-6 1-7 1-10 1h-8"/><path d="M683 487v4a9 9 0 005 4l4 2 1 1 2 1a11 11 0 012 2l2 1h5l4 1 5 1 15 1h5-3l-6 2-4 1-3-1-2 1-2 2c-1 1 3 2 4 2l3 1 3 1 7 1 6 1h17l7 1 3 1h-3a34 34 0 00-6 0h-4l-3 3-2 2c0 2 3 3 4 3l4 1 6 2 6 1 3 1 5 1 4 2h5c3 0 4 2 6 3l3-10 5-14 3-15 1-10c0-2-1-2-2-3h-27a5 5 0 01-4 0l-4-1h-7l-11-1h-30l-2 1-5 1-7 1-10 1h-8 12l15-2 4-1 3-1h7l10 1h31l4 2 3-1h24l3 1 1 4-1 7a149 149 0 01-3 15l-4 14-4 10-4-2a7 7 0 00-4 0 5 5 0 01-3 0l-3-2-3-1a35 35 0 01-4-1 20 20 0 00-6-1l-8-2-6-2-1-1c-1-1 0-2 1-3l3-2 4-1h9l-2-1h-4l-4-1h-13l-2-1h-4l-6-1-6-1-5-2-4-1 2-2 2-1 2 1h2l4-1 6-2h2-10l-13-2-6-1-5-1h-2l-2-2-2-2-1-1-4-1a9 9 0 01-4-3c-1-1-2-4-1-5"/><path fill="#6dbe45" d="M680 490c2 2 1 1-3 3-2 1 12 9 13 10l2 1c2 1 4 2 2 2l-5 2-4 1h-6l-4 1h-5l10 1 4 1c2 0 2 1 3 2l2 1 1 1c-2 1-1 2-3 2h-8l-1 1-3-1-3 1h-7c0 1-2 1-1 2h-3c4 1 5-1 10 1l5 2 5 1 3 1 1 1 1 3-3 1-3-1h-4s-2 0 0 1 0 1-2 2l-3 1h-2l-4 2-4 1-3 1h-3l-3 1s-6-10-9-23-4-33-4-34h6l12 1 12 2h5l6 4"/><path d="M680 491h1l-1 1-3 1 1 2 4 3 5 3a56 56 0 013 2l1 1h1l2 1v2h-3a7 7 0 00-4 1l-3 1h-9l-5 1c6 1 13 0 17 4l2 1h1c1 1-1 1-1 2h-5l-2 1-2-1h-1v1h-6l-4 1h-4l-1 1v1h-3 2a9 9 0 002 0h3l6 2 6 2 3 1h1l1 1 1 2-1 1a6 6 0 01-3 0h-7c0 1 2 1 1 2l-6 2-4 1a11 11 0 01-3 2l-8 1h-3v-1a89 89 0 01-3-6 87 87 0 01-7-20 215 215 0 01-2-19l-1-7v-3h6l8 1 14 2h3a5 5 0 013 0l3 2 3 2 1 1v-1l-5-3-3-2-3 1-13-2-8-1-6-1-3 1v3c1 19 4 38 13 54 5-1 10-1 15-4l5-1c1-1 5-1 5-3l-2-1h11v-1l-1-2-1-1h-1l-3-2h-2a19 19 0 01-3-1l-3-1a16 16 0 00-5-1h-5s-1 0 0 0h2c-1-1 1-1 1-1v-1h6l4-1s4 2 4 0v-1l2 1h5l2-1h2c1-1 0-2-1-2l-2-1a10 10 0 00-2-2 16 16 0 00-5-1l-8-1a50 50 0 01-2 0h4l4-1h8l2-1a7 7 0 013-1l4-1-1-1a15 15 0 00-3-1c-1-1 0 0 0 0l-2-2-2-1-7-5-2-2-1-1 1-1 3-1-1-1v1"/><path fill="#557176" d="M636 484s0-2 5-2l10 1 12 1 9 2 4 2h13c7 0 2 2 10 0l16-3c3 0-2-2 6-1h13l9 1h16c3 1 4-1 6 1s8 0 10 0h6l9 1 7-1 4 1 1-13c0-2 3-4-2-4-19-2-12-3-23-4l-17-4-21-5-18 1-28-1-11-4h-24a41 41 0 00-21 3l-1 28z"/><path d="M636 484l1-1 6-1 4 1 7 1 12 1 5 1 5 2v-1 1l3 1h16l5-1 10-2h4l2-1v-1h1l5 1h39l4 1 2 1h2l8-1 14 1 4-1h2l4 1 1-11 1-4-1-2-5-1a132 132 0 01-5 0 44 44 0 01-5-1l-6-2-5-1-7-1-11-3-14-3-6-1h-44l-2-1-7-2-6-2-15 1h-7a44 44 0 00-20 3l-1 28s0 1 0 0v-19l1-9 4-1 8-2 11 1h9l9-1a9 9 0 014 1l11 3h9l23 1 9-1h6l14 4a506 506 0 0023 5l5 1 3 1 10 2h6c1 0 2 1 1 2v3l-1 11h-32a8 8 0 01-4-1h-13l-4-1h-32v1h-1l-3 1-9 1-9 2-2-1h-16v-1a30 30 0 00-5-2l-6-1-12-1-11-1c-2 0-6 0-6 2"/><g fill="#99afca"><path d="M784 477l-1 3v1l1-3v-1m-135-2l-1 3v1a22 22 0 011-3v-1m8-3l-1 3v1l1-3v-1m2-1l-1 2s0 1 0 0a12 12 0 001-2m2-2a97 97 0 00-3 7 97 97 0 013-6v-1m2-1l-2 5 2-4v-1m1 0a16 16 0 010 3v1a19 19 0 000-4m2 0c0-1 0 0 0 0m-12 13l1-1v-1l-1 1v1m3-2l-1 1 1-1m20-11a8 8 0 002-5c0-1 0 0 0 0l-2 5m4-5a17 17 0 010 3 19 19 0 000-3m-3 0l-2 4 2-4m-15 14l-1 2 1-2m2 0a14 14 0 01-2 2l2-2m3 0l-1 2 1-1v-1m1-1l-2 4 2-4m30-11a2 2 0 000 1h1a4 4 0 00-1-1m0 5c2-1 3-3 3-5 0-1 0-1 0 0 0 2-1 4-3 5m-14 3a8 8 0 01-3 2v1a8 8 0 003-2v-1m-4 7c3-1 5-3 7-6v-1c-2 3-4 6-7 7m5 4a10 10 0 003-3v-1a10 10 0 01-3 3v1m6-5a37 37 0 01-6 7 37 37 0 006-6v-1m2-1l2-2-2 2m5 5l4-5v-1l-4 6m5-4l-4 4s1 0 0 0l4-3v-1m12-2a13 13 0 001-5l-1 4v1m-1-5l-1 5 1-4v-1m3 0v5c-1 0 0 0 0 0v-5m2 2l-1 4a13 13 0 001-4m1 0c1 4-1 7-3 9a13 13 0 003-9m2 1l-2 4v1l2-4v-1m1-1l-1 3v1l1-3v-1m1 2l-3 5v1l3-5v-1m1-1a6 6 0 010 2v-2m2 0l-4 6 4-6m7-5l-1 2a6 6 0 001-3v1m0 7a20 20 0 003-7v-1a19 19 0 01-4 8s1 0 0 0m6-8a5 5 0 01-1 3l1-3m-10 8l-4 4v1l4-5s-1 0 0 0m1 1a157 157 0 01-4 5v1l4-6m1 2l-2 1v1l2-1v-1m16-8l-2 2s1 0 0 0l2-1v-1m1 3l1-3-1 2v1m-7 4l-1 1v1l1-2m2 4l2-5h-1l-1 5m0-5l-2 2v1l2-3m3 0l-2 3v1l2-5m0 5l2-3-2 2v1m4-10a21 21 0 00-2 4l2-3v-1m3 1a9 9 0 01-2 4 10 10 0 002-3v-1m2 1a15 15 0 01-2 4s1 0 0 0a15 15 0 002-3v-1m2 7v-3c0-1 0-1 0 0v3m2-3l-3 6c1-1 3-3 3-5v-1m-7 2l-1 2c-1 0 0 0 0 0l1-1v-1m3 0a22 22 0 00-2 3l2-2v-1m12-7a5 5 0 01-1 3v1a6 6 0 001-4c0-1 0 0 0 0m3 1a69 69 0 00-2 4v1a71 71 0 012-5m2 1a10 10 0 01-2 4l2-3v-1m2 1l-2 5v1l2-5v-1m2 3a25 25 0 01-3 4 25 25 0 003-4m2 2l-4 4 4-4m-12 3l1-1 1-1v-1l-1 2h-1v1m4-2l-2 2v1l2-3s0-1 0 0m1 0l-2 4 2-4"/><path d="M786 475c0 2-2 4-3 5v1c1-2 3-3 3-5v-1m0 5a10 10 0 003-3v-1a10 10 0 01-3 4s1 0 0 0m4-4a23 23 0 01-2 4v1l2-4v-1m3 0l-3 4v1l3-4v-1m2 1a11 11 0 01-2 3l2-3m-3 5l-4 3v1l4-3v-1m-7 2l2-1v-1l-2 1v1m10-2l-3 3 3-2v-1m-37-15l-3 2c2 0 3-1 3-2 1 0 0 0 0 0m-48 4l-2 5 2-5m-53-9a42 42 0 01-5 3v1l5-3v-1m-7 0a14 14 0 01-4 3 14 14 0 004-3"/></g><path fill="url(#e)" d="M724 507l4-1-4 1m4-1l6-1-6 1m6-1zm-60-34l-8 4c-2 1-2 3-2 4l7 4-3 2v1c3 4 14 4 12 5s-5 1-3 3a39 39 0 008 6c3 1 3 3 3 4l3 1c2 1 4 2 3 3l-6 1-3 1-4 1h-5l-11-2 10 2 4 1 5 1 3 2 1 1c1 0 3 1 1 2l-3 1h-8l-1 1-3-1-3 1h-7c0 1 3 2-1 1-4 0-2 0 2 1l5 1 5 2 5 1 3 2c1 0 1-1 2 1v3h-6l-4-1v1c2 1 0 2-1 2l-3 1-3 1-3 2-4 1h-3l-4 1h-1s3 10 11 19c7 10 25 29 43 31 19 2 32 1 42-5 10-5 23-14 32-29l9-16-3-1c-1 1-1-2-3-2s-2 1-5 0l-4-2-6-2-6-1-6-2-5-1-3-1c-1-1-3-2-1-4l5-3 4-2 5-1-4-1-5 1h-13l-7-1h-7c-4 0-4-1-6-2l-4-1c-1-1-2-1-1-2l6-4a10 10 0 013-1 34 34 0 01-2 0h-4l-7-1-8-2c-5 0-3 0-5-2l-4-3a5 5 0 00-3-2c-3-1-7-4-6-5 0-1 2-1 0-2-1-2-11-3-13-4v-1l3-1c1-1 0-1-2-2l-7-4c-1-1 2-3 5-5 4-1 12-8 13-10l-10 8"/><path d="M684 463a121 121 0 01-6 6 66 66 0 01-5 3l-5 3-2 2 2 2 6 3c3 2-2 2-2 4 4 1 9 1 13 3l1 2-2 1a1 1 0 000 1l2 2a19 19 0 005 2l3 3 4 3 1 1h3l5 1 3 1 6 1h8l4-1 4-1h2v-1l-4 2-7 1-5 3-2 2-1 1 2 1 4 2 7 1 6 1h23a14 14 0 014 0l-8 2-2 2-4 3c-1 3 7 5 9 5l7 2 6 1 4 1 3 1 3 2h3l3 1 2 2h3l-3 6-11 17a78 78 0 01-15 14 99 99 0 01-14 9c-5 3-11 4-17 4h-21c-7-1-13-3-19-6-10-6-19-15-26-24a70 70 0 01-11-20h1l8-2 4-1a13 13 0 013-1l6-2 1-1c0-1-2-1-1-2l2 1h9l-1-3-1-1-1-1h-1l-3-1h-1a13 13 0 01-5-2l-4-1-3-1-5-1h4c-1-1 2-1 2-1h3l4-1 4 1v-1h10l1-1c2-1 0-2-1-2l-1-1a10 10 0 00-2-1l-5-2-15-3 5 1 8 1h6l3-1 4-1 3-2-4-2-3-4-4-2a43 43 0 01-4-3l-2-3 3-2v-1l-6-1c-2-1-4-1-5-3-2-1 2-1 2-3h-1l-2-2-3-2h-1c-1-1 0-2 1-3l3-2 4-2 7-4 5-5-8 6a22 22 0 01-4 3l-3 2-4 2c-1 0-2 2-1 3l2 1 3 2 2 1-3 2v1l1 1c2 2 5 2 7 3h2l2 1-2 1-1 1v1l3 3 4 3 4 2 1 2a6 6 0 002 2l2 1v1l-5 1-2 1-4 1-4-1h-3l-10-1 11 3 8 2 4 2 1 1-1 1v1h-10l-1 1-3-1-4 1h-4l-2 1h-3l6 2 6 1 4 2h2l3 1 1 1 2 1v2c1 1 0 1-1 1h-3l-3-1-3 1 1 1-1 1-5 1-3 1-4 2-5 1-5 1c3 10 9 18 16 26 8 9 19 18 31 22a41 41 0 009 2l12 1c6 0 12 0 18-2 6-1 10-4 15-7a98 98 0 0015-11 69 69 0 0010-11l7-13 4-6v-1l-3-1-2-1-3-1a5 5 0 01-3-1l-3-1h-1l-2-1-5-2-8-1-8-2-3-1-1-1c-1-1 0-2 1-3l6-4 4-1h2l2-1-3-1-7 1h-17l-6-1-8-1-3-2h-2c-1-1-3-1-1-2l5-4 3-1 4-1 4-1h2v-1l-2 1-3 1-4 1h-9l-6-1-3-1-5-1h-3l-1-2-3-2-4-3a23 23 0 01-4-2l-2-1a5 5 0 010-1v-1c3-3-5-5-7-5l-5-1a23 23 0 01-1 0l1-1 2-2c1-1-2-1-3-2l-6-3c-1-2 5-5 6-5l4-3 8-6v-1m-41 5l-3 2v1l3-3m1 1l-2 2v1l2-2v-1"/><g fill="#4f91c5"><path d="M703 507h5-5m1 2l2-1h-2v1m-2-3h3-3m-7 4l-6-1v1h6m-4 0h-4 4m-3 1h-4 4m4 56h-4l-4-1v1h8m-18-31h7-7m-18 5h2l3 1 6-1h-6l-3-1-2 1m2 2h7-7m21-9h6-6m7-2h3-3m-23 18h8-8m2 2h6v-1a77 77 0 00-6 1m6-6c2-1 4 0 5-2-1 2-3 1-5 1v1m9 9l6-1-6 1m-1-5h4l4 1-4-1h-4m1 15h6c2 0 3 1 5-1-2 2-3 1-5 1a8 8 0 00-6 0m19-5l6-1 3-1h3-3l-3 1a11 11 0 01-6 0v1m14-1l6-1h4c1 0 0 0 0 0h-10v1m14-1c4-1 6 2 9 2 1 0 1 0 0 0-3 0-5-3-9-2m13 1h5l4-1-4 1h-5m11 1l8-1v-1c-3 1-5 0-8 2m-18 9l4-1 4-1-4 1h-4v1m2 2l6-2-6 2m24-6h7-7m1 3a6 6 0 012-1h3-5v1m5-6l2-1-2 1m-63 4l4-1 4-1v-1c-1 2-2 2-4 2l-4 1c-1 0 0 0 0 0m1 2c2-2 5-1 7-1v-1l-7 1v1m-3-6c3-1 7 2 9-1-2 3-6-1-9 1m10 13h3l6 1a1 1 0 000-1h-9m0 2c2-1 5 1 8 1-3 0-6-3-8-1m-15-43c2-2 5 0 8-1h-8v1m1 1h5v-1l-5 1m-13 13l6-1-6 1m74 4c1-2 4-2 5-2s1 0 0 0l-5 1v1m-6 4c2-2 5 0 8-1v-1c-3 1-6-1-8 2-1 0 0 0 0 0m-60 4c2-2 4-1 6-2-2 0-4 0-6 2m85-21h4l4-1h-4l-4 1m-2 3l3-1a5 5 0 002 0v-1a5 5 0 01-1 1h-4v1m-3-5c1-1 4 1 5-1h-5v1m7 6h3l2-1h-2l-3 1m-14-7c2-2 5 1 7 0-2 1-5-2-7 0m-3-1l3-1 3-1s-1 0 0 0a5 5 0 01-3 1l-3 1m-51-22h5-5m2 2l3-1h-3v1m36 47h3v-1h-3v1m-64-42a7 7 0 00-4 0h-2v1l2-1h4m-1 1h-7l7 1v-1"/><path d="M681 523l-4-2h-4l4 1 4 1m-6 25c2-2 5-1 7-1v-1c-2 1-5-1-7 1v1m1 1l2-1 2 1v-1h-2l-2 1m1 3h2-2m1-8h4-4m-6 0h5v-1l-2 1-3-1v1m15 14l5-1c-2 0-4-1-5 1m28 2h5v-1l-5 1m12 0h6c-2 1-4-1-6-1v1m15 0h6s-1 0 0 0h-6m10 1h3l4-1h-4l-3 1m-48-1h3l4-1h-4l-3 1m8 11c1-2 4 0 6-1v-1c-2 2-5 0-6 2-1 0 0 0 0 0m2 1l6-1v-1c-1 2-4 1-6 1v1m16 7c2-2 3-2 5-1h6l-6-1c-2 0-3 0-5 2"/><path d="M731 579h4v-1l-4 1m-35-22l4-1-4 1m6 0l4-1v-1c-1 1-3 0-4 2m11-1h-2l-3 1 3-1h2m4 1a10 10 0 014-1l3 1-3-1a10 10 0 00-4 0v1m13 0l4-1-4 1m8 0c2-3 5 0 8-1-3 1-6-2-8 0v1m-53 0l4-2-4 1v1m41 0c1-2 3-2 4-2-1 0-3 0-4 2m22-1l3-1-3 1c-1 0 0 0 0 0m5-2l3-1-3 1m0-3l3-1-3 1m-72 1h4v-1l-4 1"/></g><path fill="#fff" d="M634 454s9-1 8 1c0 2 1 2 3 2s10-1 10 0c1 1 8-1 10-1l6-1h4v3s3 3 5 3l3 1c1 1 0 2 2 2l5-1 3-2a5 5 0 015-1l4 1 5 1c3 2 6 2 9 2h5l6-1 4 1h6l4-2 2-1 5 3 8 1h5l7 2 8-1-2-1-6-2-10-4c-7-1-6-3-8-4h-5c-2 0-1-2-7-6l-8-5-10-7c-2-3-7-2-9-2-5 0-7-5-12-4l-10-4c-5-1-10 3-13 5-4 3-13 7-17 11-3 3-12 8-17 9l-8 2"/><path d="M691 438l-2 1c-1 0 0 0 0 0l2-1m31 5l-7 5 7-5m0-4a15 15 0 01-5 5 15 15 0 005-4v-1m-2-1a7 7 0 01-3 1v1l3-2m0 1l-4 4 4-3v-1m1 7c-1 2-2 4-4 4v1l4-5m-1 4l-2 2v1l2-3m0 3l3 3v-1l-3-3v1m3 5l1 2v-1l-1-1m-35-16l-5 4c2 0 4-2 5-3v-1m-2 4l-8 4v1l8-4v-1m-4 4l-5 5c2 0 4-2 5-4v-1m-12 2l-4 2v1l4-2v-1m-3-1l-1 1h1v-1m19 4l-2 1 2-1m24 1l-3 1v1l3-2m6-1l-1 1v1l1-2"/><g fill="#007638"><path d="M658 515l1 3a4 4 0 01-1-3s0-1 0 0m0 3l-1-2-1-1c0 2 1 2 2 3m-2-1a11 11 0 01-2-6l-1 1 3 6v-1m5 1l-1-1v1m2 0l-1-1v1h1m-10-1l-1-5c0-1 0 0 0 0l1 5m2-14l-1 3 1-3c0-1 0-1 0 0m-2 3v-1 1m2 0l1-2-1 2m9-2v2c0 1 0 1 0 0v-3 1m-8 3l1-4v1l-1 2v1m7-1v-1 1m-4-4v4s0 1 0 0v-4m5 4v-1 1m10 2l1-3-1 2v1m-15-2l2-4-2 4s1 0 0 0m-2 0c2 0 1-3 1-4 0 1 1 3-1 4m4-2l-1 2 1-2m3 3l1-1v-1a1 1 0 000 1h-1v1m-2 0a6 6 0 001-4v-1a6 6 0 01-1 4v1m-10-1v-1 1m3 11l-1-4 1 5v-1m-3 0a8 8 0 01-1-2v1l1 1m12 0v1-1a5 5 0 010-1m9 11l1 1-1-2v1m0 2l-1-2 1 2v-1m53-21l2-3-2 3m2 0l1-7v1l-1 5v1m50 6v-2 2m5 0v-1 1m-4 1a14 14 0 001-5l-1 4v1m3-1v-3 3c0 1 0 1 0 0m-2 0a24 24 0 002-6l-2 6m-3 0v-2 2m2 1l1-6-1 5v1m-1 0v-3 3m2-1v-3 3c0 1 0 1 0 0m-53-6a7 7 0 002-4 6 6 0 01-2 3v1m-2 0l1-1v-1l-1 2m5-1v-2 2m2-1l1-4s0-1 0 0l-1 4m2-1v-2 2c0 1 0 1 0 0m1 0a20 20 0 001-5l-1 4v1m2-1l1-3a7 7 0 01-1 3m2 1l1-3v-1a7 7 0 01-1 3v1m3-1l2-3v-1a7 7 0 01-2 3v1m3 0l1-4s0-1 0 0l-1 3v1m3-1l1-3s0-1 0 0l-1 3c-1 0 0 0 0 0m-4 1v-2l-1 2h1c1 0 0 0 0 0m-6 1v-2 2m-3 2l1-3-1 2v1m-1 0v-3 3"/><path d="M731 507v-2 2m-2 0l2-4v-1l-2 5m10-3l1-3s0-1 0 0a9 9 0 01-1 3m2 0v-1a1 1 0 000-1 5 5 0 010 1v1m3-1v-4c0-1 0 0 0 0v4c-1 0 0 0 0 0m2 0a12 12 0 001-5l-1 4v1m-23 1l-1 3v-1l1-1v-1m0 3v-2 2m9-2v-1 1m3 0v-3 3m5-1a10 10 0 001-4 10 10 0 01-1 3v1m14 14l2-4-2 3v1m4-1a6 6 0 001-3s0-1 0 0a6 6 0 01-1 3c-1 0 0 0 0 0m2 0a6 6 0 001-5v1c1 1 0 2-1 3v1m3-1v-5 5m-7-1v2l1-1-1-1m3 2v-2 2m3-1v-2 2m-6 1v-2 2m-3 1v-2 2m8-6v3-3s0-1 0 0m-3 2a9 9 0 01-1-1 11 11 0 001 2v-1m2 1v-3 3m-2-1v-1 1m5 0v-1h-1l1 1m-4 3l1-2-1 1v1m-2-3l-1-1 1 1m30 12l2-6-2 5v1m1-1l1-1v-1l-1 2m-2 1l1-2-1 1v1m3-1a17 17 0 001-4l-1 3v1m1 0a10 10 0 001-6 9 9 0 01-1 6m-9-12v-2 2"/><path d="M791 525l1-5v-1l-1 5v1m-19 0v1-1m-53-20l2-4-2 3v1m52 21v-1 1m2 0v-2 2c0 1 0 1 0 0m-54-25l-1 3 1-3s0-1 0 0m4 7a15 15 0 001-6 14 14 0 01-1 5v1m-6-4l1-1-1 1m5 3v-1h-1v1h1m48-12v-1 1m16 1v-2a8 8 0 000 2m-8 0a22 22 0 001-6l-1 5v1m-2 0v-2 2m6 0v-2 2m-8-1l1-3v-1l-1 4c0 1 0 1 0 0m6 1l1-3v-1l-1 3v1m-8 0v-3 3m5 0v-2 2m-2 0l1-4v-1l-1 4v1m-2-1l-1-1 1 1c0 1 0 0 0 0m6 1v-1 1m5-2l1 1v1l-1-3v1m-3 2v-2a2 2 0 010 2m2 0v-4 4m-5 0l1-4a27 27 0 00-1 3v1m-5-1v-2 2c0 1 0 1 0 0m-2 1v-2 2m12-1v-2 2c0 1 0 1 0 0m3 1v-2 2m-11 0v-5s0-1 0 0v5m2 0v-3 2m3 1v-2c0-1 0-1 0 0v2m2-2l1 2s0 1 0 0l-1-3v1m-11 1v-1 1m16 0a1 1 0 01-1 0s0-1 0 0l1 1v-1m-11 19v-2 1a1 1 0 000 1m4-1v-2c0-1 0-1 0 0v2m9 10v2-2m-16 2v1-1m-1-1v3-3m-10-9l1-2v-1a5 5 0 01-1 3m1 3a2 2 0 001-2l-1 2m8 9a8 8 0 000-2v2m-9-11v2l1-1-1-2v1m-1 2v-3 3m-5-1h1v-1l-1 1m8-4l-1 3v1a5 5 0 001-4m-7-1v2c0 1 0 1 0 0v-2m3 5a5 5 0 001-3 5 5 0 01-1 3c-1 0 0 0 0 0m-28-12v-1 1m-3 1v-2 2m-4 1v-2 2m-5 0v-1 1m1-3c-1 0-1 0 0 0m3 3l1-2-1 2m16-5l-1 2 1-2m3-1c0-1 0 0 0 0m2 2a2 2 0 000-2v2m3-1s0-1 0 0v-1 1m-28-11v-2 2m8-1v-3 3m-2-2v-1 2-1m-3-2l-1 3 1-3m4 3v-2 1c-1 0 0 0 0 0v1m-6 1v-1a5 5 0 000 1m2-1v-1 1m-2 0v-1 2a1 1 0 000-1m6 1v-2 2m-79 0v-5 5m-5 1c-1-3-2-5-1-8 0 0-1 0 0 0-1 3 0 6 1 8m4-1v-1 1m2 1a7 7 0 000-2v1a1 1 0 000 1m-4-1l-1-3a9 9 0 001 4v-1m3 0l-1-1 1 2v-1m-2 0v-4l-1 5v-1"/><path d="M643 489c-1-1 0-3 1-3v-1c-2 1-2 3-1 5v-1m7 1a1 1 0 010-1h-1l1 1m-4-3l-1 2h1v-2m-2 3v-1 1m2 0a2 2 0 010-1 3 3 0 000 2v-1m3 0v1-1m-7 1v-4c0-1 0-1 0 0v4"/></g><path fill="#999b9e" d="M693 473l-1 1v1l1-1v-1m-6-3a10 10 0 00-3 3c1-1 1-2 3-2v-1"/><g fill="none" stroke="#000"><path fill="#949699" d="M790 420l4 15c-12-14-41-24-75-24-33 0-62 9-75 23a120 120 0 0110-24c15-10 39-16 65-16 27 0 51 6 65 16l6 10z" stroke="none"/><g fill="#fd0" stroke-width="0" transform="matrix(1.14637 0 0 1.17117 33 82)" stroke="none"><path d="M597 284l2 8 2-8m-8-1l-1 8s5-5 5-7m-7-5l-4 7 7-3"/><path d="M589 276l-7 4h9m-1-8l-8 1 7 3m2-7l-8-2 6 5m5-6l-7-4 4 7m7-4l-5-7 1 8"/><path d="M601 265l-2-8-2 8m8 1l1-8-5 7m7 4l4-7-7 4"/><path d="M609 273l7-5-9 1"/><path d="M609 276l8-2-8-2"/><path d="M608 279l8 1-7-5m-4 7l8 4-5-7m-7 5l6 6-2-8"/><ellipse cx="599" cy="274" rx="11" ry="10"/></g><path fill="#000" d="M716 400l-1 1-1-1 1-1 1 1" stroke="none"/><path d="M593 272c1-2 2-2 4 0" transform="matrix(1.14637 0 0 1.17117 33 82)"/><path fill="#000" d="M726 400l-1 1-1-1 1-1 1 1" stroke="none"/><path d="M601 272c1-2 3-2 4 0m-8 3l2 1 2-1m-3 6h2m-42-2l-1-2s-3 0-5 3c0 0-2-3-5-1v3s2-3 5-1c0 0-2 4 1 4s1-4 0-4 1-3 5-2zm-5 4v1l-1-1v-1l1 1zm22-11l-1-1v1l-1 1s-2-1-4 1l-1-1s-2 0-1 1l2 1s2 5 3 4c2 0 2-5 2-5s3-1 1-2zm-3 6l-2-3 3-1c-1 0 0 0 0 0l-1 4z" transform="matrix(1.14637 0 0 1.17117 33 82)"/><path stroke-width="2" d="M626 275v-1a2 2 0 000-1 4 4 0 00-1-1l-1 1 1 1 1 1 4 1 2 1a2 2 0 002 0v-1l-2-1-2 1v4l1 1v-3h-1l-4-1a4 4 0 00-2-1l-1 1v1h2l1-1a6 6 0 000-2z" transform="matrix(1.14637 0 0 1.17117 33 82)"/><path d="M646 283s-1-1-2 0c0 0-4 0-1-5 0 0-3 1-2 4 0 0 0 3 3 4 0 0 3 1 3-2l-1-1zm-1 2v-1c0-1 0 0 0 0h1l-1 1z" transform="matrix(1.14637 0 0 1.17117 33 82)"/><path d="M644 282s2 0 2-2c0 0 4 0 3 6v-5l-4-3s-3 0-2 2l1 2zm1-3v1a1 1 0 01-1 0 1 1 0 011-1z" transform="matrix(1.14637 0 0 1.17117 33 82)"/><path fill="#fd0" d="M672 409l-1-2s-3 0-5 3c0 0-2-3-6-1v3s3-4 5-1c0 0-1 5 2 5s1-5 1-5h-1s2-3 5-2m-5 4v1l-1-1v-1l1 1m25-13h-1v1h-1l-4 2-2-1c0-1-2 0-1 1l2 1s3 6 4 5c2 0 2-6 2-6s0-1 0 0c0 0 3-2 1-3m-3 7l-2-3c1-2 2-1 3-1-1-1 0 0 0 0l-1 4" stroke="none"/><path stroke="#fd0" d="M626 275v-1a2 2 0 000-1 4 4 0 00-1-1l-1 1 1 1 1 1 4 1 2 1a2 2 0 002 0v-1l-2-1-2 1v4l1 1v-3h-1l-4-1a4 4 0 00-2-1l-1 1v1h2l1-1a6 6 0 000-2z" transform="matrix(1.14637 0 0 1.17117 33 82)"/><path fill="#fd0" d="M774 413s-2-1-3 1c0 0-4-1-1-7 0 0-3 2-2 5 0 0 0 4 4 5 0 0 3 1 3-2l-1-2m-1 3l-1-1 1-1v2" stroke="none"/><path fill="#fd0" d="M772 412s1 0 2-1c0 0 4-1 3 6 0 0 2-2 1-6 0 0-2-3-5-3 0 0-3 0-3 2l2 2m0-3l1 1-1 1-1-1 1-1" stroke="none"/></g><path fill="#fd0" d="M717 549v-3h23v3h-23"/><path fill="#5c5342" d="M744 544h7v2h-7z"/><path d="M754 545v3-3l-4-19 4 18 3-6m-16 8v2zm0 0h1v2h-1zm2 0v2zm1 0v2zm1 0v2zm1 0v2zm1 0v2zm1 0v2zm1 0v2zm1 0v2zm1 0h1v2h-1zm4 0v2zm1-4v6zm-4 1v5zm-10 5z"/><path d="M753 548l3-2h1v1h-2l-2 1m2 0l2-1 1-1v1h-1l-2 1m-4-5h1-1zm1-1v2l1-1-1-1m0 2v-2l1 1-1 1m-6-16l-9 1v-1h9"/><path d="M737 522l4 23-4-12v-1l3 10-3-18v-2z"/><path d="M739 546l-2-15 2 14m-1 0l-1-6 1 6c0 1 0 0 0 0m-1-11l-1 11 2-11m-1-6l-2 16v1l2-16"/><path d="M737 532l-12 9v-1l12-8"/><path fill="#858d8d" d="M745 543h6v1h-7z"/><path fill="#755338" d="M755 545l2-8-1 8"/><path fill="#fd0" d="M761 541l-2-3h-2v1h1l3 3-1 1 1-2z"/><path fill="#034ea2" d="M758 539h-1l1 1c1 1 2 3 3 2l-1 1 1-1-3-3"/><path fill="#ed1c24" d="M757 540l2 1 1 2 1-1c-1 1-2-1-3-2l-1-1v1"/><g fill="#a37853"><path d="M737 534l14-8v-1h-1l-13 8"/><path d="M738 529v16h-1v-29 12zm-2 17h20v-1h-19l-1 1"/></g><g stroke-width="0"><path fill="#616264" d="M728 542h2l-3 1-3 2v1h-4l2-2 3-2h3"/><path fill="#a3a5a8" d="M737 546a6 6 0 00-6-4c-5 0-5 2-7 4s9 0 13 0z"/><path d="M735 546v-1 1m0-1v-1 1m0-1h-1 1m-1 0v-1 1m-3-1v-1 1m-1 0h-1 1m-1 0h-1 1m-1 0h-1 1m-1 1c0-1 0 0 0 0m-1 1" fill="#797a7d"/><path fill="#939598" d="M730 542c-5 0-5 2-7 4h1c2-2 2-4 7-4a6 6 0 00-1 0z"/><g fill="#442c13"><path d="M717 546v-3h1v1h4l-1 2h-4m2-8v6-6zm2-1v7-7zm3 6v-7 7zm4-1l1-6-2 6z"/><path d="M724 536l-3 8 2-8zm0 0l1 6-1-6z"/></g><path fill="#a48b58" d="M729 536h-6l-4 2h5z"/><path fill="#a37853" d="M719 538l4-2h6-6l-4 1z"/><path d="M722 542l2-1 1 1-1-1-2 1v1h1l-1-1z"/><path fill="#939598" d="M721 546c2-2 2-4 7-4a6 6 0 00-1 0c-5 0-5 2-7 4h1z"/></g><path fill="#fd0" d="M744 549l12-1h-15"/><path fill="#696161" d="M708 531h-2v2l1 1 2-2 2 1 2-1h2l3-1 2 1h2l1-1h9l1-1 1-1h-4l-1 1-2-1h-7c-2-1-2 0-3 1h-4l-3 1h-2"/><path fill="#84848a" d="M708 549l-1 1-1-1v-14l1-1 1 1v14z"/><path fill="#453717" d="M717 547h-1l-1 1h-2v1h4v-2z"/><path fill="#6a5e46" d="M713 547h-3v2h3"/><path d="M711 549h-1v-2h1v2zm0 0v-2 2zm0 0v-2 2zm1 0v-2 2zm0 0v-2 2zm1 0v-2 2z" fill="#453717"/><path fill="#2f2311" d="M710 549v-3h-1v2-1h-1v2zm-9-2v1h-1v-1h-1v-3 5h4v-2h-1v1l-1-1v1z"/><path fill="#866d46" d="M704 548h-1v1h1z"/><path fill="#acacad" d="M708 540a2 2 0 00-1 0h-1 2"/><path fill="#866d46" d="M707 547h1l-1-1v1h-1v2h2v-2"/><path fill="#2f2311" d="M704 549h2v-1h-2"/><path fill="#453717" d="M698 549v-2h-4v-2h-1v2h-1v1-1h-1v1h-3v-3 3l-3-1 1 1 12 1"/><path fill="#895f33" d="M686 548l-6-2-9-3 1 1 12 4h2"/><path fill="#fff" d="M708 531h-2v2l1 1 2-2 2 1 2-1h2l3-1 2 1a5 5 0 002 0l1-1h9l1-1 1-1h-4l-1 1-2-1h-7c-2-1-2 0-3 1h-4l-3 1h-2"/><path fill="#ffe600" d="M741 548v1h-42l-12-1-8-1 1 2h1a51 51 0 0016 2h40l19-1v-2h-15z"/><path d="M683 552l-8-7 8 7z"/><path fill="#565759" d="M685 551h-1v-2 2h-1 2z"/><path d="M689 550v-1l1 1h-1m3 0v-1l1 1h-1m3 0l1-1v1h-1m4 0v-1 1m3 0v-1 1m23 0h1v1l-1-1m3 0h1l-1 1v-1m5 0h1c1 0 0 0 0 0h-1m3 0h1l-1 1v-1m-31 0v-1 1m3 0"/><path fill="#ed1c24" d="M683 551v1l4 3h68l-1-3-8 1h-59l-4-1a3 3 0 010-1z"/><path fill="#034ea2" d="M756 549v1l-19 1h-40a82 82 0 01-10 0l-6-2h-1a28 28 0 003 3l4 1h57s-2 0 0 0l10-1 1-1 1-2"/><path fill="#fd0" d="M717 549v-3h23v3h-23"/><path d="M730 555h1v-3h-1v3zm-1-3v3l1-3h-1m-2 2h1l1-2h-1l-1 2zm-1-1h1l1-1h-1l-1 1zm6 2l1-1-1-2h-1l1 3zm1-1h1l-1-2h-1l1 2zm1-1h1l-1-1h-1l1 1z" fill="#9b7e39"/><g fill="none" stroke-width="0"><path fill="#fff" d="M717 524h1v-1 1-1h3v-1h1-2a8 8 0 01-1-1h-8l-1-1-1 1h-2l-1 1h-3 2s1 0 0 0v1h4v1-1 1l1-1 1 1v-1 1l1-1 1 1h2l1-1 1 1"/><path d="M720 523l-2-1h1m1 0h-1m2 0h-2m0 1l-1-1m1 1l-2-1m1 1l-1-1m1 1l-1-1m1 1l-1-1m0 2l-1-2m0 1v-1m-1 2l1-1v-1m-1 2v-1m-1-1h1v-1h4"/><path d="M715 523v-1h1m-1 0l1 1v-1m0-1v1h1m-1-1l1 1c1 0 0 0 0 0"/><path d="M717 521v1m0-1v1h1"/><path d="M716 521h1m0 0h1v1m0-1v1m-2 0v1m0 0v-1m3 1h1m-3-2h1m-2 0h1m-1 0v1m3-1v1m-1-1h1v1-1m-2 1h1v1m-3-1h1m-1-1h1m-1 0h1m-2 2v1m-3-2h1m0 0v1m0-1v1m0-1l-1 1m2-2l-1 1m-1 0v-1c0 1 0 0 0 0a1 1 0 01-1 0h-2m4 0l-1 1m-5 0h1m-1 1l1-1h1m-1 1v-1h1m-1 1h1a3 3 0 001-1m-1 1h1v-1m-1 1h1l1-1m-1 1l1-1m-1 1l1-1m0 1v-1m0 1v-1m1 2l-1-1 1-1m0 2v-1m1 0h-1m0 0v-1"/><path d="M710 521v1m0-1v1h-1 1m-2-1l-1 1m2 0h-1m2-1h-1v1m0-1h1m-2 1l1-1m1 0a1 1 0 01-1 0m2 1h1m-2 0v1m0-2v1m1 0h-1m-1 0l-1 1m0-1l-1 1m0-2a1 1 0 000 1m-1 0v1m-1-1h1m1 0"/></g><path fill="#2f3b30" d="M712 544l1-1 2-2-1-2 2-3c0-2-2-3-2-3s3-1 3-3l-2-4h-1l1 2s2 1 1 2l-3 2v1l2 3-2 2v1l1 2-1 1-1 2"/><path fill="#2f3b30" d="M714 544l-1-1-2-2 1-2-1-3c0-2 2-3 2-3s-3-1-4-3l2-4h2l-2 2-1 2 3 2v1l-2 3 2 2v1l-1 2 1 1 2 2"/><path fill="#64472d" d="M713 521v27zm0-1v1zm-1-1h1a1 1 0 010 1 1 1 0 01-1-1"/><g fill="none" stroke="#000"><path d="M631 242c27 16 46 52 46 94 0 50-27 92-63 102" transform="matrix(1.14637 0 0 1.17117 33 82)"/><path d="M630 244c27 15 45 51 45 92 0 49-26 90-61 100m-32 2a60 60 0 0034 0" transform="matrix(1.14637 0 0 1.17117 33 82)"/><path d="M659 387c-10 23-28 39-48 44v-1a52 52 0 01-27 0l1 1c-19-5-35-20-45-41l1 1c10 20 25 35 44 40l-1-1a52 52 0 0027 0v1c20-5 37-21 47-43" transform="matrix(1.14637 0 0 1.17117 33 82)"/><path fill="#b1babf" d="M757 365s-17-11-39-11c-16 1-35 10-35 10-18 11-33 31-43 55a156 156 0 00-10 57c0 59 33 106 74 117 0 0 6 3 14 3l16-1c42-10 75-59 75-119 0-77-60-116-52-111m-23 222l-16 2a65 65 0 01-15-2c-36-10-66-55-66-109 0-19 4-38 10-54 9-22 23-39 40-49 0 0 17-10 31-11 20 0 35 12 35 12 28 17 47 56 47 101 0 55-28 101-66 110" stroke="none"/><g fill="#c69024" stroke="#080101" stroke-width="0"><path d="M683 366c-31 19-53 61-53 109 0 58 31 106 71 118l-1 2c-41-12-71-61-71-120 0-49 21-91 52-110l2 1zm73 0c31 19 52 61 52 110 0 57-30 106-70 117l1 2c40-12 71-61 71-119 0-50-21-92-52-111h-1l-2 1h1z" stroke="none"/><path d="M687 376c-28 17-48 56-48 101 0 53 27 97 64 108l1 2h-2c-37-11-65-56-65-110 0-45 20-84 48-102l2 1zm70-12l-5 12h-1c-4-3-17-10-33-10-13 0-27 8-30 10 1-3-6-12-6-12l1-1s19-11 35-11c22 0 39 12 39 12" stroke="none"/><path d="M752 376c28 17 47 56 47 101 0 53-27 97-64 108v2h2c37-12 64-56 64-110 0-45-19-84-48-102l-1-1-1 2h1z" stroke="none"/><path stroke-width="1" d="M759 365c-3 2-5 5-6 8v4l-3-2v-3c1-4 4-7 7-8l2 1zm-80 1c3 1 5 4 6 8v3l3-1v-3c-1-5-4-8-7-9a71 71 0 00-2 1zm60 229l-2-1c0-4-2-5-2-5h-1v-5a65 65 0 01-16 2 57 57 0 01-14-2h-1l1 5h-1l-2 4-1 2h1c0 4 3 4 5 4 0 4 3 4 4 3 0 3 1 3 3 5l1 1c2 2 3 7 5 7s3-5 5-7l1-1c2-2 3-2 3-5 2 1 4 1 5-3 2 0 5 0 5-4h1z"/><path stroke-width="1" d="M740 595l-4-8a12 12 0 010-3h-2l-1 4c1 4 3 7 6 8l1-1zm-42-1c2-1 4-4 4-7l1-3h2v4c-1 4-3 7-5 8l-2-2z"/></g><path d="M705 599c2-1 3-3 3-5v-1l-3 6s1 0 0 0m5 3c2-1 3-4 3-6 1 0 0 0 0 0 0 2-1 5-3 6m5 6a13 13 0 002-7s0-1 0 0a13 13 0 01-2 6v1m18-9l-3-6v1c0 2 1 4 3 5m-5 3c-2-1-3-4-3-6 0 2 1 5 3 6 0 0 1 0 0 0m-4 6a13 13 0 01-3-7c0 3 1 5 3 7" fill="#000" stroke="none"/></g><g fill="#452c25" stroke="#000"><path d="M662 305s-4 9-2 10c3 1 8 0 13-9s-3-6-3-6l-8 5zm26 6v14c1 1 7 1 8-9 0-9-2-10-2-10l-6 5"/><path d="M692 296s-5 14 0 17c4 3 8-14 8-18s-8 1-8 1zm3 18s1 13 3 14c3 0 7-4 7-7 0-4-4-12-4-12l-6 4"/><path d="M695 298s-4 14 0 17 8-14 8-18-8 1-8 1zm1-23s-7 7-7 11 10-5 11-7-4-4-4-4z"/><path d="M691 271s-5 10-4 13 7-2 9-6c3-3-5-7-5-7zm-12 2s-3 13-1 14c6 3 9-9 9-13 1-5-8-1-8-1z"/><path d="M687 273s-7 7-7 10c1 4 10-5 11-6 1-2-4-4-4-4zm-114 1s-13 7-15 10c-1 3 42-5 65-21l-9-6-41 17z"/><path d="M590 276s-26 10-7 10c0 0 35-8 55-22l-5-7-43 19z"/><path d="M626 251s-26 14-23 15c3 2 22-2 31-9l14-9-11-3-11 6zm-10 30s-9 8-8 9 20-2 35-14l-1-7-26 12"/><path d="M600 279s-9 8-7 8c2 1 9 6 43-16l4-2-6-9-34 19zm-7-26c-29 10-57 30-57 30l73-29m47 44s-7 9-5 10c1 2 8 5 17-7s-8-10-8-10l-4 7z"/><path d="M649 290s-10 11-8 13c2 1 13 1 21-10l-2-11-11 8z"/><path d="M640 284s-9 11-8 13 13 1 23-10 2-14 2-14l-17 11"/><path d="M624 285l-6 8s2 7 21-6l19-13-10-2-24 13zm-63-12l-12 6s-3 3 5 3c7 0 22-2 48-17a136 136 0 0020-13l-10-4-51 25z"/><path d="M540 281s18-2 25-6c0 0-1 2 8-2l52-25-2-3-61 25-22 11zm130 23s-2 14 0 15c3 0 9-4 11-13 2-8-10-7-10-7l-1 5"/><path d="M679 310s-1 11 1 12c1 1 5 1 9-7l2-5-9-6-3 6z"/><path d="M682 292s-8 17-3 17c4 0 10-13 11-16s-8-1-8-1z"/><path d="M681 292s-3 19 2 17c4-2 6-16 6-19s-8 2-8 2z"/><path d="M688 294s-5 14-1 17c5 3 8-14 9-18 0-4-8 1-8 1zm-18-5s-4 13-1 15c5 2 8-9 9-14 0-5-8-1-8-1zm-33-27s-12 10-10 11c1 2 15-1 21-5l8-7-10-6-9 7z"/><path d="M647 252s-7 6-6 8c2 1 15-4 18-7l2-5-14 4z"/><path d="M655 251s-10 9-8 12c3 3 17-11 19-13l-11 1z"/><path d="M650 247l-20 10s-17 11-16 13c2 1 16-3 25-8 10-5 21-13 21-13m-4 9s-22 20-19 21c4 2 16-3 26-12"/><path d="M660 264s-14 22-12 24c1 2 10-5 15-10l8-14"/><path d="M666 267s-13 25-12 27c2 2 10 0 14-10 5-9 5-16 5-16l-7-1z"/><path d="M674 268s-15 31-12 34 20-24 20-27c2-7-8-8-8-8m-32-20s-13 7-11 8c3 1 16-4 18-5 1-1-7-3-7-3z"/><path d="M644 249s-8 7-6 9c1 1 14-5 17-8 2-2-11-1-11-1zm18 1s-11 15-8 16c4 0 17-10 17-12s-9-4-9-4z"/><path d="M667 253s-12 16-9 17c4 1 4-2 4-2s10-8 11-10c0-2-6-5-6-5"/><path d="M671 257s-9 15-7 16c3 1 6-3 10-7 4-5-3-9-3-9z"/><path d="M673 264s-5 10-4 13c2 3 7-3 9-6 3-3-5-7-5-7zm2 27s-3 13 0 14c5 3 8-9 9-13 0-5-9-1-9-1z"/><path d="M700 273l-7-1s-7-6-12-7c-4 0 0 0 0 0s-1-10-2-11c0 0 0-10-7-11l-24-1c-2 0-10-4-26 0l-47 19c-2 0 35-8 45-13l14-2s-12 6-1 4c11-3 8 0 8 0s-1 2 5 1h6s7 2 13-1c0 0 3 10 6 11a339 339 0 0018 14l5 2 5-4"/><path d="M628 247s-35 12-34 16c1 3 37-10 42-14 6-3-8-2-8-2"/></g><g fill="#452c25" stroke="#000"><path d="M869 278l14 8s4 3-4 1c-7-2-23-7-53-26-13-9-17-9-17-9l18 1 42 25z" stroke="none"/><path d="M874 275l14 8s3 2-4 1c-8-2-23-7-53-27-14-8-3 8-3 8l3-11 43 21z" stroke="none"/><path d="M897 282s-17-3-23-7c0 0 2 2-7-2 0 0 4 7-19-8-23-16-15-8-15-8l7-2 38 16c4 1 19 11 19 11z" stroke="none"/><path d="M811 288l5 8s-1 8-21-7l-18-13 11-1 23 13m-25 4s9 12 7 13c-2 2-13 1-20-10-8-12 0-1 0-1v-18l13 16"/><path d="M795 287s9 11 8 13c-1 1-13 0-23-11-9-10-1-14-1-14l16 11m49-6s24 11 6 10c0 0-35-9-54-25l6-7 42 22"/><path d="M857 277s13 8 14 11c1 4-41-7-63-26l10-5 39 20zm-39 8s10 8 9 8c-1 1-21-2-36-13l2-7 26 11"/><path d="M835 284s9 7 7 7c-2 1-9 7-44-14l-4-2 5-9 36 17"/><path d="M799 265s11 10 10 11c-2 2-15-1-21-6-6-4-11-10-11-10l13-3 9 8z"/><path d="M785 248l21 12s17 12 15 13-15-3-25-8c-9-5-20-16-20-16m-4 57s4 10 2 11c-3 1-8-1-13-10s2-4 2-4l9 3z"/><path d="M779 300s6 9 4 11c-1 1-8 4-17-8-8-13 9-10 9-10l4 7z"/><path d="M762 257s19 38 18 40c-2 2-10 0-14-10-5-10-8-23-8-23l4-7zm23 9s16 14 13 16c-4 2-10-1-20-10-10-10 6-6 6-6"/><path d="M777 267s11 21 10 23-10-5-15-11c-4-5-7-13-7-13"/><path d="M765 258s8 16 6 17-6-3-9-8c-4-5 3-9 3-9zm0 33s3 13 0 14c-5 3-8-9-8-14s8 0 8 0zm-10 21s0 10-1 11c-1 0-5 1-9-8l-2-5 10-5 2 6"/><path d="M764 310s1 10-1 10c-2 1-8-3-10-9-2-7 10-5 10-5l2 3"/><path d="M754 277s11 24 9 28c-3 6-13-15-16-23-3-10 7-5 7-5z"/><path d="M749 281s15 27 9 27c-6 1-18-19-20-24-1-4 11-3 11-3z"/><path d="M748 287s8 25 3 23-10-22-11-26 8 3 8 3zm26-37s11 17 8 18c-4 0-17-11-17-13-1-2 9-5 9-5z"/><path d="M767 251s14 20 10 21c-4 0-5-3-5-3s-11-10-12-12c-1-3 7-6 7-6m27-1s13 7 11 8c-3 1-16-5-18-6l7-2zm-13 1s10 10 7 14c-2 3-16-13-18-15s12 1 12 1m-25 14s16 31 13 34-20-23-21-27c0-3 8-7 8-7"/><path d="M748 268s7 10 6 15c0 5-9-7-10-10-1-2 4-5 4-5zm13-5s5 10 4 13c-2 3-9-6-11-9-2-4 7-4 7-4zm-23 10s8 9 8 13c-1 5-12-7-13-9s5-4 5-4zm50-25s12 11 10 12c-2 2-17-9-20-11-2-3 10-1 10-1z"/><path d="M778 248l10 7s8 6 7 7c-2 2-15-4-17-7-3-3-3-6-3-6l3-1zm31 2s34 14 33 17c-2 4-36-11-42-15-5-4 8-2 8-2"/><path d="M810 254s26 15 23 16c-3 2-22-3-31-10l-14-10 12-3 10 7zm-64 18s5 10 3 13c-1 3-6-2-8-6-3-4 5-7 5-7zm1 23s4 14 0 17c-5 2-8-15-8-19 0-3 8 2 8 2z"/><path d="M727 271s14-7 17-6l5-2 5-4s-3-18 16-16l47 5c5 0 23 5 27 8l37 16c4 1 11 6 16 9 4 3 0 1 0 1s-44-24-60-27c-4-1 1 5 1 5l-15-6c-4-2-7-3-11-2l-10-2-18-1-4-1 1 2-6-1-2 2s-6 2-7 0l-5 12c-2 3-8 3-10 5l-4 4-7 4h-12l-2-4 1-1zm19 41l-1 13c0 1-7 1-7-8 0-10 2-10 2-10l6 4"/><path d="M743 296s4 15-1 17c-4 3-7-14-7-18s8 1 8 1z"/><path d="M739 298s4 15 0 17c-5 3-8-14-8-18s8 1 8 1z"/></g><path d="M742 357l2 4s3-2-1-6l-1 2zm-21-6h2v3l-1 1s-2-1-2 2c0 0-1-5 1-6zm11 11l1-2 2 1-1 5-1-1-1-3zm-16-6l-1-2 1-1h2s2 3 1 5l-2-2h-1zm-17 4s-2 4 1 6c0 0 0-3 2-4l-3-2zm-9-2h3l-1 4-2-4z" fill="#d9c0b9" stroke="#000"/><path fill="#bd8759" stroke="#000" d="M730 334v14l-3 2c-2 0-5-1-6 1l-1 1h3l-1 3 4-1 3-1 1 1 1 4c0 1-1 5 1 5l1-2c1 0 3 1 2 2v-5l-1-4 6 2 2 2 1-2h2l-4-4-5-3-2-3v-12h-4zm-27 20l-4 4-1 3s4-1 3 1c1 0 2 1 3-3s4-6 5-6l4 2c1 1 2 2 4 1 0 0-2-2-1-3h2s-1-3-3-3c-3-1-5-1-4-2l4-10-5-7-1 6v4l-4 8-11 5-3 3-1 2h3s1-2 2-1v1l2-2 1-1h3"/><path d="M708 346v-1m2-3a3 3 0 01-1-1m-1 3h1m-4 6h1m26-4l2 1m0-3h-2m2-2h-2m0 8h1m-1 2h1m-1 7h1m-21-9l-1 1m5-1l-2 2m-19 2l2 1m41-4l-1 1m3 0a1 1 0 000 1" fill="none" stroke="#000"/><path fill="#452c25" stroke="#000" d="M747 302l-2-6c-1-1 1-2 1-2l-4-6v-2l-4-5c-2-1 0-1 0-1s-2-6-6-8l-6-4-19-1c-9 0-13 6-13 6v8l1-1-2 9 2 10v4a38 38 0 003 12l1 1 2 4 1 3 3 4 2 4 1 6 2-3 1 4 2-1v4l5-6v-3l2-1 2-4 7 7 1 3 2-2 1 4 1-2 1 2 1 2 3-3c3-4 2-7 3-8l1 1 2-7c-1-2 1-1 1-1v-9l1-2-1-9 1-1z"/><path d="M735 282l3 3-3-3m1 6c3 2 3 4 3 7 0 0 0 1 0 0 0-3 0-6-3-8v1m5 2a12 12 0 011 7l-1-7m0 18v3s0 1 0 0v-3c0-1 0 0 0 0m-4 1c0-1 0 0 0 0m7-1l1 2a5 5 0 00-1-3v1m0-11l1 2v-1a13 13 0 00-1-2v1m-19-23l2 1a6 6 0 00-1-1l-3-2v1l2 1m-28 26l2 4v-1l-2-3m5-27h4v-1l-4 1m7 0a8 8 0 014-1h-4v1m-13 25v3-3m35-19l1 1-1-1m1 9a7 7 0 011 3v-1a7 7 0 00-1-3v1m-2-6l2 2v-1l-2-2v1m2 14a6 6 0 01-1 3v1l1-5v1m2 4v2a2 2 0 000 1 9 9 0 000-3m7 16a20 20 0 011 5l-1-6v1m-1 3a31 31 0 01-1 4v1l1-4v-1m-42-12l3 5-3-5m7 1l-2-2 2 2m-4 7l2 4v-1l-2-4v1m5 1a11 11 0 012 4v-1a11 11 0 00-2-3m0 6l1 2-1-3v1m4 1a11 11 0 011 2 14 14 0 00-1-3v1m-2 4l2 4v-1l-2-4v1m1-18l4 1v-1l-4-1v1m1 4l4 2-4-2m1 6l3 2v-1l-3-2v1m2 6l1 3a7 7 0 00-1-3m4-16v1a28 28 0 010-1m10-4l-1 2v1l1-2v-1m4 0l-1 3v1a17 17 0 001-4m0 6v3a15 15 0 000-3m3 6a5 5 0 01-1 3v1a6 6 0 001-4c1 0 0 0 0 0m-9-6l-1 2 1-1v-1m1 8a8 8 0 01-2 2l2-1v-1m-4 4c-1-1-2-3-1-5a6 6 0 001 6v-1m-4-4l-1 2v1l1-4v1m10 5l-1 3 1-2v-1m7 3a38 38 0 01-2 3l2-3m3 3a70 70 0 000 6s0 1 0 0a64 64 0 010-6m-41-26a11 11 0 000 5 9 9 0 010-5"/><path fill="#dcddde" d="M697 285s0-5 1-6c0 0 1-5 7-4 0 0 2-4 6-2h5l4 3h5c2 1 0 5 0 5s3 2 4 4l-1 4s2 1 1 3l-1 3s0 5-2 6c-1 2-2 2-3 2s-2 3-4 3l-3-3-3-2s-4 5-7 4a8 8 0 01-5-4l-1-4s-4-2-3-3l1-5-1-4z"/><g fill="#fff"><path d="M713 281c3-3 6-5 11-4v-1c-5-1-8 2-11 5-1 0 0 0 0 0m14 3c-3-2-8-2-11 0v1c3-3 8-2 11 0v-1m-12 5l3 12v1c0-5-1-9-3-14v1m2-1c4 1 8 4 10 7a16 16 0 00-10-7m-3 6l-1 7v1l1-8c0-1 0-1 0 0m6-1c2 2 4 5 4 8 0 1 0 0 0 0a13 13 0 00-4-8m-18 7l3-3v-1l-3 3v1m6-21l-4-5v1c1 1 3 2 4 5v-1m-4 0l-6-1 6 2v-1m6 0c1-2 0-4-1-6v1c1 1 2 2 1 4a2 2 0 000 1m8 2l6-1-6 1m4 5l7 4v-1l-7-4v1m-13 8c-1 3-1 7-4 8v1c4-1 3-5 4-8v-1"/><path d="M715 292l3 9v1c0-4-1-7-3-11v1m5 0a7 7 0 015 5c0 1 0 0 0 0 1 0 1 0 0 0 0-3-2-6-5-6v1m0 4v-1 1m-2-11c3 0 7-1 9 1v-1c-2-2-6-1-9-1v1m-6-6c1-3 3-5 5-5v-1c-2 0-4 2-5 5a4 4 0 000 1m-3 2l-2-8v1l2 7m-2 1c-1-3-2-4-5-5v1c2 1 4 2 5 5v-1m-4-1l-5-2v1l5 2v-1m9 12l-1 8v1c2-3 1-6 1-10v1"/><path d="M715 292l2 8s0 1 0 0l-2-9v1m2-4l7 4v-1c-2-3-4-3-7-4v1m-7-6a60 60 0 000-7 54 54 0 010 6v1m-5-1a23 23 0 01-5-4v1a23 23 0 005 4v-1m-1 13a7 7 0 00-2 4v1a7 7 0 012-4v-1m4 2c0 2-1 4-3 5v1a8 8 0 003-5v-1m9-14c1-3 5-3 7-4v-1c-2 1-6 1-7 4v1m-18 0a9 9 0 01-1-1l1 1m1 12l-2 1v1l2-1v-1m2 1a7 7 0 00-3 2v1a7 7 0 013-2v-1m4 1c-1 2-3 5-1 7v-1c-2-1 1-4 1-5v-1m3 0v8a40 40 0 000-8m8-3l4 7v-1l-4-7v1m1-2l8 7v-1l-8-7v1"/><path d="M720 287a7 7 0 013 1l2 1 3 2 1 4v-1l-1-3-2-2-3-2-3-1v1"/><path d="M727 293l1 3v-1l-1-3v1m-8-15l6-1v-1l-6 1v1m-9 1a9 9 0 012-2l1-4v-1l-1 3-2 3v1m-7 19a9 9 0 001 6v-1a6 6 0 01-1-4v-1m8 2l-1 3v1l1-4m0-6v1-1m-2 1c0 1 0 1 0 0v-1 1m-2-1a14 14 0 000 2v-2m-1 0a12 12 0 01-4 3v1a12 12 0 004-3v-1m-3 1l-2 1v1l2-1v-1m-4-1l-2 1h2v-1m12-1v2c0 1 0 0 0 0v-2m2 0v-1 1m1-1l1 2v-1a3 3 0 00-1-2v1m2 0l1 1v-2a3 3 0 00-1 0v1m1-2l2 1v-1a5 5 0 01-2-1v1m2-4h1v-1h-1v1m-1-3l1-1v-1l-1 1v1s0 1 0 0m-2-2l1-2v-1a4 4 0 00-1 3s0 1 0 0m-1-1l1-3v-1l-1 3v1"/><path d="M711 277l1 3c0 1 0 0 0 0v-3h-1m-5 1l1 1a8 8 0 010 1s1 0 0 0v1l1-2-2-2v1m-1 2a19 19 0 00-2-2v1a19 19 0 012 2v-1m4 1l-1-7v1l1 5v1m5-3v-1 1"/><path d="M708 281l1-4a6 6 0 000-1l-1 4a6 6 0 000 1m14 8a5 5 0 013 2c0 1 0 0 0 0v-1a5 5 0 00-3-2v1m-3 8v-1h-1l1 1m-4-2v5s0 1 0 0v-6 1m-1 1a104 104 0 000 2v-2m2 2v-1 1m-11 0a3 3 0 010 1v-2 1m5-3v-1 1m1 0h1s0 1 0 0l-1-2a5 5 0 000 1v1m2-2l1 2v-2l-1-1v1m3-1a40 40 0 002 3v-2l-2-3v2m2-3l2 2v-1a17 17 0 01-2-3v2m-18-8a7 7 0 00-1-1 5 5 0 000 1l1 1v-1m6-2v-2 2m4-4a6 6 0 010 3v1s0 1 0 0v-5 1m1 6a6 6 0 002-3v-1a6 6 0 01-2 2v2m3 0l1-1v-1a6 6 0 000-1l-1 1a5 5 0 000 1v1m4 0h-3v2h3v-2m-1 4l4 2v-1l-4-3v2"/><path d="M717 288l4 2v-1l-4-3v2m-8-6l1-2v-1l-1 1v2m-9-4l4 3 2 3v-2l-2-2-4-4v2m2 4a32 32 0 01-2-2v2l2 2v-2m-1 11l-1 2v2l1-3v-1m5 9l1-8c0-1 0 0 0 0l-1 6v2m3-7v3a5 5 0 000 1s0 1 0 0v-5 1m2 0a6 6 0 011 3v1c0-2 1-4-1-6v2"/><path d="M712 293a52 52 0 011 6 55 55 0 00-1-7v1m2 0a15 15 0 012 4h1v-1a15 15 0 00-3-5v2m5-4l-3-1v2l3 1v-2m-3-1h5v-1h-5v1m3-12l-2 5v2l2-5v-2m-6 2l1 4v-2l-1-4v2m-1 2a6 6 0 01-2-2v1l2 3v-1l-1-1m-2 1a16 16 0 01-5-2v1a16 16 0 005 3v-2"/></g><g stroke-width="0"><path fill="#d9c0b9" stroke="#000" stroke-width="1" d="M670 297s-3-5 6-7l3 2-6 3-3 2z"/><path fill="#5e3f17" d="M676 291c-2 1-4 1-4 3 0-2 2-2 4-3"/><path fill="#d9c0b9" stroke="#000" stroke-width="1" d="M671 296s4 1 6-1h3l-1-3-4 2-4 2z"/><path fill="#dba05f" stroke="#000" stroke-width="1" d="M711 281l-9 1a51 51 0 01-7 1l-5-1c-2-1-7-1-9 1l-4 3-3 3 2 3 4 3 6 2c6 0 8-3 16-2 5 0 13-3 15-5 1-2 2-5 1-7-2-3-6-2-7-2z"/><path d="M682 288v-1h1l2-1 2-1-3 1h2s1 0 0 0h-2l-2 2"/><path fill="none" d="M682 288l1-2 3-1h1m-3 1l-1 1-1 1m2-2h3m-3 0h2"/><path d="M686 287l-1 1-1 1h-2 1s2 0 3-2"/><path fill="none" d="M686 287l-1 1-2 1h-1m2 0l1-1 1-1m-2 2h-1m1 0h-1"/><path fill="#c6262c" stroke="#000" stroke-width="1" d="M688 282s0-2-2-3l-6-1h-2l-2 1-1 1-1 3 1 1c1 0 0 0 0 0s-4 1-3 3c1 3 2 2 2 2l2-1 3-3 4-2h2l3-1z"/><path d="M685 287l-1 2-1-1 1-1h1"/><path fill="#5e3f17" d="M709 293a5 5 0 002-1"/><path d="M675 285l1 1c0 1 0 1 0 0v-1h-1m3 1a3 3 0 00-1-2l1 2m2-2l-1-3v1l1 2m2-1l-1-2 1 2m-3-3c1-1 5-1 7 1v-1c-2-2-6-1-7 0-1 0 0 0 0 0" fill="#842116"/><path d="M680 295h2v-1h-2v1m1-8l1-1-1 1m2 3h1v-1l-1 1m2 0a3 3 0 001-2 3 3 0 01-1 1v1m-3-3l-1 1v1l1-2m1 8h4v-1l-4 1m7 0c2-1 3-2 4-5l-4 5m1-3a6 6 0 003-4 6 6 0 01-3 3v1m-1-8l3 1-3-2v1m26 4c1-2 1-4-1-6v1c1 1 2 3 1 4v1m-20-3c1 1 5 3 4 5 1-2-2-4-4-5m9 9a6 6 0 001-2h-1v2m-31-6v-2 2m20 6l1-2-1 2m3 0v-2 2m17-10l1 3a5 5 0 00-1-3m-1 2v3a7 7 0 000-4v1m-2 1" fill="#7a2e26"/></g><path fill="#dcddde" d="M695 275c-8 1-14-4-14-4-9-2-10-10-10-10-3-1-6-10-6-10-6 3-13 0-13 0s0-1-6 0c-6 2-5-1-5-1s3-2-8 0c-11 3 1-3 1-3l-14 2-12 3-9 2-28 12-23 9 31-16c16-7 34-14 43-16 11-4 21-2 27 0h23c7 1 7 11 7 11 2 1 2 11 2 11s-4 0 1 1c4 0 11 7 11 7l3-1 4-2 6-2h8l9 1 5 1h2c4-2 12-5 14-4l5-2 5-5s-3-18 16-16l47 5a180 180 0 0149 17l16 7a61 61 0 0116 10l-15-7-10-4-15-7c-15-7-15-7-20-7-4-1 3 5 3 5l-18-7c-4-2-7-3-11-3-4 1-7 0-10-1l-18-1-4-1 1 1-6-1-2 3s-7 1-7-1l-5 13c-2 3-9 2-11 4l-7 4h-5l-5 1-4-1a74 74 0 00-6-1l-15-1-6 2c-2 0-5 2-5 3"/><path fill="#452c25" d="M695 273l-1 2v1"/><path fill="#574f4c" d="M731 271l3 2a27 27 0 00-3-3v1"/></svg>