<svg xmlns="http://www.w3.org/2000/svg" width="36" height="36"><path d="M9.075 35.887l.66-.184a1.195 1.195 0 00.829-1.471L3.016 7.22a1.496 1.496 0 00-1.839-1.036l-.086.024a1.493 1.493 0 00-1.035 1.84l7.548 27.01a1.194 1.194 0 001.471.83zm26.581-18.876a28.586 28.586 0 01-6.579-4.526.587.587 0 01-.166-.6 84.819 84.819 0 002.17-11.24c.074-.63-.266-.816-.625-.383C23.42 8.677 11.246-1.278 4 6.371c.087.162.156.335.204.513l4.897 17.534c7.259-7.555 19.39 2.337 26.413-6.06.358-.432.426-1.223.142-1.347z" fill="#666"/></svg>