<svg xmlns="http://www.w3.org/2000/svg" viewBox="0 0 1200 600"><clipPath id="a"><path d="M0 0v150h700v150H600zm0 300v100h300V0h300z"/></clipPath><path fill="#002868" d="M0 0h1200v600H0z"/><path d="M0 0l600 300M0 300L600 0" stroke="#fff" stroke-width="60"/><path d="M0 0l600 300M0 300L600 0" stroke="#ce1126" stroke-width="40" clip-path="url(#a)"/><path d="M300 0v400M0 150h700" stroke="#fff" stroke-width="100"/><path d="M300 0v400M0 150h700" stroke="#ce1126" stroke-width="60"/><path d="M0 300h600V0h600v600H0z" fill="#68bfe5"/><g stroke-miterlimit="5"><path fill="#fff" d="M779 144v205c0 67 121 107 121 107s121-40 121-107V144z"/><path fill="#d21034" d="M883 216v92H779v34h104v108l17 6 17-6V342h104v-34H917v-92z"/><path fill="#d21034" d="M779 144h242v79H779z"/><g stroke-miterlimit="3"><g fill="#fff" stroke="#000"><ellipse cx="798" cy="192" rx="14" ry="11"/><ellipse cx="798" cy="187" rx="12" ry="6"/><ellipse cx="798" cy="199" rx="12" ry="6"/><ellipse cx="798" cy="192" rx="12" ry="6"/></g><path fill="#ffd100" stroke="#000" d="M1015 207l-2-5s-5-2-6-5c-1-8-3-11-7-12-5-1-7 1-7 1-2 2-8 2-11 2-4 0-4-2-4-2-2 0-3-2-3-2l-4-5c4 0 7-2 12-7 6-6 10-4 10-4-3 6 1 5 1 5 7-3 1-13-1-12l-3-1-3 2c2-11-4-14-4-14l-2 3c-2 7-7 6-14 3-7-4-24 3-30 5-5 2-15 6-24 1s-12-5-15-4c-4 1-10 3-12 2l-5-2-1-1c-2-4 1-6 1-6s-5 1-3 10v1l3 4s1 0 1 1c1 2 3 1 4-1 0 0-2 8 8 10l-1-2c1-1-1-2-1-3s-2-2 0-3 3-3 7 0 8 2 8 2-3-5-1-5c1 0 8 8 11 7 4 0 10-4 13-2 0 0 0-2 12-4s27-8 33-3c0 0 1 4 3 5 0 0 0 9-15 4l-6-1s-1-3-29 5l-3 1-8 2c-6 2-27 9-40 6l-5-1h1l-1-1c-11-1-9-6-9-6v2c2-3 0-8 0-8a6 6 0 00-1-1h1c6-5 12-5 12-5-4-5-11-3-11-3 0-5-3-11-3-11-7 1-11 7-11 7 0-6-8-9-8-9 3 3 1 11 1 11h1-1v2s-3 1-6 7l-1 4v-1s-4 4-12 0c0 0-10-6-14-6s-6 2-6 3c0 0-8-1-11 4 0 0-7 2-1 8 0 0 0 2 2 3 0 0 0-5 1-3l1 1 2 3 1-3 2 2 2-1 1 1 2-2c2 0 3-3 3-3l5-1c0 3 7 6 7 6h1l-1 1c3 2 9 1 9 1-3 1-2 6-2 6l-2 2c5 2 8 0 8 0v2l-3 8h1l-1 1s-8 2-12 7l-1-2-6-3h-4l-2-6-1-3-3 1-1 1h-2l-1 2v-1h-2l-1 1h-3v4c-3 2-1 5-1 5 1 9 17 5 18 6l5 1c2 0 3 4 5 4 2 1 0-3 10-5 9-2 12-6 12-6 3 0 4-4 4-5v2c0 3-2 4-2 4l8-2c3-1 3-4 3-4 3 9 8 10 8 10 2-4 1-5 1-5h3c0-2-2-3-3-4l4 3 2-1c0 2 2 3 2 3v-2c2 3 5 2 5 2a11 11 0 000-2c7 5 18-1 18-1 3 1 4-1 4-1 3 1 4-2 4-2 8 0 14-6 14-6 4 0 4-3 4-3s4 0 8-4c8-13 22-6 22-6h-8c-20 0-12 14-12 14h2c1 0 8 5 6 9h-1c-4 6-11 0-13-4-3-5-7-4-7-4s-11 2-7 11c0 2 2 5 6 7 2 3 10 4 15 3l16-7c1-3 5-2 8-6s-5-6-6-8c-2-3 0-2 0-2 7 3 7-8 7-8 1 6 7 8 7 8 3-3 1-11 1-11 8 16 13 13 13 13-4-3-2-6-2-6 4 16 21 2 21 2-1 2 0 3 2 5 1 1 3 2 2 5s-8 2-8 2-8 0-7 6c0 2 5 2 7 2h12c4-1 4-3 4-3 7-1 7-6 7-6z"/><path d="M792 179l1-1 2 1s-2-2-1-4l2-2-2 2a3 3 0 00-1 1l1 2h-1l-1 1zm212 36h-12l4-4h-1l-4 4c1 3 11 1 13 1zm-88 3c-1-2 0-4 2-7h-1c-2 3-3 5-1 7z"/><path d="M910 211c0 3 2 5 6 8v-1c-3-2-5-5-5-7 0-4 4-7 4-7h-1s-4 3-4 7zm78 1l-1 4h1l1-4 3-1v-1l-4 2zm-179-35l-2 3h-1l-2-1h-1a3 3 0 010-2c0-1 0-2 2-3v-1c-2 1-3 2-3 4a3 3 0 001 2h1l2 2h1c2-1 2-3 2-4 5 1 9-5 9-5s-4 6-9 5z"/><path d="M797 176l1 3 1 1 2-1h2l-1-1-1 1-2 1-1-1v-3c0-2 3-4 3-4l-4 4zm-6 31l1-2 3 1v-1l2 4v2c2-3-2-6-2-6h-3l-2 2zm15-8l-5 2v2l1 1 2 5h1l-3-5v-3l4-2 1 4h1l-2-4zm-8 2v2s0 6 3 7c-2-2-3-7-3-7l1-1h2v-1h-3zm-2 1l-1 3 1-3h2-2zm66-33l2 6-1 1v-1h-1l1 3c1 2 4 4 9 4h-1v1h2l1 1h4l-1 1h1l12 6c-1 1-5 4-13 3l-1-1 1 1 6 9c-2 0-8 0-11-2v1l4 8-5-1v-1 2l-2-2v-1l-2 1-3-2a8 8 0 00-1-1l-1 1h1l2 3h-2v1l-1 4c-1-1-5-2-8-9a6681 6681 0 01-8 2h-1v-3c0-2 1-3 2-3l-1-1s-9 4-14 2l2-7 1-2v-1l-1 1s-3 1-7-1l1-1v-1c0-1 0-4 2-5 0 0-5 0-8-2l4-2v-2h3v-3h-1v2h-3l-1-1 1 1 1 3c-3 0-5 2-5 2h-1l1 1 8 1-2 5-1 3c4 2 7 1 8 0v1l-3 9c4 2 11 0 14-2l-1 3a21 21 0 001 3c0 3-2 3-2 4l8-2 3-3c3 8 8 8 8 9h1v-1l1-4a440 440 0 002 0v-2l1 1 1-1 3 3v-2c2 2 5 2 5 2h1v-1l-4-7 10 1h1c-1-3-4-8-6-9 8 1 13-3 13-3v-1l-12-6h1l-1-1-6-1-1-2c-6 0-8-2-8-3h-1l1-1v-2l-1-6h-1z"/><path d="M837 168l-3 4h-8l2 4 5 1c0 1-3 4-3 8 0 0 5 1 6-1l2 6 1 2v2c1 0 4-3 6-7l1-1v1c0 1 1 4 5 5h1a7 7 0 010-1l1-4 1-2-1-1 4 2c1 3 5 1 6 1l-1-1h-2l-1-1-1-3v-2l2 1c1 2 3 2 3 2h1l-1-1s-2-1-1-3v-1l1-10-1 1v2l-1 7v1l1 3-2-1c0-2-2-2-3-1l1 2v3l1 1 2 1-4-1c-1-2-4-2-4-2v-1 2l-1 2-1 4v1c-3-2-4-4-4-5v-2l-3 2-4 6a7 7 0 000-1l-1-2c-2-2-2-6-2-7h-1c-1 3-6 2-6 2 0-4 4-8 4-8l1-1h-1c-3 1-5 0-6-1a5 5 0 01-2-2h8c3-2 3-5 3-5 3-7 6-8 6-8-1 0-3 1-6 8z"/><path d="M843 158l-2 3h1c12 2 19 9 19 9l1 1 2-3c-7-10-20-10-21-10zm1 1c1 0 13 0 19 9l-1 2c-2-2-8-8-20-9l2-2z"/><path d="M842 165l-3 5h1c-2 1-2 3-2 6v4c2 3 3 6 8 5 6-2 6-2 7-5l3-2c1 0 2 0 3-2l1-2c0-1 2-2 2-5h-1l-2 5-1 2-2 2c-1 0-2 0-3 2-2 2-2 3-7 4-5 2-6-1-7-4v-1c-2-4-1-8 1-9h1-1l2-5 4-3-4 3z"/><path d="M839 179h4l1 2 5 1v-1h-5l-1-3h-4l-1-4c0 1-1 3 1 5z"/><path d="M842 175l-1 1c0 2 2 2 3 3l3-1v-1c-2-3-5-2-5-2zm2 3l-2-2v-1s3-1 4 2l1 1h-3zm-2-3zm2 6v3-1l2-1-2-1zm0 0l1 1-1 1v-2zm-4-2v2l2-2h-2zm0 0h1l-1 1v-1z"/><path d="M839 178l1 4 2 2h3l1-1 1-1h-1l-1 1-3 1-1-2-2-4zm1-8l-2 2 1 1s0-2 2-3h2-3zm11 5s4 2 2 5c2-3-1-6-1-6l-1 1zm-9 0s0 2 2 3l-2-1v-2zm8 2l-1 1v-1h1zm0 1v1l-1-1h1c1 0 0 0 0 0zm-1 1h-1 1zm-7-7h-1 1zm-1 2zm5-9s3 2 0 6l2-3c0-3-2-4-2-3zm13 6l-4-2c0-1-2-1-3 1s-3 2-3 2l3-2c2-2 3-1 4 0l3 1z"/><path d="M859 171h-2c-1-1-2-2-3-1l-4 2s4-3 5-2c0 0 2 2 3 1h1z"/><path d="M856 172c-1-1-2 1-3 1l-2-2 2 2c2-1 2-2 3-1z"/><path d="M854 173c-2 0-2-2-2-2s1 2 3 1l-1 1z"/><path d="M854 171v1l-1-1h1zm-8-3v1l-1-1 1-1v1z"/><path d="M844 166s4 0 2 4v-4l-2-1v1z"/><path d="M844 168l2 2-2-2 1-2-1 2z"/><path d="M845 168l1 2v-1l-1-1 1-1-1-1v2zm5 3v3l-1 2v-4l1-1zm14 16c4 0 13 7 13 7h1c-1-1-9-7-13-8l-1 1zm4 9c0 4 4 6 4 6v-1s-3-2-3-5h-1zm-9 1c0 4 3 9 3 9l1-1s-4-4-4-8zm-12 0v3h-1v1l2-1-1-3z"/><path d="M792 179s0 2 2 4v-4h-2zm4 1l2 4v-1l1-3h-3zm3 0l2 2h2l-1-3-3 1zm7 1l-2 1h-1v-3s1-1 3 2zm-14 24v-4h2l1 4h-3zm9-4l1-3s3 0 3-2l1 3s-3 0-5 2zm-3 1l1-4h2v4s0-2-3 0zm-3 0l1-3h2v3s-2-1-3 2v-2z" fill="#fff"/></g><g fill="#00a651" stroke="#000"><path d="M840 260s8 7 6 14c0 0 5-11 0-14-6-4-6-1-6 0z"/><path fill="#964b36" d="M830 267s-2 3 0 5c0 0-2 4 0 7 0 0-2 3-1 6 0 0-2 6 1 8h5s2-4 0-8c0 0 2-3 0-8 0 0 1-2-1-5v-3s-3-4-4-2z"/><path d="M832 258s-9-18-16-19c-6-1-7-7-7-7s1 3 6 3c6 0 16 7 17 13s2 5 2 5l-2 5z"/><path d="M832 257s4-23 19-24c15 0 10 2 13-1 0 0-10 5-16 6s-11 13-11 15-3 7-5 5c-2-1 0-1 0-1z"/><path d="M836 265s3-9 9-6c0 0-4-9-13-1l4 7zm-11-9s4 20-3 26c0 0 0-10-4-16-5-6 4-13 7-10z"/><path d="M825 260s9 8 10 11c0 3 2-9-2-12s-9-4-9-4l1 5z"/><path fill="#964b36" d="M809 282s1 3 3 4c0 0 0 3 2 4v3s0 4 2 5l5-1s1-3-1-6l-2-4s1-4-2-5l-2-5-5 5z"/><path d="M813 277s-12-4-18 2c0 0 10 2 11 4s8-4 7-6z"/><path d="M810 285l-3-2c-1-1-10-3-12 6 0 0-3-9 2-10 5-2 9 1 13 6m-8-20l5 9 2-1-7-8zm-3-11s-3-10-6-8c-4 3-3 10-3 10s-7-7-3-13 12 0 12 11z"/><path fill="#964b36" d="M807 274l2 3h3c0-1-1-6-2-5l-3 2z"/><path d="M805 262s0-8 5-11c0 0 2 0 2-2 0 0-4 11-3 16v1"/><path d="M806 252s10-21 23-14c0 0-13 3-18 12l-5 7v-5z"/><path d="M801 260s-3-15-5-16c-2-2-5-4-9-1 0 0 7-6 14-1s5 13 5 13l-1 9-4-4"/><path d="M812 276s-13-23-21-6v6s-4-4-2-12 16-5 20 2 5 10 4 11l-1-1zm35 7s9-18 14-10c0 0 2 4-1 6 0 0-3-4-6 1-4 5-2 5-2 5s-4 1-5-2z"/><path d="M860 279s5 2 4 8c0 0 6-13-3-14 0 0 2 4-1 6zm1-13s12 3 12 9c0 0 2-10-5-13 0 0-8 1-7 4zm5-16c5-10 12 4 12 4s2-11-4-13c-7-2-11 22-11 22l-8 2s3-21 14-23h1"/><path d="M857 256s-7-14-12-16c-5-1 3-4 6-1s8 7 8 14l-2 3zm-7 21s2-10 7-13c6-3 11-2 11-2s-6 1-7 5c-2 3-4 3-4 3l-7 7z"/><path fill="#964b36" d="M847 283s-3 6-3 7c0 0-3 5-2 8 0 0 4 2 5 1 0 0 4-5 3-8 0 0 3-4 2-6 0 0-4 0-5-2z"/><path d="M830 272l4 1v-1h-4zm0 6v1s4 1 6-1h-6zm-1 7l-1 1s5 3 8-1h-1c-2 3-6 0-6 0zm-17 1s4-1 4-4l-4 4zm2 3v1s3 0 4-3c-1 2-4 2-4 2zm0 4c1 0 5 1 6-2h-1c-1 2-4 2-5 2zm30-3l4 2 2-1v-1l-2 1-3-1h-1z" fill="#000" stroke="none"/></g><g fill="#964b36" stroke-width="0"><path d="M961 304a2 2 0 00-1 1l1-1zm14-3v-1l-1-1h-1l-1-2a1 1 0 001 0l-1-1v-3l-1-2v-20l-5-2-1 11 1 11-1 6s-3 2-3 4l-2 2h3l-2 1a1 1 0 011 0l1 1v-1l1 1v-1h2l2-1 1-1 1 1h1l1-1 1-1v1h2v-1z"/><path d="M965 304h1v1h4l1-1h1v1l1-1h2l1-1 1 1h1l-1-1v-1h-1v-1h-1l-1-1-1 1v-1l-1-1v1h-1l-1 1h-2s0 1 0 0h-2v1l-1 1h-1v-2 1l-1 2 1 1 1-1m-3-4h-1l-1 1-1 1v1l-1 1h4v-1l1-1-1-1"/></g><g stroke="#000"><path d="M974 271c0 2-1 3-2 3s-2-1-2-3l2-2 2 2zm-7-3c0 2 0 3-2 3-1 0-2-1-2-3s1-2 2-2c2 0 2 1 2 2z"/><path d="M971 269c0 2-1 3-2 3l-2-3c0-2 1-2 2-2l2 2zm-3 2c0 2-1 3-3 3s-2-1-2-3l2-2 3 2z"/><path d="M971 273c0 2-1 3-2 3s-2-1-2-3 1-2 2-2l2 2z"/></g><path fill="#00a651" stroke="#000" d="M972 247s21-30 43 1l-2 6v-3l-2 1v-2h-2v-3l-2 2v-2l-3 3v-7l-3 6 1-4-2 2v-2l-1 2-2-1v1l-2-2-1 3-2-3v2l-1-3-1 3-4-2 1 3-2-2v2l-2-1v2l-3-1v2l-4-1 2 2-1 1s23-8 24 21l-4 2 1-3h-1l-3-3 1-4-1 1-1-2-1-2-1 1-1-3-1 2v-4l-2 3v-2l-1 1-1-2-1 1-1-1v1l-2-1v1l-2-1v1l-3-2-1 1-1-1-1 1s21 12 14 31l-1 3v-7l-2 4 1-8-1 2v-3l-2 3-1-4v1l-2-5v3l-2-6-1 2-1-4-1 2-2-4v2l-2-3v1l-5-1c-1-1-5 5-5 5l1-4-1 3v-3l-3 8-1-5-1 4v-1l-1 2-1-1v2h-1v3l-2-2v5l-1-2v2l-1-1-1 4-1-2v6l-1-1v4s-6-11 1-21c7-11 17-14 17-14l-1-1v-1l-6 3v-1l-1 1-1-2-1 2v-1l-1 2-1-3-1 4-1-3-2 5v-4l-1 5-1-5-1 5v-4l-2 4-1-4-1 4-1-3-1 5-1-5-1 7-2-3v5l-1-3 1 7-1-3v4l-2-4v5l-1-2-1 2s-1-19 13-23c13-4 22 1 22 1l-5-4v-2h-2l1-1h-4l1-1h-3v-1l-2 2 1-2-2 2-1-3-1 2-1-2-6 6 2-6-1 1v-1l-2 2v-1l-1 2-1-3-1 3-1-3-1 4-1-2-1 2-2-1v1l-3-1 1 2-2-2-1 3-1-1-1 4-1-4-1 3s12-30 42-11l4 6c0 2 0 0 0 0l-1-21 1 9 1-3v5l3-7s-4 11-2 15c0 0 1-13 6-14l-5 9h2l-1 2h1l-1 3-1 1 1 2 1-1z"/><path d="M969 259s2-2 5 1l1-1c-4-3-6 0-6 0zm-1-10h1l-1 1h2a9104 9104 0 01-2 3v1l4-6-2 1 1-2-2 1v-3h-1v4z"/><path d="M964 249l1 2-2-1 5 8v-1l-1 3h1l2-5h-1l-1 2-3-5h1l-1-2 2 1v-3h-1v1l-3-1 1 1zm-3 10h3l1 1h1l-1-2h-4zm3 8v-5h1v5zm6-1l-1-3 1-1 1 4zm2 2v-3l1 3z"/><path d="M811 365s-3-2-5 0c-1 1-1 3-3 2 0 0 6 2 7 0l1-2m1 2s-2 3-1 4l2 4s2-5 1-7l-2-1m-4-9s-4 1-4 3v4s5-3 5-5l-1-2m2 1s2-3 1-5-3-1-3-3v7l2 1m-3-1s0-4-2-5l-4-1s1 5 3 6h2m7 6s4-1 4 3v3l-4-5v-1z" stroke="#000" fill="#00a651"/><path d="M812 367v3h1v-3l1-8h-1l-1 8z"/><path d="M808 366c2 1 5-1 5-1v-1l-5 2zm5-5l-9-4 1-1 9 5z"/><path d="M807 360h-1l2-2h1zm3-1l-2-4h1l2 4zm3 5v1c2 0 3 2 3 2h1c0-1-1-3-4-3z"/><path d="M854 366c3-1 4-7 4-7-1 2-6 4-6 4 4-3 9-14 9-14-1 4-12 7-19 11s-3 15-3 15c-2-1-6-7-7-12s-3-7-7-8c-5-1-8 5-8 5l-7 3 7 1s5 1 5 5-4 20 3 29c5 7 24 10 24 10" stroke="#000" fill="#FFF"/><path d="M840 379s2-8 7-7c4 0 6-6 9-6 2-1 17-5 18-12 0 0-1 11-14 17l12-6s-5 10-17 12c0 0 11-1 13-4 0 0-5 7-13 7 0 0 7 4 9 1 0 0-4 5-9 5h2s-5 6-10 2c-6-4-6 1-6 1" stroke="#000" fill="#FFF"/><path d="M851 389s6 11 7 16c0 0 12 13 16 14 0 0-2 1-6-3l4 4-3-1 2 2h-1l-2-1v1l-3-1v2l-1-1-1 1h-5l-2 3-8-19" stroke="#000" fill="#FFF"/><path d="M859 423l-10-18 1-1 10 18zm8-1l-17-19 1-1 17 19zm4-2l-19-18h1l19 17zm-48-59s-1-2-2-2l-2 1h2c1-1 2 0 2 1zm-6-1v4l1-3-1-1zm6 1h-3a230 230 0 003 0z"/><path d="M823 361l-2-1s1-1 2 1zm0 0l-3-1 3 1zm0 33l-1 3 3 3c1 2 1 2 3 2l1-1s-5-2-6-6v-1z"/><g stroke="#000" fill="#964b36" stroke-width="0"><path d="M972 357s9-11 16-8l12 4s0 7-4 7c-3 0-7-7-11-5s-6 5-7 7c0 1-9 1-6-5z" stroke="none"/><path stroke-width="1" d="M940 410s-2 3-1 3c1 1 3 0 3-1l-2-2z"/><path stroke-width="1" d="M938 413s-4-3-7 3l-9 17c-2 1 20-10 20-14 0 0 1-6-1-6h-3z"/><path d="M939 413s-5 1-6 8c0 6-7 9-7 10m74-78s-6 2-5 7" stroke="none"/></g><path fill="#fff200" d="M949 367s0-16 13-16c2 1 1 4 1 4s3-2 4 1c0 0 4-2 5 2 0 0 4-1 4 3 0 0 3-1 3 2 0 0 3-2 3 2 0 0 4-3 3 2 0 0 4-3 6 2 1 5-4 15-10 17"/><path d="M985 368s2 12-5 17c7-5 5-17 5-17zm-9 13h1c4-4 5-15 5-16 0 0-1 12-6 16zm-4-3h1c0-7 6-15 6-15-1 0-6 8-7 15zm-3-2c1-8 7-15 7-15s-6 6-7 15zm-5-3h1c0-10 7-15 7-15s-7 5-8 15zm-4-2h1c-1-10 6-15 7-15l-1-1c0 1-7 6-7 16zm-7-4c1-10 10-12 10-12v-1s-9 3-10 13z"/><path fill="#00a651" d="M941 386s-2-15 6-19c0 0 2-1 3 1 0 0 5-2 5 2 0 0 2-2 3 1 0 0 5-1 4 3 0 0 4-2 4 2 0 0 4-1 3 2 0 0 5-1 4 2 0 0 5 0 3 4 0 0 4-1 4 2 0 0 5 1 2 4-2 3-8 8-14 11"/><path fill="#00a651" d="M936 401s-4-12 3-16l2 1s1-2 3 0c0 0 3-2 4 1 0 0 2-2 3 1 0 0 3-1 3 1 0 0 3-1 3 2 0 0 2-1 2 2 0 0 4 1 3 3 0 0 4 1 3 2 0 0 4 0 1 3 0 0 4-1 2 2-2 4-8 8-12 8"/><path fill="#00a651" d="M940 411s-7-8-4-10c0 0 2 0 3 2 0 0 1-3 2 0 0 0 3-1 3 1l2 2s3 0 3 1l2 1s3 0 2 2c0 0 5 1 3 3 0 0-8 1-13-1l-3-1z"/><path d="M967 398v1c4-2 12-13 13-13h-1s-8 11-12 12zm-3-2v1c4-2 12-13 13-13l-1-1c0 1-8 11-12 13zm-2-1v1c4-4 11-15 11-16h-1s-6 12-10 15zm-2-2c1-6 9-15 9-15s-8 9-9 15zm-16-7c-1-8 6-17 6-18 0 0-7 9-6 18zm4 1v-1c-1-6 7-16 7-16-1 0-8 10-7 17zm6 2h1c0-8 7-15 7-15v-1c0 1-8 8-8 16zm-15 14v-1c-3-7 2-15 2-16 0 0-5 9-2 17zm3 0c-2-7 2-17 2-17h-1s-4 10-1 17zm12 7c8-2 13-9 13-9h-1s-5 6-12 9zm-1-2v1c6-3 11-10 11-10v-1s-6 8-11 10zm-2 0c5-3 11-12 11-12s-6 9-11 12zm-7-4v-1c-1-7 4-16 4-16s-5 9-4 17zm3 2c5-4 7-16 7-17h-1s-1 12-6 17zm3 1h1c6-5 8-14 8-14s-2 9-9 14zm1-20v1l-5 17 6-17c-1-8 6-17 6-17s-7 8-7 16z"/><path d="M956 391s-1 11-7 16c6-4 8-16 8-16 3-3 9-15 9-15h-1l-9 15zm-18 12s1 6 3 8l-2-8h-1zm3 0v8h1v-8h-1z"/><path d="M941 411l1 1 2-8-3 7z"/><path d="M942 411v1c4-2 5-6 5-6h-1s-1 3-4 5zm1 1c3 0 6-4 6-5h-1s-2 4-5 5z"/><path d="M943 412c6 0 8-3 8-3v-1s-3 4-8 4z"/><path d="M943 412v1c1 0 8 1 10-3-2 4-10 2-10 2z"/><path fill="none" stroke="#000" stroke-width="4" d="M779 144v205c0 67 121 107 121 107s121-40 121-107V144z"/></g></svg>