<svg xmlns="http://www.w3.org/2000/svg" xmlns:xlink="http://www.w3.org/1999/xlink" viewBox="0 0 1200 600"><defs><linearGradient id="a" gradientUnits="userSpaceOnUse"><stop stop-color="#a43907" offset="0"/><stop stop-color="#fff" offset="1"/></linearGradient><linearGradient id="d" xlink:href="#a" x1="826" y1="420" x2="786" y2="396"/><linearGradient id="e" xlink:href="#a" x1="852" y1="436" x2="763" y2="420"/><linearGradient id="f" xlink:href="#a" x1="1016" y1="399" x2="975" y2="401"/><linearGradient id="g" xlink:href="#a" x1="1033" y1="421" x2="946" y2="429"/><linearGradient id="h" xlink:href="#a" x1="1023" y1="445" x2="777" y2="445"/><linearGradient id="i" xlink:href="#a" x1="783" y1="463" x2="1144" y2="465"/><linearGradient id="j" xlink:href="#a" x1="1032" y1="442" x2="1003" y2="444"/><linearGradient id="k" xlink:href="#a" x1="776" y1="472" x2="804" y2="476"/><linearGradient id="l" xlink:href="#a" x1="803" y1="467" x2="755" y2="440"/><clipPath id="b"><path d="M0 0v150h700v150H600zm600 0H300v350H0v-50z"/></clipPath></defs><path fill="#00247d" d="M0 0h1200v600H0z"/><path d="M0 0l600 300m0-300L0 300" stroke="#fff" stroke-width="60"/><path d="M0 0l600 300m0-300L0 300" stroke="#cf142b" stroke-width="40" clip-path="url(#b)"/><path d="M300 0v350M0 150h700" stroke="#fff" stroke-width="100"/><path d="M300 0v350M0 150h700" stroke="#cf142b" stroke-width="60"/><path d="M0 300h600V0h600v600H0z" fill="#00247d"/><g stroke="#000" stroke-width="2"><use xlink:href="#c" stroke="#fff" stroke-width="12"/><g id="c" stroke-linejoin="bevel"><path fill="url(#d)" d="M826 428s-8-14-15-13-14 10-14 10c-1 1-11-11-11-12 1 0 11-26 17-27 5-1 18 2 18 3l5 39z"/><path fill="url(#e)" d="M845 413c0 1-2 38-15 50-12 13-32 21-39 19s-23-39-23-39 17 18 30 15c12-3 20-25 22-36 3-11 1-32 1-32l24 23z"/><path fill="url(#f)" d="M974 428s8-14 15-13 14 10 14 10c1 1 11-11 11-12-1 0-11-26-17-27-5-1-18 2-18 3l-5 39z"/><path fill="url(#g)" d="M955 413c0 1 2 38 15 50 12 13 32 21 39 19s23-39 23-39-17 18-29 15c-13-3-21-25-23-36-3-11-1-32-1-32l-24 23z"/><path fill="url(#h)" d="M789 407c-6 7-9 13-11 17-3 4-1 9 4 17 6 9 55 42 118 42s112-33 118-42c5-8 7-13 4-17-2-4-5-10-11-17 0 11-40 49-111 49s-111-38-111-49z"/><path fill="url(#i)" d="M1008 477l11-19-5-4c-2 5-8 6-9 12s4 12 3 11z"/><path fill="url(#j)" d="M1018 471s2-8-4-9-10 5-9 2c1-2 5-5 6-13l-1-13s2-11 12-9c10 1 11 9 11 12l-1 5-14 25z"/><path fill="url(#k)" d="M792 477l-11-19 5-4c2 5 8 6 9 12s-4 12-3 11z"/><path fill="url(#l)" d="M782 471s-2-8 4-9 10 5 9 2c-1-2-5-5-6-13l1-13s-2-11-12-9c-10 1-11 9-11 12l1 5 14 25z"/></g><path d="M813 439l-5-4v1l1 1-7 11-1-1-1 1 5 4 5 1c2 0 4-1 6-4 2-4 2-8-3-10zm-2 0h1c3 2 3 5 1 9-2 3-5 4-8 2h-1l7-11zm4 18l10 5 2-3-1-1-1 2h-1l-4-2 2-5 3 1-1 2h1l3-4-1-1-1 1-1 1-2-2 2-5 4 2v1l-1 2h2l1-3-9-5-1 1 1 1-5 12-1-1-1 1zm14 6l3 2c4 1 6 0 7-3 1-1 0-2-1-4l-2-2-1-3c0-1 2-2 3-1h2v1l-1 2 2 1 1-4-4-2c-3-1-5 0-6 3l1 3 2 3c1 1 2 2 1 3 0 2-1 2-3 2l-2-1v-1l1-3h-2l-1 4zm11 4l6 2v-1h-1l-1-1 4-12h2v-1l-6-2v1l1 1-3 12h-2v1zm12-12v1h1l1 1-3 12h-1l-1 1 6 1v-1h-1v-1l1-5c2 1 3 2 3 4l1 4 2 1h2v-1l-2-2-1-4-2-2c3 0 4-1 5-3 0-2-1-4-4-5l-7-1zm4 2h1c2 1 3 2 3 4-1 2-2 3-4 2h-1l1-6zm10 17h11v-4h-1l-1 3h-5v-6h3v2h2v-5l-1-1-1 2h-3l1-5h4v2h2v-3l-11-1v1l2 1-1 12v1h-1v1zm20-13v4h1v-3h3v13h-2v1h7v-1h-2v-13h3l1 3h1v-4h-12zm13 0v1h1v1l1 12-1 1h-1v1h6v-1l-1-1-1-6h7v6h-2v2h6v-2h-1l-1-12 1-1h1v-1h-6v1h1l1 1v5h-7v-5l1-1h1v-1h-6zm17 15l12-1-1-4h-1v3h-1l-5 1v-6l3-1v2h2l-1-5h-1v2h-3l-1-5 5-1v3l2-1v-3l-11 1v1h2l1 13h-2v1zm17-18v1h1l1 1 1 12-1 1v1l6-1v-1h-1l-1-1v-5c2 0 3 1 4 3l2 2 3 1 2-1v-1l-3-1-2-3-3-1c3-1 4-3 3-5 0-2-2-3-6-3l-6 1zm4 1h1c3-1 4 0 4 2 1 2 0 3-3 4h-1l-1-6zm15 12l6-2v-2l-1 1h-1l-3-12v-1h1v-1l-7 2 1 1 1-1 1 1 3 11v1l-2 1 1 1zm14-13v1l2-1v1l1 4-1 1c-3 1-6-1-7-5s0-7 3-8h3l1 2h1l-1-4-5 1c-4 1-7 5-5 10 1 5 5 7 10 5l4-2-1-5v-1h1v-1l-6 2zm3-10v1h2l6 11-1 1h-1l1 1 6-3-1-1-1 1h-1l-2-6 6-3 2 6-1 1v1l6-3v-1h-2l-5-11v-1h1l-1-1-5 3v1l1-1h1l2 5-6 3-2-4v-1l1-1v-1l-6 3zm15-8l2 3h1l-1-3 3-2 6 11v1l-2 1 1 1 6-4-1-1-1 1-7-11 3-2 2 2 1-1-2-3-11 7z" stroke="none"/></g><path fill="#0072c4" stroke="#fff" stroke-width="6" d="M900 448s-114-33-114-162l1-169h226l1 168c0 129-114 163-114 163z"/><g fill="#bcbcbc"><path d="M803 155l3-2c1-1 3-3 5-3l5-2 4-4 1-6 5-3 5-2h6l6 2 6 3 4 4 5 2 5 4 3 3 5 4 7 2h6l7 1h6l7 1h20l6 1 7-1h15l6 1 5 2 5 4 4 5 2 7 1 7 1 7-2 7v6l-1 6v7l-1 6-4 8-3 4-2 2c2 1 2 2 2 4v7l2 5c1 1 1 1-1 1-1 1-3 0-3-2l-2-5-2-6c0-3-1-3-3-3l-6-2c-3 0-3 0-3 3v7l-2 5-4 4c-1 2-2 3-4 3l-3-3c1-3 3-3 3-5l3-5-3-5-2-5-6-2-5 2h-7l-6 2h-12l-6-1-7-1-5 1-6 4-2 7-1 5-2 6c0 3-1 3-3 2l-3-5 1-6c0-2-1-2-2-1l-1 6-3 4-4 4v-9l1-7-2-6c-1-2-1-3-4-4-1 0-4-1-5-3l-4-3-5-3c-1-1-3-2-3-4l-2-6-2-6-1-6-1-7-1-7v-7l-1-6-1-6c-1-2-1-3-3-3l-5 2-7-1-4-2-3-4-1-6 2-4z"/><path fill="#fefefe" d="M831 173l13-9c5-3 13 0 14-7l-8 11c-6 3 2 7 4 2s6-11 12-13c-1 4-2 8 0 11l1-3c-1 3 3 12 3 5 1-4 1 5 2 6 3 6 3-5 3-7 1-4 1-3 0 0 0 4 1-7 1-1 1 3 0 12 3 5l1-1c-1 2 4-7 2-1-1 4 0 11 2 14 2-2 1-14 3-6 0 2 0 9 3 4 3-4 5-7 4-13 1-2 2-6 4-2-1 6 5 10 4 16 3-4 2-11 0-15 0-5 8-2 6 2-1 3 4 12 4 4 1-4 3-4 3 0 0 3 4 10 4 4 0-4-1-8 1-11 1 2 1 5 2 1 3 0 2 8 5 10 2 2 5 7 4 1 1-3-2-10-1-11 4 5 5 11 10 15 5 2 1-7 1-9-3-2-6-8-2-3 3 4 10 8 12 9-2-2-4-3 0 0 2 1-2-7-4-8-1-3-8-6-6-8 6 1 7 7 10 10 2 2 7 6 4 0 2 0 9 8 7 1l-6-8-1-1c6 1 10 7 14 11 0 2 2 12 0 6-4-2 1 8-3 7 0-3-4-7-2-3 3 7 0 15 1 22a110 110 0 01-1 9c0 4-1-5-3-6-1-2-2-11-3-5 0 5 5 11 1 15-2 2-3 5-3 1l-7-13c-2-3-7-10-5-2l1 10-7-15c0 2 3 12 0 6-1-5-4-10-9-13l2 9c-1-3-4-9-6-8 0 5 2 10 1 16 0 5-3-6-5-7-5-3 1 9-3 4-4-2-5-5-5-9-6-1-4 5-4 9 0 3-2 8-4 9v-12c1-3 0-9-3-6 0 5 3 12-1 16-2 3-6-3-9-2-5-2-3-9-6-13s-2 13-4 5c1-5-8-7-6-2 2 3 3 5 3 8 0 4-2 5-3 1 0-4-8-6-6 0-4-3 0 9-5 6-6-4-9 3-15 2-3 0-11 1-6-4 4-3 6-11 12-7 5 0 10-3 14-6s2-8-2-5c-3 5-13 5-15 5 2-3 11-3 9-8-3 0-9 5-11 2 1-1 5-4 1-3-5 2-11 2-16 1-6-5 8-4 7-7-1 0-6 0-4-2 4 1 9 1 12-3 2-2 9-7 7-8-5 2-10 7-16 4 5-4-2-4-6-3-2 0-9-2-3-2 4 1 8-5 2-4h-4zm-29-8l-1-8 5-4c3-2 5-4 9-5l5-4c1-2 0-6 2-7l8-3 9-1 7 3 5 4 6 4v2c-1 3-5 1-6-1 1-1 1 3-1 3-2 1-2-3-2-5 0-1-1-2-1 0-2 1 1 5-2 4-2 0-5-1-7 1-2 1 2 2 3 3 2 2 4 0 5 0 3-1 6 0 8 1 1 2-1 4-3 5l-6 2c-3 0-3 4-6 4l-6 1 3-5c2-2-4-2-3 1 1 1-3 4-2 1 0-2 2-4-1-3-1 0-4 0-3 2h-6c-1-3-4-4-6-2-2 3-4 0-6 1 0 2 2 3 4 3h7c2 2-2 3-4 3s-4-2-7-1c-1-1-4 1-1 1 2 0 5 0 5 3l-5 1h-3c0-2-2-3-3-4z"/><path d="M812 153l-2 2-4 2-1 2 3-2 5-1c1-1 0-2-1-3zm16-16l1 2 1 3 2-5-2-1-2 1zm6 0v2l1 4 2-3c0-3 0-3-3-3zm12 40h1l1-1 4-2 4-2 2-1c0 2 0 3-2 3l-3 2-2 2c-2 1-2 1-5-1zm7 11l3-4 4-3 3-4 2-4 1 5-1 4-3 3-4 2-3 2-2-1zm-11 8h1l1-1 4-3 4-1h2c1 1 2 2 0 3l-3 1-4 1h-3 3-5zm15 0v-2l4-4 3-1v3l-2 3c-1 1-1 2-3 2l-2-1z"/><path fill="#c4c4c2" stroke="#000" d="M817 151l2-1 3-3 3 2 4 1v2h-4l-5 1c-2 0-1 0-3-2z"/><circle fill="#000" cx="138" cy="303" transform="matrix(1.5175 0 0 1.58678 613 -330)" r="1"/></g><g fill="#005121" stroke="#002b0e" stroke-width="2"><path d="M828 248h1c-4 0-1 0 6 6 3-3 2-3 5 1 1 2 2 0 4-3 1 5 2 11 5 6 4 0 9-1 11 1 3 5 2-1 4 2 6 0 6-6 12-7 4 5 6 1 11-2 4 1 7 7 8 2 3-6 3-5 5 0 3 2 4-2 7-3 4 2 10 3 16 1 1 5 4 3 7 2 6 2 8 3 15 0 3-5 1 0 4 2 5-1 3-2 9-1 6 0 6 0 8-4 3 3 4 5 8 1 6 0 4 1 8-1 3 6 4 2 7 4-2 6-6 8-10 11-2 5-4 9-9 11l-12 10c-6 2-12 2-19 2h-56l-16 4c-6 0-13 0-18-2l-10-9c-3-3-3-7-6-10l-5-14v-10z"/><path d="M958 261v1c0-4 0-2-3 6l-4 2m-5-4h1c-5 5-8 7-9 13l9-13c-5 5-8 7-9 13m-11-20l-1 7m-4 3v1-1zm-11-8h1-1zm-75 0l7 7c-1 4-3 8 0 12m4-11l6 7-6-7 6 7v1c0-4 0-8 2-11 1 3 3 7 4 3 7 0 11-3 16-4 0 2-1 1 1 3m91-6h2c-3 2-5 7-7 10m-50-14h11"/></g><path d="M825 268c-16 0-22 17-38 17h-1v1c0 12 1 23 3 33 15-1 20-17 36-17s21 17 37 17 22-17 38-17 22 17 38 17 21-17 37-17 21 16 36 17c2-10 3-22 3-34h-1c-16 0-22-17-38-17s-21 17-37 17-22-17-38-17-22 17-38 17-21-17-37-17zm0 66c-13 0-19 10-29 15l12 25c5-3 10-6 17-6 16 0 21 17 37 17s22-17 38-17 22 17 38 17 21-17 37-17c7 0 12 3 16 6 5-7 9-16 12-25-9-5-15-15-28-15-16 0-21 17-37 17s-22-17-38-17-22 17-38 17-21-17-37-17zm75 66c-16 0-22 17-38 17-15 0-21-15-35-17 19 21 41 34 55 41 5-4 11 5 18 5s13-9 17-5c15-7 36-20 55-41-14 2-19 17-34 17-16 0-22-17-38-17z" fill="#fff"/><g stroke="#522108"><path d="M800 343l16-5 25 25-21 4-20-24zm48 32l12-39m-8 39l9-39m-6 39l7-39m-11 28l6-1m-5-3l6-1m-5-4l6-2m-3-3h4m55 50l-13-66m8 65l-10-64m6 59l-7-59m15 57l-8-4m5-6l-6-2m5-5l-7-3m6-6l-7-2m4-6h-5m4-8l-5 1m49 22l-7-2m10 15c0-7-13-49-13-49m9 48l-10-48m6 44l-8-44m11 30l-6-2m6-5l-7-1m4-5l-5 1m3-6l-5 1" fill="none"/><g fill="#dd8b59"><path d="M895 392l2-116h4l-1 116h-5zm44-111l-1 97-3 4 1-101h3zm-77 89v-87h-2l-1 85 3 2z"/><path d="M845 338l32-5-1 5-29 3-2-3zm1-27c1 1 36-9 36-9l-1 3-35 10v-4zm1-13v4l29-10s1-2 0-2l-29 8zm38-6l29-10v4l-27 8-2-2zm-2 12l-1 4 38-10v-3l-37 9zm1 32v4l32-5-1-2-31 3zm37 3v2l32-4-1-3-31 5zm-1-30l1 3 37-10 1-3c-1 0-38 11-39 10zm4-15v3l28-7c0-1 3-4 0-3-2 0-27 9-28 7z"/></g><path d="M864 304c4-2 1-5 2-5s4 2 6 0c2-1 3-7 2-7-1 1-20 8-24 8 3 1 11 5 14 4zm61-7s3 6 5 5l4-3s2 5 5 4 5-6 5-6h4c2 0 3-8 3-8l-26 8zm-2 45c-1 1 2 3 4 3s3-3 4-2c0 1 0 5 6 3 6-1 6-5 6-5s-2 1 2 2c4 0 8-6 7-6l-29 5zm0-30s-5 5-3 12l3 13c1 0 6-9 11-10 5 0 15 5 15 5l-1-16c0-5 8-14 8-14l-33 10zm-77 30c1 0 0 4 4 3s4-3 4-3 1 5 6 4c5 0 8-6 8-6s0 5 3 3c3-1 4-4 4-4l-28 4-1-1zm0-27s-4 1-2 9c1 9 4 13 5 13 0 0 4-8 9-9s14 4 14 4 0-7 1-14 6-12 6-12l-33 9zm40-22c1 0 5 5 6 4l5-4s-1 6 3 5c3-1 4-5 4-5s2 2 5 0c2-1 4-8 3-8l-26 8zm-1 13c0 1-5 9-3 16l4 13c1 0 7-7 13-9 6-1 14 5 14 5-1 0-3-7-3-12s7-21 7-21l-32 8zm0 34s1 3 4 3 4-3 4-3-1 6 4 5c5 0 7-5 7-5s0 2 4 1 9-6 9-6l-32 5z" fill="#fecf3e"/><g fill="#dd8b59"><path d="M846 373s5 47 56 46c50-2 64-48 64-48l-22-1s-17 22-39 22c-22-1-29-6-34-11l-10-11-25-11 1 10 9 4zm137-5l-1-6v-6l2-5-38 6v11h37z"/><path d="M976 356l-1 10h6v-10h-5zm-6 1l-1 10 4-1 1-9h-4zm-7 10v-8l4-1v7l-4 2zm-8-1l1-7 5 1v7l-6-1zm-8 0v-6h5v7l-5-1zm-4 4l42 1v-3l-43-1 1 3zm1-12l42-7v-5l-42 9v3zm-145-16l33 17-1 3-32-16v-4z"/><path d="M814 337l5 30h3l-5-29-3-1z"/></g><path d="M882 389c0-7 13-51 13-51m-9 52l11-51m-7 51l8-51m-16 44l9-3m-5-5l6-2m-5-3l7-2m-6-6l7-1m-4-5l5 1m-4-7l5 1m22 38l14-49m-9 48l10-48m-6 44l8-44m-16 43l9-3m-6-4l7-2m-6-4l7-2m-6-5l7-1m-4-5l5 1m-3-6l4 1m-57 31c0-7-13-50-13-50m9 49l-10-48m5 44l-7-44m16 43l-9-3m6-4l-7-2m5-4l-6-2m5-5l-7-1m4-5l-5 1m4-7l-5 1" fill="none"/><path fill="#b6b6b4" d="M835 359s-9-1-8 1c0 3 4 5 4 6 1 2-1 7 2 6 2 0 5-2 5-3v-8l-3-2z"/><g fill="none"><path d="M845 372l11 3 11 14"/><path d="M852 374c1 1 9 31 52 31s52-35 52-35"/><path d="M963 371s-20 46-59 43-45-18-48-26l-5-14m101-40l2-29m29 43l-28-45m-55-26l14 7 48 68m-24-68l13 5 4 10m-94-16l14 11 2 9m-64 47c7-3 49-42 49-42m-60 35l48-43m32 7l46 79m-6-47s6 19 11 22l11 7"/><path d="M922 340s3 22 9 26l10 9m-56-37s5 31 16 38l19 13"/><path d="M885 338s11 24 21 31c10 8 23 14 23 14m-81-43c3 5 2 16 6 19l9 12"/><path d="M848 340l10 21c2 4 25 27 25 27"/></g><g stroke-width="0" stroke="none"><circle cx="872" cy="389" r="3"/><circle cx="889" cy="397" r="3"/><circle cx="910" cy="398" r="3"/><circle cx="928" cy="391" r="3"/><ellipse rx="2" ry="3" cx="942" cy="382"/></g><path d="M859 283l-20 6 20 4v-10zm38-7l-13 6 14 3-1-9zm38 5c-1 1-16 4-13 5l13 3v-8z" fill="#ff0101"/><g fill="#be1017" transform="matrix(.04915 -1.29622 1.23825 .05145 0 0)"><circle r="2" cx="-216" cy="726"/><circle r="2" cx="-212" cy="739"/><circle r="2" cx="-219" cy="733"/><circle r="2" cx="-209" cy="733"/><circle r="2" cx="-214" cy="733"/></g></g></svg>