<svg xmlns="http://www.w3.org/2000/svg" xmlns:xlink="http://www.w3.org/1999/xlink" viewBox="0 0 500 300"><defs><g id="c"><g id="b"><path id="a" d="M0-1v1h.5" transform="rotate(18 0 -1)" fill="#fcd116"/><use xlink:href="#a" transform="scale(-1 1)"/></g><use xlink:href="#b" transform="rotate(72)"/><use xlink:href="#b" transform="rotate(144)"/><use xlink:href="#b" transform="rotate(216)"/><use xlink:href="#b" transform="rotate(288)"/></g></defs><path fill="#ce1126" d="M0 0h500v300H0z"/><path fill="#007a5e" d="M42 42h416v216H42z"/><path d="M42 42h416L42 258h416z" fill="#fcd116"/><circle cx="250" cy="150" r="36" fill="#ce1126"/><use xlink:href="#c" transform="matrix(33 0 0 33 250 150)"/><use xlink:href="#d" x="-100"/><use id="d" xlink:href="#c" transform="matrix(19.5 0 0 19.5 250 21)"/><use xlink:href="#d" x="100"/><use xlink:href="#d" x="-100" y="258"/><use xlink:href="#d" y="258"/><use xlink:href="#d" x="100" y="258"/><path d="M67.7 150.4a50 50 0 0021 20.7c0-8.5-3-19.4-7-28.1l-14 7.4z" fill="#ce1126"/><path d="M60.1 121.6c6.5 13.6-17 46.1 22.2 53.7-4.9-6.6-8-17.4-6.8-26.1a44.3 44.3 0 0120.3 19.2c10.3-37.2-26.2-34.9-35.7-46.8z" fill="#fcd116"/></svg>