<svg xmlns="http://www.w3.org/2000/svg" xmlns:xlink="http://www.w3.org/1999/xlink" viewBox="0 0 500 300"><path fill="#d21034" d="M0 0h500v300H0z"/><path fill="#00209f" d="M0 0h500v150H0z"/><g fill="#f1b517" stroke="#000" stroke-width=".2"><path fill="#fff" d="M202.7 112.3h94.6v75.3h-94.6z" stroke="none"/><path fill="#016a16" stroke="#016a16" d="M269 166.8l-19.3.5-19.2.2s-9.9 3.7-14 4.5c-4 .8-3.4 2.2-6.5 2.9-2.5.5-2.8.7-4.3.8-.9 0-2 .7-3 1.5v10.4h94.6v-10l-3-1.2c-1.4-.5-2.3-1-4.8-1.5-3.1-.7-2.6-2-6.6-2.9-4-.8-13.9-5.2-13.9-5.2z"/><g id="a"><path d="M244.5 143.5h1.4l2.6 10.7-.6 3.4-3.4-14z"/><path fill="#fff" d="M243 136.3l1 8.3h1l-2-8.3z"/><path d="M245.7 154.6l-4.3-11.5 1.6-.1 5 14-2.3-2.4z"/><path fill="#fff" d="M239.4 136.5l1.8 8h1.4l-3.2-8z"/><path d="M242 150.5l-2.6-5.4 1-.2 4.7 9-3.2-3.4z"/><path fill="#fff" d="M236 138.8l2.9 7.6h1.4l-4.2-7.6z"/><path fill="#0a328c" d="M242.2 151.4l-11.4-12.5c-3.6 2.8-2.9 8-2.9 8l13 10.2 1.3-5.7z"/><path fill="#d20014" d="M248.9 158.2l-8.5-8.6c-3.6.2-.8 5.5-.6 6.2l9 7.7v-5.3z"/><path d="M248.1 156.8L230.6 138l-.7.5 18.6 20.6-.4-2.3zm-18.5-20l-.4-.5v-.9l-3.6-2.3 1.6 3.7 1.3.2.4.4.7-.6z"/><path d="M227.7 138.1c.7-.7 1.4-1.5 2.7-2.2l1 1.5-2.2 1.8-1.5-1z"/><path fill="#0a328c" stroke="#0a328c" d="M225.8 141.3l.6 1c.4-.1 4-3.5 4-3.5h2.7l.7-.9c-2-2-3.7.3-3.7.3l-4.3 3z"/><path fill="#d20014" stroke="#d20014" d="M228 143c0-1 1.8-3.2 2-3.3 1.3.4 2.6 1.2 3.9-1.8-1.2 1.4-3.5 0-3.5 0l-1 .8v.4l-3 2.8 1.5 1.1z"/><path fill="#0a328c" d="M237.3 154.7l-14.4-11.4c-2.5 2.5-.4 10.2-.4 10.2l14 7.6.8-6.4z"/><path fill="#d20014" d="M249.2 164l-11.9-9.5c-4 .5-.8 6.5-.6 7.1l12.5 6.8v-4.5z"/><path d="M248.7 162l-25.6-19.2-.5.6 26.8 21-.7-2.4zM222 141.8l-.5-.4-.2-.9-4-1.6 2.3 3.3h1.3l.4.4.6-.8z"/><path d="M220.3 143.4c.5-.8 1.1-1.7 2.3-2.6l1.2 1.3-1.8 2.1-1.7-.8z"/><path fill="#0a328c" stroke="#0a328c" d="M219 146.6v1.1c.4-.2 3.6-3.7 3.6-3.7l2.6-.5.6-.8c-1.8-2.1-3.8.7-3.8.7l-3 3.2z"/><path fill="#d20014" stroke="#d20014" d="M221 148.5c-.2-1 1.2-3.8 1.4-4 1.6.5 3 1.2 3.5-2-1 1.6-3.5.4-3.5.4l-.8 1v.5l-2.5 3.3 1.9.8z"/><path fill="#0a328c" d="M236.2 161.7l-18.5-10.5c-1.3 2.3-.1 5.5.5 6 0 1.5-.6 2.3.7 5.5.4 2 1.3 3.9 2.7 5 1.6 6.4 8.2 6.9 10.7 1.6l4-7.6z"/><path fill="#d20014" d="M248.4 168.5l-12.6-7.3c-4 .5 0 8 .3 8.7l12.1 4.3.2-5.7z"/><path d="M246.2 165.8l-28.3-15-.5.6 30 16.7-1.2-2.3zM216.5 150l-.5-.4-.3-.8-4.2-1 2.8 2.9 1.2-.2.6.3.4-.9z"/><path d="M215.2 151.8c.4-1 .8-1.8 1.8-3l1.4 1.1-1.4 2.4-1.8-.5z"/><path fill="#0a328c" stroke="#0a328c" d="M214.1 155.2l.6 1.1c.3-.2 3-4.5 3-4.5l2.5-.9.5-1c-2-1.8-3.5 1.4-3.5 1.4l-3.1 3.9z"/><path fill="#d20014" stroke="#d20014" d="M216.8 156.8c-.2-1 .5-4.2.7-4.3 1.5.5 2.8.6 3.2-2.6-1 1.5-3.3 1-3.3 1l-.7 1 .1.4-2 4 2 .5z"/></g><use xlink:href="#a" transform="matrix(-1 0 0 1 499.9 0)"/><path fill="#016a16" stroke="#016a16" d="M248.8 125.6l-.5 9h2.9l-.4-9 3-.3-.3-3.6-7.6.3v3.2l2.9.4z"/><g id="b" fill="#016a16"><path d="M249.8 121.9c-7.7-7.8-13.9-4-15.3-2.9 1 .2 1.8-.4 2.3-.5l-1 1.2s2.5-1 2.8-1c-.4.3-.8 1-.8 1 .2 0 1.6-1.1 1.8-1.1-.4.4-.5 1.5-.5 1.5l1.2-.5c.3.2-.1.6.1.6 2-.2 4.7 1.7 5 2.3"/><path d="M247.9 123.3c-.8-1.8-15.6-5-18.6.3 1.2.3 2.3-1 2.3-1v1.2l1.9-1.6-.7 1.6 1.5-1.3v1.3l2-2-.3 1.1 1.7-.7-.2 1"/><path d="M247.2 123.6c-3.8-2.5-9.6-.8-9.6-.8-3.8 2-5.8 1.7-6.2 5.6l1.3-1.4.8 1.5.2-2.1.6 1.7 1-2.8.2 1.9 1.4-1.9.6.6.6-1.5.6 1s1-.6 1.5-.3l1-1.2.3.9 1-1 .3.7.9-.8v.5l3 .1"/><path d="M246.4 124c-2.7 0-10.2 2.9-12.2 5.9l1.3-.7.3 1.2.5-1.2.1 1c.3-.8.6-.9 1.2-.1l.2-1.1.3 1 .5-1.1s.3 1.3.5 1.2c0 0 .8-2.2 1.2-2.3l.1 1.4.5-1.4.5 1v-1.4l.6 1s.2-1 .6-1.2l.8.7 3.4-2.5"/><path d="M246.9 124.7c-3.5 1.3-6.7 6.2-6.4 8.2 1.5-2 1.2-1.7 1.9.6 0 0 .3-2 .5-2.2l.5 1.4.1-1.9h.5l-.1-1.1.7.5c-.2-.7-.3-1 .4-1.5 0 0-1 .1-.2-1.5l.7.6s-.2-.7 0-1l2.6-.8"/><path d="M247.2 125l-1.3 2.6.7.2-1.6 1.1 1.3-.1s-2 .7-2.2 2.7l2-1s-1.7 1.8-2 2.9l1.3-1s-1.2 1.2-1 3l.9-1c-.3 2.3-.2 2.5.8 4.2 0 0-.2-2.6 0-3l2.3 2.4-1.2-3.4s1.4 2.2 2.2 2l-1.8-2.7 1.8 1.4-2-3 1.8.6s-1.3-1.7-1.2-2.8l1.3 1.4s-.5-1.6-.4-2l.7.1-1.3-1.4.9-.2-.1-1 .6-.2v-1m-1.1 0c-2.2 3-1.1 7.5-2.4 9.9"/></g><use xlink:href="#b" transform="matrix(-1 0 0 1 499.9 0)"/><path d="M251 166.5s1.1-10 1.1-14.2c0-3.4-.8-10.8-.8-10.8H248s-.5 7.4-.4 10.8c0 4.2 1.1 14.2 1.1 14.2h2.3z"/><path d="M247.7 142h4l-.5-2.7h-2.9l-.6 2.7z"/><path d="M248 139.8h3.5l-.7-2.6h-2.2l-.7 2.6z"/><path d="M248.2 137.7h2.9l-.5-2.7h-1.9l-.5 2.7z"/><path d="M250.7 134.7h-2l-.3 1h2.5l-.2-1zm.4 29.7h-2.6m2.8-2h-3m3.4-2h-3.8m4-2.1h-4m4-2.2h-4.1m4.2-1.9h-4.4m4.4-1.8h-4.6m4.6-2.2h-4.6m4.5-2.2h-4.5m4.3-2h-4.1m3.9-2h-3.7"/><path fill="#0a328c" stroke="#0a328c" d="M250 119c-.8-.3-2.3-1.3-1.9-1.9l.7-1.2c1-2.2 0-1.4 0-2-.2-.8 3.8-.2 3.8 1.3 0 .4-.3.2-.2 2.6l-.8 1.5c-.5 0-1.2 0-1.7-.3z"/><path d="M250.4 125l-1-.9.3-7.1 1 .3-.3 7.6z"/><path fill="#d20014" stroke="#d20014" d="M251.7 119.2c.6-.3 1-1.4.6-2-1-1.3-1.7-.8-3.4-1.4-.3.4-1 1-.9 1.6 2.3 1 1.4.2 2.2.3.4 0 .6.5 1.5 1.5z"/><use xlink:href="#c" transform="matrix(1 0 0 -1 0 320.4)"/><path fill="#016a16" stroke="#fff" stroke-linecap="round" d="M238.4 161.8c0 1.2-.9 2.3-1.9 2.3s-1.8-1-1.8-2.3v-1.3h3.7v1.3z"/><ellipse fill="#fff" cx="236.5" cy="160.1" rx="1.8" ry=".9" stroke="none"/><path fill="#016a16" stroke="#f1b517" d="M236.1 161l-.3-3.2h1.4l-.2 3.3h-.9z"/><path id="c" fill="#016a16" stroke="#fff" stroke-linecap="round" d="M238.5 160.1c-.2.5-1 .9-2 .9-.9 0-1.7-.4-2-.9v.4c0 .6.9 1.2 2 1.2s2.1-.6 2.1-1.2v-.4z"/><g id="d"><path d="M246 172.8l-7-2.2-3.1-5.3-10.9-.5.4 4 9.3 1.7.8 1.6 10.7 3-.2-2.3z"/><path fill="#503200" d="M238.7 174.3l-11.2-16.4-.5.4 11 16.4.7-.4z"/><path fill="#fff" d="M228.6 158.5l-1.2-2c-.3-.4-.6-.5-1.1-.2-.5.2-.4.7-.2 1.1l1 1.9 1.5-.8z"/><path d="M240 164.1l-22.5-2.3-.6 3.3 22.4 2.3.7-3.3z"/><path d="M217 161l-.5 4.5h1l.6-4.1-1-.4zm3.8.7l-.2 4.1h.6l.4-3.5-.8-.6zm15.2 1.8l-.5 3.8h1.1l.5-3.8h-1zm3.4.1l-.7 4.4 1.2.2.3-2.3c.1.4.6.8 1.1.8.6 0 1-.5 1-1s-.4-1-1-1a1 1 0 00-1 .6l.3-1.6-1.2-.1zm-8.1.7l-3 3.5.3.4 4-2.7-1.3-1.2zm-7.2 8.7l3.1-3.5-.3-.4-4 2.7 1.2 1.2zm8.1-.9l-3.7-2.9-.4.3 3 3.7 1.1-1zm-9.2-6.7l3.8 2.8.4-.3-3-3.8-1.3 1.3zm4-2.4l.5 4.7h.5l1.2-4.5-2.1-.1zm1.3 11.2l-.3-4.6h-.6l-.7 4.6h1.6zm5.1-6.2l-4.8.5v.5l4.8.6V168zm-11.4 1.6l4.7-.7v-.4l-4.8-.5v1.6z"/><ellipse cx="227.7" cy="168.5" rx="1.3" ry="1.2"/><path fill-rule="evenodd" stroke-linecap="round" d="M234.4 168.5c0 3.6-3 6.6-6.7 6.6s-6.8-3-6.8-6.6c0-3.5 3-6.5 6.8-6.5 3.7 0 6.7 3 6.7 6.5zm-1.3 0c0 3-2.4 5.3-5.4 5.3s-5.4-2.4-5.4-5.3c0-2.8 2.4-5.2 5.4-5.2s5.4 2.4 5.4 5.2z"/><path d="M223.5 165.3l-1-.8m8.5 0l1-1m1 9.2l-1.1-.9m-8.4 1.9l1-1m21.7-10.6l1.2 6-1 .4-1-6.3h.8z"/><path fill="#fff" d="M245.6 161.4c-.5-.3-1.2.1-2.4-1.3-1.9 1.7 0 2 .2 3.7.5.2.9-1.4 2.3-1.5l2.3-.2-.5-.8h-2z"/><path fill="#fff" d="M246.4 162.5l-.3-1.7c-.2-.7-1-.1-1 .2l.2 1.7 1-.2z"/><path fill-rule="evenodd" d="M240.8 167.4v1.6c-.6.2-.5.6-.5 1.2v4.7c-.1.4-.7.4-1 .6-.3.3-.2.8 1 1l1 .1c1.5-.3 1.8-.8 1-1-.3-.2-.9-.4-1-.6v-1.2h1c.2 0 .7-.6.7-1.1v-2.5c0-1.4-1-1.6-1.4-1.5v-1.3h-.8zm1.6 2.7c0-.4-.6-.8-.8-.8s-.7.5-.7.9v1c0 .4.3 1.6.9 1.7.3 0 .6-.4.6-.8v-2z"/><path d="M234.3 172.3c-.7-.2-.7 1.2-.7 1.2h1c.5.2.8.9.6 1.2-.3.2-2.2-.5-2.3 0 .3 1.9 2.9 2.6 3.8 1.8 1-.9 1.1-3-1.8-3.7l-.6-.5zm.6.6l-.3.6" fill="#fff"/><path d="M215 173l-1-4m2.1 3.8l-1.5-3.1m4.1 2.3l-3.4-1.8m4.8 1.4l-6.2-2.7"/><path fill="#d20014" stroke="#d20014" d="M210.2 166s-2.2 0-2.6.1c-.2.1.5.9.4 1.2-.6 1-4.4.9-4.7.6-.5-.4 3.5-.7 3.6-1 0-.3-.6-1.1-.5-1.6 0-.7 1.8-1 1.8-1l2 1.7z"/><path fill="#503200" d="M213.2 168l-5-4.2s-.3-.2-.5 0 0 .4 0 .4l5.4 4.4.1-.6z"/><path d="M218.1 172.2l-4.1-3.6-.3-1-.8.6-.6.8 1.1.1 3.6 3.3 1.1-.2z"/><circle cx="232.5" cy="177.1" r=".7"/><circle cx="230.6" cy="175.7" r=".7"/><circle cx="228.1" cy="176.6" r=".7"/><circle cx="224.2" cy="177.4" r=".7"/><circle cx="222.5" cy="177.6" r=".7"/><circle cx="220.8" cy="177.6" r=".7"/><circle cx="219.2" cy="177.6" r=".7"/><circle cx="220" cy="176.3" r=".7"/><circle cx="221.6" cy="176.4" r=".7"/><circle cx="223.1" cy="176.2" r=".7"/><circle cx="222.4" cy="175" r=".7"/><circle cx="220.8" cy="174.9" r=".7"/><path fill-rule="evenodd" d="M236.5 178c0-.3-.8-.2-.8-.6 0-.4 1.2 0 1.3.3.7-.6 1-.2 1.4 0 .6-.8 1.3-.8 2-.2.4-.4 1.4-.3 1.7.2.7-.6 1.3-.5 1.7 0 .2-.4.5-.3.7 0 .3-.7 1.2-.5 1.6 0 .3-.4.7-.1 1.1.1.3-.2.8-.2.8 0 0 .4-.6.3-.6.6 0 .2.4 0 .4.4 0 .3-.7.4-.8 0-.2.4-1 .2-1.1-.2-.3.4-.9.5-1.2 0-.3.2-.7.2-.8 0-.5.5-1.4.4-1.7-.2h-.3a1 1 0 01-1.5 0c-.9.6-1.4.4-1.9 0-.5.7-1.4.7-1.5 0-.4.3-1.2.4-1.2 0 0-.2.7-.1.7-.4zm1.6.1c0 .2-.2.3-.4.3s-.4-.1-.4-.3.1-.2.4-.2.4.1.4.2zm1.8-.2c0 .2-.2.3-.5.3s-.5-.1-.5-.3c0-.1.2-.3.5-.3s.5.2.5.3zm3.6.2c0 .2-.2.3-.5.3s-.4-.1-.4-.3c0-.2.2-.3.4-.3s.5.1.5.3zm-1.9 0c0 .2-.2.3-.4.3s-.5-.1-.5-.4.2-.4.5-.4.4.2.4.4zm4 0c0 .1-.1.3-.3.3s-.5-.2-.5-.4c0-.1.2-.3.5-.3s.4.2.4.3zm-1.2 0c0 .2 0 .3-.2.3s-.3-.1-.3-.3.1-.2.3-.2l.2.2zm2.5.1c0 .2-.2.4-.3.4s-.3-.2-.3-.4 0-.3.3-.3.3.1.3.3z"/></g><use xlink:href="#d" transform="matrix(-1 0 0 1 499.9 0)"/><path fill="#0a328c" stroke="#0a328c" d="M249.8 165.7c-2.5 0-4.5 1-4.5 2.1 0 .2 0 .4.2.6.5.6 2.3 1 4.4 1 2 0 3.6-.3 4.2-.9.2-.2.3-.4.3-.7 0-1.1-2-2-4.6-2z"/><path d="M254.4 168v7c0 .9-2 1.5-4.5 1.5-2.6 0-4.6-.6-4.6-1.5v-7c0 .8 2 1.5 4.6 1.5 2.5 0 4.5-.7 4.5-1.5z"/><path fill="#d20014" stroke="#d20014" d="M245.3 168v1l2.2 7 1.8-5.4 2 5.5 1.3-5.1 1.8 3.4v-1.9l-1.6-3.4-.6.2-1 3.8-1.5-3.6h-.7l-1.5 3.6-1.6-4.4c-.4-.2-.6-.5-.6-.7z"/><path fill="#0a328c" stroke="#0a328c" d="M254.4 173.7v1.3c0 .9-2 1.5-4.5 1.5-2.6 0-4.6-.6-4.6-1.5v-1.3c0 .8 2 1.5 4.6 1.5 2.5 0 4.5-.7 4.5-1.5z"/><path d="M251.7 175l-1.1.2v1.3l1.1-.1v-1.3zm-4.8-.1v1.3l1.1.2v-1.3a9 9 0 01-1.1-.2zm-1.6-1.2v1.3c0 .3.2.5.5.7v-1.3c-.3-.2-.5-.4-.5-.7zm9.1.2c0 .2-.4.5-.8.7v1.3c.5-.2.8-.5.8-.9v-1z"/><path fill="none" d="M254.4 168v7c0 .9-2 1.5-4.5 1.5-2.6 0-4.6-.6-4.6-1.5v-7"/><path fill="#fff" stroke="#fff" d="M253.4 167.5c0 .5-1.6 1-3.5 1-2 0-3.6-.5-3.6-1s1.6-.9 3.6-.9 3.5.4 3.5 1z"/><path d="M248.7 168.2l.2 1.2h1l.1-1.2h-1.3zm4.1-.3l-1 .2.1 1.2 1-.2-.1-1.2zm-5.4-1.9l-.7.2.1 1 .6-.2v-1zm2.4-.4h-.3l.2 1.2h.6l.2-1.2h-.7zm2.7.4l-.1 1 .7.3v-1l-.6-.3zm-6.5 2.8l.2-1.3-1-.5v1.5l.8.3zm8.4-.3v-1.3l-.8.3.8 1zm9.3-8.5c.8 0 2 1 2.1 2.5 0 1-1.7 1-1.7 1 0 .5-1 .9-1.8 1-.8 0 .2-1.5.2-1.5-.5-1.3.1-2.7.1-2.7l1-.3z"/><path d="M262.5 163h.8s0 .3.2.3.3-.4.3-.4h1.3"/><path fill="#d20014" stroke="#f1b517" d="M264.1 160.9c.7-.5.1-1.5-.4-1.5h-1c-.6 0-1.4.6-1.3 1 0 .5.4.7.8.6.2 0 .6-.6.8-.6.3 0 1 .6 1.1.5z"/><path fill-rule="evenodd" d="M214.2 174.9c-.6 0-.7.7-.5 1.4l-7.4 2.4c-.1-.5 1.2-1.8 1.2-1.8.3.1.5.9.5.9.1-1.6 1.7-2.6 1.7-2.6-1-.2-3.7 1-4 1.4 0 0 1-.2 1.2 0 0 0-2.2 2.3-2.3 3 .4.7 4 1.3 4 1.3 0 .2-1 1-1 1 1.4.2 3.7-.8 4.3-1.4 0 0-1.7-.2-3-1.3 0 0 .2.7 0 1 0 0-2-.6-2.3-1 0 0 5-1.2 7.4-2 .1.5.6 1.3 1.1 1.1.4-.1.3-.8.2-1.4.1.2.3.2.5.2.4 0 .7-.3.7-.7 0-.4-.3-.8-.7-.8-.4 0-.6.3-.8.5 0-.4-.3-1.3-.8-1.2zm2 1.5c0 .2-.2.3-.4.3s-.4-.1-.4-.3.2-.4.4-.4.3.2.3.4z"/><path d="M293 177.9c.3-.4 0-2.2 0-2.2-.5 0-1 .7-1 .7.5-1.6-.8-4-.8-4 .9.1 3.9 3 4 3.6 0 0-1.3-.5-1.5-.4.2 1.5 1.3 2.2 1.7 3 0 0-1.7.3-1.6 1.8h-1.1c-.4-.5.2-1.3.2-1.3L285 176c-.5-.2-1.6-.7-1.4-1.3.1-.6 2 .2 2.4.4l7 2.9z"/><path d="M285.6 176.5l1-1.6c.3-.5-.4-1-.9-.4l-1 1.5c-.5.9.5 1.1 1 .5z"/><g fill="#fff"><path d="M231.4 180.4l-.1-1.9-2.2.2-.1 2 2.4-.3z"/><path d="M215.2 183l-3-1.7c12.3 1 14.7-3.2 17.7-3.4 1.8-.1 2 2-1.4 1l.9 2.2s-8.7 4.9-17.2 2.9l3-1zm53-2.6l.1-1.9 2.7.1.1 2-2.9-.2z"/><path d="M285 182.5l2.7-1.5c-14 .4-10.7-2.3-17.7-3-1.8-.3-3.2 2 1.4.9l-1 2.2h2.3a21 21 0 0015.4 2.4l-3.2-1z"/><path d="M228.4 179v3s7.7 3 21.5 3c13.9 0 21.6-3 21.6-3v-3s-5.9 2.6-21.6 2.6c-15.6 0-21.5-2.7-21.5-2.7z"/></g><path fill="#000" d="M229.6 182l.7-2.2h.3l-.6 2 1.1.4v.3l-1.5-.4zm2.2-1v-.4l.1-.4.4.1-.1.4-.2.4h-.2zm3.3 0h.4l-.3 1.3-.2.6-.4.3h-.6l-.5-.2a.7.7 0 01-.3-.4v-.6l.3-1.4h.4l-.3 1.4v.7l.4.2h.6l.2-.6.3-1.4zm.4 2.4l.4-2.4.3.1 1 2 .3-1.8h.3l-.4 2.4h-.3l-1-2-.3 1.8h-.3zm2.5.4l.4-2.4h.3l-.3 2.4h-.4zm1-1c0-.4.2-.7.4-1l1-.2.5.2.4.5v.7c0 .2 0 .4-.2.6a1 1 0 01-.5.4 1.3 1.3 0 01-1.2-.1 1 1 0 01-.4-.5v-.6zm.3 0c0 .3 0 .5.2.7.1.2.3.3.5.3.3 0 .5 0 .7-.2.2-.1.3-.3.3-.7v-.5l-.3-.3a.8.8 0 00-.4-.2c-.3 0-.5 0-.6.2-.2 0-.3.3-.4.7zm2.3 1.4l.2-2.4h.4l1.1 2 .2-1.9h.3l-.2 2.5h-.4l-1.1-2-.2 1.8h-.3zm3.5.3l.1-2.4h1.7v.3h-1.4v.7h1.2v.3h-1.2v1h-.4zm1.8 0l1-2.4h.4l1 2.5h-.4l-.3-.8h-1l-.3.7h-.4zm.8-1h.8l-.2-.6-.2-.5-.1.5-.3.7zm1.9 1v-2.3h.3v2.4h-.3zm1.5 0v-2h-.8v-.3h2v.2h-.9v2.2h-.3zm2.5 0l-.1-2.4h.3l.1 2.1h1.2v.2l-1.5.1zm1.7 0l.7-2.5h.4l1.2 2.3h-.4l-.3-.7h-1l-.3.8h-.3zm.6-1.1h.8l-.3-.7-.2-.5v.5l-.3.7zm3 .8l-.4-2.4 1.7-.2v.3l-1.3.1v.8l1.3-.2v.3l-1.2.1.1 1.1h-.3zm1.7-1.4c0-.4 0-.7.2-1 .2-.2.5-.4.8-.4h.7l.5.4.2.6v.7c0 .2-.3.4-.4.5l-.6.2h-.6a1 1 0 01-.5-.4l-.3-.6zm.4 0l.3.6.7.2c.2 0 .4-.2.5-.4.2-.2.2-.4.2-.7l-.2-.5-.4-.3h-.4c-.3 0-.4 0-.6.2-.1.2-.2.5-.1.8zm2.6.8l-.4-2.4 1-.2h.5c.2 0 .3 0 .4.2l.1.3v.4l-.5.4h.2l.3.3.6.6h-.5l-.4-.4-.3-.3-.2-.1c0-.1 0 0-.1 0h-.6l.2 1.1h-.3zm0-1.4l.8-.1.3-.2a.4.4 0 00.2-.3c0-.2 0-.2-.2-.3h-1.2l.2.9zm4-.3h.3c0 .3 0 .5-.2.7a1 1 0 01-.6.3h-.7c-.2 0-.3-.2-.4-.4a1.6 1.6 0 01-.3-1.2c0-.2.1-.4.3-.5l.6-.3h.6l.5.5-.3.1a.8.8 0 00-.4-.3h-.4c-.2 0-.3 0-.4.2l-.2.4v.5l.2.5.4.2c.1 0 .3.1.4 0 .2 0 .4 0 .5-.2l.1-.5zm1 .7l-.8-2.3 1.8-.5v.3l-1.4.3.2.8 1.4-.4v.3l-1.3.3.3.8 1.4-.4.1.3-1.8.5z" stroke="none"/></g></svg>