<svg width="161" height="27" xmlns="http://www.w3.org/2000/svg" xmlns:xlink="http://www.w3.org/1999/xlink"><defs><path d="M7.77 0h11.46c2.7 0 3.68.28 4.67.81.99.53 1.76 1.3 2.29 2.3.53.98.81 1.96.81 4.66v11.46c0 2.7-.28 3.68-.81 4.67a5.51 5.51 0 0 1-2.3 2.29c-.98.53-1.96.81-4.66.81H7.77c-2.7 0-3.68-.28-4.67-.81a5.51 5.51 0 0 1-2.29-2.3C.28 22.92 0 21.94 0 19.24V7.77C0 5.07.28 4.1.81 3.1A5.51 5.51 0 0 1 3.11.81C4.08.28 5.06 0 7.76 0Z" id="a"/></defs><g fill="none" fill-rule="evenodd"><mask id="b" fill="#fff"><use xlink:href="#a"/></mask><use fill="#49BAFF" xlink:href="#a"/><circle fill="#7CD5FF" mask="url(#b)" cx="13.5" cy="35.91" r="18.77"/><g transform="translate(6.75 4.09)" fill-rule="nonzero"><path d="M6.75 18.83c.97 0 6.75-7.05 6.75-12.1a6.74 6.74 0 0 0-13.5 0c0 5.05 5.78 12.1 6.75 12.1Z" fill="#E25688"/><path d="M1.35 5.85c0-2.06.92-3.9 2.38-5.14A6.74 6.74 0 0 0 0 6.74c0 5.04 5.77 12.09 6.74 12.09.22 0 .66-.34 1.22-.92-1.26-.5-6.61-7.2-6.61-12.06Z" fill="#000" opacity=".08"/><ellipse fill="#FFF" cx="6.74" cy="6.74" rx="2.39" ry="2.38"/></g><g fill="#222" fill-rule="nonzero"><path d="M35.47 7.29h2.41l1.58 6.46.2 1.2h.12l.26-1.2 2.02-6.46h2.14l1.98 6.46.26 1.18h.13l.2-1.18 1.55-6.46h2.41l-2.97 11.5h-2.33l-1.97-6.93-.25-1.24h-.13l-.26 1.24-2.06 6.94h-2.23zM54.81 19.06c-.85 0-1.6-.2-2.27-.57A4.06 4.06 0 0 1 51 16.93a4.47 4.47 0 0 1-.55-2.23c0-.82.18-1.56.55-2.22.37-.67.89-1.19 1.55-1.57a4.48 4.48 0 0 1 2.27-.57c.84 0 1.59.19 2.25.57.67.38 1.18.9 1.55 1.57.37.66.56 1.4.56 2.22 0 .82-.19 1.57-.56 2.23a4.06 4.06 0 0 1-1.55 1.56c-.66.38-1.41.57-2.25.57Zm0-1.95c.4 0 .78-.1 1.13-.29.34-.2.61-.47.82-.83.2-.37.3-.8.3-1.3 0-.47-.1-.9-.3-1.26-.2-.37-.48-.65-.82-.84-.35-.2-.72-.29-1.13-.29-.4 0-.78.1-1.13.3-.34.18-.61.46-.82.83-.21.36-.32.79-.32 1.27s.1.9.32 1.28a2.16 2.16 0 0 0 1.95 1.13ZM60.4 10.6h1.97v1.1h.13c.2-.4.52-.71.95-.97.43-.25.9-.37 1.42-.37.37 0 .71.05 1.03.17v2.11c-.3-.1-.54-.19-.74-.23-.2-.05-.4-.08-.63-.08a1.8 1.8 0 0 0-1.48.68 2.62 2.62 0 0 0-.55 1.7v4.09h-2.1v-8.2ZM67.34 7.29h2.11v11.5h-2.1zM74.97 19.06a3.8 3.8 0 0 1-3.45-2.1 4.76 4.76 0 0 1-.53-2.26c0-.84.18-1.59.53-2.25a3.8 3.8 0 0 1 3.45-2.1c.55-.01 1.05.11 1.48.35.43.24.75.54.98.9h.13l-.13-1.16V7.28h2.09V18.8h-1.96v-.98h-.13c-.22.35-.54.65-.98.88-.43.24-.93.36-1.48.36Zm.35-1.95c.4 0 .77-.1 1.11-.3.34-.2.62-.5.82-.86.2-.36.3-.78.3-1.25s-.1-.9-.3-1.26a2.18 2.18 0 0 0-3.84 0c-.2.37-.3.79-.3 1.26s.1.89.3 1.25a2.24 2.24 0 0 0 1.91 1.16ZM84.94 8.82h-1.29V7.54h4.95v1.28h-1.28v8.7h1.28v1.28h-4.95V17.5h1.3zM90.28 10.6h1.98v1.03h.13c.24-.4.6-.71 1.04-.94.45-.24.94-.35 1.47-.35.98 0 1.73.3 2.25.9.51.6.77 1.42.77 2.46v5.1h-2.1v-4.84c0-.53-.14-.93-.41-1.22a1.46 1.46 0 0 0-1.13-.44c-.56 0-1.02.22-1.37.66-.35.44-.52 1-.52 1.66v4.18h-2.11v-8.2ZM100.64 12.4h-1.47v-1.8h1.47v-.45c0-.94.28-1.67.83-2.2.56-.53 1.3-.8 2.2-.8.5 0 .95.06 1.33.18V9.4a4.5 4.5 0 0 0-.54-.2 2.03 2.03 0 0 0-.54-.06c-.35 0-.64.1-.85.3-.22.21-.33.5-.33.85v.32h2.02v1.8h-2.02v6.4h-2.1v-6.4ZM109.84 19.06c-.85 0-1.6-.2-2.27-.57a4.06 4.06 0 0 1-1.55-1.56 4.47 4.47 0 0 1-.56-2.23c0-.82.19-1.56.56-2.22.37-.67.89-1.19 1.55-1.57a4.48 4.48 0 0 1 2.27-.57c.83 0 1.58.19 2.25.57.66.38 1.18.9 1.55 1.57.37.66.56 1.4.56 2.22 0 .82-.19 1.57-.56 2.23a4.06 4.06 0 0 1-1.55 1.56c-.67.38-1.42.57-2.25.57Zm0-1.95c.4 0 .78-.1 1.12-.29.35-.2.62-.47.82-.83.2-.37.31-.8.31-1.3 0-.47-.1-.9-.3-1.26-.21-.37-.48-.65-.83-.84-.34-.2-.71-.29-1.12-.29-.41 0-.78.1-1.13.3-.34.18-.62.46-.83.83-.2.36-.31.79-.31 1.27s.1.9.31 1.28a2.16 2.16 0 0 0 1.96 1.13ZM119.1 9.35h-3.23V7.29h8.61v2.06h-3.22v9.45h-2.17zM124.97 10.6h1.97v1.1h.13c.2-.4.52-.71.95-.97.43-.25.9-.37 1.42-.37.37 0 .72.05 1.03.17v2.11c-.3-.1-.54-.19-.74-.23-.2-.05-.4-.08-.63-.08a1.8 1.8 0 0 0-1.48.68 2.62 2.62 0 0 0-.55 1.7v4.09h-2.1v-8.2ZM134.09 19.06c-.87 0-1.59-.26-2.14-.77a2.58 2.58 0 0 1-.84-2c0-.55.14-1.03.43-1.45a2.8 2.8 0 0 1 1.2-.96c.5-.23 1.06-.34 1.67-.34.84 0 1.57.12 2.17.37v-.35c0-.45-.17-.82-.5-1.1-.35-.28-.8-.42-1.37-.42a2.63 2.63 0 0 0-2.01.97l-1.35-1.06c.4-.52.9-.91 1.5-1.2a4.6 4.6 0 0 1 1.96-.41c1.25 0 2.2.29 2.86.87.66.58.98 1.42.98 2.54v5.05h-2.07v-.84h-.13a2.8 2.8 0 0 1-.97.8c-.4.2-.87.3-1.4.3Zm.5-1.64c.6 0 1.09-.2 1.45-.59.36-.4.54-.85.54-1.38a4 4 0 0 0-1.72-.38c-1.1 0-1.64.4-1.64 1.22 0 .33.11.6.35.81.24.21.57.32 1.01.32ZM139.52 10.6h2.4l2.07 5.33h.13l2.1-5.33h2.37l-3.5 8.2h-2.1zM153.34 19.06c-.82 0-1.55-.19-2.2-.57a4.03 4.03 0 0 1-1.54-1.55 4.47 4.47 0 0 1-.56-2.23 4.49 4.49 0 0 1 2.06-3.78c.65-.4 1.36-.59 2.16-.59.84 0 1.57.18 2.18.55.62.36 1.08.86 1.4 1.5a4.64 4.64 0 0 1 .42 2.8h-6.16c.1.66.37 1.16.78 1.5.41.33.91.5 1.49.5.48 0 .9-.1 1.25-.31.34-.21.62-.5.82-.85l1.7.84a4.11 4.11 0 0 1-3.8 2.19Zm1.94-5.36a1.63 1.63 0 0 0-.28-.76c-.16-.25-.4-.46-.69-.63-.3-.17-.64-.25-1.04-.25-.5 0-.93.15-1.3.44-.35.3-.61.7-.77 1.2h4.08ZM158.93 7.29h2.11v11.5h-2.1z"/></g></g></svg>