<svg xmlns="http://www.w3.org/2000/svg" viewBox="0 0 450 300"><path fill="#009543" d="M0 0h450v300H0z"/><path fill="#fff" d="M0 0h450v210H0z"/><path fill="#00209f" d="M0 0h450v90H0z"/><g fill="#fff"><path fill="#000" stroke="#000" d="M225 96l-4 1 1 21-7 6h5v12l-30 41-5-1-8 17s20 12 48 11c31 0 48-12 48-12l-8-17-4 2-31-41v-12h5l-7-6V97l-3-1z"/><path fill="none" stroke="#000" stroke-width="5" d="M235 144h-21s-7-16-6-27c1-12 8-17 16-18 11 0 16 6 18 17 1 11-7 28-7 28z"/><path d="M188 183l-3 5 4-1-1-4zm2 6l-4 2 5 2-1-4zm2-6l3 6 5-1-1-3-7-2zm4 9l1 3 7 2-3-7-5 2zm8-6l3 6 6-2-2-2-7-2zm4 9l1 2 9 1-4-5-6 2zm8-7l4 6 8-3-1-3h-11zm5 8l2 3 10-1-4-5-8 3zm11-8l3 5 6-3-2-3-7 1zm10 4l-6 3 2 3 8-2-4-4zm3-5l3 4 5-4-2-2-7 2zm9 2l-5 4 2 2 7-1-4-5zm8-8l1 2-4 5-3-5 6-2zm2 4l2 5-4 1-1-2 3-4z"/></g></svg>