<svg xmlns="http://www.w3.org/2000/svg" xmlns:xlink="http://www.w3.org/1999/xlink" viewBox="0 0 640 320"><path fill="#d3ae3b" d="M0 0h640v320H0z"/><path fill="#c40308" d="M16 16h608v288H16z"/><path fill="#B96B29" d="M390 157c2 0 8-2 13-6 4-3 5-6 5-8v-2l-7 5a27 27 0 01-6 2h-1c1 0 5-1 8-5 3-3 6-8 6-11s0-2-1-2l-6 7a60 60 0 01-7 4c-1 1-4 2-1 0s9-7 11-13c3-6 2-10 2-10 0-1 0-2-1-1 0 1-4 9-7 12l-3 3h-1l7-11 2-10-2-7-1-1-4 12a47 47 0 01-4 9c-1 1-2 2-1 0s5-11 5-19l-2-14-2-3-1 13c-1 7-4 12-4 12s-1 1 0-1a32 32 0 002-9l-1-14-4-8c-1 7-1 17-4 24h-1a42 42 0 01-5 13l-4 7-1-2h-1l-7 9c-4 5-6 7-6 11 0 3 2 5 5 6 2 2 2 3 2 5l-4 2h-5l-2 3-2 1h-1c0-9 4-13 4-13l-10-11-2 1a3 3 0 000-1 7 7 0 01-2-5h3v-2l-1-4 1-2 2 2 1-2 2-5 3 1a9 9 0 006-2l2-2 6 1c3 0 6 0 7-3s0-5-1-6h-1l-1 4-5 1a14 14 0 00-9 0c1-1 3-3 5-3 2-1 3 0 3 1s2 2 2 0a7 7 0 000-5 5 5 0 00-5-2h-3s-1-3-3-3c-4-1-7 0-10 2h-4a14 14 0 01-4-2l1-3h1l1-1-1-1s0-2 2-3l2-1h1l1-1 1-1v-3l1-1v-2l-1-2-1-2-1-1 1-1a2 2 0 00-2-1h-1l-2-2h-1v-1l-2-1h-1l-4-1h-1l-3-1-1-1 1-2a4 4 0 00-2-4h-1v-1h2v-3h-2v-2h-4l1 2h-2v3h2v1l-2 1c-1 0-2 1-2 3l1 2-1 1-3 1h-2l-4 1-2 1v1h-1l-2 2h-1l-2 1c-1 1 1 1 1 1l-1 1-1 2-1 2v2l1 1v3l1 1 1 1h1l2 1c2 1 2 3 2 3l-1 1 1 1h1l1 3-4 2h-4c-3-2-6-3-10-2-2 0-3 3-3 3h-3a5 5 0 00-5 2 7 7 0 000 5c0 2 1 1 2 0 0-1 1-2 3-1 2 0 4 2 5 3a14 14 0 00-9 0 5 5 0 01-5-1l-1-4h-1s-3 3-1 6c1 3 4 3 7 3l6-1 2 2c2 2 4 2 6 2l3-1 2 5 1 2 2-2 1 2-1 4v2h3l-2 5v1l-2-1-10 11s4 5 4 14v-1h-1l-2-1-2-3h-5l-4-2c0-2 0-3 2-5 3-1 5-3 5-6 0-4-2-6-6-11l-7-9h-1l-1 2-4-7a42 42 0 01-5-13h-1c-3-7-3-17-4-24l-4 8-1 14 2 9v1l-4-12-1-13-2 3-2 14c0 8 3 16 5 19 1 2 0 1-1 0a47 47 0 01-4-9l-4-12-1 1-2 7a34 34 0 002 10l7 11h-1l-3-3c-3-3-7-11-7-12-1-1-1 0-1 1 0 0-1 4 2 10 2 6 8 11 11 13s0 1-1 0l-7-4-6-7c-1 0-1-1-1 2s3 8 6 11c3 4 7 5 8 5h-1a27 27 0 01-6-2l-7-5v2c0 2 1 5 5 8 5 4 11 6 13 6l1 1-5-1-11-5c-1-1-2-1-1 1 0 2 2 6 6 8l11 4h1a33 33 0 01-13-2l-1-2-2 1-1-1v-2h-1l-3 1 1 2 1 2h-3v1l1 3h1l2-1v3l-1 1v1l4 4 3 15c0 7 5 11 6 11v3a4 4 0 002 3v5l4 7v1l-1 1a8 8 0 00-2 2v3l2 3-1 1 2 3 3 1v1l2 2h4v7l2-1 2 1a6 6 0 002 1v-2l1-2 2-1 2-1-3-1-2-2-1-1 1-1v-1l1-2 1-1 2-3 3-2 3-3 4-2 1 2c1 1 2-1 5-3l6-3 1 2c1 1 2 0 6-5a73 73 0 019-10h1l-1 1-1 3-4 4-1 6c-1 2 1 3 1 3l-3 3-1 5-1 1-4 4-5 4v1l3 3h3v1l-1 4c0 2 1 2 3 1l4-1-1 1v2l1 2h2l3-1 2-1-1 1v4l2 2h2l3-3 1 4 4 6 4-6 1-4 3 3h2a6 6 0 002-2v-4l-1-1 2 1 3 1h2l1-2v-2l-1-1 4 1c2 0 3 1 3-1l-1-4v-1h3l3-3v-1l-5-4-4-4-1-1-1-5-3-3 1-3-1-6-4-4-1-3a21 21 0 00-1-1h1a73 73 0 019 9c4 6 5 7 6 6l2-2 5 3 5 3 1-2a70 70 0 018 3c3 1 3 2 5 4s6 1 9 0a199 199 0 0020-8l1-3-1-2v-1a3 3 0 00-1-2v-3c0-3-2-7-6-8v-1l-1-1v-2h1l1 1 1-1v-4h-2l1-1v-1l-4-1v2h-1a8 8 0 01-1 0h-1l-1 3v1h3l-1 2h-3l-6 2c-3 2-3 4-4 5l-1 1-1 2-1 2c-1 1-2 4-1 6l3 4-1 1-2-1-5-5-1-1h2v-1a11 11 0 01-3-2v-1c1-1 3-2 1-2l-5-2h-1l1-2v-1l-6-1c-4-2-6-5-7-9 1 2 2 4 5 5 4 0 4-1 3-3l-2-2h1c1 1 3 4 8 3l6-1-2-2v-1h8l6-3-5-1c-1-1-2-2 0-1h8c2-1 4-2 4-5l-4-1-2-1s5 2 9-1c5-2 5-5 5-6v-1l-7 1h-4s8 0 12-3c4-2 5-7 5-7l-8 2h-6 1l11-4c4-2 6-6 6-8 1-2 0-2-1-1l-11 5-5 1 1-1zm-150 10l-2 1-1-2 2-1 1 2zm51 30l-6 5-5 1v1l1 2-2 1-5 1 1 2 1 1-3 2v1l3 1-2 1a12 12 0 01-5 2h-12v-3l-2-5-3-3v-4l-2-2-1-2-1-7-5-10a26 26 0 01-3-13v-1a9 9 0 003 2c4 3 12 3 12 3h-4l-7-1v1s0 4 5 6c4 3 9 1 9 1l-2 1-4 1c0 3 2 4 4 5h8l-1 1-4 1 6 3h8c2-1 0 0 0 1l-2 2 6 1c6 0 7-2 8-3h1l-2 2c-1 2-1 3 3 3 3-1 4-3 5-5l-1 4zm44-119l-1-1 4 2 1 3v6l-2 1h-2l-1-1c1-1 2-1 2-4 1-2 0-5-1-6zm-11 7v-5l-1-6 4 3 3 5-1 3v2l-1 1h-3l-2-1h-1l2-2zm-11-8l4-3-1 6v5l2 2h-1l-2 1h-3l-1-1v-2l-1-3 3-5zm-8 12h-3l-1-1v-6l1-3 4-2-1 1-2 6 3 4-1 1zm29 21l-3 2 2 1-3 3-4 2v1l1 2h1l-4 4-3 2v2l2 2v2l-3 3-3-3v-2l2-2v-2l-3-2-4-4h1a4 4 0 001-2v-1l-4-2-3-3 2-1-3-2-3-3 4-3v-3c4 2 9 2 13 2s9 0 13-2v3l4 3s0 2-3 3z"/><path fill="#D4AF3A" d="M347 159c0-7 4-12 4-12l-9-9c-8 3-15 3-22 0-7 3-14 3-22 0l-9 9s4 5 4 11c0 7-2 12-3 16 0 3-1 9 1 13 2 5 3 9 11 12l14 7 4 4 4-4 14-7c8-3 9-7 11-12 2-4 1-10 1-13-1-4-3-9-3-16z"/><path fill="#B96B29" d="M345 161c-1-6 2-12 2-12l-7-8c-5 3-13 2-20-1-7 3-15 4-20 1l-7 8s3 6 2 12l-3 21c1 4 4 9 7 12s8 4 11 6a31 31 0 018 4l2 2 2-2 8-4 11-6c3-3 6-8 7-12l-3-21z"/><path fill="#1D5E91" d="M344 162c-1-7 2-13 2-13l-6-7c-6 3-13 2-20 0-7 2-14 3-20 0l-6 7s3 6 2 13l-2 20v1h6l1-1 1-1v-1h2l1-1 1-2 1-3v-2h-1v-5s-4 1-4-2l-1-5h-1l-2-2-1-3h1s1 2 2 1l-1-1v-5l1 1h1v-1l1-1 1 2v-1h1v9l2 3h1l2-3h2l1-1h-1l-1-1-1-2-2-1-1-2c0-1 1-2 1 0s1 1 2 1v-2l1-1 2-1h1v-1a6 6 0 012 0h5l1 1 2 1 1 1-1 1h-1l1 1v1l1 1-2 1v1l1 2h1v1h-1l-1 1h-1l1 2 2 1h3l3-1 3 1h4c2 0 2-1 2-2l-3-1-5-1c-1 0-4-1-5-3 0-3 2-3 2-4l4-1 5-1h3l1 1c0 1-1 2-3 2l-5 1-3-1c-1 0-2 1-1 3l6 1c1 0 6 0 7 2s0 5-1 5l-4 1-1 1v1l1 2h2l2 2 1 3v3l-1 2-1 3h6v-1c1-5-1-13-2-20z"/><path fill="#6D8C3E" d="M294 186a18 18 0 008 9c6 4 8 3 13 6l5 4 5-4c5-3 7-2 13-6a18 18 0 008-9h-52z"/><path fill="#D4AF3A" d="M299 158l2 1 1 1 1 4c1 2 3 2 3 2a10 10 0 010-3v-1l-1-1a14 14 0 01-2-4l1-4v-1h-1v1l-1-1h-1l1 1h-2v2l1 2h-1a1 1 0 00-1 0v1zm0-1l-1-1v1h1zm1-5l-1-1v1h1zm1-1h1v-1h-1v1zm3 0h-1l1 1v-1zm3 16c1 1 2-1 3-2s1 0 1 1a5 5 0 001 3h1v-3l1 1 1 2 1-1v-2h1l1 1 1-1v-2h3l-2-3v-1h1l2-1-1-1-2-1h-1v-1h-1l-1 1 1-1v-2h-2s0 1 0 0h1l1-1c1 0 0-1 0 0h1l1-1v-2h-2l-1 1c0 1 0 0 0 0v-1l-1-1h-2l-1 1h-3l-1 1v1h1v1c0 1 0 0 0 0h2v2l-1 1h-1 3l1 1v1l-1 1h-1l-3 1-2 2h1l3-1v1h1l1-1h1l-1 2 2-1v1l-1 2-1-1v-1h-3v-1l-2 1-1 2v2z"/><path fill="#D4AF3A" d="M318 149h1l1-1h-1l-2 1h1zm2 3h1l1-1h1l-1-1h-2v2zm0 1l-2 1c-1 0 0 0 0 0a4 4 0 001 2h1l1-1h2l-1-2a2 2 0 00-2 0zm-9 2l1-1h-1l-4-2v2l4 1zm-6 27v1h3v-1l1-3 1-4v-1l-1-2h-1v1l-1 3-2 4h-2l-1 1 1 1 1-1h1v1zm-4 0l-1 1h2a1 1 0 000-1h-1z"/><path fill="#D4AF3A" d="M303 182v1h1v-1h-1zm16-1v1l-1 1h1l1-1-1-1zm2 1h-1v1h1v-1z"/><path fill="#D4AF3A" d="M328 174l1-1-1-1-1-1-3 1-1 2v1h1l1 1v2l-1 2h-4l1 1v2h4l1-2 1-1 1-2-1-1a3 3 0 010-2l1-1z"/><path fill="#D4AF3A" d="M322 165v1h-2a3 3 0 01-1 2h-2l-1 2h-1c-1-1 0 0 0 0l-1-1h-1l-1 1-2-1v-1l-2 1h-2l1 2 1-1h2v2l1 2 1-1 1-2 2 1 1 1 1-2s1-1 0 0l1 1 5-2h5l1-1h-5 1a40 40 0 014-1l1 1v4l3 2h1l1-1 2 1v1l1 1-1 1-1 2h-2l-1 1v2l1-1h2v1h2a87 87 0 002-3v-7l-1-2-3-1-1-4-3-2h-9v1z"/><path fill="#D4AF3A" d="M332 182l-1 1h2v-1h-1zm2 0v1h2v-1h-2zm-40 1v2h52v-2h-52zm35-25c1 2 6 2 9 2 2 1 2 2 1 3l-4 2v1l2-1 4-1v-4l-5-1-5-1c-2 0-3-1-3-2l2-2h8l3-2h-2l-4-1-4 2c-1 0-3 0-4 2s0 2 2 3z"/><circle cy="151" cx="315" fill="#B96B29" r="1"/><path fill="#B96B29" d="M336 152l-3 1h5l-2-1z"/><path fill="#1D5E91" d="M324 176h-1l-1-1v-3l-2 1h-3l-1 1-2-1-2 1-1 3a13 13 0 00-1 4v2h8v-1l1-1 1-1h3l1-1v-3zm13 1l-1-1h-1v1h-2l-3-2-1-1-1 1v1l1 2-1 3-1 2h4a2 2 0 010-1l1-1 2-1 2-1 1-1v-1z"/><path fill="#D4AF3A" d="M304 220l3-1 1-3 1-1-1 2a10 10 0 000 5c0 2 1 2 2 2l2-2 1-2 1-2v2l-1 4 1 4c1 0 2-1 2-4l2-3v3a12 12 0 001 4l1 1 1-1 1-4v-3l2 3c0 3 1 4 2 4l1-4-1-4c0-2 0-2 1 0l1 2 2 2c1 0 2 0 2-2l-1-7 1 1 1 3 3 1v-4c0-3-3-4-4-6l-3-5a18 18 0 00-5 3l-4 4-4-4a18 18 0 00-5-3l-3 5-3 2-1 4v4z"/><path fill="#D4AF3A" d="M304 228l1-1h1v5l1 1 2-2h1v4c0 2 1 2 2 1a22 22 0 003-4c0-1 1-2 1 0 0 3 0 8 4 9 4-1 4-6 4-9 0-2 1-1 1 0l3 4c1 1 2 1 2-1v-4h1l2 2 1-1v-5h1l1 1a4 4 0 002 1s1-3-1-5l-2-3h-1l-1-1v2l2 2s1 1 0 0l-2-1-1 2h-2v1l2 3-1-1-2-3h-1v3l-1 1 1 3h-1l-1-3h-2l-1-2-1 2-1 2-1 4-1-4-1-2-1-2-1 2h-2l-1 3h-1l1-3v-1a8 8 0 01-1-3h-1l-2 3-1 1 2-3v-1h-2l-1-2-2 1c-1 1 0 0 0 0l2-2v-2l-1 1h-1l-2 3c-2 2-1 5-1 5l2-1zm17 22l-1-1-1 1-3 3 1 4 3 4a11 11 0 003-4l1-4-3-3z"/><path fill="#B96B29" d="M320 254l1-2h-2l1 2z"/><path fill="#D4AF3A" d="M320 101l-11-1h-2c4 2 7 2 13 2s9 0 13-2h-2l-11 1zm14-3l-3-2v-1l3-1 1-1-4-1h-22l-4 1 1 1 3 1v1a28 28 0 00-3 2h2a63 63 0 0126 0zm-5 1h-18l9 1 9-1zm-10-36h2v-2h2v-1h-2v-2h-2v2h-2v1h2zm5 3h-3v-3a4 4 0 00-2 0v3h-2a3 3 0 00-1 1h8a3 3 0 000-1z"/><path fill="#1D5E91" d="M320 70l4-2h-7a4 4 0 003 2zm2-6v1h1a4 4 0 00-1-1zm-3 0l-2 1h2v-1z"/><path fill="#B96B29" d="M322 93l-2-1-2 1-1 1v1l3 2 3-2v-1l-1-1z"/><path fill="#D4AF3A" d="M318 94l2 1 2-1-2-1zm2-9v1l-1 1 1 1 1-1-1-1v-1z"/><path fill="#D4AF3A" d="M318 86l1-1 1-1v1l2 1 1-2v-7l-1-7-2 1a5 5 0 01-2-1l-1 7v7l1 2z"/><circle cy="82" cx="320" fill="#B96B29" r="2"/><circle cy="77" cx="320" fill="#B96B29" r="2"/><circle cy="73" cx="320" fill="#B96B29" r="2"/><circle cy="81" cx="320" fill="#D4AF3A" r="1"/><circle cy="77" cx="320" fill="#D4AF3A" r="1"/><circle cy="73" cx="320" fill="#D4AF3A" r="1"/><path fill="#b96b29" d="M320 224v-4 4c0 1 0 0 0 0z"/><g id="a"><path fill="#d4af3a" d="M300 239l4-2c2-1 2-3 2-3l-1-1v-5l-2 2h-2v-1l-1 2-5 4-4 3v1l4 2c3 1 4-1 5-2z"/><path fill="#d4af3a" d="M311 238c-1 0-2 0-2-2v-3h-1l-1 1v1c-1 1-1 2-3 2l-3 2-2 3a5 5 0 00-3 3l1 2 4-1 7-4 3-4z"/><path fill="#d4af3a" d="M317 240l-1-2-1-4-1 2-2 2-1 2a14 14 0 01-4 3l-4 4-1 3h2l8-3c3-2 5-7 5-7z"/><path fill="#d4af3a" d="M318 248l2-5-1-1-2-1-1 2a9 9 0 01-3 3l-4 4 1 5h2l2-2 4-5z"/><path fill="#b96b29" d="M306 217l2-3 1-2-2 2-1 3c-1 1-1 1 0 0zm5 1l1-1v-1l-1 2-1 3 1-3zm5 3v-2s0-1 0 0l-1 2v1l1-1zm-14 13l-1 1-1 1-2 1-1 1h1l1-1 2-1 1-2zm5 5l1-1-1 1-2 1-1 1-3 2h1l2-1 1-1 2-2zm5 4c1-1 0 0 0 0l-3 2-2 1v1l1-1h1l1-1 2-2zm3 5l-3 3-1 1h1l1-1 2-2 2-2v-1l-2 2z"/><path fill="#c52126" d="M290 113a15 15 0 00-12-1 7 7 0 01-4 0 5 5 0 01-3-4s-2 3 0 5a5 5 0 003 2l9-2c3 0 5 2 5 2h2v-2z"/><path fill="#d4af3a" d="M280 212h-1l-1-1h-1l-3 2h4l2-1z"/><path fill="#d4af3a" d="M292 211l-1-2-1 1-2 3c-1 1-2 2-1 0l2-3 1-1h-3l-3-2-2-1-4 2h-1l3 1 3 1 2 1-2 4a14 14 0 00-1 6l4-3a56 56 0 015-3l1-1v-3z"/><path fill="#d4af3a" d="M304 201h-1l-3 3h-1a12 12 0 013-3 36 36 0 01-5-3 7 7 0 01-1 1l-2 2 1-2 1-2a21 21 0 01-3-3l-3 5c-2 3-7 4-7 4s-2 0-1 1h5l4-1v1l-6 1h-1l3 2h6l-1 3 1 4 1 2c0 1 0 1 0 0l2-4v-2s1-1 0 0v5l5-6 1-2 2-2 3-2-3-2zm-47-86l4 8 1 3-1-1-3-5-3-6h-1c-1 0-2 4-1 7l5 7 1 2-1-1-4-4a32 32 0 01-3-4c0-1 0-1 0 0l-1 3 4 7 3 3-3-2a95 95 0 01-5-4c0-1-1-1-1 2s3 6 5 7l2 3-2-1-5-3v3c1 3 3 5 5 6l3 2h-2l-4-2-1 1 1 4c1 2 4 2 6 3h2l-1 1h-4l-2 1 2 3 6 2 1 1h-2l-3 1c-1 1 0 2 1 3l6 1h3c1 1 0 1-2 1l-3 1c-1 1 0 2 1 3l6 1 4-1-3 2-2 1 2 2h5l2-1v1l-3 2-2 1c0 1 1 2 4 2l7-1 1-1v1l-3 2-1 1c0 1 0 2 2 3 2 0 5 0 7-2a6 6 0 002-1v-6a9 9 0 01-3 0l-2-3h-3c-1 0-2 0-3-2-2-1-1-2-1-3h-2l-4-1-1-3-1-1-2-2-2-2-2-2c-2-1-2-3-2-4l1-2-2-1c-1-1-2-1-2-3 0-3 2-3 2-3l-1-1c-1 0-3-1-3-3l1-2 2-1-1-2v-3l3-1h2v-1a4 4 0 010-3l2-2 5 1v-1l-3-4c-2-2-2-4-3-7l-3-9-1-1-2 3a17 17 0 00-1 7z"/><path fill="#d4af3a" d="M291 161a5 5 0 01-4-2c-1-2-3-3-6-2-3 0-4-2-5-4 0-2 0-4 3-6s5-3 5-6c0-2-3-5-6-9l-6-9-1 3v2l-2-1c-2-1-4-1-5 1s0 3 1 4l2 3-2-1-4-2c-2 0-2 1-3 2 0 2 2 3 3 4l2 1h-2a5 5 0 00-2 0c-1 0-3 1-1 3 1 2 4 2 4 2l1 1h-2c-1 0-3 2-2 3l4 3h2l-1 1-3 1 1 3 4 1h2l-2 2c-1 0-1 2 1 3h4l2-1c1 1-1 1-2 2s-1 3 1 4h5l1-1v3c-1 0-1 3 1 4s5-2 5-2h1v1s-1 2 1 3l3 1 1-5v1h-2l1-1h1v-1l1-1a65 65 0 001-8h-1zm-49-36c2 5 6 8 6 8l-1-2v-2l-2-4-3-6 3 6 3 3v-1h1l1 1-1-2-1-2-4-7-4-12c0-2-1-1-1 0l-1 7c0 3 1 8 4 13zm3 14l3 2-1-1v-2l-2-2a28 28 0 01-4-4l2 1 4 4v-1l1-1-2-2-8-9-4-7s-1 6 3 13l8 9zm19 38c2-1 2-3 2-3l-3 1-5 1h-1l3-1 4-2c1 0 1 0 0 0a3 3 0 01-1-1l-3 1-9 1-5-1v3c1 2 6 3 10 3l8-2zm-9-5l5-1v-1l-1-2h-7c-2-1-1 0 0 0l6-1c1 0 0 0 0 0l-3-2h-8l-7-1h-1l1 3 7 4 8 1zm-1-8v-2l-3-1-4-1-3-1 2 1 6 1h3l1-1h-1a6 6 0 01-2-1l-3-1-8-2-7-3h-1l3 4c1 2 2 3 7 5l10 2zm-14-12c4 3 9 4 10 4v-2h2v-1h-2l-5-2c-3-1-4-1-3-2l3 2 6 1h-1l-1-2-4-1a33 33 0 01-7-3l-2-1-3-3h-1l2 4 6 6zm-1-8l9 4c1 0 0 0 0 0v-2l-3-2-5-3c-1-1 0-1 0 0l4 2 4 3 1-1h1l-1-1-3-2-7-4a84 84 0 01-6-7v3c0 2 2 6 6 10zm15-32l2 2 1 2v-5l-1-1-1-5v-6c0-2 0-1 0 0l1 5 1 6v-1l2-3v-1l-2-11a428 428 0 01-1-12c-2 2-4 8-4 14l1 9 1 7zm-4 11l1-3-2-4-1-5v-1c1 6 3 8 3 8l1 3v-3l1-5-3-8-2-12-1-3s-2 1-2 9a46 46 0 005 24zm22 59l-2-1v-2l-1 1-3 1-2 1 2-1 4-3h-2l-2-1-5 3-8 2s0 2 2 3h9l8-3zm5 5v-3h-1l-4 3c-2 1-2 1 0 0l4-4h-1l-6 3c-5 3-8 3-8 3s2 3 8 2c6 0 8-3 8-4zm11-2l-1 1-3 1-1 1-2 2-3 1 2-1 2-2v-1h-2l-1 1-2 2-3 3v1l3 1 5-1 3-3 3-6zm2 7l-1 1 1-2v-1l-1-3-2 5c-2 2-3 3-2 4l4-1c2 0 2-2 2-3v-1l-1 1z"/><circle cy="106" cx="289" fill="#d4af3a" r="1"/><path fill="#d4af3a" d="M287 104l3-1 5 2a10 10 0 007 1l2-1c3-1 2-5 2-5a11 11 0 01-7 3l1 1-2-1a13 13 0 00-4-2h-6l-2 2 1 1zm31 23c-1 0-2 0-3-2a48 48 0 01-4-4l1-2 1-1-3-1-4-4v-1l1-1-2-1-3-3h-6l-4-1-1 1-3 1v-3l-3-1h-6l-2 4c0 2 1 1 1 1l3-2 6 3 4 3c1 1 0 2-2 2h-5s1 2 3 2h7l3 6a3 3 0 002-2s0-1 0 0l2 5-1 4h1l1-1c1-1 1 0 1 1l1 5 3 4 1-2v-11s2 3 4 3h6v-2z"/><path fill="#d4af3a" d="M302 134l-1 2-1 1 2 1h2l-2-2v-2zm14-1v-1l-6-1 2 3h2s-1 1-3-1l-2-3v6l-1 3 7-1 3-1v-1a19 19 0 01-2-3z"/><path fill="#b96b29" d="M310 125l-1-2v1a11 11 0 003 2 7 7 0 002 1l-4-2zm-4 8v-6h-1l1 7v-1zm-7-21c0-1-1-1 0 0l2 3v2l-1-1a10 10 0 00-3-1v1l2 2 3 2 1 1-1-6-3-3zm-21 66l-2 1h1l1-1 1-1-1 1zm7 4l-2 1h-1v1l3-2v-1 1zm-28-50l1 1-1-1v-1l-1-1s-1 0 0 0l1 2zm-2 5h1l-1-1h-1l1 1zm1 7l1 1-1-1-1-1a8 8 0 01-1-1h-1l1 1 2 1zm1 6h-1l-1-1 1 1h1zm1 7h-2 4-2zm7 7h-5 5zm3 5h-3v1h2l2-1s1 0 0 0h-1zm6 4l-2 1-1 1h1l2-2 1-1-1 1zm-10-50l1 1c1 2 1 0 1 0l-3-3 1 2zm-2 6l-1-1-1-2h-1l1 1 1 2h1zm3 13l-2-1h-2l3 1h1zm-3-7l2 1 1 1-1-1-1-1h-1s-1-1 0 0zm7-4l-1-1h-1l1 1 1 1v-1zm-5 17h-1 2-1zm1 6h1l2-1h-1l-1 1h-1zm8 4l1-1h-1l-1 1-1 1h-1 2l1-1zm4 5l1-1 1-1-1 1-3 1v1c-1 0 0 0 0 0l1-1h1zm6 5l1-2-2 1v1c-1 0 0 0 0 0h1z"/><path fill="#d4af3a" d="M306 97l2-2-3-1-2 2z"/><circle cy="95" cx="313" fill="#b96b29" r="2"/><circle cx="313" cy="94" fill="#d4af3a" r="1"/><path fill="#d4af3a" d="M308 88h2l-1-2-1-1v3zm-1 0l-1 1h1l1 1 1-1-1-1h-1z"/><path fill="#d4af3a" d="M308 91l-3-2c0 2-1 2-2 2l2 1h2a7 7 0 002-1v-1l-1 1zm-5-2h-3l2 1h1v-1zm-4-2h-2v1l1 1 2-1a3 3 0 00-1-1z"/><path fill="#d4af3a" d="M300 85c0-2 0-4 2-6 1-3 4-4 4-4l1-1 3-2-3 1-2 1h-1l-3 2v1l-1 1h-1v1l-1 2v1l-1 2v1l1 1 2 2v-3z"/><path fill="#d4af3a" d="M306 74v-1h-1v1h1zm-6 3v-1h-1v1h1z"/><circle cx="297" cy="82" fill="#d4af3a" r="1"/><path fill="#d4af3a" d="M316 70l-3 1 2 1-2 2-2-2h1l-2 1c-2 1-3 2-4 5-2 3-2 5-2 7 1 2 3 2 3 2v-3h1l1 1 1 1v-4l1-5a15 15 0 015-4l1-1v-1l-1-1z"/><path fill="#d4af3a" d="M313 73l1-1-1-1-1 1 1 1zm4 16h2v-1a1 1 0 00-2 0l-1 1h1zm2 1l-1 1-2-1-1-1h-1v1h-4 1l2 1h6l1-1h-1zm-8-1h1l1-1h-3l1 1z"/><circle cx="307" cy="81" fill="#b96b29" r="2"/><path fill="#b96b29" d="M310 75l-2 1v2l2-1v-2z"/><circle cx="307" cy="81" fill="#d4af3a" r="1"/><path fill="#d4af3a" d="M309 75l-1 1 1 1v-2z"/></g><path fill="#D4AF3A" d="M282 213l-3 1h-1l-4 3-4 2h-11l-5 1c-2 2-2 4 0 5s3 1 3 0v-3h5l4 1-1 1-2-1a9 9 0 00-3-1v1l1 1-1 1 1 1v-2h2l1 2v5l1-1 1-2v-1l1 2h1l1-1 3-3 4-3 4-3 1-2 1-3v-1zm-44-49v-2h-1l-1 1c-1 1-1 0-1-1v-2h-2l-1 1 1 2v1h-1l-1 1 1 2 2-1c0-1 0 0 0 0l1 3h2l1-1-2-3 2-1v-1zm15 64v-2a5 5 0 01-1-2v-1h-1l-2 2c0 1 1 3 3 3h1zm2-1v2l1 1v-2l-1-1z"/><path fill="#D4AF3A" d="M257 233l2-1h3l1-2-2-2h-1l-1 1-1 1-1 1-1-1h-5l1 2 2 1 2 1 1-1zm8 1l1-2h-3l-1 1-3 1-2 1h-2l1 1 2 1 1-1 1-1h3a6 6 0 002-1zm0-3h1l1-2-1-1-1 2v1zm-2-5l-1-2v2l-1 1h1l1-1zm-5 2l2-1v-1l-1-1h-1v1l-1 1 1 1zm2-4a2 2 0 00-1-1v-1 1l-1 1h2zm-12-24l1-4-4-10a49 49 0 01-5-9 25 25 0 01-1-6l1-3h-1l-1 2h-3l-2 1 2 1 2 1 2 5 1 8 3 10c0 1 3 5 5 4zm3 7l-1 6c0 2 2 5 3 5l1 1 2-1v-3l-2-5-3-3zm1-3l-3-2a2 2 0 00-1 0c-1 2-1 4 1 4h2l1-2zm17 35h-1l-2-2-1-1-3 1 1 1v5l1-1 2-2h3v-1z"/><path fill="#D4AF3A" d="M266 241h-1v2h1v1l1-1v-1l-1-1z"/><path fill="#1D5E91" d="M397 216h-2l-2 1-1 2 1 1 3-1 1-2v-1zm2-8c-1-2-2-5-5-7l-1 5v2l5 1 1-1zm-14-2l1-1 2-6-6 1-4 4 3 1 4 1zm-7 6h-1l2 4 4 2c3 0 4-1 5-2v-2l-6-1-4-1z"/><path fill="#D4AF3A" d="M378 210l10 2h2l1-1v-2h2l1 4 3 1h1l1-4-1-1-6-1v-1l1-6-5-2-1 7h-2l-7-1-1 1-1 3 2 1z"/><path fill="#D4AF3A" d="M400 216h-2l-1 4-5 2c-1 0-2-1-2-3l3-3v-3h-2a5 5 0 00-2 2l-2 3a8 8 0 01-6 2c-2-1-3-1-4-4l-2-6h-2l-1 3 1 3 2 3c1 1 2 3 0 3l-3-1-7-5-1-1-6-3 1 5v1a608 608 0 0013 7c2 1 3 3 6 2l11-3 10-3c2-1 2-1 2-3l-1-2zm-11-21h1l1 1-1 2v1h2v-1l1-2c0-1 0-1 0 0h2l1-1-1-1h-2v-1l1-1v-1h-2l-1 2h-2c0-1 0-1 0 0a115 115 0 000 2zm3 14v3h1v-1a4 4 0 00-1-1v-1zm7 5l1 1v-2h-1v1zm-25-5l1 1 1-2v-1h-1l-1 1v1z"/><circle cy="207" cx="379" r="2" fill="#B96B29"/><circle cy="209" cx="384" r="2" fill="#B96B29"/><circle cy="211" cx="396" r="2" fill="#B96B29"/><circle cy="210" cx="388" r="2" fill="#B96B29"/><circle cy="206" cx="389" r="2" fill="#B96B29"/><circle cy="202" cx="390" r="2" fill="#B96B29"/><circle cy="207" cx="379" r="1" fill="#D4AF3A"/><circle cy="208" cx="384" r="1" fill="#D4AF3A"/><circle cy="211" cx="397" r="1" fill="#D4AF3A"/><circle cy="209" cx="388" r="1" fill="#D4AF3A"/><circle cy="206" cx="389" r="1" fill="#D4AF3A"/><circle cy="202" cx="390" r="1" fill="#D4AF3A"/><use xlink:href="#a" transform="matrix(-1 0 0 1 640 0)" height="320" width="640"/></svg>