<svg xmlns="http://www.w3.org/2000/svg" viewBox="0 0 1000 500"><path fill="#0071bc" d="M0 0h1000v500H0z"/><g fill="none" stroke="#000" stroke-width="2"><path fill="#fff" d="M558 396s17-19 34-16c5-19 25-21 25-21s-2-21 22-26c1-15 16-27 16-27s-3-23 13-28c-10-18 3-32 3-32-1 0-17-29-2-37-15-12-10-27-10-27s-17-4-11-24c-14-2-16-24-16-24s-21 4-24-14c-13 2-15-11-15-11s-27 7-33-14c-10 6-15-4-15-4s-15 8-24-7c-18 11-28 0-28 0s-24 15-31 3c-14 14-27 8-27 8s-10 19-27 14c-4 17-23 18-23 18s2 15-22 19c-3 18-15 21-15 21s1 18-10 23c4 10-6 22-6 22s11 14-4 29c14 4 4 28 4 28s19 9 7 25c14 5 10 16 10 23 9 4 17 2 13 20 28 3 15 18 15 18s12 1 7 11c24-1 27 18 27 18s22-6 25 2c3 9-9 66-9 66s-19 0-33-15c-32-1-25-22-25-22-1 0-11 4-16-14-22 5-21-13-21-14 0 0-10-4-6-13-22 2-21-20-21-20-5-2-6-6-6-11-3-1-22-1-12-27-19-11-7-24-7-24s-26-14-6-29c-15-22 1-33 1-33s-21-21 0-36c-3-32 16-40 16-40s-10-26 17-36c2-27 21-27 21-27s0-21 30-19c6-19 26-15 26-15s7-23 34-12c14-27 35-13 35-13s13-9 20-6c8-15 26-1 38 2 4-2 19-13 30 1 16-10 29 8 29 8s21-10 31 14c44-4 38 25 38 25s35-8 27 27c32 2 29 23 29 23s20 16 11 29c18 1 12 18 12 18s13 6 2 27c26 21 5 42 5 42s14 17 1 36c4 32-12 40-12 40s4 20-13 25c-1 24-23 27-23 27s6 10-16 21c-1 16-24 17-24 17s-3 30-32 22c-7 23-42 16-43 16l-6-50z"/><path d="M599 420s-3 5 8 10m13-22s12-3 19 0m16-29s-2 5 7 12m-1-25s7 5 19 5m-88 9s1 14-6 20m29-40s12 3 21-2m52-18s2 4 14 3m-63-10s15 4 24 0m4-55l5 14m7-58s-1 8-8 12m50-46s-10 8-8 11m-40-16s5 8-3 14m-21-51s8 0 12 7m6-61s1 2-2 5m-60-5s4 8 4 17m23-41l8-3m-38-26s-3 9 2 12m-13 29c0 10 7 8 2 17m-21-25l-12 11m-19-16s5 5 4 12m-45-18l-7 11m-30-11s4 9-1 14m-64 20l10 2m-35 21l12-4m-32 19s9 2 11 1m-17 7s3 1 1 15m-40-51l5 8m-21 30c0-1 5 7 11 8m27 29l9-2m-13 30c1 0 0-5 6-9m-14 21s6 8 10 9m-13 5s6-5 14-5m-16 24s0 6 18 5m-17 17s6-13 17-17m-2 33s2-6 11-9m0 29l9-6m-1 22s4 5 14-3m-63 7c2 0 16-4 21 4m-15 8s16-2 18-1m38 4s-3 4 17-3m6 11c-3 6 1 10-3 13m-55-5c1-1 7-3 6-12m0 26c1-1 11-5 14-3m7 16s1-9 4-10m12 24s9 0 13-3m4-29c0 1 8 5 25 1m-18 38l2 15m237-303h7M526 75s-2 8-6 10m-65-53s0 6-4 11m-33 3s2 6-9 9"/></g><path d="M562 424s100-29 131-152c-18 127-128 167-128 167l-3-15zm-132-3s-100-29-130-154a215 215 0 00127 169l3-15z" fill="#f7df73" stroke="#000" stroke-linejoin="round" fill-rule="evenodd" stroke-width="2"/><g fill="#8c1800"><path d="M572 431c3 0 11-8 15-9 5-1 5-6 0-6s-9 6-9 6-5 4-9 4c-5 1-2 7 3 5zm21-15s-3-1 5-5c8-3 8-6 10-8 3-1 9-5 10-3s-6 7-8 7l-12 9h-5zm-173 13c-3 0-11-9-15-10-5-1-5-5 0-5 5-1 9 5 9 5s5 4 9 5c5 0 2 6-3 5zm-21-16s3-1-5-4c-8-4-8-7-10-9-3-1-9-5-10-3s6 7 8 8c1 0 9 8 12 8h5z"/><path stroke="#8c1800" stroke-width="2" d="M630 388s-11 6-9 8c1 1 11-6 11-6s4-5-2-2zm-268-3s11 6 9 8c-1 1-10-6-11-6 0-1-3-5 2-2z"/></g><g fill="none" stroke="#8c1800" stroke-linecap="round"><path stroke-width="3" d="M645 373l-6 7m17-20l-7 8m17-24l-7 12"/><path stroke-width="2" d="M675 327l-6 12m10-21l-2 5"/><path d="M683 307l-2 5"/><path stroke-width="3" d="M347 369l7 8m-17-21l6 9m-16-25l7 12"/><path stroke-width="2" d="M318 323l6 12m-10-21l2 4"/><path d="M310 302l1 5"/></g><path d="M344 116s7 6 6 16c-2 9-7 23-6 33v11s-6-9-7-20 8-19 8-27l-1-13zm-4 3s-10 9-11 18l-1 36-2 18c0 5 7-7 7-16l1-33 2-12 4-11z" fill="#217900" stroke="#000" stroke-width="2" stroke-linejoin="round"/><g fill="none" stroke="#6b18b5" stroke-linejoin="round"><path stroke-width="2" d="M276 180s7 9 8 15l6 19c3 5 20 28 20 38 1 6-6 17-17 17-6 0-22-4-23-18s5-15 6-23v-48z"/><path d="M389 56s-6 1-12 4c-4 2-11 6-15 12-13 10-31 14-37 22-3 6-3 19 6 24 5 3 21 8 29-3 8-12 4-15 7-23 7-18 22-35 22-36zm165-17s-5-4-10-6l-21-2c-15-2-31-13-41-12-6 2-15 11-13 21 2 6 9 19 23 16 14-2 13-5 22-8 20-11 40-9 40-9zm164 159c1-2-1-7-2-13-2-5-4-12-9-18-7-14-5-33-12-41-4-5-17-8-24 0-5 4-13 19-4 29 10 11 14 7 20 13 16 10 24 28 31 30zm-5 124c2-3 6-9 5-13l2-20c1-16 11-28 8-42-1-6-10-15-20-12-6 2-20 9-17 23s8 13 11 22c8 16 3 36 11 42z"/></g><g fill="#6b18b5"><path d="M492 27c0-2-3-4-6-4s-5 2-5 4 2 4 5 4 6-2 6-4zm2 9c0-2-2-4-5-4s-6 2-6 4 2 4 6 4 5-2 5-4zm7-11s-6 5-4 7c3 2 10-4 10-4l-6-3zm189 111l-1-4h-4l-1 4 1 3h4l1-3zm-2-9c0-3-2-5-4-5s-3 2-3 5c0 2 1 4 3 4s4-2 4-4zm2 18l-2-2-1 2 1 2c1 0 2 0 2-2zm5-16l-1-3c-1 0-2 1-2 3l2 2 1-2zm-15 1l-2-2-1 2 1 2 2-2zm2 13c0-1-1-3-3-3l-3 3c0 2 2 4 3 4 2 0 3-2 3-4zm-7-5c0-2-2-3-3-3s-2 1-2 3l2 2 2-2zm-2-8l-1-2h-2l-1 2 1 2h2l1-2zm35 40c-3-5-8-6-11-4s-3 7 0 11 8 6 11 4c4-2 3-7 0-11zm9 77c1-5-2-10-5-10-4-1-8 3-8 8-1 5 2 10 5 10 4 1 8-3 8-8zm2 45c1-5-1-10-5-11-3-1-7 3-8 8s1 10 5 11c3 0 7-3 8-8zm9-42c0-2-2-4-3-4-2 0-3 2-3 4s1 3 3 3c1 0 3-1 3-3zm-8 8l-6 7s-6 0-6 2c1 2 9 8 8 10 0 3 6 0 6 0l4-13s0-9-3-9c-2 0-3 3-3 3zm-414-3a3 3 0 10-6 0 3 3 0 006 0zm3-9c0-2-1-3-3-3-1 0-3 1-3 3s2 3 3 3c2 0 3-1 3-3zm-24-43c-2-3-4-4-6-4-1 1-2 4-1 6s4 4 5 4c2-1 3-4 2-6zm7 27c-2-4-5-5-7-4s-3 4-2 7 5 6 7 5 4-5 2-8zm8 20c0-4-1-8-4-9-2 0-5 3-5 7-1 4 1 7 3 8 3 1 5-2 6-6zm-13 3c2-4 1-8-1-10s-6 1-7 5c-2 4-1 8 1 9s6-1 7-4z"/><path d="M281 244c0-2-1-4-3-4s-3 2-3 4 1 3 3 3 3-1 3-3zm-2-9l-3-3-3 3c0 1 1 4 3 4 1 0 3-2 3-4zm3-16c0-3-2-6-3-6-2 0-3 3-3 6s1 5 3 5 3-2 3-5zm9-2c0-2-1-5-3-5-1 0-3 2-3 5-1 3 0 5 2 5 2 1 3-2 4-5zm63-127c2-4 0-8-2-9-3-1-6 1-7 5-2 5 0 9 2 10 3 1 6-2 7-6zm-12 18c4-3 5-7 4-9-2-2-6-1-10 2s-5 7-3 9 6 1 9-2zm-7-10c4-2 5-6 4-8-2-2-6-1-10 2-3 2-5 6-3 8 1 1 6 1 9-2zm27-18c3-2 4-4 3-5s-4-1-7 1c-2 1-3 4-2 5s4 1 6-1z"/><path d="M348 98c2-3 2-6 0-6-1-1-4 0-5 3s-2 5 0 6c1 1 4-1 5-3zm21-11c2-2 3-5 2-6s-4-1-7 1-4 5-2 6 4 1 7-1zm-37 25c2 0 4-1 4-3l-5-2c-2 0-4 1-4 3 0 1 2 2 5 2zm45-38v-6c-2-1-4 0-6 3s-2 5 0 6l6-3z"/></g><path d="M553 88s13-5 16-16c4-11-10-11-12-8-2 4 1 12 0 15-1 2-6 7-4 9zm-111 4s8-11 6-22-15-4-15 0 7 9 8 12c0 2-2 9 1 10zm-22 7s8-11 6-22-15-5-15-1 7 10 8 12c0 3-2 10 1 11zm-25 8s8-12 6-23-15-4-15 0 8 10 8 12-1 10 1 11zm-17 17s8-11 6-23-15-4-15 0 7 10 8 12c0 3-2 10 1 11zm-18 16s8-11 6-22-15-4-15 0 7 9 8 12c0 2-2 9 1 10zm42-96s-11 8-12 19c-1 12 13 9 14 5s-4-12-4-14 4-9 2-10zm36-12s-11 9-12 20c-1 12 13 8 14 5 1-4-4-12-4-14 1-3 4-9 2-11zm-135 98s2 14 11 20c10 7 14-7 11-10s-12-2-14-3c-2-2-6-8-8-7zm-18 47s0 13 8 21 14-5 12-8c-2-4-11-4-13-6-2-1-5-8-7-7zm41 51s-5-12-15-17c-11-4-12 10-8 12 3 3 12 0 14 1s7 6 9 4zm-8-22s8-11 6-22-15-5-15-1 7 10 8 12c0 3-2 10 1 11zm261-106s13-6 16-17c4-11-11-11-13-8-2 4 2 12 1 15-1 2-6 7-4 10zm38 19s7-12 5-23-16-3-15 0c0 4 8 10 8 12 1 2-1 10 2 11zm104 107s-5-13-16-17c-10-4-11 10-8 12s12-1 14 1c2 1 8 6 10 4zm-51 8s0-14 9-21c8-8 14 5 12 9-3 3-12 3-14 5-1 1-4 8-7 7zm-8-147s-13-4-23 1c-11 5-1 15 3 14s8-10 10-11c2 0 10-1 10-4zm-30-24s-13-5-23 0 0 15 4 14c3-1 7-9 9-10 3-1 10-1 10-4zm-44-24s-11 8-12 20c-1 11 13 8 14 4 1-3-4-11-4-13 1-3 4-9 2-11zm-29-7s-5 13 0 23 16 1 15-3-10-8-11-10-1-10-4-10zm-81 50s9-11 7-22c-1-11-14-5-14-1-1 4 6 10 6 12 0 3-2 10 1 11z" fill="#ffd200" stroke="#ef8a10" stroke-width="2"/><g fill="#de2010" stroke="#000" stroke-width="2"><path d="M702 233c-1-4-3-7-5-9-3-2-6-2-8 1s-3 6-3 10c1 4 3 8 5 9 3 2 6 2 8-1 2-2 3-6 3-10z"/><path d="M700 213l-5-10c-3-1-6-1-8 1s-3 7-3 11c1 4 3 7 5 9 3 2 6 1 8-1s3-6 3-10z"/><path d="M696 191c-1-4-3-8-6-9s-6-1-8 2c-2 2-2 6-2 10 1 4 4 7 6 9s6 1 8-2c2-2 3-6 2-10z"/><path d="M688 168c-2-4-5-6-8-7s-6 1-7 4c-1 2-1 6 1 10s5 6 8 7 6 0 7-3 1-7-1-11z"/><path d="M680 150c-2-4-5-7-8-7-3-1-6 0-7 3s-1 7 1 11c2 3 5 6 8 7s6-1 7-4 1-7-1-10z"/><path d="M669 131c-3-3-6-6-9-6s-6 1-7 4 0 7 2 11c2 3 6 5 9 6 3 0 6-1 7-4s0-7-2-11z"/><path d="M656 114c-3-4-6-6-9-6s-6 2-7 5c0 3 1 7 3 10l9 6c4 0 6-2 7-5 0-3-1-7-3-10z"/><path d="M641 97c-3-3-7-4-10-4s-5 2-6 6c0 3 2 6 5 9s6 5 9 4c4 0 6-2 6-5s-1-7-4-10z"/><path d="M623 82c-3-3-7-4-10-3-3 0-5 3-5 6s2 6 6 9c3 3 7 4 10 3 3 0 5-3 5-6s-2-7-6-9z"/><path d="M605 70c-3-2-7-3-10-2s-5 4-4 7 3 6 6 8c4 2 8 3 11 2s4-4 4-7-3-6-7-8z"/><path d="M585 59c-4-2-8-2-11-1-3 2-4 4-3 8 1 3 4 5 7 7 4 2 8 2 11 1 3-2 4-4 3-8-1-3-3-5-7-7z"/><path d="M565 51c-4-2-8-2-11 0s-4 4-3 7 5 6 8 8c4 1 8 1 11-1 3-1 4-4 3-7s-4-6-8-7z"/><path d="M545 44c-4-1-8 0-11 1-3 2-3 5-2 8s4 5 8 7c4 1 8 0 11-2 2-1 3-4 2-7s-5-5-8-7z"/><path d="M522 41c-4-1-8 0-10 2s-3 5-1 8 5 5 9 5c4 1 8 0 11-2 2-3 2-6 1-8-2-3-6-5-10-5z"/><path d="M500 39c-4 0-8 2-10 4s-2 5 0 8c2 2 5 4 10 4 4 0 7-1 10-3 2-3 2-6 0-8-2-3-6-4-10-5z"/><path d="M480 40c-4 0-8 1-10 4-2 2-2 5 0 7 2 3 5 5 9 5s8-1 10-4c2-2 3-5 1-8-2-2-6-4-10-4z"/><path d="M456 43c-4 1-7 3-9 6-1 3 0 6 2 8s7 2 11 1 7-3 9-6c1-3 0-6-2-7s-7-3-11-2z"/><path d="M435 48c-4 2-7 4-9 7s0 6 3 8 7 1 10 0c4-1 7-4 9-6s0-6-3-8-6-2-10-1z"/><path d="M415 57c-4 1-6 4-7 7s0 6 3 8c3 1 7 1 11-1 3-2 6-5 7-8s0-5-3-7c-3-1-7-1-11 1z"/><path d="M395 67c-3 2-6 5-6 8-1 3 1 6 4 7s7 0 10-2c4-2 6-5 7-8 0-3-1-6-4-7s-7 0-11 2z"/><path d="M377 79c-3 3-6 6-6 9s2 6 5 7c3 0 7-1 10-3s6-6 6-9-2-5-5-6-7 0-10 2z"/><path d="M360 92c-3 3-5 7-5 10s2 5 5 6c3 0 7-1 10-4 3-2 5-6 5-9s-2-6-5-6c-3-1-7 1-10 3z"/><path d="M345 108c-3 3-5 7-5 10 1 3 3 5 6 6 3 0 7-2 10-5 2-2 4-6 4-9 0-4-2-6-6-6-3 0-7 1-9 4z"/><path d="M332 126c-3 3-4 7-4 10 1 3 3 5 6 5s7-2 9-5c3-3 4-7 4-10-1-3-3-5-6-5s-7 2-9 5z"/><path d="M320 144c-3 3-4 7-3 10s4 5 7 5l9-6c2-4 3-8 2-11s-3-4-7-4c-3 0-6 2-8 6z"/><path d="M310 164c-2 4-2 8-1 11s4 4 7 3 6-4 8-7c2-4 2-8 0-11-1-3-4-4-7-3s-6 4-7 7z"/><path d="M302 186c-2 3-1 7 0 10 2 3 5 4 8 3s5-4 7-8c1-4 1-8-1-11-1-3-4-4-7-2s-6 4-7 8zm-7 40c0 3 1 6 3 8s5 2 8 1l5-8c0-3-1-6-3-8s-6-2-8-1c-3 2-5 5-5 8z"/><path d="M297 207c-1 4-1 8 1 11 2 2 5 3 8 1 3-1 5-4 6-8s0-8-2-11c-1-2-4-3-7-2-3 2-5 5-6 9z"/></g><path d="M685 197c3-2 5-3 8-2-1-7-3-9-6-9-3 1-4 5-2 11zm4 22c3-3 5-3 8-2 0-7-3-10-5-9-3 0-5 4-3 11zm-9-41c2-3 4-4 7-4-3-7-6-8-8-7-2 2-3 5 1 11zm-9-19c1-3 3-5 7-4-3-7-6-9-8-7-3 1-3 5 1 11zm-23-35c1-4 3-6 6-6-4-6-7-7-9-5s-2 5 3 11zm-15-16c1-3 3-5 6-5-4-6-7-7-9-6-2 2-2 6 3 11zm-31-26c0-4 1-6 4-7-6-5-9-5-10-2-1 2 0 6 6 9zm16 12c1-4 2-5 5-6-4-6-8-6-9-4-2 2-1 6 4 10zm-34-22c-1-4 0-6 3-8-6-3-9-3-10-1-2 3 0 6 7 9zm-19-8c-1-4 0-6 2-8-7-3-10-3-10 0-1 3 1 6 8 8zm-20-7c-2-3-1-6 1-8-7-2-10-1-10 2-1 2 2 5 9 6zm-20-4c-2-3-2-5 0-8-6-1-9 0-10 2 0 3 3 6 10 6zm-21-1c-2-3-2-6-1-8-7-1-9 0-9 3s3 5 10 5zm-42 3c-2-3-3-5-2-8-7 1-9 3-9 6 1 2 5 4 11 2zm21-3c-3-3-3-5-1-8-7 0-10 2-10 4 0 3 4 5 11 4zm-41 7c-3-2-4-4-3-7-7 1-9 4-8 6 1 3 5 4 11 1zm-38 18c-3-2-5-4-5-7-6 3-8 6-6 8 2 3 5 3 11-1zm18-10c-3-2-4-4-3-7-7 2-9 5-8 7 2 3 5 4 11 0zm-52 34c-4-1-6-3-6-6-6 4-7 7-5 9s6 2 11-3zm16-14c-3-1-5-3-5-6-6 4-8 7-6 9s6 2 11-3zm-31 28c-3-1-5-2-6-5-5 5-6 8-4 10 2 1 6 0 10-5zm-13 17c-4 0-6-2-7-5-4 6-5 9-3 10 3 2 6 1 10-5zm-11 17c-3 0-6-1-7-3-4 6-4 9-2 10 3 1 6-1 9-7zm-9 19c-4 0-6 0-8-3-3 7-3 10 0 11s6-2 8-8zm-8 19c-3 1-6 1-8-2-2 7-1 10 2 11 2 0 5-3 6-9zm-5 21c-3 1-6 1-8-1-2 7-1 10 2 10 3 1 5-2 6-9zm-2 17c-3 2-6 2-8 1-1 6 0 8 3 8 3-1 5-3 5-9zm355-83c2-4 3-5 6-6-3-6-6-7-8-5-3 2-2 6 2 11zm29 98c3-2 5-3 8-2 0-7-2-9-5-9-3 1-4 4-3 11z" fill="#ffe300"/><path d="M647 150s7-12 4-23-15-3-14 1c0 4 8 9 8 11 0 3-1 10 2 11z" fill="#ffd200" stroke="#ef8a10"/><g fill="#217900" stroke="#000" stroke-width="2" stroke-linejoin="round"><path d="M664 125s-8 8-7 18c1 9 8 21 6 31l-3 17s10-11 10-21-7-24-7-31l1-14zm14 32s-6 5-5 15c0 11 11 30 11 30s8 17 8 21l1-14c-1-9-13-29-13-29s-3-5-2-12v-11zM506 52s26 1 26 19v13c5-3 8-11 8-16 0-17-24-29-34-16z"/><path d="M489 52s21-5 21 12c1 18-6 20-6 20s16-3 16-21c0-17-21-25-31-11zm208 197c1 8 8 15 5 29-3 15-17 52-14 58-4-5-4-11-4-18 0-8 11-36 12-45l1-24z"/><path d="M697 249s13 16 12 28c-1 13-8 27-5 34-4-6-5-9-5-17-1-7 6-16 4-24-1-8-6-21-6-21zm-404 4c-1 8-6 14-3 28 3 15 17 35 15 57 4-5 5-12 5-19 0-8-15-33-16-43l-1-23z"/><path d="M293 253s-12 15-12 27c1 9 16 43 13 50 4-6 6-5 5-13-4-22-12-35-11-43l5-21z"/></g><g fill="none" stroke="#000" stroke-width="2"><path fill="#8c8a8c" d="M526 105s22 1 23 13c1 13-5 20-5 20s2 27-19 34c-22 3-57 1-57 1s-11 3-15-19c-4-21-5-37-5-37s2-12 17-12h61z"/><path stroke-linecap="round" d="M544 138s-12 14-11 20"/><path fill="#8c8a8c" d="M528 172c3 2 6 5 6 14l2 17 15 135 13 98 1 15s-4 11-12 12c-7 14-42 18-45 17-3 0-14-4-21-4-7 1-19 5-24 5-5-1-17-5-19-14-15-4-17-16-17-16l16-113 15-143s2-19 10-21c8-1 49 0 60-2z"/><path d="M447 367l-3 100m100-87l9 83"/><path fill="#fff" stroke-linejoin="round" d="M498 114l30 93h97l-78 56 30 93-79-57-78 57 30-93-79-56h97z"/></g></svg>