<svg xmlns="http://www.w3.org/2000/svg" xmlns:xlink="http://www.w3.org/1999/xlink" viewBox="0 0 840 480"><defs><radialGradient id="b" xlink:href="#a" gradientUnits="userSpaceOnUse" cx="842.3" cy="103.7" r="25.9" gradientTransform="matrix(.18574 .04718 -.04532 .18635 233.8 198.8)"/><radialGradient id="c" xlink:href="#a" gradientUnits="userSpaceOnUse" cx="651.5" cy="550.5" r="25.9" gradientTransform="matrix(-.17642 -.07067 .06515 -.16392 430.5 377.9)"/><radialGradient id="d" xlink:href="#a" gradientUnits="userSpaceOnUse" cx="380.8" cy="740.4" r="25.9" gradientTransform="matrix(.0989 .0037 -.0045 .1943 442.4 123.3)"/><linearGradient id="a"><stop stop-color="#fff" offset="0"/><stop stop-color="#f15770" offset="1"/></linearGradient></defs><path fill="#ce1126" d="M0 0h840v480H0z"/><path fill="#fff" d="M0 0h560v480H0z"/><path fill="#006847" d="M0 0h280v480H0z"/><g fill="#fcca3e" stroke="#aa8c30" stroke-width=".3"><path d="M467 303.5l.3 6 2.2-1.6-1.7-4.8z"/><circle cx="466.7" cy="301.9" r="1.9"/><path d="M474 312.7l-4.3-4.1-2 1.5 6 3.4z"/><path d="M473.6 315c-.6-.8-.4-2 .5-2.7a1.9 1.9 0 012.6.3c.6.8.4 2-.4 2.7-.9.7-2 .5-2.7-.3zm33.4-63.8l4.4 4.4.6-2.2-4-2.7z"/><circle cx="506.4" cy="250.1" r="1.8"/><path d="M518.6 253.8l-6.7 2 .6-2.3 5.8-.6z"/><circle cx="519.7" cy="252.9" r="1.8"/><path d="M496 287l-4-6.4.6-.3 4.6 5.5z"/><circle cx="491.5" cy="279.1" r="1.9"/><path d="M496.3 287.2l5.2 1 .2-.8-4.4-1.7z"/><circle cx="503.1" cy="288.2" r="1.9"/><path d="M373.6 301.7c0 1-.7 1.6-1.4 1.6s-1.2-.8-1.2-1.7c0-.9.5-1.6 1.2-1.6s1.4.8 1.4 1.7zm0 2.9l1.2 6.6-1.6-.6-.6-5.7z"/><path d="M375 302.4c.8 1-.5 2.5-1.9 3-1.4.3-3-.3-3-1.6 0-1.4 2-.7 2.5-.9.8-.2 1.6-1.5 2.4-.5z"/><ellipse cx="363.6" cy="312.5" rx="2" ry="1.5"/><path d="M367 312.1l6.3-.3-1-1.2-5.2.5z"/><path d="M367.6 311.4c.5 1.6.5 3.8-1.3 3.6-1.8-.3-1.4-1.9-1.6-2.5-.2-1.1-1.2-2.1-.2-3.2 1.1-1.1 2.5.5 3 2.1z"/><ellipse cx="347" cy="276.9" rx="1.2" ry="1.9"/><path d="M347 281.1l.2 6.1-1.6-1.4.1-4.9z"/><path d="M349.4 279.3c.3 1.4-1.8 2.2-3.2 1.9-1.4-.3-2.4-1-2.2-2.3.2-1.3 2-1 2.5-.6.6.3 2.4-1 2.9 1z"/><ellipse cx="336.2" cy="286.5" rx="2.1" ry="1"/><path d="M340 286.5l4.9-.3 2 1.6-7-.3z"/><path d="M338.3 284c1.3 0 2.2 1.4 2 3-.2 1.4-1.4 2.7-2.5 2.5-1.2-.2-1.1-1.2-1.1-1.5 0-.3.7-.9.8-1.4 0-.5-.4-1.5-.2-2 .1-.5.4-.7 1-.7zm-3.9-37.3c-.5.9-1.5 1.5-2 1.2-.6-.3-.4-1.5.2-2.4.5-.8 1.3-1.2 1.9-1 .5.4.5 1.4 0 2.2zm-5.4 9.7l2.8-6.4-.4-.3-3 4.4z"/><path d="M331.3 250c-1.4-1-1.7-2-1.2-2.9.4-1 1.4-.3 1.4-.3s.7.7 1.1 1c.5.2 1.3-.1 1.8.7.6.8.3 1.6-.2 1.8-.4.2-1.8.5-3-.3zm-11.2-.8c1 .6 1.5 1.5 1.2 2-.4.7-1.4.7-2.4.2-.9-.6-1.4-1.5-1-2 .3-.7 1.3-.7 2.2-.2zm2.9 2.8l4.9 3-.2 2.3-5.3-4.6z"/><path d="M322.9 252.6c-1.1 1.2-2.1 1.4-3 .8-1-.5-.2-1.4-.2-1.4s.8-.6 1-1c.4-.5.1-1.4 1-1.8.9-.5 1.6 0 1.8.4 0 .5.3 2-.6 3z"/></g><g fill="#aa8c30"><path d="M468 304s-.3.2-.5.6l-.4 1.2v-2l.6-.3.3.5zm.3-1.2s-.4.7-1.5.7c-1 0-1.5-.6-1.7-1.1-.1-.5-.1-1 .2-1.5.4-.7-.5.5-.5.5v1.2l.8 1 .7.1h.6l.8-.2.6-.4v-.3zm5.5 9.6s-.5.3-.9.2a21.7 21.7 0 01-4.6-2.4l5 3.1.5-.9zm3.1 1.5s0 .8-1 1.3c-1 .4-1.6.2-2-.2a1.9 1.9 0 01-.5-1.5l-.1.8.5 1 1 .5.7-.2.6-.2.6-.6.3-.7v-.3zm31.9-62.5l-.1.5v1l-1.1-1.3.5-.7.7.5zm-.6-1.6c0 .9-1.2 2.1-2.1 1.7-1-.3-1.6-1.3-1.1-2.3.5-1-.3.4-.3.4l.1 1.4 1 .8h1l1-.4.5-1v-.6zm13.2 2.4s-.2-.6-.1 0c0 .7-.8 2.2-1.8 2-1-.1-1.4-1-1.4-1.8.1-.8-.1.3-.1.3l.1 1 .6.6.7.4 1-.1.7-.5.4-.8v-.5l-.1-.6z"/><path d="M516.9 253.2s0 .4-.6.8l-1.7 1 3.7-1.1-.3-1-1.1.3zm-22.5 29.4s-.2.2-.2.6l.1 1-2-3.2.6-.4 1.5 2zm-1.1-3.1c-.4.9-1.9 1.4-2.6 1-.7-.4-1.4-2-.5-2.7l-.4.4-.3.9.4 1 .7.7.7.2 1-.2.8-.6s.6-1.6.2-.7zm7.3 7.5s0 .4-.7.4h-2l3.4.7.2-.7-.9-.4z"/><path d="M504.9 287.8c.3 1.2-.8 2.3-2 1.9-1.4-.4-1.8-1.7-1.3-2.4l-.4.8.3 1.1.8.7.8.2.9-.2.8-.8.2-1-.1-.3zm-130 14.7c.4.4-.2 1.9-1.7 2.5-1.5.6-2.2 0-2.6-.5-.4-.5-.4-1-.4-1l-.2.2.2.8.8.6 1.3.3 1-.2 1-.5.4-.5.5-.6v-.8l-.2-.4h-.1z"/><path d="M373.6 305.7s-.3.1-.5.5l-.3 1-.1-1.7.7-.4.2.6zm-5 5.3s-.1.4.3.6l1.3.4-2.4.1-.3-1h1.1zm-.8 1.5v.3c0 .1 0 .4-.2.7-.3.6-.4 1.3-1.3 1.1a1.6 1.6 0 01-1.3-1.4c0-.6-.3-.8-.3-.8v.8l.6 1.3.8.4h.8l.6-.3.3-.8.1-.6-.1-.7z"/><path d="M361.6 312.4s.3 1 1.6 1.1c1.2 0 1.5-.3 1.5-.3l.2.4-.5.2-1 .1-1-.1-.5-.4-.3-.6v-.4zM349.2 279v.6c0 .4-.8 1.3-2.3 1.4-1.4 0-2-.5-2.4-1-.4-.4-.4-1.1-.4-1.1v.7l.5.9 1.4.6h1.3l1.4-.4.6-.6.1-.7-.2-.4zm-2.2 3s-.5 0-.8.3l-.5.5v-1.7l1.3.1v.9zm-6.2 4.5s0 .1.7.5c.7.3 4 .7 4 .7l-5.3-.2.2-1h.4zm-.6.1l-.2.8c-.2.6-1 2-2.1 1.8-1.2-.2-1-1-1-1.1v-.4l-.2.8.2.6.5.2 1 .2.5-.3.7-.7.4-.7.3-.7v-.5zm-2.9.2s0 .2-.9.3c-.9 0-2.2-.4-2.2-.4l.4.5.8.2h1.6l.3-.6zm-2.7-38s.2.6-.3 1-1.7.6-2.4.2c-.7-.4-2-1.7-2-1.7l.6 1 1 .9 1.3.3 1.2-.2.6-.5.2-.4-.2-.5z"/><path d="M330.8 250.6v.7c0 .6-.3 1.5-.3 1.5l1.1-2.5-.4-.4-.4.7zm-7 2s-.2-.2 0 .6 3.2 3.4 3.2 3.4l-4.4-3.8.5-.7.6.5zm-1.6.4s-.5.4-1 .4-1.4 0-1.5-.7c-.1-.5.2-.8.2-.8l-.4.8.1.5.7.4h.9l.8-.3.2-.3zm-1.8-1.9s.1.2-.7 0c-.8 0-1.8-1-1.8-1l.6 1 1.4.6.5-.6z"/></g><g fill="#9ca168"><path d="M524.8 238.8c-.4 5-5.4 7.6-8 9.5a14.2 14.2 0 00-3.8 4.2l-.9 3-.4 1.9-.1.6c.2.5.4 1.4.4 2.8.1 2.3-.1 5.5-.1 5.5l3.5-2.4 2.5-1 .8-.1s-2.8 2.8-4 5.8c-1 3-3.1 9.4-7 11.5-3.8 2-6.2 1.2-7.4 2.3-1.3 1.2-1.4 1.5-1.4 1.5l-1.6 2.2-1.3 1.7-1.2.8-.7.6c0 .7-.1 1.5-.4 2.2l-.9 3.1s.8-.4 1.7-.5l1.8-.2s-.7 1-1 1.8c-.2.9.2 6-4.7 9.2-5 3-17.6 2.6-17.6 2.6l-2.3 1-2.3 1.6-2 2.2-.2.6s-1.5 2-2.7 2.7l-3.6 2.4s2.2-.1 2.9.2l4.6 2s-2.9-.1-4.8.6c-2 .8-10.7 5.8-15 5.6-4.2-.1-10.3-6.3-10.3-6.3l-2.8-2-4.5-.9-5.7-.3v-.7l.2-1s2-.1 5 .2c2.6.3 3.5 1.2 5.7 1.5a9.4 9.4 0 004.7-.5c.8-.3 7.6-6.1 7.6-6.1l7.7-2.7 3 .4 1.3.4 1.2.3s-.4.6-1.3 1.4c-.9.8-2 1.4-2 1.4l1 .7 4.9-.8 1.6.5.4.2c0-.4.3-1 .7-1.6.6-.8 3.3-3 4.5-3.8l1.8-1.3c.4-.4 2-4.5 2-4.5l.2-2 5.4-5.2 3.6-3.9 1.6-4.4-.2-.9s1.3 1.4 1 4.1a9 9 0 01-.8 3.7s3.7-2.5 5.6-3.4a6.3 6.3 0 013.2-.6 8.8 8.8 0 002.8-2.4c1-1.6 1.3-2 1.3-2.7l.2-3.6-.4-9.3 3.2-7 4.6-4 .8-.6s-.3 1-.4 1.6v1.9s2.3-3.2 3.5-3.8l.7-.3a9 9 0 001-2.6c.3-1.7.4-4 .4-4v-4l-.7-3-2.1-5.6-.1-7.6-1.6-2.1s1.5-.1 3.4 2.6c1.8 2.7 2.4 6.5 2.4 6.5l4.4-13.4s1.1 1.6 2 4.2c.8 2.7 1 4.5 1 4.5l1.7-3.7.2 1.3c.3 1.2 3 2.7 2.6 7.8zm-88.3 85.4s-.8-2-5-4.1c-4.2-2.1-7.3-2.5-7.3-2.5v1.5l6.5 3 3.3 2.6 2.5-.5z"/><path fill="#717732" d="M466.4 311.6c.4-.5 4-3.7 5.8-4.6 1.8-.9 4.2-1 4.2-1 2.5-.5 2.9-.2 8.6-3.3s7-6.9 8.2-7.8c1-.8 3.1-1 3.1-1l-4.5 5c-2.1 2.4-4.4 3.9-7.6 6-3.2 2.2-10 2.3-10 2.3a10 10 0 00-5.4 2.8 19 19 0 00-2.6 2.9s-.2-.7.2-1.3zm15.9-16.6c-5.3 4.8-7 9.4-7 9.4s4.7-4 7-6.4c2.5-2.4 6-3.5 7.4-5 1.6-1.3 1.7-2.5 2.6-3.5 1-.9 1.7-1.3 1.7-1.3s-2.3-1.8-11.7 6.8zM471 306.2s2.2-1 3.1-3c.6-1.5.3-1.9 1.3-3.6 0 0 5.5-5.4 7.5-7.7 3.5-4 1.9-7.5 1.9-7.5s.4 1.8-1 3.6c-1.5 1.8-8.7 6.7-9.5 9.5-.9 2.8-.4 3-.8 4.4-.9 3.4-2.5 4.3-2.5 4.3zm-3.7 13.9s-2.8-2-6-1.7c-6.3.4-11.7 4.3-15.9 4.4-4.2.1-5.8-2-9-4.2-3.5-2.3-12.1-2-12.1-2v.2l-.1.2s5.9.1 8.4.8c4.8 1.3 7.4 6.3 12.8 6 7.1-.4 13-4.7 15.8-4.7 5 0 6 1 6 1zm-31.6-3.3s5 1 8.8-1.9c3.8-2.8 8.4-6.6 10.9-6.8 2.5-.1 5.1.5 5.1.5s-3.2-1.4-5.7-1.4c-2.6 0-5.2.4-7.5 1.8-2.4 1.5-3.6 4-6.2 5.7a16.8 16.8 0 01-5.4 2.1zm-.9 6.7c-.6 0-1.4.4-1.6.4-.3 0-1.8-1.6-4-2.8-2-1-5.2-1.8-5.2-1.8s-.4.1.3.4c.7.2 3.3 1 5 1.9 1.7.7 3.4 2.5 3.5 2.8.1.3.7 1 2 1 1.2 0 1.7-.7 1.6-1.2-.1-.5-.9-.7-1.6-.7zm3.5-4.8s2 1 5.2 1c7-.2 11.3-4.9 15.8-6.6 4.5-1.7 6.8-.3 6.8-.3s.1-.2 0-.3a9.2 9.2 0 00-5-1.6c-7.6.1-14.7 5-17.8 6.2-3 1.3-5 1.6-5 1.6zm73.4-52.3c-2.3 2.4-5.8 10-7.3 12.2-1.5 2-3.5 2.7-4.3 3.5l-4.1 5.4c-.7 1-.9.7-1.3 1-.5.5-.7.5 0 .3.8-.2 1-.7 2.2-2 1.1-1.3 1-1.8 2.9-3.5 1.8-1.6 5.1-3.5 6.8-5.5 1.6-2 5-9.8 6.7-11.7 2-2 5.3-3.3 5.3-3.3s-2.7-.8-6.9 3.6zM500 281s0-1.4 1.6-3.5c1.7-2 2.3-1.7 3.7-4.7 1.3-3 2-5.9 3-9 1.2-3.2 3-6.3 3-6.3s-1.7.2-3.6 2.6c-1.8 2.5-4.7 7-6.2 11.4S500 281 500 281zm-2.2 2.8s.7-.3.7-4.2c.1-3.8-.2-9.2 1-11.9 1-2.7 7-9 7-9s-2.5.5-6 3.2c-3.3 2.7-4.8 6.2-4.6 8.8.2 2.6 1.6 5.5 1.8 8l.1 5.1zm13.9-26.4s1.4-5.2 2-6.5c.6-1.3.6-2 3.6-5.3 1.7-2 3.3-3.2 4-5.8.8-2.7.7-10 .7-10s-.7.6-1.4 2c-.6 1.2-.1 6-1.2 8.2-1.1 2.3-3.6 7.5-4.9 8.6 0 0-.3-3.7.2-7.5s1.7-5 2.3-7.4c.6-2.5.2-8.9.2-8.9s-2 2-3 4.5c-1 2.4-1.6 6.7-1.6 9.9s.7 5.8.9 7.7c0 1.8.2 2.7-.5 4.7-.8 2-.4.6-.8 2.6a45.7 45.7 0 01-1 3.4l.5-.2zM507 229s1.7 2.2 1.4 4.7c-.2 2.6-1.2 6-.2 8.6 1 2.6 2.5 2.9 2.9 4.4.4 1.5.4 4.5.4 4.5s.8-5.7.2-7.2c-.5-1.6-.8-.9-1.6-2.5s0-6.1-.6-8.8c-.6-2.6-2.5-3.7-2.5-3.7z"/><path d="M402.6 323.8s.5-1.5 4-3.3c3.6-1.7 9-4 9.5-3.8.5.3-.2 2.3-.2 2.3l-3.5 1-2.8 1.6-3.2 2.1h-3.8z"/><path d="M411.7 314.3c-4.6.2-7.1 1.3-8 1.5-.3 0-1 .5-1.5.3-1-.6-2-2-2-2l-1-.9-.2 3.3-6.7-5.8-.7 3.9-.8 1.7-6.7-6.2.4 4.8-1.9.2-4.7-3.3-1.4.5 1.6 2.8-6 .5-1.3 1c-.8.7-1.2 1.4-1.2 1.4s-.2.3 0 .5c.2.1 1.8 0 2.3-.1.5-.2.9-1 1-.6.2.3.4 1.6 1.2 1.4.8 0 3.5-2.2 5.5-1.3 2.2 1-2.9 2.6-2.3 4.1s4.1 1 5 .4c1-.5 3.7-4 4.9-2.6 1.6 1.8-3.3 3.2-2.4 5 .8 1.8 3.6 1.4 4.9.6 1.3-.7 4.4-5.4 5-4.4 1.2 1.8-2.5 3.4-1.6 4.8 1 1.4 3 0 4.4-1 1.4-1 2-3.3 3.9-4.4 2-1 1.8-.6 2.3-.6.5 0 2-1.5 2-1.5l4.5-2 2.2.2 1.2.6 2.2.3.3-1.9s-2.6-1.2-4.4-1.2zm-36 0l.9-1.6-.6-.8s-1.6-1-3-2.4a9.3 9.3 0 00-2.7-2.1l-2.9-1.8-1-3.7-.5-1.1-1.8.7-2.2-8-.5-1.4-1-.1-1.8 4.8-2-3-.6-6.6-1.3 1.4-1.6 1.7-3-6s-.3-.1-.4.4a11 11 0 00-.2 3.5 31.5 31.5 0 01-7.7-7l-1.4-3.1 1.3-2.8.6-3.3-2.9 1.2-.5-7.6-.4-2.3-3.5 5s-1.4-2-1.4-2.2l.1-4.7-1-.3-1.4 2.7s-1.3-2.8-2-3.4c.1-1 .3-3.8-.3-5.9-.9-2.6-1.8-4-1.5-6.2.4-2.2 1.3-2.4 1.2-3.4-.1-1-1.6.6-1.1-.6s5-4.2 4-5.7c-.9-1.6-5.3 2.3-4.2-.3 1-2.6 5.2-2.6 5.4-6.3.2-2.3-4 1.4-4.3.3-.4-1.2 2.5-3.5 2.5-5s.5-1.7-.3-2.5-3.3 3.1-3.3 3.1l-2.8-1-1 4-.8 3.3-3.4-2 1 4 .8 4-3.6-.8 1.9 3.3 2.4 2.5 1.5 2 1.1.7 1.5 1.4.5 2.2.9 2.5.1 2.3v2.8l-.1.4v.6l-.1 1.4c-.7 0-1.8-1-2.2-.4-.4.8 2.1 2.7 1.6 3.1-.4.5-4-.7-4.3.5-.2 1.2.4 2.8 2.5 3.3 2 .5 6.9 1.7 6 2.6-.7 1-6-2.9-5.8 0a5 5 0 003.4 4.4c1.4.5 6.7 0 6.4 1.2-.3 1.2-4.3-.4-4.7 1.4-.4 1.8 2.8 2 3.5 2 .7 0 2.9 0 3.7.6.9.7 3.9 3.9 5.7 5.5a98.7 98.7 0 006 4.4c-1-.1-3-.3-3.4.4-.4 1 8 4 5.6 5-2.5.9-5-2.6-5.8-.5-.7 2.1 1.6 4 3 4.7 1.3.8 8.7.2 7.3 1.9-1.5 1.7-6.9-1.2-7 .8 0 2 3.7 5.2 5.5 5.1 2 0 4-3 4.8-1.4.9 1.6-1.4 2.3.4 2.7 1.8.4 3-1.9 5.2-1.5 2 .5 5.3 1.8 7.2 3.5 1.8 1.6 3.7 3.6 3.7 3.6z"/><path fill="#717732" d="M404.7 322.8c1.3 0 1.5.7 1.7.7.1 0 2.3-1.9 4.3-3 2-1 5.2-1.8 5.2-1.8l.2.3s-3.7 1-5.5 2.2c-2.2 1.6-4 2.5-4 2.8-.2.3-1 .8-2.3.8-1.2 0-1.8-.7-1.8-1 0-.4 1-1 2.2-1zm11.2-5.6s-1.1 0-1.7-.5a5.7 5.7 0 00-3.4-1c-1.3 0-3.5.7-5.2 2.4 0 0-.4.7-1.9 1.7.5 0 1.5-.6 2.6-1.4a9.7 9.7 0 014.8-1.8c1.4-.2 2.2.5 2.8 1 .7.4 2 .3 2 .3v-.7zM349.7 290v-.9l-3-1.5c-2-1.3-6.6-5-6.6-5l3.8 3.6c1.8 1.7 5.2 3.8 5.2 3.8h.5zm46.7 33.1l2-2.8c1.1-2 2.2-2.6 2.4-2.8.2-.3-.5-1.2-.8-2-.4-.7-.3-1.5-.3-1.5 0-.1.4 1.1 1.3 1.8 1 .6 1.4 1.2 1.4 1.2s1.8-.2 1.9-.6c0-.3 0-.6-.4-.7-.3-.1-.6.3-1.4 0-1.7-.8-2.4-3.4-3.4-3.4-1-.1-.3 2.7-.7 2.7-1.6.2-2.8-5.7-6.5-5.9-2.6-.2-3 .3-3.2.9-.1.6 3.2 4 2 4.6-1 .5-4.6-5.5-7.1-5.6-2.6 0-2.8 1-2.6 1.5.2.6 2.8 1 2.2 3-.6 1.7-3.2-2.9-5.5-2.6-2.4.3-2.6.4-2.7 1-.2.8.8 1.7.4 2-.3.2-1.8.1-3 1-1.2.8-2.8 3-2.8 3s1.5-2.2 3.6-2.4c2-.2 7.3 0 7.3 0l-1.5-1.1c-.8-.7-1.4-2.1-1.4-2.1l2.2 2c1.1.9 2.5 1.6 2.5 1.6s2.2.2 2.4.5c.1.2 0 .7-1 1.7l-2.2 2.2 2.6-2 2-1.6 1.8.2c.1 0 0-.6-1-2.2l-2.2-3.3s1.4 1.2 2.7 3 1.2 2.6 1.7 2.6l1.9.2c.5 0 .4.8-.6 2.2-.9 1.5-1.4 3.3-1.4 3.3s1-1.5 2-2.6c1-1 1.5-2.3 1.9-2.4h2c.2 0-.4-.6-1-2-.8-1.5-1-3.6-1-3.6s.7 2 1.8 3.3c1 1.4 1.5 2.5 1.7 2.5h2.1c.1.7-.1 1-.9 2.4l-1.2 2.8zm-28.3-16.4c1.6.6 2.2.6 2.2.6s-2.2-1.3-2.7-3.2c-.6-1.8 0-5.7-1-5.6-1 0-1.5 2.8-2.4 2.3-1-.6.3-5.8-.7-8s-3.5-3.7-4-3c-.6.9-.4 5.6-2 4.6-1.4-1 .2-5-.2-7-.5-1.8-1.6-3.1-2.5-2.7-.8.5.4 4-1 4-1.3 0-1.1-2.5-1.7-2.7-.6-.2-.8.5-1 0-.4-.4-.2-2.2-1-2-.6.1-.5 1.5-.3 2.2.2.8.6 1.9.9 2.4.3.5 1.4 1 1.3 1.5-.1.4-.7.8-1.4.8h-2.4s1.8.5 2.4.5c.7.1 2-.2 2.3.4l1.9 2.6s.3-1 .5-3c.2-1.9.1-3.5.1-3.5s.5 2.2.5 3.5l-.6 3.9s1.5 1.2 1 1.5c-.4.3-1.9.3-3.7.3-1.7 0-4.3-.7-4.3-.7s2.3 1.1 3.9 1.4c1.6.2 5 .3 5 .3l2.3 2.7s1.2-2 1.3-3.9c.2-1.9 0-4.1 0-4.1s.5 2 .5 3.7c.1 1.7-.5 4.7-.7 5-.2.3-1.4 1-2.5 1.3-1.5.4-4.6.8-4.6.8s2.8.3 4.9-.2 2.3-1 2.9-.7l1 1s1.3 1 1.8 1.2c.1.2-1 .6-1.4 1l-2 1s2-.8 3-1l1.5-.6.6.4-.1-1.7-.5-2.4s.7 1.1 1 2.2l.2 2s.1.4 1.7 1zM327.3 260s.5-2.2.5-4.8a18.8 18.8 0 00-2.5-7.6l1.2-1.8-1.6 1.2s-.8-.2-1.6-.6c-.7-.5-1-1.2-1-1.2s.7.6 1.5 1c.7.2 1 .1 1 .1l-.7-2.6-2.5-1.2c-1.7-1-3.3-2.5-3.3-2.5s2.3 1.4 3.7 2c1.3.5 2 .5 2 .5s1.5-.4 2.2-.8l2.1-1.5s-1.4.8-2.3 1l-2 .3-.5-3-1.4-1.6c-1.2-1.5-2-3.7-2-3.7s1.1 1.5 2 2.2c1 .8 2 2 2 2l2-1.4 3.7-2.6-3.5 1.8c-2.1 1-2.2.8-2.2.8s-.2-1.3.2-1.9c.3-.6 1-1.5.8-2.1 0-.6-.5-.4-.7-.9-.2-.5.5-3.5.5-3.5l.2 1.7c0 .5-.2 1.3.5 1.3s4.3-3.5 4.7-4.2c.5-.7 1.1-2.5-.7-1.7-1.9.7-1.4 2.3-3 2.1-.4 0-1-2-1.5-1.5-.6.5-1.9 1.7-2.1 3.1-.2 1.4.3 3.5-.5 4.1-.8.6-1.4-2.4-3-2-1.5.5-1.9 2.6-1.6 3.4.2.8 3.6 4.7 2.5 5.2-1 .5-3.6-3.3-5-.7-1.4 2.5 4.4 5.1 5 5.8.8.6.1.8 1.2 2s2.3 1.6 3 2.5c.8.9 2.9 5 2.9 7.6s-.2 3.7-.2 3.7zm15.4 22.4s-1.4-1.6-1-4.4 2.4-7.5 1.8-8.1c-.7-.6-2.7 3-3.2 2.1-.5-.8 1.2-5.6.3-7.6-.8-2-1-3.2-2.6-3-1.7.1-2.4 5.7-3.3 4.8-.8-1 .5-3.5 0-4.9-.6-1.3-.9-1.8-1.7-1.6-.9.2-1.3 2.8-1.9 2.8-.6 0-1.6-3.1-2.8-2.7-1.2.4 3 5.9 3 5.9s.7-.7 1-1.6l.8-2s.4 1.8 0 2.5l-.4 2.3s-1 .4-2.7 0c-1.7-.2-3.1-.9-3.1-.9s1.1.8 2.8 1.2l3.6 1 1.2 1.6 1.4 2s.5-1.1 1-2.8c.5-1.7 1.7-4.5 1.7-4.5s-.4 3.4-.8 5l-.8 4s-1.5-.1-3.5-.5l-4.7-1s2.3 1 4.7 1.5l3.7 1 1.9 2.5 1.2-2c.7-1 1.3-2.3 1.3-2.3s-.4 1.9-1 3l-.8 1.8s-1.2.3-2.3.2h-3.3a25 25 0 005.8 1.2s.2.7 1 1.8a6 6 0 001.7 1.7z"/></g><path fill="#fff" d="M412.7 331.6s-.8-.9-2-1.5c-1-.5-1.4-.4-1.4-.4l-.5-.1 1-2.6 7.2-7 1.2-7h4.5v9.6l1.3.6 8.1 4.9v2l-1.2.5c-.8.3-1 .6-1 .6l-3 .3-5.4-4-2.3-2.3-4 5.2-2.5 1.2z"/><path fill="#016848" d="M418.4 313l-.1 1.5c0 1 0 6.7-.2 7.5-.3.8-4.2 2.4-6.5 4.3s-2.3 3.4-2.3 3.4-.7 0-2.1.6c-1.4.5-2 1.3-2 1.3s.8-3.5 4.4-6.7c3.6-3.2 5.4-3.5 5.8-4 .4-.6 0-6.8 0-7.3.2-.5.6-.5 1-.6h2zm9.3 20.7s.6-1.1 1-1.5c.3-.4 1.2-1 1.2-1s.1-.2-1.9-1c-2-.9-3-.6-4.4-1.6-1.4-1-2.8-2.7-2.8-2.7l-2 1.7s1.2 1.5 2.3 2.6c1 1 3.5 1.4 4.6 2 1 .6 2 1.5 2 1.5z"/><path fill="#cd202a" d="M422 313s2.1-.1 2.5.2c.2.3.2.7.2.8 0 .1.1 5.2-.3 7-.3 1.7-1.2 3.4-1.8 4l-5.3 4.8c-1.5 1.5-3 3.6-3 3.6l-1.1-1.2c-.5-.6-1-.8-.8-1.2 0-.4 1.7-2.9 4.3-4.6 2.5-1.7 4.7-3.6 5.2-6.4.5-2.7.1-7 .1-7z"/><path fill="#cd202a" d="M436.4 330.5s-.5-.5-2.4-.6c-1.8 0-2 .3-2 .3s-1-1.3-2.6-2.3c-1.5-1-2.8-1-4.5-2-1.7-1.2-2.6-2.9-2.6-2.9l1.3-2.7s1.5 2.1 3 3.2c1.6 1.2 5 2.3 6.1 3.2l3.7 3.8z"/><path fill="#30c2dc" stroke="#0872a7" stroke-width=".7" d="M452.7 299.5s-4.7-1.8-4.3-3.5c.3-1.6 10.8-4.4 10.8-4.4l.2-2.7s-1.6-.1-4.2.7a37.3 37.3 0 01-11.3 2 2294.3 2294.3 0 00-45.1-2.8c-4.9-.4-8-7.8-8-7.8l-2.3.4s.7 3.6-.5 4c-2.4.6-18.3-7.9-18.3-7.9l-.8 3.5s9.7 5.1 9.4 7c-.3 2-3.2 1.9-3.2 1.9l1.2 2.3c.5 0 16 .8 16.2 5.4.2 1.9-3.8 3-3.8 3l1.3 1.6v.8s8.7 0 11 1.4c2.4 1.3 3.6 3.2 6.6 5 2.9 1.6 22.7 1.2 25.8.3 3.5-1 5.7-5 11.4-6.7 5.7-1.7 7.5-1.8 7.5-1.8z"/><circle fill="#fff" stroke="#0872a7" stroke-width="1.4" cx="373.4" cy="292.1" r="2.8"/><circle fill="#fff" stroke="#0872a7" stroke-width="1.4" cx="389.1" cy="279.3" r="2.8"/><circle fill="#fff" stroke="#0872a7" stroke-width="1.4" cx="454.8" cy="299.7" r="2.8"/><path fill="#f8c83c" d="M361.1 275.1c-.9 2.1 2.6 6 5.1 6.5 2.5.4 3.9-.2 4.3-1.4.4-1.2 0-2.5-.5-3.3-1.6-2.1-8-3.8-8.9-1.7z"/><path fill="#fff" d="M368.9 278.3c0-1.2-2.1-2.5-3.5-2.5-1.3 0-2.6 0-2.4.7.2.7 3.6 1.6 3.7 2 .1.4-1 .8-.4 1.4.5.5 1.2.1 1.7-.3.6-.4 1-.5.9-1.3z"/><path fill="#f8c83c" d="M390.7 302c.6 1.8-.8 2.7-2.7 3.5-1.8.9-5.6.4-6.4-1-.9-1.6 1.4-4 3.6-4.5 2.3-.6 5 .3 5.5 2z"/><path fill="#fff" d="M387 303c.6 0 .7 1.1 1.3 1 .6 0 1.2-1 1-1.8-.2-.6-1.4-1.6-2.4-1.5-1 0-4 2.6-3.7 3.3.4.7 1 .6 1.6.4.6-.3 1.4-1.2 2.1-1.3z"/><path fill="#f8c83c" d="M458.4 292.5c1.6 2.2 4.6.2 5.4-.7.8-.8 3.2-2.2 2.2-3.7-1-1.4-2.7-1.3-3.8-1.3-1.1.1-3.5 1.8-3.8 2.6-.4.7-.8 2.2 0 3.1z"/><path fill="#fff" d="M458.9 291s.1-2.3 2.4-2.4c1.3 0 1.3.3 2.3.9 1 .5 1.3-.8 1.3-.8s0 1.7-1.5 1.8c-1.6 0-1-.7-2.5-1-1.4-.1-2 1.6-2 1.6z"/><g fill="#f9aa51" stroke="#953220" stroke-width=".7" stroke-linecap="round" stroke-linejoin="round"><path d="M422.4 286.4l-1-.7-3.8-.1-4.5.2 4.5 12.9 5.3 7.7 2 .7 4.2-.2.7-2-1.6-12.5-5.8-6z"/><path d="M407.7 287.2l.2-1.5 2.4-.1c1.4 0 2.7 0 2.8.2.2 0 3.1 3.7 4.1 6 1 2.5 2.3 6.4 3.6 8.8 1.3 2.5 4.2 6.5 4.2 6.5l-2.7.1h-2.7l-2.4-.9-7.5-11.7-2-7.4z"/><path d="M404.6 285.6s3 0 3.3.1c.3.2 3.7 3.2 5 7 1.4 3.7.8 4.2 2.5 8.1 1.8 3.9 4.2 6.5 4.2 6.5s-5 .2-8-.3c-2.9-.5-4-.4-4.6-1.2-.7-.9-2.3-1.8-2.3-1.8h-2.9l.7-4-.8-9.1.2-4.7 2.7-.6zm30.6 2.4l-4.8-2-9.1-.5.6 4.7c.4 2.3 2 7.6 3.5 10.1 1.4 2.6 3 5.8 3.7 6.6.8.7 6-1.5 6-1.5l3.4-.5-.4-3.7-.5-1.1.8-10.6-.8-1.7-2.4.2z"/><path d="M403 288c0 1.2 1.3 1.3 1.6 1.2.3 0 1.4-.4 1.4-2s-1-2.8-2.9-2.9c-1.9 0-3.3 2.3-3.3 4 0 1.5 1.6 2.4 1.6 3 0 0-1.6 1.5-1.6 4 .1 2.7 2.3 4.7 2.3 4.7s-2.3 1.8-2.3 3.7c0 1.8 1.7 3 3.3 3s3.7-1 3.7-2.4-1.2-2.3-2.2-2.3c-1 0-1.5.6-1.5 1.1m33.7-14.3c0 1.1-.7 1.2-1.4 1.2-.6 0-1.5-.4-1.5-1.8s2-2.2 3.1-2.2c1.2 0 3.2 1.6 3.2 3.6s-1.4 3.4-1.4 3.4.9.4.9 2.9-1.6 4.3-1.6 4.3 2 .8 2 3.4c0 2.6-1.7 3.5-3 3.5s-3.3-.8-3.3-2.5c0-1.8 1-2.4 2-2.4.8 0 1.6 1 1.6 2"/><path fill="#953220" d="M406.2 302.5s.3.2.6.7c.2.5.4 1.4 1 1.9 1 1 9.5 1.2 12 1.2 2.6 0 10.3.4 11.7-.5 1.5-.8 1.6-2.3 2.5-3 1-.6 1.2-.5 1.2-.5l-1.1 1-.1 1.8.7 1s-.2.5-1 1c-1 .6-1.8.8-3 .9-1.3.1-17.4 0-20-.4-2.6-.4-2.4-.4-3.2-1a5.7 5.7 0 01-1.2-1l.3-1.2-.4-1.9zm26.2-15.5l1.5.6s-1.3.4-2.2 3c-1 2.5-.2 3.3-.8 3.6-.7.3-7.6 0-7.6 0l-1.3-2.8 10.4-4.4z" stroke="none"/></g><g fill="#231f20"><path d="M454.7 286s-1.2-.4-1.8-1.4-1-2.3-.6-2.5c.5-.3 1.4.6 1.3 1.3-.1.8 1 2.6 1 2.6zm13.6-3.8s.9 1.6 1.2 1.8l1.6.7s-1.9 0-2.5-.5c-.6-.5-1.4-2-1.4-2h1.1z"/><path d="M472.5 283.5s-1.2.7-2.2.3c-1-.4-1.7-1-1.3-1.4.3-.4.6-.2 1.1.3.5.6 2.4.8 2.4.8zm6.9-5.9s-1 .8-1.6.8-2-.2-2-.5 1.7-.5 2-.5l1.6.2zM469 263.8s-1.5.5-2 1.3c-.6.8-.4 1.6.2 1.6.6 0 .8-1 .8-1.2 0-.2 1-1.7 1-1.7zm-6.9 3.8s-1.1.7-1.4 1.4c-.3.6-.6 2 .1 2s1-1 1-1.6l.3-1.8z"/><path fill="#8cbebf" stroke="#04534e" stroke-width=".7" d="M449.9 275.9l-3.8 4s8.7 4.8 15.3 4.6c6.7-.2 14.3-5.4 14.8-6.5.5-1 0-5.7-.8-7.2-.9-1.4-5.5-5-7.2-4.9-1.7.2-4.8 2.6-7.7 5.3-2.8 2.8-2.5 5.1-6.5 4.9l-4.1-.2z"/><path fill="#0c8489" d="M449 277.5s9.2 1.4 11.9-1c2.6-2.4 5.5-7 7.4-8s2.7-1 2.7-1l2 1.4 2.4 2 .7 4.3v2.4l-2.8 2.4-5.3 2.5-5.1 1.5h-4.3l-8.8-2.6-2.2-1.6-.5-.5 1.8-1.8z"/><path fill="#04534e" d="M463 272.1c0-.8.6-.7 1.3-.7s1.4.1 1.4 1c0 .7-.7 1.8-1.4 1.8s-1.3-1.3-1.3-2zm3.8 2.4c0-.7.5-1.1 1.3-1.1.9 0 1.7 1 1.7 1.6s-.7 1.3-1.6 1.3c-.8 0-1.4-1.1-1.4-1.8zm-1.3 5.5c0-.9.5-1 1.4-1 .8 0 1.3.3 1.3 1.2s-.7 1.6-1.5 1.6-1.2-1-1.2-1.8zm-4.9-1.7c0-1 .9-1.2 1.7-1.2.7 0 1.3.7 1.3 1.7s-.6 1.7-1.3 1.7c-.8 0-1.7-1.2-1.7-2.2zm-7.7 1a1.9 1.9 0 113.8 0 1.9 1.9 0 01-3.8 0z"/><path fill="#8cbebf" d="M466.8 274.5c0-.7.8-1.1 1.3-1.1.6 0 1 .5 1 1.1 0 .7-.4 1.2-1 1.2s-1.3-.6-1.3-1.2zm-1.3 5.3c0-.8.7-1 1.5-1 .7 0 1.3.2 1.3 1 0 .7-.6 1.3-1.4 1.3-.8 0-1.4-.6-1.4-1.3zm-4.9-1.6c0-.8 1.4-1.2 2-1.2.5 0 .4.5.4 1.3 0 .9-.5 1.5-1 1.5-.6 0-1.4-.8-1.4-1.6zm2.3-6.1c0-.8.6-.8 1-.8.6 0 1 .2 1 1 0 .7-.5 1.3-1 1.3-.4 0-1-.8-1-1.5zm-10 6.6c0-.9.7-1.7 1.8-1.7s2.2.4 2.2 1.2-1.3 2.4-2.4 2.4c-1.1 0-1.6-1-1.6-2z"/><path d="M456.4 277.2s-1.3.2-2 .9c-.6.6-.7 1.3-.3 1.5.3.3.8-.4 1-.7a16.5 16.5 0 011.3-1.7zm6.1-1.4s-1.2 1-1.3 1.8c-.2.8 0 1.3.3 1.3s.6-1.1.4-1.6c0-.4.6-1.5.6-1.5z"/><path d="M463.6 277.1s-.9 0-1.4.6c-.6.5-1 1.2-.7 1.2.4 0 1-.3 1-.6s1-1.2 1-1.2zm1.3-7l-1 .7c-.3.3-.8 1.2-.3 1.4.4.2.7-.2 1-.8.3-.6.3-1.4.3-1.4zm4.6 2.9s-1.2.2-1.6.7c-.3.5-.6 1.1 0 1.1.4 0 .6-.3.8-.7.2-.5.8-1.1.8-1.1zm-.7 5.5s-.3.8-1 1.2c-.7.4-1 .7-1.2.2-.3-.5 0-.8.4-.9l1.8-.5z"/><path fill="#04534e" d="M476.2 274.8s.5 2.5-1.7 3.8c-2.2 1.2-8.4 5.6-14.3 5.1s-12.6-3.9-12.6-3.9l-1 .4 1.6.7 4.5 1.9 5.2 1.5 3.3.2 2.8-.3 5.2-1.8 4.4-2.2 2.3-1.8.6-.8v-2.5l-.3-.3z"/><path d="M360.8 241.5s1.3 1.2 1.2 2.2c-.1 1-.5 1.4-.8 1.2-.4-.2-.4-1.2-.3-1.6a9.1 9.1 0 00-.1-1.8zm10 9.4s-.3 1.7-1 2c-.7 0-1.2-.7-1-1 0-.3.6 0 1-.3l1-.7zm-21.9 1.3s.5 1 1.4 1.2c.9.2 1.3-.4 1.2-.7-.1-.3-.5-.2-1-.2l-1.6-.3zm4 7.7s.7 1 1.9 1.1c1 .1 1.6-.7 1.7-1 0-.2-1.3-.2-1.7.2-.4.3-2-.3-2-.3zm6.9 6s1.8-.4 2-.9c.4-.4.8-1.3.4-1.7-.3-.5-.6.7-.9 1.2-.2.5-1.5 1.4-1.5 1.4z"/><path fill="#8cbebf" stroke="#04534e" stroke-width=".7" d="M371 261.2s1.1-8-5.3-13.7c-6.5-5.6-10.7-4.3-13-2.2-2.1 2-4 8.9 2.8 14.8 6.9 6 15.3 4.1 15.3 4.1l.1-3z"/><path fill="#0c8489" d="M351.2 252.7s-.1-4.4 2-5.7a9 9 0 0112.3 4c3.3 6.5 3.4 9.8 2.5 13h-3.6l-5.6-2.3-4.6-3.4-3-5.6z"/><path fill="#04534e" d="M370 262.3s-1 1.3-3.4 1.2c-2.3-.2-13.2-3-15.9-12.7l.2 2.1.1.7.7 2 2.3 3.3 2.9 2.4 3.6 2 2.6.7 3.3.6h2l1.7-2.3z"/><path fill="#04534e" d="M364.4 259.5c0-.9.5-.9 1.2-.9s1.2-.3 1.2.6c0 .8-.5 2-1.2 2s-1.2-.8-1.2-1.7zm.5-5.2c0-.6.6-1 1.2-1 .7 0 1.2.4 1.2 1s-.5 1.1-1.2 1.1-1.2-.4-1.2-1zm-5 5.7c0-.4.7-.8 1.5-.8.7 0 1.3.4 1.3.8s-1.3 1.1-2.1 1.1-.6-.6-.6-1zm-.4-6c0-.8.4-.6 1-.6s1.6.3 1.6 1c0 .8-.9 1.8-1.5 1.8-.7 0-1-1.5-1-2.2zm-4.5 1c0-.7.4-1.6 1.2-1.6.8 0 1.7 1 1.7 1.6s-.7 1.1-1.5 1.1-1.4-.5-1.4-1.1zm.8-5.4c0-.7.4-.6 1.3-.6.8 0 1.5.3 1.5 1s-1 1.5-1.8 1.5c-.9 0-1-1.2-1-1.9zm5-.5c0-.7.5-.4 1.3-.4s1.4.5 1.4 1.1c0 .7-1 1.4-1.8 1.4s-1-1.5-1-2.1z"/><path fill="#8cbebf" d="M355.8 249.5c0-.5.4-.8 1-.8s1.1.1 1.1.8-.5 1.2-1 1.2c-.6 0-1.3-.6-1.1-1.2zm-1 5.2c0-.6.4-1.2 1-1.2.7 0 1.3 0 1.3.7s-.6 1.4-1.3 1.4c-.7 0-1-.2-1-.9zm5.9-5.5c0-.5.4-.6 1-.6.7 0 1.1.1 1.1.7 0 .5-.5.9-1.1.9-.7 0-1-.5-1-1zm-1.1 5c0 .7.5 1.3 1.1 1.3.7 0 1.4-.6 1.4-1.3 0-.7-.8-1.3-1.4-1.3-.7 0-1.1.6-1.1 1.3zm5.5-.7c0 .6.6 1.2 1.3 1.2s1.2-.6 1.2-1.2c0-.7-.6-1.2-1.3-1.2-.6 0-1.2.5-1.2 1.2zm-5.3 6.5c0-.6.5-1.1 1.1-1.1.6 0 1.2.3 1.2.9 0 .6-1 1.3-1.6 1.3-.6 0-.7-.6-.7-1.1zm4.7-.9c0-.7.5-.7 1.2-.7s1.1 0 1.1.8c0 .6-.6 1.2-1.3 1.2-.7 0-1-.6-1-1.3z"/><path d="M365.8 251s.7 1 .8 1.6c.1.7.1 1.5-.1 1.6-.3 0-.7-.4-.8-1-.2-.7 0-2.2 0-2.2zm-4.2-4.4s.5.8.5 1.4c0 .7-.1 1.3-.4 1.3-.4 0-.4-.6-.4-1l.3-1.7zm-4.8.7s.4.7.4 1.4c0 .6 0 1.3-.4 1.3-.3 0-.3-.6-.3-1.1l.3-1.6z"/><path d="M355 248.2s.7.2 1.3.6c.5.4.7 1 .5 1.2-.2.3-.7-.1-.9-.4 0-.3-.8-1.4-.8-1.4zm3.8 5s.9.1 1.4.6c.5.5 1 .9.6 1.2-.3.4-1-.2-1.3-.6l-.7-1.1zm-4.6 0s.9.1 1.3.4c.4.3.6 1 .4 1-.2.2-.5 0-1-.4l-.7-1zm11 3.3s.2 1 .2 1.8c0 .7.1 1.4-.2 1.4s-.5-1-.5-1.5c0-.6.5-1.7.5-1.7z"/><path d="M364 258.2s.7.3 1 .6c.4.3.5.8.2.9-.3 0-.4-.5-.6-.7l-.7-.8zm-5 .3s.9.1 1.2.3c.4.3.4 1.4.4 1.6 0 .1-.6 0-.8-.5l-.7-1.4z"/><path fill="#04534e" d="M357.2 243.7s-4.3 1-5 3.7a25.7 25.7 0 00-1 5.8l-.5-3.5.8-2.3 1.3-2 1.9-1.3 1.7-.6.8.2zm13.4 16.4s.4-1-.9-4.5c-1.2-3.3-3.8-7.8-3.8-7.8l2 2.3 1.6 2.6.8 2.4.6 2.2v2.1l-.3.7z"/><path d="M375 254.6s1.4 1 1.6 1.5c.1.6.2.7-.2.9-.4.1-1-.5-1.2-.9a8.6 8.6 0 01-.3-1.5zm-6.4 17s.7-1.4 1.7-1.9c.9-.5 1.6-.4 1.9-.1.2.3-.7 1-1.3 1.2l-2.3.7zm10.6 4s1-.5 1.7-1.3c.7-.7.8-1.2.5-1.5-.2-.2-1 .2-1.5.8-.3.5-.7 2-.7 2zm-1.2-1s.4-1.4.8-1.8c.3-.5.8-.7 1.2-.5.4.3.2.9-.1 1.2-.3.3-1.9 1-1.9 1z"/><path fill="#8cbebf" stroke="#04534e" stroke-width=".7" d="M395.7 266.5s-6.6-9.5-16.8-10c-8.2-.4-10.8 6.9-10.5 9 .3 2.3 3.4 7 14.3 7.8 10.9.8 12.7-5.1 13.1-5.4.5-.3 0-1.4 0-1.4z"/><path fill="#0c8489" d="M388 260s2.7 2 3.8 3.7c1.2 1.6 1.4 2.9.7 3-.6.3-6.6-5.2-11.4-6.4-4.9-1.1-9 0-10 2.3s-.6 5.8 1.6 7.2c2.2 1.5 12.6 3.2 12.6 3.2l4.9-.8 3-1.7.7-1.6.7-2.2.4-.8-2.5-2.8-4.6-3.1z"/><path fill="#04534e" d="M379.6 261.3c0 .6-.7 1-1.3 1-.6 0-1.2-.4-1.2-1s.6-1.1 1.2-1.1 1.3.5 1.3 1.1zm-6 2.2c0-.6.7-.6 1.4-.6.6 0 1.2.5 1.2 1 0 .7-1 1.5-1.7 1.3-.8-.4-1-1.1-1-1.7zm6.4 3.5c0-.8.7-1.4 1.5-1.4s1.5.6 1.5 1.4c0 .8-1.1 1.6-2 1.6-.7 0-1-.8-1-1.6z"/><path fill="#8cbebf" d="M375.2 268.4c0-.6.7-.8 1.3-.8.6 0 1.3.7 1.3 1.3s-.7 1.2-1.3 1.2c-.6 0-1.3-1-1.3-1.7z"/><path fill="#04534e" d="M383.9 270.8c0-.5.3-1 .9-1 .5 0 1.2.3 1.2.9 0 .5-.5 1.1-1 1.1a1 1 0 01-1.1-1zm4-3c0-.7.3-.6 1-.6s1.4.4 1.4 1.1c0 .7-.9 1-1.6 1-.7 0-.9-.8-.9-1.5z"/><path fill="#8cbebf" d="M379.2 260.8c0 .5-.2.8-.8.8s-1.2-.3-1.2-.8c0-.6.3-.8.8-.8s1.2.2 1.2.8zm-3.1 2.5c0 .6-1 1-1.5 1s-1-.4-1-1 .5-.8 1-.8c.6 0 1.5.2 1.5.8zm1.4 5c0 .6-.2 1-.8 1-.6 0-1.4-.4-1.4-1 0-.5.2-.8.8-.8.6 0 1.4.3 1.4.9zm5.2-1.7c0 .6-1 1.2-1.7 1.2-.5 0-.8-1-.8-1.6a1 1 0 011-1c.6 0 1.5.9 1.5 1.4zm7.5 1.7c0 .5-.9.5-1.4.5-.5 0-1-.6-1-1.2s.2-1.1 1.5-1c.5.1 1 1 1 1.7zm-4.4 2.3c0 .5-.5 1-1 1s-1-.5-1-1c0-.6.4-.8 1-.8s1 .2 1 .8z"/><path d="M386.4 267.4s1.1-.3 2-.2c.7 0 .8.4.8.5s-.7.4-1 .3a113 113 0 01-1.7-.6zm-4.4 3.8s.9-.5 1.5-.7c.6-.1 1.2.1 1.1.5 0 .4-.2.5-.9.5-.6 0-1.7-.3-1.7-.3zm-2.8-6.6s1.8.8 2.2 1.5c.4.8.5 1 .2 1.1-.4.3-.8-.2-1.1-.5a71.7 71.7 0 01-1.3-2z"/><path d="M378.7 267s1.4-.5 2-.5c.7 0 .9.1 1 .4 0 .3-.2.4-.7.4-.6 0-2.3-.4-2.3-.4zm-4.5 0s1.5.2 2 .6c.3.4.3.8.2 1-.2.3-1 .1-1.1-.1-.3-.2-1-1.5-1-1.5z"/><path d="M374 269.2s.6-.8 1.1-1c.6-.2 1.2-.2 1.3.1.2.3-.4.7-.8.8l-1.6.1zm-1.2-6.7l1.5.4c.6.5.7.8.6 1-.1.1-.7.2-1.1-.1a2.8 2.8 0 01-1-1.3zm3.4-3.8s1.5.4 2 1.1c.5.7.5 1.1.2 1.3-.2.1-.8-.3-1.2-.6-.3-.3-1-1.8-1-1.8z"/><path fill="#04534e" d="M393.9 269.8s-3.2 2.7-10.3 2.4c-7.1-.2-13.6-3.3-15.2-6.6l.7 1.6 1.5 2.2 5 2.5 5.6 1.3 4.4.2 4.2-.7 3.2-1.6c.2 0 .6-.8.6-.8l.3-.5zm.9-3.4s-1.2-1.4-2.9-3c-1.6-1.6-8-5.8-8-5.8l5.2 2.4 3.4 3 2.5 2.6-.2.8z"/><path d="M395.1 260.1s1.8.7 2 1.1l.8.9s-.5 1.1-1 .6l-1-1-.8-1.6zm5.3-2.8s1.7.7 2.3 1.5c.6.8.5 1.5.2 1.6-.3 0-1.4-.9-1.5-1.3l-1-1.8z"/><path d="M402 257s1.7 1 2 1.6c.2.5.7 1.2.2 1.4-.5.2-1.3-.6-1.5-1l-.6-2zm9 2s1.3.5 1.4 1.5c.2 1 0 1.8 0 1.8s-1-.8-1-1c0-.2.2-.4 0-.8l-.3-1.5zm2.5.9s1 1 1 1.6c.2.7.3 1-.2 1.2-.6 0-.9-.6-.9-1.1v-1.7zm-16.1 19.6s.7.3 1.5 0c.7-.2 1.3-.8 1.2-1.3-.2-.4-.6-.8-1.1-.2-.6.5-.3.8-.7 1l-1 .5zm8.8 2.4s1.2-.2 2-1c.8-1 1.2-1.5.6-1.7-.5-.3-1.3 0-1.4.7-.1.6-1.2 2-1.2 2zm7.3.3s.9-.6 1.6-1.2c.7-.7 1-1 .6-1.5-.5-.5-.8-.2-1 0-.3.3 0 .3-.3 1l-.9 1.6z"/><path d="M415.7 282.1s1-1.2 1.2-1.8c.2-.6.3-1.4-.1-1.3-.4 0-1 .6-1 1v2.1z"/><path fill="#8cbebf" stroke="#04534e" stroke-width=".7" d="M393.6 270.3c0-3.2 4.6-10.6 9.8-10.5 2.2 0 6.5 1.2 10 2.7 2.8 1.3 3.8 2.8 5.7 3.2 1.9.5 4.8.2 4.8.2l6.5-.8-5.1 7.5-1.8 1.6s-1.7 3.2-6.3 5c-4.6 1.8-12.5.5-16-.4-3.5-.8-7.7-4.2-7.6-8.5z"/><path fill="#04534e" d="M393.6 270.3h.3c0-.7.3-1.7.8-2.8a16 16 0 013.5-5 7.8 7.8 0 015.1-2.3c1.1 0 2.7.3 4.5.7 1.7.5 3.7 1.2 5.4 2 1.4.6 2.3 1.2 3.2 1.8a7.8 7.8 0 002.6 1.4c.8.2 1.8.2 2.6.2l2.3-.1 5.8-.7-4.7 6.9-1.8 1.6c-.1.2-1.7 3.2-6.1 4.9-1.7.6-3.7.9-5.9.9-3.7 0-7.7-.8-10-1.3a11 11 0 01-4.9-2.9 7.4 7.4 0 01-2.4-5.2h-.3l-.4-.1v.1c0 2.3 1.1 4.2 2.6 5.7a11.7 11.7 0 005.3 3 45.9 45.9 0 0010.1 1.4 17 17 0 006.1-1c4.8-1.8 6.4-5 6.5-5.1l-.3-.2.2.3 1.9-1.7 5.5-8.1-7.3.8h-.1a19.6 19.6 0 01-4.6-.1 7.2 7.2 0 01-2.4-1.2c-.8-.6-1.8-1.3-3.2-2a38 38 0 00-5.5-2c-1.8-.4-3.5-.7-4.6-.7h-.1c-1.4 0-2.7.4-3.9 1.2a14.7 14.7 0 00-4.4 4.7 11 11 0 00-1.8 5h.4z"/><path fill="#0c8489" d="M425.2 271.3c-.5.4-1.1.4-1.8.4s-15.2-8.8-19.7-8.4c-4.6.4-8.9 2.3-9 7-.1 4.5 1 4.6 2 5.9 1 1.3 9.8 3.2 9.8 3.2h5.4l4.3-.5 3.9-2.1 2-1.7 1.4-1.7 1.7-2z"/><path fill="#04534e" d="M402.3 269c0 .8-.4 1.5-1.3 1.5s-1.5-.4-1.5-1.3.5-1.3 1.4-1.3c.8 0 1.4.1 1.4 1zm1.5-4c0-.8.7-1.2 1.5-1.2.9 0 1.5.3 1.5 1s-.6 1.4-1.5 1.4c-.8 0-1.5-.5-1.5-1.3zm8.7 2.3c0-.7.5-1.2 1.2-1.2s1.3.5 1.3 1.2c0 .6-.6 1.2-1.3 1.2-.7 0-1.2-.6-1.2-1.2zm1.7 5.3c0-.8.6-1.5 1.4-1.5.8 0 1.5.3 1.5 1.2 0 .8-.3 1.6-1 1.6-.8 0-1.9-.5-1.9-1.3zM410 276c0-.7.6-1.3 1.4-1.3.8 0 1.5.6 1.5 1.3 0 .7-.6 1.2-1.4 1.2s-1.5-.5-1.5-1.2zm-8-1.4c0-.7.6-1.2 1.3-1.2a1.3 1.3 0 110 2.5c-.7 0-1.3-.6-1.3-1.3z"/><path fill="#8cbebf" d="M402.2 268.8c0 .7-.6 1.3-1.4 1.3-.7 0-1.3-.6-1.3-1.3 0-.8.6-1 1.3-1 .8 0 1.4.2 1.4 1zm4.2-4.2c0 .7-.2 1.2-1 1.2-.6 0-1.6-.5-1.6-1.2s.6-1.2 1.3-1.2c.7 0 1.3.6 1.3 1.3zm8.5 2.3c0 .6-.6 1-1.3 1-.7 0-1.2-.4-1.2-1s.5-1 1.2-1 1.3.4 1.3 1z"/><path fill="#04534e" d="M410.4 270.5c0 .9-.4 1.5-1.2 1.5-1 0-1.6-.4-1.6-1.3s.5-1.2 1.4-1.2c.9 0 1.4 0 1.4 1z"/><path fill="#8cbebf" d="M404.3 274.3c0 .7-.6 1.3-1.4 1.3-.7 0-1.3-.6-1.3-1.3 0-.7.8-1 1.6-1 .7 0 1.1.3 1.1 1zm5.8-4c0 .7-.6 1.3-1.3 1.3a1.3 1.3 0 01-1.3-1.3 1.3 1.3 0 012.6 0zm7 1.8c0 .8-.6 1.4-1.4 1.4-.8 0-1.5-.6-1.5-1.4 0-.8.3-1 1-1 1 0 1.8.2 1.8 1zm-4.5 3.6c0 .7-.5 1.2-1.2 1.2-.8 0-1.5-.4-1.5-1.2s.6-1 1.4-1c.7 0 1.3.3 1.3 1z"/><path d="M413.1 271.4s2.2-.2 2.6.2c.4.4.3 1 .1 1-.1.3-1 .3-1.2 0a12 12 0 00-1.5-1.2zm-2.1-7s1.7.4 2.3 1.1c.7.7.6 1.4.5 1.5-.2.1-.8.3-1.2-.2l-1.6-2.4zm-5 3.4s2 1 2.4 1.6c.4.6.6 1.1.4 1.4-.2.2-1.2-.1-1.3-.4l-1.4-2.6z"/><path d="M405.2 269.3s2.2.2 2.7.6c.5.5 1 .5.9.8 0 .3-.3.6-.6.5a4.7 4.7 0 01-1.5-.6l-1.5-1.4zm-2.5-6.4s2.2.3 2.7.7c.4.3.5 1.3 0 1.6-.5.3-1-.3-1.2-.7-.2-.4-1.5-1.6-1.5-1.6zm-4.8 3.3s2 1 2.7 2c.3.4.6.8 0 1-.6.2-1.2-.8-1.2-1 0-.3-1.5-2-1.5-2z"/><path d="M397.5 268.9l1.9-.3c.6 0 1.5-.2 1.5.3s-.7.6-1.2.5l-2.2-.5zm11.3 7.3s1.4-1 2-.8c.8.2 1 .1 1 .6 0 .4-.8.3-1 .3l-2-.1zm-8-1.2s.6-.8 1.2-.9c.6 0 .8 0 1 .2 0 .3-.6.8-.8.8h-1.3z"/><path fill="#04534e" d="M423.4 273.6s-2.1 2.6-5.2 3.9c-3 1.3-5.3 1.7-9.5 1.5-4.2-.3-6.3-1-9.1-2.4a14.8 14.8 0 01-5.6-4.5l.5 1.5 2.6 3.4 3.1 1.4 4.6 1.1 4.3.5h3.3l3.9-.6 2.5-1 1.7-1 1.3-1 1.6-2.8zm-4-7.7s-1.2.4-3.8-1.2c-2.6-1.6-5.7-3.7-11.6-3.8-5.9 0-7.7 4-8.1 4.3-.4.3 2.6-3.5 2.6-3.5l2.7-1.4 2-.4 2 .1 2.7.7 2.3.7 2.8 1 2.3 1.3 3 1.5 1 .7zm7.9 1.7h-4.5c-1 .1-1 .3-1.1.5l-.4.6-1-2.2 4.6-.7 2.6 1-.2.8z"/><path fill="#0c8489" stroke="#04534e" stroke-width=".7" d="M421 291.7c.2.6.7 1.2 1.4 1.2h2.1l4.7-.3 1.6-1.9 1-4.2 1.3-1.6 4.3-2.4 3.8-1 2.4-.3 3.3-1.1 2.5-1.3 1-1.6 1-2.4-1-3.2-2.6-3.5-4.4-1.8h-3.6l-4.1 1.5-7.2 1.7s-4 1.7-5.6 4.8c-1.7 3.1-1.6 4-2 8-.2 4 0 9.4 0 9.4z"/><path fill="#8cbebf" d="M422.9 290c1.3 0 .3-2.2 1.8-4.9 1.6-2.7 3.5-6 4-6s.6.5 1.1.3a3.8 3.8 0 001.6-1.2c0-.3 0-1.8 1.3-2.8 1.2-1 2.8-2.3 3.6-2.5.8-.2 1.2-.3 1.3 0 .2.4-.4 1 .1 1.1.6.2 1.8.1 2.1-.7.3-.8.2-1.2.2-1.2s.9-.8 2.4-.5c1.6.4 1.8.3 2 .9 0 .6-.8.7-.6 1.1.2.4-.1.4 0 .7.2.3.4 1.3 1.5 1.2 1 0 1.5-.6 1.5-.6l.3-.5s.3-.7-.1-1c-.4-.2-.3-.5.1-.4.4.2 2 2.4 2.6 1.5.5-1 .6-2.2.3-2.5l-2.6-3.7-4-1.4-5.3.5-5.1 2.9-4.7 2.5s-.3 3.9-1.1 3.2c-.9-.7-2.1-2.6-2.5-2l-1.6 4.9a30 30 0 00-1.8 7.4c.2 1.6 1 3.8 1.6 3.8z"/><path fill="#8cbebf" d="M427.6 283.9a2 2 0 00-1 .6c-.2.2-.5.7-.3 1.2.1.5.9 1 1 1h.5l1.3-.4s.4-.4.4-1-.3-.8-.5-.9a42 42 0 01-1.4-.5zm8.1-6.8c-.7-.2-1 .3-1.1.5-.2.2-.1.7-.1.7s.1 1 .5 1.2c.4.2 1.4.6 1.7.2.3-.3.7-.6.6-1.2 0-.7-.9-1-.9-1l-.7-.4zm6.6 1.6c0-.2-.7-.4-1.1-.3-.5 0-1 .6-.8 1.4.2.8 1 .9 1.6.7.6-.1.5-1 .5-1.1l-.2-.7zm-19 1.3c0 .4.7 1.2 1.7 1.1.9 0 1.4-.7 1.5-1.3.1-.5-.5.5-1.1.7-.7.1-1.1.3-1.4 0-.3-.4-.6-.5-.6-.5z"/><path fill="#04534e" d="M429.5 285.3s.1.8-.5 1.2c-.6.4-1 .4-1.3.4-.4 0-.7 0-1-.4-.3-.4-.4-.9-.4-.9s.6 1.1 1.7.8c1-.2 1.5-1.1 1.5-1.1zm17.6-11s0 .9-.7 1.2c-.6.4-.9.5-1.2.4-.4 0-.9-.1-1-.5-.9-1.2-.4-2-.4-2s.5 2.1 1.6 2c1-.2 1.7-1 1.7-1zm-15.7 3.8s-.5 1.6-1.6 1.6-1-.3-.9-.5c0-.2.5.2 1 0s1.5-1.1 1.5-1.1zm3-.3s0 1.2.4 1.6c.4.4.8.6 1.3.6.4 0 .8-.1 1.1-.6.3-.4.1-1 .1-1s0 .3-.3.7c-.3.3-.6.4-1 .4-.3 0-.9 0-1-.5l-.5-1.2zm5.6-5.7s.4.9-.3 1.6c-.7.7-2 .3-2 .3s1 .3 1.6-.3c.5-.6.7-1.6.7-1.6z"/><path fill="#04534e" d="M422.3 292.6s6.9-.1 7.4-1c.6-1-.6-4.7 3.6-7.7s7.4-2.9 9.6-3c2.3-.2 7-1.7 7.9-6 .5-2.6-3-2.7-4.3-5.2-1.4-2.5-4.8-1.5-5-1.5-.1 0-3.9 0-5.7 1.7-1 1-1 2.3-1.4 3-.5.5-5.1 0-5.6.6-.5.8.1 2.3-.2 2.7-.4.3-1.5-1-1.5-1l.4-3.7 5.8-3.4 6.7-3.7 4.5.2c.2-.1 4.5 2.2 4.6 2.2l2.3 2.6s.4 1 .6 3.1c0 1 0 1.8-.2 2.5a9.5 9.5 0 01-8.8 6.6c-4 .2-7.5 2-9.3 3.3-1.8 1.3-2.7 7-2.7 7.8 0 .7-8.6.2-8.6.2l-.1-.3z"/><path d="M425.2 279.1c-.4.3-.9.3-1-.1-.3-1.1.3-2.8.3-2.8s0 1.8.2 2c0 .3.4.3.6.5 0 0 .2.2-.1.4zm4.3-.9c-.3 0-.3-1.1 0-1.6.3-.4 2.2-1.9 2.2-1.9l-.9 2c-.2.5-.9 1.7-1.3 1.5zm-1.7 7c-.3.1-.4-.5-.4-1.2 0-.8 1.4-2.2 1.4-2.2l-.5 1.6.2 1.2c0 .5-.4.6-.7.7z"/><path d="M431 283.3s-.6.7-1.3 1.1c-.7.4-1.5 1-1.9.9-.4-.2.3-1 .5-1.2 1.2-.5 2.7-.8 2.7-.8zm6-8.4s-.8.6-1.2 1.6c-.4.9-.6 1.6-.2 1.8.4.2 1-1 1-1.5l.3-2z"/><path d="M439.1 277.8s-.5-.5-1.5-.7c-1-.3-1.4 0-1.5.2-.2.3-.9.8-.5 1 .4.2.8-.4 1-.5.4 0 .7-.3 1.2-.2l1.3.2zm-1.3-5.8c.4.3 1-.2 1.4-.8.5-.5.9-1.5.9-1.5l-1.4.8c-.5.4-1 1.4-.8 1.5zm9-.2s-1 .6-1.5 1c-.4.6-.9 1.2-.5 1.5.4.3.8-.3 1-.7.4-.5 1-1.8 1-1.8zm-2.5 6s-.4.9-1.1 1.4c-.8.5-1.6.7-1.8.4-.1-.2.1-.8.4-1l1.1-.2a9.6 9.6 0 001.4-.5z"/></g><ellipse fill="url(#b)" cx="385.6" cy="257.8" rx="3.8" ry="5.6" transform="rotate(8.7 385.6 257.8)"/><g fill="#fcca3e" stroke="#aa8c30" stroke-width=".3"><path d="M387.7 247.7l-2.3 5.6 1.9-.2 1-5z"/><path d="M388.7 245.3c-.8 0-1.5.5-1.6 1.4-.1.9.4 1.6 1.2 1.7.8.1 1.5-.5 1.7-1.3 0-.9-.5-1.7-1.3-1.8zm96.5 14.1l-5.5 5.1 2.3.6 3.8-5z"/><path d="M487.7 257.2a2 2 0 00-2.6.7c-.6 1-.3 2 .5 2.6a2 2 0 002.7-.8c.5-.9.3-2-.6-2.5zm-142.8-27.8l2.9 6.5 1.3-1.8-3.4-4.9z"/><path d="M343.7 226.7a1.8 1.8 0 00-.2 2.5c.7.7 1.8.9 2.5.3.7-.7.8-1.8.2-2.5a1.7 1.7 0 00-2.5-.3z"/></g><g fill="#aa8c30"><path d="M389.3 245.6s.4.2-.1 0c-.5-.1-1.8.5-1.8 1.4 0 .8.7 1.3 1.3 1.3.7 0-.2.1-.2.1l-.9-.2-.3-.5-.3-.7.2-.8.5-.6.7-.2h.4l.5.2z"/><path d="M388 249.3s-.4 0-.7.4l-1 1.4 1.3-3 .7.3-.3 1zm100.2 8.4s.4.5-.1 0-2.3-.3-2.7.7c-.5 1 0 1.8.8 2.1.7.3-.4 0-.4 0l-.8-.6-.2-.8v-.9l.7-.7 1-.5h.8l.5.3.4.4z"/><path d="M484.8 261.3s-.4-.3-1 .1l-1.9 1.1 3-2.8.7.7-.8.9zm-140.5-35s.6-.2 0 .2c-.5.3-1 1.8-.3 2.5.8.7 1.7.6 2.2 0s0 .3 0 .3l-1 .5h-.7l-.8-.4-.4-.8-.2-1 .3-.7.4-.3.5-.3z"/><path d="M346.5 230.4s-.4.3-.2 1l.4 2-1.6-3.6.8-.3.6 1z"/></g><ellipse fill="url(#c)" cx="351.5" cy="241.6" rx="6.1" ry="4.1" transform="rotate(62.9 351.5 241.6)"/><g fill="#e92736"><path d="M344.6 240.2s1.3.3 2 0c.7-.4.8-.9 1-1 .1-.2.3-.8.2-1.3a5 5 0 00-1.2-1.9l-1.4-.1c-.2-.2.1-.6-.3-.7-.3 0-2.2 2.1-1.9 2.5.3.3.5-.2.6 0 .2.3 0 1.2 0 1.5 0 .3 1 1 1 1z"/><path d="M346.5 236.2c.1.3.8 1.2 1.1 1.4a3 3 0 001.5 0c.2-.1 1.1-1 1.2-1.4 0-.4 0-.6-.2-1s0-1.4-.4-1.5c-.3 0-.5 0-.7-.3-.1-.2.1-.5-.1-.9-.3-.4-3.3 1.4-3 1.8.2.3.5 0 .6.2 0 .2-.2 1.3 0 1.7z"/><path d="M353.4 235.4c.1-.4 0-2-.2-2.2-.3-.4-.8-.4-.9-.6 0-.2.4-.3.4-.6s-3.4 0-3.2.5c.3.3.8.1.8.4 0 .2-.6.5-.6.8l.3 1.4c.1.3 0 .6.3.7l.7.3 2-.1c0-.2.2-.1.4-.6zm28.7 17s.6.9 1.2 1.1c.6.2 1 0 1.2 0l.9-.5c.2-.3.5-1.7.4-2 0-.2-.7-.7-.7-1 0-.1.4-.2.2-.4-.1-.3-2.6-.3-2.6.2 0 .4.4.2.3.4 0 .3-.6.7-.8.9-.2.2-.1 1.2-.1 1.2z"/><path d="M385.7 251.1c-.1.3-.3 1.3-.2 1.5 0 .3.6.8.8 1h1.5c.3-.3.5-.5.6-.8.1-.3.8-.9.6-1.1l-.2-.6c0-.2.4-.3.5-.6.1-.4-2.8-1.3-2.8-1-.1.4.3.4.2.6 0 .2-1 .7-1 1z"/><path d="M390.2 255c.3-.2 1.2-1 1.2-1.5 0-.3-.2-.7-.1-.8 0-.2.4 0 .6-.2.2-.2-2-2-2.2-1.7 0 .4.4.6.2.8h-.8a3 3 0 00-.7 1.1c-.1.2-.4.3-.2.6l.2.6c.1.3 1 1.1 1.2 1.1.1 0 .2.2.6 0zm86.7 7.3s0 1 .5 1.5c.4.5.8.5 1 .6h1a4 4 0 001.2-1.4c0-.3-.3-1-.2-1.2 0-.2.4 0 .4-.3s-2-1.4-2.3-1.1c-.2.3.3.4.1.6l-1.1.3c-.3 0-.6 1-.6 1z"/><path d="M480.3 263a4 4 0 00-1 1c0 .2.1.9.3 1 0 .3.9.8 1.2.7.3 0 .5 0 .8-.2.2-.2 1-.3 1-.6l.2-.5c.1-.2.4 0 .7-.3.2-.2-1.6-2.2-1.8-2-.3.3 0 .4 0 .5-.3.2-1.2.2-1.4.3z"/><path d="M481 267.8c.3.2 1.5.2 1.8 0l.4-.7c.2 0 .3.3.5.3.3 0 0-2.5-.3-2.4-.3.2-.1.6-.3.6-.2 0-.4-.5-.6-.5a3.1 3.1 0 00-1.2.2c-.2.1-.4 0-.6.2s0 .3-.2.6v1.4c.1.1.1.2.5.3z"/></g><path d="M346.7 237.4c.3.5 0 1.5-.3 1.7-.2.3-1.7 0-1.8-.4l.1-1c.2-.2.7-.9 1.1-.8.4 0 .8.4 1 .5zm.4-1.8c-.2.3.1.8.3 1 .2.2 1.3.5 1.6.3.3-.2.7-1.9.5-2.1-.2-.3-.8-.3-1-.3-.2 0-1.3.8-1.4 1zm3.6-1.8v1c.2.2 1 .7 1.3.6.4 0 .6-1.2.6-1.4 0-.2 0-.3-.4-.4-.3-.1-1.5.3-1.5.3zM385 252c0 .4-1 .8-1.2.8-.3 0-1-1.2-.8-1.4.2-.2.4-.5.7-.5.3 0 1-.1 1.1.2.2.3.3.7.2.9zm1.4-.9c-.3.1-.4.6-.4.8 0 .2.4 1.1.7 1.2.3 0 1.6-.6 1.6-1l-.4-.7a3.9 3.9 0 00-1.5-.3zm3.2 1.3c-.3.1-.6.5-.6.6 0 .2.1 1 .4 1.2.2.2 1-.3 1.2-.5v-.5c0-.3-1-.8-1-.8zm90 10.8c-.3.3-1.1.2-1.4 0-.3 0-.3-1.4 0-1.4.1-.1.5-.3.7-.2.3.1.9.4.9.7l-.2.9zm1.2.1c-.3 0-.6.2-.7.4-.2.2-.2 1 0 1.2.2.2 1.5.2 1.7 0 .2-.2.1-.6 0-.7a3.5 3.5 0 00-1-.9zm1.5 2.6c-.3-.1-.7-.1-.8 0-.1 0-.5.6-.5 1 0 .2 1 .4 1 .4.3 0 .4 0 .5-.3l-.2-1.1z" fill="#f7e204"/><ellipse fill="url(#d)" cx="476.7" cy="268.6" rx="2.9" ry="5.9" transform="rotate(47.9 476.7 268.6)"/><g fill="#78732e"><path fill="#a8ac71" d="M375.1 185.2s-5 .5-8.5-.1-2.7-9.6-2.8-9.8c-.1-.3-2.1-2.4-1.8-4.4.3-2 6.8-7.3 7.7-7.5.6-.2 1.8.3 1.8.3s1.7-1.6 2.2-1.6c.5 0 1.1 1 1 1.3-.2.4-2.5 1.7-2.6 2.7-.2 1 0 2-.6 3-.7 1-2 2.3-2 3-.2.9-.6 1.6 0 2 .7.2 2.8 0 4.6-.9 1.8-.8 2.5-1.9 2.8-1.8.2.1-1 2.3-3 3.1-2 .9-3.4 1.8-4.4 1.7 0 0-1 2.7 2.3 2.8a12 12 0 005.4-.8l-2 7zm-19.6 21s2.6 1 2.6 4c0 2.9-2.9 5.4-2.8 10.5.1 5.2 1 5.3 7.8 10.8a7.5 7.5 0 012 3.4c.4 1.7 1.6 11.6 8.2 11.6s7.5-4.3 7.5-4.3l-2.8-4.1s-2.3.7-3.5.4a4.5 4.5 0 01-3-2.8c-.8-1.6-1-5.4-2.1-7-2.8-4.2-7.7-4.9-7.8-9.2 0-4.4 3-4.9 2.2-10-.9-5.3-7-7.8-7-7.8l-2.5-1-1 5.2 2.2.3z"/><path fill="#f1a720" d="M373.7 169.9c2.2-.5 1-6.3 1-6.3l-1.6 1.3s1 1.2 1 2.5c0 1.4-.4 2.5-.4 2.5z"/><path fill="#a8ac71" d="M377.7 227.5l-1.1-1c-.8-.5-4.3-3.3-3.7-11.6.6-9.4 14.3-14.4 15.2-18.1 1-4.2 4.1-6-6.8-14.5l-2.6 3 4.5 3.3s1-.5 1 .8c.1 1.2-1.1 2.3-1.4 3.3-.3.9-7.1 5.6-7.6 6.1l-4 3.1s-1.7 1.7-3.4 5.4c-1.6 3.7-.8 8.3-.8 8.3s0 10 10.7 11.9z"/><path d="M371 232.7l.8 3.6-2.2.8h-1l-.6.2-1.7 1.7-.4-.2s-.3.1-.3-1l-.3-1.9 2 .9h.8l.5-.1.9-2 1.5-2zm-6.3.7l-1-1.3c-.3-.5-.5-.6-1.2-1.2l1.5-.8h1.6l-.3 2-.6 1.3zm3.6-5.7s1 .5 1.3 1.3l.8 1.6-2.5-.2-2-.6 1.3-1.7 1.1-.4zm-1 15.7s-.5-.4-.8-1.2c-.3-.8-.5-2.1-.5-2.1l1.7-.3 2 .8h.5l-.5 1-2 1.7h-.4zm6.7-5.5s-1.4-.4-1.7-1.1c-.2-.8-.4-.6-.4-.6l-.5 2-.6 1.9.2.3 1.5-.4 1.2-1.2.3-.9zm-6.2 6.3l1.8 1c1 .7 1.6.7 1.6.7l.8-.9.8-1.6.1-.2-4 .4-1.1.7zm5.8-1.5l3.4-2 .2-2-.6-.4h-2l-.6 2.3-.4 2.1zm-2.5 3.2s2.4 1 6.6-.4c1.9-.7 2.2-1.6 2.2-1.6l-1.6-.7-1.6 1.4-5.6 1.3zm-3.2-26.6l-.5-1.8-.2-1.4 1.2.6 1.8 1.3-1.3 1-1 .3zm2.9 4.9l-1.2-1.4-.8-1.5 1.3.3 1.5.7-.7 2-.2-.1z"/><path fill="#c6c7a6" d="M363 169.2c-.2.8-.5 2.3.6 2.6.7.2 3.2 0 6-3.2 1.4-1.6 1.4-3.1 1.4-3.1l.5-1.8s-1-.8-2.9.3c-1.6 1-5.6 5.2-5.6 5.2z"/><circle fill="#1c242f" cx="370.8" cy="164.6" r=".5"/><path fill="#a8ac71" d="M367.2 165.2l-2.4 2.1s2-.5 3.5-1.9a4.5 4.5 0 013.4-.9c.5.1.3-.5 0-.6-.4-.4-1.8-.6-2.1-.4 0 0-1.2.7-2.4 1.7z"/><path d="M373 218.3l-.2-1.4v-1.5l-1 1-1.2 1.5 1.7.6.6-.2zm-6-3.4s-.1-1.5 0-3c0-1.4.7-4.1.7-4.1l.7 1.8 2 3.2.7.5-1.7 1.3-1.8.6-.6-.3zm6-.8l.2-1.4c.2-.7.8-1.7.8-1.7l-.1.1a33.7 33.7 0 00-2.7 2.3l1.1.8h.7m-4.8-7.7s.3-1 1.2-2.2l1.8-2.3.8 3.1.4 2.7.1.6-.9.2c-.2 0-2.2-.1-2.4-.4a42.8 42.8 0 01-1-1.7zm6.2 3.6l1.1-1 1.3-1.5-4.2.8.6 1.4 1.2.3zm-2.5-8.7s.4-.1 1.5-1.2c1.1-1.2 1.7-1 1.7-1l.4 4.5-2.2-.7-1.4-1.6z"/><path d="M377.1 207.4l2.5-2.6-4.2-1.2.8 3zm1.8-6.8l.2-4.4s-.8.4-2 1.3a13 13 0 01-1.5 1.2l.5.8 1.5 1h1.3zm3.7-4.3V193h-.1s-.6 1-1.3 1.6l-1 1 1 .7 1.4.1zm1.6 4.6l2-1.6c1.4-1 2-2.2 2-2.2l-5.5-.4.3 2.2 1.2 2zm-12.7-18l-.2 2.4h4.6l-1.1-1.6-1.4-.8-1.3-1.4zm8.8 21.3l2-1.6c.6-.7 1.6-1.3 1.6-1.3l-4.4-.5.1 2.9.7.5zm8.2-7.8s.5-1.7.4-3.4c0-1.7-.3-2.4-.3-2.4l-3.2 2.2.5 1.6 1.2 1.4 1.4.6z"/><path d="M383 192.4s1-1.2 1-1.8v-.5h2.6l1.5.2.2.1-1.1 1.4-1.6.9-2 .2-.6-.5zm5.2-2.6l-1.6-2.6a5.6 5.6 0 00-1.1-1.4l-1.3 3.7-.1.4h4z"/><path fill="#fff" d="M356.5 215.3l-.5 1s1.7-.9 3-.8c1.4 0 2.9 1.7 2.9 1.7l.3-1.2s-1.8-1.7-3-1.8c-1-.1-2.7 1-2.7 1zm.9-7.7l.4.6c.1.1.2-1.3 1.9-2s2.7-.1 2.7-.1-.4-1-1.2-1.2c-.7-.3-1.5-.1-2.4.6-1 .6-1.4 2.2-1.4 2.2zm5.8 5.8s-.8-1.7-2.2-2c-1.4-.4-3.2.7-3.2.7l-.3.9s2-1.1 3.4-.5c1.4.5 2 2.1 2 2.1l.3-1.2zm-6.5-6.7c0 .3.4.7.4.7s-.2-1.9.6-2.8c.9-1 1.5-1.3 1.5-1.3l-.8-.4s-1 .7-1.5 1.5a4.2 4.2 0 00-.2 2.3zm-.8-3c.4-1 1.6-1.4 1.6-1.4l-.4-.3h-.6s-.7.4-1.2 1.4c-.4 1-.4 2.6-.4 2.6l.7.4s-.1-1.8.3-2.7zm10.3-25.1c1.1-.6 2-.5 2-.5s-1.7 1.7-1 3.8c-.8 1.8-1.1 3-1.1 3h.8l.7-2.3c.9 1.7 2.4 2.7 2.4 2.7h1.3s0-1.8.7-3.3l.1.2a6.6 6.6 0 002.7 1.8v-.4s-1.5-1-2.4-2v-.2c1-1.6 2.4-2.2 2.4-2.2l.9.8.2-.3-.7-.9h-.8s-1.4 1.2-2.3 2.2a12 12 0 01-1-2l-.6-.2s-1.4.1-2.7 2.2c-.2-1.5 1.6-3.1 1.6-3.1l-.1-.7-3.1.8c-1.4.4-2.2 1.7-2.2 1.7v.9s1.2-1.4 2.2-2zm2 2.8a7 7 0 012.5-2s0 1 1 2.2c-.7 1.2-1 3-1 3s-1.3-.9-2.5-2.6a2.1 2.1 0 01-.2-.4l.1-.2zm-10 27.7v1s1-1.1 2.7-1.1c1.5-.1 2.9 1.1 2.9 1.1s0-1.3-.2-1.4a6 6 0 00-2.7-1c-1.2 0-2.7 1.4-2.7 1.4zm28-14.7l-.5-1.4.7-.3c1.3-1 2.2-2.1 2.2-2.1l-.4-.8H386l-1.8-.1.7-2.2.7-1.8-.7-.8s.2.7-1.1.9c-1.3.1-3.7-1-3.7-1v.4s2.1.7 3.3.9c.7 0 1.3-.1 1.6-.4l-.7 1.8-.4 1.2c0 .2.3.3.3.3l-.1 1.1 1.8.2 2.3.1s-1.2 1.4-2.3 1.9l-.5.1a59.1 59.1 0 00-1.3-2l-.1.7 1 1.5-2-.2-.5.6v3.2l-2.3-.7-.5.3-.6.4s-.5 2-.4 4.2c-2-.5-3.1-1.7-3.1-1.7l-.5.4s-.4 2 .1 4.2a7.7 7.7 0 01-3.3-1.9l-.7.6s.4 3.7.8 5.7l.1.5h-1c-1.8 0-2.9-1.7-2.9-1.7l-.5 1.3s.7 3.6 2.7 5.2l.4.3a8 8 0 01-3.8 1.6l.2 1.2 2.4 1.8.4.2c-1 .8-2.2 1.2-2.2 1.2l.4.7 2.3-1.7c1 .4 2.4.6 2.4.6v-.6s-1 0-2-.4l.2-.1c.6-.6 1.7-2.4 1.7-2.4l.2-1.3s-.8 0-1.6-.7c2.4-1.7 2.5-2.4 2.5-2.4l.5-.9s-.8-.3-1.4-1.5a28.4 28.4 0 003.8-1l.3-.2s-1-1.6-1.3-3.4l3.8.8.6-.5s-.4-1.6-.6-3.3l4.2.4.4-.5s-1.3-2.4-1.2-3.8v-.1l1.2.1h4l.3-.7s-1.8-1.2-2.2-2zm-13.7 20.3s-.6 1.2-1.8 2.7l-.3.3a6 6 0 01-.7-.3c-1.4-.9-1.8-1.8-1.8-1.8l3.2-2a16 16 0 011.4 1.1zm1.1-4.1s-.7.9-2.5 2.5a5.4 5.4 0 01-.6-.6c-1-1.5-2.5-2.8-2.4-5a3 3 0 002.9 1.4l1.3-.2a4.4 4.4 0 001.3 1.9zm2.7-3.3s-1.8.6-3.5.8a7 7 0 01-.2-.5c-.7-2.1-.7-5.3-.7-5.3s1.5 1 3.4 1.6l1 3.4zm-.6-3.9c-.3-2 0-3.8 0-3.8s1.1 1 3 1.4l.4 2.6s-1.5.1-3.4-.2zm7.6-3s-1.3.6-3.7.2V196c.4.2 1.7.7 3 1v.1c.1 2 .7 3.5.7 3.5zm-.2-4h-.1v-3.5s1.3.3 2.2.2c.2.6 0 .7.7 1.6.6 1 1.4 1.7 1.4 1.7s-3 .2-4.2 0zm-9.9 24.4l-.1-.7s-1.2.9-1.6 1.8a2.2 2.2 0 01-.3 0l-2.7-1.1.3.5 2.4 1h.2a72.1 72.1 0 01-.7 1.9l.4.4s.1-1.3.6-2.2l1.6.1s0 .5-.3 1.1l-.5 2 .6.3h2.7l-.4-.5s-.1-.1-1-.2-1.4.2-1.4.2l.4-1.7.4-1-.3-1s-1 .3-1.5.3c.5-.8 1.2-1.2 1.2-1.2zm-14.8-1.7a5.6 5.6 0 013 1.1v-.8s-1.3-1.7-2.8-1.7c-1.5 0-3.2 1.5-3.2 1.5v1.6s1.4-1.7 3-1.7zm17.5 25.5c-1.7.7-3.6.7-3.6.7s.5-.7 1-2c3.4-1 4-3.2 4-3.2l-.2-.8s-.8 2-3.5 3.2c.5-1.6 1-4.3 1-4.3l-.9-.2s-1.3 1.7-2.5 2c.8-1.6 1-3.4 1-3.4l-.5-.8s-.9.8-2.3 1.1h-.7c.8-1 2.3-4.2 2.3-4.2l-.3-.6s-1.1 2.8-2.3 4.2l-.4.5c-1.2-.4-2.9-1.4-2.9-1.4l.2.5s1 .8 2.4 1.2c-.9 1-1.8 1.7-1.8 1.7v1.3l4 .6a9.6 9.6 0 01-2.6 2.7l.6.8s1.8 0 4.9-.8c-.9 1.7-1.6 2.5-1.6 2.5s2.9.2 4.9-.8 2.5-2 2.5-2l-.5-.7s-.5 1.5-2.2 2.2zm-9-5.4l1.5-1.9h.1c2 .5 2.6-.1 2.6-.1s.4 1-.9 3c-1.4 0-3.3-1-3.3-1zm1.7 4l1.8-2 .4-.5c2 0 3-1.7 3-1.7s.3 1.6-.6 3.6c-2.5 1-4.5.6-4.5.6zm-2.4-12.9c1.9.2 4.3 1 4.3 1l-.3-1s-2.3-.5-3.7-.7c.6-1.4 2-2.1 2-2.1l-.6-.4s-.8.2-1.9 2l-.2.4a5.5 5.5 0 00-3.5 1l.2.5s1.5-.7 3-.7c-.6 1.5-1 3.2-1 3.2l.4.9 1.3-4zm-4-8l-.3-1s-2-.8-3.6 0c-1.5.7-2.6 2.5-2.6 2.5l.6 1.2s1-2 2.5-2.4c1.4-.5 3.5-.3 3.5-.3zm4 3l-1.3-.7s-2.2.7-3 1.4c-.8.8-1.4 2.8-1.2 3.4.3.5 1 1 1 1s.3-2.2 1.4-3.2c1-1 3-1.9 3-1.9zm-5-.6a5.9 5.9 0 012.4-1.2l-.8-.7s-2 .2-3 1.1c-1 1-2.3 2.8-2.3 2.8l1.1 1.1s1.6-2.2 2.5-3zm6.7-58.7c1-1.4 2-1.4 2.4-1.3h.9c-.3.5-.8 2-1 3.1-.3 1.5-1 1.7-1.4 2.6-.5.9-1.5 2.4-1.5 3.7 0 1.3.3 2 .6 2.2.4.1 1-.6 1-.9 0-.4-.4 0-.7 0s-.2-.4-.3-1.2c-.1-.8 1-3 1.3-3.6.4-.7 1.2-1.5 1.4-2.7.1-1 .9-3.3.9-3.3 0-.1-.6-.3-1.7-.3-.9-.1-2 .6-2.5 1.5-.6.8-2.3 1.4-2.3 1.4s1.9 0 2.8-1.2z"/><path d="M374.3 179h-3.2l.9 2.4zm-3.8-.2l-.7-.6-.4-.3-1.2.7-.7 2.4.4.4 2.6-2.6zm-.5 6.5l-2.3-3.5-1.4 3 .6.2 1.7.2 1.4.1zm9.7 58.8c-.6.4-3.1 2-6.2 2a8.8 8.8 0 01-4.6-1.3 5.1 5.1 0 01-2-2.4c-.7-1.4-1-3.3-1.3-5-.3-1.9-.6-3.6-1.4-5-1-1.6-3.1-2.7-5-4.2a9.6 9.6 0 01-3.7-8c0-2.2.7-4.1 1.4-5.9.8-1.7 1.5-3.2 1.5-4.5v-.7c-.3-1-1.2-1.8-2-2.5l-1.5-1-1.3-.4-.1.4 1.2.4v-.2.2l1.8 1.2c.7.6 1.3 1.3 1.5 2v.6c0 1.2-.7 2.6-1.4 4.4a15.4 15.4 0 00-1.5 6v1.1a10 10 0 004 7.2c1.8 1.6 3.8 2.6 4.7 4.2 1 1.6 1.3 4 1.8 6.5.2 1.2.5 2.4 1 3.4a5.5 5.5 0 002.1 2.6 9.2 9.2 0 004.8 1.3c3.6 0 6.5-2 6.5-2.1l-.3-.3z"/><path d="M377 237.6h-.1c-.2.1-.8.5-1.7.5-.6 0-1.4-.3-2.2-1a5.3 5.3 0 01-1.6-3c-.2-1.2-.4-2.6-1.2-4.4-.8-1.9-2.8-3.4-4.6-4.8-1.8-1.5-3.5-3-3.8-4.5a4.3 4.3 0 01-.1-.9c0-1.3.5-2.6 1.1-4.1a14 14 0 001.2-5.2v-1c-.3-2.7-2.3-4.6-4.2-6a18.5 18.5 0 00-3.7-1.9l-.2.4.3.1c.7.3 2.4 1 4 2.3 1.7 1.3 3.1 3 3.3 5v1c0 2-.5 3.6-1 5.1-.6 1.5-1.2 3-1.2 4.3v1c.4 1.8 2.2 3.2 4 4.7 1.9 1.4 3.8 3 4.6 4.7.7 1.7.9 3 1.1 4.2.3 1.2.6 2.2 1.7 3.2a3.6 3.6 0 004.4.6l-.2-.3z"/><path fill="#a8ac71" d="M389 227.6s2.3.5 2.2 2.4a17.5 17.5 0 01-1.1 4.4l-3.2-2.8 1.8-1.6.6-1-.3-1.4z"/><path fill="#f8c83c" stroke="#977c2e" stroke-width=".3" d="M349.6 205.2s-2.3.8-2.7-.2c-.5-1-.3-1.8-.3-2 0-.2-1.4-.3-1.3-1.6.2-1.3 1.8-1.2 2.2-1.2.3 0 .4-2 1.6-1.9 1.1.1 1.7 1.4 1.7 1.4l-1.2 5.5z"/><path fill="#f8c83c" stroke="#977c2e" stroke-width=".3" d="M352.1 205.8s-1.9 1-2.5 0c-.6-.9 0-2-.2-2.3-.2-.2-1.4-.6-1.2-1.7.3-1.2 1.4-.8 1.9-1 .4-.2.7-2 1.9-1.6 1.2.3 1.4 1.2 1.4 1.2s-1 4.5-1.3 5.4z"/><path fill="#f8c83c" stroke="#977c2e" stroke-width=".3" d="M355.4 206.3s-.6 1.2-2 1c-1.3-.3-.9-2.3-1.1-2.7-.2-.3-1.2-.6-1-1.8.1-1.3 1.4-1.1 1.8-1.3.5-.2 1-2.1 2-1.8.8.3 1.7 1.4 1.5 2 0 0-2 .6-2.2 1.9-.2 1.3 1 2.7 1 2.7z"/><path fill="#af7029" d="M385.5 227.1s-1.7-1.8-2.9-3.5a37.4 37.4 0 00-3-3.5l-3-1.5-1.8-3-.2-3.7.8-2 1-1.7s-6 2.2-2.9 13.8c1.3 5 4.7 5.6 4.7 5.6l5.5-.3 1.8-.2z"/><path fill="#816c2a" d="M382.7 188.4c.6 0 .9.2 1 .4l.3.9v.5h.1-.2c-2 4.4-6.2 6.5-10 9.3a18.1 18.1 0 00-5 5 15.6 15.6 0 00-2.2 8.5v.6c.2 6.6 2.7 10.2 5.5 12.1a12.7 12.7 0 006.9 2h.4l2-.1a45.9 45.9 0 016.1 0c.7 0 1.1.2 1.3.4.2.2.2.4.2.7 0 .5-.3 1-.8 1.5-.4.5-1 .9-1.1 1l.2.3 1.2-1c.5-.5 1-1.1 1-1.8 0-.3-.2-.7-.4-1-.3-.3-.8-.5-1.5-.6l-2.3-.1c-2.8 0-5.9.4-5.9.4v.2-.2h-.4c-1.1 0-4-.2-6.7-2s-5.1-5.3-5.3-11.8v-.6c0-3.6.8-6.2 2-8.2 2-3.1 5-5 7.9-7 2.9-2 5.7-4 7.3-7.5v-.6c0-.3 0-.8-.2-1.1-.3-.4-.7-.6-1.4-.6v.4z"/><path fill="#fff" d="M390.9 229s-1.5 2.7-1.8 2.7c-.4 0 1.2.4 1.6 1l-.4.7s-1.5-1.2-2.5-1.2l-.1-1s.8-.2 1.5-.9a5.3 5.3 0 001.1-2.2l.6 1z"/><path fill="#fcca3d" d="M396.5 230.8l-3.6 1-1.8-1.2s.1-1.5-.7-2.1c-.8-.7-1.3-.9-2-1.2-.8-.3-3.3-.3-3.3-.3l-6.5-7 2.4.2 3.9-.4 3.5-.3 1.9.2 2 .6 1 1 1.1.9 1.1 1.8.7 2 .3 2.2v2.6z"/><path fill="#af7029" d="M396.6 230.5s-1.3.4-2.9.4c-1.6 0-2.6-.3-2.6-.3s0 .1-.3 1.2a15 15 0 01-.6 1.7v4.2l3.4.7 1.8-.7 1-4.6.2-2.6z"/><path fill="#fcca3d" d="M395.7 228.8l.1 1.6.7.2V229zm-3.2-39.3l-.4-2.9-1.2-1.9-1.4-2-1.5-1.6-.8-.8-.4-.5-3.7.1-2 2.4s5.1 3.6 7 7.5a9.3 9.3 0 013.7 2.3l.2-.3.5-2.3z"/><path fill="#af7029" d="M388.8 192.6c0 3-.5 4.3-.9 5l2.3-2.6 1.6-3a9.3 9.3 0 00-3.7-2.2c.5 1 .8 1.9.7 2.8z"/><path fill="#816c2a" d="M394.1 235.9l-1.8-2.1a6.6 6.6 0 00-1.8-1.2l-.1.4h.1l1.5 1a22 22 0 011.8 2.1l.3-.2z"/><path fill="#6f5b24" d="M396.3 232.7s-.3 1.3-1.6 2.5c-1.3 1.1-3 1.9-3 1.9l3.8 1.3 2.4-2.2-1.6-3.5z"/><path fill="#404118" d="M396.9 235.8l-.3.4-.7.7-.5.5 1-3.8.6 1.2v.6z"/><path fill="none" stroke="#78732e" stroke-width=".3" d="M375.1 185.2s-5 .5-8.5-.1-2.7-9.6-2.8-9.8c-.1-.3-2.1-2.4-1.8-4.4.3-2 6.8-7.3 7.7-7.5.6-.2 1.8.3 1.8.3s1.7-1.6 2.2-1.6c.5 0 1.1 1 1 1.3-.2.4-2.5 1.7-2.6 2.7-.2 1 0 2-.6 3-.7 1-2 2.3-2 3-.2.9-.6 1.6 0 2 .7.2 2.8 0 4.6-.9 1.8-.8 2.5-1.9 2.8-1.8.2.1-1 2.3-3 3.1-2 .9-3.4 1.8-4.4 1.7 0 0-1 2.7 2.3 2.8a12 12 0 005.4-.8l-2 7z"/></g><g fill="#d2a567"><path fill="#ab6d29" stroke="#4d2a15" stroke-width=".5" d="M418.2 147.6s-9.2-1.8-9 5.9c0 2.4.6 3.2 2.5 3.8 2 .5 5.9.7 9.2 3.7 3.3 3 3.5 5.1 3.5 7 0 1.7-.8 3.3-.8 3.3l2 10.1 2.2 7.5 6.2-3.6 3.7-11-4.7-20-14.8-6.7z"/><path fill="#4d2a15" d="M427.4 186s3.2-1.1 4-3.7c.2-.7-3.2-3.8-3.3-3.8 0 0 1.7.8 2.6 1.6.8.8 1.5 1.1 1.8 1 .2-.1 1.7-3.5 1.1-4.3-.5-.7-1.4-2.5-2.8-3.4-1.3-.9-3-.8-3-.8s2.4-.7 3.6 0c1.2.6 1.3 1.4 1.5 1.2.1-.3-.3-3.8-.8-5s-1.1-1.6-2.6-1.9c-1.5-.3-3-.2-3-.2s2-1.2 3.7-.8c1.6.4 1.6 1.3 1.7 1 .1 0-.8-3-1.2-3.8a8.8 8.8 0 00-2.8-2.4 15 15 0 00-2.3-.3h-.9s1.2-.8 2.8-.6c1.5.1 1.6.6 1.9.5.2 0-.2-.3-1.2-1-1-.6-5.5-2.5-5.5-2.5l-4.2-.1s0-1 1.2-1.3c1.2-.2 1.5.2 1.5-.1-.1-.3-3.6-1.1-3.6-1.1h-2.8l-4 .5s.3-.7.9-1.2c.5-.4 1.2-.7 1.8-.9 1.3-.3-.8-1.4-.8-1.4l1.1-1.7 5.1.4 10.8 6.3 5 4.4 3.3 8.1-1 14.1-7.2 6s-3.2.5-3.2.3l.8-3z"/><path d="M418 151.2s-.4-1-.4-2.3.2-1.2.2-1.2-3.4-.5-6 1.5c-2.4 2-1 5.5-1 5.5s1.1-1.1 2.5-1.6 4-.5 4-.5c.2-.2-.6-1.2-1.5-1.4-1-.2-2.8-.2-2.8-.2s1-.7 2.9-.6c1.8.2 2 .8 2 .8z"/><path fill="#8f4620" d="M428.8 187.3l-2.4.8 1.5 9.8 9.3 16 4.9-.9 1.6-3 1.3.6c.6.6 2.4 3.7 4 4.4 1.5.6 2.3.4 3.6 1.5 1.4 1 6.4 8.5 6.6 8.8.3.2-.3-3.2-.3-3.2l-1.5-4.5-1.9-3-.3-.9h2.6l1.6 1 2.5 2 1.3 1.6.6 1.5.3 1.4.7 2.1 1.3 3 1.7 2.8.5-1.2-.8-3.3-2.5-8-1.5-2.6s2 1.4 2.5 1.6c.6.2 2.4 3 2.4 3l1.2 2.8.8 2.6.6 2.3.8 2.4 1.5-.8-.3-1.8-1.3-5.4-.5-6s.7 0 1.6 1c.8 1 1.6 3 1.6 3l.6 5.4.9 4.9 1.5 5 1.7 3.2 1 1.7.1-2.6-2-21 .3-.8s.2-.2 1 .8l1.3 2.6.6 3.3.3 2.2.4 4.3.6 4.6 2.1 5 1.2 2.6.6-3.1-1-22.5.5-.6s1.2 1 1.6 1.7a7 7 0 001.1 1.3l.7 5 .6 14.1.5 3.6 4.2-37 2.5-.6.3-.7-1.8-1.4-4.2-6.5-2.9-6.4-5-9.2-8.6-10.5-6.7-5.6a26.3 26.3 0 00-2.5-1.7l.4-1.3 1.4-2.3-.2-.1h-1.1l-3 .4-2.8-.8-5.8-4-6.1-3-3.6-1.2-8.7-2.2-8.6-1.2h-4l-3.5.6s-1.8.8-2.3 1.9c-.6 1-.6 1.9-.4 3.5.1 1.6 1.1 2.4 3.5 3.4s8.2 4.8 8.2 4.8l2.7 2.8 1 1.3.2 1L435 178l-3.6 8-2.6 1.3z"/><path fill="#ab6d29" d="M438.1 210s1.6 2.7 3.8.6c2.2-2-1-7.8-1-8.2 0-.3 1-.4 1-.4l1.7 3s1 1.6.6 4.1c-.4 2.6-2.8 4.8-2.8 4.8l-2.9-.6-.4-3.3z"/><path fill="#4d2a15" d="M492.5 244.2l-2-6s-.6-3.7-.6-4.5l-.5-12.2c-.2-1.8-.1-4-.3-4.2l-2.2-2.8-.8-1 .6-.4s.7.8.9.4c.2-.4 0-2.5-.9-5.8-.8-3.3-5-11-5-11l.5.4 1.1 1.2 2.5 2 5.3 2 3 .4 1.8 3.7s1.3 6.5 1.3 9.7c-.1 3.3-.3 6-1.6 9.2-1.2 3.3-1.5 13.6-1.7 15.2a15 15 0 01-.8 3.3l-.6.4z"/><path fill="#8f4620" d="M492.5 227s1.1-1.2 1.6-3c.5-2 .7-16.3-1-18a13.4 13.4 0 00-5.3-3.1c-.2.1 1.4 4.7 1.4 4.7s.5.6 1 1.8l.8 2.3c.2 1.3 1.2 4.2 1.3 8l.2 7.4z"/><path fill="#4d2a15" d="M484.7 236.1s.7-6.8.4-11.8c-.4-5-.8-5.6-1.3-6.5-.4-.9-2.1-4.1-3.3-8.3-1.2-4.1-1.9-7.3-2.7-8.1-.7-.9-2.2-2.7-2.6-2.2-.3.5-.3 1.5-.3 1.5l-2-.5-.5-1.3.6-2.1v-1l-.3-1.4 2.6 2 5.4 3.8 2.8 11.2 2.5 7 .3 11.9-.2 10.4-1.4-4.6zm3.2-32.4s1.4 1.3 2.2 1.8c.8.4 2.4 1.4 2.1 1.5-.3.1-1.8-.5-2.7-1-1-.5-1.5-1.1-1.5-1.1l-.1-1.2z"/><path fill="#4d2a15" d="M477.3 233.4s1-2.4 1-5.4c-.3-3-1.7-10.3-2.2-11.2-.4-1-2.6-2.3-4.5-6.4-2-4.1-1.7-5-3-6.5l-2.6-3.2.4-4.3 4.7 2.4 2 1 2.4 11.4 2.1 3.2 1 4.6 1 10.7.7 8.5-.4.8-2.6-5.6zm-5.4-4.8s0-3.4-.8-6.4c-.8-3-1.4-5.3-2.4-6.3a45.8 45.8 0 01-5.4-6.6c-2.1-3.2-5-6.5-5-6.5v-4.3s1.4 1.3 2.6 1.9l3 1.6 1.3 5 1.6 3.4 2.4 3.2 1.5 1.4 1 5.3.5 3 1.3 4.2-.4 2.2-1.2-1.1zm-4 0l-1.3-1.2s.7-.9.4-2.6c-.3-1.7-.8-3.3-1.6-4.9-.7-1.6-1-2.5-1.4-3-.5-.5-4.5-4.3-5.9-5.4-1.3-1.1-3.5-3.3-4.8-4.2-1.3-.8-2.3-1-2.3-1l-.7-5.3s1.7 2.3 2.8 2.7l2.7 1 3.7 6.5 1.3 1.7 3.4 2.7 1.4 2.8 1 3.3 1.4 4.5.2 2.7-.3-.3zm-7.2-1.5s-2.2-2.5-2.6-4c-.3-1.7.3-1.7-.4-3.5-.7-1.9-3-4.6-4.8-6-2-1.6-4.6-3.8-4.4-5 .2-1.2.5-1.3.5-1.3l1.1 1 5.9 6.2 1.8 3.3 1.3 4 1 2 .8 2.4-.2 1zm21-30.5s4 5 5.1.4c.5-2-1.4-6-1.4-6s-3.7-6.5-5-8l-7.5-9.7-4.6-2.1 1.6 2.7s3.4 3.4 7.7 10.9c4.4 7.5 3.5 11.7 3.5 11.7l.7.1zm-23.3-30.1s8 6.8 13.1 14.2c5.2 7.4 7.2 12.3 6 13.3-1 1-4.3-.6-5.6-2.6-1.4-2.1-2.5-5.7-7.3-11.3-4.9-5.5-7.2-6.3-7.2-6.3l-3.5-5.7 4.5-1.6zm-4.2 16.3s4.7 4 7.7 7.2a49 49 0 014.5 5.5l2 1.9s-1.2-2-.6-2.8c.6-.7 1.4-.3 1.4-.3l-15-15.8v4.3zm-1 .5s1.5 3 4 5.4l5.3 5 1.1 4s-6.9-5.3-6.9-4c0 1.3 1.7 4 1.7 4l-2.1-1.2-3-4.2-1.7-3.6-2-5 3.6-.4z"/><path fill="#4d2a15" d="M432.5 199.5s3.5 3.2 5.5.1.4-6.7.4-6.7 5 7.5 6.5.5c.3-1.3-3-6.1-3-6.1l1.1-1.1 2.6 4.3s2.4-1 2.4-4-2.5-6.9-2.5-6.9l2.4 2.6s4.6.1 4.7-2.7c0-2.9-4-5.9-4-5.9s3.3.3 3.2-1.6c0-1.9-4.3-3.1-4.4-4.3 0-1.2 1.3-3.2 3.2-2 2 1 4.7 1.9 5.8-.3 1.2-2 0-2.5 0-2.5l-2.8-.6-4.5-2.4-3.5-1.3-3.7-.5 1.4 2.7 1 7.5v3.4l.6 7.6-1.8 6.2-.9 1.2-.6.8-1.6 3.3-2.2 2.4-2.8 3.6-2.5 2.7z"/><path fill="#ab6d29" d="M457.8 213.6s-.9-2.3-2.8-3.8c-2-1.5-5-1.6-5-1.6l5.2 5.6 2.6-.2zm7.4 1.2s-1.7-3.4-3.7-5.4c-2-2.1-3.3-4.8-3.9-4.8l-.9.1.5 4.3 3.7 3.5s3.4 2.6 4.3 2.3zm6-.2s-.8-4-2.8-7.8c-2-3.8-4.2-5.3-4.2-5.3l.5 4 1.6 4 2.7 3.8 2.2 1.3zm5-2.2s1.4-8.2.1-10.4c-1.3-2.3-3.7-2.7-3.7-2.7l-.8 1.2.8 5.8 2 4.4 1.6 1.7zm4.8-13.6s1.2.6 2.7 3.4a60.5 60.5 0 013.4 11.2c0 .5-.7.4-1 .3l-5-7.8-.8-7.2.7.1z"/><path d="M446.7 208.3s2.6-.6 2.6-1.5c0-1-3-2.7-2.8-4.2 0-.7 2.6.1 2.8-.4.2-.5-2.6-4.8-1.8-5.8.9-1 3.2 4.6 3.2 4.6s1.4 2.7 1 4.2c-1.7 4.7-5 3-5 3zm6.1-6c.1-.3 4.1.6 4.1.3.2-.9-3.5-3.8-3.5-3.8s-.9-1.6-.6-1.9c.2-.2 2.6.3 2.7 0 .2-.4-2.7-4.2-2.7-4.9 0-.6.8 0 .8 0s2.2 2.3 3.4 4.2c1.2 1.9 2.3 3.5 2 6.5-.5 3.2-6.5.7-6.2-.3zm18-5.9s-.7-2.7-.4-3c.4-.4 1.5-.7 1.5-.7s-2.1-1.3-3.1-1.3-1.2-.3-1.5.1c-.2.4 1.9 3 1.9 3l1.5 2z"/><path d="M458.6 198.5s6.1 1.5 6.4 1c.3-.4-4.9-5.1-4.9-5.1s-.3-.9-.2-1.2c0-.3 2.2-.3 2.8.2.7.5 0 1.5.3 1.9.2.4 2 3.3 2.4 2.8.4-.4-.4-4-.2-4.3.2-.2 2.3 2 3 2.4.5.4 4 3.1 4.3 1.9.3-1.3.5-1.5.4-2.2-.1-.8 1.2 3.4-.4 4-1.6.5-3.5-.6-3.5-.6l-1.4-1.1-.8-.9s1 3.3-.1 3.6c-1.1.4-2.3.2-2.3.2l-2.6-.3-3.1-2.3zm14-4.2s6.5 4 7.2 3.2c.6-.6-1.7-9.8-1.3-10.8.3-.7 5.2 10.4 2.8 12-1.8 1.1-2.8.3-2.8.3l-3.1-1.7-2.8-3zm18.1 16.5s.6.4 1.5.6c.2.1 1 .3.8.4l-1.9.2-.4-1.2zm-6.3-21.5l1 .4.9.4c0 .1-.5.3-.8.3-.4 0-.6-.2-.6-.2l-.5-1zm-1.8-3.2s.6.3 1.5-.3.9-1 .8-1.4c0-.3-1.4-.3-1.9-.6-.4-.3-.4-.8-.4-.8h-1.4l-.6.1 2 3zm5.7 18.8s2 1.2 2.5 1.3c.6.1 1.5.6 1.4.8-.1.2-1.6.3-2.3-.1-.8-.5-1-.2-1-.2l-.6-1.8zm-10.7-29.6c.1 0 .5.2.8.1.4 0 .7-.3.8-.1.3.3 0 1.7-.5 2-.5.5-1.2.8-1.2.8l-2.1-3 2.2.2zm-9.3-8.3h2c.6 0 1.3.4 2 .7.5.4 1 4.4.7 5-.3.8-4.7-2.5-4.8-2.7 0-.4-2-3.3-2-3.3l2 .3zm-4.2-1.8s3.2.2 3-1.8a4.2 4.2 0 00-1.8-3l-3.8 2.8 2.6 2zm-8.5-3.7s.8.4 1.8 0c1-.3 3.5-3.6 5.3-4 1.8-.4 2.2-.3 2.5 0 .4.5.2 2.4-.2 2.9s-5.7 2.8-5.7 2.8l-2-.3c-.9-.2-1.7-.6-1.7-.6v-.8zm-1-5.9c-.8-1.9-2.2-2.6-2.8-2.5-.5.1 1.9 2 2.2 4.6.3 2.6.3 4.3.3 4.4 0 .2 1 .2 1 .2l.3-1 .1-.7v-.6l-.1-1.4-.3-1-.3-.8-.4-1.2zm-7.5-2.7a20.2 20.2 0 00-7.2-4.9c-.3 0 5.1 3.3 6.4 5.4 1.2 2.2 1.2 5 1.8 5.4.6.4 1-.2 1.1-.3 0 0 .5-.6.4-.8a30.4 30.4 0 01-.3-1.3l-.9-1.5-.5-.9-.8-1zm-7.3-3c-3-2.7-8.7-4-13.2-4-4.6-.1-6.9.3-6.2 2.8.7 2.5 2.7 3.6 6.5 3.6s4.8-.5 6.9.2c2 .6 4 1.8 4.6 2.6.8.8-1.4-2-3.3-3.4-2-1.5-3.3-2.2-3.3-2.2s-.4-.8 2.3-.5c2.6.4 6.2 2.1 7.1 4.3s.8 3.4.8 4c0 .4 1-.4 1-.4l.3-1s.2-.9-.4-1.9c-.5-1-.6-1.3-1.7-2.7-1.2-1.4-1.4-1.4-1.4-1.4zm-12.6 37.4c2 0 6.3-3.7 7-8.8.5-5.2-2.6-15.6-3.4-16.7-.7-1 1.2-.5 2.2.6s3.3 8.5 3.3 14c0 5.4-1.1 7-4 9.7-3 2.7-5.2 2.5-5.2 2.5l.1-1.3zm6.7 15.3s1 1.2 2 .8c2-.8 5.1-2.2 5.1-5 0-2-2.3-3.6-2.5-4.2v-1.3l2.1.4.6 3s.9.8 1.7.5c.9-.3 3.3-2.1 3-3.9-.4-1.7-2.7-3.8-3-4.7-.2-.8.1-1.6.1-1.6l2 .3.6 2.6s.6.8 1.7.6c1.1-.2 3.1-2.3 2.7-3.3l-2-3.5c-.2-.2-.1-1-.1-1l.8.4s.7.3 2.3-.2c1.5-.4 3-1.5 3-2.5s-1.2-2.1-1.3-2.7v-.8l1 .1 1.2 1.6.3 1.8-.4 1.6-1.9 2-1.8.8h-.5l1 2-.3 2.5-1.6 1.5-2.2 1.4-.2 2.4-1.2 2.6-2.8 1.7h-.8l-.4 1.6-1.7 2.5-3 2-2.3.5-1.3-1.9.1-.6z"/><path d="M450.7 174.9s5.1 1.4 5-1.8c-.1-1.8-5-6-5.3-6.7-.3-.7-.2-1.6-.2-1.6l2.5 2.3s3.2.8 4.2-1.1c.9-1.9.1-3 0-3.1l.7-.2 1.5.3-.2 3-1.6 7.2s.4 2.8-1.8 3c-2.3.2-4.8-1.3-4.8-1.3zm4.9 38.7s0-1.5-1-2.5c-1.2-1-3.4-2-3.8-2.2a80 80 0 003.7 4.5l1 .2zm7.4.2s-2.6-3.2-3.1-4.3c-.6-1-2-3.4-3-3.5-1-.1 1 4 1 4l4.2 3.7h.9zm7 0l-2.8-5.4c-.5-1.3-1.7-4.6-3-5.5-1.3-.9.2 1.5.2 1.5l1.4 4.3 2.4 3.8 1.8 1.2zm5.1-3s-.1-3.6-.6-6c-.4-2.6-2.3-4.6-2.4-4.5-.2 0 .1 4.4.1 4.4l3 6zm10.7 2.6l-2.5-6.3c-.8-2-2.6-5.4-2.7-5.4-.2 0 .5 3.9.5 3.9l2.2 6.2 2.5 1.6zm9.2-11.2s-1.6-1.7-5.2-3c-3.5-1.4-7-1.6-7-1.6l.4.5 1.6 1.3 3.7 2 4.8 1.1 1.7-.3z"/><path fill="#202020" d="M457 204.3s0 3.1 1.7 5c1.6 1.8 5.3 5.3 6 6 .8.7 1.4 4.5 2.5 7.6 1.1 3.2 1.4 5.8 1.9 6.7.4.9 1.4 2.3.7 2.2-.7-.2-1.4-1-1.9-2.2-.4-1.1-.3-1.1-.2-2.7 0-1.6-2.4-9.7-3.6-10.6a52 52 0 01-8.4-8.3c-2-3-1.5-3.7-1.5-3.7h2.9z"/><path fill="#202020" d="M465.5 224.6c-1.1-2.2-1.3-4.3-1.7-5.6-.3-1.4-4.7-5-5.8-5.6-.8-.3-2.4.1-3-.4-.7-.5-5-5.2-5-5.2s-.5.6-.3.8l6 6.3c1.6 1.5 2.5 4.9 3.6 7.4 1.1 2.6.7 2.1.8 3.4 0 1.3.9 2 1.7 2 .8 0 1-.4.7-.6-.3-.2-2-2.1-2.9-4.6-.8-2.2-2-6.4-3.3-8l-.3-.3 1.7-.2c1 0 5.4 4 5.8 5.2.3 1.1 0 1.6 1.7 5.6 1.9 3.9 2.7 4.8 2.7 4.8h.3s-1.6-2.7-2.7-5zm-6.9-26.1s3.2 2 4.1 2.2l1.7.4s.4 5.7 2.7 9c2.3 3.2 4.2 4.4 4.2 4.4s0 6.2 1.8 10.6a23 23 0 011.6 10.3c-.3.9-1.8-2.5-2.7-5.5l-2.5-8.2c-.6-2-2.4-5-3.4-5.8-1-.8-.2-.7.4-.2a15 15 0 013.3 5.9c1 3.3 1.5 6.6 2 6.6.7 0 1.1-.5 1-1.2 0-.6-.7-2.4-1.2-5.5-.5-3-1-5.2-1.6-6-.5-.9-1.2-1-3.2-4.5s-2.9-5.4-3.2-7c-.3-1.6 0-1.4-.3-1.7s-.6 0-2-.8c-1.6-.8-2.6-3-2.6-3zm8.2-1.2s2 1.5 3 2c1.1.4 2.7.5 2.7.5s-.4 5.5 1.7 9c2.1 3.6 4.3 5.6 4.3 5.6s.4 1.4 1 9l1 10.8c.2 3 .3 13.8-.2 13.5-1.6-1.3-.3-7.1-1-9.6-.9-2.4-2.2-2.8-3.8-9.6-1.6-6.9-.6-8.4-1.7-11-1.1-2.6-2.6-2.8-2.6-2.8s2 .4 3 2.6c.8 2.1 1 7.9 1.7 10.7 1.6 6.4 3.8 9.7 3.8 9.7s-.5-8-1-12.7c-.7-4.5-.7-8.4-1.5-10.1-.9-1.8-2.7-3.2-3.8-5.5-1.2-2.4-1.6-7-2-8.1-.6-1.2-1-.8-1.7-1.2-2.5-1-2.9-2.8-2.9-2.8z"/><path fill="#202020" d="M472.6 194.3s1.7 2 4.1 3.3c2.4 1.5 3.6 1 4 1.3.3.3-.5 5.1 2 9.6s3.4 4.6 3.5 5.2c0 .6.5 13.7.8 18.2.3 4.5.6 19.4-1.2 19.4-1.9 0-.2-11-1-13.6-1-2.6-1-1.9-1.9-4-.8-2-.8-10.2-2.2-15-1-3.7-2.1-4.3-2.1-4.3s1.7 1 2.5 4 1.1 13 2 14.7c1 1.6 2.4 3.6 2.7 5a212 212 0 00-.6-20.3c-.4-1.2-4.5-8.7-4.9-12.8-.3-4.1-.4-4.5-.8-4.8-.4-.4-1.5-.1-3.5-2a25.8 25.8 0 01-3.4-3.9zm9.4 2.4c.1-.4 1.3 2.2 5 3.7 3.7 1.4 7.3 1.2 7.7 1.6.5.4 2.8 6 3 13.4 0 7.4-1.4 6.7-2.5 13.1-1.1 6.4-1.2 19.4-2 21.4-.3.7-.7 1-1 2.3-.4 1.2.3 3.6-.9 3.7-1.1 0-1.3-1.8-1.3-2.8 0-1 1.2-4.6 1.2-8.1 0-3.6-.7-4-1.3-8.2-.5-4.3-.5-17.8-1-19-.4-1.3-2.8-4.1-2.8-4.1s2.5 1.5 3.1 3.4c.6 1.8.7 16.8 1.3 19.8.7 3 .5-.7.8-2.5.2-1.7 1.1-9 1-13-.1-3.9-1.8-12.4-3.2-13.8 0 0 .7.8 1.5 2.7l1 .8 1.4.6s-.8 0-1.4-.3c-.4-.2-.8-.6-.7-.6.8 2.3 1.6 5.7 1.7 10.6.1 6.7-1 21.5.1 21.6 1 .2.9-8 2-14.7 1-6.6 2.6-7.6 2.1-13-.5-5.5-1.9-11.3-3-12-1.2-.8-4.5-.5-7.4-2.4-2.9-1.9-4.5-3.8-4.4-4.2z"/><path fill="#202020" d="M435 204.2s1.1.5 2.4-.1c1.2-.6 4.5-3.2 4.5-4.3v-2.2s0 .5 1 .6c1 .2 3.6-1.9 3.8-3.2.2-1.3.2-3.6 0-4-.4-.5.7.4 1.3 0 .6-.6 3.2-2.3 3.1-4 0-1.7-1.4-3.3-1.4-3.3s1.2.1 2 0c.8-.2 3.3-1.7 3.3-3.3-.1-1.5-1-3.9-3-4 0 0 1.5.3 2.9-.2 1.5-.6 2-1.4 2-3 0-1.7-3-5.2-3.5-5.5-.5-.3 3.2 1 4.1-.5 1-1.4 1-2.5.8-3.3-.2-.8-1-1-1-1s1.6.4 3.7-.7c2.1-1 4-2.5 5-2.4 1 0-3.1 2.2-3.3 3.4-.1.5 1 1.3 3 2.7 0 0 0 .2.3.3.8.4 4 .5 4.2.7.3.2-3 .1-2.8.3a44.7 44.7 0 017.5 7.1c.1.1.6.6 1.2.8.8.2 1.6.1 1.7.2.1.1-2.1 0-2 .1 1.6 2 3 4.2 4.3 6.2 0 .1.6.7 1.2 1l1.5.3c.1.3-1.9 0-1.7.3 2.5 4 4.3 7.9 4.3 7.9s-4-7-8.9-12.6c-4.9-5.5-6-6.2-6.3-5.7-.3.5 3.7 5.4 5.8 8.8 2 3.4 4 7.7 4 7.7s-5-10.2-11.9-16.5c-6.9-6.3-7.6-7.3-8.4-7-.7.2-1.3 4.8-.9 5.8.5 1 5.5 4.7 9.8 9.8 4.3 5 9.8 13.7 9.8 13.7s-3.9-6.2-10.5-13.2c-6.5-7-9-8.6-9.5-8.5-.6 0-.6 1.3-1.4 2.3-.7 1-2.3 1-2.4 1.4 0 .5 5.6 5.6 6.7 6.2 1.1.6 1.7.3 2.6.8l1.7 1.3s-1.1-.5-2-.7c-.9-.3-1.7-.3-1.7 0 0 .2 4.5 5.7 5.3 6 .7.4 1.2.2 2.2.6 1 .4 2.5 1.5 2.5 1.5s-1.6-1-2.7-1.2c-1.1-.2-1.6 0-1.6.3s3.5 4.7 3.3 4.8c-.1 0-5.3-6-9.6-10-4.3-3.8-6.3-4.6-6.5-4.4-.2 0-.1 1.2-1.2 1.6-1 .4-2 .5-2 .9s3.9 4 6.7 7.1l5.1 6-5.9-5.7c-3-3-4.6-4-4.9-3.9-.3.2-.3 1.7 0 2 .3.5 6 7.2 5.8 7.3-.2.2-6.7-8-7.2-8-.4 0-.6 1-1 1.5-.5.5-2.3.5-2.3 1.1 0 .7 9.2 9.7 9 10 0 0-7.7-6.6-8-6.2-.2.3 3.2 6.7 3 6.8-.2.1-4.4-6.6-4.8-6.6-.4 0-.4.8-1.5 1.8-1 1-2.5.5-2.5 1 0 .4 6.3 7.5 6.1 7.6-.1.2-6.4-6.7-6.6-6.3 0 0-.4.4-.2 1 .5 1.6 1.9 4.6 1.7 4.9 0 0-2-4.2-2.6-4-.6.1-.6 1-1.5 1.6-1 .6-1.7.4-1.8.9 0 .4 1.1 1.1 1.6 2.1s1 3.2 1 3.2-.7-1.8-1.6-3c-.9-1.2-1.7-2-2.4-2-.6 0-1.1.7-1.1.7l-.6-1.5z"/><path fill="#202020" d="M494.7 202s2.1-.1 2.4-.6c.2-.4-.8-.1-2.7-2.1-1.8-2-6.6-16-11.8-22.9C474 165 466 159.8 466 159.8s9.5 5.5 16.9 16.3c7.5 11 9.3 19.5 11.4 21.7 2.1 2.3 4.2 2.7 4 3.3 0 .7-.4 1.1-1.2 1.2-.8.2-2.7.3-2.7.3l.3-.6zm-63-3s.1.1.5.2c.4 0 3-2.5 2.8-3.3 0 0-1.1-.4-2-1.4-1-1-1.2-2.4-1.2-2.4s.9 1.6 1.6 2.1c.7.5 1.9.8 2.3.4.4-.3 4.2-3.2 4-4.3 0 0-1.2 0-2.3-.8-1.1-.8-1.3-2.5-1.3-2.5s.7 1.4 1.8 2c1.2.5 2.3.3 2.6-.1.3-.4 2.8-3.9 2.5-4.9 0 0-1.3.2-2.4-.6-1.1-.9-1.7-2.9-1.7-2.9s.8 1.7 2.2 2c1.5.3 2.7-.6 3-1.6.1-1 1-4.9-.3-5.9 0 0-1.9.6-3.2 0-1.3-.8-1.8-2.5-1.8-2.5s1.1 1.6 2.6 1.8c1.5.2 2.2-.6 2.4-1.2.3-.6.3-2.8-.1-4-.5-1.2-1.4-1.1-1.6-3 0 0-.5.8-2.4.8-2 0-3-2.2-3-2.2s1.5 1.4 3 1.3c1.6-.1 2.2-1.4 2.2-2.4s-.8-1.8-1.2-2.8c-.4-1-.4-2.3-.7-2.1-.3.1-.7 1-2.7.7-2-.3-2.4-1.6-2.4-1.6s1.5 1 2.6.9c1 0 1.8-.6 1.8-1.4 0-.7-.4-2-3-4.2-2.4-2.2-4.5-3.6-4.5-3.6s3.3 1.8 5.4 3.5c2 1.8 3.3 3.5 3.3 3.5s2.3.7 2.5 0c.3-.8.2-1.8-.5-3.2-.7-1.3-2.7-3.4-2.7-3.4s2 1.7 3 3.5.6 3 .7 3.5c0 .4 4.4 2 5.3 1.5 1-.6.5-1.9-.3-3.1l-1.4-2.4s1 1.1 1.7 2.4c.7 1.2 1.3 2.2 1 2.8-.2.6-.8.8-.8 1 0 .3 1.5 1 3 1.8 1.4.8 3 1.5 3.3 1a6 6 0 00.2-2.7c0-1.4-.9-3.6-.9-3.6s1 2 1.1 3.5c.2 1.5-.2 2.6.2 3.1.3.6 1.4.7 1.4.7s-.9.6-2.8 0c-1.9-.5-10-4.6-10.4-4.2-.4.3 3.8 2.9 5.7 4.7 2 1.8 2.9 3.7 2.9 3.7s-1.5-1.3-3-2c-1.4-.9-5.8-3-6-2.8-.3.3 1.6.7 1.8 1 .1.4-1.4 1.8-1.4 2.3 0 .6 6.2 4.9 6 5.4-.2.4-1.6 1.6-1.8 1.5-.3 0-3.3-2.4-3.3-2 0 .3 1.7 1.8 1.7 2.1 0 .4-1.2 1.1-1 1.9.3.7 3.5 3.4 3.5 4.3 0 .9-1.9 1.6-1.5 2.2.3.6 2 2.7 2 2.7s-1.8-1.2-2.4-1.8c-.6-.7-1.7-2-2-1.8-.2.2-1.3 2.7-1.2 3.3.1.5 1.6 1.4 1.8 3 .3 1.5-.2 3-.3 3 0 0-2.1-2.6-2.5-2.6-.4 0-1 .1-1.3.8-.3.7-1.5 2.8-1.4 3.2.2.3 2.2.8 2.2 2.4a4.5 4.5 0 01-1.4 3c-.1 0-2.5-3-2.7-3-.2 0-3 2.9-3 3.3 0 .3 1.8 1.7 1.5 2.2-.3.5-1.6-.2-2.3.2-.8.4-2 1-2.3 1-.2 0-.6-1-.6-1z"/><path fill="#202020" d="M466 159.9s.1-.8.5-1.3c.4-.4 2-2.2 1.5-2.6-.6-.4-2.7.3-4 .2-1.4-.1-2.2.2-6-3 0 0-12.2-8.5-31-9.6-6-.3-8.7 1.8-9 3 0 .2 1.6-2.5 7.6-2.4 2.6 0 21.6 1.6 31.4 9.3.5.4 3.8 3.5 6.8 3.2 3-.4 3.7-.7 3.6-.3 0 .4-1 1.6-1.2 2a12.1 12.1 0 00-.4 1.6l.1-.1zm-33 2.5v-.1c-.2-.6-1.4-2.3-3.4-4.2a49.8 49.8 0 00-10.6-5.6c-.3-.1 8 3.8 10.2 6a33 33 0 013.9 4z"/><path d="M433 176s-.5-.9-2-2-3.3-1.4-3.3-1.4l3.7 1a6.3 6.3 0 011.6 2.3zm-1-7.1s-.4-.7-2.7-1.5c-2.3-.7-2.9-.7-2.9-.7s2.1-.9 3.7 0a3.6 3.6 0 012 2.2zm-1.3-5.8s-.5-1-2.5-1.8c-2-.7-3.5-.8-3.5-.8s2.1-.6 4.2.2c2 .8 1.8 2.4 1.8 2.4zm-2.5-3.7s-.6-.8-4.4-1.8c-3.8-.8-5.3-.9-5.3-.9s5.4-.4 6.9.2c1.4.6 2.8 2.5 2.8 2.5zm-7-4s-2.3-.7-4.6-.9c-2.3-.1-5.8.2-5.8.2s6.6-1 8.3-.7c1.8.4 2.1 1.4 2.1 1.4z"/></g><g fill="#f8c83c" stroke="#977c2e" stroke-width=".3"><path d="M399.6 236.6s1.2 2 3.5 2c2.3.2 4 3.5 4 3.5l-2.4 2.4-6.1.3-2-3.1 3-5.1zm.2-2.1c.2-.4-1.8-4.4-3.2-5-1.5-.7.4 1.3.1 2-.3.9-.5 1.9-.4 2 .1.1 1.2 1.8.6 2.5-.5.8 2.9-1.5 2.9-1.5z"/><path d="M398.7 240.4s1 .6 2 .3a4.2 4.2 0 001.5-1m-4.6-.8s3.4-2.5 3.1-3.8c-.3-1.3-1-1.3-1.4-1.1-.5 0-2.6 1.8-2.7 2.2-.1.4 1 2.7 1 2.7z"/><path d="M395.2 240.6s.6 1.7 1.7 1.7 2.7-1 2.7-1.6c0-.7-1-1.9-1.8-2.2-.8-.4-2.5.5-2.5.5l-.1 1.6z"/><path d="M398.3 238.4c-.2.5-2.4 1.5-3 1.6-.8 0-2.2-1.8-1.6-2 .6-.3 1.3-.3 1.8-.6.6-.3.7-1 1-1 .3 0 1.2.2 1.5.7.2.6.4.8.3 1.3z"/><path d="M396 239.8s-3.3 4.5-4.7 4.3c-1.4-.2.6-6.4.6-6.4s.5.3 1.6.7c1.1.3 2.2.7 2.5 1.4z"/><path d="M390 236.6s4.4.7 4.6 1.4c.2.7-2 1.6-3.3 1.6-1.2 0-1.2-3-1.2-3z"/><path fill="#202220" d="M379.4 243.1s.5 2.1 2.4 2.2c1.9.1 3.6-2 3.6-2l-4.4-1.7-1.6 1.5z" stroke="none"/><path fill="#4b4139" d="M379.4 243.1h-.1s.1.6.5 1.1a2.6 2.6 0 002 1.2h.2c1.8 0 3.5-2 3.5-2h.1l-4.6-1.9-1.8 1.6h.2v.1l1.6-1.4 4.4 1.6v-.1l-.3.3c-.6.5-1.8 1.6-3.1 1.6h-.2a2.4 2.4 0 01-1.8-1 3.7 3.7 0 01-.4-.8l-.1-.2v-.1h-.1v.1z" stroke="none"/><path fill="#202220" d="M380.6 242.6s.7 1.5 3.2 1.6c2.4 0 4.4-2 4.4-2l-4-3-3.6 3.4z" stroke="none"/><path fill="#4b4139" d="M380.6 242.6s.7 1.6 3.2 1.7c2.5 0 4.4-2 4.4-2l.1-.1-4-3.2-3.8 3.5v.1h.1l3.7-3.3 3.8 3v-.2l-.1.1c-.4.4-2 1.9-4.1 1.9h-.1a4 4 0 01-2.5-.8 2.9 2.9 0 01-.6-.7h-.1z" stroke="none"/><path fill="#4b4139" d="M381 243s1 .8 2.3.9c1.3 0 2.9-.4 2.9-.4l-1.5.6h-2l-1-.4-.6-.5-.2-.3z" stroke="none"/><path fill="#202220" d="M383.8 240.8s1 2.6 3.3 2.3c2.3-.3 2.4-1.6 2.4-1.6l-2.6-3.7-3.1 3z" stroke="none"/><path fill="#4b4139" d="M383.8 240.8h-.1s.2.6.7 1.2a3 3 0 002.4 1.2h.3c1.2-.1 1.8-.5 2.1-1 .3-.3.4-.7.4-.7l-2.7-3.8-3.2 3v.1h.1l3-2.8 2.6 3.6c0 .2-.3 1.2-2.3 1.4h-.3a3 3 0 01-2.2-1.1 5.2 5.2 0 01-.6-.8v-.3h-.2z" stroke="none"/><path fill="#4b4139" d="M384.1 241.3s1.4 1.6 2.6 1.6c1.2 0 1.9-.5 1.9-.5v.2l-.6.3-1 .3-1.1-.2-1-.5-.8-1.2zm-4.3 2.6s1 1.1 2 1.2a6 6 0 002.4-.8h.2l-.2.2-1 .5-1.2.3-1-.1-.7-.5-.4-.5-.1-.3z" stroke="none"/><path d="M389.8 236.4c1-.2 3.2 2.7 3.2 4.2 0 1.4-.6 3.6-1.7 3.5-1 0-3.4-2.2-4-3.3-.5-1-1-1.8-.7-2.4.4-.6 3.2-2 3.2-2zm-10.6.2s-1.7-1.3-2.3-.6c-.7.7-.5 3 0 3.4.4.5 2.5-1 2.5-1l-.2-1.8z"/><path d="M379 238.2s-2.3.3-2.3 1.3 1.1 2.1 1.3 2.4c.3.2 2.3-1 2.3-1l-1.3-2.7z"/><path d="M380 240.1s-2.4.7-2.4 1.5 1 2.3 1.8 2.3 1.3-1.4 1.5-1.7c.3-.3-1-2-1-2zm1-6.7s-.4-.6-1.4-.2-2 1.3-1.8 2.9c.1 1.6.7 2.6.7 2.6l3.5-1.2-1-4.1z"/><path d="M381.3 236.1s-3 1-3 2.1c-.2 1.2.6 2.3 1.4 2.6.8.2 3.3-2.3 3.3-2.3l-1.7-2.4z"/><path d="M384 240.9s-3 2-3.4 2c-.4 0-1.5-1.6-1.3-2.7.3-1 2.3-1.7 3-2 .8-.3 1.6 2.7 1.6 2.7zm2.5-10.7s-.9-.8-2.7-.7-3 2.5-3.3 3.6c-.2 1.2 0 3.4.6 3.8.7.3 4.4-2.7 4.4-2.7l1-4z"/><path d="M383 239c-1.3-.1-2.4-1.9-2.2-3 .2-1 2.6-2.9 4-2.7 1.2.2 1 3.4 1 3.4s-1.6 2.5-2.9 2.3z"/><path d="M386.9 238.8s-.7 1.4-2 2c-1.2.7-2 .1-2.6-.9-.8-1 .3-1.5.8-2 .6-.5 2.3-1 2.3-1l1.5 1.9z"/><path d="M384.9 235s-1.4 1-.6 2.4c.8 1.3 1.4 1.7 2.4 1.9 1 .2 1.6-.2 2.4-1.2s2-1.4 1.9-2.6c-.1-1.1-.6-2-1.3-2.4-.7-.3-2.9 0-4.8 1.9z"/><path fill="#202220" d="M388.8 229.4s-1.4-.6-2.5 0a4 4 0 00-2 3.3c0 1.2.3 2.9.3 2.9s1.5-.5 2.5-1.3 1.3-1 1.1-1.5c0-.2-.4-.5-.4-1.5 0-1.8 1-2 1-2z" stroke="none"/><path fill="#4b4139" d="M388.8 229.4s-1.6-.3-2.5.2a4.2 4.2 0 00-1.8 2.5c-.3 1 0 1.3 0 1.3s-.2-1 0-1.8c.4-1 1.2-2 2-2.3 1-.3 2.3 0 2.3 0z" stroke="none"/><path d="M431.6 260.9l2-1 2.6-1.6.6 3-2.3 1.8h-2l-1.2-1 .3-1.2z"/><path d="M428.4 261.2h1.4c1.4 0 1.5-.4 1.8-.3s.6 1.6.6 1.6l-.5 1-2 1-1.7-.9-.1-2.3.5-.1zm16-1s-.5-.6-1.3-1.3l-2.8-2.5v6.5l3-.1 1.4-2-.4-.6z"/><path d="M428.4 261.2s-.5-.7-1.7-.5c-1.3.1-2.6 1.1-2.8 2-.1.9 0 3.4.7 3.9s1.5.7 3 .4c1.3-.4 8.2-4.7 8.2-4.7l-1.7.4c-1 .2-1.9-.2-1.9-.2s-1 1-2 1.2c-1.1.2-1.4-.5-1.6-1-.2-.5-.2-1.5-.2-1.5z"/><path d="M433 263.4l-1.4.7c-.4.3-1.8.8-1.8.8l.6 2 3 .8 1.8-1.5V264l-2.2-.7zm13.8-1.5l-1-1c-.6-.6-1.3-.8-1.5-.7l-1.6 2v1.3l1.6.9 1.1.2 1.5-1-.1-1.7z"/><path d="M436.6 260.9s-1.3.6-2 1.1c-.6.6-1.6 1.2-1.6 1.4 0 .2 1.5 1.8 1.5 1.8l1.5.1 3.3-2.3-.2-2-2.5-.1zm12.5 2.7s-.3-.5-.8-1-1.1-.7-1.5-.7c-.4 0-1.7 2-1.7 2l-.2.5 1.2 1.4 2.1.5 1.5-1.5-.6-1.2z"/><path stroke-linecap="round" stroke-linejoin="round" d="M443.7 265.9l1.5.3s0 .3.3.7c.5.3.5 0 .5 0s.2 1.5 1.8 2.7c0 0 1.8.6 2.8.1.9-.5.8.2.8.2l2.6-3.3s0-.7-.6-.7c0 0 .4-2-1.3-2.5-1.7-.4-3 .2-3 .2s-1.3 2.4-2.1 2a3.1 3.1 0 01-1-.6l-.9-1.1s-.5.1-1.2-.3a5 5 0 01-1.2-1.5s-1-.1-1.3-.5l-.7-1-2.4 1.8s-.1.7-1.5 1.8c-1.4 1-2.3 1-2.3 1s-.4 2.1-2 1.8c-1.6-.4-2.6-2.1-2.6-2.1s-1.2-.2-2 .8c-.7 1-1 1.3-1 2.3s.6 2.3 1.1 2.8c.5.4 2.1 1.7 4 .7s1.3-2.6 1.3-2.6l1-.6c1.2-.7 2.4-1.9 3.3-2.2"/><path d="M440.8 252.9v4.1s.5 3.8-.3 5c-.8 1.1-3.8.8-4.2-.1-.4-1-.2-4.3-.2-4.3l4.6-4.7z"/><path stroke-linecap="round" stroke-linejoin="round" d="M437.4 265.5s-.6 1.1 1.4 1.3c.5 0 .9-.1 1.1-.4.5-.6.4-1 .4-1s-.2 1.5 1.6 1.5c2 0 1.7-1.8 1.7-1.8"/><path fill="#202220" d="M421.6 269s-1.1-1.8.1-2.5c1.3-.7 2 0 2.8 0 .7 0 .5-2 .3-2.3a4.9 4.9 0 00-.9-1.5c-.3-.2-4.5.2-4.5 3 0 2.7 2.2 3.3 2.2 3.3zm6.6 6.7s-1.4-1.9-.6-3c.7-1.2 1.2-.5 1.6-.5.4 0 .6-.9 0-2.2-.7-1.2-1.5-1.9-2-2-.4 0-3 1.9-2.4 4.3a4.6 4.6 0 003.4 3.4zm23.8-2.3s4.6 2 5-2.7c0-2.5-2.1-4.2-2.8-4.2-.5 0-.9.3-1.7 1.3-.8 1-1.5 1.7-1.1 2 .3.4 1.7-.3 2.3 1.1 1 2.5-1.7 2.5-1.7 2.5z" stroke="none"/><path fill="#4b4139" d="M428.2 275.7s-3.6-.7-3.6-4.2c0-2.4 2.6-3.4 2.6-3.4s-2.4 1.3-2.4 3.3c0 3.6 3.4 4.3 3.4 4.3zm-6.6-6.7s-2-.5-2.3-3.5c-.2-3 4.7-2.8 4.7-2.8s-4.7.2-4.5 3c.3 3 2.1 3.3 2.1 3.3zm30.4 4.4s1 .5 2 .4c1 0 2.3-.3 2.7-2 .5-1.8.3-2.7-.9-4.2-.8-1-1.5-1-1.5-1s.8.1 1.4 1c.6 1 1.5 2.1.9 4.1-.6 2-2.5 2-3.2 2-.7 0-1.4-.3-1.4-.3z" stroke="none"/></g><g fill="#4d2a15"><path fill="#904720" d="M397.2 176.1l-.9-.2.7-1.4 2.4-.9h2.4l2.5-.2 1.2.8 1.3 3-4.8 2.9-.8.3-.3-1.2-.7-2z"/><path fill="#202020" d="M442.2 245.8l-.3-7.2-19.5 6 7.7 7.2z"/><path fill="#d2a567" d="M406.2 233.3l-1.7-1.3s-1.1-.8-1.8-1c-.7-.2-1.5 0-1.5 0l-.3.3.3.7 1.8 2 3 1.6 1 1 .7.3-1.5-3.6zm-.5 3l1.1.2 1.1 1.3.7 1.3 1 1.8.2 1-2.2-.4-6.3-2 .6-1.5 1-1 1-.4 1.3-.2z"/><path fill="#d2a567" d="M409.8 241.5h1l.7-.7-.3-2.3.4-7.6-5.1-6-1 3.4 1.4 6.2 1.1 3.6z"/><path fill="#ab6d29" d="M406.1 227.7s-.3.6.1 2.6 1.2 6.4 3 9.5c1.7 3-1.8-2.4-1.8-2.4s-2.7-6.2-2.3-10.8c.5-4.6 1 1 1 1z"/><path fill="#ab6d29" d="M409.9 231.5s-1.1 1.5-1.3 2.5c-.2 1 0 3 0 3s-.1-1.5 1-1.8c1.2-.3 1 3.1 1 3.4.1.4.7-6.1.7-6.1l-1.4-1zm.5 12.7l-5.7-1.3c-3-1.4-4.6-2.4-4.5-3.1 0-.7 5.3.2 6 .3a25 25 0 013.1 1.4h1.4l2.4-1.1.4 2.6-3 1.2zm-9.6-1.1s1.4 1 .7 1.4c-.6.5-2.5.5-3 .4l5.5 1.3 1.1-1-4.3-2.1z"/><path fill="#d2a567" d="M399.3 241.6c.2-.4.3.8 2.3 1 2 .3 3-.3 3-.3l.8.6 1 .2-.9 1.5-3.6-1.1-2-1.1-.6-.8z"/><path fill="#ab6d29" d="M412.2 239l1 1.4.7-3.2V234l-2.2-1.4z"/><path d="M406.5 233.6l-1.7-2.9-2.2-4 1.3-2.4 1.7 2.5s-.5 1.6-.2 3.1c.3 1.6 1 3.7 1 3.7z"/><path fill="#d2a567" d="M394.8 244s.7-1.3 2.5-1.4c1.7-.2 3 .2 3 .2l3.6 1.8.7 1.2-6.6-.9-3.2-1z"/><path fill="#8f4620" d="M412 232.2l.3 5.2c.2 1.3 1 2.5.8 3s-.4.8-1.2 1c-.9.4-2.6 0-2.6 0s1.7-.1 1.8-.5c0-.3-.5-1.8-.6-3.2-.1-1.4 0-3-.4-3s-1 .7-1 .9c-.2.1.4-5 1-5.5.5-.6 2 2.1 2 2.1z"/><path fill="#ab6d29" d="M400 242.6s-.7-.6-.7-1c0-.5.8 2 4.4 2 3.7-.2 3.4-.3 3.4-.3h1.7s-.3 1.6-.6 1.7l-3 2-.8.4v-.2h-.1l-.3-2.8-3.2-1.2-.9-.6z"/><path fill="#8f4620" d="M406.5 233.6s-4.2-4.4-5.6-7.3c-1.4-2.9-.6-6.8-.6-6.8l4 5.1s-.6 1-.4 2.7c.2 1.6 2.6 6.3 2.6 6.3z"/><path fill="#ab6d29" d="M403.8 249.5c-.2-.3-.3-1.3.5-2.3 2.5-3.1 8.8-5.4 8.8-5.4v3.9l-8.1 3.9-1.2-.1z"/><path fill="#8f4620" d="M404.3 246.6c.3-.3 1.7-1.3 1.8-1.8 0-.5-1-.6-2.8-1-1.9-.3-3.4-1.1-3.4-1.1s2.3 1.7 3.2 2c.8.4.8.7.6 1l.5.9zm10.8.9s-1.1-1.8-1.5-2.8c-.4-1.1-.4-2.8-.5-2.9l-1.3.8-2.5 1s2.6 0 2.6.8c0 1-3.9 1.4-3.9 1.4 0 .1 3.1-.6 3 .1-.3.8-1.6.8-3.3 1.5a26 26 0 00-4 2s.8.5 2 .4c1.2 0 3.8-.7 3.8-.7l5-1.8.6.2z"/><path fill="#ab6d29" d="M415.1 247.5s-1.4-.5-2.4-6.4c-1-5.8-.7-7.4-.7-7.4l2.4 1.7 2.1 3.8-1.4 8.3z"/><path fill="#8f4620" d="M415.9 237.7s-1.1 3.3-1.1 5.2c0 2-.2 3.2.3 4.6.6 1.3 2.4 3 2.4 3l.9-.9.4-2.6.2-4.5-3.1-4.8z"/><path fill="#202020" d="M419.2 242.2s.6 8.3-1.5 8.5c-1 .1-2.5-3.1-2.6-3.2 0-.1 1.9 3 2.6 2.7 1.3-.5.9-8.6.9-8.6l.6.6zm-4 5.3s-.4-.2-1-1.1c-.6-1 0 .8-4.5 2.4-4.4 1.5-6 .7-6 .7s1.5 1.1 6-.2c4.4-1.3 4-1.6 4.6-1.7l.8-.1z"/><path fill="#ab6d29" d="M407 237s.6.5 1.4 2.1l1.4 2.8.2-.2s-.5-1.6-1.3-2.8c-.7-1.2-2.9-4.1-2.9-4.1l1.1 2.1z"/><path fill="#8f4620" d="M404.3 247.2s.4-1.5 0-1.8c-.5-.3-1 0-4-.4-3-.3-5.5-1-5.5-1s2 1.2 4 1.7l4.5 1.1.7.1.3.3z"/><path fill="#202020" d="M404.3 247.2s0-.3-.3-.7c-.4-.4-1 .1-4.6-.9-3.7-1-4.6-1.6-4.6-1.6s1.3 1 4.5 2l5 1.2z"/><path fill="#ab6d29" d="M405.9 236.3s-2.8.2-3.6.9c-1 .7-2.1 2.6-2.1 2.6l1.7.2s-.2-1.7.7-2.5c.8-.8 2.1-1 3.3-1.2z"/><path fill="#8f4620" d="M400.7 231s1 1.6 2.2 2c1.2.6 2.3 1 2.9 1.6.5.5 1.1 2.4 1.1 2.4s-4-1.8-4.7-2.7c-.8-.8-1.5-3.2-1.5-3.2z"/><path fill="#8f4620" d="M404.5 232s-.3-.6-1.4-1.1c-1.1-.5-2-.4-2.2-.2-.3.2-.2.4-.2.4l1.4 2.2.8-.2s-2.1-1.4-1.6-1.8c1-1 3.2.7 3.2.7z"/><path fill="#202020" d="M415.2 227l22.2-11.4 10.5 14.6-19.2 5-10.1 1-5-3.6z"/><path d="M445 233.3l27.6 23.9-3 2.1-6.6-1.8-13.4-13.3-5-5z"/><path d="M480.3 252.5s-6.8-5.4-15.8-12l-20-15 .6 7 22.8 21 7.5 3.7 3.8-1.2 2-2-.9-1.5z"/><path fill="#803f1d" d="M444.9 235.5s8 9 14 13.6 11.8 9.6 13 8.9c1.2-.7.8-1.5.8-1.5l-28-22.8.1 1.8z"/><path d="M464.4 258.5l-2.8 2.2-3.3-1.3-17-17.4 1-3.2 2.3.3z"/><path fill="#202020" d="M480.3 252.5s-2 4.9-6.5 3.7C469.4 255.1 445 232 445 232v2.4s24.7 22.7 29.4 23.6c4.8.9 8.7-3.2 8.2-3.7l-2.3-1.7z"/><path fill="#803f1d" d="M442.1 239.2s7.9 10 12 13.8c4.2 3.7 7.8 6.6 9.5 6.3 1.7-.3-1-2.2-1-2.2l-12-11.8-6-6.1s-2.4-1-2.5 0z"/><path fill="#202020" d="M444 239.2s20 20.4 21.7 20.8c3.3 1 8.1-2.5 8.1-2.5l-1.8-1-.2.6s-.8 2.1-5.2 1.2c-4.3-1-21.8-19.8-21.8-19.8l-.7.7z"/><path d="M451.6 258.7l-7.3-8.4-1.6-2.8-.4-3.5 14.5 14.6-2 1.4-1.8-.6z"/><path fill="#202020" d="M464.8 259s-1.8 2.6-4.2 2a7 7 0 01-3.7-2.2l-14-13.6-.3-2.1s15.3 16.2 18 16.9c2 .5 3.5-2 3.5-2l.7 1z"/><path fill="#202020" d="M457 258.5s-.6 2-2.7 1.7c-2-.2-2.7-1-2.7-1l-8.5-10.2-.2-2.7s9 12.3 11 13c2 .7 2.5-1.4 2.5-1.4l.7.6z"/><path fill="#b07229" d="M448 232s8.2 7 8.9 7.3c.7.4 3.6.5 3.7 1 .2.3-1.9 0-2 .3-.2.5 4.1 4 4.8 4.1.7.1 4.2.1 4.1.5 0 .5-2.4 0-2.4.6-.1.5 3.7 3.5 4.4 3.6.7 0 5 0 5 .5 0 .4-3.5 0-3.4.7 0 .8 6 4.5 5.8 5-.3.5-7.2-4.7-7.3-4.4-.2.3-.5 1.9-.9 2.2-.4.2 0-2.2-.3-3.2-.4-1-4.4-4.1-4.8-3.7-.4.3 0 2.1-.5 2.1-.4 0 0-2.2-.4-3a19 19 0 00-4.6-4c-.5 0-.2 1.7-.5 2-.4.3-.3-2-.8-2.6-.5-.7-9.2-8.6-8.9-9z"/><path d="M433.8 254.9s0 3-1.4 3.6c-1.4.4-4-5.8-4-5.8l-.7-5.8 4.2 3.8 1.9 4.2zm11-1.6v-1.7l-.4-1.9-.2-3.2-.8-2.2-.6-1.3h-1l-2 1.6-.8 2 1.1 4 1 3.5 1.7.6 2-1.4z"/><path d="M442 258.7c.5-.1-.5-4.4-.5-4.4L439 248l-.7-2.3-2-.8-1.4 1.6.3 2.5s2 4.2 3 5.7c.9 1.4 3 4.3 3.8 4z"/><path fill="#202020" d="M439.7 245.3c.7.5 1.6 2.2 1.8 3.4 0 0 1.7 4.6 1.5 5-.3.6-1.3.6-1.3.6s2.3 2.4 3 2c.7-.2.4-2.5.1-3-.2-.6-1-.2-1.2-.7a20.2 20.2 0 01-1.2-5.5c0-1.8-.1-3.1.1-3.6.2-.4 2 3.9 2 6.2l.7.9s-.5-3.2-.8-4.2c-.2-1-.9-2.6-.9-3 0-.3.4-1.1.4-2v-1.3s.8.7 1.2.6c.3 0 .8-.5 1-2.5.3-2-.2-8-.2-8l-8.8 11.8 2.6 3.3z"/><path fill="#202020" d="M439.7 244.3s-.3 3.1.8 6.3c1.2 3.3 1.5 3.4 1.7 3.9.2.4.2 3.8-.2 4.3 0 0-2.3-5.9-3-8.7-.8-2.9-1-4-1.4-4.2l-1-.3 3.1-1.3z"/><path d="M438.9 261c.2 0 0-1.3 0-1.3l-.3-3-3.1-6.4-3.4-3.1-1.8-2.8-.3 5.3s2.5 5.3 4.1 6.8c1.6 1.5 4.3 4.6 4.8 4.5z"/><path fill="#202020" d="M426.1 246.6s.6 1.4.6 2.4v1.7l2.3 4.6c1.2 2 2.3 4 3.2 3.6 1-.4 1.3-2 1.4-2.1 0-.2-1 1.7-1.7 1.4-.5-.3-3-8.5-3-8.7l-1.3-1-1.5-1.9zm9.3 7.2s-1.7-2.9-2.3-4.2c-.6-1.2-1.6-2.2-1.8-2.2s-.7-2.6-.7-2.6 1 1.7 2.1 2.3c1.2.6 2 1 2.5.8 0 0 .4 1.3.4 2.7l-.2 3.2z"/><path fill="#5c3a1d" d="M429.7 249.6s.6 1.8 1.8 3.5c1.2 1.7 3 3.8 3 3.8s-2-2-3.1-3.7c-1.1-1.6-1.9-3.7-1.9-3.7h.2z"/><path fill="#202020" d="M435.8 247.4s.6-1.6 1-1.6l1.6-.4s-1-.2-1.6-1c-.8-1-1-.9-1.7-1.8l.6 2.6.1 2.2zm-.6.5s2.6 5.4 3.2 7.2c.7 1.9.6 4.6.6 4.6s-.4-2-1-3.6c-.5-1.5-2.8-6-3-6.5-.2-.5.2-1.7.2-1.7z"/><path d="M438.7 244.4l.6-8-.6-2.8-3.6-8s-.2 1.2-1 1.2c-1 0-3.3-1.3-4.2-2.4a12.3 12.3 0 00-.1 6.4l6.9 13 2 .6z"/><path fill="#8b441f" d="M425 249.6s1 1.3 1.7 1.1c.6-.1.4-2.6-.4-4s-9.2-12.6-10.5-13.3c-1.2-.7 9.2 16.2 9.2 16.2z"/><path fill="#8b441f" stroke="#5c3a1d" stroke-width=".1" d="M430.7 245c.2.5.8 4-.7 4.4-2 .5-11.2-12.3-12.7-14 0 0-5.8-3.7-5.9-4.6 0-1 6.3 1.3 6.3 1.3l12.4 11.8s.4.5.6 1z"/><path fill="#202020" d="M425 249.6s-1-1.8-1.2-3c0-1.4-.5-2-.6-2.5 0-.4-6.8-10.2-7.5-10.8-.6-.6-3-2-3-2a20.2 20.2 0 00.4 3.2s2.1 4 5.2 7.6l6.7 7.5z"/><path d="M435.2 248c1-.6.5-3.7.2-4.7s-5.8-12.4-5.8-12.4l-1.7.6-3.1-2.5-1.8-1.9s.7 2.8.6 4.1l-.1 2.1 4.4 7.7 7.3 7zm6.2-7l1.3-1.7-.6-5.7-3.7-12.5s-.9.3-1.8-.3-1.8-1.7-1.8-1.7l.8 7.4 3.8 10.5.2 3 1.8 1z"/><path fill="#202020" d="M430 244s-3.6-4-4.8-6l-2.2-4s-1 .5-2.3 0c-1.3-.6-3-2.4-3-2.4s-1 2 4.3 7.4c6 6.1 8 5 8 5z"/><path fill="#8b441f" d="M438.9 245.3c1.5-.7 1.5-7.1 0-11.5-1.4-4.4-3.8-8.1-3.8-8.1s3 7 3.6 9.8c.7 2.9 0 5-.5 4.7-.5-.1-.5-1.6-1.7-4.4-1.2-2.8-2-3.5-2-3.5s4.2 11.6 3 11.4c-1.2-.3-7-13-7.3-13.4-.3-.3-.4.5-.4.5s5.2 16 9 14.5z"/><path d="M442.3 214l2.6 5.6.8 5.8.2 4.9s.2 9.7-1 9.9c-1.2.2-1.8-1-1.8-1.2l-2.2-10.9-2.3-11 .8-.8.3-1.7 1.7-.1 1-.4z"/><path fill="#8b441f" d="M435.2 248c1-.2 0-2.9 0-2.9s-.8 1.3-1.5.5c-.7-1-1.8-4.1-1.8-4.1l-.6-2s-.8 2.2-1.7 2.2c-1 0-6-8.5-6-8.5l-.6.9s7 14.5 12.2 13.8z"/><path fill="#202020" d="M432 241.5s.8-2 .4-4c-.3-1.9-2.8-6.6-2.8-6.6s-.8.1-1.8-.2-3-1.6-3-1.6 1.4 3.5 2.9 6c1.5 2.7 4.2 6.4 4.2 6.4zm4-3s-.6-4.4-2.7-8.6c-2-4.1-3.4-5.5-3.4-5.5s.2 1 .2 2.6v2s1.8.7 3.2 3.2c1.4 2.5 2.7 6.3 2.7 6.3zm5.6-7.6s-.3-4.9-1-7.6c-.8-2.8-1.6-6.5-1.6-6.5s0-.4.4-.6h.9c1 .4 1.4 3 1.4 3l-.2-4.2-.4-.7s-.3.2-.8.2l-1-.2s.3 1.2-.2 1.8c-.3.4-.7-.3-1-.4l-.1.5s.4 1.4.5 2.6c0 1.2-.2 2.2-.2 2.2s.8 2.9 1.6 4.7c.8 1.7 1.7 5.2 1.7 5.2zm4.3-.6s.9-7-.7-11.4c-1.6-4.5-2.9-5.6-2.9-5.6l-.7.8s2.3 3.8 3 7.3c.8 3.7 1.3 8.9 1.3 8.9zm-7 3.5s-.7-5.4-1.7-9l-1.3-4.7-1.5-1.4s1 3.7.8 4.8l-.1 1.8s.7 1.9 1.6 3.4c1 1.6 2.2 5.1 2.2 5.1z"/><path fill="#904720" d="M442.6 242.4c1.4 0 .1-7.8-.4-9.8l-3.8-11.5s3.9 13.5 3.5 14.1c-.4 1-2-4-2.2-4-.3 0 2.9 9.1 1.7 9.2-1.1.1-1.7-1.9-1.7-1.9l.1 2s.8 1.9 2.8 2z"/><path fill="#904720" d="M444.3 238.5c1 0-.3-7.5-1-10.8-.7-3.2-2.6-9.8-2.6-9.8s2 4.5 3 9.8c1.1 5.2 1.9 12 .9 12-1 .2-1.6-.9-1.6-.9l-.1-1.2s.4.9 1.4.9z"/><path fill="#312317" d="M431.5 247.2c.1.5.1 3-1.2 2.9-1.4-.2-3.9-2.5-4.4-4 0 0 3 3.3 4 3.3s1-3.4.8-4.3c-.2-.8.8 2 .8 2z"/><path fill="#d2a567" d="M438.6 211.8s1.7 1.1 3.1.3a5.2 5.2 0 002.3-3.9c0-1 0-2-1-3.1-.8-1.2 1.4 1 1.4 3s.1 5.6-3.2 6.4c-3.3.8-1.9-.1-1.9-.1l-.8-2.6z"/><path fill="#8f4620" d="M436 205.4s2 3.5 2.8 6.6c.8 3 .7 4.2.2 4.3-.5 0-.7-.4-.9-1.1 0-.8-2.2-9.7-2.2-9.7z"/><path fill="#1e2121" d="M399.1 209.7l14 20.1 17.3-19.6-11-11.3z"/><path d="M416.7 197.3l-.8 3.2 1.7 5.3 2.9 3 3.3 2.2.8-2.4.8-3 .9-.3 2.1.8 1.4-2 2.3-4-.5-1.6-.5-1.2-3.6-6-1.1 2.2-1.1.7-2.1-1.2-2.5 3.3-3-1.4z"/><path fill="#5c3818" d="M423.9 211s.6-.4.8-2c.3-1.6.3-6.4-.1-8.4s-1.7-5.8-2-5.5c-.2.3 2 4.3 1.7 9-.4 4.9-.2 6.2-1.2 6.7-1 .4.8.3.8.3z"/><path fill="#5c3818" d="M424.7 203s2.3 3.3 3.4 2.1c1-1.2.5-5.4-.2-7a50 50 0 01-1.5-4l.7-.7 1.2 4.5c.4 1.7 1.7 6.8.2 7.7-1.6 1-3.8-1.8-3.8-1.8v-.8z"/><path fill="#8f4620" d="M417.2 205.2s.8-1 1.9-1.2c1-.1 1.2.3 1.2.3l1 2.7 1.5 2.8 1.4 1.4-.8.8-1.1.2-3.4-1.8c0-.2-.9-1.2-.9-1.2l-.8-4z"/><path fill="#d2a567" d="M422.7 233.8c-1 .6-3.6-.6-5-1.9-1.4-1.2-8.8-8.8-8.8-8.8l-1-4.2 2.8.8 5-2.1 1-1.8 6-3.2 3.4-1.8 7.3-.1 1.8-3.6s2.4 4.2 2.8 6c.5 1.7.4 7-.3 7.4-.6.4-3-1.6-3.3-1.7-.4-.1 1.8 7.5 0 7.8-1.8.3-4.8-2.8-4.8-2.8s1.2 6.8-.2 6.8-5-1.7-6.6-3.3c0 0 1.7 5.6-.1 6.5z"/><path fill="#8f4620" d="M421.3 225l1.5 2.3c.4.5 0 3.7-.3 4.3-.4 1.3-2.1-1.4-3-3.8l-2.9-5c-.1-.6 4.6 2.2 4.6 2.2zm14.2-17s2.6 10.7 1.4 11.1c-1.3.4-4.8-3.4-5.2-4l-5.4-8.3-1-1 .3-.6 2 .8 8 2z"/><path fill="#8f4620" d="M417.2 228.6c-.5.3-1.6-1.4-2.2-1.9-.5-.4-2.2-2.6-3.9-4.3-1.7-1.7-3-3-3-3.4 0-.3-1-1.4-1-1.4l1-1.1 1.1-.2s7 5.6 7.6 6.5c.4.9.8 5.5.4 5.7zm10.6 0c-.3.3-5-3-7-5.9-1.9-2.8-4-5.2-4.4-6.5l-.9-2.5 1.4.3s11.5 14.2 11 14.6zm1.7-4.9c-.3.3-2.3-1.2-3.5-2.8-1.3-1.7-.7-3.7-.7-3.7s4.4 6.2 4.2 6.5zm2.6-.6c-.6.3-3.3-3-5.5-6.6-1.7-2.7-2-3-2.4-3.3-.6-.4-1.8-.5-1.8-.5l-.2-.4 1.2-.3.9-1 1.3-1.8 5.6 11.2s1.3 2.5 1 2.7z"/><path fill="#ab6d29" d="M417.7 232c0 .3 0 .7-1.5.6-1.5-.2-9.4-4.4-13-10.2a2863.2 2863.2 0 01-4-6.6l1.6-1.8 12.5 14.3 4.4 3.6z"/><path fill="#8f4620" d="M417.7 232c.2.6-.6.8-1.4.5-.8-.2-4-1.3-9-6.9a44 44 0 01-7-9.6l-.2-2.4 1.5-.7 8.6 13.2 7.5 5.8z"/><path d="M426.1 226.3s-2.6-1.9-4.3-3.9c-1.6-2-5-6.6-4.9-7.5 0-.9 1.5-.9 1.5-.9v-2.3l.3-.8 2.5 1 3 3.7 1.2 1.6s2 4.7 1.6 5.2c-.4.4-3.2-2.7-3.6-2.3-.3.4 3.2 5.8 2.7 6.2zm-4.9-1.3s.9 1.3.5 2.2c-.4.9-.7 1.4-2-.5-1.3-2-2.8-4-3-4 0 .3.2 3-.4 3-.7 0-2.7-2.4-4-4.3l-3.2-5s.2-.7.1-2.8c0-2.2-.3-3.3-.3-3.3l.4 1.2.6.8 4.7 5.5 1.3-.9 2.8 5.4 2.5 2.7zm-17.7-8s3.6 6.3 7 9.8a22.8 22.8 0 007.2 5.1l-11-13-3.2-2zm27.8 3.7c-.2.1-2.5-2.3-3.9-4.5a14.5 14.5 0 01-2.4-6.5c0-1.3.5-4.6.5-4.6s3.7 4 4.4 5.7c.8 1.9 2.3 4.3 2 4.6-.4.3-2.9-1.7-3.2-1.2-.3.5 3 6.2 2.6 6.5zm4.2-4c-.4.2-2.3-2-2.8-3.4a19 19 0 01-.7-4.1l-1.7-4 .2-4.3 1.6-.3 2.6 3.5s1 2 .9 5c0 2.9.4 7.3 0 7.5zM406 227.2c-3.4-4.1-5.4-8-5.4-8l-1.1-3.7.6.4s1 4.3 6.1 9.4c5.2 5.1 6.4 5.5 6.4 5.5s1 2.9.5 3.8c0 0-3.7-3.2-7.1-7.4z"/><path fill="#202020" d="M411.6 233.3s-4.4-4-8-8.4c-3.5-4.4-5.7-8.7-5.7-8.7l1.6-1.4s2.9 6.8 5 9.5c2 2.7 7.1 9 7.1 9zm6.1-1.4s-5.1-5-7.7-8c-2.6-2.8-4-5.8-4-5.8l2 .9s1 2.2 2.8 4.6l7 8.3zm-1-9.1s-2.8-3.5-4.1-5.6l-2.7-5s3.8 4.4 4.9 4.7c1 .3 1 0 1 0s-.4 1.5 0 2.8l1 3zm1.2-14s.5 2.5.1 4c-.3 1.3-1 1.3-1 1.3s1.4 2 2.3 3c.8.8 3 2.3 3 2.3s-1.7-2.4-2.4-3.6c-.7-1.2-1.7-2.5-1.3-3.7.4-1.2 2.8.8 3.4 1.3.7.6 3.4 3.8 3.4 3.8s-1-3.3-2.4-4.5c-1.3-1.2-5.1-3.8-5.1-3.8z"/><path fill="#202020" d="M429.2 216.1l-2.3-5.6c-.8-2.1-2-6.7-2-6.7v3.6c-.2 1.6-.7 4-1.4 4.3-.7.3-.9.4-2.1 0-1.3-.3.9.7.9.7s1.2 0 1.8-.7c.5-.6.7-2 1.3-1.8.6.2 1.2 2.2 1.7 3.1.5 1 2.1 3.1 2.1 3.1z"/><path fill="#202020" d="M424.8 203.7s2.7 3 3.9 1.7c1.2-1.4.5-5.2.5-5.2s1.6.6 2.1.2c.5-.4.3-2 .3-2s3 4.3 4.3 7c1.4 2.8 2.1 7.7 2.1 7.7s-2.4-4-3.6-7.6c-1.1-3.4-2.7-5-3-4.6a7 7 0 00-.4 3.9c.3 1.2 1.3 2.8 2 4.6.7 1.7 1.5 4.5 1.5 4.5l-2.2-3.3c-.8-1.1-1.7-1.6-2.2-2.1-.6-.6-1.4-1.6-2.2-1.9-.8-.3-2.4-1.1-2.4-.5 0 .7-.3-1.2-.3-1.2l-.4-1.2z"/><path fill="#171717" d="M415.8 216.7a38.4 38.4 0 005.5 8.3s-2.6-2.4-3.6-3.8a20 20 0 01-2-4.5z"/><path fill="#8f4620" d="M433.4 217.5c-.4.1-1.7-.3-1.8.1-.1.5.7 2.2 1.6 3.2 1 .9 1.3 1 1.5.8.3 0 0-.9-.2-1.8-.2-1 0-2-.1-2.3-.1-.3-1 0-1 0z"/><path fill="#d2a567" d="M401.5 198.4l-1.5 1-1.9 3.9.5 7 2.8 4c1 1.5 4.6 5.4 5.5 5.2.9-.2 1.9-3 2-4.5l.2-4.2s.9 1.5 2.3 3c1.5 1.7 2.8 3.2 3.5 3 .6 0 2.7-4.1 2.7-4.7 0-.5-5-13.2-5-13.2l-2.4-1.2-8.7.7z"/><path fill="#ab6d29" d="M413.1 209l1.5 4.8c.5 1.6 0 3 .2 3 .3 0 3-3.5 3-5.2.1-1.6.1-3.3-.6-8.3-.7-5 .2-6.5.2-6.5l-1.5-1.2-2.7 5.4v8zm-9-2.9s.5 5 .9 6.5c.3 1.6 1.3 4.3 1.8 4.3s2.1-4.3 2.1-5.8c0 0-1-2-1-7.3 0-5.2-.5-5.7-.5-5.7l-3.4 8z"/><path fill="#45392d" d="M397 196s-4 6-4 9.2c.1 3.3.7 2.6 1.6 5.5 1 3 1.4 7.3 1.5 7.7 0 .3.7-.2.7-.7l.2-21.7z"/><path fill="#ab6d29" d="M397 196.8s-3.6 5.5-3.3 8.5c.3 3 .7 3 1.8 5.7s1 7.2 1 7.2 1.2-.3 2.5-1.2c1.3-1 2.4-2.8 2.4-2.8l-1.3-2.8a9.9 9.9 0 01-.9-2.4l-1-1.5.3-5.3 1-3.9V197l-2.5-.2z"/><path fill="#dbad6c" d="M416.4 206.3s-1.8-.4-2.6-.9c-.7-.4-1-1.4-1-1.4l.4-1 3.2 3.3z"/><path fill="#d2a567" d="M397.8 197.3s-2.6 5.6-2.3 9.4c.3 3.9 2.4 8.8 2.6 8.8.2 0 .1-.3.2-1.2l-.1-11.5 1.2-3.7v-1.9l-1.6.1z"/><path fill="#8f4620" d="M404 198.6s.3 1.7.1 2.4c-.2.7-1.6 1.5-2.1 2.6-.6 1.1-1.4 3.6-1.4 3.6s.6-1.4 1.5-2.3c.8-1 1.2-1.6 1.3-1 .2.5.5 2.6.3 3-.1.5-.8 1.1-1.3 2.6-.5 1.7 0 3.2 0 3.2l.6-2.9c.3-.8 1-1.2 1-1.2l1.4 3s0-1.4.3-2.5c.2-1.1 1.4-2.7 1.8-2.7.3 0 1-.2-.5-1-.5-.2-.2-5.5.2-5.7.4-.3 2.4-.3 2.2-1-.2-.8-2-2.8-2.1-3-.2-.1-3.3 2.9-3.3 2.9z"/><path fill="#dbad6c" d="M416 209.9l-1.9-.3c-.6-.2-.7-.8-.7-.8l.2-.8 1.6.8.9 1.1z"/><path fill="#8f4620" d="M399.6 210.5c0 .6-.5 1.2-.7 2l-.6 2s-.4-2.5-.5-4.2c-.1-1.9-.2-3-.4-3.1-.3-.1-.9.8-.9.8s0-2 .4-3 .7-2.3.4-2.5c-.4-.2-1 .4-1.4.9l-1 1.6s.4-1.7.9-2.4c.4-.7 2.3-2.9 2.7-3.8.3-.8.3-1.8.3-1.8h1.4s1.4 1 1.4 2c0 .6-1.4 1.2-1.4 1.2 0 .2-1.1 0-1.4 4.4-.2 4.4 1 4 .8 6zm12.2-11.4s.3 2.5 0 3.2c-.2.7-.9 1.3-1.4 2.3-.5 1-.5 3.2-.5 3.2s.3-1.1.7-1.8c.4-.7.8-1.3 1-1.3.1 0 .6.9 1 2.1l1 3.4s-.3-1.6.1-1.6.6-.2 1.2.3l1.2 1s0-.6-.9-1.5c-.8-.8-1.3-.8-1.5-2a8.2 8.2 0 01-.3-2.8c.1-.4.7.3 1.2.9.4.6 2 1.9 2 1.9l-.9-1.3c-.2-.3 0-2.6 0-4 0-1.2 0-2.4.4-2.8.5-.3.6-2 .4-2.3-.2-.3-4.7 3.1-4.7 3.1z"/><path fill="#1e2121" d="M426 194.2s.2 2.7.6 4.3c.3 1.6 1.4 5 1.4 5s-1.4-2.5-2-4.8c-.7-2.2-1.3-4.6-1.8-4.7-.6-.2-1.2 1-1.2 2 0 .9.6 4.3 1.3 5.5.8 1.2-1.2-1.6-1.7-3l-1-2.9s-.4 1.3-.2 2.7c.2 1.4 1.4 3.4 1.4 3.4l-1.3-1.2-.9-1s0 2 .6 2.8l1.5 2.2s-1.2-.9-1.6-1.4c-.5-.5-.6-.9-.6-.9s.2 2.8.8 4.2c.6 1.5 2 4 2 4s-1.6-1.3-2.7-3.7a34 34 0 01-1.3-10.8l1.5-2.4c.8-1 1.7-6.2 1.7-6.2s1.2 4.7 2 5.6c.8 1 1.6 1.3 1.6 1.3zm-11.2-1.5a20.5 20.5 0 001.8 3.2s-1.4 1.5-3 2.7c-1.6 1.2-3.7 2.5-4.1 1.8-.5-.7-.5-1.2-.5-1.2s1.7-1 3.1-2.5a8.8 8.8 0 002.1-2.8l.6-1.2zm-14.3 4.7s.2 3 1.5 3c1.2-.1 4.9-3.9 5.1-4 .3-.2.5-1.1.5-1.4l-.2-1s-4 4-5.3 4.2c-1 0-1.6-.8-1.6-.8zm.1-3.8s-.5 2-.4 2.6c0 .6.2 1 .2 1s-2.8 1-3.2.2c-.5-.9-.2-2.1-.2-2.1s1.3 0 2-.2 1.6-1.5 1.6-1.5zm26.7-4.2s1.1 3 1.9 4.2a50 50 0 011.9 3.8s-2-2.3-2.5-2.7l-1.6-1.3s.3-.9.3-1.5v-2.5z"/><path fill="#dbad6c" d="M396.6 195.3h1.6c.7 0 1.1-.2 1.1-.2l1-1.6s-.5 1.9 0 3.2c.3 1.4 1 1.6 1.4 1.6.3 0 1.8-.3 3-1.5l2.7-2.5s-.4 1.7.2 3.5c.7 1.7 1.6 1.7 3 .6 1.3-1 2.7-3 3.4-3.7l1-1.4 1.4-1.2 1.2-7-.7-1-1.8.9-2.2-1-.6-.8-1.3 2.1-1.3.9-.7.1-1.5.3-.7-1.4-.4-1-.8-.4-3.2 3.2h-1.8l-1.8 2.7-1.3 1.9-1.3 3 .4.7z"/><path fill="#8f4620" d="M412 188s.2 1.9-.7 4.8c-.9 3-2.1 5.1-2.1 5.1s3.2-2 4.7-5.4c1.6-3.5 1.2-7.5 1.2-7.5l-3.1 3zm3.8-3.2s.4.6 0 3.2c-.3 2.7-.9 5.3-.9 5.3l.8 1.5c.4.9 1.5 2.4 2.3 2.1.7-.2 2-1.1 2.7-3 .8-1.7 1.6-3.4 1.9-3.7.3-.2.4.2.5.3.1.2.4 1.7 1.2 2.3.7.7 1.7 1.7 2.2 1.4.5-.3 1-1.2.8-1.6 0-.5-1.7-5.3-1.7-5.3l-2-5.2-1.3-2-3.7.3-2.8 4.4z"/><path fill="#ab6d29" d="M422.3 180s1 2.3 1.1 4.7c0 2.4-.5 5-.5 5s.2-3-.1-4.9c-.3-1.8-.9-3-.8-3.5 0-.5.3-1.3.3-1.3z"/><path d="M427.3 189.5s.2 2 0 3-1.6-.6-2.5-3.9c-1-3.2-.7-4-1.4-5.6-.7-1.6-1.1-3-1.1-3l1.8-.2 3.2 9.7zm-9 6s3.5-2 4-8c.2-2.8-1.7-7.5-1.7-7.5s0 5-1.3 8.1c-1.3 3.2-2.4 5.3-2.4 5.3s.8-.3 1.3-.9l1-1.4s.2 1-.1 2.1l-.9 2.4zM415 185s-.1 1.3-1.6 2.5a29 29 0 01-4.2 2.6s2-1.8 2.7-3.4c.7-1.6.2-2.7.2-2.7s-.3.9-1.1 1.5c-.9.7-2.1.8-2.1.8s0-.8.9-1.7c.1-.2 0-.6.2-.9.4-1.3 1.5-3.1 1.5-3.1s.9 1.9 1.7 2.7l1.8 1.7z"/><path fill="#1e2121" d="M426.2 177.8s.9 2.2 1.2 5.2c.3 3 0 6.5 0 6.5s-1.9-2.8-2.3-4c-.5-1.1-.5-2.9-.9-3.7a4.2 4.2 0 00-1.4-1.4c-.3-.2-1.3-.2-1.3-.2s1-.5 1.2-1.4v-1.4s.6.3 1.7.5c1.2.1 1.8-.1 1.8-.1zm-8 12.8s2-2.7 2.5-6c.5-3.4 0-4.6 0-4.6s-.9 0-1.5-.7c-.7-.7-1.7-2.3-1.7-2.3s.3 1.7-.1 3.8c-.4 2.1-2.3 4.2-2.3 4.2s1 .3 2-.2c1.9-1.1 1.7-3.3 1.7-3.3s.4.3.4 3c0 2.6-1 6-1 6z"/><path fill="#8f4620" d="M395.3 195.2c-.4 0 1.3-2.7 2.4-4.5l2.8-4.4s.3.3 1 .3a4.8 4.8 0 003.1-2.2c.8-1.3 1.3-2.8 1.4-3.2 0-.4-.2 2.3 1.2 3.8 1.3 1.5 1.2 1.4 1.8 1.3 0 0 0 1.9-.6 3.7s-1 4.3-1 4.3.2-3.3-.3-4.3c-.6-1-.9.1-1.4 1.3-.4 1.2-1.4 2-1.4 2s.7-1.4 1.2-3c.5-1.5.3-1.5.2-1.6-.2 0-.4 0-1 .6-.5.6-1 .8-1 .8s.6-.6.8-1.3c.2-.8.9-2 1.2-2.4.4-.4.7-1 .7-1.2 0-.3-.1-1-.4-1-.2 0-.6.4-1.8 1.6-1.2 1.1-1.4 1.2-1.7 1.7l-1.1 3.4a20.7 20.7 0 01-1.4 3.6l-.7.6 1-3.1c.7-1.8 1.6-4.1 1.4-4.5-.3-.4-.8-.4-1 0l-2.6 3.6c-1.3 1.8-1.3 4.1-1.6 4.2l-1.2-.1z"/><path fill="#874f20" d="M427.4 175.8c0 .2.1 1.5-1.2 2a4.5 4.5 0 01-3.1-.2c-.2-.2-.2-2-.2-2l4.5.2z"/><path fill="#b27129" d="M401.6 180s-.3 1.3-1 2.8c-.7 1.6-2 2.8-1.8 3 .2.2.9 1 2 1 1-.1 1.4-6.5 1.4-6.5l-.2-.2h-.4z"/><path fill="#dbad6c" d="M418 176.6s-.5 8.4-2.9 8.4-3.4-4.3-3.4-4.3-.2 5.7-3.2 5.7c-1.4 0-2.8-4.4-2.5-5.2 0 0-.6 3-2 4.2-2.8 2.2-4.7 1-4.7.7-.1-.3 2.3-2.7 2.7-6 0 0 .4.2 1.1-.8.7-1 1-2.1 1.8-1.9.6.2 4-1.4 4-1.4l1.8-2.3s.2.8 1.5-.1a4.8 4.8 0 001.8-2.2l3.5 3 .4 2.2z"/><path fill="#b27129" d="M408.7 168.6s2.2 3.2 3.6 5l.7-.7c.5.6.8 1.2.6 1.5-.5 1.3-1.7 3-.7 5 0 0-.3-1 .2-2.4s.9-1.9 1.2-1.8c.3 0 .8 7.7 1.3 7.6.5 0 1.2-3.4 1.2-5.8 0-2.5.5-.5.7 0 .2.5 2.3 3.9 4 3.4 1.9-.5 1.6-3.7 1.6-4.4 0-.7-1.3-4.9-1.3-4.9l-8-5-.7 2c-.4 1.5-4.4.5-4.4.5z"/><path fill="#8f4620" d="M420.1 167.8s.5.4 1.2 2.4c.8 2 .9 8.5-.1 8.4-1 0-3.1-1.2-3.4-2-.4-1 0-4.1-.6-5-.7-.9-1.5-3-1.5-3.6l.1-2.6 1.8-.6 2.5 3z"/><path d="M419.5 165.8l3.4 5 3 4.4s1.6.5 1.5.6a3.2 3.2 0 01-4 .7c-1.3-.7-.7-2.7-2.2-6-1.5-3.3-4.1-4.7-4.1-4.7l1-1 1.4 1z"/><path fill="#1e2121" d="M417.6 163s3 2 4.2 4.2c1 2.2 1.7 3.6 3 5.7s2.7 2.8 2.6 3c0 0-1 .3-1.6-.2a6.2 6.2 0 01-1.8-2c-.6-1-2.5-4.6-3.2-5.5-.7-1-3-2.7-3-2.5 0 .2.7.7 2 2.8 1.3 2 1.6 4 1.5 4l-1.5-2.7c-1.1-1.9-3.6-4.3-3.7-4-.2.4 1.2 2.6 1.9 4 .6 1.2 1.8 4.2 1.7 4.2l-2.3-3.8c-1.4-2-1.6-1.8-2.2-2.5l-1.8-2.3s1.2.4 2.4-.4c1.2-.7 1.8-2 1.8-2z"/><path fill="#8f4620" d="M409.9 168.7s2 .4 3 .3c1-.2 1.4-.1 1.4-.1s.7.8.7 1.8-.7 2.9-1 3c-.3 0-.2-1.8-.7-2.4-.5-.6-3.4-2.7-3.4-2.7z"/><path fill="#b27129" d="M411 173.8s.6 2.1 0 5c-.4 3-2.1 6.1-2.5 6.1-.5 0-.3-3.4-.5-5.1v-.6c-.1-.2-.8 2.3-.8 2l.6-3.3-.2-1.1 2.2-2.6 1.1-.4z"/><path fill="#8f4620" d="M407.2 176c-.6.7-1.5.5-2.4.8-.7.3-1 1.4-1 1.4s.6-.4 1-.3c.2.1.6.1 0 1.6s-3 4-2.8 4c0 0 2.6-2.1 3.4-3.3.8-1.2.7-2 .9-2.4.1-.4 1.1-1 1.3-1 .2 0 .7 0 1 .9l.6 3.4c.2.1.8-2.2 1-3.4.3-1.2.3-3.7.3-3.7l-.8-.2c-.6-.1-2-1.2-2-1.2s.3 2.4-.5 3.4z"/><path fill="#dbad6c" d="M417.7 161s.8 2-.8 3.4c-.5.4-1 .6-1.9.7-.9 0-2.3-.7-2.3-.7l-5-2.1-2.7-.9-1.4-.4.2-1.4 4 .1 4 1.6 1.7.5 1.5.3h1l1-.3s.4-.2.5-.4c.2-.2.2-.5.2-.5z"/><path fill="#ab6d29" d="M417.7 161c.2.3-.3 1.4-.7 1.6-.3.2-1 .5-2.6.1-1.5-.3-3-1.3-4.8-1.8-1.7-.5-3-1-4.3-.9-1.3 0-.7-.5-.7-.5s3-.4 5.7.6c2.6 1 3.8 1.7 5.1 1.7 2 0 2.3-.9 2.3-.9z"/><path d="M403.8 159.3s.6.2 1 0c.6 0 1-.3 1-.3s0 .7-.3.9c-.3.2-1.3.1-1.5.1-.2 0-.2-.7-.2-.7z"/><path fill="#dbad6c" d="M413.8 165.6s1.8 1.8 1.3 3.3l-3.4-1.6-5.6-2.3-3-1-.4-.4s.5-.5.8-1c.3-.6.2-1 .2-1l3.7.4 3.9 1.2 2.5 2.4zm-3.8 2.5s3.2 4.2 2.4 5.5L405 169l-2.6 4.3-6.2-3s5-3.8 5.6-4.5l.6-1 2.7.6 4.4 1.3.5 1.5z"/><path fill="#ab6d29" d="M408.3 162s2.6.7 4.2 1.5c1.7.9 4 1 4 1s-.9 1-2.7 1.1c-.5 0-1.9-1-2.7-1.6-.8-.6-3.3-1.3-3.3-1.3l.5-.7z"/><path d="M403.7 160.6s1.8.4 3 1c1.1.5 1.2.3 1.5.2l.4-.3s.2 1.2-.7 1.2-1.3-.3-2.4-.9c-1.2-.5-2 0-2 0l.2-1.2z"/><path fill="#ab6d29" d="M414 167.9s1.4.8 1.1 1c-.3.2-1 .5-2 .5a4.5 4.5 0 01-2.6-.4c-.9-.4-1.4-1.8-3.4-2.6s-2.3-.9-3.7-1.2l-1.6-.4 1.2-.5 4.3.9 3.7 1 2.2 1.1.8.6zm-7.2 2.5l.9 3.4-.5 2-1.1.7-1.1-.4-.3-.6s.5-.8 0-1.5-2.6-1.5-2.6-1.5.8-1.7 1.8-2c1-.4.5-1.7.5-1.7l2.4 1.6z"/><path d="M402.6 163.5s.7.6 2.1.8a16 16 0 012.8.6c.4 0 1.4-.4 1.4-.4l-.8.5c1.3.3 2.8.9 3.4 1.1a7.6 7.6 0 012.5 1.8s-.8-.5-2.5-1.2a22.9 22.9 0 00-4-1.2c-2.6-.5-5.1-.4-5.7-.6-.5-.1.3-.2.5-.5.3-.2.3-.9.3-.9z"/><path fill="#ab6d29" d="M412.2 172.8s.8.8 0 1.1c-1 .3-3.2.3-4.3-.9 0 0-.3-1-.7-1.6-.5-.5-2.2-1.6-3.2-2.2-1-.6.4-.7.4-.7s3.5 1.3 4.8 2c1.2.7 3 2.3 3 2.3z"/><path d="M412.2 172.9s-1.7-2.4-6.5-4.3l1.5-.3h-2.5l-1.1-.4c-2.5-.8-2.7-.7-2.9-1-.2-.4-.5 0-.7.4l-1 1.3c.1-.1 1.9-.5 3.3-.2 1.4.4 1.4.9 1.3 1.4-.1.6-1.9 2.7-1.7 2.7.2.1 1.2-2 2.5-1.7 1.3.3 1.8 1 1.8 1s0-.7-.3-1c-.3-.3-1.7-1.7-1.3-1.7.4 0 2 .4 4.3 1.6a9.9 9.9 0 013.3 2.2z"/><path fill="#dbad6c" d="M404.4 169.1s3.7 1 3.5 5c-.1 3.8-3 3.1-3.2 1.7-.3-1.4.3.7 1.3.5 1.1-.2 1.4-1.3 1.3-2.8 0-1.5-.4-2.2-1.3-3a15.7 15.7 0 00-1.6-1.4z"/><path fill="#6c3f18" d="M388.6 159.8s.4.2-.7 3a14 14 0 01-3.2 5.5c-3 3.2-4.2 3.2-4 4.6.4 1.4 1.5 1 1.8 1 .3.1 5.6-7.7 5.6-7.7l1.2-4.7-.3-1.4-.4-.4z"/><path fill="#dbad6c" d="M401.8 154.1s1.5 2.3 1 6.7c-.4 4.3-6.2 8.1-6.2 8.1l-8.4 5.8-3.4-.2s-.6.1-1.1 0c-.6-.2-1-.7-1.2-.7-.2 0-.7-1.5-.7-1.5l1.2-1.4 3-3 1.9-2.7s.9-1.6 1-3.1c0-1.6-.3-2.3-.3-2.3l.7 1 .4 2.4-.3 2.5 2.2-1.5 2.9-1.3s.8 0 1.3-1.7a20.4 20.4 0 001-5v-2.4l.3.1c.2.1 1 1.5 1 2.3l.5 3.5 1.3-1.3s1-1.3 1.3-2a7 7 0 00.6-2.3z"/><path fill="#904720" d="M402.7 176s.6.4.4 2c-.2 1.5-1.5 2.4-2.2 2.4v-2.2l-1.8-1.4-2-.6.4-.4 2.3-1 3 1.1z"/><path fill="#ab6d29" d="M401.3 176s.5.5 1.5.3c.9-.3 1.3-1.8.8-2.3-.5-.6-.3 1.4-.9 1.6-.6.2-1.2-1.5-2-1.7-.9-.1-2.1.4-2.5 1-.3.5 1.4 0 1.4 0l.8.3.7.2.2.5z"/><path fill="#904720" d="M389.2 169.9s1 .3 2.2.2 4.1-1.4 4.1-1.4 1.3-.8 2.3-1.7c1-1 4.1-2.9 4.4-6.8.4-3.8-.4-6-.4-6s4.6 5 .6 10.7c-2.6 3.7-5 4.8-5 4.8s4.5-1.3 4.9-.2c.4 1-.2 2.7-.3 3 0 0 2.5.6 2.9 1.8.2.8-2.9-.9-5.2-.3s-3.4 2-3.4 2-.4-.7-2.5-.7c-2 0-3 1-4.1.9-1.2 0-4.9-.9-5.6-1.9l2.4-2.8c1.1-2 2.7-1.6 2.7-1.6z"/><path fill="#ab6d29" d="M398.7 159.5s1.8-1.7 2.4-3c.6-1.3.7-2.4.7-2.4s.2 1.4-.9 3a17 17 0 01-2.2 2.7v-.3z"/><path fill="#904720" d="M398.2 155.6s1.5 5.7-.1 8c-1.6 2.4-8.4 5.4-8.4 5.4s5.2-2.8 6.8-6c1.6-3.2 1.5-6 1.5-6l.2-1.4z"/><path fill="#1e2121" d="M391.4 170s2.2 0 3.4-.7c1.3-.8 3-2.3 3-2.3s-1.6 1.4-2 1.4c-.5 0-1-.7-.7-1.3 0 0-.4 1-1.4 1.8-1 .8-2.3 1.2-2.3 1.2zm5.1-7s1.8-2 1.8-6c0-3.9-1.5-3.1-1.5-3.1s1.2.8 1 3.9a17.3 17.3 0 01-1.3 5.2zm2.2.4s2-.5 2.8-1.7c.7-1.3.7-3.6.7-3.6s-.2 2.2-.8 3c-.6.7-2.7 2.3-2.7 2.3zm-1.2 12.4s1-2 2.4-1.5c1.4.6 1.4 1.6 1.4 1.6s-.6-.8-1.6-.9c-1 0-2.2.8-2.2.8zm-3.9-3.6l4.9-1.3c1.8-.5 3.8-1.4 3.8-1.4s-1.5 1.9-3.7 3.1c-2.2 1.3-4 1.4-4 1.4s4.1-1.9 4.5-2.6c0 0-4 1-5.5.8z"/><path fill="#fff" d="M388.8 167.6a3.5 3.5 67.8 01-4 5.7"/><path fill="#f16e16" d="M388.6 168a3 3.1 67.8 01-3.5 5"/><path fill="#000" d="M387.3 169.6a1.2 1.2 0 11-1.2 1.9"/><path fill="#d5d3ca" d="M387.4 171.2a.4.4 0 11-.7-.1.4.4 0 01.4-.4.4.4 0 01.3.5z"/><path fill="#ab6d29" d="M389.6 165.4s2-2 2.4-4.6c.5-2.6.2-4.1.2-4.1l1.1 1.1.5 2-.7 3.3 2.2-1c.7-1 1.9-5.5 1.5-8.3 0 0 .6 1.3-.2 5-.8 3.8-1.5 4.2-4.3 5.8-1.5.8-3.3 2.3-5 5.5a24.7 24.7 0 01-3 4c-.1.1 1.4-2 2-3.5 1.2-2.3 2.3-3.6 2.3-3.6l1-1.6z"/><path fill="#904720" d="M388.6 167s1-2.7 1-4.1-1-3.1-1-3.1 1.3-.2 1.4 3c0 3-.6 3.2-1.4 4.2z"/><path d="M392.7 163.6s1-2.3.9-3.9c-.1-1.5-1.4-3-1.4-3s1.6.3 1.7 3.1c.2 2.8-.3 2.9-1.2 3.8z"/><path fill="#ab6d29" d="M383.4 174.3s-.7-1-.6-1.7c0-.7 0-1 1.8-2.8s2.8-3 3.2-4.1c.5-1 2-3.8.8-6 0 0 .8 3.2-1 5.7a20.7 20.7 0 01-4.4 4.8c-1.5 1.2-1.6 1.7-1.6 2.3 0 .6.2 1.3.5 1.4a4 4 0 001.3.3z"/><path fill="#6c4119" d="M401 180.4s.3 0 .6-.4c.3-.5.3-1.3-.4-2a4.3 4.3 0 00-2.2-1.6c-1-.3-2.7-.5-2.7-.5s.6 1 1.8 1.7c.6.3 1.5 0 2.1.5.7.6.7 2.3.7 2.3z"/><path fill="#6c4119" d="M401 180.4s2-.6 2-2.6c.2-1.2 0-1.6 0-1.6s.2.6 1 .9l.7-.3s-1.1 3.7-3.8 3.6z"/></g><g fill="#f9c83a"><path fill="#bf802d" d="M386.9 180s.4.2 1.1 1l1.1 1.2 5-1.2 1.5-1.6-1.3-2h-3.5l-3.9 2.6z"/><path stroke="#8f4620" stroke-width=".5" d="M398.7 178.4l-1-1.3s-.1-.5-.8-.8c-.7-.4-3.7-.4-3.7-.4l-2.1.4s-.6.6-1.7.4l-3.5-1.2-2.3-1s-1.8-.8-2.2-.7c-.4.1-2 1.8-2 1.8s-.2.8.4.9c.6 0-.8.2-.8.2s-3.7 2-4.3 5.7c-.6 3.6 6 9 8.5 6.3 0 0-3.6-2.7-2.9-5 .7-2.2 2.4-3.6 5.3-3.8 2.8-.1 3-.5 4.2-1.3 1.3-.9 3.6-1.4 5.3.4 1.7 1.7-6.5 3.4-6.5 3.4l.9 1.3s10-3.5 9.2-5.3z"/><path fill="#fcf3d8" d="M379.9 187s-4.1-1-3.8-4.8c.3-3.7 3.8-5 4.3-5.3.7-.1.5-2 1.2-2.3.7-.2 2 0 2.6.6.6.6 1.9 1.1 1.9 1.1s-7.3 3.2-7.4 7.4c0 2.7 1.2 3.3 1.2 3.3z"/><path fill="#fdeaaf" d="M398.7 178s-.5.3-.6 0c-.8-1.4-2.6-1.8-4-1.7-1.9 0-3.1.7-4.4.7-1.2 0-.9-.2-2.4-.3-1.4 0-4.6-2.4-5.3-2.1-.7.2-1 1-1 1.5.2.4-1.2.5-1.4.1-.2-.3 1-2.3 2.4-2.3 3.4 0 6 2.3 7.6 2.3 1.6 0 2.2-1 4.4-1 2.3 0 4.6 1 4.7 2.8z"/><path fill="#513625" d="M387.4 180.7s1.7-.4 3-.9l2.8-1s-1.5 1-2.6 1.5c-1 .5-2.7.8-2.7.8l-.5-.4z"/><path d="M381.7 189.2c-.3 0-1.8 0-4-1.5-2.3-1.5-3-4.1-3-4.1s-.5-2.5 2-5 2.7-1.8 2.8-1.7l-.1.2-2.1 1.7-1 1.8-1 1.5.1 1.9 1 1.8 3.3 2 2 1.4z"/><path fill="#8b5122" d="M380.4 175l-.1-.4v.4h.1l-.1-.4v.4-.4l-.3.3h.3v-.3l-.3.3.3-.3h-.4l.1.3.3-.3h-.4.4l-.3-.1v.1h.3l-.3-.1h.2-.2.2-.2l-.2.1-.5.7c-.1.2-.3.5-.3.8v.1c0 .3.3.6.6.7l.7.2 1-.2a.3.3 0 00.3-.4.3.3 0 00-.4-.3l-.9.2a1 1 0 01-.5-.1v-.5a4 4 0 01.7-.8v-.2h.1v-.2a.3.3 0 00-.3-.3h-.2a.3.3 0 00-.1.5c0 .1.2.2.4.1z"/><path d="M387.4 178.4l-5 1.5c-.4.3 1.5 0 3 0 1-.1 1.8.1 1.8.1s.6 0 1.2-.2c1.8-.8 5.8-2.2 6.2-.5.3 1.5-5.5 2.7-5.5 2.7v.6l4.6-1.2 2.4-1.2.7-1.2-2.3-1.7h-3.3l-1.6.4-2.2.7z"/><path fill="#8f4620" d="M380.2 185.5c.4 1 1.2 2.5 2.1 3h.1s-.7.6-2.3.2c-1.6-.4-4-1-5.4-5.4v1l1 1.7 1.4 1.6 2.4 1.5 1.7.4 1.4-.4.6-.5-1.4-1.3-1.8-3s0 .5.2 1.2z"/></g><g fill="#816c2a"><path fill="#fcca3d" d="M396.5 229v1.6l-1-.1.2-2zm-6.1-45.2l-1.6-1.8-1.1.1 1.6 2.3z"/><path d="M396.4 232.7l-2.2-1.2c-1.3-.6-3.1-.9-3.1-.9l-.1.4h.3c.6.2 1.8.4 2.7.8a18.7 18.7 0 012 1.1l.2.1.2-.3zm-.1-4l-1.9-.1-1.8.1c-1 .3-1.8.9-1.8.9l.2.3a5 5 0 013.4-.9 29.7 29.7 0 011.8 0v-.3zm-.5-3.5s-2.3 1-3.3 1.7l-2.1 1.6.2.3.7-.5 1.4-1a48.9 48.9 0 013.3-1.8l-.2-.3zm-2.2-3.6s0 1-.4 1.6l-.8 1-2.1 2.2-1.2 1.3.3.3 1.9-2 1.4-1.6.9-1c.4-.8.4-1.7.4-1.8h-.4zm-2.8-1.6l.1 1c0 .6 0 1.3-.3 2a27 27 0 01-1.3 2.8l-.6 1.1-.2.5.3.2s1.6-2.9 2.2-4.5a6 6 0 00.2-3.2h-.4zm-2.7-.3a11.6 11.6 0 000 1.5 7.4 7.4 0 01-.3 2.3 144.6 144.6 0 01-1.3 3.6l.4.2 1.3-3.7c.3-.7.3-1.6.4-2.4l-.1-1.6h-.4zm-2.1 0v1.5c-.1.9-.2 2-.4 2.6l-.6 3.2.4.1.2-1.1.4-2.1c.4-1.4.4-4.2.4-4.2h-.4zm-2.3.3v2.1a7.2 7.2 0 010 1.7c-.4 1.2-.6 3.2-.6 3.2h.4a30.3 30.3 0 01.5-3.1 7.4 7.4 0 00.2-1.8l-.1-2.1h-.4zm-1.8.3v.2c0 .5 0 1.7-.4 2.9l-.7 2.5-.4 1.3.4.1 1.1-3.8c.4-1.3.4-2.5.4-3v-.3h-.4zm-2 0a10.3 10.3 0 000 .9 6 6 0 01-.5 2.7 7.2 7.2 0 01-1.8 2l-.9.6-.3.2.2.4s2.2-1.3 3.1-3a6.3 6.3 0 00.7-3l-.1-.9h-.4zm-1.2-.4l-.1.3a8.8 8.8 0 01-1.3 2.4 8.7 8.7 0 01-1.7 1.5l-.7.5-.3.2.2.3s2-1 2.8-2.2a9.5 9.5 0 001.4-2.9l-.3-.1zm-2-1l-.1.2-.5.9a4 4 0 01-.6.8l-1.3.8-.8.5.2.4.8-.5c.5-.3 1-.6 1.3-1 .4-.2.7-.7 1-1.1l.4-.8-.4-.2zm-1-1.2l-.3.4-1.2 1.3a8.5 8.5 0 01-.7.6l-.5.3.1.4 1-.6 2-2.1-.3-.3zm-.4-.8l-.3.2-1.1.8-1.1.5v.4l.8-.3c1-.4 2-1.3 2-1.3l-.3-.3zm-.4-1l-1 .6-.7.4a3 3 0 01-.6.2v.4l.7-.2c.8-.3 1.8-1 1.8-1l-.2-.3zm-.4-1.7l-.7.6a2.1 2.1 0 01-1.2.5v.4a2.7 2.7 0 001.5-.6l.7-.7-.3-.2zm.1-2.9l-.7.7a4 4 0 00-1 1.3l-.1.1h-.1v.5l.3-.2.2-.3a4 4 0 011-1.1l.5-.5.2-.2-.2-.3zm14-16.8h2.2v-.4h-.1v.3-.1.1-.1.1-.2.2-.2.2-.2l-.1.2v-.2.2-.2.2-.2.2h-.1l.1-.2h-.2v.1h.3-.2v-.2l.1.1v-.2.2-.2.1h-2v.3zm.1-1.2h.2l.9-.3 1.2-.8.6-.4.4-.1v-.4c-.2 0-.5 0-.8.3l-1.2.8-1.1.5h-.1v.4zm-.1-2c.3 0 .6-.2 1-.4l1.5-1a3 3 0 011.2-.5v-.4l-.9.3-1.6 1a3.9 3.9 0 01-1.3.6v.4zm-.8-1.8l2-1.4 2.1-1.6-.2-.3-2.1 1.5c-.8.6-1.5 1.2-2 1.4l.2.4zm-1.3-2.1l4.2-3-.2-.3-4.3 3 .3.3zm-1.9-2l2.4-1.7 2-1.3-.2-.4-2 1.3a24.4 24.4 0 00-2.4 1.8l.2.3zm-1.4-1.3a173.4 173.4 0 013.5-2.4l1-.7-.2-.3c-.2 0-.5.3-1 .6l-3.5 2.5.2.3z"/><path fill="#78732e" d="M386.5 180l.2.3c.6.4 2 1.7 3.3 3.2a9.3 9.3 0 012.3 5.5v.5c-.3 2.5-1.5 4.7-3.3 6.7-2.5 3-6.2 5.7-9.2 8.3a23.7 23.7 0 00-3.9 4.1 8 8 0 00-1.6 4.6v.2c0 1.5.6 3.1 1.5 4.5a5.7 5.7 0 005 2.5c2.4 0 5-.7 7.5-.7 2 0 4 .5 5.7 2.4 1.7 1.8 2.2 4.7 2.2 7.6a31.9 31.9 0 01-.8 7.1l-.2.7h.4s1-3.7 1-7.8c0-3-.5-6-2.3-7.9a7.7 7.7 0 00-6-2.5c-2.6 0-5.1.7-7.4.7h-.9c-1.7-.2-3-1.1-3.9-2.4a8 8 0 01-1.4-4.2v-.2c0-2 1-3.9 2.6-5.7 2.4-2.7 6-5.3 9.1-8 3.2-3 5.9-6 6.3-10v-.5c0-2.4-1.5-4.7-3-6.4a22.6 22.6 0 00-3-2.8l-.2.3z"/><path fill="#a8ac71" d="M383.4 184.1l-.5-.4-.4.1.8.7zm1.3 1.3l-.4-.4h-.2l.3.5z"/><path fill="#78732e" d="M386.5 187.4l-.3-.4-.2.2.4.4zm1.4 2l-.2-.4-.4.1.5.5zm.8 2l-.2-.6v.5zm0 2l.1-.6-.2-.1v.7zm0 1.2v-.6l-.1-.1v.8zm-16 19.4l.2-1c.2-.4-.3.2-.3.2l-.1.6.3.2z"/><path fill="#fff" d="M372.6 215.2l-.2.1v.6l.2-.2v-.5z"/><path fill="#78732e" d="M372.7 217.5v-.6h-.2v.9z"/><path fill="#fff" d="M372.8 218.8v-.5h-.2v.5zm.4 1.9l-.1-.5h-.1v.6zm.5 1.9l-.2-.7h-.2l.2.7z"/><path fill="#a8ac71" d="M375 225.1l-.4-.4h-.2l.3.5zm1.8 1.9l-.6-.5c-.4-.2-.2.3-.2.3l.6.3.2-.1zm12.8 1l-.5-.3c-.2-.1.1 0 .3.4.2.4.2-.1.2-.1z"/><path fill="#fff" d="M390.7 228.8l-.4-.4c-.1 0 0 .4 0 .4h.4z"/><path fill="#a8ac71" d="M391 229.4c-.2-.2-.3.2-.3.2l.4.4s0-.4-.2-.6zm0 1.7v-.6c0-.2-.1.1-.1.1v.5h.1z"/><path fill="#fff" d="M390.4 233l.1-.5h-.2v.5zm-19.5-68.3s.7-.2.1.6l.4-.7-.3-.1-.2.2z"/></g><path fill="#f9c83a" d="M386.7 179.6l.4.4-.6-.1.2-.3z"/><path fill="#8f4620" d="M387.1 180l-.8.2c-.3 0 .2-.3.2-.3l.6.1z"/><path fill="#977c2e" d="M395 237.5s.5-.1.7-.4c.3-.3-.1.5-.1.5l-.3.1-.3-.2z"/></svg>