<svg xmlns="http://www.w3.org/2000/svg" xmlns:xlink="http://www.w3.org/1999/xlink" viewBox="0 0 1000 600"><defs><linearGradient id="e" gradientUnits="userSpaceOnUse" x1="498.7" y1="289.1" x2="500.6" y2="283.4"><stop stop-color="#510000" offset="0"/><stop stop-color="#8a0000" offset=".3"/><stop stop-color="#a00" offset="1"/></linearGradient><linearGradient id="f" gradientUnits="userSpaceOnUse" x1="501.4" y1="291.4" x2="502.9" y2="287.4"><stop stop-color="#ff2a2a" offset="0"/><stop stop-color="red" offset="1"/></linearGradient><linearGradient id="j" gradientUnits="userSpaceOnUse" x1="484.8" y1="311.7" x2="484.8" y2="317.6"><stop stop-color="#F5F549" offset="0"/><stop stop-color="#97C924" offset="1"/></linearGradient><linearGradient id="a"><stop stop-color="#025" offset="0"/><stop stop-color="#04a" offset=".5"/><stop stop-color="#025" offset="1"/></linearGradient><linearGradient id="g" xlink:href="#a" gradientUnits="userSpaceOnUse" x1="444.5" y1="317.5" x2="634.4" y2="317.5"/><clipPath id="b"><path d="M500 226.4l-63.7 110.3h127.4z"/></clipPath></defs><path fill="#0067C6" d="M0 0h1000v600H0z"/><path fill="#fff" d="M0 200h1000v200H0z"/><path d="M410 299.3l10 .7v-1.5l-3.8-.2.3-4.8 4.1-3 .1-1.9-4.3 3.2c-.2-1-.8-2.1-1.8-2.5-1-.3-2-.4-2.8.3-1 .7-1.2 2-1.3 3.2l-.5 6.5zm1.5-1.3l.4-5c0-.8.2-1.7 1-2.2.6-.4 1.5-.1 1.8.6.5 1.3.3 2.6.2 4l-.2 2.8-3.2-.2zm-.2-14l9.7 2.3 2.3-9.5-1.4-.3-2 8-2.9-.7 1.7-7.2-1.4-.3c-.5 2.4-1 4.8-1.7 7.2l-2.6-.6 1.8-7.7-1.4-.4-2.1 9.2zm3.5-13l9.5 3.2.4-1.4-3.7-1.3 1.5-4.2c.3-1.2.5-2.6-.1-3.7a3 3 0 00-2.6-1.3c-1 0-2 .9-2.5 1.8-.7 1.3-1 2.8-1.6 4.2l-.9 2.6zm1.8-1l1.5-4.2c.4-.8.8-1.7 1.7-2 .7 0 1.4.5 1.5 1.2.1 1.3-.4 2.6-.8 3.8l-.8 2.3-3-1zm3.4-11.2l5.4 3.1c1 .6 2.3.9 3.3.3a8 8 0 003-3.7c.6-1.2 1-2.7.3-4-.8-1.2-2.1-1.8-3.3-2.5l-3.5-2-.7 1.2 5 3c.9.5 1.5 1.4 1.4 2.4a7.4 7.4 0 01-1.5 3.1c-.6.8-1.5 1.4-2.5 1.2-1-.2-1.8-.8-2.7-1.3l-3.4-2-.8 1.2zm7.2-11.8l8 6.1 3.7-4.8c.7-1 1.3-2.3.9-3.6a3 3 0 00-2.6-1.8c-.5 0-1.2.3-1.4.5.3-1.1-.6-2.1-1.6-2.4-1.2-.4-2.4.4-3.2 1.2l-2.5 3.2-1.3 1.7zm2-.2l2.8-3.6c.5-.5 1.2-1 2-.7.5.3.7 1 .4 1.6-.5 1-1.3 2-2 2.9l-1 1.4-2.2-1.6zm3.3 2.4c1-1.2 1.8-2.5 2.9-3.7.5-.5 1.1-1.2 2-1 .7.1 1.2.9 1 1.6-.5 1.3-1.4 2.3-2.2 3.4l-1.3 1.6-2.4-1.9zm3.7-12.7l6.9 7.2 5.9-5.5-1-1-4.7 4.4h-.2l-5.8-6.1zm8.8-7.7l6.1 7.9 1.2-1-6-7.9zm9-6.1c-1 .6-1.8 1.3-2.4 2.1-.6.9-1 1.8-1 2.7 0 .9.2 1.8.7 2.6.5.8 1.2 1.4 2 1.9.8.4 1.7.6 2.7.5 1-.1 2-.6 3.3-1.3 1.1-.8 2-1.6 2.5-2.6.4-.9.6-1.9.4-2.9l-1.4.5c.4 2-1 3-2.4 4-2.2 1.3-4.4 1.2-5.8-.9-1.4-2.3.1-4.2 2-5.5 1.4-.8 2.8-1.4 4-.6l1.1-1a4 4 0 00-2.5-.7c-1 .1-2 .5-3.2 1.2zm11.8-5.9l-1 11.2 1.5-.6.3-3.5 5.1-2 2.6 2.2 1.6-.6-8.5-7.4-1.6.7zm1.4 1.1l3.3 2.9-3.7 1.5.4-4.4zm20.5-7.3l.7 10 5.4-.4c1.4-.1 2.9-.5 3.9-1.6 1.2-1.4 1.4-3.5.9-5.2a4.4 4.4 0 00-3.4-3c-1.5-.3-3.1 0-4.6 0l-2.9.2zm1.6 1.3l4.3-.2c.8 0 1.6.2 2.3.7 1 .7 1.6 2 1.4 3.1 0 1.4-1 2.7-2.4 3l-2.4.4-2.8.2-.4-7.2zm12.4-1.9l-.6 10 9.7.5v-1.4l-8.2-.5.2-3 7.4.4.1-1.4-7.4-.4.1-2.7 8 .5v-1.5l-9.3-.5zm26.1 4.2l-3.6 9.3 1.2.5 3-7.4v-.4l.2.4 3.5 10 1.7.6 3.6-9.3-1.3-.5-2.9 7.4-.1.4-.2-.5-3.4-9.9zm13.4 5.8l-4.5 8.8-1.4-.6 4.6-9zm7.6 4.4c-1-.7-2-1.1-3-1.3a4.5 4.5 0 00-4.9 2c-.5.7-.8 1.6-.9 2.5 0 1 .2 1.8.7 2.7a8 8 0 002.5 2.4c1.2.7 2.3 1.1 3.4 1.2 1 0 2-.2 2.8-.8l-1-1c-1.7 1-3.1.3-4.6-.6-2.2-1.5-3-3.5-1.7-5.6 1.6-2.3 4-1.7 5.9-.4 1.3.8 2.4 1.8 2.2 3.3l1.3.6a4 4 0 00-.4-2.6 6.8 6.8 0 00-2.3-2.4zm9.5 7.1l-10.5 4.2 1.3 1.1 3.2-1.3 4.1 3.6-.8 3.4 1.3 1 2.6-10.9-1.2-1zm-.4 1.8l-1 4.2-3.1-2.6 4-1.6zm7.9 5.2l-7.7 6.3 1 1.2 3-2.5 3 3.7-.9 5 1.2 1.5 1-5.4c.8.7 2.1 1 3.1.5 1-.4 1.7-1.2 1.8-2.2 0-1.4-1-2.5-1.7-3.5l-3.8-4.6zm-.1 2l3.2 4c.5.7 1 1.7.5 2.5-.4.8-1.4.7-2 .2-1.2-.8-2-2-3-3.2l-1.2-1.4 2.5-2zm11.8 13.9l-11.2.5.8 1.5 3.5-.2 2.7 4.7-1.9 3 .9 1.4 6-9.4-.8-1.5zm-1 1.5l-2.3 3.7-2-3.5 4.4-.2zm7.5 11.7c-.7-1.7-1.7-3.4-3.3-4.2-1.9-1-4.4-.5-5.7 1.1-1.1 1.4-1.2 3.3-.9 5 .4 1.9 1.3 3.7 2.6 5.1l-.8.3.5 1.3 4.7-1.6-1.8-5c-.4 0-.7.2-1.1.3l1.3 3.7-1.6.6a8.7 8.7 0 01-2.5-4.8c-.3-1.3-.4-2.9.7-4s3.2-1.5 4.5-.5c1.4 1 2.2 2.7 2.6 4.3.2 1 .2 2.3-.6 3.1-.2.2.1.4.2.6l.4.7c.8-.7 1.3-1.8 1.3-2.8 0-1.1-.2-2.2-.6-3.2zm2.8 7.8l-5.6 1.1c-1 .2-1.8.6-2.3 1-.5.4-.9 1-1 1.9a8 8 0 000 3 8 8 0 001.1 2.8c.5.7 1 1.2 1.7 1.4.6.2 1.4.2 2.5 0l5.6-1-.3-1.5-5.5 1c-2.4.5-3.2-.7-3.7-3-.4-2.2-.1-3.7 2.3-4.2l5.5-1-.3-1.5zm3.1 17.1l-10.4-4.5.2 1.7 3.2 1.4.4 5.4-3 1.8.1 1.7 9.6-5.9-.1-1.6zm-1.5 1l-3.8 2.2-.3-4 4 1.7zm-170.7 24.8l-1.4.4 1.6 6.1 1.4-.4zm164.5 0l1.5.4-1.6 6-1.5-.3zm-149 25.7l-11.2 1.3 1 1.4 3.4-.4 3 4.5-1.6 3 1 1.4 5.4-9.8-1-1.4zm-.8 1.6l-2.2 3.8-2.2-3.3 4.4-.5zm5.1 4.5l-7.1 6.7 1 1 6-5.6-3.2 8.6 1 1.2 8.7-2.6-6 5.5 1 1 7.2-6.6-1.5-1.6-8.7 2.6 3.2-8.4zm10.4 10.6l-6 8 7.7 5.8.9-1.1-6.6-5 1.8-2.4 6 4.5.8-1.2-6-4.4 1.7-2.2 6.3 4.8 1-1.1-7.6-5.7zm9.8 7.2l-4.7 8.8 1.2.7 1.9-3.5 4.3 2.2 1 5 1.6 1-1-5.4c1 .4 2.3.2 3-.7.7-.7 1.1-1.7.8-2.6-.4-1.3-1.6-2-2.7-2.7l-5.4-2.9zm.6 1.9l4.5 2.5c.7.4 1.6 1 1.5 2-.1.8-1 1.2-1.7 1-1.5-.2-2.7-1-4-1.7l-1.8-1 1.5-2.8zm10.7 4l-3.8 9.2 1.4.6 3.7-9.3zm9 3.1a8.4 8.4 0 00-3.2-.5c-1 0-2 .4-2.7 1-.7.5-1.2 1.2-1.6 2.2-.2.9-.3 1.8-.1 2.7.2.9.6 1.7 1.3 2.4a8 8 0 003.1 1.7c1.3.4 2.5.5 3.5.3s1.9-.8 2.6-1.6l-1.3-.7c-1.3 1.5-2.9 1.2-4.5.6-2.5-.8-3.9-2.6-3.1-5 .9-2.5 3.3-2.6 5.5-1.9 1.5.5 2.8 1.2 3 2.7l1.5.2a4 4 0 00-1.1-2.4 6.8 6.8 0 00-3-1.7zm10 2.2l-6.5 9.2 1.7.2 2-2.8 5.4.8 1.1 3.3 1.7.2-3.7-10.6-1.7-.3zm.6 1.7l1.5 4.2-4-.6 2.5-3.6zm22.9-1.6c-1.2.2-2.2.6-3 1.2-1 .5-1.5 1.2-2 2-.3.9-.4 1.8-.2 2.8.2 1 .6 1.7 1.2 2.4s1.4 1.2 2.3 1.5a8 8 0 003.5 0c1.4-.3 2.5-.8 3.3-1.5.8-.7 1.2-1.6 1.4-2.6h-1.5c-.3 2-1.9 2.4-3.6 2.7-2.6.5-4.6-.4-5.1-2.8-.5-2.7 1.6-4 3.9-4.4 1.6-.3 3-.4 4 .9l1.3-.5a4 4 0 00-2.1-1.6c-1-.3-2.1-.4-3.4-.1zm6.6-1.2l2.9 9.6 9.3-2.8-.4-1.3-8 2.3-.8-2.9 7.2-2.1-.4-1.4-7.2 2.1-.8-2.5 7.7-2.3-.4-1.4-9 2.7zm10.9-3.4l4.2 9 1.2-.5-3.5-7.6 9.7 4.5c.2.2.4 0 .6 0l1.3-.6-4.2-9.1-1.2.6 3.4 7.5-9.9-4.5-1.6.7zm11-5.1l.7 1.1 3.6-2.3.1-.1.1.1 4.7 7 1.2-.7-4.7-7v-.2l3.7-2.4-.8-1.2zm10-6.9l6.8 7.3 1-1-2.6-2.9 3.5-3.2 5.1.6 1.4-1.2-5.4-.7c.7-1 1-2.2.3-3.2-.4-.9-1.3-1.6-2.3-1.6-1.4 0-2.5 1-3.4 1.8l-4.4 4zm2 0l3.9-3.4c.6-.6 1.6-1.2 2.5-.7.7.4.7 1.4.3 2-.8 1.3-2 2.2-3 3.2l-1.5 1.3-2.2-2.4zm9.6-11.6l4.5 10.2 1-1.3-1.3-3.2 3.4-4.2 3.5.8 1-1.3-11-2.4-1 1.3zm1.8.3l4.3.9-2.5 3.1-1.8-4zm2.6-6l8.4 5.4 4.4-6.8-1.2-.8-3.5 5.5-.1.1h-.1l-7.1-4.7z" fill="#c8a400"/><g clip-path="url(#b)"><path fill="#fff" d="M500 226.4L468.5 281l-15.4 26.7h93.8l-14.7-25.4-32.2-55.8z"/><g id="d"><g id="c"><path fill="#17c0eb" stroke="#17c0eb" stroke-width=".1" opacity=".6" d="M500 226.4l-2.4 4 2.4 55 2.4-55z"/><path fill="#fff" d="M500 277.5h-.1l.1 3 .1-3h-.1z"/></g><use xlink:href="#c" transform="rotate(72 500 285.5)"/><use xlink:href="#c" transform="rotate(144 500 285.5)"/><use xlink:href="#c" transform="rotate(216 500 285.5)"/><use xlink:href="#c" transform="rotate(288 500 285.5)"/></g><use xlink:href="#d" transform="rotate(8 500 285.5)"/><use xlink:href="#d" transform="rotate(16 500 285.5)"/><use xlink:href="#d" transform="rotate(24 500 285.5)"/><use xlink:href="#d" transform="rotate(32 500 285.5)"/><use xlink:href="#d" transform="rotate(40 500 285.5)"/><use xlink:href="#d" transform="rotate(48 500 285.5)"/><use xlink:href="#d" transform="rotate(56 500 285.5)"/><use xlink:href="#d" transform="rotate(64 500 285.5)"/><path fill="red" d="M500 265.8c-11 0-21.2 4.1-29 10.8L456.4 302c-.5 2.7-.8 5.4-.8 8.3h5a39.3 39.3 0 0178.7 0h5c0-2.9-.2-5.6-.7-8.3L529 276.6a44.2 44.2 0 00-29-10.8z"/><path fill="#f60" d="M500 266.7a43.5 43.5 0 00-30.3 12.2l-12 20.9c-.8 3.3-1.3 6.8-1.3 10.4h4.3a39.3 39.3 0 0178.6 0h4.3c0-3.6-.5-7.1-1.3-10.5l-12-20.8a43.5 43.5 0 00-30.3-12.2z"/><path fill="#ff0" d="M500 267.5a42.6 42.6 0 00-32 14.3l-8.7 15a42.7 42.7 0 00-2 13.5h3.4a39.3 39.3 0 0178.6 0h3.5c0-4.7-.8-9.2-2.1-13.4l-8.8-15.1a42.7 42.7 0 00-31.9-14.3z"/><path fill="#0f0" d="M500 268.3a42 42 0 00-35 18.6l-2.7 4.9a41.8 41.8 0 00-4.3 18.5h2.7a39.3 39.3 0 0178.6 0h2.7c0-6.7-1.6-13-4.3-18.5l-2.8-5a42 42 0 00-34.9-18.5z"/><path fill="#0cf" d="M500 269a41.2 41.2 0 00-41.2 41.2h1.9a39.3 39.3 0 0178.6 0h1.9a41.2 41.2 0 00-41.2-41.1z"/><path fill="#00f" d="M500 269.8a40.4 40.4 0 00-40.4 40.5h1.4a39 39 0 1178 0h1.4a40.4 40.4 0 00-40.4-40.5z"/><path fill="purple" d="M500 270.7a39.6 39.6 0 00-39.6 40.3h.8v-.8a38.8 38.8 0 1177.6.8h.8v-.8a39.6 39.6 0 00-39.6-39.5z"/><path fill="#510000" d="M500.4 288.1c-.6 0-1.2-.4-1.8-.6-.7.7-.8 1.5-.7 2.1.3.1.3.4.9.9s.5.7.4 2c0 .4.1 1.5.6 1.6.6.1 1-.3 1.1-1.1.2-.8.4-1.3.7-1.8.3-1.8-.2-2.5-1.2-3z"/><path fill="red" d="M497.2 283.5c-.6 0-1.6 1-2 .5-.2-.3-.3-.9 0-1.4a4.8 4.8 0 012.2-2.3c2.3-1.4 3.8-1 5 1a13 13 0 012.3 5.4c0 .5.3 1.4-.2 1.9-1.3 1.4-4.6-1.5-6.5-1-.6.1-1.4.6-2 .2-.4-.3 0-1 .3-1.3.6-.5 1.5-2.4 1.4-3.2 0-.4 0 .2-.5.2z"/><path fill="url(#e)" d="M497 282.5c-1.2.5-1 1.1-1.6 1.6.2.1.8.3 1.4-.3.2-.2.5-.3.7-.3l-.7.7c-.4.3-1 1-1.4 1.8-.3.8-.4 1.7-.3 1.8 0 .1.4.8 1.5 1.2 2 .8 2.4 2.5 4.5 2.5 1.6 0 1.4-1.1 2.6-.9 1.2.2 1.8-.7.7-1.2a14 14 0 00-5.4 0c-.4-4 0-2.6-.1-4.4-.1-1.7-.7-1.8 0-3.3-.5 1-1.2.8-2 .8z"/><path fill="#ff2a2a" d="M501 279.8l-.1.6.3 1 .2 1c0 .3.4.4.7.6.4.3 0 1 .3 1.1.2 0 .5-1 .5-1.2v-.7l-.5-.9a3.7 3.7 0 00-1-1.2l-.3-.2-.2-.1z"/><path fill="url(#f)" d="M501.2 287.4l-2-.7c-1.2-.4-2.5-1.2-3.4-.8-.3.1-.2.4-.3.9 0 .5-.6 1.3-.2 1 .7-.4 2.5.8 3.1 1.1.3.2 1 .6 1.1 1 .2.6 0 1.8 0 2.4 0 .5.2 1.8.7 2 .6.1 1.1-.4 1.3-1.3.3-.9.4-1.4.8-1.9s.8-.8 1.3-.9c.6 0 1.4.5 1.4-.2 0-.4-.4-.8-.2-1.4.1-.5-.4-.4-.9-.6l-2.7-.6z"/><path fill="#910000" d="M498.4 288.9c-.4-.2-2.4-1.5-3-1-.3 0-.4 0-.4-.3l.2-.9c0-.3.2-.8.5-1 .7-.6 2.3.5 3.1.8l-.4 2.4z"/><path fill="#ff3a3a" d="M501.8 291.4c.9-1.6 1.5-1.4 2.6-1.4.3 0 .5-.3.4-.7-.3.6-1.7 0-2.4.3-1.6.7-1.3 3.8-2 4 .7.7 1-1.7 1.4-2.2z"/><g fill="url(#g)"><path fill="#fff" d="M453.1 307.6l-10 17.3H557l-10-17.3h-93.8z"/><g id="i"><path id="h" d="M449.7 321.4a38 38 0 00-4.7.3l-.5.9c2.4-.3 4.7-.7 7.1-.7 3.3 0 6.3.8 9.8.8h4.6c3.5 0 6.4-.8 9.7-.8 3.3 0 6.3.8 9.8.8h4.6c3.5 0 6.5-.8 9.7-.8 3.3 0 6.3.8 9.8.8h4.6c3.5 0 6.4-.8 9.7-.8 3.3 0 6.3.8 9.8.8h4.6c3.5 0 6.4-.8 9.7-.8 2.6 0 5 .5 7.5.7l-.5-1a36 36 0 00-4.4-.2h-4.5c-3.5 0-6.5.7-9.8.8-3.3 0-6.3-.8-9.8-.8H522c-3.5 0-6.5.7-9.8.8-3.3 0-6.3-.8-9.8-.8H498c-3.5 0-6.5.7-9.8.8-3.3 0-6.3-.8-9.8-.8h-4.5c-3.5 0-6.5.7-9.8.8-3.3 0-6.2-.8-9.7-.8h-4.6z"/><use xlink:href="#h" y="-1.1"/><use xlink:href="#h" y="-2.2"/></g><use xlink:href="#i" y="-3.3"/><use xlink:href="#i" y="-6.7"/><path d="M453.2 307.5v.2h93.7l-.1-.2h-93.6zm-.2.3l-.1.3H547l-.1-.3h-94zm-.2.4l-.2.3h94.8l-.2-.3h-94.4zm-.3.5l-.3.5h95.6l-.3-.5h-95zm-.4.7l-.3.5h96.4l-.3-.5h-95.8zm-.4.7l-.3.4h97.2l-.3-.4h-96.6zm-.4.7l-.3.4h98l-.3-.4h-97.4zm-.4.8l-.3.5h98.8l-.3-.5H451zm6.5.7c3.4.6 3.7 0 3.7 0zm81.5 0s.3.6 3.7 0z"/></g><g fill="#ccd11e"><g id="k"><path fill="url(#j)" d="M530.6 297c-1.7 0-2.2 1-2.2 1-2.7 10.5-11.8 21.2-22.6 21.2h-8V330h61.4l-6.2-11c-9.7-1.4-17.6-11.3-20.1-21 0 0-.6-1-2.3-1z"/><path fill="#97c924" d="M530.6 297.5c-.8 0-1.2.1-1.5.3l-.3.3a33.6 33.6 0 01-8.4 14.7c-4 4.1-9 6.9-14.6 6.9h-7.7v9.9H559l-5.7-10c-4.7-.7-9-3.2-12.4-6.8-4-4-7-9.4-8.4-14.7l-.3-.3c-.3-.1-.8-.3-1.6-.3z"/><path fill="#ede71f" d="M530.6 297.5h.4v10.8c0 2.3-.8 4.2-2 6.4-.5 1.6-1 1-2.3 2.9a39 39 0 01-16 1.4c3.6-1.1 7-3.3 9.7-6.2a30.6 30.6 0 006.2-8.7 33.9 33.9 0 002.2-6l.3-.3.6-.2 1-.1z"/><path fill="#c6cb24" d="M530 298.9c-.5 6-2.3 13.2-6.7 17.8-1.6 1.3-3.7 2.6-5.7 2.3 6.8-5.5 11-14 12.3-20.1z"/><path fill="#9ecb34" d="M524.5 309.3a31 31 0 01-8.8 10h-2.9c2.5-.2 8.3-5 11.7-10z"/></g><use xlink:href="#k" x="-15.3"/><g fill="#c6cb24"><path fill="url(#j)" d="M502.2 298c2.8 10.5 11.8 21.2 22.6 21.2h8V330h-65.7v-10.8h8c10.8 0 19.9-10.7 22.6-21.3 0 0 .6-.9 2.3-.9s2.2 1 2.2 1z"/><path fill="#97c924" d="M500 297.5c.8 0 1.2.2 1.5.3l.4.3a33.6 33.6 0 008.3 14.7c4 4.1 9 6.9 14.6 6.9h7.7v9.9h-65v-10h7.7c5.5 0 10.6-2.7 14.6-6.8 4-4 6.9-9.4 8.3-14.7l.3-.3c.3-.2.8-.3 1.6-.3z"/><path fill="#ede71f" d="M499.3 297.5h-.3l-.6.3-.3.3a31.7 31.7 0 01-8.3 14.7 23 23 0 01-9.8 6.1c2.8.7 4 0 6.5-.4 2-.3 4.2-.6 6-1.2 1.4-2 1-1.3 1.5-2.9 1.2-2.2 3-4.2 3.4-6.7 1.6-3 1.9-8.6 1.9-10.2z"/><path d="M499.3 298.9c-.4 6-2.3 13.2-6.7 17.8-1.6 1.3-3.6 2.6-5.6 2.3 6.8-5.5 10.9-14 12.3-20.1z"/><path fill="#9ecb34" d="M493.8 309.3a31 31 0 01-8.8 10h-2.8c2.5-.2 8.2-5 11.6-10z"/><path fill="#ede71f" d="M501 297.6l.5.2.4.3a31.7 31.7 0 008.3 14.7 24 24 0 009.8 6.5c-7.3 0-10.4-.6-13-4a18.7 18.7 0 01-4.2-7c-.5-2-2-6.5-1.8-10.7z"/><path d="M501.5 298.9c.4 6 2.2 12 6.6 16.6 1.6 1.4 3.6 2.6 5.6 2.3a31 31 0 01-12.2-18.9z"/></g><g id="l"><path fill="url(#j)" d="M484.7 297c-1.7 0-2.2 1-2.2 1-2.5 9.7-11.8 22.2-21.5 23.7l-4.8 8.3h49v-11.3c-8.8-2.4-15.9-11.7-18.2-20.8 0 0-.5-.9-2.3-.9z"/><path fill="#97c924" d="M484.7 297.5c-.7 0-1.2.2-1.5.3a1 1 0 00-.3.3 43.3 43.3 0 01-8.1 15c-3.4 4.3-9.7 8.6-14 9l-4.3 7.5h48v-10.7c-3.5-1.1-6.8-3.3-9.5-6-4-4.1-7-9.5-8.4-14.8l-.3-.3c-.3-.2-.8-.3-1.6-.3z"/><path fill="#93bc30" d="M483.4 298.9c-.6 9-5.6 20.5-11.3 22.4-1.8.7-5 .9-6.2 1a36 36 0 0017.5-23.4z"/><path fill="#ede71f" d="M484.7 297.5h-.4v10.8c0 2.3.9 4.2 2 6.4l.3.5c.4 1.1.7 1.5 2.2 2.7 5 3.8 11.2 4.3 14.8 4-1-.9-2.3-1.7-3.4-2.4a26 26 0 004.5-.5 23 23 0 01-11.7-8.5 35 35 0 01-5.8-10.4l-.6-2-.3-.3-.6-.2-1-.1z"/><path d="M485.4 298.9c.5 6 2.3 13.2 6.7 17.8 1.6 1.3 3.6 2.6 5.6 2.3a38.4 38.4 0 01-12.3-20.1z"/><path fill="#9ecb34" d="M489.6 307.2a35 35 0 0014.6 15h2.5c-4.4-2.4-11.5-5.8-17-15z"/></g><use xlink:href="#l" x="-15.4" fill="#c6cb24"/></g><path fill="#fff" d="M556.5 324.7c-.6.2-4.4-.2-6.4 0l-1.3.3h-3.3c-3.6 0-6.7 1-10.1 1-3.5 0-6.5-1-10-1H522c-3.6 0-6.7 1-10.1 1-3.4 0-6.5-1-10-1h-3.4c-3.6 0-6.7 1-10 1-3.5 0-6.5-1-10.1-1H475c-3.6 0-6.6 1-10 1-3.5 0-6.5-1-10.1-1h-3.4c-2.8 0-6.2.6-8.9.8l-6.3 10.9h127.4z"/><path fill="url(#a)" d="M548 323.1h-.6c-3.2.1-5.6 1.1-11.2 1.1s-6.2-1-12.6-.8c-6 0-8.4 1.2-11.7 1.2-3.2 0-8.4-.7-12.5-.3-4 .4-8.8 1.3-12 1.3-3.8 0-7.8-.7-11.8-.3-4.1.4-6 1.5-11.1 1.4-4.4 0-9-.6-12.8-.6-3.4 0-7.2 1-10 1.4l-.9 1.5c2.3-.3 8.6-1.3 10.8-1.3 2.4 0 10.7.5 15.4.3 4.6-.2 5.1-1.2 10.6-1.2 3.8 0 6.6.4 10.5.4 2.5 0 4.7-1.2 8.4-1.2l2.8-.1c3-.5 8.4 0 12 .2 3.3.2 5.5-.6 9-.7l4.4-.1c3.5-.2 6.4.6 9.7.6 3.2-.2 6.4-1 9.8-1l4.5-.2c2.3 0 5.9 0 8.3.5l-.8-1.5c-2.4 0-5.3-.6-8.2-.6z"/><g id="n"><path id="m" fill="url(#a)" d="M450.3 334.7c-3.4 0-6.4.9-9.6 1a32 32 0 01-3.6-.4l-.5.9h6c3.5 0 6.4-.8 9.6-.9 3.3.1 6.2 1 9.7 1h4.5c3.4 0 6.4-.9 9.6-1 3.3.1 6.3 1 9.7 1h4.5c3.5 0 6.4-.9 9.6-1 3.3.1 6.2 1 9.7 1h4.5c3.4 0 6.4-.9 9.7-1 3.2.1 6.2 1 9.6 1h4.5c3.4 0 6.4-.9 9.6-1 3.3.1 6.3 1 9.7 1h4.5l1.8-.1-.5-.8c-1 .1-2.1.3-3.2.3-3.3-.1-6.2-1-9.7-1h-4.5c-3.4 0-6.4.9-9.6 1-3.3-.1-6.2-1-9.7-1h-4.5c-3.4 0-6.4.9-9.6 1-3.3-.1-6.2-1-9.7-1h-4.5c-3.4 0-6.4.9-9.6 1-3.3-.1-6.2-1-9.7-1h-4.5c-3.4 0-6.4.9-9.6 1-3.3-.1-6.2-1-9.7-1h-4.5z"/><use xlink:href="#m" y="-1.3"/><use xlink:href="#m" y="-2.6"/></g><use xlink:href="#n" y="-3.9"/><use xlink:href="#n" y="-7.7"/><path fill="#97c924" d="M443.8 324.7l-2.4 4.2c2.9-.5 7.1-1.7 10.7-1.7 3.6 0 8 .9 12.4 1 5 0 7-1.2 11-1.6 4.1-.4 8 .5 12 .6 3.1 0 7.9-1.1 12-1.5 4-.5 7.7.2 12.5.3 4.9.1 5.7-1.2 11.6-1.3 6.4-.1 7 .9 12.6.9 4.2.2 7.9-.9 11.7-1.1 3.7-.3 5.5 0 8.3 0l-1.9-3.2-101.3 2.3z"/><path fill="#fff" d="M550 324.6a103.6 103.6 0 006.9.6l-.4-.5c-.6.2-4.4-.2-6.4 0z"/></g><path fill="#c8a400" d="M500 224.9l-32.1 55.7-32.9 56.9h130l-32.2-55.7-32.8-57zm0 3l31.5 54.6 30.9 53.5H437.6l31.6-54.7z"/></svg>