<svg xmlns="http://www.w3.org/2000/svg" xmlns:xlink="http://www.w3.org/1999/xlink" viewBox="0 0 1200 600"><path fill="#db161b" d="M0 0h1200v600H0z"/><path fill="#fff" d="M300 0h900v200H300z"/><path fill="green" d="M300 400h900v200H300z"/><g id="a" fill-rule="evenodd" stroke="#db161b" stroke-width=".4" fill="#fff"><rect rx="3.2" ry="3" height="21.2" width="38.7" y="102.6" x="65.9"/><rect rx="3.1" ry="2.8" height="19.4" width="36.7" y="103.5" x="66.8"/><path d="M83.9 108.8h1.9v1l1.6.7 1.1-1 1.5.8-1.4.9.4 1.1h1.6v1.5h-1.3l-.7.9 1.5 1.1-1.1.9-1.3-1-1.9.4.1 1.4-2 .2-.2-1.4-1.7-.7-1 1-1.4-.7.9-1.1-1-.7H78v-2h1.4l1-1-1.2-1 1.5-1 1.1.8 1.9-.2.2-.9z" stroke-width=".2"/><ellipse cx="68.9" cy="426.8" rx="11" ry="9.9" transform="matrix(.18418 0 0 .1752 71.8 38.2)" stroke-width="1pt"/><path d="M71.8 104.4l-3 2.7m5-2.7l-3 2.7m5-2.7l-3 2.7m5-2.7l-3 2.7m4.9-2.7l-3 2.7m5-2.7l-3 2.7m5-2.7l-3 2.7m5-2.7l-3 2.7m5-2.7l-3 2.7m5-2.7l-3 2.7m4.9-2.7l-3 2.7m5-2.7l-3 2.7m-4.9-2.7l-3 2.7m12.9-2.7l-3 2.7m5-2.7l-3 2.7m5-2.7l-3 2.7m4.9-2.7l-3 2.7m.1-2.7l3 2.7m-5-2.7l3 2.7m-5-2.7l3 2.7m-5-2.7l3 2.7m-5-2.7l3 2.7m-4.9-2.7l3 2.7m-5-2.7l3 2.7m-5-2.7l3 2.7m-5-2.7l3 2.7m-5-2.7l3 2.7m-5-2.7l3 2.7m-4.9-2.7l3 2.7m4.9-2.7l3 2.7m-12.9-2.7l3 2.7m-5-2.7l3 2.7m-5-2.7l3 2.7m-5-2.7l3 2.7m0 12.3l-3 2.7m5-2.7l-3 2.7m5-2.7l-3 2.7m5-2.7l-3 2.7m4.9-2.7l-3 2.7m5-2.7l-3 2.7m5-2.7l-3 2.7m5-2.7l-3 2.7m5-2.7l-3 2.7m5-2.7l-3 2.7m4.9-2.7l-3 2.7m5-2.7l-3 2.7m-4.9-2.7l-3 2.7m12.9-2.7l-3 2.7m5-2.7l-3 2.7m5-2.7l-3 2.7m4.9-2.7l-3 2.7m.1-2.7l3 2.7m-5-2.7l3 2.7m-5-2.7l3 2.7m-5-2.7l3 2.7m-5-2.7l3 2.7m-4.9-2.7l3 2.7m-5-2.7l3 2.7m-5-2.7l3 2.7m-5-2.7l3 2.7m-5-2.7l3 2.7m-5-2.7l3 2.7m-4.9-2.7l3 2.7m4.9-2.7l3 2.7m-12.9-2.7l3 2.7m-5-2.7l3 2.7m-5-2.7l3 2.7m-5-2.7l3 2.7"/></g><use xlink:href="#a" x="-300" transform="scale(-1 1)"/><g id="b" stroke="#db161b"><path d="M126.5 147.1c-48.1 47-68.6 53-59 56.8s40.6-20.5 72.9-52.7c32.2-32.3 52-61 42.3-64.8-9.6-3.8-5 10.7-56.2 60.7z" fill-rule="evenodd" stroke-width=".6" fill="#fff"/><path d="M86 181.3l16.9 4.4c-15.9 15-33.7 21.3-38.7 18.6-5-2.7 9-8.8 21.8-23z" fill-rule="evenodd" stroke-width=".3" fill="#fff"/><path d="M86 183l13.9 3.6c-15.5 14.5-30.7 18.6-34.7 16.8-4-1.7 8.3-6.7 20.8-20.3z" fill-rule="evenodd" stroke-width=".3" fill="#fff"/><path d="M137.8 145l-.3 1.7v1.4c-.2.4-.2.7-.7.9-.3.4-.5.6-1 .8l-1.2.6c-.5.2-1 .2-1.5.1l-1.1-.7-.3-1.2c.2.3.3.9.3 1.4 0 .5-.3.8-.5 1.2m1.7 1.2v-.1l-.6-.3a6 6 0 00-1.6-.4h-1.7l-1.6.2-1.2.8a2 2 0 00-.8.9l-.9 1c0 .4-.4.4-.6.8.6 0 1 .1 1.4.4l-.6-.4c-.4 0-.5-.2-1.1-.2-.6-.2-1 .1-1.5.2-.3.2-.4.2-.9.2m5.1 2.3c-.3 0-1.4.2-1.9 0-.5 0-.8-.3-1-.7-.2-.3 0 .5 0 .8-.1.7-.3.7-.7 1.1l-1.1.7a4 4 0 01-1.1.5c-.4.2-.8.3-1.1.6-.4.2-.4.5-.6 1 0 .5.1.8.5 1 .1.4.4.8.7 1 .3.5.6.8-.1.9-.5.2-.7 0-1.1 0m-.3.8l-1.8-.6h-1.8c-.6 0-.8.2-1.3.5l-1.1.7c-.3.3-.8.8-1 1.2-.1.4-.3.9-.3 1.4 0 .7.2.8.3 1.4.1.4.4.8.7 1.3l.3.2m.2 1.4l-.4.5c-.4.4-.4.5-1 .5s-.5-.3-1-.4l-.5-.9-.5-.7-.5-.7-.4-.2c.5 0 .5.3.8.5l.5.8.2 1.1c0 .5 0 .8-.2 1.2l-.6.6-.7.7-.7.5-1 .4c-.5 0-.7-.2-1-.4l-1-.6-.5-.7c-.5 0-.8 0-1 .2l-.7.6-.5.4m1 .2l.9.5.4 1.2.1 1.5c0 .5-.3 1-.5 1.4l-1 .6-1.4.1c-.3.1-1 .2-1.3 0-.5 0-.9-.2-1.2-.4l-1-.6-1-1-.6-1 .5 1.3c.3.5.4.6.5 1.2v1.5l-.1 1.3v.3m-10.4 1.7v.2c0-.4 0-.2.2.6.3.4 1.1.5 1.8.3.5-.4.5-.7 1.5-1 1 .1 1.4.4 2 .7.6.3 1 .4 1.4 1.1.2.5.3.9-.4 1-.5.4-1.2.6-2 .7-.7 0-1.3 0-1.7.3-.5.5-.5.9-.5 1.7-.2.3-.2 1.1-.3 1.4-.5.3-.8.4-1.6.4l-.5-2c-.2-.5-.2-1.2-.6-1.6-.3-.5-.7-.8-1.2-1.1-.2-.3-.6-.5-1-.6.7.3.8.6.8 1.4-.6.2-.7.4-1.7.4s-1.2-.3-1.6-.7c0 .7-.3 1-.5 1.7-.4.4-.5 1-.9 1.5.2.8.5.8.5 1.7.3.6.2 1.2.7 1.6.3.2.4.3 1 .3-1 0-1.7 0-2.4-.5-.5-.2-.9-.6-1.4-.9-.6-.4-1.3-.8-2-1-.9 0-1.4 0-1.8.4-.5.3-.8.8-1 1.5-.2.9-.3 1.4.1 2 .3.5.4.8 0 1.5-.4.5-1 .5-1.9.8-.7 0-1.3-.2-1.7-.4" stroke-width=".3" fill="none"/><path d="M181.4 104.7c21.4-36.9 35.5-68.3 31.6-70-3.9-1.8-24.3 26.6-45.7 63.5l14.1 6.5z" fill-rule="evenodd" stroke-width=".4" fill="#fff"/><path d="M180 104c20.6-35.5 34.8-65.6 31.7-67s-22.4 26.3-43 61.8" fill-rule="evenodd" stroke-width=".4" fill="#fff"/><path d="M176.5 85.5l-7.8 13.3L180 104c2.6-4.4 5.4-9.1 7.7-13.3l-11.2-5.2z" fill-rule="evenodd" stroke-width=".4" fill="#fff"/><path d="M177.4 86.9l-6.8 11.8 8.4 3.9 6.9-11.8-8.5-4z" fill-rule="evenodd" stroke-width=".4" fill="#fff"/><path transform="matrix(-.90832 -.41827 -.50125 .8653 0 0)" stroke-width=".4" fill="#fff" d="M-205.7 6.6h6.2v10h-6.2z"/><path d="M183.6 91.7l-10.7 6m5.6 2.6l-.6-11.2M209 47.7l-5.6-2.6" fill-rule="evenodd" stroke-width=".4" fill="#fff"/><circle transform="matrix(-.449 .1132 .10134 .39387 444.3 -55.8)" cy="92.1" cx="545.7" stroke-width="1pt" fill="#db161b" r="3.5"/></g><use xlink:href="#b" x="-300" transform="scale(-1 1)"/><path d="M135.3 85c0 30.9.1 42.6-2.1 44.2-2.2 1.7-62.4 0-62.4 8.8s49.6 17.7 64.5 17.7c19.8 0 29.7-8.9 29.7-26.5V85h-29.7z" fill-rule="evenodd" stroke="#db161b" stroke-width=".4" fill="#fff"/><path d="M135.3 93.8v4.4c9.9 1.5 19.8 1.5 29.7 0v-4.4c-10 1.5-19.8 1.5-29.7 0zm0-8.8v4.4c9.9 1.5 19.8 1.5 29.7 0V85c-10 1.4-19.8 1.4-29.7 0z" fill-rule="evenodd" stroke="#db161b" stroke-width=".4" fill="#fff"/><path d="M135.3 89.4v4.4c9.9 1.5 19.8 1.5 29.7 0v-4.4c-10 1.5-19.8 1.5-29.7 0zm0 8.8v4.4c9.9 1.5 19.8 1.5 29.7 0v-4.4c-10 1.5-19.8 1.5-29.7 0z" fill-rule="evenodd" stroke="#db161b" stroke-width=".4" fill="#fff"/><ellipse rx="8.9" ry="26.6" stroke="#db161b" transform="matrix(.15263 0 0 .03588 97.4 84.3)" cy="210.8" cx="256.9" stroke-width="4.5" fill="#fff"/><ellipse rx="8.9" ry="26.6" stroke="#db161b" transform="matrix(.15263 0 0 .03588 97.4 83.5)" cy="246.3" cx="292.3" stroke-width="4.5" fill="#fff"/><ellipse rx="8.9" ry="26.6" stroke="#db161b" transform="matrix(.15263 0 0 .03588 97.4 83.4)" cy="264" cx="327.8" stroke-width="4.5" fill="#fff"/><ellipse rx="8.9" ry="26.6" stroke="#db161b" transform="matrix(.15263 0 0 .03588 97.4 83.4)" cy="264" cx="363.2" stroke-width="4.5" fill="#fff"/><ellipse rx="8.9" ry="26.6" stroke="#db161b" transform="matrix(.15263 0 0 .03588 97.4 83.5)" cy="246.3" cx="398.6" stroke-width="4.5" fill="#fff"/><ellipse rx="8.9" ry="26.6" stroke="#db161b" transform="matrix(.15263 0 0 .03588 97.4 84.3)" cy="210.8" cx="434.1" stroke-width="4.5" fill="#fff"/><path d="M135.3 107l29.7 24m-26.8-24l26.8 21.3M142.2 108l22.8 17.6M145.2 108l19.8 15m-16.8-15l16.8 12.3M151.1 108l14 9.7m-11-9.7l11 7m-8.1-7l8 5.2m-5-5.2l5 3.5m-2-3.5l2 1.7m-29.7 0l29.7 23.9m0-26.6l-32.7 26.6M162 107l-28.7 23m24.7-22l-22.7 17.6M155 108l-19.7 15m16.8-15l-16.8 12.3m13.8-12.3l-13.8 9.7m10.9-9.7l-11 7m8-7l-8 5.2m5-5.2l-5 3.5m2-3.5l-2 1.7m29.8 0l-32.7 26.5m32.7-23.8l-32.7 26.5M165 115l-32.7 26.5m32.7-23.8l-32.7 26.5m32.7-23.9l-32.7 26.5M165 123l-32.7 26.5m32.7-23.9l-32.7 26.5m32.7-23.8l-32.7 26.5M165 131l-30.7 24.7m30.7-22.1l-27.8 22m26.8-18.5l-21.8 17.7m20.8-14.1l-17.8 14.1M161 145l-8.9 7.1m-16.8-39.7l28.7 23M135.3 115l28.7 23m-28.7-20.3l27.7 22m-27.7-19.4l27.7 22.1M135.3 123l26.7 21.2m-27.7-19.5L161 146m-26.7-18.6l24.8 19.4m-25.8-17.6l24.8 19.4M132.3 131l23.8 18.5m-23.8-15.9l22.8 17.7m-22.8-15.1l19.8 16m-16.8-49.6v4.5c9.9 1.4 19.8 1.4 29.7 0v-4.5c-10 1.5-19.8 1.5-29.7 0zm-3 36.3L150 153m-17.7-11.5L148 154m-15.7-9.8l13.9 10.6m-13.9-8l9.9 8m-9.9-5.3l8 6.2m-8-3.6l5 3.6" fill-rule="evenodd" stroke="#db161b" stroke-width=".4" fill="#fff"/><ellipse rx="8.9" ry="26.6" stroke="#db161b" transform="matrix(.15263 0 0 .03588 97.4 97.6)" cy="210.8" cx="256.9" stroke-width="4.5" fill="#fff"/><ellipse rx="8.9" ry="26.6" stroke="#db161b" transform="matrix(.15263 0 0 .03588 97.4 96.8)" cy="246.3" cx="292.3" stroke-width="4.5" fill="#fff"/><ellipse rx="8.9" ry="26.6" stroke="#db161b" transform="matrix(.15263 0 0 .03588 97.4 96.6)" cy="264" cx="327.8" stroke-width="4.5" fill="#fff"/><ellipse rx="8.9" ry="26.6" stroke="#db161b" transform="matrix(.15263 0 0 .03588 97.4 96.6)" cy="264" cx="363.2" stroke-width="4.5" fill="#fff"/><ellipse rx="8.9" ry="26.6" stroke="#db161b" transform="matrix(.15263 0 0 .03588 97.4 96.8)" cy="246.3" cx="398.6" stroke-width="4.5" fill="#fff"/><ellipse rx="8.9" ry="26.6" stroke="#db161b" transform="matrix(.15263 0 0 .03588 97.4 97.6)" cy="210.8" cx="434.1" stroke-width="4.5" fill="#fff"/><path d="M92.6 148.6l35.7-18.6m-37.7 17.7l33.8-17.7m-34.7 16l30.7-16m-31.7 14.2l26.7-14.2m-28.7 12.4l24.8-12.4m-23.8 9.8l16.8-8.9M86.7 138l12.9-7m-12.9 4.3l8.9-4.4m0 18.6l33.7-17.7m-30.7 18.6l31.7-16.8m-28.8 17.7l29.8-16m-26.8 16.8l24.8-13.2m-20.8 13.2l21.8-11.5M111.5 153l18.8-9.7M114.4 154l15-8m-11 8l11.9-6.3m-7.9 7.1l7.9-4.4m-4 4.4l5-2.7m2-22.9h-5a71.7 71.7 0 000 26.5h5a71.2 71.2 0 010-26.5zm-58.5 12.3l11.9-8.8m-11.9 2.6L86.7 146" fill-rule="evenodd" stroke="#db161b" stroke-width=".4" fill="#fff"/><path d="M92.6 131l-6 .8a32.4 32.4 0 000 16l6 1.7a44 44 0 010-18.6z" fill-rule="evenodd" stroke="#db161b" stroke-width=".3" fill="#fff"/><path d="M165 86.7v-4.4c-4.5 0-7.5-2.6-7.5-5.3h-14.8c0 2.7-3 5.3-7.4 5.3v4.4H165z" fill-rule="evenodd" stroke="#db161b" stroke-width=".4" fill="#fff"/><path stroke="#db161b" stroke-width=".4" fill="#fff" d="M143.8 71.7h12.7V77h-12.7zm1-5.3h10.6v5.3h-10.6zm0-5.3h10.6v5.3h-10.6zm1.1-7.1h8.5v7.1h-8.5zm-.4-6.2h9.2V54h-9.2z"/><ellipse rx="42.5" ry="33.7" stroke="#db161b" transform="matrix(.28916 0 0 .2495 82 1.9)" cy="161.2" cx="237.4" stroke-width="1pt" fill="#fff"/><path d="M156.8 41.6c0 2.4 3 6.2 3 6.2-2.2 1.5-5.8 2.7-9.2 2.7s-7.6-.6-9.2-2.7c0 0 3-3.8 3-6.2 0-2.3-3-5.3-3-5.3a17.5 17.5 0 0118.4 0s-3 3-3 5.3z" fill-rule="evenodd" stroke="#db161b" stroke-width=".4" fill="#fff"/><path d="M154.7 41.6c0 2.4 3.1 7.1 3.1 7.1-2.2 1.5-3.8 1.8-7.2 1.8s-5.5.2-7.1-1.8c0 0 3-4.7 3-7 0-2.4-3-6.2-3-6.2 2.2-1.6 3.7-1.8 7.1-1.8s5 .2 7.2 1.8c0 0-3 3.8-3 6.1z" fill-rule="evenodd" stroke="#db161b" stroke-width=".4" fill="#fff"/><circle stroke="#db161b" transform="matrix(.28916 0 0 .2495 82 1)" cy="166.5" cx="194.9" stroke-width="1pt" fill="#fff" r="10.6"/><circle stroke="#db161b" transform="matrix(.28916 0 0 .2495 106.6 1)" cy="166.5" cx="194.9" stroke-width="1pt" fill="#fff" r="10.6"/><circle stroke="#db161b" transform="matrix(.28916 0 0 .2495 94.3 1)" cy="166.5" cx="194.9" stroke-width="1pt" fill="#fff" r="10.6"/><circle stroke="#db161b" transform="matrix(.28916 0 0 .2495 94.3 -7.9)" cy="166.5" cx="194.9" stroke-width="1pt" fill="#fff" r="10.6"/><circle stroke="#db161b" transform="matrix(.29948 0 0 .2495 83.3 42.5)" cy="166.5" cx="194.9" stroke-width="1pt" fill="#fff" r="10.6"/><circle stroke="#db161b" transform="matrix(.29948 0 0 .2495 100.2 42.5)" cy="166.5" cx="194.9" stroke-width="1pt" fill="#fff" r="10.6"/><path d="M142.7 77h14.8l-7.4 8-7.4-8z" fill-rule="evenodd" stroke="#db161b" stroke-width=".4" fill="#fff"/><circle stroke="#db161b" transform="matrix(.39931 0 0 .33266 72.3 27.8)" cy="166.5" cx="194.9" stroke-width="1pt" fill="#fff" r="10.6"/><rect rx="1.2" ry=".9" height="5.3" width="22.8" stroke="#db161b" y="109.7" x="133.8" stroke-width=".3" fill="#fff"/><path d="M163.5 105.3c-2.7 0-5 2-5 4.6v4c0 2.6 2.3 4.7 5 4.7s5-2.1 5-4.7v-4c0-2.5-2.2-4.6-5-4.6zm0 1.8c-1.6 0-3 1.6-3 3.7v2.3c0 2 1.4 3.7 3 3.7s3-1.7 3-3.7v-2.3c0-2-1.3-3.7-3-3.7zm-25.8-.9c-1.6 0-3 1.6-3 3.7v4c0 2.1 1.4 3.8 3 3.8s3-1.7 3-3.7v-4.1c0-2-1.3-3.7-3-3.7zm0-1.8c-2.7 0-5 2-5 4.6v5.8c0 2.6 2.3 4.7 5 4.7s5-2.1 5-4.7V109c0-2.5-2.2-4.6-5-4.6z" fill-rule="evenodd" stroke="#db161b" stroke-width=".3" fill="#fff"/><path d="M129.8 108c-1.6 0-3 1.6-3 3.7v1c0 2 1.4 3.6 3 3.6s3-1.6 3-3.7v-1c0-2-1.3-3.6-3-3.6zm0-1.8c-2.7 0-5 2-5 4.6v2.7c0 2.5 2.3 4.6 5 4.6s5-2 5-4.6v-2.7c0-2.5-2.3-4.6-5-4.6z" fill-rule="evenodd" stroke="#db161b" stroke-width=".3" fill="#fff"/><path d="M118 105.5c-3 0-5.4 1.9-5.4 4.1v4.6c0 2.3 2.3 4.1 5.3 4.1s5.4-1.8 5.4-4v-4.7c0-2.2-2.4-4-5.4-4zm0-2c-5 0-9 2.3-9 5.2v6.5c0 2.8 4 5.1 9 5.1s8.8-2.3 8.8-5.1v-6.5c0-2.9-4-5.2-8.9-5.2zm64.4 2.9c-3 0-5.4 1.8-5.4 4.1v4.6c0 2.3 2.4 4.1 5.4 4.1 3 0 5.3-1.8 5.3-4v-4.7c0-2.3-2.4-4.1-5.3-4.1zm0-2c-5 0-9 2.3-9 5.2v6.5c0 2.8 4 5.1 9 5.1 4.9 0 8.9-2.3 8.9-5.2v-6.4c0-2.9-4-5.2-9-5.2z" fill-rule="evenodd" stroke="#db161b" stroke-width=".3" fill="#fff"/><rect rx=".6" ry=".9" height="5.3" width="11.9" stroke="#db161b" y="109.7" x="165.5" stroke-width=".3" fill="#fff"/><rect rx=".4" ry="1.3" height="7.1" width="6.9" stroke="#db161b" y="108.8" x="154.6" stroke-width=".3" fill="#fff"/><rect rx=".4" ry="1.3" height="7.1" width="6.9" stroke="#db161b" y="108.8" x="121.9" stroke-width=".3" fill="#fff"/><rect rx=".8" ry="1.6" height="8.8" width="13.9" stroke="#db161b" y="108" x="100.1" stroke-width=".3" fill="#fff"/><rect rx=".7" ry="1.6" height="8.8" width="12.9" stroke="#db161b" y="108.8" x="186.3" stroke-width=".3" fill="#fff"/></svg>