<svg xmlns="http://www.w3.org/2000/svg" xmlns:xlink="http://www.w3.org/1999/xlink" viewBox="0 0 900 600"><path fill="#d91023" d="M0 0h900v600H0z"/><path fill="#fff" d="M300 0h300v600H300z"/><g transform="matrix(.25 0 0 .25 345 179)" stroke="#d4af37" stroke-width="2" fill="#00a854"><g transform="matrix(.44722 -.20656 .2582 .35777 89 -67)" id="g" stroke-width="4"><path d="M480 567c31 33 63 68 79 111 25 70 18 152-22 214-35 52-86 92-142 116-52 22-112 24-165 4-20-7-39-18-58-28-8-2-14 8-7 13a261 261 0 00301-22 247 247 0 0055-366c-14-17-29-32-45-47l4 5z"/><path d="M171 983c-9-1-13 12-6 14 5-1 11-12 6-14zm304-431c-5-5-14-2-18-7s3-6 0-10c-3-3-8-2-12-6-4-5-1-9-4-12-4-4-4 0-9-4-4-5-1-13-6-19-4-5-3-12 3-11l10 6c5 1 8-3 11 1 4 3 0 9 4 14 4 4 6 1 9 5 2 5 0 7 2 12s8 3 11 11c2 7-1 20-1 20z"/><path d="M478 565c-5-26-27-57-52-80 15 12 44 41 54 80h-2z"/><path d="M460 524l-10-3 9 1 1 2zm-15-19c-5-1-7 0-11 1 3-1 6-3 10-2l1 1zm4 4c-2-6-2-10-2-14l1 13 1 1zm14 18l-3-14 1 13 2 1zm92 155c-8-3-17 0-24-2-7-3 1-9-4-11-6-2-10 6-18 3-7-2-6-10-12-11-7-1-7 7-14 5-8-2-8-12-16-16-9-3-9-11-2-13 6-1 11 2 18 0s7-9 14-7c6 1 4 10 11 13s11-5 17-2c5 3 0 10 4 14 5 4 8-3 14 4 7 7 12 23 12 23z"/><path d="M564 692c-23-26-59-42-102-50 25 3 76 15 105 50h-3z"/><path d="M524 661c-6 0-10 2-15 3 4-2 8-4 13-4l2 1zm-28-10c-6 1-10 4-14 6 4-3 7-6 12-7l2 1zm8 1c-6-5-7-9-10-14 2 5 3 9 7 13l3 1zm25 11c-5-5-7-9-9-14 1 5 3 9 6 13l3 1zm26 223c7-6 9-15 14-20 6-5 7 6 11 2s1-12 7-17 11 0 16-4c4-5-3-10 3-15s14 0 21-5c7-6 14-2 12 6-2 5-7 8-10 16s3 11-1 15c-5 5-11-2-17 3-6 4-2 12-7 15s-8-5-14-3c-5 1-2 8-11 9-8 2-24-2-24-2z"/><path d="M543 887c32-5 64-27 94-60-16 20-53 58-96 63l2-3z"/><path d="M588 870c4-5 4-10 5-14 0 4 0 8-3 13l-2 1zm23-18c3-6 2-11 2-16v15l-2 1zm-4 6c6-2 10-1 15 0-4-1-8-3-14-2l-1 2zm-23 16c7-2 11-1 16-1-4-1-9-2-14-1l-2 2zm3-84c5-7 6-16 10-22 5-6 8 5 11 0 4-5-1-12 4-18 5-7 11-2 15-8 3-5-4-9 0-15 5-6 14-2 20-9 6-6 14-4 13 4-1 6-6 9-7 18-1 8 5 10 1 15-3 5-10 0-16 5-5 6 1 13-4 17-4 4-8-3-14-1-5 3-1 8-9 12s-24 2-24 2z"/><path d="M575 794c31-12 58-39 82-77-13 22-42 67-83 80l1-3z"/><path d="M616 769c3-6 3-11 3-16 0 4 1 9-1 14l-2 2zm20-23c1-6 0-11-1-16 2 5 3 9 3 14l-2 2zm-3 7c5-3 10-3 15-3-5-1-9-1-14 1l-1 2zm-20 20c6-3 11-3 16-4l-14 1-2 3zm-46-32c-8-5-18-5-24-9-7-5 3-9-2-12-6-4-13 3-20-2-7-4-4-12-10-15s-9 6-16 1-5-15-13-21-6-14 3-14c6 0 10 5 19 5s5-4 11-1 5 12 11 17c7 5 16-5 20 0 5 4-2 10 1 16s9-1 14 8 6 27 6 27z"/><path d="M573 753c-17-33-50-59-94-80 26 11 78 37 98 82l-4-2z"/><path d="M540 711c-7-2-12-2-17-1 5-1 9-2 15-1l2 2zm-26-19c-8-1-12 1-17 3 4-2 8-4 14-5l3 2zm7 3c-4-6-5-11-6-16l3 15 3 1zm24 19c-4-7-5-12-6-17l3 15 3 2zm43 36c4-7 3-17 6-23 4-7 8 3 11-3 3-5-4-11 0-18 4-8 11-5 13-11s-6-8-2-15c3-7 13-5 18-13 4-7 12-7 12 2 1 5-3 10-3 18 1 8 7 9 5 15-3 6-11 2-15 9-4 6 3 12-1 17s-9-2-14 2c-4 3 1 8-6 13s-24 7-24 7z"/><path d="M578 757c28-18 49-51 64-93-7 25-27 75-65 96l1-3z"/><path d="M613 723c2-6 0-11 0-16l2 14-2 2zm15-26c0-7-2-11-4-15 2 4 5 7 5 13l-1 2zm-2 7c5-4 9-5 14-6-4 1-8 1-13 4l-1 2zm-15 24c5-4 10-5 14-7-4 1-8 1-13 4l-1 3zm-54-89c4-9 1-19 4-26s9 2 11-4c2-5-5-11-3-19s11-6 13-13c1-6-7-7-5-15 3-8 13-7 17-16s12-9 14 0c1 6-3 11-1 19 1 9 8 9 6 15s-11 4-14 11 5 13 1 18c-3 6-9 0-14 4-4 5 2 9-5 15-7 7-24 11-24 11z"/><path d="M547 647c27-22 45-60 56-106-5 27-19 82-56 110v-4z"/><path d="M580 607c1-7-1-11-2-16l4 14-2 2zm12-29c-1-7-4-11-6-16 3 4 6 8 7 13l-1 3zm-1 8c5-5 9-7 14-9-5 1-9 2-14 6v3zm-13 26c5-5 10-6 14-8-4 1-8 2-13 5l-1 3z"/><path d="M533 605c5-6-1-18 3-24 3-6 7 3 9-1 3-5 0-11 3-17 4-6 9-1 11-7 3-5-2-5 2-11 3-6 12-4 16-11 5-6 12-5 12 2 0 5-3 7-3 15 0 7 5 9 2 14-2 5-9 2-12 7-4 6 0 8-3 12-4 4-7 2-11 5-5 2-1 11-8 15s-21 1-21 1z"/><path d="M522 611c24-10 49-42 64-79-8 22-28 64-63 81l-1-2z"/><path d="M557 583c2-6 1-10 0-14l2 12-2 2zm14-23c1-6-1-9-3-13 2 3 4 6 5 11l-2 2zm-2 7c5-4 9-5 13-5-4 0-7 0-12 2l-1 3zm-14 20c5-4 9-5 13-6l-12 3-1 3zm-173 425c3-9 1-19 3-27 3-8 9 3 11-3 2-7-5-13-2-21 3-9 10-6 12-13 1-7-7-8-4-17 2-8 12-7 16-16s12-9 13 1c1 6-2 11-1 20s8 9 6 16c-1 7-10 4-13 11-3 8 4 14 1 20s-10-1-14 3c-4 5 2 10-5 16s-23 10-23 10z"/><path d="M375 1016c27-22 41-57 51-105-4 28-15 81-51 109v-4z"/><path d="M404 980c1-8-1-13-2-18 1 4 3 9 3 15l-1 3zm12-31c-1-7-4-12-6-17l7 14-1 3zm-1 8c4-5 9-6 13-8-4 1-8 2-13 5v3zm-13 28c5-5 10-7 14-9-4 1-9 2-13 6l-1 3zm159-153c-7-7-19-10-25-16s7-6 2-11-15-1-22-8c-7-6 0-12-7-17-6-4-12 3-18-4-7-6 0-14-8-22-7-8-2-15 8-12 6 2 10 8 20 11s13-3 19 2-2 11 4 17c6 7 16 3 20 8 4 6-6 8-4 14 2 7 10 3 13 12s-2 26-2 26z"/><path d="M540 797c-7-4-13-5-19-6l18 3 1 3zm-24-25c-8-3-14-3-20-3h18l2 3zm8 5c-3-7-2-12-2-17-1 5-2 9-1 15l3 2zm21 24c-3-7-2-12-2-17-1 5-2 9-1 15l3 2z"/><path d="M562 840c-9-35-36-64-79-96 26 18 74 53 82 98l-3-2z"/><g id="d"><path d="M527 891c-3-9-20-14-22-21-3-7 9-5 6-11-2-5-13-4-17-11-3-8 5-13 2-19-4-5-12 0-16-7-3-8 6-15 3-24s4-15 12-11c5 3 6 10 13 15 8 5 14-1 17 5 4 6-6 11-3 19 2 7 13 5 14 12 2 6-8 6-9 13s8 4 7 14-7 26-7 26z"/><path d="M520 853c-5-6-13-9-18-11 5 1 13 4 18 8v3zm-10-25c0-7 3-12 6-16-3 4-6 8-8 14l2 2zm13 26c0-7-1-10 2-14-3 4-3 6-4 12l2 2z"/><path d="M525 907c7-37-13-79-38-119 16 22 52 74 41 122l-3-3z"/><path d="M505 822c-6-5-11-5-17-6 5 0 11 0 16 3l1 3z"/></g><path d="M494 566c-2-7-12-8-14-14s5-5 4-9c-2-5-7-5-9-11s4-8 1-13c-2-5-4-1-6-7s4-12 2-20c-2-7 2-12 6-9 3 2 3 6 8 10 4 3 8 1 10 5 1 5-4 9-2 15 1 6 5 3 5 9 1 5-2 6-2 11 0 6 6 7 6 15-1 8-9 18-9 18z"/><path d="M492 579c5-26-3-64-17-95 9 17 25 56 18 95h-1z"/><path d="M491 534c-3-4-5-5-8-7l8 5v2zm-6-23c-4-4-7-4-10-5l9 2 1 3zm2 5c0-6 2-10 3-14l-4 12 1 2zm6 22c0-6 1-10 3-14-2 4-4 7-4 12l1 2zm17 37c-1-7-7-11-8-17 0-6 15-4 15-8-1-5-6-5-6-11-1-6 5-8 4-13-1-4-4-1-5-7l2-19c0-7 6-13 10-9 2 2 1 6 5 9 4 4 8 1 11 5 3 3 2 6 3 12 0 6 4 4 3 9 0 5-4 6-6 11-1 5 6 6 3 14s-31 24-31 24z"/><path d="M499 586c25-22 37-64 19-94 8 15 12 31 8 50-4 14-11 30-25 44h-2z"/><path d="M522 551c-1-5-6-10-8-12l9 9-1 3zm4-27c-3-3-6-4-9-4 3 0 6 0 9 2v2zm1 0c2-6 5-9 7-13l-7 11v2zm-4 28c2-6 8-4 13-6-4 0-11-1-13 4v2zm-44 24c-7-5-5-16-10-20s-7 4-11 1-2-9-8-13c-5-4-9 0-13-4-4-3 0-4-5-9-6-4-14-1-21-5-6-5-14-3-12 3 2 5 6 6 8 12s-2 9 2 12c4 4 10 0 15 4 6 4 2 6 7 9s7 0 13 1c6 2 4 10 13 12 8 2 22-3 22-3z"/><path d="M493 579c-29-4-65-26-91-53 14 16 48 47 91 55v-2z"/><path d="M447 562c-3-5-4-8-4-12 0 3 0 7 2 11l2 1zm-22-16c-2-5-1-8-1-12 0 3-2 7-1 11l2 1zm4 5c-6-2-10-2-15-2h14l1 2zm21 14c-6-2-10-2-15-2h14l1 2zm51 41c-9-4-7-16-13-19-7-3-8 6-13 3-5-2-4-8-11-12-7-3-11 2-16-1s0-5-7-8c-7-4-16 2-25-2-8-3-16 0-14 6 2 4 7 5 10 11s-2 9 3 12c6 3 12-2 19 1s3 6 9 8 9-1 15-1c7 0 6 9 16 9 11 1 27-7 27-7z"/><path d="M517 606c-35 1-78-14-112-37 18 14 61 40 112 39v-2z"/><path d="M462 597c-5-4-5-7-7-11 1 4 1 7 4 11h3zm-27-12c-3-4-3-8-2-12-1 4-2 7-1 11l3 1zm5 5c-8-1-13 0-19 1 5-1 10-3 17-3l2 2zm26 10c-8-1-13 0-19 1 5-1 10-3 17-3l2 2z"/><path d="M518 630c-9-3-8-15-15-18-7-2-7 6-12 4s-5-8-12-11-11 3-16 0 0-5-7-8-17 3-25 0c-9-3-17 1-14 7 3 4 7 4 11 10 3 5-1 9 4 12s11-3 19-1c7 3 3 6 9 8 6 1 8-2 15-2s7 8 17 8 26-9 26-9z"/><path d="M534 629c-34 3-79-9-114-29 19 12 63 35 114 31v-2z"/><path d="M478 624c-4-4-5-7-7-11 1 4 1 7 4 11h3zm-28-10c-3-5-2-8-2-12-1 3-2 7 0 11l2 1zm6 4c-8-1-13 1-18 2l16-4 2 2zm26 8c-7 0-12 1-18 3 5-2 10-4 16-4l2 1z"/><g id="a"><path d="M207 997c7-4 15-3 21-6 6-4-3-7 1-10 5-2 11 3 17 0s3-10 8-13c6-2 8 5 14 2s4-12 10-16c7-5 6-12-2-12-4 0-8 4-15 3-8 0-9-6-14-3-5 2-1 10-7 13-5 4-11-2-15 2-4 3 2 8-1 12s-7 0-12 6c-4 7-5 22-5 22z"/><path d="M202 1007c14-26 43-46 79-61-21 7-65 27-82 62l3-1z"/><path d="M230 974c6-2 10-1 14 0l-12-2-2 2zm22-14c6-1 10 1 14 3l-12-5-2 2zm-6 2c4-5 4-9 5-13l-3 12-2 1zm-20 14c4-5 4-9 5-13 0 4 0 8-3 12l-2 1z"/></g><g id="b"><path d="M210 1024c9 4 20 0 27 3 8 3-2 10 4 12s12-6 20-4c9 3 7 12 14 13 7 2 7-8 16-5 8 2 7 14 17 18 9 3 9 12 0 15-6 1-11-3-20 0-9 2-8 9-15 8-7-2-4-12-12-15-8-4-13 5-19 2s0-11-4-16c-5-5-9 3-16-4-7-8-12-27-12-27z"/><path d="M202 1014c24 29 63 47 111 56-28-4-85-17-115-57l4 1z"/><path d="M244 1048c7 0 12-2 17-3l-15 5-2-2zm30 12c8-1 12-5 16-8-3 4-7 7-13 9l-3-1zm-8-1c6 5 7 10 10 15-2-5-3-10-7-14l-3-1zm-27-12c5 5 7 10 9 15-2-5-3-10-7-15h-2z"/></g><use transform="translate(44 17)" width="744" height="1052" xlink:href="#a"/><use transform="translate(59 11)" width="744" height="1052" xlink:href="#b"/><g id="e"><path d="M354 1034c9 1 18-5 26-5 9 1 1 10 7 10 7 1 10-9 19-9 9 1 9 10 16 9 7 0 6-10 14-10 9 1 11 12 21 13s13 10 5 14c-5 3-12 1-20 6-8 4-5 11-13 11-7 1-7-10-15-11s-11 9-18 8c-6-2-2-11-8-14s-8 5-16 0c-9-5-18-22-18-22z"/><path d="M342 1026c31 21 74 28 123 23-28 4-87 8-127-22l4-1z"/><path d="M392 1047c7-1 11-5 16-8-4 4-7 7-13 9l-3-1zm33 4c7-4 10-8 14-12l-11 12h-3zm-8 1c7 3 9 7 13 11-3-4-5-8-10-12l-3 1zm-30-5c6 4 9 8 13 12-3-4-5-8-10-12h-3z"/></g><path d="M293 1025c5-6 13-7 17-11s-5-5-1-8c3-3 10 0 15-4 5-5 1-9 5-12 4-4 8 2 12-2 5-5 1-11 6-16s2-11-5-9c-4 1-7 5-13 6-7 2-10-3-14 0-4 4 2 9-3 13-4 4-10 1-13 5s4 6 2 10c-2 5-7 2-9 8-2 7 1 20 1 20z"/><path d="M292 1030c7-25 26-44 55-66-17 12-50 35-57 68l2-2z"/><path d="M308 1000c5-3 8-3 13-4-4 0-8 0-12 2l-1 2zm16-17c6-2 10-1 14-1l-12-1-2 2zm-5 3c2-5 2-8 2-12v11l-2 1zm-14 16c2-4 1-8 1-12v11l-1 1zm40 15c4-6 13-9 16-14s-6-4-3-8 10-2 14-8c4-5-1-9 3-13 3-4 8 1 12-5 4-5-1-11 3-17 4-7 0-12-7-9-4 2-6 7-12 10-7 3-10-2-14 3-3 4 3 8 0 13-4 6-11 4-13 8-2 5 5 6 4 11 0 4-6 2-7 10-1 7 4 19 4 19z"/><path d="M346 1023c2-27 17-51 43-79-16 15-45 46-45 81l2-2z"/><path d="M356 989c4-4 8-5 12-7-4 1-8 2-12 5v2zm13-21c5-3 9-3 14-4-4 0-8 0-13 2l-1 2zm-4 4c1-5-1-9-1-13l2 11-1 2zm-12 20c1-5 0-9-1-13 1 4 3 7 2 11l-1 2z"/><g id="f"><path d="M506 949c8-4 11-13 17-17 7-4 6 7 11 4 4-3 2-12 9-16s11 2 16-2-1-10 6-14 14 3 22-1c7-4 13 1 10 8-3 5-8 7-12 14s1 11-4 15-10-4-17 0c-6 3-4 12-9 14-6 2-7-7-13-6-6 0-3 7-12 8-9 0-24-7-24-7z" transform="translate(9 -8)"/><path d="M494 949c33 0 67-17 102-44-19 17-61 48-105 46l3-2z" transform="translate(9 -8)"/><path d="M541 939c4-4 6-9 8-13-1 4-2 8-6 13h-2zm26-14c3-5 3-10 4-15 0 5 0 9-2 14l-2 1zm-6 5c7-1 11 1 16 3-4-2-8-4-14-4l-2 1zm-24 12c6-1 11 1 15 2l-13-4-2 2z" transform="translate(9 -8)"/></g><path d="M583 716c4-8 1-18 4-25 3-8 8 2 10-4s-5-12-2-20 11-6 12-12c2-7-7-8-4-16s13-7 17-16c3-8 12-8 13 0 1 6-2 11-1 20 2 8 9 8 7 14-2 7-11 4-14 11-3 8 4 13 1 19-3 5-10-1-14 3-5 5 2 9-5 15-7 7-24 11-24 11z"/><path d="M573 724c27-22 45-59 55-105-4 26-19 81-55 109v-4z"/><path d="M605 685c1-8 0-12-2-17 2 4 4 8 4 14l-2 3zm13-30c-1-7-4-11-6-15 2 4 5 7 7 13l-1 2zm-2 8c5-5 10-7 14-9l-13 6-1 3zm-12 27c5-6 9-7 14-9-4 1-9 2-13 6l-1 3z"/><path d="M572 672c5-8 3-17 7-24 3-6 8 3 10-2 3-5-3-11 0-19 4-7 11-4 13-10 3-6-5-8-2-15 4-7 13-5 18-13 4-8 12-7 13 1 0 6-4 11-4 19 1 8 7 9 5 15-3 5-11 2-15 8-3 7 3 13-1 18-3 4-9-2-13 1-5 4 0 9-7 14s-24 7-24 7z"/><path d="M562 679c28-18 49-51 65-93-8 24-28 74-66 96l1-3z"/><path d="M597 645c2-7 1-11 0-16 1 4 3 9 2 14l-2 2zm15-26c0-7-2-11-4-16 2 4 5 8 6 14l-2 2zm-2 7c5-4 10-5 14-6-4 0-8 1-13 4l-1 2zm-15 24c5-5 10-6 14-7-4 1-8 1-13 4l-1 3zm-28 126c-8-6-19-5-25-9-7-5 4-9-2-12-5-4-12 3-20-2-7-5-3-12-10-15-6-4-8 5-16 1-7-5-4-15-12-21s-7-15 2-14c6 0 11 5 19 5 9 0 5-5 11-1 6 3 5 12 12 17s15-5 20 0c5 4-3 10 1 15 3 6 9 0 14 9 5 8 6 27 6 27z"/><path d="M573 788c-17-33-51-59-94-80 25 10 77 37 97 81l-3-1z"/><path d="M540 746c-7-3-12-2-17-1 4-1 9-3 15-2l2 3zm-27-19c-7-1-12 1-17 3 5-2 9-5 15-5l2 2zm8 3c-5-7-5-12-6-17 0 5 0 10 3 15l3 2zm23 18c-4-6-4-11-6-16 1 5 1 9 4 15l2 1zm31 95c6-6 6-16 11-21 5-6 7 4 10 0 4-5-1-13 4-19s11-2 15-7c3-6-4-9 1-15 4-7 13-3 19-9 6-7 14-4 13 4-1 5-6 9-7 17s5 10 2 15c-4 6-11 0-16 6s0 13-5 17c-4 4-8-4-14-1-5 2 0 8-9 11-8 4-24 2-24 2z"/><path d="M563 848c31-12 58-40 82-78-13 23-42 68-83 81l1-3z"/><path d="M604 822c3-6 3-11 3-16v15l-3 1zm20-22c2-7 0-11-1-16 2 4 3 8 3 14l-2 2zm-3 6c6-3 10-3 15-3-4 0-9-1-14 1l-1 2zm-19 20c6-3 10-3 15-3-5 0-9-1-14 1l-1 2z"/><use transform="rotate(15 310 758)" width="744" height="1052" xlink:href="#c"/><use transform="rotate(5 93 577)" id="c" width="744" height="1052" xlink:href="#d"/><use transform="rotate(-10 275 690)" width="744" height="1052" xlink:href="#e"/><use transform="rotate(10 225 654)" width="744" height="1052" xlink:href="#f"/></g><use transform="matrix(-1 0 0 1 840 0)" width="1" height="1" xlink:href="#g"/></g><g stroke="#d4af37"><path d="M409 238l-20 24c7 6 11 17 11 25 0 11-2 18-4 25h54v-74c-12 7-28 10-41 0z" fill="#007ea8"/><path d="M491 238c-13 10-29 7-41 0v74h54c-2-7-4-14-4-25 0-8 4-19 11-25l-20-24z" fill="#fff"/><path d="M396 312c-3 9-7 17-8 31-2 19 14 30 21 33 10 5 20 3 31 4 5 1 8 4 10 7 2-3 5-6 10-7 11-1 21 1 31-4 7-3 23-14 21-33-1-14-5-22-8-31H396z" fill="#d91023"/></g><g stroke="#d4af37" stroke-width="3"><g transform="matrix(.119 0 0 .125 327 311)" fill="#00a854" stroke-width="6"><g id="j" stroke-width="3"><path d="M1075-201s6-21 18-30 25-5 33-9c-5 7-6 21-18 30s-33 9-33 9zm48-37c-8 2-13 0-25 4m18 2c-9 2-14-1-26 3m17 4c-8 3-12-1-23 4m13 3c-8 2-9-2-17 4m9 2c-5 1-7 0-12 5m46-31c-4 8-3 13-10 23m3-17c-5 7-3 14-11 23m2-16c-5 7-3 11-11 20m1-13c-5 7-1 9-9 15m1-9c-3 4-2 7-8 10"/><path d="M1131-244l-24 18-32 24 32-23 24-18m-23-74s17 13 21 28c4 14-4 25-4 34-5-8-17-13-21-28-4-14 4-34 4-34zm16 59c1-9 5-13 5-25m-8 15c1-8 7-12 7-24m-10 13c1-8 6-10 5-22m-8 11c1-8 6-8 3-18m-5 8c0-5 3-7 0-13m11 55c-5-7-11-8-17-19m14 9c-5-6-12-7-17-18m14 7c-4-7-9-6-15-17m12 6c-4-7-8-4-11-14m9 4c-3-4-6-4-7-11"/><path d="M1127-249l-8-29a9185 9185 0 00-1 0 5074 5074 0 008 29"/><g id="h" stroke-width="3"><path d="M1206-262s17 13 21 28c4 14-4 25-4 34-4-8-17-13-21-28-4-14 4-34 4-34zm16 59c1-9 5-13 6-25m-8 16c1-9 6-13 6-25m-9 14c0-9 5-11 4-23m-7 11c0-8 5-8 2-17m-5 8c0-6 3-7 0-14m11 55c-5-7-11-8-17-19m15 10c-5-7-12-8-18-19m15 8c-5-8-10-7-15-18m12 6c-5-7-9-4-11-14m8 5c-3-5-6-5-6-12"/><path d="M1225-194l-8-29-10-39a9314 9314 0 0017 68m-53 57s2-21 13-31c11-11 24-10 32-14-5 8-3 21-14 32-11 10-31 13-31 13zm42-43c-7 4-13 2-24 8m18-1c-8 3-14 1-25 7m17 1c-8 4-12 1-22 7m13 1c-7 4-9 0-16 7m9 1c-5 2-7 0-11 6m41-37c-3 8-1 14-7 24m1-17c-4 8-1 14-7 25m-1-17c-4 8-1 12-8 22m-1-14c-3 8 1 10-6 17m-1-9c-2 4-1 7-7 11"/><path d="M1220-187l-21 22-28 28 28-28a5074 5074 0 0021-21"/></g><path d="M1057-279s21-5 34 1c14 6 18 19 25 25-9-2-21 5-35-1-13-6-24-25-24-25zm56 24c-6-6-7-11-16-19m7 16c-6-6-6-13-15-21m5 16c-7-5-5-11-15-17m4 13c-6-6-3-10-12-13m3 9c-4-4-4-7-11-8m50 24c-9 0-13 4-25 2m16-5c-9-1-13 4-25 2m15-7c-9-1-11 4-23 1m12-5c-8-1-9 3-18-1m9-3c-6-1-8 1-13-3"/><path d="M1122-251l-28-12a9222 9222 0 0027 12m-49-133s15-15 30-17c15-3 25 6 33 7-8 4-14 15-29 18-15 2-34-8-34-8zm60-9c-8-2-11-7-24-9m15 10c-9-2-12-8-24-9m13 11c-9-1-10-7-22-7m10 9c-8-2-7-6-17-5m7 6c-5-1-6-3-13-1m55-5c-7 4-9 10-20 15m11-14c-8 5-9 11-20 16m9-14c-8 4-8 9-19 13m7-11c-7 3-5 8-15 9m5-8c-5 3-5 6-12 5"/><path d="M1142-395l-30 5-39 6 39-6 30-4m-40-61s20 7 28 20c9 12 4 25 7 33-6-5-20-7-28-19-8-13-7-34-7-34zm34 51c-2-9 1-14-3-25m-3 17c-1-9 2-14-2-26m-4 16c-2-8 2-11-3-22m-3 13c-3-8 2-10-4-18m-2 9c-1-5 1-7-4-12m28 48c-8-5-13-4-23-12m17 4c-7-5-13-4-22-12m16 2c-7-5-11-3-20-11m14 2c-7-6-10-2-15-10m9 1c-4-3-7-2-10-9"/><path d="M1141-396l-17-26-22-33a9167 9167 0 0038 59"/><g id="i" stroke-width="3"><path d="M1214-402s16 13 20 28c4 14-4 25-4 34-4-8-16-13-20-28-4-14 4-34 4-34zm15 59c1-9 6-13 6-25m-8 16c1-9 6-13 6-25m-9 14c0-9 5-11 5-23m-8 11c0-8 5-8 2-17m-5 8c1-6 3-7 0-14m11 55c-5-7-10-8-17-19m15 10c-5-7-12-8-18-19m15 8c-5-8-10-7-15-18m12 6c-5-7-9-4-11-14m8 5c-3-5-6-5-6-12"/><path d="M1232-334l-8-29-10-38 10 38a5074 5074 0 008 29m-65 39s8-19 21-27c13-7 26-3 34-5-6 6-8 20-21 27-13 8-34 5-34 5zm53-30c-9 1-14-2-25 1m16 3c-8 2-13-2-25 1m16 5c-9 2-12-2-23 2m13 4c-9 2-10-3-18 2m9 3c-6 1-8-1-13 4m50-25c-6 6-5 12-14 21m5-17c-5 7-4 14-13 22m4-16c-6 6-4 11-13 19m3-13c-6 6-3 9-11 14m2-9c-4 4-3 7-10 9"/><path d="M1228-330l-26 15-35 20 35-20a5074 5074 0 0026-15"/></g><path d="M1182-442s20-8 34-4c15 4 20 16 28 21-9 0-20 8-34 4-15-4-28-21-28-21zm59 16c-7-5-8-11-19-17m10 14c-7-5-8-12-19-17m8 14c-8-4-7-10-17-15m5 12c-7-4-4-8-14-11m5 9c-5-3-5-6-12-7m53 18c-9 1-13 5-25 5m16-8c-9 1-13 7-25 7m14-10c-9 1-11 6-23 5m11-8c-8 1-8 5-17 3m8-5c-6 0-7 3-14-1"/><path d="M1250-424l-29-8a9182 9182 0 000 1 5074 5074 0 0029 8m-35-74s20 8 27 21c8 13 3 26 5 34-6-6-20-8-27-21-8-13-5-34-5-34zm30 53c-1-9 2-14 0-26m-4 17c-2-8 3-14-1-25m-5 15c-2-8 2-11-1-22m-5 12c-2-8 3-9-2-18m-3 9c-1-5 1-7-3-12m24 50c-6-6-12-6-21-14m17 5c-7-5-14-4-22-13m16 3c-6-5-11-3-19-12m13 2c-6-5-9-2-14-11m9 2c-4-3-7-2-9-9"/><path d="M1250-436l-15-27a9223 9223 0 0015 27"/><use transform="translate(-32 -18)" width="744" height="1052" xlink:href="#h"/><path d="M1142-298s17 13 21 28c4 14-4 25-4 34-4-8-17-13-21-28-4-14 4-34 4-34zm16 59c1-9 5-13 6-25m-8 16c1-9 6-13 6-25m-9 14c0-9 5-11 4-23m-7 11c0-8 5-8 2-17m-5 8c0-6 3-7 0-14m11 55c-5-7-11-8-17-19m15 10c-5-7-12-8-18-19m15 8c-5-8-10-7-15-18m12 6c-5-7-9-4-11-14m8 5c-3-5-6-5-6-12"/><path d="M1161-230l-8-29-10-39a9314 9314 0 0017 68m-53 57s2-21 13-31c11-11 24-10 32-14-5 8-3 21-14 32-11 10-31 13-31 13zm42-43c-7 4-13 2-24 8m18-1c-8 3-14 1-25 7m17 1c-8 4-12 1-22 7m13 1c-7 4-9 0-16 7m9 1c-5 2-7 0-11 6m41-37c-3 8-1 14-7 24m1-17c-4 8-1 14-7 25m-1-17c-4 8-1 12-8 22m-1-14c-3 8 1 10-6 17m-1-9c-2 4-1 7-7 11"/><path d="M1156-223l-21 22-28 28 28-28a5074 5074 0 0021-21"/><use transform="translate(-62 -40)" width="744" height="1052" xlink:href="#i"/><use transform="translate(-31 -20)" width="744" height="1052" xlink:href="#i"/></g><use transform="matrix(-1 0 0 1 2501 0)" width="744" height="1052" xlink:href="#j"/><path d="M1251-437c-9 42-9 79-9 79-1 14-8 24-14 20-55-32-60-38-89-60 24 27 31 39 87 71 10 6 12 16 11 29l-1 62c-1 9 5 50-23 34-65-37-64-34-95-52 38 33 24 24 91 62 12 7 24 25 24 33 0 124 2 101-13 139h61c-15-38-13-15-13-139 0-8 12-26 24-33 67-38 52-29 90-62l-94 52c-28 16-22-25-23-34l-1-62c-1-13 1-23 11-29 56-32 63-44 87-71-29 22-34 28-89 60-6 4-13-6-14-20 0 0 0-37-9-79z" fill="#947245"/></g><path d="M264 425c0 1 2 12 1 15l-2 11-4 25-1 2v10l4 19 2 3v2l2 4 1 1h2l1 2h-7c1-2-2-3-2-3l-3-3v-3l-3-11-1-4c0-5-1-7-3-13-1-1-2-1-2-3l1-1v-1l1-16a2 2 0 000-1c1-8-4-17-7-25l-1-4c-3-1-5-6-6-10-1-3-2-8-1-11l1-3m63 37l3-1 1 2 4 21 2 8v4l1 2 1 4 2 8 3 16v5l4 6c0 1 0 0 0 0l1 1h2a6 6 0 001 0h6c-1-2-3-3-5-3l-2-2-3-4v-2l-2-23v-5l1-39 4-4" fill="#e3e4e5" stroke-linecap="square" transform="matrix(.27413 0 0 .2759 341 162)"/><path d="M357 324a7 7 0 00-6 2l-3 11v2l-1 5-2 26c-1 6-6 14-8 17l-5 2h-7c-9-1-21-5-30-7l-26-1s-10-4-19-1-14 7-22 20l-4 5c0 4 2 10 6 13 1 1 0 0 0 0l1 3 4 5 1 5c4 8 2 16 2 26a2 2 0 010 1c-1 6-6 13-6 19v1l-1 2c0 1-2 2-1 3l4 13 1 4 5 13v3l3 2s3 2 3 5h6l-1-3h-2l-1-1-2-4v-3l-3-3-5-20c-1-5 3-8 3-12l5-13c3-8 9-22 9-28v-4c1-4-2-14-1-15 12 21 24 28 44 26h3v2c1 3-1 15-2 21v8l-1 4v14c-1 8-1 12-3 15l-1 2-2 2 1 2v1l1 6v1l1 1 1 1h7c0-2-2-3-3-4l-1-2v-8a175 175 0 017-27l1-5 5-30 2-3c6-2 12-4 18-8 6-5 10-12 15-18l3-5c4-6 9-21 10-28 2-8 1-17 3-27l3-6h1l4-1h5l2 1 1-1 1-1h1l1-1 1-1v-1l-1-1v-4l-1-1-1-1-6-6v-1c0-3-2-3-5-6-3-1-6-3-10-3h-2z" fill="#fff" stroke-linecap="square" transform="matrix(.27413 0 0 .2759 341 162)"/><path d="M439 251a2 2 0 00-2 1l-1 3v2l-1 7-2 5-1 1-2-1-8-1-8-1h-5c-2 1-4 2-6 5l-1 2 2 3v-2l1 3 1 1 1 7-1 5v3l3-7 1-5v-7c4 8 10 8 15 3l-1 7v1l-1 7v3l1-1a4 4 0 000-1l1-9a1 1 0 011 0l1-1 1-6c-1-5 6-6 8-4l2-1 1-3a18 18 0 001-3v-4a21 21 0 010-2h1v-2h-2l-1-1v-3c1-1 1 0 3 1l3 1h2l-1-1-2-2c1 0 1 0 0 0l-1-2-3-1z" fill="#d18219" stroke="none"/><path d="M357 324a7 7 0 00-6 2l-3 11v2l-1 5-2 26c-1 6-6 14-8 17l-5 2h-7c-9-1-21-5-30-7l-26-1s-10-4-19-1-14 7-22 20l-4 5c0 4 2 10 6 13 1 1 0 0 0 0l1 3 4 5 1 5c4 8 2 16 2 26a2 2 0 010 1c-1 6-6 13-6 19v1l-1 2c0 1-2 2-1 3l4 13 1 4 5 13v3l3 2s3 2 3 5h6l-1-3h-2l-1-1-2-4v-3l-3-3-5-20c-1-5 3-8 3-12l5-13c3-8 9-22 9-28v-4c1-4-2-14-1-15 12 21 24 28 44 26h3v2c1 3-1 15-2 21v8l-1 4v14c-1 8-1 12-3 15l-1 2-2 2 1 2v1l1 6v1l1 1 1 1h7c0-2-2-3-3-4l-1-2v-8a175 175 0 017-27l1-5 5-30 2-3c6-2 12-4 18-8 6-5 10-12 15-18l3-5c4-6 9-21 10-28 2-8 1-17 3-27l3-6h1l4-1h5l2 1 1-1 1-1h1l1-1 1-1v-1l-1-1v-4l-1-1-1-1-6-6v-1c0-3-2-3-5-6-3-1-6-3-10-3h-2z" fill="none" stroke-linecap="square" transform="matrix(.27413 0 0 .2759 341 162)"/><path d="M382 344v0z" fill="#d39044" stroke-linecap="square" transform="matrix(.27413 0 0 .2759 341 162)"/><path d="M335 433c-2 8-7 10-3 17 0 0-2 0-3-3l-1-6a45 45 0 011-9" fill="#fff" fill-rule="evenodd" transform="matrix(.27413 0 0 .2759 341 162)"/><path d="M339 429c-2 9-7 10-4 18l-3-3a19 19 0 010-12l1-3" fill="#fff" fill-rule="evenodd" transform="matrix(.27413 0 0 .2759 341 162)"/><path d="M346 418l-7 15c-1 4-2 6 1 10l-4-4-1-7a31 31 0 011-4l1-3" fill="#fff" fill-rule="evenodd" transform="matrix(.27413 0 0 .2759 341 162)"/><path d="M349 415l-4 8-3 10c0 2 0 4 2 7h-2l-2-3-1-6v-6l2-4" fill="#fff" fill-rule="evenodd" transform="matrix(.27413 0 0 .2759 341 162)"/><path d="M353 335c0-1-11-4-13-14 2-2 14 5 14 13" fill="#d18219" fill-rule="evenodd" stroke-width="1" transform="matrix(.27413 0 0 .2759 341 162)"/><path d="M340 321c1 0 7 0 12 10-2-1-6 2-12-10m29 15v-1c-5-3-5 1-9 1h3c2 3 4 3 6 0" fill-rule="evenodd" stroke-width="1" transform="matrix(.27413 0 0 .2759 341 162)"/><path d="M381 350l-4-1" fill="none" stroke-linecap="square" transform="matrix(.27413 0 0 .2759 341 162)"/><path d="M382 346l-4-1s3-3 3 0" fill-rule="evenodd" stroke-linecap="square" transform="matrix(.27413 0 0 .2759 341 162)"/><path d="M303 437a34 34 0 00-1 2c-1 2-2 4 0 8l-2-3-1-6v-3" fill="#fff" fill-rule="evenodd" transform="matrix(.27413 0 0 .2759 341 162)"/><path d="M231 419s-2-6 2-13" fill="none" transform="matrix(.27413 0 0 .2759 341 162)"/><g fill="#e7ca00" stroke-width="2"><path d="M401 879c-2-1-4-6-3-8-3-3-10 2-6 8 3 7 8 6 9 0zm20 6c0-3-1-9-7-10-7-1-9 4-7 10 4-3 11-2 14 0z" transform="matrix(.02666 -.34238 .30978 .02947 204 442)"/><path d="M407 882c1-5 6-6 11-6-3-3-6-8-10-5-4 2-6 6-1 11z" transform="matrix(.02666 -.34238 .30978 .02947 204 442)"/><path d="M405 879c0-3 2-8 6-10-4-3-12-2-13 4 0 6 3 8 7 6zm-16 40c5 1 12-1 10-13s-10-14-11-12c5 2 5 18 1 25z" transform="matrix(.02666 -.34238 .30978 .02947 204 442)"/><path d="M397 918c5 1 13-2 10-14-4-11-13-10-13-7 5 2 6 13 3 21z" transform="matrix(.02666 -.34238 .30978 .02947 204 442)"/><path d="M377 918c4 4 14 5 17-7 3-11 0-14-4-16 2 6-5 22-13 23zm25-1c3-2 11-5 6-16-4-9-10-5-12-3 5 1 8 11 6 19z" transform="matrix(.02666 -.34238 .30978 .02947 204 442)"/><path d="M409 915c3-2 11-7 5-18s-14-4-14-1c3 1 9 10 9 19z" transform="matrix(.02666 -.34238 .30978 .02947 204 442)"/><path d="M417 907c2-3 7-9-1-17-8-6-13 2-12 5 3-1 11 5 13 12z" transform="matrix(.02666 -.34238 .30978 .02947 204 442)"/><path d="M421 896c1-3 2-12-7-14s-9 8-8 10c2-2 11-1 15 4zm-50 19c3 4 13 7 19-4 5-11 2-15-1-17 1 6-9 21-18 21z" transform="matrix(.02666 -.34238 .30978 .02947 204 442)"/><path d="M361 907c3 6 19 14 25 2s1-22-4-27c3 12-12 30-21 25z" transform="matrix(.02666 -.34238 .30978 .02947 204 442)"/><path d="M352 898c8 18 24 15 30 2 5-12 4-19-2-24-4 15-12 23-28 22z" transform="matrix(.02666 -.34238 .30978 .02947 204 442)"/><path d="M342 884c6 22 27 19 36 7 6-9 4-16 1-19-7 8-19 15-37 12z" transform="matrix(.02666 -.34238 .30978 .02947 204 442)"/><path d="M338 871c1 22 26 24 37 12 8-9 8-16 6-20-9 9-26 19-43 8z" transform="matrix(.02666 -.34238 .30978 .02947 204 442)"/><path d="M333 850c-4 29 29 38 43 21 8-9 8-16 5-19-14 10-39 11-48-2z" transform="matrix(.02666 -.34238 .30978 .02947 204 442)"/><path d="M329 824c-9 30 20 41 39 38 14-2 23-20 21-24-19 13-56 2-60-14z" transform="matrix(.02666 -.34238 .30978 .02947 204 442)"/><path d="M329 800c-13 30 15 47 39 45 15-1 27-7 27-19-23 8-58-6-66-26z" transform="matrix(.02666 -.34238 .30978 .02947 204 442)"/><path d="M330 775c-13 31 15 56 43 56 15 1 22-3 28-13-21 4-65-28-71-43z" transform="matrix(.02666 -.34238 .30978 .02947 204 442)"/><path d="M330 765c-12 36 80 81 85 34-22 11-82-21-85-34z" transform="matrix(.02666 -.34238 .30978 .02947 204 442)"/><path d="M328 756c-16 19 93 78 95 28-10 5-30 1-49-8-20-9-33-23-46-20z" transform="matrix(.02666 -.34238 .30978 .02947 204 442)"/><path d="M311 751c20 1 61 31 89 36 18 3 33-4 24-35-28 29-83-18-111-7-3-2 0 8-2 6z" transform="matrix(.02666 -.34238 .30978 .02947 204 442)"/><path d="M315 756c19-12 58 10 86 11 17 1 38-19 24-47-22 37-83 7-108 27-2 4-1 10-2 9z" transform="matrix(.02666 -.34238 .30978 .02947 204 442)"/><path d="M307 757c20-15 62-6 88-9 18-1 44-32 20-57-15 54-65 27-107 58-2 6 0 9-1 8z" transform="matrix(.02666 -.34238 .30978 .02947 204 442)"/><path d="M314 752c17-16 58-15 82-27 17-8 33-44 5-62-3 57-55 39-88 81-1 6 3 9 1 8z" transform="matrix(.02666 -.34238 .30978 .02947 204 442)"/><path d="M316 744c12-22 50-27 71-46 18-16 23-46-8-55-2 59-44 46-60 82-4 8-2 20-3 19z" transform="matrix(.02666 -.34238 .30978 .02947 204 442)"/><path d="M326 722c12-20 22-13 42-34 17-18 22-60-8-61 5 51-15 52-29 79 0 7-4 16-5 16z" transform="matrix(.02666 -.34238 .30978 .02947 204 442)"/><g stroke-width="3"><path d="M310 603l-10 5-50 154 18 40 17 3 21-2 31-138 8-57-21-12-14 7z" fill-rule="evenodd" transform="matrix(.01816 -.28057 .21499 .02864 268 417)"/><path d="M309 597l2 7c9-7 20-1 23 15s-3 39-14 57c-6 15-14 32-17 56-2 19 2 42-2 63-3 10-8 9-18 8 4 7 9 11 16 11 14-4 25-17 28-45-4-24-3-48 10-72 12-12 22-26 26-50 2-13 0-26-9-39-12-18-21-18-30-17l-15 6z" transform="matrix(.01816 -.28057 .21499 .02864 268 417)"/></g><path d="M-326 630c0-3 2-6 5-6 2 0 4 3 4 6h-9z" transform="matrix(1.42023 .479 .59921 -1.38227 519 1387)" fill-rule="evenodd" stroke-width="1"/><path d="M296 723c-4 7-12 11-17 7-6-3-7-11-3-19 4-7 11-10 17-7 5 3 6 12 3 19zm-19-82c-3-4-7-6-11-5-2 0-4 2-6 4l-1-1c-1-8 5-17 12-18 3-1 6 0 8 3-1 2-2 5-1 8a15 15 0 001 4 18 18 0 00-2 5z" transform="matrix(.02666 -.34324 .30978 .01956 206 444)"/><path d="M300 632c-3-3-6-5-11-5-4 1-8 4-10 8a19 19 0 01-2-4c-1-9 7-19 14-20h6v4c0 4 2 8 5 11l-2 6zm-42 45v1c-4 0-7-2-9-5 3 3 6 4 9 4zm7-13c-4-3-7-7-8-13-2-8 6-18 13-19a9 9 0 012 0c-3 4-4 8-3 13 0 3 1 5 3 7-4 3-6 7-7 12z" transform="matrix(.02666 -.34324 .30978 .01956 206 444)"/><path d="M258 689c-2 1-4 1-6-1-4-2-5-10-2-17 3-6 9-9 13-6l4 5a8 8 0 00-6 1c-4 2-7 8-5 14a11 11 0 002 4z" transform="matrix(.02666 -.34324 .30978 .01956 206 444)"/><path d="M262 694c-3-1-5-4-7-7-3-7-1-16 5-20 3-1 6-2 9 0-1 3-1 6 1 9 1 4 3 6 6 7-3-1-5 0-8 1-3 2-5 6-6 10zm-5 49c-7-4-11-14-9-21 1-6 6-8 12-6-2 5-3 12-1 18 1 5 4 9 8 12-3 0-6 0-10-3z" transform="matrix(.02666 -.34324 .30978 .01956 206 444)"/><path d="M252 770a12 12 0 01-1-1c-6-7-7-17-3-23 3-6 10-6 16-1-3 7-3 16 1 23-3-2-6-2-10 0a14 14 0 00-3 2z" transform="matrix(.02666 -.34324 .30978 .01956 206 444)"/><path d="M268 784c-5 0-11-6-12-15-2-9 1-17 7-19 3 5 7 8 12 8-7 5-10 16-7 25v1zm-3-66c-6 2-14-3-17-11s0-16 6-18l5-1c2 5 5 9 8 11a26 26 0 001 17l-3 2z" transform="matrix(.02666 -.34324 .30978 .01956 206 444)"/><path d="M270 728c-7-5-11-14-10-21 2-7 9-9 16-5l5 5a25 25 0 00-3 23c-2 0-5 0-8-2z" transform="matrix(.02666 -.34324 .30978 .01956 206 444)"/><path d="M285 751c-4 8-11 10-17 6-5-4-7-13-3-21 3-8 11-11 16-6 6 4 7 13 4 21zm-10-48c-3 2-7 2-11 1-6-4-7-13-3-21 3-5 8-9 13-9 3 2 5 3 8 2l1 1c-8 3-12 13-10 22a16 16 0 002 4z" transform="matrix(.02666 -.34324 .30978 .01956 206 444)"/><path d="M284 666c1 8-4 15-10 16-7 1-13-5-14-13-1-5 2-11 6-15 2 5 7 7 11 7l5-2a23 23 0 012 7z" transform="matrix(.02666 -.34324 .30978 .01956 206 444)"/><path d="M287 706c-5 3-12-2-14-10-3-8 0-17 6-20l5-1a25 25 0 00-1 3c-4 10-2 21 3 25l3 1a10 10 0 01-2 2z" transform="matrix(.02666 -.34324 .30978 .01956 206 444)"/><path d="M305 668l-2 8c-5-3-12 0-15 7-5-2-8-6-9-11-1-8 5-17 12-18v1c1 8 7 13 13 12l1 1z" transform="matrix(.02666 -.34324 .30978 .01956 206 444)"/><path d="M304 697c-5 9-13 13-20 9-6-4-8-15-3-24 4-10 12-14 19-10 6 4 8 15 4 25zm-15-42c-1 3-3 6-6 7-6 3-14 0-17-8-3-7 1-18 7-21 3-2 6-2 8 0-1 10 2 19 8 22zm32-41l-1 8c-3-4-6-5-10-5-4 1-8 5-10 10-3-3-4-6-5-9-1-8 5-17 12-18s12 6 14 14z" transform="matrix(.02666 -.34324 .30978 .01956 206 444)"/><path d="M322 631c1 6-3 12-8 14-3-3-6-5-10-5a10 10 0 00-3 1l-3-7c-1-7 5-16 12-17 6 0 11 6 13 14h-1z" transform="matrix(.02666 -.34324 .30978 .01956 206 444)"/><path d="M293 654c-3 2-6 3-9 1-5-4-7-13-3-20 3-8 10-11 15-8 3 2 5 6 5 9-5 4-9 12-8 18zm-37 145c-5 2-12-3-14-11s1-18 7-21c5-3 12 1 15 8-7 5-10 15-8 24z" transform="matrix(.02666 -.34324 .30978 .01956 206 444)"/><path d="M271 804c-7 3-14-1-16-9s1-16 7-19 12 0 15 6c-6 4-9 13-6 22z" transform="matrix(.02666 -.34324 .30978 .01956 206 444)"/><path d="M268 818c-6 2-12-1-14-8-2-5-1-10 1-13 4 3 10 4 14 2a15 15 0 003-2 14 14 0 012 4v7l-4 8-2 2zm8 29c-6 3-13-1-16-9-2-7 1-16 8-19h1l1 9c2 7 7 12 12 13-1 3-3 5-6 6z" transform="matrix(.02666 -.34324 .30978 .01956 206 444)"/><path d="M285 848c-6 3-13-1-15-8a18 18 0 010-10c4 4 9 5 14 2 3-1 5-3 7-6a17 17 0 011 4c2 7-1 16-7 18z" transform="matrix(.02666 -.34324 .30978 .01956 206 444)"/><path d="M293 863c-6 3-13-1-15-8l-1-6 8-1c4-2 7-7 8-12 3 2 6 5 7 9 2 7-1 16-7 18zm-20-77c-3-2-5-5-6-9-3-8 1-17 8-20 6-3 14 1 16 9 2 6 1 13-3 18-3-2-7-3-11-1l-4 3zm47-134c1 6-6 17-12 18-7 1-11-2-14-6-3-5-5-10-3-15 2-6 6-11 11-13 4-2 7-1 10 2 4 3 7 7 8 14z" transform="matrix(.02666 -.34324 .30978 .01956 206 444)"/><path d="M285 809c-6 2-13-1-15-9-2-7 1-16 7-19 6-2 13 1 15 9 2 7-1 16-7 19z" transform="matrix(.02666 -.34324 .30978 .01956 206 444)"/><path d="M283 834c-6 3-13-1-15-8-2-8 1-16 7-19 6-2 13 1 15 9 2 7-1 15-7 18z" transform="matrix(.02666 -.34324 .30978 .01956 206 444)"/></g></g><path d="M409 236v1l-20 25h-1l1 1c6 6 10 16 10 24 0 11-2 18-4 25-3 9-7 17-8 31-1 10 3 17 8 23 4 6 10 9 13 11 11 5 21 3 32 4 4 1 7 4 9 6l1 1 1-1c2-2 5-5 9-6 11-1 21 1 32-4 3-2 9-5 13-11 5-6 9-13 8-23-1-14-5-22-8-31-2-7-4-14-4-25 0-8 4-18 10-24l1-1h-1l-20-25v-1l-1 1c-6 5-13 7-20 7s-14-3-20-7c-6 4-13 7-20 7s-14-2-20-7l-1-1zm0 3c7 5 14 7 21 6 7 0 13-2 19-6v72h-52c2-6 4-13 4-24-1-8-4-18-11-25l19-23zm82 0l19 23c-7 7-10 17-10 25-1 11 1 18 3 24h-52v-72c6 4 12 6 19 6 7 1 14-1 21-6zm-95 74h108c3 9 6 17 7 30 1 9-2 17-7 22-4 5-10 9-13 10-10 5-20 3-31 5-5 0-8 3-10 6-2-3-5-6-10-6-11-2-21 0-31-5-3-1-9-5-13-10-5-5-8-13-7-22 1-13 4-21 7-30z" fill="#e7ca00" stroke="#d4af37"/><g fill="#008f4c"><path d="M525 204l-1 6-1 5-3-2c-4-2-14-3-14-1l2 11c1 1 0 1-2 2l-5 2c-1 1-1 1 2 4l4 3-2 1c-1 1-1 1 4 7 6 5 9 7 13 7h4l5-1c4 0 8 2 9 3l1 2c-3-3-8-4-10-4h-3c-2 0-1 1-3 3 0 2 1 5 3 5 3 0 5-1 5-4v-3c3 0 8 3 8 6 2 4 1 4-1 2-1-3-4-5-5-5l-2 5-1 1-4-1h-2l1 3 2 6 1 3-3-1c-8-2-7-2-7 2l1 4c1 2 0 2-2 2h-3c0 2 6 10 8 12l13 5 6 2 3 1v5l-2 14-3-5c-2-5-2-5-3-4h-1l-5-10-2-2-1 2-1 2-3-5-5-3-1 4c-1 6-1 6-3 4l-2-2-1 2c-1 3 0 15 2 19l2 9c1 6 4 12 8 16l1 2-3 1c-2 3 0 7 4 6l4 1v8c-1 2-5 4-6 3v-10l-4 2c-9 4-16 16-18 26 0 3-2 3-4 7-3 1-5 2-7 5-3 3-4 4-10 5a523 523 0 00-75 13l-4 3v3c2 4 6 4 14 0l10-4 10-1 13-3c29-4 39-7 51-11l15-2c8 1 18-2 23-5l5-7 6-6c2-2 1-3-6-3h-6l2-4 4-12h-4l-5 1 1-2c0-2 1-3 2-3l3-1 4 1c3 1 3 1 2 3 0 3 1 5 4 5 2 0 4-2 4-4s-3-4-4-4l-6-1-4-1 4-1c6-1 7-1 8 1l3 2c5 0 6-6 2-8-2 0-5 2-5 3l-3 1-8 1 5-3 10-3c6-3 12-10 15-17l3-19-5 2c-5 3-5 3-5 1l2-13-1-1c-2 0-9 4-13 8l-5 2 1-4c2-2 2-2 5-2l4-1c1-3 0-5-2-6s-1-1 1-2c3-2 7-5 9-10l2-3-3 1h-2l1-3 1-6-4-15-3 1-3 3-2-6-3-6-2 1c-3 2-3 1-1-3s3-4 5-3c2 2 5 0 5-3l-1-3-3-1-2-2c-1-1-1-2-3-2-3-1-6 3-3 6v7c-1 8-2 9-3 5s0-15 1-19c3-6 1-15-3-20-4-4-13-11-15-10zm-5 19l8 7c3 5 8 12 10 18l-4-6-10-14-4-5z" fill="#00a854"/><path d="M538 299v5l3 1c2 0 3 2 5 7 0 1 0 1 0 0l-1-4-1-4c1 0 1-4-1-5-2-2-3-1-5 0z"/></g><path d="M406 414c-2 2-2 4-1 5 2 1 7 0 8-2 1-3-4-5-7-3z" fill="#9eab05"/><path d="M527 209c0 4 4 11 6 14l2 2-4-9-4-7zm-24 19l11 4c0-2-3-3-7-4h-4zm4 9l17 8 6 1c2-1 2-1-2-2l-9-3c-4-3-13-5-12-4zm41 18l-3 21v8c1 1 1 0 2-6a282 282 0 001-23zm-12 6c0 6 3 12 4 9l-2-8-2-6v5zm-8 0l2 3 2 2v-1l-2-4h-2zm-10 18l10 8c2 1 2 1 0-2l-9-7-1 1zm4 15l4 13h1s-3-11-5-13l-1-2 1 2zm8 6l1 5 2 2-1-5c-1-4-2-5-2-2zm-15 5l10 20c4 6 4 6 4 3 0-2 0-3-3-8a750 750 0 01-11-15zm45 1l-12 17v3a127 127 0 0016-23l-4 3zm-11 53c-2 2 0 4 2 4s3-2 2-4c0-2-4-2-4 0z" fill="#75b52b"/><path d="M528 251c-3 2 0 7 3 5 1-1 2-4 0-5l-2-1-1 1zm18-15c-1 0-2 2-1 4 1 3 5 2 5-1 0-2-2-4-4-3zm5 5v3l2 1c3 0 4-1 3-3s-4-2-5-1zm-27 106c-2 2 0 6 3 4 2 0 2-2 2-3-1-2-3-3-5-1zm15-48v5c2 2 5 0 5-3-1-2-1-2-3-2h-2zm13 0c-1 2 1 4 3 4 1 0 3-1 2-3 0-2 0-2-2-2-2-1-3 0-3 1zm2 52c-1 2 1 4 2 4 2 0 3-1 3-3s-1-2-2-2l-3 1zm-5 7c-2 2 0 6 4 5 1-1 2-3 1-4-1-2-3-2-5-1z" fill="#d91023"/><path d="M520 223l3 4 9 12 6 8-9-15-9-9z" fill="#75b52b"/><path d="M538 313l-1 11a224 224 0 01-4 36v1l1-2 5-4 4-4a206 206 0 0028-35l-11 13-9 10-16 16 1-3c2-7 2-14 2-29a237 237 0 000-10zm-17 46l-4 7c-5 9-11 16-15 21l-1 1c-2 2 5 3 10 4 7 1 11-1 29-11l5-2-13 4c-8 4-11 6-15 6l-9 1-1-1h3c0-1 1-2 3-2l11-9 11-11-7 6c-9 8-18 14-22 14h-1l1-1 4-4a90 90 0 0011-23zm0-91l8 10 10 12 8 8c5-6 8-15 10-21 2-5 4-10 4-17l-5 15-9 21-15-18c-5-6-11-10-11-10z" fill="#eac102"/><path d="M524 208l-1 7-2-2-13-2c-2 0-2 0-2 2l3 10-3 2-4 2c-2 1-1 1 1 3 4 3 4 4 2 5-1 1-1 2 4 6l8 7h15c2-2 3-2 4-1h1l-7-4c-10-5-18-14-22-24v-8l13 3c5 3 15 12 17 17 2 4 2 5 2 10 0 7 1 9 1 3l2-11c2-5 1-13-2-18l-9-7-6-5c-1-1-1 2-2 5zm9 1l8 8c2 5 3 11 2 15l-1 3-2-4c-1-3-4-6-8-10l-7-6v-9c1-2 0-2 8 3zm-23 18l3 3 1 2c1 1 0 1-3 1s-4 0-7-2l-2-4 6-2 2 2zm10 11c4 4 5 4 10 6 3 1 3 2 2 3-2 1-10 2-13 1s-14-12-13-12l7-2 7 4zm20 13l1 3v7l-1 5-1 5-1 3-2-2-3-3 1-11c0-3 1-4 2-4v-1c-1-1-1-1-2 1l-1 3c0 2 0 2-2 1-4-1-5-1-5 1l3 9c2 2 2 1 0-2-2-4-2-8-1-8l2 1c2 1 2 2 2 6 0 6-1 6-8 4l-4-1 2 8-3 1-4-1 2 4c5 8 11 12 20 14l7 2h2l-4-2c-4-1-8-4-13-9-5-6-8-11-8-14l1-2 6 2c6 1 7 2 11 6s6 7 7 13l1 5c1 1 2-3 1-5-1-5 0-14 5-22 1-4 7-9 8-8l2 7c2 7 1 9-2 16-2 5-5 8-9 11-2 2-2 3 2 2s9-6 12-11l2-3-3 1h-3l2-4v-12l-2-7-1-2-2 2-3 2c-1 1-2 0-4-6l-3-5-2 2-2 2v-4l-1 2c0 4-1 4-2 0-1-1-1-3-2-2zm11 18c-2 4-4 8-4 11l-1 5-1-2-3-6c-2-2-2-2-1-7 1-8 2-12 5-15l3-3 2 5 3 5-3 7zm-27 11l10 12c-7-1-11-5-15-10l-2-4 2-1 5 3zm40 6c-2 4-4 6-7 8l-3 1 3-3 4-6c2-2 3-3 5-3l-2 3z" fill="#cab313"/><path d="M538 256l3 4-2-3-1-1z" fill="#005000"/><path d="M519 293l-1 6v2l-2-1-2-2-1 3c-1 5 0 11 2 18l2 9c1 6 7 14 14 19l2 5v4-4l-2-11c-2-11-1-15 4-25l4-8 3 8c6 10 6 13 3 21l-2 7-1 2v1c-1 1-1 1 0 0l-3 2-3 4c0 2 0 2 1 0a225 225 0 002-3l2-2c1 1 2-1 5-7 3-10 5-13 10-18l11-7 7-3-3 16c-1 4-5 10-8 13s-9 6-15 7l-5 2 11-3c7-3 14-10 17-18 2-3 4-18 4-18l-6 2-5 2 1-5 1-8c1-3 1-3-1-3-3 1-10 5-13 9l-5 4 1-7c0-4 0-6-1-5l-1 5-2 10-3-4c-2-5-3-6-3-4l-2-4c-1-2-2-5-4-6l-2-3-1 2-1 2-3-3-4-5-2 2zm5 3c3 3 9 14 10 17v2l-1-2-12-11c-2-1-2-1-2-3a119 119 0 012-7l3 4zm10 6c2 5 3 7 2 9s-7-11-7-13c1-1 1-2 2-1l3 5zm-12 3c4 3 9 7 10 10 1 1 1 2-1 5s-3 11-2 16v4l-8-10c-5-9-8-22-7-28v-3l2 1 6 5zm43 0l-1 7c-1 4-1 4-5 6l-7 7-4 4-1-4-1-6v-4c3-5 16-14 19-14v4zm-39 34c3 3 5 5 4 6l-3-2c-4-4-8-9-8-12-1-2 0-2 1 1l6 7zm-7 18c-7 5-14 16-16 24 0 3-2 5-2 4 0 1 3 0 4-3 1-7 7-19 13-23l5-3v6c0 5 0 7-2 10-2 4-8 10-12 13-3 2-3 3 0 1 3-1 12-10 14-14l2-5 2-2 16-4-7 15c-3 3-9 8-13 9l-7 3h-6l-3 2 3-1h7c8-3 11-5 16-9l4-3 6 1h5l-2 3a677 677 0 00-6 7l-5 5c-3 2-11 4-17 4s-6 0-9-3-4-3-4-2l-6 2c-5 2-7 2-3-1l5-1h5l-5-1c-3 0-3 0-1-3 2-1 3-4 2-4l-10 10c-5 3-5 4-11 5l-15 3c-7 1-10 3-3 1l14-2c9-2 9-2 14-5 3-3 4-4 2-1-1 3 0 3 7 0 6-2 6-2 7-1 2 1 2 2-1 3l-29 7-12 3 9-1 14-3 16-5c5-2 5-2 9-1 5 1 13 0 19-2 4-1 7-4 12-10l5-6 2-2h-6l-7-1 1-2 3-8 2-6h-2l-5 1-3 1 1-3 1-2-1 2c-2 3-3 3-3 1v1l-3 3-4 1-1-5v-6l-5 3zm-66 47l-27 4-14 2-1 1h-2c-3 1-7 4-7 6s3 4 4 4c2 0 2 0 0-1-3 0-4-3-2-5s12-5 17-6a299 299 0 0032-5z" fill="#cab313"/><path d="M441 411c-13 2-21 4-25 6-5 3-4 3 1 1a413 413 0 0035-8l4-1h-3l-12 2z" fill="#cab313"/><path d="M497 392c-2 1-4 4-2 4l10-4h-8z" fill="#fff"/><g stroke="#d4af37"><path d="M368 432l-9 1-13-1c-6 0-6 0-16 7-7 5-16 4-23 3l-5-2c1 2 9 5 13 5 8 0 13-2 21-7 7-4 10-5 19-3 10 2 12 2 21-2h-4l1-4-2 1-3 2z" fill="#fff" transform="matrix(.83739 0 0 .82218 199 51)"/><path d="M354 430c-5-1-8-2-11-1-4 0-6 2-10 4l-8 5-10 1-9-2c-5-2-7 1-2 4 6 1 11 2 16 1 5 0 10-2 14-5l6-5h6l15 1c8 0 6-1 9-2l4-3 1-2c-8 5-11 5-21 4z" fill="#d91023" transform="matrix(.83739 0 0 .82218 199 51)"/><path d="M341 435l-7 4c-6 4-12 6-19 6-3 1-13-4-11-3 1 3 4 3 9 4h11c5-1 7-3 9-5 5-3 12-5 14-5l9 3h11c5-1 8-4 12-7l-4 1c-6 3-16 4-21 2h-13z" fill="#d91023" transform="matrix(.83739 0 0 .82218 199 51)"/></g><path d="M389 210c-9 3-19 11-25 19l-3 3 2-8 2-10-3 2c-4 4-8 12-10 18l-1 13v9l-2-6c-2-7-3-12-5-14h-2c-2 2-1 11 2 17l-2-2-3-4-1 10c1 3 1 3-1 0-4-5-5-5-5-2l1 5 1 2-2 1c-4 1-5 2-5 4l3 11c1 0 2 0 3-5l1-3 2 3c4 5 10 17 13 25 3 9 3 11 0 5l-4-7-19-20c-1 0 0 5 2 9l6 9 4 5-4-2-8-5 3 7 4 6h-2l-4 1c-2 0-2 1-2 4l2 10 3-7c0-2 0-2 4 2l19 23 5 8-6-5-22-12-1 1 9 9 10 9-5-1-8-2 3 4a95 95 0 0018 13l-16-2 8 7 11 4c8 3 13 5 18 9l3 3-5-3-24-7c-1 0 6 7 13 12a113 113 0 0052 19l11 1 14 3c21 2 35 5 44 10l10 2c8 0 8 0 6-5-2-3-5-5-12-6l-13-3-41-7c-20-3-28-7-38-15a61 61 0 01-19-52l1-8c-1 0-5 9-6 14l-2 4 1-7c0-12 5-23 11-29l3-3h-3l-7 4-4 4 2-3c3-5 7-11 12-14l4-2h-3c-4-1-13 5-18 13-3 4-3 3 0-4s7-13 11-18l3-3c-4 0-11 5-16 12v-2l9-14c2-3 2-3-2-1-4 1-9 7-12 13l-3 4 1-5c3-12 10-23 18-32l4-4c-3 0-9 3-14 7l-2 2c6-11 15-20 25-26l6-5c0-1-11 2-16 5l-6 4-2 2c2-4 10-11 14-13 2-1 2-2 1-2-3 0-12 5-20 11l-3 2 2-3a67 67 0 0127-25v-1l-5 1zm108 204l2 3-4 1c-3 0-3 0-3-2 0-4 2-4 5-2z" fill="#00a854"/><path d="M493 413c-2 2-2 5 0 5 3 1 7 1 7-1l-6-5-1 1z" fill="#9eab05"/><path d="M392 209a45 45 0 00-21 12l-7 8-3 4 2-9 2-11-9 12c-4 7-5 13-5 23v9l-2-7-6-14c-1-1-2 0-2 2l3 17-2-2c-2-5-3-6-4-6l2 3 4 8c4 9 9 27 8 27l-1-1-2-6-4-9c-4-7-6-13-7-18v-4c-1 1-1 5 1 10l1 4-4-4-4-4c-1 1 0 4 1 8l1 2h-2l-4 1v5l3 9 2-6 1-2 1 1a110 110 0 0119 50l-1-6c-3-12-7-19-20-32 0 0-4-5-8-7l1 3c1 5 3 9 10 17l5 6-4-3-10-6 3 7 2 6h-5c-2 1-2 1-2 6l1 7c1 1 1 1 2-1l2-4 1-3 5 6 3 3 19 25 1 2-2-1c-8-8-22-15-27-17-1 0-2 0-1 1 3 5 14 13 16 15l3 4-5-2c-8-3-11-3-10-2l3 1c5 0 15 5 23 10 4 3 16 14 17 17l-2-1-16-9-5-1-10-2h-4l3 2c3 3 9 6 18 9l10 4 10 8-5-2-23-8c-1 0-1 1 4 5 2 3 7 7 11 9 15 10 29 14 55 17l7 2 13 2c19 2 31 5 41 9 5 2 8 3 13 3l6-1-4-7c-2-1-4-3-12-4l-11-2-24-4c-27-5-35-6-42-10-18-8-30-27-31-49a79 79 0 011-18c-1-1-6 10-7 14v3l-1-5c0-11 4-21 10-29l4-5c-3-1-6 1-10 5l-3 3c0-2 8-13 9-13l3-3-8 8c-9 11-10 23-10 38v8l-4-9c-3-9 2-27 9-36l4-6-7 8-1 1 1-3c2-8 7-16 13-22 2-2 2-2 0-2-4 1-8 5-12 9l-3 4 7-14 4-5-5 2c-4 3-7 7-11 13l-2 3c2-10 4-15 7-21s6-10 11-15l4-5c-5 1-9 4-13 8l-4 3 4-6c5-8 12-16 20-21l9-6a1 1 0 00-1 0l-7 2c-5 1-10 4-16 9l4-5 9-8c4-2 4-2 1-2-5 1-16 7-19 11l-3 2 3-5c6-9 14-16 24-22 2-1 2-2 0-2zm-54 38zm49-35l-2 2-15 14c-3 5-8 13-10 19l-2 5 2-15a11 11 0 001-2l2-2a59 59 0 013-5l7-8 1-1c5-4 11-7 13-7zm-24 4l-2 14a328 328 0 00-8 38l-1-15c0-14 0-18 4-26l7-11zm19 12l-4 4a80 80 0 00-22 38l-1 5v-5l1-8 4-12c2-5 3-8 6-11l3-3 4-3 9-5zm9 3h1l-5 3c-5 4-15 14-19 20-4 5-9 15-11 22-2 6-2 3 0-6 2-7 7-19 11-24l2-3 1-1 4-3 16-8zm-48 5v1l4 8a131 131 0 015 34l-3-12c-6-18-8-26-7-29l1-1zm37 16l-4 4a69 69 0 00-18 38l-2 8-1-3c-1-8 2-20 6-29l2-4 2-2c3-4 8-9 12-11l3-1zm-47 2l1 1a119 119 0 0117 30l-3-4-7-11c-6-8-8-11-8-14v-2zm-2 10h1c2 0 7 4 11 9 4 6 9 19 12 30l3 24v2l-1-2-2-8c-2-10-4-19-8-27a93 93 0 00-14-24l-2-2v-2zm-3 1l1 1c3 2 4 3 3 5l-1 5-2-2-1-6v-3zm47 10v1l-3 4c-5 6-11 23-13 33 0 5-1 3-1-4-1-11 4-22 11-29l6-5zm-48 4l7 7c5 5 10 10 11 13 3 4 6 11 7 15a246 246 0 00-13-16c-8-9-11-13-12-18v-1zm53 2l-3 5-7 10-9 27c-1 8-1 8-1-1 1-18 7-32 17-39l3-2zm-52 13l2 1 6 5 5 3c1 0 1 0 0 0l5 7a96 96 0 0113 27l-4-7c-6-9-12-17-17-21l-7-9-3-6zm57 9l-4 5c-4 4-8 11-9 17a105 105 0 002 40c-1 1-5-11-6-15v-26c2-5 5-12 8-15 2-3 7-6 9-6zm-56 3c1 0 3 0 5 2 7 5 17 18 29 38 9 16 14 28 6 16a376 376 0 00-35-49l-5-4c-3-2-3-2-1-3a4 4 0 011 0zm-2 3l1 1v7c-1 1-1 0-2-4l1-4zm50 19v9c0 20 6 37 20 49 8 7 18 11 32 13l10 2c1 0 8 1 7 2h2l14 2 33 7c2 0 7 5 7 7h-7c-5 0-7-1-12-3-9-4-22-7-38-8l-42-7a96 96 0 01-45-22l-5-5 4 1c11 4 21 8 33 15 9 6 12 8 17 9h6l-5-2a52 52 0 01-35-58l4-11zm-47 3h1c5 1 22 12 28 17l6 8 2 5-4-3-9-7c-3-1-9-7-14-11l-10-9zm12 30h2l8 2c12 3 25 11 32 20l3 4-3-1-3-3-11-8-12-5-16-8v-1z" fill="#cab313"/><path d="M383 292c-2 0-4 3-6 4-3 2-3 3 0 1l9-5-2 3 2-1 3-2h-6zm-49 53c0 2 22 18 23 17l-6-4-11-8-6-5z" fill="#cab313"/><g stroke="#d4af37"><path d="M246 432c-5 2-13 2-16 1h-6l2 2 4 1-3 2h8a37 37 0 009-1l9-2 10 4c8 4 14 6 20 6 4 0 9-1 13-5 4-2 1-2-3 0-5 2-15 3-27-3l-14-6-6 1z" fill="#fff" transform="matrix(.83739 0 0 .82218 199 51)"/><path d="M220 429l4 4 13 1 10-1c6-1 9-1 20 4 14 7 21 5 28 2 9-3 0-2-3-3l-6 3c-3 1-6 1-10-1l-8-4-7-2-7-1-9-1c-8 2-16 0-21-1-6-2-7-2-4 0z" fill="#d91023" transform="matrix(.83739 0 0 .82218 199 51)"/><path d="M244 437c-6 2-14 2-17 1l-4 1c-5 2-5 2-3 3h12c8 0 9 0 14-2 2-2 5-3 7-3l7 4c9 5 12 6 20 6 7 0 16-6 18-7-6 3-11 5-18 5-7-1-12-3-19-7-6-4-8-4-17-1z" fill="#d91023" transform="matrix(.83739 0 0 .82218 199 51)"/><path d="M293 418c2-2 1-2-2-3-8-1-19-6-23-11-2-2-3-2-3 0s7 8 11 10c5 3 12 5 15 5l2-1z" fill="#fff" transform="matrix(-.29524 -.60606 -1.27207 .31586 1043 434)"/><path d="M291 421l-3-3c-7-1-15-5-19-9s-6-4-5-1c2 4 15 11 20 12 5 2 6 3 7 1z" fill="#d91023" transform="matrix(-.29524 -.60606 -1.27207 .31586 1043 434)"/><path d="M295 415l1-1-4-3c-4 0-13-3-18-6l-6-3c-2 0-2 0 0 2 4 4 14 9 21 10 3 1 5 2 6 1z" fill="#ed1c24" transform="matrix(-.29524 -.60606 -1.27207 .31586 1043 434)"/><path d="M293 418c2-2 1-2-2-3-8-1-19-6-23-11-2-2-3-2-3 0s7 8 11 10c5 3 12 5 15 5l2-1z" fill="#fff" transform="matrix(.33397 -.58616 1.24895 .39558 -143 396)"/><path d="M289 421c0-1 1-2-1-3-7-1-15-5-19-9-5-5-7-6-5-1 2 4 15 11 20 12 5 2 4 2 5 1z" fill="#d91023" transform="matrix(.33397 -.58616 1.24895 .39558 -143 396)"/><path d="M295 415l1-1-4-3c-4 0-13-3-18-6l-6-3c-2 0-2 0 0 2 4 4 14 9 21 10 3 1 5 2 6 1z" fill="#ed1c24" transform="matrix(.33397 -.58616 1.24895 .39558 -143 396)"/><path d="M320 403c-7 2-12 6-17 13-2 3-4 4-3 5 2 1 3-2 6-4 7-7 13-10 20-10h6l-2-3c-2-3-4-3-10-1zm-51 2c-1 2-1 2 3 3 9 1 20 6 24 11 2 2 3 3 3 1s-7-9-12-11c-4-3-12-5-15-5l-3 1z" fill="#fff" transform="matrix(.83696 .02647 -.0267 .82176 211 47)"/><path d="M319 400l-6 2-10 9-3 5-1 3 4-3c6-8 12-12 20-14l6 1v-1c-1-2-2-3-5-3l-5 1z" fill="#d91023" transform="matrix(.83696 .02647 -.0267 .82176 211 47)"/><path d="M272 403l5 2c6 1 14 5 18 10 4 3 6 4 5 1-2-5-15-11-20-13s-7-1-8 0zm49 4c-5 2-10 5-14 9s-6 6-4 6l4-3c7-6 20-9 25-7 3 1 2-2 0-5-1-2-8-1-11 0zm-54 0l-3 3 5 1c5 1 14 4 21 8l6 2c2 0 2 0 0-2-4-5-16-10-24-11-2-1-3-2-5-1z" fill="#d91023" transform="matrix(.83696 .02647 -.0267 .82176 211 47)"/><path d="M304 422v15l5-1v-8l3-4c-3-2-3-2-8-2z" fill="#d91023" transform="matrix(.83739 0 0 .82218 198 53)"/><path d="M296 429v7h8v-14h-6l-2 7z" fill="#fff" transform="matrix(.83739 0 0 .82218 198 53)"/><path d="M291 429v6l6 1v-6l1-8-4 1-4-1c2 2 1 7 1 7z" fill="#d91023" transform="matrix(.83739 0 0 .82218 198 53)"/></g></svg>