<svg xmlns="http://www.w3.org/2000/svg" xmlns:xlink="http://www.w3.org/1999/xlink" viewBox="0 0 600 400"><clipPath id="a"><ellipse cx="300" cy="201" rx="86" ry="88"/></clipPath><path fill="#ce1126" d="M0 0h600v400H0z"/><path fill="#fff" d="M0 100h600v200H0z"/><g clip-path="url(#a)"><path d="M277 191h-14v-6l14 6zm0-2l-14-7v-10s-2 1-2-1c0-4 11 7 16 11v7zm-63 25l31 1v-19l-35-2 4 20zm-1-26l32 3v-13l-32-13v23zm6-27l25 12 4-3-2-3 2-4c0-1-2-1-2-3-1-1 2-3 2-3l-23-19-6 23zm165 54h-33v-19l36-3-3 22zm0-27a94 94 0 00-5-21l-28 11 1 14 32-4zm-18-45l-17 13 2 3-2 4c-1 1 1 2 1 3 2 1 0 3-1 3 2 1 3 3 3 5l25-13-11-18zm-46 48h13l1-6-14 6zm0-3l-1-6 16-14-1 5v9l-14 6zm-85-52l14 16c1-1 4-2 7-1 4 0 7-1 7 2 0 2-2 2-2 3s2 2 2 4l-2 4 2 1 14 13v-14l-28-44-14 16zm22-17l20 39s0-36 3-38l-5-10-18 9zm62-4l-7 25h7c2 0 0 2 1 3v16l20-36a98 98 0 00-21-8zm26 10l-25 39v15l16-16c1-2-3-2-1-4 2-1 3-4 0-5-1-2 2-3 4-3h9c1 1 3-2 4-3l9-9-16-14z" fill="#ff9c10"/><path d="M280 275c-6 1-12 5-15 7l16 5c10 2 19 2 28 2l5-1 20-6s-10-7-17-6c-8 0-13 7-19 7-6-1-9-8-17-8h-1zm-36-5l112 1s-9-11-21-11c-11 0-8 5-17 6-9 0-11-6-19-5-8 0-12 5-19 5-6 0-13-6-18-6s-21 7-21 7l3 3zm-14-13l138 1c2-4-7-11-15-12-7 1-12 7-17 8-6 0-12-7-18-7-7 0-13 7-20 7-6 0-11-7-19-7s-11 7-17 7c-6-1-12-8-18-8-5 0-15 9-17 8-2 0 2 4 3 3zm53-13h31s-7-11-15-10c-10 0-16 10-16 10zm99-1h-43s6-3 7-6c3 1 2 3 8 3 5 0 11-6 16-6 5 1 12 9 12 9zm-167 0h42s-5-3-7-6c-2 1-2 3-7 3-6 0-11-6-16-6-5 1-12 9-12 9zm3-13h30l-2-9c-8-3-14 6-19 6-6 0-12-6-12-6l3 9zm161 0h-30l2-9c8-3 14 6 20 6 5 0 11-6 11-6l-3 9zm-88 0h15s0-5-8-5-7 5-7 5z" fill="#083d9c" stroke="#083d9c" stroke-width="2"/><path d="M283 181l32 8v-44c-15 0-27-28-1-30-26-3-28 3-31 10v56zm7 41c-7 11-25 8-30 0v-49l-3-3c0-1 3-1 3-3s-3-1-3-3 3-2 3-4c0-1-3-1-3-3l3-3h-8c-4 0 0 1 0 3l-2 3c0 2 3 2 3 4 0 1-3 1-3 3s3 2 3 3l-4 3 1 50c5 24 32 31 40-1zm18 0c7 11 25 8 30 0v-49s2-1 2-3c1-1-2-1-2-3s3-1 3-3-3-2-3-4 2-1 3-3c0-2-2-3-3-3h8c4 0 0 1 0 3l2 3c0 2-3 2-3 4 0 1 3 1 3 3s-3 2-3 3l3 3v50c-5 24-32 31-40-1z" fill="#ce1126" stroke="#630810" stroke-width="2" stroke-linejoin="round"/><g fill="#630810" stroke="#630810" stroke-width="3" stroke-linecap="round"><path d="M282 224c2-2 5-3 6-7l-10 1-7 6h11zm33 0c-2-2-5-3-6-7l10 1 7 6h-11zm-52-10h72"/><path d="M266 197l9 11m-9 0l9-11m-4-1v7" id="b"/><use xlink:href="#b" x="14"/><use xlink:href="#b" x="27"/><use xlink:href="#b" x="42"/><use xlink:href="#b" x="56"/></g></g></svg>