<svg xmlns="http://www.w3.org/2000/svg" viewBox="0 0 600 330"><path fill="#0038a8" d="M0 0h600v330H0z"/><path fill="#fff" d="M0 0h600v220H0z"/><path fill="#d52b1e" d="M0 0h600v110H0z"/><g fill="none" stroke="#000"><circle stroke-width="1.1" cx="300" cy="165" r="42.2"/><circle stroke-width=".5" cx="300" cy="165" r="34.7"/><circle stroke-width=".4" cx="300" cy="165" r="26.6"/></g><path d="M277.5 181.3l-4.9 2.9-1.5-2.5-.5-1.2.1-.8c.1-.3.4-.6.7-.7.2-.2.5-.3.8-.3.2 0 .5 0 .7.2l.6.4-.1-.5.1-.4.2-.4 1-1.5 1 1.7-1 1.7c-.2.2-.2.4-.2.5v.4l.1.1 2-1.1zm-3.8.2l-.4-.6-.3-.4-.3-.2-.3.1c-.2.1-.3.2-.3.4l.2.6.4.7zm-4.6-3.8l-1.5-4.5 1.2-.3 1 2.8.8-.3-.9-2.6 1.1-.4.9 2.6 1-.4-1-2.8 1.3-.4 1.5 4.5zm-1.9-6.7l-.4-2.8c0-.7 0-1.2.3-1.5.3-.4.7-.6 1.2-.6.6-.1 1 0 1.4.3.4.3.6.8.7 1.5l.1 1 2.1-.2.2 1.7zm2.2-2v-.4l-.3-.7a.6.6 0 00-.5-.1c-.2 0-.3 0-.4.2-.1.1-.2.3-.1.7v.5zm-2.4-8.6l.2-1.8 3.3.4c.4 0 .7.1 1 .3.3 0 .5.3.7.5l.4.8v1.2l-.1 1-.3.7a2 2 0 01-1.3.9h-1l-3.3-.3.2-1.8 3.4.4c.3 0 .6 0 .8-.2.2-.1.3-.4.3-.7 0-.3 0-.5-.2-.7-.1-.2-.4-.3-.7-.3zm.7-4.2l1.1-3.1c.2-.5.5-.9.8-1 .4-.2.7-.3 1.1-.1.3 0 .6.3.7.5l.2.7c.2-.3.5-.5.8-.6h1a1.6 1.6 0 011 1.2l-.1.7-.2.7-1 2.9zm2.7-1l.3-.6v-.6c0-.2-.1-.3-.3-.3h-.4l-.3.5-.3.7zm2.1.8l.3-.8c.1-.3.2-.5.1-.7l-.3-.3h-.5l-.4.6-.2.8zm-2.1-6.6l1-1.5 3.6 2.2 1.4-2.4 1.2.8-2.3 3.8zm3.5-5.2l1.1-1.4 4.4 3.6-1.2 1.4zm7.6-3l1.5-.6c.2.4.3.7.3 1.1 0 .4 0 .7-.2 1-.1.4-.4.7-.8 1-.5.4-.9.7-1.3.8h-1.4c-.5-.2-1-.5-1.5-1-.6-.8-.9-1.5-.8-2.2 0-.7.4-1.4 1.1-2 .6-.4 1-.7 1.6-.7.5-.1 1 0 1.5.4l-1 1.2-.3-.1a1 1 0 00-.9.2 1 1 0 00-.4 1c0 .2.2.6.6 1 .4.4.7.7 1 .8.3 0 .6 0 .9-.3l.4-.7-.3-.9zm6.1-2.2l-1.8 1 .2 1-1.6.8-.8-6 1.7-1 4.6 4-1.6 1zm-1-.9l-1.4-1.5.4 2.1zm5.4-5.8l2.6-.4h1.3c.3 0 .6.2.9.4l.6.8.3 1v1.5c0 .4-.2.7-.4 1l-.7.5a4 4 0 01-1 .4l-2.6.4zm2 1l.5 3h.5l.7-.3.3-.5v-1c-.1-.6-.3-1-.5-1.1-.3-.2-.6-.3-1-.2zm5.4-2l4.7.2v1.2h-3v.8l2.7.1v1.2l-2.8-.1v1l3 .2v1.3l-4.9-.2zm6.8.6l1.7.4-1 4.1 2.7.7-.4 1.4-4.3-1.1zm9.1 3l2.6 1.5c.5.3.8.7 1 1.1 0 .4 0 .9-.3 1.4-.3.4-.7.7-1.1.8-.5.1-1 0-1.6-.3l-.9-.5-1 1.8-1.6-1zm.3 3l.4.2c.3.2.5.2.7.2.2 0 .3-.1.4-.3v-.5c0-.1-.1-.3-.4-.5l-.4-.2zm5 6.6l-1.5-1.4-.8.5-1.4-1.2 5.5-2.7 1.4 1.3-2.3 5.6-1.4-1.2zm.5-1.1l1-2-1.9 1.1zm.7 3.7l4.7-3.2 1.7 2.4.5 1.1v1c0 .2-.3.4-.6.6-.3.2-.5.3-.8.3l-.8-.1-.5-.4v.9l-.1.4-1 1.7-1-1.7.9-1.7.1-.6-.1-.4v-.1l-2 1.3zm3.8-.4l.4.6.3.3.4.2.3-.1.2-.4c0-.2 0-.4-.2-.6l-.4-.7zm1.8 8.5l-.8-1.9-1 .1-.6-1.6 6-.2.8 1.8-4.5 4.1-.7-1.7zm1-.8l1.6-1.3-2.1.1zm1.5 6.2l1.1-.2.4 2.7-2.4.4-.9-1.3a4.7 4.7 0 01-.3-3c.2-.5.5-.9.9-1.2.4-.3.9-.5 1.5-.5.6-.1 1.1 0 1.6.1.5.2 1 .5 1.2 1 .3.3.4.8.5 1.5v1.4c0 .3-.1.6-.3.8-.2.3-.5.5-.9.6l-.5-1.6.4-.4v-.7c0-.4-.1-.7-.4-.8-.3-.2-.8-.3-1.3-.2-.7 0-1 .3-1.3.5-.2.3-.3.6-.3 1l.2.6.4.6.5-.1zm3.7 8.3l-.2 1.7-3.4-.3c-.3 0-.6 0-.9-.2a2 2 0 01-.7-.6 2 2 0 01-.4-.7c-.1-.4-.2-.8-.1-1.3l.1-.9c0-.3.2-.5.3-.8a2 2 0 011.2-.8l1-.1 3.4.3-.2 1.7-3.4-.3a1 1 0 00-.8.2 1 1 0 00-.3.7c0 .3 0 .6.2.7l.7.4zm-6.3 6l.6-1.9-.8-.6.6-1.7 4.7 3.8-.6 1.9-6 .2.5-1.7zm1.3 0h2.1l-1.7-1.2zm2 4.7l-1 1.6h-2.2l1 2-1 1.7-1.7-3.6-2-1.3.9-1.5 2 1.3z"/><g fill="#009b3a" stroke="#000" stroke-width=".1"><path d="M305.6 145.3s16 7 13.2 21.2-11.7 14.2-15.2 15.8c-3.5 1.6-6 3.8-7.3 3.5-1.4-.3-3.2-1.4-3.2-1.4s-.2 2.4 2.6 2.8 6.6-3.7 8.3-4.2c1.8-.4 12.7-1.6 15.4-16.2 3-15.5-13.7-21-13.8-21.5z"/><path d="M313.7 148.3a2.2.5 75.1 01-1 .1 2.2.5 75.1 111 0z"/><path d="M313.1 148.5a2.3.5 63.3 11-1 .3 2.3.5 63.3 011-.3zm-1.6 1.1a2.2.5 17 010 1 2.2.5 17 010-1z"/><path d="M311.8 149a2.3.5 34.2 11-.5.9 2.3.5 34.2 11.5-1z"/><path d="M312.4 148.7a2.3.5 46.2 11-.7.7 2.3.5 46.2 01.7-.7z"/><path d="M313.6 150.7l-.8.4c-.1 0-.3-.2-.7 0-.5.2-.7.6-.8.8-.1.3 0 .4.6.1.5-.2.6-.6.8-.8l1-.4.5-1c.2-.2.8-.6 1-1.2.3-.4.2-.7-.1-.6l-.8.9c-.2.3 0 .7-.2 1l-.5.8zm4.9 1.6a3.3.7 88.4 11-1.5-.3 3.3.7 88.4 111.5.3z"/><path d="M317.7 152.3a3.4.7 77.5 11-1.4 0 3.4.7 77.5 111.4 0z"/><path d="M315.1 153.1a3.2.8 35 11-.5 1.5 3.2.8 35 11.5-1.5z"/><path d="M315.6 152.4a3.4.7 50.9 01-.9 1 3.4.7 50.9 111-1z"/><path d="M316.7 152.3a3.5.7 61.8 11-1.2.7 3.5.7 61.8 111.2-.7z"/><path d="M317.6 155.7l-1.2.2c-.2 0-.4-.4-1-.3-.7.1-1.2.5-1.4.8-.2.3 0 .5.8.4.8-.1 1-.6 1.5-.7l1.3-.3 1.1-1c.4-.4 1.4-.7 1.9-1.3.4-.5.4-1 0-1-.4.1-1 .6-1.4 1-.3.3-.3.9-.6 1.2l-1 1zm3.5 3.3a.7 3.3 8.7 11-1.4-.6.7 3.3 8.7 111.4.6z"/><path d="M320.4 158.8a3.5.7 88 11-1.5-.2 3.5.7 88 111.5.2z"/><path d="M317.7 159.1a3.2.8 46 11-.8 1.4 3.2.8 46 11.8-1.4z"/><path d="M318.3 158.5a3.5.7 61.8 11-1 .9 3.5.7 61.8 111-1z"/><path d="M319.4 158.6a3.5.7 72.5 11-1.4.5 3.5.7 72.5 111.3-.5z"/><path d="M319.6 162h-1.2c-.2 0-.3-.4-1-.4-.6 0-1.2.3-1.4.5-.3.3 0 .6.7.6.8 0 1.2-.4 1.6-.4h1.3l1.3-.9c.4-.2 1.5-.4 2-.9.6-.4.7-1 .2-1-.4 0-1.1.4-1.5.7-.4.3-.4.9-.8 1.1l-1.2.8m1.7 4.3a.7 3.3 31.3 01-1-1.1.7 3.3 31.3 011 1.1"/><path d="M320.7 166a.7 3.5 20.6 01-1.2-.9.7 3.5 20.6 011.2.8m-2.5-.9a3.3.7 70 01-1.3 1 3.3.7 70 011.3-1"/><path d="M319 164.8a3.5.7 85.1 01-1.4.4 3.5.7 85.1 111.4-.4"/><path d="M319.9 165.3a.7 3.6 5.6 11-1.4-.1.7 3.6 5.6 111.4.1"/><path d="M318.8 168.7l-1.1-.5c-.2-.2-.1-.6-.7-.9-.6-.3-1.2-.2-1.6 0-.3 0-.2.4.5.7.7.4 1.2.1 1.6.3.3 0 1 .3 1.2.5l1.5-.2c.4-.1 1.5.2 2.2 0 .6-.2 1-.7.5-.8-.4-.2-1.1-.2-1.6 0-.5 0-.7.6-1.2.6l-1.3.3m.5 5.3a.9 3.8 48.5 11-.7-1.7.9 3.8 48.5 11.7 1.6"/><path d="M318.8 173.2a.8 4 37.5 11-1-1.3.8 4 37.5 111 1.3"/><path d="M316.3 171.3a3.8.9 86.5 11-1.7.7 3.8.9 86.5 111.7-.7"/><path d="M317.3 171.3a.8 4 11.6 01-1.6 0 .8 4 11.6 111.6 0"/><path d="M318.1 172.2a.8 4.1 22.1 11-1.5-.6.8 4.1 22.1 111.5.6"/><path d="M315.8 175.5s-1-.8-1-1c-.2-.1 0-.6-.5-1.1-.6-.6-1.3-.7-1.7-.7-.4 0-.4.4.2 1 .7.7 1.3.6 1.7.9l1.1 1 1.8.3c.5 0 1.5.8 2.4.8.7 0 1.2-.3.8-.7-.3-.3-1.2-.6-1.7-.6-.6 0-1 .4-1.6.3l-1.6-.2m-1.5 5a1 4.2 79.8 11.2-2 1 4.2 79.8 11-.2 2"/><path d="M314 179.5a1 4.4 68.5 01-.2-1.9 1 4.4 68.5 01.3 1.9"/><path d="M312.7 176.3a1 4.2 26.2 01-2-.4 1 4.2 26.2 112 .4"/><path d="M313.7 176.8a1 4.4 41.8 01-1.6-1 1 4.4 41.8 011.6 1"/><path d="M314 178.2a.9 4.5 52.7 11-1.1-1.5.9 4.5 52.7 011 1.5"/><path d="M309.9 180l-.5-1.6c0-.2.4-.6.2-1.4a3 3 0 00-1.3-1.6c-.3-.2-.6.2-.3 1.2s1 1.2 1.1 1.7l.6 1.7c.3.2 1 1 1.5 1.3.4.3 1 1.6 1.9 2.1.7.5 1.4.4 1.2-.1-.2-.6-.8-1.3-1.3-1.7-.5-.3-1.3-.1-1.8-.5l-1.3-1.2"/><path d="M307.4 184.2a1.2 4.2 89 010-2.4 1.2 4.2 89 010 2.4"/><path d="M306.8 180.4a1.2 4.4 37.6 01-1.8-1.5 1.2 4.4 37.6 111.8 1.5"/><path d="M307.4 182.4a1.2 4.3 66.5 01-.8-2.3 1.2 4.3 66.5 01.8 2.3m1.2-36.7a2.6.5 41.1 01-1 .5 2.6.5 41.1 111-.5m-1.3 1.1a2.7.5 8.2 01.2 1 2.7.5 8.2 11-.2-1"/><path d="M307.8 146a2.8.5 26.8 11-.5 1 2.8.5 26.8 01.5-1m-19 34.1s3.5.8 6.6 2c3 1 7.7 4.9 9 5 1.4.1 3.4-.3 4.1-2.4-2.2.6-3.5 1.5-5.5.3-.8-.2-3.2-2.4-5.8-3.6s-8-2.5-8-2.5l-.4 1.2m3.8-31.9l4-2.2-4.5 1.2-.5.7 1 .3"/><path d="M296.4 149.2c-1.6-.3-4-.9-5.5-1l3.4-4.4c-.6 1.2-1.5 2.7-1.9 3.8 1.1.6 2.8 1 4 1.6"/><path d="M291.8 148.4l3.6-2.8-4.2 1.9-.3.9h1"/><path d="M295.7 149.1l-5.6-1 3.4-4.5c-.6 1.2-1.5 2.8-1.9 4l4 1.5"/><path d="M291.2 148.6l4.3-1.7-4.6.7-.6.8 1 .2"/><path d="M295.2 149.2c-1.6-.2-4-.5-5.6-.4.9-1.4 2-3.7 2.8-5-.5 1.3-1.2 3-1.4 4.2 1.2.5 3 .8 4.2 1.1"/><path d="M290.8 148.7l2.9-3.6-3.7 2.8-.2 1 1-.2"/><path d="M295.2 149.4c-1.7 0-4.4-.2-6 0 .8-1.6 1.8-4.1 2.4-5.7-.3 1.4-.9 3.4-1 4.7 1.3.5 3.2.7 4.6 1"/><path d="M290.2 149.5l3.5-3.4-4.2 2.4-.3 1h1"/><path d="M294.4 149.5c-1.8 0-4.7-.1-6.5.1 1.2-1.7 2.9-4.5 3.9-6.3-.7 1.6-1.7 3.8-2.1 5.2 1.3.5 3.3.7 4.7 1"/><path d="M289 149.7l4.5-3.8-5 2.7-.6 1.2h1.1"/><path d="M293.8 149.6c-1.9.3-4.7.6-6.5 1 1-1.8 2.2-4.8 3-6.6-.5 1.6-1.2 3.8-1.4 5.3 1.4.3 3.4.2 4.9.3"/><path d="M288.4 150.5l3.5-4.8-4.3 3.9-.3 1.2 1.1-.3"/><path d="M292.7 150.2c-1.8.1-4.6.3-6.4.7 1-1.8 2.4-4.7 3.2-6.5-.5 1.6-1.3 3.8-1.6 5.3 1.4.3 3.4.3 4.8.5"/><path d="M287.8 151l4.4-3.8-5 2.7-.5 1.1h1.1"/><path d="M292.2 150.4c-1.8.3-4.7.8-6.4 1.4l2.6-6.7c-.4 1.6-1 3.8-1 5.3 1.3.2 3.3 0 4.8 0"/><path d="M287 151.2l2.9-5.2-3.8 4.5v1.2l1-.5"/><path d="M292.2 150.7c-2 .5-5 1.1-6.9 1.9.7-2.2 1.5-5.6 2-7.7-.1 1.9-.5 4.4-.5 6 1.6.2 3.8-.2 5.4-.2"/><path d="M286.5 152.4l3.6-5.2-4.6 4.2-.1 1.3 1.1-.3"/><path d="M291.4 151.3c-2 .6-5 1.4-6.8 2.2.7-2.2 1.3-5.6 1.7-7.7 0 1.9-.4 4.4-.2 6 1.5 0 3.7-.4 5.3-.5"/><path d="M285.8 153.2l2.7-5.8-3.8 5v1.3l1.1-.5"/><path d="M290.7 152c-2 .5-5 1-7 1.7.8-2 1.8-5.4 2.4-7.5-.3 1.8-.8 4.3-.8 6 1.5.2 3.8-.1 5.4-.2"/><path d="M285.2 153.7l4.4-4.5-5.2 3.3-.4 1.3h1.2"/><path d="M289.8 152.8c-2 .3-5 .6-6.9 1 1-2 2-5.3 2.8-7.4-.4 1.9-1 4.3-1.1 6 1.4.4 3.6.3 5.2.4"/><path d="M284.3 153.3l3-5.7-4 4.8-.1 1.3 1.1-.4"/><path d="M290 152.2c-2.1.8-5.4 2-7.4 3.1.6-2.5 1.3-6.5 1.7-9 0 2.1-.3 5-.1 7 1.6 0 4-.8 5.8-1.2"/><path d="M283.9 155l3.6-6.5-4.7 5.5-.2 1.5 1.3-.5"/><path d="M289.2 153c-2 1-5.4 2.3-7.3 3.5.5-2.5 1-6.5 1.4-9 0 2.1-.2 5 0 6.9 1.8-.2 4.1-1 6-1.5"/><path d="M283.2 156l2.6-7-4 6.2.2 1.5 1.2-.7"/><path d="M288.3 153.5c-2 1-5.4 2.5-7.3 3.6.5-2.5 1-6.5 1.3-9 0 2.2-.1 5 .2 7 1.7-.3 4-1.1 5.8-1.6"/><path d="M282.6 156.8l4-6.2-5 5-.3 1.6 1.3-.4"/><path d="M288.1 153.2c-1.9 1.5-4.8 3.7-6.5 5.3 0-2.5-.3-6.5-.5-9 .4 2 .9 5 1.5 6.6 1.7-.6 3.8-2 5.5-2.9"/><path d="M282.8 157l.4-7.3-1.9 7.2.5 1.3 1-1.1"/><path d="M287.6 153.9c-1.9 1.5-4.8 3.6-6.5 5.3 0-2.6-.4-6.6-.5-9 .4 2 .9 4.9 1.5 6.6 1.7-.6 3.8-2 5.5-3"/><path d="M282.3 158.3l1.9-7.2-3.3 6.6.3 1.5 1.1-.9"/><path d="M287.4 154c-1.8 1.8-4.6 4.4-6.2 6.3-.2-2.7-1-6.7-1.5-9.2.7 2 1.5 4.9 2.3 6.6 1.7-.8 3.7-2.6 5.4-3.6"/><path d="M282.3 159.2l.4-7.6-2 7.4.7 1.4 1-1.2"/><path d="M286.8 155.3c-1.9 1.6-4.9 3.9-6.6 5.6 0-2.7-.5-6.8-.7-9.3.5 2.1 1 5 1.7 6.8 1.7-.6 4-2.2 5.6-3"/><path d="M281.8 160.1l2.6-7.2-4 6.4.1 1.6 1.3-.8"/><path d="M286.8 155.4c-1.7 1.7-4.4 4.4-5.8 6.3-.3-2.7-1-6.8-1.5-9.3.7 2 1.4 5 2.2 6.6 1.6-.8 3.5-2.5 5-3.6"/><path d="M281.9 160.5l-.4-7.6-1.2 7.5.7 1.4.9-1.3"/><path d="M286 156c-1.7 1.7-4.2 4.4-5.7 6.3-.3-2.7-1.2-6.8-1.7-9.3.7 2 1.6 5 2.4 6.6 1.5-.8 3.5-2.6 5-3.7"/><path d="M281.4 161.2l.9-7.7-2.3 7.3.5 1.5 1-1"/><path d="M285.6 156.2c-1.5 2-3.8 4.9-5.1 6.9l-2.4-9c.8 2 1.9 4.7 2.9 6.3 1.4-1 3.2-3 4.6-4.2"/><path d="M281.4 162l-.5-7.8-1 7.7.7 1.4.8-1.3"/><path d="M285.5 156.7c-1.4 2-3.7 5-4.8 7.2-.7-2.7-2.1-6.6-3-9 1 2 2.2 4.7 3.3 6.2 1.4-1 3.1-3 4.5-4.4"/><path d="M281.9 162.7l.8-7.8-2.2 7.3.4 1.5 1-1"/><path d="M285.2 157.4c-1.2 2.2-3.2 5.5-4.1 7.8l-3.7-8.5c1.1 1.8 2.5 4.3 3.8 5.7 1.3-1.2 2.7-3.5 4-5"/><path d="M281.6 163.3l-2.2-7.4.8 7.8 1 1.1.4-1.5"/><path d="M285.1 158.3c-1.2 2.1-3.3 5.5-4.3 7.7-.9-2.5-2.6-6.2-3.7-8.4 1.2 1.7 2.6 4.3 3.9 5.7 1.3-1.3 2.9-3.5 4.1-5"/><path d="M281.7 164.7l-.8-7.7-.7 7.7.8 1.3.7-1.3"/><path d="M285.3 159c-1.3 2.1-3.4 5.4-4.5 7.6-.8-2.5-2.5-6.2-3.5-8.6 1 1.8 2.5 4.4 3.7 5.9 1.4-1.2 3-3.5 4.3-5"/><path d="M281.6 165.3l-1.4-7.6v7.8l.8 1.2.6-1.4"/><path d="M284.7 160c-1.4 2.1-3.6 5.2-4.8 7.4-.7-2.6-2.2-6.4-3.1-8.8 1 1.9 2.3 4.6 3.4 6 1.5-1 3.1-3.2 4.5-4.6"/><path d="M281 166.2l.6-7.8-2.1 7.4.5 1.5 1-1.1"/><path d="M284.8 160.2c-1.2 2.3-3.1 5.7-4 8-1-2.5-3-6.1-4-8.3 1.2 1.7 2.7 4.2 4 5.5 1.3-1.3 2.8-3.6 4-5.2"/><path d="M280.7 166.8l-2.4-7.2 1 7.7 1 1 .4-1.5"/><path d="M284.5 160.8c-.9 2.5-2.2 6.2-2.8 8.7-1.4-2.2-3.7-5.3-5.2-7.3 1.5 1.4 3.3 3.6 4.8 4.6 1-1.6 2.2-4.2 3.2-6"/><path d="M282.8 167.4l-2.6-7.1 1.2 7.6 1 1 .4-1.5"/><path d="M284.4 161.6c-.8 2.4-2.1 6.2-2.7 8.7-1.4-2.2-3.7-5.3-5.2-7.2 1.5 1.4 3.4 3.5 4.8 4.5 1.1-1.6 2.2-4.2 3.1-6"/><path d="M282.9 168.6l-3.4-6.6 2 7.4 1.1.8.3-1.6"/><path d="M284.2 162.2c-.5 2.6-1.4 6.5-1.7 9-1.6-2-4.3-4.7-6-6.4 1.6 1.2 3.7 3 5.3 3.8.9-1.7 1.7-4.5 2.4-6.4"/><path d="M283 169.7l-1.7-7.5.3 7.8 1 1.1.5-1.4"/><path d="M284.2 163c-.3 2.6-.8 6.7-.9 9.2-1.7-1.7-4.7-4.1-6.5-5.6 1.7 1 4 2.5 5.6 3 .7-1.7 1.2-4.6 1.8-6.6"/><path d="M283.2 170.2l-4.8-5.4 3.6 6.6 1.3.4-.1-1.6"/><path d="M284.3 163.9c-.3 2.6-.8 6.7-.9 9.2-1.8-1.7-4.7-4.1-6.5-5.6 1.7 1 4 2.5 5.6 3.1.7-1.8 1.2-4.7 1.8-6.7"/><path d="M283.7 171.5L280 165l2.3 7.3 1.2.8.2-1.6"/><path d="M284.5 165c-.2 2.6-.5 6.7-.5 9.3-1.8-1.7-4.9-3.9-6.7-5.3 1.7.9 4 2.3 5.7 2.8.6-1.9 1-4.8 1.5-6.8"/><path d="M284.1 172.7l-4.4-5.7 3.2 6.8 1.3.5v-1.6"/><path d="M284.6 166.2c-.2 2.6-.6 6.7-.5 9.3-1.8-1.6-4.9-3.8-6.8-5.2 1.8.9 4.1 2.2 5.8 2.7.6-1.8 1-4.7 1.5-6.8"/><path d="M284.6 173.7l-3.2-7 1.8 7.6 1 1 .4-1.6"/><path d="M284.7 167c0 2.6 0 6.8.4 9.3-2-1.4-5.2-3.1-7.2-4.2 1.8.6 4.3 1.6 6 1.9.4-2 .5-4.9.8-7"/><path d="M285.1 173.4l-5.8-4 5 5.4 1.3.1-.5-1.5"/><path d="M284.9 167.3c.2 2.6.4 6.7.9 9.2-2-1.3-5.4-2.9-7.5-4 1.9.6 4.4 1.6 6 1.8.4-2 .4-4.9.6-7"/><path d="M285.7 174.9l-4.8-5.6 3.7 6.7 1.3.4-.2-1.5"/><path d="M285.3 168.3c.3 2.6.7 6.7 1.3 9.2-2.1-1.2-5.5-2.6-7.6-3.5 1.9.4 4.4 1.2 6 1.3.4-2 .2-4.9.3-7"/><path d="M286.7 175.8l-5.7-4 4.8 5.4 1.4.1-.5-1.5"/><path d="M285.5 169.4c.5 2.6 1.2 6.7 1.9 9.1-2.2-1-5.7-2.1-7.8-2.8 1.9.3 4.5.8 6.1.8.2-2-.2-5-.2-7.1"/><path d="M287.3 176.6l-4.7-5.6 3.5 6.7 1.3.5v-1.6"/><path d="M285.8 170.1c.7 2.5 1.8 6.5 2.7 8.9-2.2-.7-5.8-1.4-8-1.8 2 0 4.5.2 6.2 0 0-2-.7-5-1-7"/><path d="M287.6 176.6l-6.6-1.4 6.2 3.1 1.3-.5-1-1.2"/><path d="M286.2 171c.8 2.4 1.8 6.4 2.7 8.8-2.2-.7-5.8-1.4-8-1.8 2 0 4.5.2 6.2 0 0-2.1-.6-5-.9-7"/><path d="M288.6 177.3l-6.3-3 5.7 4.5h1.4l-.8-1.5"/><path d="M285.9 171.3c1.2 2.4 3 6 4.5 8.1-2.3-.2-6 0-8.1 0 1.8-.4 4.4-.7 6-1.4-.5-2-1.7-4.6-2.4-6.7"/><path d="M289.6 178l-6.5-1.8 6.1 3.5 1.3-.4-.9-1.3"/><path d="M286.6 172.3c1.2 2.3 3 6 4.5 8-2.3-.1-5.9 0-8.1.1 1.8-.4 4.4-.8 6-1.4-.5-2-1.7-4.6-2.4-6.7"/><path d="M290.5 178.5l-6.1-3.6 5.3 5 1.4.1-.6-1.5"/><path d="M287 173c1.5 2 3.7 5.5 5.3 7.4-2.3.1-5.8.7-8 1.1 1.8-.6 4.3-1.3 5.8-2.2-.7-2-2.1-4.4-3-6.4"/><path d="M291 179h-6.7l6.6 1.8 1.1-.7-1-1m3.8-32.1l4.7-.7h-4.7l-.8.5.8.3"/><path d="M297.4 148l-5-1.4 5.2-2.3c-1 .7-2.6 1.5-3.4 2.2l3.2 1.6"/><path d="M294.6 147.2l4.5-1.2-4.7.6-.7.5.8.1"/><path d="M297.6 148.4c-1.6-.1-4-.5-5.7-.5 1.2-1 2.9-2.8 4-3.9-.8 1-1.9 2.4-2.3 3.4 1 .4 2.8.7 4 1"/><path d="M292.8 147.6l4.8-.6-4.6-.1-1 .3.8.4"/><path d="M296.4 148.6l-5.2-1c1.4-.6 3.5-1.8 4.7-2.6-1 .7-2.3 1.7-3 2.4l3.5 1.2"/><path d="M292.4 147.5l4.2-1.8-4.6 1.2-.5.6h1"/><path d="M296.2 149.1c-1.2-.5-3-1.3-4.3-1.7 1-.9 2.3-2.4 3.1-3.3-.6 1-1.4 2.1-1.8 3 .8.7 2.1 1.4 3 2"/><path d="M292.7 147.8l3.2-1.4-3.5.5-.5.6.8.3m-2.7 30.7h-7l7 1.7 1-.7-1.2-1"/><path d="M291.1 178.9l-6.8-1.6 6.6 3.2 1.3-.4-1-1.2"/><path d="M292.3 179.4l-6.9-.4 6.9 2 1.2-.6-1.2-1"/><path d="M288 174.5c1.7 2 4.4 5.1 6.3 6.8-2.3.4-5.8 1.3-8 1.9 1.8-.8 4.2-1.7 5.5-2.7-.9-1.9-2.7-4.2-3.9-6"/><path d="M293.2 179.7l-6.8-2.2 6.4 3.8 1.4-.3-1-1.3"/><path d="M288.6 175c2 1.7 4.8 4.6 6.8 6.1-2.2.6-5.4 2-7.5 2.8 1.6-1 3.9-2.2 5-3.4-1-1.7-3-3.8-4.3-5.5"/><path d="M293.8 180.1l-6.5 1.3 6.8.5 1-1-1.3-.8"/><path d="M292.4 179.7l-6.7.5 7 1.2 1-.8-1.3-.9"/><path d="M293.7 180l-7-1 6.8 2.7 1.3-.5-1.1-1.1z"/><path d="M294.8 180.5H288l7 1.7 1-.8-1.2-1z"/><path d="M290.1 176c2 1.8 4.9 4.7 6.9 6.3-2.3.5-5.7 1.7-7.8 2.4 1.6-1 4-2 5.3-3.1-1-1.8-3-4-4.4-5.7z"/><path d="M295.8 180.7l-7-1.7 6.7 3.3 1.3-.3-1-1.3z"/><path d="M290.8 176.3c2 1.7 5.2 4.3 7.3 5.7-2.1.8-5.3 2.3-7.2 3.3 1.4-1.1 3.6-2.5 4.7-3.7-1.2-1.7-3.3-3.7-4.8-5.3z"/><path d="M296.4 181.1l-6.4 1.7h6.9l.9-1-1.4-.7z"/></g><path d="M305.2 171.5L300 168l-5.2 3.6 2-5.7-4.6-3.6h5.8l2-5.8 2 5.8h5.8l-4.5 3.6 2 5.7z" fill="#fedf00" stroke="#000" stroke-width=".3"/></svg>