<svg xmlns="http://www.w3.org/2000/svg" xmlns:xlink="http://www.w3.org/1999/xlink" viewBox="0 0 1350 900"><path fill="#fff" d="M0 0h1350v900H0z"/><path fill="#0c4076" d="M0 0h1350v600H0z"/><path fill="#c6363c" d="M0 0h1350v300H0z"/><g transform="scale(1 1.00437)"><path fill="#21231e" d="M473 259zm1 0zm-93 6c-2-1 4-1 5-1l88-5c0 2-4 1-6 1a6448 6448 0 00-87 5zm-1 0zm7 31l-7-31c3 0 2 4 3 6l5 25h-1zm0 0zm95-4c0 3-4 1-6 1l-89 3c1-2 5 0 7-1l88-3zm0 0zm95 4h-6l-89-3c0-2 4 0 6-1l89 3v1h-1zm0 0zm7-31l-7 31c-2-1 1-5 1-7l5-24h1zm0-1zm-94-5h6l88 5c-1 2-5 0-7 1l-87-5v-1zm0 1zm1-1zm-1 0zm-8 1c0-3 3-1 5-2l4 1c-1 2-1-2 0 0l-9 1zm0 0zm-8 0c1-1-2 0 0-2l8 1c0 2-3 0-4 0h-4v1zm0-1zm-1 0z"/><path fill="#21231e" d="M595 246c0-2-1 2-3 3l-8 15c-2-1 1-3 1-5l9-14 1 1zm-19-4c1-2 1 4 1 5 1 4 6 5 10 3a38 38 0 007-5c2 2-3 3-5 5-3 2-9 3-12-2l-2-6h1zm0-1zm-2 1c-2-1 1-1 2-1 1 1-1 1-1 1h-1zm-1-1zm-25-5l3 5c2 4 7 11 13 9 4-2 7-6 9-9 2 1-2 4-3 5-3 5-9 7-14 3-4-3-7-8-9-13h1zm-1-1zm-29 0l3 4c2 5 7 11 13 9s10-8 13-13c2 2-2 4-3 6-4 5-10 11-16 8s-8-9-10-14zm0-1zm-34 1c2-1 2 3 4 5 4 5 11 8 17 5 5-2 9-6 13-11 1 2-3 4-4 6-5 5-13 10-20 6-5-2-8-7-10-11zm0 0zm1-2zm-1 0zm-1 0l1-1c0 1 0 2 1 0 1 1-2 2-2 1zm0 0zm1-1zm-1 0zm-1 1l1-1c1 1 0 1-1 1zm0 0zm0 0c-3-1 2-2 0 0 0 0-2 0 0 0zm-1-1zm0 1zm0 0zm-1 0c-2-1 1 1 0-1 1 0 2 2 0 1-1 1-1-2 0 0zm0-1zm-1 3zm1 0zm-33 0l3 3c5 5 12 11 20 7 4-2 7-6 9-11 2 2-1 5-2 6-4 6-11 10-18 6-5-2-9-7-13-11h1zm-1-1zm-28 2l3 4c3 4 8 10 15 8 5-3 8-9 10-14 2 1-2 5-2 7-3 5-8 10-14 8s-10-8-13-13h1zm-1-1zm-26 7c0-3 2 3 4 3 3 4 8 7 13 3 4-3 6-8 9-13 2 2-2 5-3 7-3 5-8 11-14 9-4-2-7-6-10-9h1zm0-1zm-2 1c-2-1 1-1 2-1 1 1-1 1-2 1 0 0-1 0 0 0zm-1 0zm-18 3c-2 0 3 2 4 3 4 2 10 5 12 0l2-6c2 0 0 4 0 6-2 4-8 5-11 2a40 40 0 01-8-4l1-1zm11 19c0 2-2-3-3-4-2-5-5-10-9-14 2-2 3 3 4 4l8 14zm0 1zm101-6c0 2-5 0-7 1l-94 5c0-3 5-1 7-2l94-4zm0 0zm101 5c0 2-4 0-6 0l-95-4c1-3 5 0 7-1l94 5zm0 1zm0 0zm1-1z"/><path d="M583 264c4-6 7-13 12-18-12 8-18 7-19-4l-3-1c-9 14-17 12-26-5-11 18-21 18-29-2-13 17-25 17-34 1v-2h-1v-1l-1 1-1-1v1h-1v2c-9 16-20 16-34-1-7 20-17 20-29 2-8 17-17 19-26 5l-3 1c-1 11-7 12-18 4l11 18 101-5 101 5z" fill="#edb92e"/><path fill="#EDB92E" d="M505 276l-23 12-23-12 23-11z"/><path fill="#edb92e" d="M474 259l-93 6 6 31 95-3 95 3 7-31-94-6h-16z"/><path fill="#edb92e" d="M597 237l-3-1c-7 18-14 18-15 1 2 0 1-3 3-2 1 1 2-1 1-2-2-1-4-1-5 1-1-3-3-4-6-3l1 2 1 3c-12 17-19 15-17-7l-10-2c-11 23-20 24-26 3 1-1 1-4 3-3 1 1 2-1 1-2-2-2-5-2-7 1-1-3-4-4-6-2-2 1-1 3 0 2 3 0 2 3 3 4-5 20-30 21-26-8h-13c4 29-22 28-27 8 2-1 1-4 3-4 1 1 2-1 1-2-3-2-5-1-7 2-2-3-4-3-7-1-1 1 0 3 1 2 2-1 2 2 3 3-6 21-14 20-26-3l-10 2c2 22-4 24-17 7 1-1 0-3 2-3v-2c-2-1-4 0-5 3-2-2-4-2-6-1-1 1 1 3 2 2s1 2 2 2c-1 17-7 17-14-1l-4 1a19 19 0 004 11c10 14 18 11 19-4 13 16 24 14 26-3 12 22 30 11 31-2 5 19 33 19 35-3 2 22 30 22 36 3 0 13 19 24 30 2 2 17 13 19 27 3 0 15 8 18 19 4a19 19 0 003-11z"/><path fill="#21231e" d="M594 236c4 0 4 2 0 1v-1zm-1 0zm-14 1l1 6c1 3 2 7 5 5 4-3 6-8 8-12 2 1-1 4-2 6-1 3-4 8-8 8-4-3-4-8-4-13zm0 0zm3-2l-1 1c0 2-3 2-2 1s1-4 3-2zm1-1c1-3 1 2-1 2l1-2s0-1 0 0zm0-1zm-6 1c1 0 0-2 3-2 1-1 4 0 3 2a3 3 0 00-5 0h-1zm1 0zm-6-3c-1-2 3-1 4 0 2 0 2 4 1 2a3 3 0 00-5-2zm1 2c0 2-3-1-2-2s1 0 1 1l1 1zm2 3c-2 0-1 0-2-2v-1c2 0 1 2 2 3zm0 0zm-18-7v6c0 4 0 9 3 11 5 1 8-4 11-6l2-2c-3 4-7 9-12 9-5-1-5-7-5-11l1-7zm0-1zm-9-1c-2-2 2 0 4 0l5 2c-1 1-4-1-5-1l-4-1zm-1-1zm-27 4c2 0 2 3 3 6 2 3 5 9 10 8 6-3 9-10 13-16 2-4 2 1 0 3-4 5-7 12-13 14-6 1-9-5-11-10 0-2-2-4-1-5zm0 0zm4-3c0 1-2 0-2 2s-2 1-1 0 1-3 3-2zm1-2v3c-2 0-1-1 0-2v-1zm-7 1s0-2 3-3c1 0 4 0 4 2-1 0-2-2-4-1l-3 2zm1 0zm-7-2c-2-1 2-2 3-1 2 0 5 2 3 3-1-2-4-4-6-2zm0 2c1 2-2 0-2-1 0-2 2-2 2 0v1zm4 4c-1 0-2 0-2-2s-2-1-2-2c3-1 2 3 4 4zm0-1zm-27-7v6c0 6 3 15 10 16 8 0 14-7 16-14 2 1-1 5-2 6-3 7-13 12-20 6-6-5-6-13-5-20h1zm0-1zm-7 2c0-2 3-1 4-2 1 0 4 0 2 1l-6 1zm0 0zm-6-1l3-1c1 1 4 0 3 2l-7-1h1zm-1 0zm-26 7l3 7c3 6 12 11 18 6s6-13 5-20c2 0 1 5 1 7 1 7-3 15-11 16-8 0-15-7-17-15h1v-1zm-1 1zm4-4c0 1-2 0-1 2 0 1-2 3-2 1 1-1 1-4 3-3zm0-2c2-2 3 3 1 3s-1-1 0-2l-1-1zm-6 2s0-2 2-3 5-1 5 1h-4c-2 0-2 2-3 2zm1 0zm-7-1c-2-1 2-2 3-2s5 2 3 3c-2-2-5-3-6-1zm0 2c1 2-2 0-2-1 0-2 2-2 1 0l1 1zm4 3l-2-2-2-1c3-1 3 2 4 3zm0 0zm-27-3c0-2 3 4 3 5 3 5 6 11 12 12 5 0 8-6 9-10 1-2 4-6 2-2-2 5-4 12-10 13-6 0-9-6-12-10a111 111 0 01-4-8zm0-1zm-9 3l4-1c1 0 4-2 5-1l-5 2h-4zm-1 0zm-17 7l4 4c3 3 6 7 10 6 4-2 3-8 3-11 0-2 0-9 1-5 0 6 1 12-3 17-4 2-8-2-10-5l-5-6zm0 0zm2-3c0 1-2 1-1 2 0 2-2 1-1 0 0-1 0-3 2-2zm0-2c1-2 2 2 0 3v-3zm-6 3c1-1 0-2 2-3 1-1 5-2 4 0-2-1-4 1-5 3h-1zm1 0zm-5 0c-2-2 1-3 2-2 2 0 4 2 2 2-1-2-3-1-4 0zm-1-1zm1 2l-2-1c1-2 1 0 2 1zm4 2c-1 1-2 1-2-1l-2-1c3-1 2 2 4 2zm-1 0zm-14 0c0-3 2 3 2 4 2 3 4 7 8 8 3-2 3-7 4-11v5c0 3-2 8-6 7-5-3-7-9-9-14l1 1zm0-1zm-4 0c4-1 5 1 0 1v-1zm-1 1zm5 11c-2 1-3-3-4-5 0-2-2-6 0-6a18 18 0 004 11zm19-5v6c-1 4-4 10-9 8-5-1-8-5-11-8 2-1 4 3 6 4 2 3 8 5 11 1 2-3 2-7 2-10l1-1zm-1 1zm27-4s1 4-1 6c0 5-5 11-11 9-6-1-11-6-15-11 2-1 4 3 6 4 4 4 10 9 15 5 4-3 5-8 5-12l1-1zm-1 1zm32-2c-1-1 1 3-1 5-3 8-14 13-21 8l-10-11c3-1 3 4 5 5 4 6 13 9 20 5a15 15 0 006-12h1zm36-3c-1-1 0 3-1 5-3 10-15 15-24 11a19 19 0 01-12-13c2 0 2 4 4 6 6 9 22 10 28 1a20 20 0 004-10h1zm35 3c-1-1 0 3-2 5-6 10-22 13-30 4-3-4-4-8-4-12 2 0 1 4 2 6 4 10 17 13 25 8a18 18 0 008-11h1zm31 2c-1-1-1 3-3 5-5 6-14 10-21 6a16 16 0 01-8-13c2 0 1 4 3 6 3 7 13 10 20 5 3-2 6-6 8-10l1 1zm-1-1zm27 4l-3 4c-5 4-11 9-18 6-4-2-5-8-6-13 2 0 1 4 2 6 1 4 6 9 11 7s10-6 13-11l1 1zm-1-1zm19 5c2 2-2 4-3 5-3 4-10 7-13 2-2-3-3-7-3-11 2 0 1 4 2 6 0 4 4 8 8 6s7-5 9-8zm4-11v5l-3 6c-1-1 2-3 2-6 1-1 0-6 1-5zm0-1zm0 0zm0 1z"/><path fill="#edb92e" d="M482 263c-34 0-68 2-102 5-7 0-2-8 4-6a988 988 0 01201 0c7 3-2 8-6 6a985 985 0 00-97-5z"/><path fill="#0c4076" d="M482 105c10 0 17 8 17 17 0 10-7 18-17 18a17 17 0 01-17-18c0-9 8-17 17-17z"/><path fill="#edb92e" d="M485 85a3 3 0 003-3c0-2-1-3-3-3 0-2-1-3-3-3s-3 1-3 3a3 3 0 00-3 3c0 1 1 3 3 3v6h-5c0-1-2-3-4-3a3 3 0 00-3 3l-3 3a3 3 0 003 4 3 3 0 003 3 3 3 0 004-3h5v21h6V98h6a3 3 0 003 3c2 0 3-2 3-3 2 0 3-2 3-4a3 3 0 00-3-3 3 3 0 00-3-3c-2 0-3 2-3 3h-6v-6z"/><path fill="#21231e" d="M488 82l1 1a4 4 0 01-4 2l1-1a3 3 0 002-2zm-3-3v-1a4 4 0 014 4l-1-1a3 3 0 00-3-2zm0 0zm-3-3l1-1a4 4 0 013 4l-1-1a3 3 0 00-3-2zm-3 3c0-1 0-1 0 0a4 4 0 013-4l-1 1a3 3 0 00-1 3h-1zm1 0zm-3 3c-1 0-2 0-1-1a4 4 0 013-3l-1 1a3 3 0 00-1 3zm3 3h-1a4 4 0 01-4-3h2a3 3 0 002 2l1 1zm-1-1zm0 7v-6l1 1v5h-1zm1 0zm-6 0h5l-1 1h-4v-1zm0 1zm-4-3c0-1 0-2 1-1a4 4 0 013 3h-1a3 3 0 00-3-2zm-3 3v-1a4 4 0 013-3v1a3 3 0 00-2 2l-1 1zm1-1zm-3 3c-1 1-2 0-1-1a4 4 0 013-2v1a3 3 0 00-2 2zm3 4h-1a4 4 0 01-3-4l1 1a3 3 0 002 2l1 1zm-1-1zm3 3v1a4 4 0 01-3-3h1a3 3 0 002 2zm4-3v1a4 4 0 01-4 3l1-1a3 3 0 002-2l1-1zm-1 1zm6 0h-5c-1-1 0-1 1-1h4v1zm0-1zm0 22V98c1-1 1 0 1 1v20h-1zm0 0zm6 0h-6l1-1h5v1zm1 0zm0-21v21l-1-1V98h1zm-1 0zm6 0h-6l1-1h5v1zm0-1zm3 3l-1 1a4 4 0 01-3-3h1a3 3 0 003 2zm3-3v1a4 4 0 01-3 3l1-1a3 3 0 001-2l1-1zm-1 1zm4-4v1a4 4 0 01-3 3l1-1a3 3 0 002-3zm-4-3h1a4 4 0 014 3h-2a3 3 0 00-2-2l-1-1zm1 1zm-3-3c0-1 0-2 1-1a4 4 0 012 3h-1a3 3 0 00-2-2zm-3 3l-1-1a4 4 0 014-3l-1 1a3 3 0 00-2 2v1zm0-1zm-6 0h6l-1 1h-5v-1zm0 1zm1-7v6c-1 1-1 0-1-1v-5h1zm-1 0zm0 0zm0 0z"/><path fill="#21231e" d="M500 122h-1a17 17 0 00-10-15 17 17 0 00-7-1c0-1 0-2 1-1a18 18 0 0117 17zm-18 18l1-1a17 17 0 0016-17l1 1a18 18 0 01-10 15 18 18 0 01-8 2zm-18-18c1 0 2 0 1 1a17 17 0 0010 14 17 17 0 007 2l-1 1a18 18 0 01-15-10 18 18 0 01-2-8zm18-17l-1 1a17 17 0 00-16 16h-1a18 18 0 0110-16 18 18 0 018-1z"/><path fill="#edb92e" d="M499 119a18 18 0 010 6 479 479 0 00-34 0 17 17 0 010-6 470 470 0 0134 0z"/><path fill="#21231e" d="M500 122h-1a17 17 0 00-1-3h2v3zm-1 3v-1c0 1 0 1 0 0v-2l1 1v2h-1zm1 0h-1 1zm-18 0v-1h17v1h-17zm-17 0s1 0 0 0l1-1h16v1h-17zm0 0c0 1-1 0 0 0zm-1-3l1 1 1 2h-1l-1-3zm1-4c0 1 0 2 1 1v1l-1 2h-1l1-3v-1zm0 1c0-1 1-1 0 0zm17-1v1h-17l1-1h16zm17 1s-1 0 0 0h-17v-1h17v1zm0-1c1 0 1 1 0 0z"/><path fill="#edb92e" d="M469 133c-4-2-4 1-4 5 0 13 3 26-1 42-1 6-4 10-2 11 6 4 9 6 8 8 2 3 6 3 12 2 7 1 11 1 12-2 0-2 2-4 8-8 2-1 0-5-2-11-3-16-1-29 0-42 0-4-1-7-5-5-7 5-19 5-26 0z"/><path fill="#21231e" d="M465 138l-1-1c0-2 0-5 3-5l2 1h-2c-2 0-2 2-2 3v2zm-1 42v-2c2-10 1-21 1-31l-1-9c2-1 1 1 1 2 1 11 2 22 1 33a80 80 0 01-2 7zm-1 11h-2l2-7v-4c2 0 1 1 1 2l-2 8 1 1zm7 8c-1 1 0 0-1-1-1-3-4-4-6-6-1 0 0-2 1-1l6 6v2zm-1 0zm13 1l-1 1c-4 1-7 2-10 0a5 5 0 01-2-2c1-1 2 1 2 1h11zm0 0zm12-1v1c-2 2-5 2-8 2l-4-1 2-1c3 1 6 2 9 0l1-1zm1 0zm7-8c1 1-1 1-1 2-3 1-5 2-6 5l-1 1c0-3 2-4 3-5a36 36 0 015-3zm-2-11c1-1 1 1 1 2l2 8-1 1v-2l-2-9zm-1-42c2-1 1 1 1 2 0 11-2 22 0 33l1 7c-1 1-1-1-2-2-2-10-1-21 0-31v-9zm-3-4c-1-1 0-2 1-2 1-1 3 1 3 2v4l-1-2c0-1 0-3-2-3a4 4 0 00-1 1zm-27 0c0-2 1-1 2 0 6 3 13 3 20 1l4-2c1 1 0 1-1 1-6 4-14 4-21 2a21 21 0 01-4-2z"/><g id="a"><path d="M363 212c-2-4 0-10 0-11 1-1 0-2-1-3-13-18-13-20-4-27 8-6 26-12 39-16l7-7c-25 2-52 12-66 24-7 6 2 19 13 38 6 5 9 7 12 2z" fill="#edb92e"/><path fill="#21231e" d="M363 201v11c-1 1-1-1-1-2-1-3 0-6 1-9zm-1-3l1 1 1 2-1-1a8 8 0 00-1-2zm-4-27c1 1-1 2-2 2-2 2-4 5-3 8l6 12 4 5c-1 1-2-1-3-1l-8-15c-1-3 0-6 2-8l4-3zm39-16c1 1-1 1-2 1l-32 13a37 37 0 00-5 3c-1-1 1-2 2-2 8-5 17-9 27-12a499 499 0 0110-3zm0 1zm7-7c0-2 1 0 0 0l-7 7c-1-1 1-2 1-3l6-5v1zm0-1c2-1 1 1 0 0zm-65 24c-2-1 0-1 1-2 10-8 23-13 35-17a137 137 0 0129-5c1 1-1 0-2 1a137 137 0 00-49 14 75 75 0 00-14 9zm12 37c-1 2-1 0-2-1-4-8-9-15-12-24-2-4-3-8 0-12 1-1 3 0 1 1-3 3-2 8 0 11 3 9 8 16 12 24l1 1zm-1 1zm13 2v2c-2 2-5 2-6 0l-7-4c1-1 2 0 3 1 2 1 4 3 7 3 2 0 2-2 3-2zm0 0zm0 1zm0-1z"/><path d="M359 214a34 34 0 01-1-5v-8l-8-14c-2-3-3-6-2-10s4-7 7-9l14-8c11-4 20-7 26-7l-4 4c-12 4-26 9-33 14-9 7-9 9 4 27 1 1 2 2 1 3v11c-1 2-2 1-4 2z" fill="#edb92e"/><path fill="#21231e" d="M357 209c2-1 1 0 2 1l1 3h-2l-1-4zm1 0zm0-8c1-1 1 0 1 1l-1 7-1-2 1-6zm1-1zm-10-12h2c2 5 5 8 8 12h-2l-8-12zm-2-11l1 1 2 9c-1 1-1 0-1-1-2-3-3-6-2-9zm8-10c1 1 0 2-1 2l-6 8v-2c1-3 4-5 7-8zm14-7c1 1 0 1-1 1-5 2-9 4-12 7-2-1 0-1 0-2a71 71 0 0113-6zm0 0zm27-6c-2-2 0 0-1 0-9 0-18 3-26 7-1-1 1-1 1-2 8-3 17-6 25-6l1 1zm-1-1h1-1zm-4 4l4-4c1 1 0 1-1 2l-3 3v-1zm1 0zm-34 15c-1-1 0-1 1-2a112 112 0 0132-13 158 158 0 00-33 15zm5 26c-1 1-2 0-2-1-3-5-7-9-9-14-1-3-1-6 1-8l5-4c1 1 0 1-1 2-2 2-5 4-5 7l5 10 6 8zm1 3l-1-1a7 7 0 00-1-1h1l1 2zm0 12l-2-2 1-10v1l1 10v1zm0-1zm-5 1c0 2 0 0 1 0s2 1 3-1v2h-4v-1zm0 1c0-1 1-1 0 0zm1-1z"/><path d="M468 132v2l-2-1-1 5v3c-33-1-53 4-58 14-4 8 3 21 14 36v3c-2 2-4 6-3 9-6 4-14 4-21 1-1-3-3-4-5-5l-2-2-10-31c-10-31 75-34 88-34z" fill="#edb92e"/><path fill="#21231e" d="M467 134c2-1-1 0 0-2l1-2v2c-1-1 0-1 1-1l-1 3h-1zm1 0c1 3-1 0 0 0zm-2-1h1l1 1-2-1zm0 0zm-1 5c-2 1-1-1-1-2l2-4v2l-1 4zm-1 0zm1 3c0-1-1 1-1-1l1-2v3zm0 0zm-58 14l1-3c5-6 13-8 20-9 12-3 25-3 37-3 0 2-2 1-4 1-13 0-27 1-40 5-5 1-11 4-14 9zm14 35c-1 2-2-1-3-2-5-7-10-15-12-24-1-3-1-7 1-10v4c-1 6 2 12 5 18 2 5 6 10 9 14zm0 4v-4c1 1 2 3 0 4zm-2 9c-1-1-2 0-2-2 0-3 1-5 3-7 2 0 0 1 0 2-1 2-2 4-1 7zm0 0zm-22 2h3c6 2 13 1 18-2 1 1-2 1-2 2-6 2-13 3-19 0zm0 0zm-5-6l2 1a10 10 0 014 4c-1 1-1 0-2-1l-4-4zm-3-2l2 1 1 1-3-2zm-10-31c2-1 2 1 2 2l9 29c-1 1-1-2-1-3l-10-28zm89-34l-2 1c-19 0-37 2-55 6-9 2-18 5-26 11-3 3-6 8-5 13 0 1 1 3-1 3a14 14 0 013-14c5-6 13-9 20-11a214 214 0 0166-9zm1 0zm-1 0zm1 0z"/><path d="M405 190a6 6 0 016 7c0 3-2 6-6 6s-6-3-6-6a6 6 0 016-7z" fill="#FFF"/><path d="M412 197h-1a6 6 0 00-6-6v-1a7 7 0 017 7zm-7 7v-2a6 6 0 006-5h1a7 7 0 01-3 5 7 7 0 01-4 1zm-7-7h1a6 6 0 006 5v1a7 7 0 01-7-6zm7-7v1a6 6 0 00-6 6h-1a7 7 0 013-6 7 7 0 014-1z" fill="#21231e"/><path d="M351 204a6 6 0 016 6c0 3-3 6-6 6a6 6 0 01-6-6 6 6 0 016-6z" fill="#FFF"/><path d="M357 210h-1a5 5 0 00-5-6v-1a6 6 0 016 7zm-6 6v-1a5 5 0 005-5h1a7 7 0 01-6 6zm-7-6h1a5 5 0 006 5v1a6 6 0 01-7-6zm7-7v1a5 5 0 00-6 6h-1a6 6 0 017-7z" fill="#21231e"/><path d="M345 193a6 6 0 016 6 6 6 0 01-6 6 6 6 0 01-6-6 6 6 0 016-6z" fill="#FFF"/><path d="M352 199h-1a5 5 0 00-6-6v-1a6 6 0 017 7zm-7 6v-1a5 5 0 005-5h2a7 7 0 01-4 5 6 6 0 01-3 1zm-6-6h1a5 5 0 005 5v1a6 6 0 01-6-6zm6-7v1a5 5 0 00-5 6h-1a6 6 0 016-7z" fill="#21231e"/><path d="M340 182a6 6 0 016 6 6 6 0 01-6 6 6 6 0 01-6-6 6 6 0 016-6z" fill="#FFF"/><path d="M346 188h-1a5 5 0 00-5-6v-1a6 6 0 016 7zm-6 6v-1a5 5 0 005-5h1a7 7 0 01-3 5 6 6 0 01-3 1zm-7-6h1a5 5 0 006 5v1a6 6 0 01-7-6zm7-7v1a5 5 0 00-6 6h-1a7 7 0 017-7z" fill="#21231e"/><path d="M444 202c4 0 3 6 2 7-1 2-2 2-3 1 0-2-2-8 1-8z" fill="#edb92e"/><path fill="#21231e" d="M447 210l-1-1v-2a7 7 0 000-3l-1-1a2 2 0 00-1 0v-1h2l1 3a11 11 0 010 5zm-4 0l1-1 1 1 1-1 1 1-2 1h-1a5 5 0 01-1-1zm1-8v1h-1v3l1 3-1 1a9 9 0 01-1-3 8 8 0 010-3l1-2h1z"/><path d="M444 205c9 0 7 14 5 18s-4 4-7 0c-2-3-6-17 2-18z" fill="#FFF"/><path fill="#21231e" d="M449 223l-1-1 2-5-1-8-3-3h-1l-1-1 4 1c2 1 2 3 3 5a25 25 0 01-2 12zm-7 0h1l2 2 2-1 1-2 1 1-2 3h-3a10 10 0 01-2-3zm2-17v-1l1 1-4 2-1 5a25 25 0 003 10h-1a20 20 0 01-2-5l-1-8 3-4 2-1v1zm0-1v1-1z"/><path d="M380 211c3-1 4 5 3 6 0 2-1 3-2 1-2-1-5-6-1-7z" fill="#edb92e"/><path fill="#21231e" d="M384 218l-1-1v-2l-1-3-2-1v-1h1l2 2a11 11 0 011 6zm-4 1l1-1 1 1 1-1v-1l1 1-1 1h-3zm0-9v1l-1 1a4 4 0 000 3l2 3-1 1a9 9 0 01-1-3 8 8 0 01-1-3l1-2 1-1z"/><path d="M381 214c7-2 9 12 8 15-1 5-3 6-6 2-3-2-10-15-2-17z" fill="#FFF"/><path fill="#21231e" d="M390 230l-1-1v-5c-1-3-1-5-3-7l-3-3a5 5 0 00-2 0v-1a5 5 0 014 1l3 4a26 26 0 012 12zm-8 2l1-1 3 2 2-1 1-3 1 1-2 3-3 1a10 10 0 01-3-2zm-1-19v1a4 4 0 00-3 3v5a25 25 0 005 9l-1 1a20 20 0 01-3-5l-2-8c0-1 0-3 2-4a6 6 0 012-2zm0 1s0-1 0 0z"/><path d="M464 138c-17-2-35 0-52 7-15 6-13 23 5 47-2 3-3 7-3 11h5c-2-3 0-7 2-9v-3c-11-15-18-28-14-36 5-10 25-15 58-14v-3h-1z" fill="#edb92e"/><path fill="#21231e" d="M412 145c-1-1 1-1 2-1 16-6 33-8 50-7 1 2-1 1-2 1-17-1-34 1-50 7zm5 47l-2-1c-6-8-11-17-13-26-1-6-1-12 3-16a18 18 0 017-5c1 2-1 2-2 2a14 14 0 00-8 12c0 8 3 15 7 21l8 13zm0 0zm-3 10c0 2-1 1-1 0a25 25 0 013-10c2 0 0 1 0 2a27 27 0 00-2 9v-1zm0 1zm4 0c2-1 1 1 0 0h-4c-1-1 1-1 2-1h3l-1 1zm1 0zm1-9c2 0 0 1 0 2-1 2-2 4-1 7-1 1-1-1-1-2l2-7zm0-3c1-1 1 0 2 1l-1 2v-2l-1-1zm-13-37v3c-2 5 1 11 3 16l11 17c-1 2-1 0-2-1-5-7-10-15-13-23-1-4-1-8 1-12zm57-13h-1c-13 0-26 0-39 4-5 1-12 3-16 8 0 1-1 3-1 1 3-5 9-8 15-10 12-3 25-4 37-4h6l-1 1zm1 0zm-1-3c1-1 1 0 1 1v2l-1-1v-2zm1 0zm-1-1l1 1h-1v-1zm0 1zm1 0zm-1-1z"/><path d="M381 143c3 0 6 2 6 6s-3 6-6 6-7-3-7-6 3-6 7-6z" fill="#FFF"/><path d="M387 149h-1a6 6 0 00-5-6v-1a7 7 0 016 7zm-6 7v-1a6 6 0 005-6h1a7 7 0 01-3 6 7 7 0 01-3 1zm-7-7h1a6 6 0 006 6v1a7 7 0 01-7-7zm7-7v1a6 6 0 00-6 6h-1a7 7 0 013-6 7 7 0 014-1z" fill="#21231e"/><path d="M393 139c3 0 6 2 6 6a6 6 0 01-6 6 6 6 0 01-7-6 6 6 0 017-6z" fill="#FFF"/><path d="M399 145h-1a6 6 0 00-5-6v-1a7 7 0 016 7zm-6 7v-1a6 6 0 005-6h1a7 7 0 01-3 6l-3 1zm-7-7h1a6 6 0 006 6v1a7 7 0 01-7-7zm7-7v1a6 6 0 00-6 6h-1a7 7 0 013-6 7 7 0 014-1z" fill="#21231e"/><path d="M394 144l2 2c-10 6-14 11-13 17l10 32 10 8v1c1 4-2 3-5 2-1-3-4-6-6-7l-2-2-10-31c-3-10 3-17 14-22z" fill="#edb92e"/><path fill="#21231e" d="M396 147h-1l-1-3 1 1 1 1v1zm0-1zm-12 17c-1 1-1 0-1-1-1-4 2-8 6-11a43 43 0 017-5c1 1 0 1-1 2-4 2-8 5-11 10a9 9 0 000 5zm0 0zm9 31c0 2-1 1-1 0l-9-30h1l9 31v-1zm0 1zm10 8h-1l-9-8h1c4 2 7 5 9 8zm0 0zm1 1h-1v-1h1v2-1zm-1 1zm-5 1h5l1-2v2c-1 2-3 1-5 1l-1-1zm0 1zm-6-8h1c3 2 5 4 6 7-1 1-1 0-2-1a20 20 0 00-5-6zm0-1zm-3-1h2l1 1-1 1-2-2zm-10-31c1-1 2 0 2 1l9 30c-1 1-1 0-1-1l-10-30zm16-22c-2 0 0 0-1 1-5 2-10 5-13 10-2 4-2 7-1 11l-1-1a14 14 0 013-13c3-4 8-6 12-8h1zm-1 0z"/><path d="M356 217v2h-8c4-3 6-4 8-2z" fill="#edb92e"/><path fill="#21231e" d="M355 219v-2h1v2h-1zm1 0zm-8 0l1 1-1-1h7v-1l1 1-7 1a12 12 0 01-1 0v-1zm0 1h-1l1-1v1zm8-3h-1 1a3 3 0 00-2 0 6 6 0 00-3 1l-2 2-1-1a15 15 0 014-3h4v1zm0-1v1-1zm0 1zm0-1v1-1z"/><path d="M356 212l2 1 4-1c3-2 4 2 2 5-1 3 0 5 1 7v4l-2 1h-2c-4-2-5-6-6-9-2-5-8-6 1-8z" fill="#edb92e"/><path fill="#21231e" d="M358 213v1l-2-1v-1l2 1zm3-1l1 1h-1l-3 1v-1l3-1zm0 0zm4 6l-1-1v-4l-1-1a4 4 0 00-1 1l-1-1 3-1c1 1 2 2 1 3a10 10 0 010 4zm0 6h-1v-7 1c1 0 0 0 0 0l1 6zm0 5l-1-1 1-2a8 8 0 00-1-2h1l1 3a2 2 0 01-1 2zm0 0zm-2 1v-1l1-1 1 1-2 1zm0-1zm-2 0v-1l1 1v1l1-1v1h-2v-1zm0-1c1 0 1 1 0 0zm-7-8h1l4 7 2 1v1a10 10 0 01-5-4l-2-5zm2-8v1h-1l-3 1v1l3 4v1h-1l-3-4v-2l2-2h3zm0 0zm0 1v-1 1zm0-1z"/><path d="M357 213c3 1 4-1 6-1-1 5-2 8-7 5-3-2-7 1-7 2-1 1-2 0-3-2-3-5 7-6 11-4z" fill="#edb92e"/><path fill="#21231e" d="M364 212h-1l-3 1h-3v-1h3a6 6 0 013-1l1 1zm-1-1l1 1h-1v-1zm-7 6l4 1 2-2 1-4h1l-2 5a3 3 0 01-2 2l-4-2zm-7 3l-1-1a6 6 0 013-2 6 6 0 015 0l-5 1-2 2zm-3-2v-1l2 2 1 1h-1a5 5 0 01-2-2zm11-6v1l-7-1-3 2-1 2v2l-1-4 4-2a16 16 0 018 0zm0 1v-1z"/><path d="M459 124c3 0 6 3 6 7s-3 6-6 6c-4 0-6-3-6-6s2-7 6-7z" fill="#FFF"/><path d="M465 131h-1a6 6 0 00-5-6v-1a7 7 0 016 7zm-6 6v-1a6 6 0 005-5h1a7 7 0 01-3 5l-3 1zm-7-6h1a6 6 0 006 5v1a7 7 0 01-7-6zm7-7v1a6 6 0 00-6 6h-1a7 7 0 013-6l4-1z" fill="#21231e"/><path d="M446 124c4 0 6 3 6 7s-2 6-6 6-6-3-6-6 3-7 6-7z" fill="#FFF"/><path d="M453 131h-1a6 6 0 00-6-6v-1a7 7 0 017 7zm-7 6v-1a6 6 0 006-5h1a7 7 0 01-3 5l-4 1zm-6-6h1a6 6 0 005 5v1a7 7 0 01-6-6zm6-7v1a6 6 0 00-5 6h-1a7 7 0 013-6l3-1z" fill="#21231e"/><path d="M434 125a6 6 0 016 7c0 3-3 6-6 6s-6-3-6-6c0-4 2-7 6-7z" fill="#FFF"/><path d="M440 132h-1a6 6 0 00-5-6v-1a7 7 0 016 7zm-6 6v-1a6 6 0 005-5h1a7 7 0 01-3 5l-3 1zm-7-6h1a6 6 0 006 5v1a7 7 0 01-7-6zm7-7v1a6 6 0 00-6 6h-1a7 7 0 017-7z" fill="#21231e"/><path d="M422 128a6 6 0 016 6c0 3-2 6-6 6a6 6 0 01-6-6c0-4 3-6 6-6z" fill="#FFF"/><path d="M429 134h-1a6 6 0 00-6-6v-1a7 7 0 017 7zm-7 7v-1a6 6 0 006-6h1a7 7 0 01-3 6l-4 1zm-6-7h1a6 6 0 005 6v1a7 7 0 01-6-7zm6-7v1a6 6 0 00-5 6h-1a7 7 0 016-7z" fill="#21231e"/><path d="M346 159c4 0 6 3 6 7a6 6 0 01-6 6 6 6 0 01-6-6 6 6 0 016-7z" fill="#FFF"/><path d="M353 166h-1a6 6 0 00-6-6v-1a7 7 0 017 7zm-7 6v-1a6 6 0 006-5h1a7 7 0 01-3 5 7 7 0 01-4 1zm-6-6h1a6 6 0 005 5v1a7 7 0 01-6-6zm6-7v1a6 6 0 00-5 6h-1a7 7 0 013-6l3-1z" fill="#21231e"/><path d="M357 153a6 6 0 016 6c0 3-3 6-6 6s-6-3-6-6 2-6 6-6z" fill="#FFF"/><path d="M363 159h-1a6 6 0 00-5-6v-1a7 7 0 016 7zm-6 7v-1a6 6 0 005-6h1a7 7 0 01-3 6 7 7 0 01-3 1zm-7-7h1a6 6 0 006 6v1a7 7 0 01-7-7zm7-7v1a6 6 0 00-6 6h-1a7 7 0 013-6 7 7 0 014-1z" fill="#21231e"/><path d="M369 147c3 0 6 3 6 6a6 6 0 01-6 6 6 6 0 01-6-6 6 6 0 016-6z" fill="#FFF"/><path d="M375 153h-1a6 6 0 00-5-5v-1a7 7 0 016 6zm-6 7v-1a6 6 0 005-6h1a7 7 0 01-3 6l-3 1zm-7-7h1a6 6 0 006 6v1a7 7 0 01-7-7zm7-6v1a6 6 0 00-6 5h-1a7 7 0 013-5l4-1z" fill="#21231e"/><path d="M338 169c4 0 6 3 6 7a6 6 0 01-6 6 6 6 0 01-6-6 6 6 0 016-7z" fill="#FFF"/><path d="M345 176h-1a6 6 0 00-6-6v-1a7 7 0 017 7zm-7 6v-1a6 6 0 006-5h1a7 7 0 01-3 5 7 7 0 01-4 1zm-6-6h1a6 6 0 005 5v1a7 7 0 01-6-6zm6-7v1a6 6 0 00-5 6h-1a7 7 0 013-6l3-1z" fill="#21231e"/><path transform="matrix(1.01066 0 0 1.01824 -5 -6)" fill="#edb92e" d="M410 280l21-12 24 9-22 13z"/><path d="M431 267l-22 13v-1l22-13v1zm0-1zm23 11l-23-10v-1l23 10v1zm0-1h1l-1 1v-1zm-22 13l22-13 1 1-22 13h-1v-1zm0 1h1zm-23-11l23 10v1l-23-10v-1zm0 1l-1-1h1v1z" fill="#21231e"/><path d="M431 271c6-1 11 2 11 6s-4 7-10 7c-6 1-10-2-11-6 0-4 4-7 10-7z" fill="#c6363c"/><path fill="#21231e" d="M442 277h-1c0-2-1-4-3-4a13 13 0 00-7-2v-1l9 3a6 6 0 012 4zm-10 8v-1c3 0 6-1 8-3l1-4h1l-2 5a14 14 0 01-8 3zm-11-7h1c0 2 1 4 3 4 2 2 5 2 7 2v1l-9-3a6 6 0 01-2-4zm10-8v1c-3 0-6 1-8 3l-1 4h-1c0-2 1-4 3-5a14 14 0 017-3z"/><path d="M382 270l24 9-19 13c-6-2-10-19-5-22z" fill="#edb92e"/><path fill="#21231e" d="M406 279l-24-9 1-1 23 9v1zm0-1l1 1h-1v-1zm-20 14l20-14v1l-19 14-1-1zm1 1zm-4-24l-1 1v1l-1 6a27 27 0 003 11c0 2 1 3 3 4l-1 1-4-5a29 29 0 01-2-11l1-7 2-1zm-1 0c1 0 1 0 0 0zm0 1zm0-1c1 0 1 0 0 0z"/><path d="M383 274c5 0 10 2 11 6 0 4-4 7-10 8-3 0-6-3-6-6-1-4 1-7 5-8z" fill="#0c4076"/><path fill="#21231e" d="M394 280h-1c0-2-1-3-3-4a13 13 0 00-7-1v-1c3-1 6 0 8 2 2 1 3 2 3 4zm-10 8v-1c3 0 6-1 8-3a5 5 0 001-4h1l-2 5c-2 2-5 3-8 3zm-7-6h1l3 5h3v1c-1 1-3 0-4-1a9 9 0 01-3-5zm6-8v1a5 5 0 00-4 2 7 7 0 00-1 5h-1l2-7a6 6 0 014-1z"/><path d="M457 280a3 3 0 014 4c0 1-2 3-4 3s-3-2-3-3a3 3 0 013-4z" fill="#FFF"/><path fill="#21231e" d="M461 284h-1a3 3 0 00-3-3v-1a4 4 0 014 4zm-4 3v-1a3 3 0 003-2h1a4 4 0 01-4 3zm-3-3h1a3 3 0 002 2v1a4 4 0 01-3-3zm3-4v1a3 3 0 00-2 3h-1a4 4 0 013-4z"/><path d="M409 283a3 3 0 013 3c0 2-2 4-3 4s-3-2-3-4a3 3 0 013-3z" fill="#FFF"/><path fill="#21231e" d="M412 286h-1a3 3 0 00-2-2v-1a4 4 0 013 3zm-3 4v-1a3 3 0 002-3h1a4 4 0 01-3 4zm-4-4h1a3 3 0 003 3v1a4 4 0 01-4-4zm4-3v1a3 3 0 00-3 2h-1a4 4 0 014-3z"/><path d="M407 268a3 3 0 010 7 3 3 0 010-7z" fill="#FFF"/><path fill="#21231e" d="M411 272h-1a3 3 0 00-3-3v-1a4 4 0 014 4zm-4 3v-1a3 3 0 003-2h1a4 4 0 01-4 3zm-4-3h1a3 3 0 003 2v1a4 4 0 01-4-3zm4-4v1a3 3 0 00-3 2h-1a4 4 0 014-3z"/><path d="M457 266a3 3 0 014 3 3 3 0 01-4 4 3 3 0 01-3-4 3 3 0 013-3z" fill="#FFF"/><path fill="#21231e" d="M461 269h-1a3 3 0 00-3-2v-1a4 4 0 014 3zm-4 4v-1a3 3 0 003-3h1a4 4 0 01-4 4zm-3-4h1a3 3 0 002 3v1a4 4 0 01-3-4zm3-3v1a3 3 0 00-2 2h-1a4 4 0 013-3z"/><path d="M371 237c2 0 6 5 7 5 1-3-1-11-6-16-2-1-3-3-3-8 0-1-3 0-3 2v6l-1 2c5 2 6 4 6 9z" fill="#edb92e"/><path fill="#21231e" d="M378 242s0 1 0 0l-3-2-3-2-1-1 4 2 3 2v1zm1 0h-1zm-7-16l1-1 1 2a32 32 0 015 10v5h-1l-1-5a33 33 0 00-5-11zm1-1zm-5-6l1-1 1 5a4 4 0 003 2l-1 1a5 5 0 01-3-3l-1-4zm-2 1h-1l3-3 1 1h-1l-1 1-1 1zm1 6h-1l-1-6h1l1 6zm-1 2l-1 1v-1l1-2h1a3 3 0 01-1 3v-1zm-1 1v-1 1zm5 8l-1-6-4-2 1-1 5 4v5h-1zm1 0h-1 1zm-1 0h1-1z"/><path d="M369 219l-1 3a5 5 0 001 3 10 10 0 003 3c1 0 2 1 2 3a11 11 0 012 4c0 3 0 6 2 7h2v-2l-2-4v-3l1-3c0-2-2-6-4-6-3 0-4 0-5-3l-1-2z" fill="#edb92e"/><path fill="#21231e" d="M369 222h-1v-4l1 1v3zm1 3h-1a5 5 0 01-1-3h1a4 4 0 001 3zm2 2v1a11 11 0 01-3-3h1a10 10 0 002 2zm3 3l-1 1-2-3 1-1 2 3zm1 5h-1l-1-4 1-1a11 11 0 011 5zm2 6v1l-2-3a21 21 0 01-1-4h1l1 5 1 1zm2 1h1l-1 1-2-1v-1a3 3 0 002 1zm1 0v1-1zm-2-2l1-1 1 3h-1l-1-2zm-1-4h1l1 3-1 1a9 9 0 01-1-4zm1 0zm-1-3h1v3h-1v-3zm0-3h1v3l-1-1v-2zm-3-6v-1l3 3a11 11 0 011 4h-1a9 9 0 00-2-5l-1-1zm-5-3l1-1c0 2 1 3 2 3h2v1c-2 1-3 0-4-1a8 8 0 01-1-2zm-1-2l-1-1h1l2 2-1 1-2-2h1zm-1-1h1-1zm1 1zm-1-1h1-1z"/><path d="M360 227l2-1a6 6 0 014 0c6 1 8 11 2 14-1 0-3-1-4-4s-2-5-4-6v-3z" fill="#edb92e"/><path fill="#21231e" d="M362 225v1l-2 1 2-2zm4 0v1a5 5 0 00-4 0v-1a6 6 0 014 0zm2 15v-1c-1 0 0 0 0 0a5 5 0 003-3 9 9 0 00-1-7 7 7 0 00-4-3v-1a8 8 0 015 5 9 9 0 011 7 6 6 0 01-4 3zm0 0zm-4-3l1-1 2 3h1v1l-3-1-1-2zm0 0zm-4-7l1-1v1l4 6-1 1-4-7zm0 0zm0-3v1s0-1 0 0l1 1-1 1-1-3a1 1 0 011 0zm0 0c0-1 0 0 0 0zm0 1v-1 1zm0-1z"/><path d="M363 228c5-2 9 8 4 10-3 1-3-2-3-4-1-3-6-4-1-6z" fill="#edb92e"/><path fill="#21231e" d="M367 238v-1l2-1a6 6 0 000-4 6 6 0 00-3-4 3 3 0 00-3 0v-1h2a6 6 0 013 3 8 8 0 012 5 4 4 0 01-2 3h-1zm-4-4h1l1 3 1 1 1-1v1h-2l-1-2-1-2zm0-7v1l-2 1v1l3 3v1h-1l-2-2-1-2 1-2 2-1z"/><path d="M363 229c3-1 7 5 3 7-2 1-4 0-4-2-1-2 0-4 1-5z" fill="#0c4076"/><path fill="#21231e" d="M367 236l-1-1 1-1a4 4 0 000-2 5 5 0 00-2-2 1 1 0 00-1 0l-1-1a2 2 0 012 0l2 2 1 3a3 3 0 01-1 2zm-6-2l1-1a3 3 0 002 3l2-1v1h-3a4 4 0 01-2-2zm2-5l1 1-2 1v2l-1 1a4 4 0 010-4 4 4 0 012-1zm0 0z"/><path d="M400 180a6 6 0 016 6 6 6 0 01-6 6c-3 0-6-2-6-6s3-6 6-6z" fill="#FFF"/><path d="M407 186h-1a6 6 0 00-6-6v-1a7 7 0 017 7zm-7 7v-1a6 6 0 006-6h1a7 7 0 01-3 6 7 7 0 01-4 1zm-7-7h1a6 6 0 006 6v1a7 7 0 01-7-7zm7-7v1a6 6 0 00-6 6h-1a7 7 0 013-6 7 7 0 014-1z" fill="#21231e"/><path d="M395 169a6 6 0 017 6 6 6 0 01-7 7 6 6 0 01-6-7 6 6 0 016-6z" fill="#FFF"/><path d="M402 175h-1a6 6 0 00-6-5v-2a7 7 0 017 7zm-7 7v-1a6 6 0 006-6h1a7 7 0 01-3 6 7 7 0 01-4 1zm-6-7h1a6 6 0 005 6v1a7 7 0 01-6-7zm6-7v2a6 6 0 00-5 5h-1a7 7 0 013-5 7 7 0 013-2z" fill="#21231e"/><path d="M411 131c3 0 6 3 6 7s-3 6-6 6c-4 0-6-3-6-6s2-7 6-7z" fill="#FFF"/><path d="M417 138h-1a6 6 0 00-5-6v-1a7 7 0 016 7zm-6 6v-1a6 6 0 005-5h1a7 7 0 01-3 5 7 7 0 01-3 1zm-7-6h1a6 6 0 006 5v1a7 7 0 01-7-6zm7-7v1a6 6 0 00-6 6h-1a7 7 0 013-6 7 7 0 014-1z" fill="#21231e"/><path d="M400 136a6 6 0 017 7 6 6 0 01-7 6 6 6 0 01-6-6 6 6 0 016-7z" fill="#FFF"/><path d="M407 143h-1a6 6 0 00-6-6v-1a7 7 0 017 7zm-7 7v-1a6 6 0 006-6h1a7 7 0 01-3 5 7 7 0 01-4 2zm-7-7h2a6 6 0 005 5v2a7 7 0 01-7-7zm7-7v1a6 6 0 00-5 6h-2a7 7 0 014-6 7 7 0 013-1z" fill="#21231e"/><path d="M393 145a6 6 0 016 7 6 6 0 01-6 6 6 6 0 01-7-6 6 6 0 017-7z" fill="#FFF"/><path d="M400 152h-1a6 6 0 00-6-6v-1a7 7 0 017 7zm-7 7v-1a6 6 0 006-6h1a7 7 0 01-4 6 7 7 0 01-3 1zm-7-7h1a6 6 0 006 6v1a7 7 0 01-7-7zm7-7v1a6 6 0 00-6 6h-1a7 7 0 013-6 7 7 0 014-1z" fill="#21231e"/><path d="M392 157c3 0 6 3 6 6s-3 6-6 6-7-2-7-6 3-6 7-6z" fill="#FFF"/><path d="M398 163h-1a6 6 0 00-5-6v-1a7 7 0 016 7zm-6 7v-1a6 6 0 005-6h1a7 7 0 01-6 7zm-7-7h1a6 6 0 006 6v1a7 7 0 01-7-7zm7-7v1a6 6 0 00-6 6h-1a7 7 0 013-6 7 7 0 014-1z" fill="#21231e"/><path d="M474 198c-2-5-5-8-8-10 4-13 5-30 3-51l-3-4-1 5 1 30-5 21 4 4 5 5h4z" fill="#edb92e"/><path fill="#21231e" d="M465 188h2c3 2 6 6 8 10-1 1-1 0-2-1l-7-8-1-1zm1 1zm2-52l1 2c2 14 2 29-1 43a76 76 0 01-2 7v-2a118 118 0 002-50zm0 0zm-2-4l1-1c2 1 2 4 2 5-1 1-1 0-1-1l-2-3zm-1 5l-1-1c0-2 0-4 2-4 0-1 0 0 0 0l-1 3v2zm-1 0zm2 30c-1 1-1 0-1-1 1-10 0-19-1-29l1 1c1 10 2 20 1 29zm-4 21c-1 1-1 0-1-1 2-7 4-13 4-20l1 2c0 6-2 13-4 19zm4 4h-2l-3-3h1l4 3zm0 0zm4 5h-1c0-2-2-3-4-4 0-2 1-1 2-1 1 1 3 3 3 5zm0 1zm2-1h-2l1-1 1 1zm3 0c-2 0-1-1 0 0l-1 1h-3c0-2 1-1 2-1h2zm-1 0c-1-1 1-1 0 0zm0 0c1 0 1 0 0 0z"/><path d="M458 215l3-2v-3c-1-6 3-5 6-3l5 6 3 2a113 113 0 010 9l-3 2-5 5c-3 3-7 3-6-2v-3l-3-2a7 7 0 01-2-2v-5l2-2z" fill="#edb92e"/><path fill="#21231e" d="M460 213c2 0 1 1 0 1h-2l2-1zm1-3c1-1 1 2 1 2 0 1-1 2-2 1l1-3zm6-3c0 2-2-1-3-1s-3 1-2 2l-1 2c0-2-1-4 1-5l5 2zm6 5c-1 2-2 0-3-1l-3-3c0-2 2 0 2 1l4 3zm3 3h-1l-3-2 2 1 2 1zm0 0zm0 4c-2 1-1-1-1-2s0-3 1-2v4zm-1 0zm0 0c1 0 1 0 0 0zm0 0zm1 5h-1v-5c2 0 1 2 1 3v2zm0 0zm-3 2c-2 0 0-1 1-2h2l-3 2zm-6 6c-1-1 1-2 2-3l3-3c1 1-1 2-1 3l-4 3zm-6-3l1 3h2l3-1c1 1-1 1-1 2h-4c-2-1-1-2-1-4zm-1-3c2-2 2 1 2 2l-1 1-1-3zm-2-1c1-2 2 0 3 0l-1 1-2-1zm1-1zm-3-2c1-1 1 1 2 2h-1a7 7 0 01-1-2zm-1-3c2 0 1 2 2 3-2 1-2-1-2-2v-1zm1-2v2c-1 1-1-1-1-2h1zm2-3c1 1 0 2-1 2h-1a8 8 0 012-2zm1 1z"/><path d="M476 220l-1 1a17 17 0 00-9 4c2-2 5-4 10-5zm0-1l-1-1a17 17 0 01-9-5c2 3 5 5 10 6z" fill="#21231e"/><path d="M461 207l4 2c1 2 0 4-2 7l-1 3 1 4c2 2 3 5 2 7l-4 2v-6l-3-2a7 7 0 01-2-2v-5l2-2 3-2v-3a7 7 0 010-3z" fill="#edb92e"/><path fill="#21231e" d="M465 209l-1 1a10 10 0 00-3-2v-1l4 2zm-2 7l2-5a2 2 0 00-1-1l1-1 1 4a11 11 0 01-3 3zm0 3h-1l1-3v3zm0 4l-1-4h1v4zm2 7l-1-1 1-3a11 11 0 00-2-3c2 1 3 3 3 5l-1 2zm-4 2l1-1h-1a9 9 0 003-2l1 1-4 2zm0 0c0-1 0 0 0 0zm0-3h1v2l-1 1a8 8 0 010-3zm-1-3l1-1 1 4h-1l-1-3zm-2-1l1-1 2 1v1h-1l-1-1h-1zm0 0zm-2-3h1a7 7 0 002 2l-1 1a8 8 0 01-2-3zm0 0v1-1zm-1-3h1l1 3h-1l-1-3zm1-2h1l-1 2h-1l1-2zm2-3l1 1a7 7 0 00-2 2h-1a8 8 0 012-3zm2-1h1l-2 2-1-1h1l1-1zm1-3h1l-1 3h-1l1-3zm0-2v-1l1 1v2h-1a8 8 0 010-3v1zm0-1zm0 0zm-100 19h1c-2-2-2-4-2-6-1 1-1 4 1 6z"/><path d="M411 200l2 2h3c5-1 5 2 3 7l-3 6-1 4a85 85 0 01-8 1l-3-3-6-5c-3-3-4-7 0-6 2 0 3-1 3-2l1-2 1-4h5a8 8 0 013 2z" fill="#edb92e"/><path fill="#21231e" d="M413 202l-1 1-1-2v-1h1l1 2zm-1 1zm4-1v1h-4l1-1h3zm4 7l-1-1 1-5h-4v-1h4l1 4-1 3zm-4 6h-1l4-6h1l-4 6zm-1 4l-1-1s1 0 0 0l1-3 1 1-1 3zm0 0zm-4 1v-1l4-1v1l-4 1zm0 0zm0 0v-1c0 1 0-1 0 0v1c0-1 0 0 0 0zm0-1zm-4 1v-1h4v1h-4zm0 0zm-3-3h1l2 2v1l-2-2a9 9 0 00-1-1zm-6-4l1-1 6 4-1 1-6-4zm0-8v1l-2 1 1 2 2 3h-1l-3-4a2 2 0 011-3 6 6 0 012 0zm3-1l1 1-4 1 1-1 2-1zm0 0zm0-3l1 1v2h-1v-3zm2-3v1l-1 3-1-1a7 7 0 012-3zm1 1v-1 1zm1-2v1l-1 1-1-1 2-1zm1 1h-1 1zm2-1v1h-2v-1h2zm3 3h-1v-1a7 7 0 00-2-1v-1l3 3zm0 0zm-1 0zm0 0z"/><path d="M410 219h-1a24 24 0 00-6-9c3 1 6 5 7 9zm1 0h1c0-4 0-8 2-11-2 2-3 7-3 11z" fill="#21231e"/><path d="M418 202l-1 4c-1 2-3 2-6 0a5 5 0 00-4-1l-3 2c-1 2-3 4-5 2l-3-3a5 5 0 012 0c2 0 3-1 3-2l1-2 1-4h5a8 8 0 013 2l2 2h3a6 6 0 012 0z" fill="#edb92e"/><path fill="#21231e" d="M418 207l-1-1 1-4h1l-1 5zm-8-1l1-1 4 2 2-1 1 1a3 3 0 01-3 1l-5-2zm-3 0v-1a5 5 0 014 0l-1 1h-3zm-2 1l-1-1 3-1v1l-2 1zm-6 3v-1h3a8 8 0 002-3l1 1c-1 1-2 3-4 3h-2zm-3-5l1 1s0-1 0 0l2 3v1a15 15 0 01-3-4v-1zm0 1v-1 1zm2-1v1h-1l-1-1h2zm3-1l1 1-4 1v-1h1l2-1zm0 0zm0-3l1 1v3l-1-1v-3zm2-3l1 1a7 7 0 00-2 3l-1-1a8 8 0 012-3zm0 0zm2-1l1 1-2 1-1-1 2-1zm0 0h1-1zm3 0v1h-2l-1-1h3zm0 1zm3 2h-1a8 8 0 00-2-2v-1a9 9 0 013 3zm2 2l-1 1-1-2v-1s0-1 0 0l2 2zm-1 1zm4-1v1h-4l1-1h3zm3 0h-1s1 1 0 0l-2 1v-1l2-1 1 1zm-1-1l1 1-1-1z"/><path d="M392 221l1-1-1-3c-2-5 0-4 4-3l2 2 3 3 3 2a142 142 0 012 4l2 4-2 2-2 5-4 2-1-4a5 5 0 00-2-3l-2-1a9 9 0 01-2-2l-1-2-1-3 1-2z" fill="#edb92e"/><path fill="#21231e" d="M392 220h1l-1 2-1-1 1-1zm1 0zm-1-3h1v3h-1v-3zm4-3l-1 1-3-1v1l1 2h-1l-1-4h2l3 1zm3 2l-1 1-3-2 1-1 3 2zm3 2l-1 1-3-2 1-1 3 2zm3 2l-1 1h-1l-2-2 1-1 3 2zm0 0zm2 5h-1l-2-4 1-1 2 5zm0 0zm0 0h-1 1s-1-1 0 0l-1-1a47 47 0 010 1v-1l1 1zm-1-1zm2 5h-1v-1l-1-3h1l1 4zm0 0zm-2 2h-1l2-2h1l-1 2h-1zm-2 5l-1-1 2-4h1l-2 5zm-4 3l1-1 2-2v-1l1 1-3 3h-1zm-2-5h1l1 3v1c0 1 0 1 0 0l-2-3v-1zm-1-3l1-1a6 6 0 011 4h-1a5 5 0 00-1-3zm-2-1v-1l2 1v1l-2-1zm-3-2l1-1a9 9 0 002 2v1a10 10 0 01-3-2zm-1-2l1-1 1 2-1 1-1-2zm-1-3h1l1 2-1 1-1-3zm1 0zm1-1v-1 1a3 3 0 00-1 1h-1l1-2 1 1zm0-1zm0 0zm0 1h-1v-1l1 1z"/><path d="M407 226v1a9 9 0 00-4 2l-2 3 2-4a9 9 0 014-2zm-1-2h-1l-4-2a21 21 0 01-5-2 16 16 0 0010 4z" fill="#21231e"/><path d="M391 214l3 2a5 5 0 012 3l-1 3 1 4a10 10 0 002 4c2 2 4 5 3 6a3 3 0 01-1 2l-1-2-2-4-2-2-3-1c-1-2-3-5-1-7s2-3 1-6l-1-2z" fill="#edb92e"/><path fill="#21231e" d="M394 215v1a9 9 0 00-3-2l1-1a10 10 0 012 2zm2 3l-1 1a4 4 0 00-1-3v-1l2 3zm0 5l-1-1v-3l1-1a11 11 0 010 5zm-1-1zm1 4h-1v-4l1 1v3zm2 3l-1 1a11 11 0 01-2-4h1a10 10 0 002 3zm4 7h-1l-1-3a19 19 0 00-2-3v-1l4 5v2zm-3 2h1v-1l1-1h1a4 4 0 01-2 2h-1zm1 0h-1 1zm-2-2h1l1 2h-1l-1-2zm-1-3v-1l2 4h-1a7 7 0 00-1-3zm0 0zm-2-3a7 7 0 012 2c1 0 0 0 0 0h-1a5 5 0 00-1-2zm-3-1h1l2 1h-1l-2-1zm-1-8v4l2 4h-1a10 10 0 01-2-5l1-3zm0-5h1c1 1 2 3 1 4l-2 2v-1l1-2a8 8 0 00-1-3zm0-3v1h1v2h-1v-3zm0 1v-1 1zm0 0v-1 1zm0-1z"/><path d="M434 226l-2 2v3c2 5-1 4-5 3l-5-5-3-1a117 117 0 01-2-9l3-3 3-6c3-3 6-4 6 2l1 3 3 2a7 7 0 012 2l1 2v3l-2 2z" fill="#edb92e"/><path fill="#21231e" d="M433 228l-1-1 2-1v1l-1 1zm0 3h-1v-3s1 0 0 0l1 3zm-6 3l1-1 4 1v-3h1v4h-4l-2-1zm-5-4l1-1 5 4-1 1-5-4zm0-1zm-4-1c1 0 2 0 1-1l3 1v1h-1l-2-1a1 1 0 01-1 0zm1 0zm-1-4v-1l1 1v4l-1-1v-4 1zm0-1c1 0 1 1 0 0zm0 0zm1 0zm-2-4h1l1 4h-1l-1-4zm0 0zm2-3l1 1-2 2h-1l2-2v-1zm4-6v1l-3 6-1-1 4-6zm7 2h-1l-1-3h-3l-2 2v-1l4-3 2 2 1 3zm0 3v1l-1-4h1v3zm0 0zm3 1l-1 1-2-1 1-1 2 1zm2 2v1a7 7 0 00-3-2l1-1 2 2zm0 1zm1 2h-1v-2l1-1v3zm0 3l-1-1v-2h1v3zm-2 3v-1a6 6 0 001-2h1a7 7 0 01-2 3z"/><path d="M418 223v-1c3-1 6-3 8-6-2 3-5 6-8 7zm0 1l1 1a16 16 0 019 3c-2-2-6-4-10-4z" fill="#21231e"/><path d="M433 233l-4-1c-1-2-1-4 1-7v-3l-2-4c-2-2-3-4-2-6l3-3v3l1 3 3 2a7 7 0 012 2l1 2v3l-2 2-2 2v3l1 2z" fill="#edb92e"/><path fill="#21231e" d="M429 232l1-1a10 10 0 003 2v1l-4-2zm0-7l1 1-1 4 1 1-1 1-1-4 1-3zm0-3h1v4l-1-1v-3zm-1-3l1-1 1 4h-1a6 6 0 00-1-3zm0 0zm-3-7h1c-1 1 0 3 1 4l2 2-1 1c-1-2-3-3-3-5v-2zm4-3h-1l1 1a9 9 0 00-3 2h-1l3-3h1zm-1 0zm2 3h-1l-1-3h1l1 3zm0 3v1l-1-4h1v3zm3 1l-1 1-2-1s-1 0 0 0l1-1 1 1h1zm2 2v1a7 7 0 00-3-2l1-1 2 2zm0 1s0 1 0 0zm1 2h-1v-3l1 3zm0 3h-1v-3h1v3zm-2 3v-1l1-2h1a7 7 0 01-2 3zm-1 1h-1l2-2v1l-1 1zm0 3h-1v-3h1v3zm0 3v-1h-1a7 7 0 000-2h1v3zm0-1v1-1zm0 0c0 1 0 1 0 0zm0 0v1-1z"/><path d="M411 216c4 0 7 4 8 8s-2 8-6 8-8-3-8-7c-1-5 2-8 6-9z" fill="#edb92e"/><path fill="#21231e" d="M420 224h-1a8 8 0 00-7-7 6 6 0 00-1 0v-1c2 0 5 1 7 4a10 10 0 012 4zm-7 8v-1a6 6 0 005-2l1-5h1a7 7 0 01-3 7 7 7 0 01-4 1zm-9-7l1-1c1 4 3 6 7 7h1v1c-3 0-6-1-7-4a10 10 0 01-2-3zm7-9v1a6 6 0 00-5 3 7 7 0 00-1 4l-1 1a8 8 0 012-7 7 7 0 015-2z"/><path d="M411 219c3-1 6 2 6 5 1 3-1 6-4 6s-6-3-6-6c-1-3 1-5 4-5z" fill="#edb92e"/><path fill="#21231e" d="M418 224h-1a6 6 0 00-5-5 5 5 0 00-1 0v-1a7 7 0 015 3 7 7 0 012 3zm-5 6v-1c1 0 2 0 3-2l1-3h1a6 6 0 01-2 5 5 5 0 01-3 1zm-7-5l1-1a6 6 0 005 5h1v1a7 7 0 01-6-3 7 7 0 01-1-2zm5-7v1a4 4 0 00-3 2l-1 3-1 1a6 6 0 012-6l3-1z"/><path d="M411 221c2 0 4 1 4 3s-1 4-3 4c-1 0-3-2-3-4-1-2 0-3 2-3z" fill="#0c4076"/><path fill="#21231e" d="M416 224h-1a4 4 0 00-3-3 3 3 0 00-1 0v-1a4 4 0 014 2l1 2zm-4 4v-1l2-1 1-2h1a4 4 0 01-2 3l-2 1zm-4-4h1a4 4 0 003 3v1a4 4 0 01-3-2 5 5 0 01-1-2zm3-3h1-1a2 2 0 00-2 1 3 3 0 000 2h-1a4 4 0 011-3 3 3 0 012-1v1zm1 0h-1 1zm0 0h-1v-1l1 1zm-1 0v-1 1z"/></g><path d="M482 183a7 7 0 017 7c0 4-3 7-7 7a7 7 0 01-7-7c0-4 3-7 7-7z" fill="#FFF"/><path d="M489 190h-1a6 6 0 00-6-7v-1a7 7 0 017 8zm-7 7v-1a6 6 0 006-6h1a7 7 0 01-3 6l-4 1zm-7-7h1a6 6 0 006 6v1a7 7 0 01-7-7zm7-8v1a6 6 0 00-6 7h-1a7 7 0 013-6 7 7 0 014-2z" fill="#21231e"/><path d="M482 171a7 7 0 017 7c0 4-3 7-7 7a7 7 0 01-7-7c0-4 3-7 7-7z" fill="#FFF"/><path d="M489 178h-1a6 6 0 00-6-6v-1a7 7 0 017 7zm-7 7v-1a6 6 0 006-6h1a7 7 0 01-3 6l-4 1zm-7-7h1a6 6 0 006 6v1a7 7 0 01-7-7zm7-7v1a6 6 0 00-6 6h-1a7 7 0 013-6 7 7 0 014-1z" fill="#21231e"/><path d="M482 160c4 0 7 3 7 6s-3 7-7 7a7 7 0 01-7-7c0-3 3-6 7-6z" fill="#FFF"/><path d="M489 166h-1a6 6 0 00-6-6v-1a7 7 0 017 7zm-7 8v-1a6 6 0 006-7h1a7 7 0 01-7 8zm-7-8h1a6 6 0 006 7v1a7 7 0 01-7-8zm7-7v1a6 6 0 00-6 6h-1a7 7 0 013-6 7 7 0 014-1z" fill="#21231e"/><path d="M482 127a7 7 0 017 7c0 4-3 7-7 7a7 7 0 01-7-7c0-4 3-7 7-7z" fill="#FFF"/><path d="M489 134h-1a6 6 0 00-6-6v-1a7 7 0 017 7zm-7 7v-1a6 6 0 006-6h1a7 7 0 01-3 6 7 7 0 01-4 1zm-7-7h1a6 6 0 006 6v1a7 7 0 01-7-7zm7-7v1a6 6 0 00-6 6h-1a7 7 0 013-6 7 7 0 014-1z" fill="#21231e"/><path d="M482 137a7 7 0 017 7c0 4-3 7-7 7a7 7 0 01-7-7c0-4 3-7 7-7z" fill="#FFF"/><path d="M489 144h-1a6 6 0 00-6-6v-1a7 7 0 017 7zm-7 7v-1a6 6 0 006-6h1a7 7 0 01-3 6 7 7 0 01-4 1zm-7-7h1a6 6 0 006 6v1a7 7 0 01-7-7zm7-7v1a6 6 0 00-6 6h-1a7 7 0 013-6 7 7 0 014-1z" fill="#21231e"/><path d="M482 148a7 7 0 017 7c0 4-3 7-7 7a7 7 0 01-7-7c0-4 3-7 7-7z" fill="#FFF"/><path d="M489 155h-1a6 6 0 00-6-6v-1a7 7 0 017 7zm-7 7v-1a6 6 0 006-6h1a7 7 0 01-3 6 7 7 0 01-4 1zm-7-7h1a6 6 0 006 6v1a7 7 0 01-7-7zm7-7v1a6 6 0 00-6 6h-1a7 7 0 013-6 7 7 0 014-1z" fill="#21231e"/><path d="M487 196l1 2h4c5 0 4 3 2 6l-5 5-2 4a111 111 0 01-9 0l-2-4-6-5c-2-3-3-6 2-6h4l1-2a7 7 0 013-3h5a7 7 0 012 3z" fill="#EDB92E"/><path fill="#21231e" d="M489 198h-1l-1-2v-1l2 2v1zm-1 0zm4 0v1l-4-1h4zm2 7v-1l1-4-2-1a9 9 0 00-1 0v-1l4 1v3l-2 3zm-5 5v-1l5-5v1l-5 5zm-2 3l-1-1 2-2v-1l1 1-2 3zm0 0zm-5 0v-1h5l-1 1h-4zm0-1zm0 0zm0 0zm-5 1l1-1h4v1h-5zm1 0zm-3-3l1-1 2 3-1 1-1-2-1-1zm-5-5l1-1 5 5-1 1-5-5zm3-7l-1 1h-3v3l2 2h-1l-2-4 2-2h3zm3 0l-4 1 1-1h3zm1-3l1 1-2 2v-1l1-2zm0 0zm2-2l1 1a7 7 0 00-2 2l-1-1a7 7 0 012-2zm3-1v1l-2 1-1-1 3-1zm3 1l-1 1-2-1v-1l3 1zm0 0zm2 3v-1h-1a6 6 0 00-2-1l1-1 2 2v1zm0-1l1 1-1-1zm0 0v1-1zm0 1l-1-1 1 1z"/><path d="M481 213h-1a18 18 0 00-4-10c3 2 5 6 5 10z" fill="#21231E"/><path d="M494 198l-2 4c-1 1-4 0-6-2l-4-1-3 1c-3 2-5 3-7 2l-2-4h6l1-2a7 7 0 013-3h5a7 7 0 012 3l1 2h6z" fill="#EDB92E"/><path fill="#21231e" d="M493 202l-1-1 2-3 1 1a11 11 0 01-2 3zm-8-1l1-1 4 2 2-1 1 1-4 1a11 11 0 01-4-2zm1-1zm-4 0v-1l4 1-1 1-3-1zm-3 1l-1-1 4-1v1l-3 1zm-7 1v-1l3 1a11 11 0 003-2l1 1-5 2a3 3 0 01-2-1zm-2-4v1l1-1a9 9 0 001 3v1a11 11 0 01-2-4zm0 1v-1zm3-1l-1 1a7 7 0 00-2 0v-1a8 8 0 013 0zm3 0l-4 1 1-1h3zm0 0zm1-3l1 1-1 2h-1v-1l1-1v-1zm2-2l1 1a7 7 0 00-2 2l-1-1a8 8 0 012-2zm3-1v1l-2 1-1-1 3-1zm3 1v1l-3-1v-1l3 1zm0 0zm2 2v1a7 7 0 00-2-2v-1a8 8 0 012 2zm2 3h-1l-1-2v-1l1 1 1 1v1zm-1 0zm4 0v1l-4-1h4zm3 1l-1-1v1h-2v-1a8 8 0 012 0l1 1zm-1-1zm0 0c1 1 1 1 0 0zm0 0z"/><path d="M482 212c4 0 8 3 8 7s-4 8-8 8-8-3-8-8 4-7 8-7z" fill="#EDB92E"/><path d="M483 213h1c0-4 2-7 4-10-3 2-4 6-5 10z" fill="#21231e"/><use xlink:href="#a" transform="matrix(-1 0 0 1 964 0)"/><path stroke="#21231e" fill="#edb92e" d="M577 294c2 0 3 1 3 2 0 2-1 3-3 3l-2 1a1109 1109 0 01-186 0 9 9 0 01-2-1c-2 0-3-1-3-3 0-1 1-2 3-2l2-1a1109 1109 0 01186 0 9 9 0 012 1z"/><path fill="#21231e" d="M412 298v-1h4l19-1c1 2-2 1-3 1a1014 1014 0 004 1c0 3-3 1-4 1l-20-1zm0 0zm47-3c0 2-2 1-4 1l-19 1c-1-2 2-1 3-1l20-1zm23 0c1 2-2 1-3 1h-20c-1-2 2-1 3-1h20zm23 0c1 2-2 1-3 1h-20c0-2 2-1 4-1h19zm24 1c0 2-2 1-4 1l-20-1c0-2 3-1 4-1l20 1zm23 1v1l-8 1-15 1c-1-3 2-1 3-2h10a1149 1149 0 00-13-1c-1-2 2-1 3-1l20 1zm0 1zm-116 0l-1 2 1-2zm93 2v-2 2zm-47-35l-22 12-1-1 23-12v1zm0-1zm23 13l-23-12v-1l23 12v1zm0-1h1l-1 1v-1zm-23 11l23-11v1l-23 11v-1zm0 1zm-22-12l22 11v1l-23-11v-1h1zm-1 1l-1-1h1v1z"/><path fill="#0c4076" d="M482 269c6 0 10 3 10 7s-4 7-10 7-10-3-10-7 4-7 10-7z"/><path fill="#21231e" d="M493 276h-1c0-3-2-4-4-5l-6-1c0-1 0-2 1-1l9 3a6 6 0 011 4zm-11 7l1-1c3 0 6-1 8-3a5 5 0 001-3h1c0 3-3 5-5 6a14 14 0 01-6 1zm-11-7h1c1 3 3 4 5 5l5 1v1c-4 0-7-1-9-3a6 6 0 01-2-4zm11-7v1c-3 0-6 1-8 3a5 5 0 00-2 3h-1c1-3 3-5 5-6a14 14 0 016-1z"/><path fill="#edb92e" d="M482 212c4 0 8 3 8 7s-4 8-8 8-8-3-8-8 4-7 8-7z"/><path fill="#21231e" d="M490 219h-1a7 7 0 00-4-6l-3-1v-1a8 8 0 018 8zm-8 9v-1a7 7 0 007-8h1a8 8 0 01-4 8 8 8 0 01-4 1zm-8-9h1a7 7 0 004 7l3 1v1a8 8 0 01-8-9zm8-8v1a7 7 0 00-7 7h-1a8 8 0 014-7 8 8 0 014-1z"/><path fill="#edb92e" d="M482 214a6 6 0 016 5c0 4-3 6-6 6s-6-2-6-6a6 6 0 016-5z"/><path fill="#21231e" d="M488 219h-1a5 5 0 00-5-5v-1a6 6 0 016 6zm-6 7v-1a5 5 0 005-6h1a6 6 0 01-3 6l-3 1zm-6-7h1a5 5 0 005 6v1a6 6 0 01-6-7zm6-6v1a5 5 0 00-5 5h-1a6 6 0 016-6z"/><path fill="#0c4076" d="M482 216a4 4 0 014 3c0 2-2 4-4 4a4 4 0 01-3-4c0-2 1-3 3-3z"/><path fill="#21231e" d="M486 219h-1a3 3 0 00-3-3v-1a4 4 0 014 4zm-4 5v-1a3 3 0 003-4h1a4 4 0 01-4 5zm-4-5h1a3 3 0 003 4v1a4 4 0 01-4-5zm4-4v1a3 3 0 00-3 3h-1a4 4 0 014-4zm0 41a992 992 0 00-105 7 3 3 0 00-1 3c0 1 1 3 5 3a1013 1013 0 01202 0c3 0 5-1 5-3 1-1 0-3-2-4l-8-1c-31-3-67-5-96-5zm0 1c29 0 65 2 96 5l8 1c1 1 2 2 1 3a1014 1014 0 00-105-4 951 951 0 00-101 5c-4 1-4-1-4-1l1-3h3c30-3 57-5 101-6z"/></g><path d="M315 301v271c0 49 18 93 49 125s72 52 118 52 88-20 119-52c30-32 49-76 49-124V301H315z" fill="#C6363C"/><path fill="#FFF" d="M313 300l1 283c2 42 19 84 49 115 3-4-7-9-9-14-28-35-40-80-38-124V302h333l-1 281c-3 67-47 132-111 155a158 158 0 01-55 10c1 5 12 0 17 1 64-6 120-54 141-114 11-29 12-60 11-91V300H313z"/><g stroke="#21231e" fill="#FFF"><path d="M484 735c1 0 4 0 5-2 3-2 2-9 2-14l-4-128a17 17 0 00-5 0 17 17 0 00-5 0l-3 128c-1 5-2 12 1 14 2 2 4 2 6 2h3z"/><path d="M500 734l-6-1c-3-2-3-10-3-15l-8-127 5-1h1c9 59 13 101 19 127 1 3 3 12 0 15l-5 2h-3z"/><path d="M518 731h-6c-3-1-2-9-4-14-6-26-10-68-19-127l5-1c15 58 20 98 31 124 1 3 4 12 2 15l-6 3h-3z"/><path d="M537 726c-1 0-4 2-6 1-3-1-4-10-6-14-11-26-16-66-31-124a17 17 0 015-2l3-1c18 57 23 97 40 122 3 4 5 12 3 14-1 2-4 3-5 3l-3 1zm-72 8l6-1c2-2 2-10 3-15l7-127a17 17 0 00-5-1c-10 59-14 101-20 127-1 3-3 12 0 15l6 2h3z"/><path d="M446 731h6c3-1 3-9 4-14 6-26 10-68 20-127l-5-1h-1c-15 58-19 98-31 124-1 3-4 12-1 15 1 2 4 2 5 3h3z"/><path d="M427 726c2 0 4 2 6 1 3-1 4-10 6-14 12-26 16-66 32-124a17 17 0 00-5-2l-4-1c-17 57-23 97-40 122-3 4-5 12-3 14l5 3 3 1zm100-43h-5c-3-2-5-9-7-14-11-24-22-65-40-124l4-1 5-1c19 58 27 99 46 122 3 4 6 12 4 15l-4 2-3 1z"/><path d="M512 686l-6-1c-2-1-3-9-4-14l-26-126 4-1 5-1c15 59 18 103 32 126 3 4 4 12 2 14-1 2-3 2-4 2l-3 1z"/><path d="M496 688l-5-1c-2-2-2-10-3-15l-11-128h4a14 14 0 015 0c8 59 12 102 18 127 1 5 2 12 0 15l-5 1-3 1z"/><path d="M437 683h6c2-2 4-9 6-14 12-24 23-65 40-124l-4-1a13 13 0 00-4-1c-20 58-28 99-47 122-3 4-5 12-4 15l5 2 2 1z"/><path d="M452 686l6-1c3-1 3-9 4-14l27-126-5-1a13 13 0 00-4-1c-15 59-19 103-33 126-2 4-4 12-2 14 1 2 4 2 5 2l2 1z"/><path d="M468 688l5-1c3-2 3-10 3-15l12-128h-5a14 14 0 00-4 0c-8 59-13 102-18 127-1 5-3 12-1 15l5 1 3 1z"/><path d="M484 688l5-1c2-2 1-10 1-15l-3-128a14 14 0 00-5 0h-4l-4 128c0 5-1 13 2 15l5 1h3z"/><path d="M517 648h-5c-2-1-3-9-4-14-9-24-18-65-31-123a8 8 0 013-1l3-2c15 58 22 99 36 122 2 4 4 12 3 15-1 2-3 2-3 2l-2 1z"/><path d="M505 651c-1 0-3 1-4-1-2-1-3-9-4-14l-20-126a8 8 0 014-1 8 8 0 013 0c11 58 14 102 25 125 2 4 3 12 2 14l-4 3h-2z"/><path d="M493 653l-4-1c-2-2-2-10-2-15l-9-127 3-1a8 8 0 014 0c6 59 10 102 14 127 0 5 2 13 0 15l-4 1-2 1z"/><path d="M448 648h4c2-1 3-9 5-14 9-24 17-65 31-123a8 8 0 00-4-1 8 8 0 00-3-2c-15 58-21 99-36 122-2 4-4 12-3 15 1 2 3 2 4 2l2 1z"/><path d="M459 651c1 0 3 1 5-1 2-1 2-9 3-14l20-126a8 8 0 00-3-1 8 8 0 00-4 0c-11 58-14 102-25 125-2 4-3 12-1 14l3 3h2z"/><path d="M471 653l4-1c2-2 2-10 3-15l8-127a8 8 0 00-3-1 8 8 0 00-4 0c-6 59-9 102-13 127-1 5-2 13-1 15l4 1 2 1z"/><path d="M483 653l4-1c2-2 1-10 1-15l-2-128a8 8 0 00-4 0h-3l-3 128c0 5-1 13 1 15l4 1h2z"/><path d="M475 559v14l-11 2c0 5 12 56 18 56s18-51 18-56l-10-2-1-14-7 8-7-8z"/></g><g id="c"><path stroke="#21231E" d="M412 585c-3 0-7 1-18 11-5 11-11 21-18 30l-6 3h-16c-5-4-12-1-9 3-2 2 2 8 5 5 3-2 13 0 16-1-1 3-10 5-17 5-5 1-5 6-3 11 3 2 1-1 2 1 2 4 8 3 8-1s14-9 16-12c-2 6-8 12-11 18-3 3-5 3-1 9 4 0 5-1 7 1 6 0 7-2 6-7s4-14 5-17l3-6c2-3 12-8 15-6 5 2 9 1 9-4-1-1 0-8-4-8-2 0-4 0-6 2-4 4-7 5-8 5-3-1 6-5 14-16 11-14 12-22 11-26z" fill="#EDB92E"/><use xlink:href="#b" transform="matrix(-1 0 0 1 802 0)"/><path stroke="#21231E" d="M345 635c-4-3-6-3-8-1-1 1-2 0-1-1 3-6 7-7 11-4l3 3-5 3zm58-6c4-3 8-4 10-2 1 1 2 0 1-1-4-6-9-7-13-3l-3 3 5 3zm-34 36c0-1-1-6-3-8l-4 4c-4 4-4 11 3 17 1 1 2 0 1-2-1-3 0-6 3-11zm-17-14c-3 2-5 4-5 6s-1 2-1 1c-5-12 0-14 7-13 1 2 0 6-1 6z" fill="#EDB92E"/><path fill="#21231e" d="M384 621l1 1v2a5 5 0 002 1l-1 1a6 6 0 01-2-2 3 3 0 010-3zm6 1v1l-3-2h-1l-1 1-1-1 2-1h2l2 2z"/><path fill="#21231e" d="M387 618h1v2l2 2v1a6 6 0 01-3-3 3 3 0 010-2zm7 0l-1 1-2-2h-2l-1 1h-1l2-2h2l3 2z"/><path fill="#21231e" d="M391 613h1v3a6 6 0 002 2l-1 1a7 7 0 01-2-3 4 4 0 010-3zm7 1l-1 1-3-3h-1l-1 1h-1l2-2a2 2 0 012 0l2 2 1 1z"/><path fill="#21231e" d="M395 608h1v3l2 3-1 1a7 7 0 01-2-4 5 5 0 010-3zm7 1v1l-3-3h-2l-1 1h-1l2-2a2 2 0 012 0l2 2 1 1z"/><path fill="#21231e" d="M399 603h1a3 3 0 000 3 7 7 0 002 3v1a10 10 0 01-3-4 4 4 0 010-3zm8 1l-1 1-3-3h-1l-2 1h-1a5 5 0 012-2h2l3 2 1 1z"/><path stroke="#21231E" d="M463 581l-10-6c-4 3-7 14 0 22 9 11 12 19 14 28 6-8 8-16 4-24l-8-20z" fill="#FFF"/><path stroke="#21231E" d="M470 573l-9-5c-4 2-12 13-6 22 9 10 18 19 20 27 6-8 9-16 5-24-6-11-10-17-10-20z" fill="#FFF"/><path stroke="#21231E" d="M449 569l-9-5c-4 3-7 13 0 22 8 11 12 19 14 27 6-7 8-16 4-24-5-11-9-17-9-20z" fill="#FFF"/><path d="M405 469c1 9-1 67-1 75-1 8-4 13-8 17-4-5-6-12-6-20v-70c7-17 12-17 15-2z" fill="#FFF"/><path fill="#21231e" d="M404 544c-2 0-1-2-1-3a3067 3067 0 003-71l-1 64-1 10zm-9 17l2-2c4-4 6-10 6-15 2-1 1 1 1 2-1 6-4 11-8 15h-1zm1 0zm-7-20c2 0 1 2 1 3 1 6 3 12 6 16-1 2-2-1-2-1-3-6-5-12-5-18zm1-70c2 0 1 2 1 3l-1 67a3699 3699 0 010-69v-1zm0 0zm16-2c-2 1-1-1-2-2-1-3-1-7-4-8-2-1-4 1-5 3l-4 10c-2-1 0-2 0-3 2-4 3-8 6-11 2-1 5 0 6 2l3 9zm0 0z"/><path d="M368 455l-3 79c0 7 9 49 14 58 12-6 15-34 13-62-3-28 0-52 2-57l-1-19-25 1z" fill="#FFF"/><path fill="#21231e" d="M365 534l2-79c2 0 1 3 1 4l-2 75h-1zm1 0zm13 57c0 3-2-1-2-2l-10-36-2-19c2 0 0 3 1 4l9 42 4 12v-1zm0 1zm12-62c2 0 1 3 1 4 1 15 1 29-3 43-1 6-4 13-10 15-1-1 2-1 3-3 6-5 7-14 9-21v-38zm2-57c2 0 0 3 0 4a219 219 0 00-1 53c-2 1-1-3-1-4a224 224 0 012-53zm1 0zm-1-18v1l1 17c-1 1 0-1-1-3l-1-16 1 1zm0-1zm-25 1l3-1h22l-4 1h-21zm-1 0zm1 0zm-1 0z"/><path d="M353 468l2 79c-1 8 11 49 16 57 13-10 10-50 8-62-3-24-3-52-2-57v-20l-24 3z" fill="#FFF"/><path fill="#21231e" d="M354 547l-1-79c2 0 0 3 1 4l1 75h-1zm1 0zm16 57l-2-2c-5-12-8-25-11-37l-4-18c2 0 1 3 2 4 2 14 6 28 11 42 1 3 2 7 5 11h-1zm1 0zm7-62c2 0 1 3 1 4 2 14 2 29-1 43-1 6-3 12-7 15-2-1 1-2 2-3 4-7 5-17 6-25 1-11 0-23-1-34zm-2-57c2 0 0 3 0 4a248 248 0 003 53c-2 1-1-3-2-4a252 252 0 01-1-53zm1 0zm-1-19v2l1 17c-2 1-1-2-1-3l-1-17 1 1zm0-1zm-24 3c0-2 2-1 4-1l20-2c0 2-3 1-4 1l-20 2zm0 0zm0-1zm0 1z"/><path d="M342 487l21-1c-2 9 0 36 3 56 4 20 8 70-12 82-12-27-3-52-9-75-5-25-6-45-3-62z" fill="#FFF"/><path fill="#21231e" d="M363 487h-21c0-2 3 0 4-1h17v1zm0-1zm4 56c-2 1-1-2-2-3a258 258 0 01-2-53c2 0 0 3 0 4a239 239 0 004 52zm-13 82l3-3c7-6 9-16 11-25 2-17 1-35-2-52a178 178 0 012 54c-1 9-4 19-11 25l-3 1zm1 0zm-10-75c2-1 1 2 2 3 3 19-1 38 3 56a68 68 0 005 15c-2 2-2-2-3-3-6-14-5-30-5-46 0-8 0-17-2-25zm0 0zm-3-63v4c-2 20 0 39 4 59-2 0-1-3-2-4-4-19-5-39-2-58v-1zm0 1zm0 0zm0 0z"/><path d="M422 454l-4 75c-1 8-4 14-8 17-4-5-6-12-6-20l3-70c7-17 12-17 15-2z" fill="#FFF"/><path fill="#21231e" d="M419 529c-2 0-1-2-1-3a3008 3008 0 005-71l-4 64v10zm-10 17l2-2c4-4 6-9 7-15v3c-1 5-4 11-8 14h-1zm1 0zm-6-20l1 3c0 6 2 11 5 16-1 2-2-1-2-1-3-6-4-12-4-18zm2-70c2 0 1 2 1 3a3655 3655 0 00-1-3zm0 0zm17-2c-2 1-1-1-2-2-1-3-1-6-4-8-2-1-4 2-5 3l-5 10c-1-1 0-2 1-4 1-3 3-7 6-10 2-1 5 0 6 2l3 9zm0 0zm-1 0zm1 0z"/><path d="M385 407l-1 63c1 8 4 17 7 22 4-3 8-8 8-16l1-56a71 71 0 01-12-10l-3-3z" fill="#FFF"/><path fill="#21231e" d="M385 470c-2 0-1-1-1-2v-61c2 0 1 1 1 2v61zm6 22h-1c-4-7-6-14-6-21-1-1 1-2 1-1a51 51 0 006 21v1zm0 1zm8-17c1-1 1 1 1 2-1 6-4 11-9 15-1-1 1-2 1-2 4-4 6-10 7-15zm1-56c1-1 1 1 1 2l-1 52-1 2v-4l1-52zm1-1zm-13-9c0 2 1-1 1 1a71 71 0 0012 8c-1 2-2 1-3 0a69 69 0 01-10-8v-1zm0 1c-2-1 1-2 0-1v1zm-3-4h1l3 3c-1 2-1-1-1 0l-3-2v-1zm-1 0c0-2 2 0 1 0h-1z"/><path d="M400 419v55c0 7 2 14 5 19 4-3 9-9 9-17l2-43c-5-1-12-10-16-14z" fill="#FFF"/><path fill="#21231e" d="M400 474l-1-2v-53c2 0 1 1 1 2v53zm5 19l-1-1c-3-5-4-12-5-18 2-1 1 0 1 1 1 6 2 13 6 18h-1zm1 0zm8-17l1 2a24 24 0 01-9 15v-2a24 24 0 008-15zm2-42a691 691 0 01-1 42c-2 0-1-1-1-2l2-41v1zm0-1zm-16-14h1c5 5 8 10 14 13 0 0 2 0 1 1h-2c-6-4-10-9-14-13v-1zm-1 0h1-1z"/><path d="M387 406l-14-21c-3 10-7 83-2 89a37 37 0 006 19c4-3 10-8 8-17-2-8 0-62 2-70z" fill="#FFF"/><path fill="#21231e" d="M373 385l14 20c-1 2-1-1-2-2l-13-18h1zm-1 0zm-1 89l-2-2-1-25c0-19 1-37 3-55l1-7c2 0 1 2 1 3-2 14-3 27-3 41v39l1 6zm0-1zm6 20l-1-1a37 37 0 01-6-18c2-1 1 1 1 2 1 6 3 12 6 17zm0 0zm8-17l1 3c0 6-4 11-9 14-1-1 1-1 2-2 4-3 7-9 6-15zm2-70v2l-2 43 1 25c-1 1-2-1-2-2l1-38c0-10 0-20 2-30 0-1 0 0 0 0zm0-1zm0 0zm0 1z"/><path d="M358 451l-1 23c0 8 2 14 5 19 4-3 9-8 9-16-2-32 1-61 5-90l-12-7c-7 38-9 62-6 71z" fill="#FFF"/><path fill="#21231e" d="M357 474c-1 1 0-2-1-3l1-20c2 0 1 2 1 3l-1 20zm5 19l-1-1c-3-5-4-12-5-18 2 0 1 2 2 3 0 5 2 11 5 16h-1zm1 1zm7-17c2-1 1 2 1 2 0 6-4 11-8 15-2-1 0-2 1-3 4-3 7-9 6-14zm6-89a427 427 0 00-5 89l-1-3c-1-29 2-58 6-87v1zm1-1zm-13-7h2l11 7c-1 2-2-1-3-1l-10-6zm-1-1zm-5 72c1 2-2 0-1-2-2-9-1-18 0-28l6-42c2 0 1 3 1 4-3 18-6 35-7 53l1 15zm0 1zm0 0zm0-1z"/><path d="M344 472l3 14c1 8 6 15 9 20 4-3 7-8 6-17-5-46-3-77 6-115-22 15-32 47-24 98z" fill="#FFF"/><path fill="#21231e" d="M347 487l-4-15c2-1 1 3 2 4l3 10-1 1zm1-1zm8 19c1 2-2 0-2-1-3-5-7-11-7-18 2 0 1 3 1 4 2 6 5 11 8 15zm0 1zm6-17c2 0 1 3 1 4a17 17 0 01-7 13c-1-1 2-2 2-3 3-4 5-9 4-14zm7-114c-1-2 0 1-1 2a262 262 0 00-5 112c-2 1-1-2-2-4-3-27-4-55 1-83a319 319 0 016-28l1 1zm-1-1zm-24 98c-2 1-1-3-1-4-3-20-4-42 3-62 3-12 11-24 22-32 2 1-2 2-2 3a66 66 0 00-22 41c-3 18-2 36 0 54zm-1 0zm1 0zm-1 0z"/><path d="M345 486l-20-6c-3 20 1 45 6 79 5 28 3 51-1 66 22-3 31-31 20-83a235 235 0 01-5-56z" fill="#FFF"/><path fill="#21231e" d="M325 479l20 7c-1 2-3-1-5-1l-16-5 1-1zm-1 0zm8 80c-2 0-1-3-2-5-3-21-7-42-7-64l1-11c2 0 0 3 1 5-2 20 2 40 5 60l2 15zm-2 65v-3c5-20 4-42 1-62 2-1 1 2 1 4 3 20 3 42-1 62l-1-1zm0 1zm19-83c2-1 2 3 2 4 3 17 6 36 2 53-2 10-6 20-16 24a25 25 0 01-7 2c0-2 3-1 4-2 9-2 15-11 17-20 4-15 3-32 1-47l-3-14zm-4-55v3a234 234 0 005 52l-1-4a235 235 0 01-5-52l1 1zm0-1z"/><path fill="#21231e" d="M344 584l1 1-1-1zm-5-40c2-1 2 1 2 2 2 12 4 25 4 38-2 1-1-1-1-2 0-13-2-26-5-38zm-5-50a252 252 0 007 50c-2 0-2-1-2-2a252 252 0 01-5-48zm1 0s-2 0-1-1l1 1z"/><path d="M344 367l13 2-4 24c-5 24-9 53-5 84 2 12 4 21 8 29-15-2-24-16-23-41-3-29-2-52 3-69l8-29z" fill="#FFF"/><path fill="#21231e" d="M357 370l-13-2c0-2 3 0 4-1l9 2v1zm0-1zm-4 24c-2 0 0-2 0-4l4-20c2 0 0 3 0 4l-4 20zm-4 84c-2 0-1-3-2-4-3-27 0-54 5-80 2 0 0 3 0 4-5 26-7 53-3 80zm7 29c0-1-2-1-2-3-4-8-5-17-6-26 2 0 1 3 1 4 1 8 3 17 7 24v1zm0-1zm-24-40c2-1 1 2 1 4 0 10 2 21 9 29a21 21 0 0014 7c0 2-3 0-5 0-8-2-14-11-17-19-2-7-2-14-2-21zm1 0zm3-70c2 1 0 3 0 5-5 21-4 43-3 65-2 0 0-3-1-4-1-22-2-44 4-66zm8-28l-1 3-6 26c-2 0 0-3 0-4 2-8 3-17 7-25zm0 0zm0 0zm0 0z"/><path d="M336 370l6 8c-1 1 2 7 0 18-1 6-5 14-6 22-2 26-2 60 6 81-15-2-20-15-20-40-1-20-1-45 5-72 1-7 4-12 9-17z" fill="#FFF"/><path fill="#21231e" d="M342 378l-6-7c1-2 2 1 3 2l4 5h-1zm1 0zm0 18c-2 0-1-2-1-4l-1-13c0-1 2-2 1 0l1 9a45 45 0 010 8zm0 0zm-6 22c-2 0 0-3-1-4l6-18v3l-5 19zm5 81l-2-3c-5-16-6-33-6-51l2-27c2-1 0 2 1 4-2 20-2 41 1 62a91 91 0 004 15zm0 0zm-21-40c2 0 1 3 1 4 1 9 2 19 6 27 3 5 8 8 14 8 0 2-3 1-4 1-7-2-11-8-13-14-3-9-3-17-4-26zm5-73c2 0 0 3 0 4-4 23-4 46-4 69-2 1 0-2-1-4 0-23 1-46 5-69zm1 1zm9-17l-2 2a25 25 0 00-7 15c-2 0 0-3 0-4 1-5 4-10 9-13zm0 0z"/><path d="M372 390l-13-2-5 27c-1 8 2 17 5 23 5-3 7-10 9-19l4-29z" fill="#FFF"/><path fill="#21231e" d="M359 388l13 1c0 1 0 2-1 1l-12-1v-1zm-1 0zm-3 27c-1 0-2 0-1-1l4-22v-4l1 1-4 24v2zm4 22l-1 1c-3-7-5-15-4-23v1c0 7 2 15 5 21zm0 1zm9-19l1 1-6 15a13 13 0 01-4 3v-1c4-3 6-7 7-11l2-7zm4-29h1l-4 29-1-1 4-28zm0-1c1 0 1 2 0 0zm0 0v1-1zm0 1z"/><path d="M407 419h-12v22c0 8 2 14 5 19 4-3 7-9 8-17l-1-24z" fill="#FFF"/><path fill="#21231e" d="M395 418h12v1h-12v-1zm0 1c0-1 1-1 0 0zm0 22l-1-1 1-18v-3h1l-1 21v1zm5 18v1l-1-1c-3-6-4-12-5-18l1 1c1 6 2 12 6 17h-1zm1 1h-1 1zm6-17c1 0 2 0 1 1 0 6-3 12-7 16l-1-1c5-4 7-10 7-16zm0-24h1v24h-1v-24zm0-1c1 0 1 1 0 0z"/><path d="M420 424l-12 1v22c1 8 3 14 6 19 4-4 7-9 8-17l-2-25z" fill="#FFF"/><path fill="#21231e" d="M408 424h12l-1 1h-11v-1zm0 1c-1-1 0-1 0 0zm1 22h-1v-22h1v22zm5 18v1l-1-1c-3-6-5-12-5-18l1 1c1 6 2 12 6 17h-1zm1 1c0 1-1 0 0 0zm6-17l1 1c0 6-3 12-7 16v-1c4-4 6-10 6-16zm-1-25s0 1 0 0l1 2 1 23-1-1-2-24h1zm-1 0h1-1zm1 1v-1 1z"/><path d="M395 412h-12l-2 22c0 7 1 14 4 19 4-3 7-8 9-16l1-25z" fill="#FFF"/><path fill="#21231e" d="M383 411l12 1-1 1-11-1v-1zm0 1v-1 1zm-2 22l-1-1 2-19 1-2h1l-3 21v1zm3 18c-3-6-4-12-4-18h1c0 7 1 13 4 19l-1-1zm1 1c0 1-1 0 0 0zm8-16l1 1c-1 6-4 12-9 15v-1c5-3 7-9 8-15zm2-24v-1 4l-1 21-1-1 2-24v1zm0-1c1 0 0 1 0 0z"/><path d="M384 400l-13-6c-2 9-5 38 0 50 4-3 9-8 10-17l3-27z" fill="#FFF"/><path fill="#21231e" d="M371 394l13 5-1 1-12-5v-1zm-1 0c0-1 2 0 0 0zm1 50h-1c-2-5-2-11-2-16a154 154 0 012-34l1 1a144 144 0 00-1 45l1 4zm0 1s-1-1 0 0zm10-18v1c-1 7-4 13-10 17v-2c6-4 9-10 10-16zm3-27c0-1 0-1 0 0l-2 27c-1 0-2 0-1-1l2-26h1zm0-1zm0 1zm0-1z"/><path id="b" d="M388 701c8 7 15-8 8-27-5-15-31-9-17 10h2c-1-4 2-7 5-6 11 2 11 22 0 18-2-1 0 3 2 5z" stroke="#21231E" fill="#EDB92E"/><path stroke="#21231E" d="M400 639c-1 4-5 8-8 11-5 5-3 12 0 16s5 9 6 13v15c0 4-2 6-5 8-1 1 1 3 5 6l2 3h2c0-2 2-3 2-3 4-3 5-5 4-6-2-2-4-4-5-8l1-15c1-4 2-9 6-13 3-4 4-11 0-16-3-3-7-7-8-11l-1-1-1 1z" fill="#EDB92E"/><path d="M395 685h12c2 0 3 2 3 4a4 4 0 01-3 4h-12c-2 0-4-2-4-4a4 4 0 014-4z" fill="#EDB92E"/><path fill="#21231e" d="M407 686h-12v-1h12v1zm4 3h-1a3 3 0 00-3-3v-1a4 4 0 014 4zm-1 0h1-1zm-3 4v-1a3 3 0 003-3h1a4 4 0 01-4 4zm-12-1h12v1h-12v-1zm-4-3h1a3 3 0 003 3v1a4 4 0 01-4-4zm1 0h-1 1zm3-4v1a3 3 0 00-3 3h-1a4 4 0 014-4z"/><path d="M417 579l1-11c-5-2-16 0-20 10-6 13-11 20-18 26 10 1 18-1 24-8l13-17z" fill="#FFF"/><path fill="#21231e" d="M418 568v11c-1 0-2 0-1-1v-10h1zm0 0zm-20 11v-2c3-6 9-10 16-10a9 9 0 014 1h-2c-3-1-7 0-10 2a18 18 0 00-8 9zm-18 24c0 1 0 1 0 0a60 60 0 0013-17 106 106 0 004-8l1 2a69 69 0 01-18 24v-1zm0 1v-1 1zm23-8v1a20 20 0 01-13 8l-10-1 1-1c6 1 12 1 17-2a19 19 0 005-5zm14-17v1l-6 6-7 11v-2l10-14 3-2zm1 0z"/><path d="M425 581l-12-5-9 20c-3 7-4 14-2 19 4-1 10-4 14-11s6-16 9-23z" fill="#FFF"/><path fill="#21231e" d="M414 575l11 5-1 1-11-5 1-1zm-1 0zm-9 21v-1l8-18 1-1v1l-8 18-1 1zm-2 19h-1c-1-6 0-13 2-19 1 0 2 0 1 1-2 6-3 12-2 18zm0 1c-1 0-1-1 0 0zm13-13l1 2c-3 5-8 9-14 11v-1c6-2 11-6 13-12zm10-22h1l-10 23v-1l9-23v1zm0-1c1 0 0 1 0 0z"/><path d="M429 581l-13-2-4 22c-1 7 0 14 2 19 5-2 9-7 11-15l4-24z" fill="#FFF"/><path fill="#21231e" d="M416 578l13 2-1 1-12-2v-1zm-1 1c0-1 1-1 0 0zm-3 22l-1-1 4-19v-2c1 0 2 0 1 1l-4 20v1zm2 19s1 1 0 0c-3-6-4-13-3-20l1 1c-1 7 0 13 3 19h-1zm0 0c0 1 0 0 0 0zm11-15v1c-1 6-5 12-11 14l1-1c5-3 8-8 10-14zm4-25v1l-3 24c-1 0-2 0-1-1 2-7 2-16 3-23l1-1zm-1 1zm1 0s0-1 0 0z"/><path d="M430 563h8c4 3 9 13 4 22-7 12-9 21-10 30-7-7-11-15-8-24 3-11 7-25 6-28z" fill="#FFF"/><path fill="#21231e" d="M438 564h-8l2-1h6v1zm0-1zm4 23v-2c3-6 2-13-2-18a8 8 0 00-2-2l1-1c3 3 5 7 5 11a19 19 0 01-2 11zm-10 29v-1a62 62 0 016-22l3-7 1 1c-5 8-8 17-9 25a70 70 0 000 4h-1zm1 0h-1 1zm-10-24l1 1c-1 5 0 11 3 15a33 33 0 006 7h-2c-4-4-8-10-8-16v-7zm7-28h1l-1 9a319 319 0 01-6 19v-1l6-23v-4zm0 0zm0 0zm0 0z"/><path d="M434 558l-12-4-9 21c-2 7-2 13-1 19 5-1 11-4 14-12 4-7 5-16 8-24z" fill="#FFF"/><path fill="#21231e" d="M422 553l12 5h-1l-11-4v-1zm-1 1zm-7 21l-1-1 8-19 1-1v1l-8 19v1zm-2 19s1 1 0 0c-2-6-1-13 1-20l1 1c-2 6-3 13-1 19h-1zm0 1s0-1 0 0zm14-13v1a22 22 0 01-11 11l-3 1 1-2a22 22 0 0013-11zm8-23v-1l-7 25-1-2 7-23 1 1zm0-1c1 0 0 1 0 0zm0 0zm0 0c1 0 0 1 0 0z"/><path d="M426 550l-3-17c-3 0-6 6-10 10l-3 3a23 23 0 00-3 8c-3 13-7 20-13 27 10 0 18-4 22-12 5-11 7-17 10-19z" fill="#FFF"/><path fill="#21231e" d="M423 533l3 17-1-1-3-16h1zm0 0zm-10 10v-1l7-8 3-1-1 1-5 5-4 4zm-2 3l-1-1 3-2-1 1-1 2zm-4 8v-2a24 24 0 013-7v2a23 23 0 00-3 7zm-13 27c0 1 0 1 0 0 4-6 8-12 10-18a82 82 0 002-10c2 0 2 1 1 2-2 8-5 15-9 22a99 99 0 01-3 4h-1zm0 1v-1 1zm21-13l1 1c-3 5-7 9-13 10a34 34 0 01-9 2l1-1c6-1 12-2 17-7a19 19 0 003-5zm10-19h1l-5 9-5 10v-1l7-16 2-3v1zm1 0z"/></g><use xlink:href="#c" transform="matrix(-1 0 0 1 964 0)"/><path stroke="#21231E" d="M536 415l5-1c-7-5-14-11-21-23-8-11 3-33 8-44 9-7 18-17 21-31 1-7-19-4-33 2-17 8-19 6-25 7-3 11 2 12 6 11-9 15-13 30-15 52-2-22-6-37-15-52 4 1 9 0 7-11-6-1-9 1-26-7-14-6-34-9-33-2 3 14 12 24 22 31 4 11 15 33 8 44-8 12-14 18-22 23l5 1c-1 1-11 5-12 4-8-6-15-18-22-26-18-20-27-36-24-49 5-14 21-30-1-27-21 3-39 32-45 68l-5 34c12-4 17-9 20-14a119 119 0 00-3 14c10-2 17-6 19-15a45 45 0 014-9h12c1 4 15 19 22 30 8 12 20 22 24 22 2 1 3-4 2-10h126c0 6 0 11 2 10 4 0 16-10 24-22l23-30h11a45 45 0 014 9c2 9 9 13 19 15l-3-14c3 5 8 10 20 14l-5-34c-6-36-24-65-45-68-22-3-5 13-1 27 3 13-6 29-24 49-6 8-14 20-21 26-2 1-11-3-13-4z" fill="#FFF"/><g id="d"><path d="M441 357c-2 2-9 2-18 2-15 1-24-4-26-13 6 6 13 10 20 8 10-3 16-5 18-4 2 0 4 3 6 7z" fill="#EDB92E"/><path fill="#21231e" d="M423 360v-1l14-1 3-2v2l-7 1-10 1zm0 0zm-25-15v2c1 4 4 7 7 9 5 2 11 3 16 3h2l-1 1c-6 0-12-1-17-3a15 15 0 01-8-9v-2l1-1zm19 8l-1 1c-4 1-9 0-12-2a29 29 0 01-7-6h1c3 4 8 7 13 8l6-1zm19-4l-1 1-8 2-10 2 1-1 14-3 4-1zm-1 0zm6 8h-1c-1-2-2-5-4-6l-1-2 2 1 4 7zm0 0zm-21-36v2l-1-2a1 1 0 011 0zm15 4l-1 2-10-4a16 16 0 00-4 0v-2l11 3 4 1zm9 3v1l-4-1-6-1 1-2 8 3h1zm0 1v-1 1zm23 8v-1h1a1 1 0 01-1 1zm-10-2l1-2 9 3v1a92 92 0 01-10-2zm1-2l-1 2v-1a1 1 0 011-1z"/><path fill="#21231e" d="M432 332l-1 1c-3-1-5-4-6-6l-3-4 2-1 5 8 3 2zm7-5h2l-5 6a5 5 0 01-5 1v-1l1-1h3l4-4v-1z"/><path d="M430 331l-3-2c-1-2 0-3 2-6l5 2-4 6z" fill="#21231E"/><path fill="#21231e" d="M423 413v1-1zm24-4l1 1a20 20 0 01-11 6c-4 1-10 0-14-2v-1c5 2 10 2 15 1a18 18 0 009-5zm3-2h1l-3 3-1-1 3-2zm1 0h-1 1z"/><path fill="#21231e" d="M452 401h-1 1zm-5 16v1h-1a59 59 0 005-17h1a60 60 0 01-4 16l-1 1v-1zm-1 1zm16-10v1c-2 3-6 6-10 8l-5 1v-1c4-1 9-3 12-6a19 19 0 003-3zm0 1v-1h1a1 1 0 01-1 1z"/><path fill="#21231e" d="M461 400h-1 1zm5 16v1c-4-5-5-10-6-16v-1h1c1 6 2 11 5 15l1 1h-1zm0 1l1-1-1 1zm7-13h1a22 22 0 01-7 13l-1-1a21 21 0 007-12zm1 0h-1 1z"/><path d="M406 318c-17 2-16 12 0 28 3 3 4 3 4 0 1-6 7-9 10-5 2 3 2 5 9 4 9 7 16 12 5 12-6 0-10 3-16 2l3 5c7 1 13-3 20-2 14 3-23-38-22-40 1-4-9-11-13-4z" fill="#EDB92E"/><path fill="#21231e" d="M406 345c-1 2-1 1-2 0-4-4-8-9-10-15-1-3-1-6 1-9l11-4c0 2-1 1-2 1-3 1-7 2-9 5s0 7 1 10c3 5 6 9 10 12zm4 0v2a2 2 0 01-2 1l-3-2h2c1 1 1 2 2 1l1-1zm11-4c-1 1-1 0-2-1-4-2-8 2-8 6-2 0-1-1-1-2 1-3 5-6 8-5l3 2zm8 3l-1 1c-2 0-5 1-7-1l-1-3 2 1c0 1 1 2 3 2h4zm0 0zm5 13c-1-1 0-1 1-1l4-1-2-3-8-7h2l8 8v4h-5zm-16 2h1l13-3 2 1h-2l-13 3c-1 0-2 0-1-1zm-1 1zm4 3c0 2 0 1-1 1l-3-4h2l2 3zm0 1zm20-2l-2 1c-6-1-12 3-18 1h2c6 0 12-3 18-2zm-23-40l2 1 22 30c1 2 3 5 3 8 0 1-1 2-3 2l-1-1 3-1c0-3-2-6-4-9-6-10-14-18-21-28l-1-2zm-12-4v-1c2-3 5-3 7-2 3 1 6 3 6 6 0 1 0 2-1 1 0-2-2-4-3-5-2-2-6-3-8 0l-1 1zm0 0zm0 0zm0 0z"/><path fill="#21231e" d="M407 317l-1 1v-1h1zm8 11l-1 1a27 27 0 01-8-11l1-1a24 24 0 006 9l2 2zm-1 1l1-1-1 1z"/><path fill="#21231E" d="M1 0L0 1l-1-1 1-1 1 1z" transform="matrix(.21422 -1.51084 1.7589 .184 404 326)"/><path fill="#21231e" d="M358 363c1-1 2 0 1 1l-1-1zm-22 56c1-10 5-20 8-30 4-8 7-17 12-24 1-2 4-3 3-1-5 5-7 11-10 17-5 11-9 23-12 36 0 1 1 2-1 2zm5 80c-5-16-7-33-7-50l2-30c2-1 0 2 1 4-2 21-2 42 2 63a89 89 0 003 13h-1zm1 0h-1 1z"/></g><use xlink:href="#d" transform="matrix(-1 0 0 1 964 0)"/><path fill="#21231e" d="M473 398v1a36 36 0 006 18 49 49 0 003 4h1l1-1a39 39 0 006-12 35 35 0 002-9l-1-1-1 2a37 37 0 010 5 36 36 0 01-5 11 52 52 0 01-3 4 49 49 0 01-3-4 37 37 0 01-3-7 36 36 0 01-2-7v-3l-1-1z"/><path d="M549 422v109a72 72 0 01-19 49c-13 13-29 21-48 21s-35-8-47-21a72 72 0 01-20-49V422h134z" fill="#C6363C"/><use xlink:href="#e" transform="matrix(-1 0 0 1 964 -90)"/><path stroke="#21231E" d="M549 489v28h-53v83a64 64 0 01-28 0v-83h-53v-28h53v-67h28v67h53z" fill="#FFF"/><use xlink:href="#e" y="-90"/><path id="e" d="M459 567v-39c-8-2-29-11-30 8-1 8 10 14 13 6 1-3 0-6-2-7s-5 1-4 4c-9-5 8-15 16-2 2 4-4 8-4 11 0 2 6 7 4 10-8 13-25 3-16-2-1 3 2 5 4 4s3-3 2-7c-3-7-14-2-13 7 1 18 22 10 30 7z" stroke="#21231E" fill="#FFF"/><use xlink:href="#e" transform="matrix(-1 0 0 1 964 0)"/><path fill="#21231e" d="M414 421v114c1 28 20 54 46 63 23 9 49 3 67-13 16-15 24-37 23-58V421H414zm2 2h132v112c-1 26-19 52-44 61-22 8-47 3-64-13a72 72 0 01-24-56V423z"/></svg>