<svg xmlns="http://www.w3.org/2000/svg" viewBox="0 0 750 500"><path fill="#006c35" d="M0 0h750v500H0z"/><path fill-rule="evenodd" d="M323 118l-2 1c-1 1-5 5-5 9 0 3-1 3 1 4 1 2 2 2 5 0l2-3c0-3-3 1-4-2 0-3 2-4 4-7l-1-2zm34 0l-2 3c-1 2-4 6-2 12 2 4 3 11 2 19l-4 5c-2 2-5 2-7 1-2-2-4-2-5-7v-20c-2-4-5-2-7-1-6 5-9 15-11 23-1 5-3 4-5 1-3-3-3-26-7-22-6 18 4 37 10 35 5 2 8-7 10-17 2-3 3-4 3-2 0 13 1 16 5 20 7 6 14 1 14 0l6-5c1-2 3-2 5-1 2 2 2 5 5 7 4 1 11 0 12-3l4-6c2-2 4-1 4-1 0 1-2 3-1 5h4c4-2 7-10 7-10 0-3-2-3-3-3l-3 3c-2 0-6 1-8-2-1-3-1-8-3-11 0-1-2-6 0-6 1 0 4 1 4-1 1-2-3-8-5-11-2-2-6-3-9 0-2 2-1 4-2 6 0 2 0 5 2 9s6 9 5 17c0 0-2 3-6 3-2-1-5-1-6-12-1-8 0-19-3-24l-3-4zm-10 1c-1 0-3 1-4 4l-1 11c-1 2 3 3 4 0 3-6 3-9 3-12l-2-3zm39 1l-2 2 1 9 4 7 20 28a294 294 0 013 72c3 0 7-5 9-12v-35l-1-8c8 12 15 25 22 40 3-2 2-16 0-18-5-13-13-25-16-29 0-2-4-7-7-12l-2-16c-1-8 3 1 3-4-2-8-6-14-12-21-1-2-1-3-4 1l-1 9-3-4-8-7-6-2zm118 1l-1 1c-2 1-3 3-3 6l2 12v2l-1-1c-9-9 4-2-2-8l-10-10c-2-1-3-4-3 0l-1 11 4 7 17 22 2 45c0 7-2 16-4 17 0 0-3 1-5-1l-7-9c-3-3-5-2-7 0-6 5-8 16-12 23-1 2-4 3-7 0-8-11-4-27-5-23-7 8-4 22-2 25 2 4 4 7 9 10 4 3 7 1 9-1 4-5 4-16 6-18 2-4 5-3 7-2l6 6c4 3 8 4 13 0 3-1 5-4 7-8 2-5 1-33 1-49l9 13 1 40c0 2 9-8 9-13v-11l13 22c2-2 1-16 0-18l-14-21-3-19c-1-5-1-11-3-16l-1-9c1-1 3 0 4-2 1-1-5-17-8-22-1-2-3-1-6 2-2 2-1 7-1 12 3 12 5 25 6 37l-10-15v-3l-1-12v-1l2 1c1 0 2-1 2-3l-10-18-2-1zm-304 0c-2 0-4 1-3 4-1 1 3 5 4 7s-1 7 1 7c1 1 3-3 3-7 1-2 0-9-4-11h-1zm347 0l-2 3c-2 3-2 8-2 13 5 30 8 59 9 86l-2 7c-3 4-5 8-8 10l-11 6c-6 3-6 7-1 7 9-1 19-2 25-12l5-15c0-29-1-56-5-77l-1-7 4-1c2-2-7-13-10-17l-1-3zm-89 1l-1 2c-3 7-4 14-3 18 6 32 13 61 12 91 2 0 6-7 7-13a839 839 0 00-8-72c-1-8 6-1 5-5-2-6-8-14-10-19l-2-2zm-215 0l-1 2-1 2-1-1-1-2h-2v2l-1 1h-1v-1l-1-2h-1c-2 0-2 2-2 3 0 0 0 5 3 6 4 2 12 1 12-5l-1-3-2-2zm56 1l-4 1c-3 2-4 6-1 9 2 1 4 3 2 4-5 7-21 17-22 19h12c3-1 19-19 19-19l-2-2v-2c4-2 2-7 0-10h-4zm144 0l-2 2c-2 3-3 8-3 13 4 28 5 52 8 80 0 3 0 7-2 8-7 7-16 16-26 20-2 1 2 6 7 6 9-1 16-5 23-18 2-3 5-9 5-14a304 304 0 00-5-75c0-1 2 0 3-2 2-1-4-14-7-18l-1-2zm-224 0l-2 3v13l4 21c0 10-6 4-6-1v-19c-1-2-2-3-5-3-1 0-6 6-8 14l-1 9c-1 4-4 8-6-1-2-6-3-21-6-17-1 11-2 32 8 34 12 1 5-20 10-24 1-2 2-2 2 0v19c0 5 4 7 7 8 3 0 5 0 7 3l1 32s7 2 8-18c0-11-3-21-1-23 0-3 3-3 5-2 3 3 4 5 9 4 8-2 12-6 12-11 0-6-1-11-3-16 0-1-2-4-1-5 1 2 3 2 3 0-1-4-3-8-6-10s-6-2-8 3c0 6 2 12 6 18l2 8c-2 2-5 1-6-1l-6-5c1-10 0-11-1-14 0-4-2-5-4-8h-4c-3 5-1 14 0 19l3 6c-1 3-3 2-4-1-2-5-2-13-2-17s-1-14-4-16l-3-2zm43 1h-2c-3 1-5 3-5 7l8 51c1 2-1 5-3 5-4-3-5-8-12-8-5 0-10 5-11 10v12c3 5 7 4 11 3 3-1 5-4 6-3s0 10-13 18c-9 4-16 5-19-2-3-5 0-21-6-18-16 43 39 49 45 2l2-2 1 2c-1 42-42 45-49 31-2-3-3-10-3-14l-2-4c-1-2-3 2-4 7v10c2 34 55 20 64-8 4-14 0-25 1-26 6 5 13 0 15-2h3c4 3 12 1 13-4l2-16-6 3v1l-1 4-1 1-2-1c-1-6-7-7-10 2-2 2-6 2-6 0 0-6-2-7-7-4l-5-36c2 0 4 2 6-1-2-6-6-19-9-20a2 2 0 00-1 0zm164 0c-2 0-5 1-4 4l6 9v8c1 1 3-4 4-9 1-3-2-11-5-12h-1zm-128 4l3 2-1 3-3-2c-1-1 0-3 1-3zm237 6c-2 0-4 2-3 5l5 9v10c2 0 3-5 4-10 0-3-1-12-5-14h-1zm-131 4l1 2 1 5-4-4c-3-4 0-3 2-3zm30 14l-1 2-1 2-1-1-1-2h-2v2l-1 1h-1v-1l-1-2h-1c-2 0-2 2-2 3 0 0 0 5 3 6 4 2 12 1 11-5v-3l-2-2zm-138 2h-2c-3 2-5 8-3 12 3 3 6 1 6 1 4 1 6-6 6-6s0-2-4 2c-2 0-2-1-3-2l1-5-1-2zm195 1c-2 0-4 1-4 4v4h-3l-1-3c-2-1-4 0-5 1-1 2-2 4-1 7 2 4 10 11 14 11l1-12 1-3h4l-2-8-4-1zm-161 13l-2 2c-2 2-3 3-2 8l6 16c2 6 3 14 2 21-4 10-13 18-22 23h-9c-2-2-2-5-2-5 7-5 15-9 22-23 2-5 2-8 0-16 0-3-1-6-3-8 1 0 4 2 5 0-1-3-4-9-7-11-2-3-5-3-7-1-3 2-4 7-2 12 1 3 5 4 8 11 0 0 1 5-1 7-1 4-15 15-16 16h-1v-3l1-7c-5 3-6 12-7 15-12 8-26 14-34 23-4 6 29-8 32-9l3 6c4 4 11 7 18 5 11-4 18-12 25-21 1-1 2-2 4-1 4 10 18 18 35 19 4-5 2-8 1-9-1 0-9-3-10-6s1-6 5-8l33-6c0-4 2-9 3-11l2-2v-1l-2-1h-35l-1-1 1-1c8-1 23-4 24-18 0-8-3-13-12-14-7 0-12 7-11 14 0 2 1 6-1 7-14 1-28 9-28 15h-1l-2-4c0-10-4-21-9-30l-3-3zm34 6l-2 1v2l-2-1v-2h-1l-1 1v1l-1 1h-1l-1-1v-2h-1c-2 0-2 2-2 3 0 0 0 5 3 6 4 2 14 1 11-5v-3c0-1-1-2-2-1zm138 5l-20 14c-2 2-1 8 0 7 1 1 21-12 20-14 1 0 2-7 0-7zm-120 2l3 1 2 3v1l-4-1c-2-1-2-2-2-3l1-1zm-167 4c-10 0-24 13-25 20l32-15c-2-3 0-5-7-5zm32 4l3 2-1 3h-3l-3-1 2-3a3 3 0 012-1zm251 4c-2 0-3 2-2 5-1 1 2 7 3 9v9c2 1 5-4 5-9 0-2-1-12-5-14h-1zm-213 10c-2 0-3 1-2 3 0 1 4 3 4 7 1 1-1 6 1 7 1 0 3-4 3-7 1-2-1-9-5-10h-1zm64 8l15 2c4 0 6 4 2 5-3 1-7 2-7 8v5h-1l-3-1c-2-2-9-6-10-15 0-2 1-4 4-4zm-156 7l-2 2c-5 9-6 23-3 27 2 2 5 3 7 2 4-1 5-9 4-11s-2-3-3-1c-3 5-4 2-4-1l1-15v-3zm200 12l-1 1s-5 2-6 4v3h3c1 0 2 1 2 3v3c0 1 2 2 4 1l12-4c1 0 1-4-1-4-3 0-6 0-9 2-2 1-2 0-3-2 0-2 2-4 1-6l-2-1zm128 5h-2c-2 1-2 1-2 3s1 2 3 3c0 1 1 2-1 3l-3 4c-1 1-1 2 1 3 3 1 12-5 12-5v-3h-3c-1 0-3 0-2-2l2-3c0-1 0-2-2-3h-3zm-53 109c-6 1-6 7-2 10l-180-1-48-1c8 11 19 13 34 14l193-1c-3 5 0 12 2 14h1c2 0 3-1 4-3h28c2 2 3 4 6 4 4-1 8-2 8-11 0 0-1-16-11-15l-9 1-23-1c1-1 2-5 0-7h-2v-1l-1-2zm4 22l27 1v4h-9c0-2-5-2-7-1v1h-11c-2-2-2-4 0-5z" fill="#fff"/></svg>