<svg xmlns="http://www.w3.org/2000/svg" xmlns:xlink="http://www.w3.org/1999/xlink" viewBox="0 0 12 6"><path fill="#ed1c24" d="M0 0h12v6H0z"/><path fill="#005da4" d="M0 0h12v4H0z"/><path fill="#fff" d="M0 0h12v2H0z"/><svg width="12" viewBox="-120 -190 240 309" height="15" transform="translate(2 1) scale(.12937)"><path d="M110-19l10-144a280 280 0 00-240 0l10 144A156 156 0 000 119 156 156 0 00110-19" fill="#005da4"/><path d="M-90 0A138 138 0 000 101 138 138 0 0090 0L45-60 27-36 0-90l-27 54-18-24-45 60" fill="#fff"/><path d="M-17-2a6 6 0 008 2 6 6 0 016 0 6 6 0 006 0 6 6 0 016 0 6 6 0 008-2v2a6 6 0 01-8 2 6 6 0 00-6 0 6 6 0 01-6 0 6 6 0 00-6 0 6 6 0 01-8-2z" transform="matrix(5 0 0 5 0 26)" id="a" fill="#005da4"/><use xlink:href="#a" transform="translate(0 17)"/><path stroke-width="0" d="M0-5l1 3h3L2 0l2 3-3-1-1 3-1-3-3 1 2-3-2-2h3z" fill="#fd0" transform="matrix(2.25 0 0 2.25 0 -120)" id="b"/><use xlink:href="#b" transform="translate(-34 -45)"/><use xlink:href="#b" transform="translate(34 -45)"/><path d="M-112-167l10 147A147 147 0 000 110 147 147 0 00102-20l10-147a280 280 0 008 4L110-19A156 156 0 010 119 156 156 0 01-110-19l-10-144a280 280 0 008-4" fill="#ed1c24"/></svg></svg>