<svg xmlns="http://www.w3.org/2000/svg" viewBox="0 0 9 6"><path fill="#ee1c25" d="M0 0h9v6H0z"/><path fill="#0b4ea2" d="M0 0h9v4H0z"/><path fill="#fff" d="M0 0h9v2H0z"/><path fill="#fff" d="M3.16 4.63c-.54-.25-1.3-.77-1.3-1.79 0-1.01.04-1.48.04-1.48h2.52s.05.47.05 1.48c0 1.02-.77 1.54-1.3 1.8z"/><path fill="#ee1c25" d="M3.16 4.5c-.5-.24-1.2-.7-1.2-1.64s.05-1.36.05-1.36h2.31s.04.42.04 1.36c0 .93-.7 1.4-1.2 1.64z"/><path fill="#fff" d="M3.27 2.61c.13 0 .4.01.62-.07v.36a2.01 2.01 0 00-.62-.07v.52h-.21v-.52c-.15 0-.42 0-.63.07v-.36c.23.08.5.07.63.07V2.3c-.12 0-.3 0-.5.07V2c.2.07.37.07.5.07-.01-.2-.07-.46-.07-.46h.34s-.06.26-.06.46c.12 0 .3 0 .5-.07l-.01.18v.18c-.2-.07-.37-.07-.5-.07v.32z"/><path fill="#0b4ea2" d="M3.16 3.3c-.25 0-.38.34-.38.34s-.07-.17-.28-.17c-.13 0-.23.12-.3.24.25.4.65.64.96.79.32-.15.71-.4.96-.8-.06-.1-.16-.23-.3-.23-.2 0-.28.17-.28.17s-.13-.35-.38-.35z"/></svg>