<svg xmlns="http://www.w3.org/2000/svg" xmlns:xlink="http://www.w3.org/1999/xlink" viewBox="0 0 1064 600"><path fill="#0f47af" d="M0 0h1064v600H0z"/><path fill="#fff" d="M0 200h1064v200H0z"/><g transform="translate(16.1)"><g fill-rule="evenodd" stroke="#000" stroke-width=".3" fill="#fff"><path d="M515 353.4c1.5 0 3.2 0 10.1-1.7 7-1.7 12.7-5.9 14-6.5 1.4-.6 3.3-.4 3.3-.4a8.4 8.4 0 00-5.8-2.8c-3 0-1.9 0-4.4 1.1-2.6 1-8 4.3-17 4.3h-.1c-9 0-14.7-3.2-17.2-4.3-2.6-1-1.4-1-4.4-1-3 0-5.1 1.9-6 2.7 0 0 2-.2 3.4.4 1.4.6 7.1 4.8 14 6.5 7 1.7 8.6 1.7 10.1 1.7z"/><path d="M488.4 347.4c.7-.4-.2-1.6-.2-1.6l2.7-.6c-1.3-.6-3.3-.4-3.3-.4-.5.4-.4 1-.5 1.3 0 .4 0 1 .2 1.3.3.3 1 0 1 0z"/><path d="M491 345.2l-2.8.6s.9 1.2.2 1.7l4.8-1-2.3-1.3zm50.7 2.2c-.7-.4.1-1.6.1-1.6l-2.7-.6c1.4-.6 3.3-.4 3.3-.4.6.4.5 1 .6 1.3 0 .4 0 1-.3 1.3-.3.3-1 0-1 0z"/><path d="M539.1 345.2l2.7.6s-.8 1.2-.1 1.7l-4.8-1 2.2-1.3z"/></g><path d="M495.8 343.3l-1.2 3 .6.3c.9.4 1.8.1 2.2-.9.4-1-.1-1.8-1-2.1l-.6-.3zm.3.6c.8.4 1.2.9.9 1.7-.3.8-1 .8-1.7.5h-.1l.9-2.2z"/><path fill-rule="evenodd" d="M497.2 347.5l1.4-3 .3.1-1.3 3z"/><path d="M500.2 345.3c-.6 0-1.2.4-1.5 1-.4 1 0 1.9.8 2.3.8.3 1.8 0 2.2-1a1.7 1.7 0 00-.9-2.2 1.5 1.5 0 00-.6-.1zm0 .5h.5c.6.3.8 1 .5 1.6-.2.6-1 1-1.5.7-.5-.3-.8-1-.5-1.6.2-.4.5-.7 1-.7z"/><path fill-rule="evenodd" d="M503.8 347.4c0-.3-.1-.4-.3-.5-.3-.1-.6 0-.7.2l.2.6.3.2c.3.3.5.7.3 1.2a1 1 0 01-1.3.6 1 1 0 01-.6-1.2h.4c-.1.4 0 .7.4.9.3 0 .6-.1.7-.4.2-.4 0-.6-.2-.8l-.2-.2c-.3-.2-.5-.5-.3-1 .1-.5.7-.6 1-.5.4.2.6.4.7.8h-.4zm2.4.1l-.5 1.8c-.1.6-.1 1 .4 1.3.6.1.9-.3 1-.8l.6-1.9.3.2-.5 1.9c-.2.7-.8 1.1-1.5 1-.7-.3-1-1-.7-1.6l.6-2 .3.1zm4.4 4.5l-1.8-3-.5 2.4h-.4l.7-3.4 1.8 3 .4-2.4h.4zm.8 0l.4-3.3h.3l-.4 3.3z"/><path d="M514.2 348.9a1.6 1.6 0 00-1.7 1.6c0 1 .7 1.7 1.6 1.8.8 0 1.6-.7 1.6-1.7 0-.9-.7-1.7-1.5-1.7zm0 .5c.6 0 1 .6 1 1.2 0 .7-.5 1.2-1.1 1.2-.6 0-1.1-.6-1.1-1.3 0-.6.5-1.2 1.1-1.2z"/><path fill-rule="evenodd" d="M519 352.1l-2.4-2.3.1 2.4h-.4l-.2-3.4 2.5 2.4-.2-2.4h.4zm2.1-.5l-.6-3.2h.4l.6 2.8.9-.2v.4zm1.8-.3l-.8-3.2h.4l.7 3.1z"/><path d="M523.9 347.7h-.4l-.4.2.9 3.1.7-.1c.5-.2 1-.6.8-1.2-.1-.4-.4-.7-.8-.6l.1-.8c-.2-.5-.5-.6-1-.6zm0 .4c.2 0 .4 0 .5.4.2.4-.1.5-.4.6h-.1l-.3-1h.1a1 1 0 01.2 0zm.5 1.3c.3 0 .6 0 .6.4.2.4-.1.5-.4.6l-.3.1-.3-1h.4z"/><path fill-rule="evenodd" d="M527.2 348l.2.3-1.2.4.4 1.2 1.2-.5.1.4-1.5.6-1.1-3.1 1.6-.6v.3l-1.1.5.3.8z"/><path d="M528.6 346.2c-.3 0-.5 0-.8.2l-.4.1 1.2 3h.3l-.4-1.4 1.4.9.5-.1-1.5-1c.4-.2.6-.7.4-1.1a.9.9 0 00-.7-.6zm0 .4l.3.3c.2.5-.2.7-.5.8l-.5-1h.1l.5-.1z"/><path fill-rule="evenodd" d="M529.2 345.8l1.7-.8.2.3-.7.3 1.2 2.7-.3.1-1.2-2.6-.7.3z"/><path d="M532.2 344.2l.2 3.7.4-.2v-.8l1.3-.7.6.6.4-.3-2.9-2.3zm.4.9l1 .8-.8.5-.1-1.3zm2.7-2.2c-.3 0-.7.1-1 .3l-.5.3 1.7 2.8.5-.3c.9-.5 1.3-1.4.7-2.3-.4-.6-.9-.8-1.4-.8zm.2.5c.3 0 .6.2.8.5.4.8 0 1.3-.6 1.7l-1.3-1.9h.1l1-.3z"/><g id="a" stroke="#000" stroke-miterlimit="2.6"><path d="M485 355.2c.6 0 1-.4 1-1a.9.9 0 00-1-.8c-.4 0-.8.4-.8.9s.4.9.9.9zm-5 6.3c.5 0 .9-.4.9-1a1 1 0 00-1-.8 1 1 0 00-.9.9c0 .5.5.9 1 .9zm-12-19.9c.5 0 1-.4 1-.9a1 1 0 00-1-.9c-.5 0-.8.4-.8 1 0 .4.3.8.9.8zm-7.3 3.7c.5 0 1-.4 1-1 0-.5-.5-1-1-1a1 1 0 00-1 1c0 .6.4 1 1 1zm-1.4-22.3a1 1 0 001-1c0-.5-.4-1-1-1a1 1 0 00-1 1c0 .6.5 1 1 1zm-6.2 1.8c.6 0 1-.4 1-1 0-.5-.4-1-1-1a1 1 0 00-1 1 1 1 0 001 1zm3.2-19.8a1 1 0 001-1c0-.6-.4-1-1-1s-1 .4-1 1a1 1 0 001 1zm-5.6-18.3c.6 0 1-.4 1-1a1 1 0 00-1-1 1 1 0 100 2zm7.1 1.8c.6 0 1-.4 1-1 0-.5-.4-1-1-1a1 1 0 00-1 1c0 .6.5 1 1 1zm7-15.2a1 1 0 001-1c0-.5-.5-1-1-1a1 1 0 100 2zm-5.3-4.2c.5 0 1-.4 1-1a1 1 0 00-1-1 1 1 0 00-1 1c0 .6.4 1 1 1zm10.5-10.3c.6 0 1-.4 1-1s-.4-1-1-1-1 .5-1 1c0 .6.4 1 1 1zm-21.5 46.3c.6 0 1-.4 1-1a1 1 0 00-1-1 1 1 0 00-1 1c0 .6.5 1 1 1z" fill-rule="evenodd" stroke-width=".1" fill="#e60000"/><path d="M486 358.9s-.8-3.2-.7-3.9l.8-.6m-1.4 5.7s-2.8.1-3.7.4l-.3.8m-13.4-15.5s-.2-3.8.6-4c0 0 .7-.4 1.2-1m-4.7 3.8s-2.1-.3-2.7 0c0 0-.1.6-.6.8m-.8-23l-.7.5c-.8.3-2.3 4-2.3 4s-2.4-1.9-3.4-2h-1.1m-4.8-20.2s.6.6 1.2.3c0 0 3 2 3.2 2.7 0 0 3.1-3.2 3.7-2.9 0 0 .3.5 1-.1m-5.8-18.6s.3.5.9.8c0 0 1.4 2 1.4 3.5 0 0 2.5-2.3 3.3-2.1 0 0 .9.3 1.5 0m.3-19.5s.6.8 1 .2c0 0 1.9 2.2.8 4 0 0 2.5-.7 3.3-.3 0 0 .3 1 1.2.5" stroke-width=".3" fill="none"/><g fill-rule="evenodd" stroke-width=".3" fill="#1f601a"><path d="M532.8 378.3l-4.5-.3c-.6 0-2-2.7-2.6-3.1-.6-.5-10.8-5.5-17.5-6.5-6.6-1-16.8-5-19-6a88 88 0 01-26-19.2c-2.9-4.2-6-14-7.2-19.2-.7-2.5-4-12.4-4-19.2a84 84 0 012.2-19.4c1.1-5.1 10-20.1 15.3-26.8 0 0-12 18.7-14.2 25.9-2 7.4-2.6 16.3-2.5 21.5.1 4.2 3.6 19.6 8.7 30.9 4.1 9 7.7 10.2 14 15.2a90.9 90.9 0 0013.6 8.6c4.8 2.4 15 5.5 17.8 5.9 2.7.5 16.4 4.5 18.2 5.4 1.8 1 6.5 5 7.7 6.3z"/><path d="M464.1 343.4c.3-1.4.4-2.4 1-2.8.4-.5 1.9-2.4 2.2-3.5.3-1.2 0-2.2 0-2.8l.4-2.7s-.7-2.5-1.3-3c-.6-.4-2.2-2.6-2.5-3.2 0 0 .2 1.3-.3 1.9-.4.6-.6 2.1-.6 3 0 .9.3 3 0 4-.3 1.2-.7 2.2-.4 3.5l1.5 5.6zm-.5-1.5s-3.4-4.4-3.4-6.2c0-1.8-.3-2.9-.6-3.3-.3-.4-2.3-2.7-.5-5.6.8-1.2 1-1 1.4-2.4.6-1.6 1.8-1.6 2-3.3 0 0 .4 2 .5 3.6.2 1.7-.1 2.3-.2 3.2-.2.9.4 2 .4 3.3 0 1.4-.2 1.9-.2 2.7 0 .4-.5 6.2.6 8zm38.6 23.5l-4-.5a19 19 0 01-3.5-.9 11.3 11.3 0 01-4-2.8c-2.8-3-2.5-4.5-3-4.6-1-.2 1.5-.4 2.8-.3 1.1.2 2.8 1 3.8 2 1.2 1.1 3 2.3 3.5 2.7.6.5 1 .7 1.7 1.6.7.8.6 1.4 2.7 2.8z"/><path d="M506.2 367.5s-7.2-3.2-8-3.8a25 25 0 01-2.8-2.6c-.7-.8-3.8-2.4-4.3-3.4-.3-.7-2.3-3.3-3.4-5.4-.5-1 4.9.3 4.9.3 4.4 1.8 2.4.6 4.8 2.4 1.5 1.1 2.5 2 2.9 2.9.6 1.3 1.2 3.6 1.9 4.7.6 1.2 1.7 2.7 4 5z"/><path d="M510.2 368.4s-6-1.5-8.8-5.2c-2-2.6-2-1.8-2.7-2.7-1-1-2.6-2.3-4-4.5.2.3-1.6-5.9-1.6-6.6 0-.4 2.3.3 4.2 1 1.5.7 2.4 2 3.8 2.8 1.6 1 1.8 3.7 2.5 4.9 1 1.8 1.2 2.7 1.2 3.5 0 1.4.8 1.8 1.2 3 .5 1.3 2.1 1 4.2 3.8zm-9.6-2s-5.2-2.2-5.9-2.4c-.8-.1-1-.6-2.1-.9-.9-.2-1.7-.9-3.8-.4-1 .2-4.6 1-5.5.6-1-.5 1.3 2.5 2.3 3.1a8 8 0 004.4.8h4.4c.7 0 1.2.2 2.3-.1 1-.3 1.3-.8 3.9-.7z"/><path d="M504 366.4s-5.7-1.4-6.7-1.4l-4.8.4c-1 .2-4.5-.2-5.5.4-1 .4-5.6 1-6.8.8-1.2-.3 2.4 3.2 3.9 3.6 4.6 1.3 3.2 1.1 6.2.4 1.8-.5 4.4-.6 5.4-.8.9-.1.7-.7 2-1.2 1.1-.5 3.2-1.8 6.3-2.2z"/><path d="M508.7 368.8s-5.7-2.4-10.2-1.1l-4.2 1c-1.4.1-2.6-.6-5 .4-1.2.4-6.2 2.5-7.5 2.4-1.3-.1 4 3.3 5.4 3.1 4.6-.6 9 1 11 0l4-1.5c1-.4 1.5-1.2 2.1-1.7.6-.4 1-1.6 4.4-2.6zm-30.6-13.1s-3.3-3.6-4-4.1l-3-2.4c-.6-.6-1.3-2-3.4-2.5-1-.2-3.1-.6-3.8-1.4-.6-.8.1 3 .8 4a8.1 8.1 0 003.6 2.5c1.5.5 3.3 1.5 4 1.9.6.3 1 .6 2 .8 1.1.2 1.6 0 3.8 1.2z"/><path d="M481.3 357.2s-5.7-4-6.5-4.4a46.3 46.3 0 00-3.5-1.3c-1.1-.3-4-2.3-5-2.3s-3.3-.1-4.3-.8c-1-.8-.1 2.7 1 3.7 3.6 3.2 1.1 2.2 4.1 2.8l5.1 1.7c1 .3 1-.3 2.3-.2 1.3 0 3.8-.2 6.7.8z"/><path d="M482.6 358.3s-2.3-1.6-6.9-2.4c-3-.5-3-.6-4.1-1-1.4-.4-1.7-.4-4.3-.5-1.2-.1-6.2 1.5-7.4.8-1-.6 1.3 1.5 2.6 2 2 .8 1.8 2 4 2.8 2.2.7 4.7 1.6 6 1.4 1-.2 1.8-.7 3.3-.8 1.4-.2 4-2.3 6.8-2.4zm.5-1.2s1.1-5.5.1-6.8a5.2 5.2 0 01-1.2-2.9 11 11 0 00-1.6-4.3c-.6-.8-1.8-4.2-1.5-5.1 0 0-3.2 3.1-3 5.1v2.4c-.2.9.7 3.9 1.3 4.8.6 1 .3 3.7 1 4.2.5.6 4.1 3 4.9 2.6z"/><path d="M482.6 358.3c.3.1-2-1.8-3-2.3-1-.4-5.3-1.6-5.6-2.7-.3-1-3.7-4.6-3.9-5.6 0-.6-.7-2-.6-2.8.2-.7.5-2.6 1-3.6.4-1.1 1.4-3.6 2.5-4l1.2 3.8c.3 1.1.6 2.3 1 2.9.5.6 2 3.4 2.1 4.5l1.1 5.3c.1.7 3 3.8 4.2 4.4zM464 343.4c.1.8-2.3-.8-3.5-.8s-4.8.5-5.7-.4c-.9-1-2.2-2.6-2.7-2.9-.5-.3-2.1-3-2.6-4.5-.4-1.5-3.6-4.2-4-4.5 0 0 4.3-.9 7 .9s3 1.4 3.5 1.6c.6.3 5.3 4.3 5.6 5.8.3 1.5 2.2 4 2.4 4.8z"/><path d="M464.1 343.4s-3.9-2.7-4.8-2.6c-1 .2-5.2-3-5.4-5-.2-1-2.2-2.5-2.6-3.1-1-1.8-1.7-5.9-3.2-7l5.2 1.3c2 .3 3.6.6 4.3 2.2.8 1.7 1.4 3 2 3.2.6.2 1.5 2.3 1.8 4.4a32 32 0 002.7 6.6zm-7.4-20.5c.7 1 .6-6 .9-6.8.3-.7 1-2.2 1.7-2.8.6-.7.6-2.7.9-3.3.3-.6.1-4.7-.3-5.8l-1.8 1.7c-.6.7-1.7 1-2 2-.3.8-.9.8-1.3 1.8a5.6 5.6 0 00-.6 3.6c.3 1.2.1 1.6.1 2.7 0 1 1.5 5.5 2.4 6.9z"/><path d="M456.9 323.5s-.3-2 .4-2.7c.8-.8 1.5-.8 1.8-1.2.3-.5.2-1 .5-1.7.3-.6 1-1.6 1-2 .3-1.7 1.3-3.6.5-5.3 0 0-1.7.5-2.1.8-.5.3-1.8 1.6-2 2.8-.1 1.3-.3 1.5-.7 2.2-.5.8-1 3-.3 4.4a7.4 7.4 0 01.9 2.7zm-4.4-23s-.3-4.4.9-5.8c1.2-1.3 1.5-3.9 4.2-5.3v1.9c.2.7.5 2.8 0 3.6-.4.7-2 2-2 2.7 0 .6-1 2.1-1.7 2.4l-1.4.5z"/><path d="M452.5 302.8s0-3 .9-4 1.4-1.4 1.8-2c.5-.5 1-2 2-2.7 1-.6 2.8-2.1 3-2.7 0 0 .4 3.8-.6 5.8s-1 3-2.3 3.4c-1.2.5-1.4.8-1.8 1-.5.4-1.2.8-1.8.8-.6 0-1.2.4-1.2.4zm3.4 20.6c.2.8.8-2-2.3-2s-5.8-1.2-6.8-2.3l-2.1-2.3a9 9 0 01-1.9-3.1c0-.9-1-4.2-.9-4.8 0 0 1.7.3 2.5.9.7.6 2 .6 2.8 1 .8.5 1.4 1.7 1.8 2.1.5.5 1.8.5 2.4 1.4.6.9 1.7 2.9 1.9 3.8 0 .9 1.2 1.8 2 2.2.6.5.5 2.3.6 3z"/><path d="M455.6 322.1s-2-2.5-3.1-2.5c-1 0-3.8-2.7-4-4 0-1.1-1-3.4-1.6-3.9a3.6 3.6 0 01-1.5-3.3c.2-1.8.2-4.8.2-4.8s.6 1.8 1.5 2.3c.9.4 2.5 1 2.8 1.6.3.6 1.5.6 2 2.5.5 1.7.5 1.6.8 2.2.3.6 1 1.4 1.3 2.6.3 1.2 2 4.3 1.7 7.3zm-3-16.6c-.2.8 1.1-1.6-1.7-2.4a9.6 9.6 0 01-5.6-4l-1.3-2.6a9 9 0 01-.7-3.4c0-.9.2-4.1.5-4.6 0 0 1.4.7 2 1.4.4.8 1.7 1.2 2.3 1.8.5.6.7 1.9 1 2.5.3.5 1.5.9 1.8 1.8.3 1 .7 3.1.6 4-.1.8.6 2 1.2 2.6.5.6-.1 2.2-.2 3z"/><path d="M452.6 304.3s-1.2-2.9-2.2-3.2c-1-.3-2.5-2.7-2.6-3.9-.1-1.2-.3-3.4-.7-4-.5-.6-1.3-2.4-.6-4l1.6-3.7 1.3 2.1c.8 1.6 1.6 1.7 1.7 2.3.1.7 1 1 1.4 2.3.5 1.7 0 1.6 0 2.3.2.6.7 1.5.6 2.7 0 1.1.6 4.5-.5 7.1zm2.3-18.2c.1-.4 1-.9 2.1-1.2 1-.3 2.7-2.7 3.5-3.3.7-.6 1-1.6 2-2.1.9-.5 1.4-2.4 1.7-4.2l-3.3.7a7.1 7.1 0 00-2.8 1.9c-.6.7-1.2 2-1.9 2.2-.5.3-1.3 2.1-1.3 3.3v2.7z"/><path d="M454.8 284.8l-.2-2.6c0-.9-.6-3.3.7-5.3 1-1.3 4.3-3.9 5.2-4 0 0 .6 2.4.4 3.1-.1.8-1 3.8-1.6 4.1-.7.3-2.4 3.9-4.5 4.7z"/><path d="M454 286.1c-.4.7-.1-2.2-1-3-1-.7-1-1.8-1-3s.2-2 .3-2.9c.2-.7 2.5-3.9 2.3-4.8l1.7 3.8c.4 1-.3 2.1-.2 3 .2.9.9 2.6.3 3.5L454 286zm8-15.5s.2-.4 1.5-.4 3.3-.1 3.9-.8c.6-.6 1.6-1.4 2.3-1.7a5.2 5.2 0 001.8-2.2c.1-.6 1.2-1.8 1.6-1.8 0 0-1.6-.2-3.4.3-1.8.5-4.4 1.4-5 2.6a49.5 49.5 0 01-2.7 4z"/><path d="M462.5 270.3c.3 1 2.8-1 3.4-1.8l1.5-2s1.4-1.7 1.8-2.4c1-1.6.7-4.6.3-4.3a31 31 0 01-2.5 1.4c-.5 0-1.4.4-1.7 1.1-.3.8-.6 1.8-1 2.3-.5.5-3.2 2-1.8 5.7z"/><path d="M461.6 270.3s2-1.5 2.8-2.3c1-.8.5-2 1-2.6.3-.6 1.4-2 1.1-3l-.9-3.4-1.8 1.8c-.8.8-.9 1.4-1.2 2.3-.3.9-1 1.5-1.2 2.2-.3.8 0 2.3.2 3.2v1.8z"/></g><g stroke-width=".1" fill="none"><path d="M494.8 365.2s-10-.1-10.8-1.3m16.6 2.6s-6.5 1.7-10 1.3c-3.5-.4-5.1.3-5.9.3a32 32 0 01-4.5-1.5m27 2.2l-6 1.2c-1 .3-6.2 2.3-7.7 2.3h-5c-1.5.3-5.4 0-6.3-.4m6.2-15s3.7 2.3 4.4 3c.5.8 3.8 3.5 4.5 3.5m-9-11.1s6.5 5.6 7.6 6.3c1 .8 7.4 7 8.1 7.8M493.6 350s5.1 4 5.7 5.7c.6 1.6 2.2 3.6 2.2 3.6s2 4.2 2.8 4.8c.8.6 2.3 2.2 4.1 3.4m-44-21.3s5.4 4.6 6.9 5.4m-9.1-2.5s5.4 3.7 7.8 4.6c2.4 1 4.4 1.7 9.6 2.4m2.1 2.2s-6-.3-7 0-5.8-.8-7-1.1l-6.6-1.4m11.4-17.9s-.3 3.3.2 4.7c.4 1.3 2.6 5.2 2.4 6.2-.1.9 1.2 5 2.4 5.7m1.2-16s-1 3.3-.6 4.4c.5 1 1.2 3 1.2 4.2s.8 3 1 3.8c.4.7 0 3.3.7 4l1.6 2.1m-36.1-26.2s4.8 1.9 5.4 3c.6 1.3 1.5 1.6 2 2.2m10.3-9.7s1.3 4.9 1 6c-.3 1.2-.3 3.7-.3 4.6 0 .9-1.4 4.5-1.3 5m-1.3-19.7l-.6 4.1c-.1 1.2 0 3.2-.3 4-.3.7-.8 4.7 0 6.6M449 326.2l4.8 4.2c.9 1 5 5.3 5.1 6.4.1 1 3 4.3 3.9 5m-20.5-32.4s4 3.9 4.2 4.8c.3.9 2 2.4 2.8 2.8m11.4-6s-1.5 2.3-1.5 3c0 .8-.6 2.7-1.2 3.5-.4.5-1.7 2.7-1.5 4m3-16.8l-1 3.6c-.2 1.5-1 3-1.3 4a22 22 0 00-1 7.9m-10.4-15.7s.4 2.1 1.5 3.2c1 1 2.7 2.6 2.8 3.4.2 1 1.6 5.4 3 7a5.4 5.4 0 011.7 3m-10.5-32s.4 2.6.7 3.4c.3.7 1.5 4 2.7 5.1m9.5-7.7s-.7 2-.9 3c-.1 1-1 2-1.2 2.4l-.7 2m5.5-5.3c-.1.9-1.8 3.6-2 4-.1.5-1 2.6-1.9 3.2-.9.6-3.6 2.6-3.5 3.4m-4.3-16.5s-.2 3.3.4 4.5a41 41 0 011.7 4c.3.9.3 2.4.4 3.4.2 1.1.6 3 1.2 3.8m11.8-25.9l-3.2 3.5c-1 1-4.8 5-5 5.8m4.6-11.6s-2.1 4.7-2.6 5.4l-.9 2m-2-7.5s.2 3.6 0 4.5a7.9 7.9 0 000 2.9c.2.4-.4 3.7-.5 4.5m18-21.3s-4.8 2.9-5.5 3.6m2.8-7.3l-3.3 4.8-.8 1.4m.3-6.6s-1 2.5-1.2 3.5c-.2 1.1-1.6 4.4-2.2 5.6"/><path d="M469.2 258s-.4 1 1.4.7" stroke-width=".3"/></g></g><use xlink:href="#a" transform="matrix(-1 0 0 1 1030 0)"/><path fill-rule="evenodd" fill="#00209f" d="M514.6 366.1s.7-1.8 2.2-.1c0 0 1.9 4.2.5 4.3-1.4.2-2.7.5-2.9-.3-.1-.7.2-3.9.2-3.9z"/><path fill-rule="evenodd" fill="#00209f" d="M516.5 365.5s.5-6.4 1.4-6.7c.9-.3 3.6-1.8 5.3-.5 1.6 1.4 0 8-.5 8.7-.6.6-1.5 2.5-5 2l-.4-1.6s1.8-.2 3-.8c1.2-.6 1.6-1.2 1.5-1.8-.2-.9 0-4.2-1-4.5l-2.3-.8-1.7 6.5-.3-.5z"/><path d="M514.4 370s-6.2 3.7-3 9l-2.1-1.3s-1.2 2.2-.1 3.4c0 0-4.3-3.8-1-8.3 3.4-4.6 6-4.3 6-4.3l.2 1.5z" fill-rule="evenodd" stroke="#000" stroke-miterlimit="2.6" stroke-width=".2" fill="#00209f"/><path d="M514.4 367s-2.7-1.8-6.6-.7c0 0-1.7-5.6-1-7.4.2-.8.8-.9.8-.9s-2-1.2-1.3 4c.6 5.4 1.6 6.8 1.6 6.8s5.2.3 6.4-.3l.1-1.4z" fill-rule="evenodd" stroke="#000" stroke-miterlimit="2.6" stroke-width=".2" fill="#00209f"/><path d="M514.4 367s-5.4-9-6.8-9c0 0-1.5-.2 2-.6 1.2-.1 3.2 0 4 1.7 1 1.6 1.7 5.5 2 6.1 0 0-1 .3-1.2 1.9z" fill-rule="evenodd" stroke="#000" stroke-miterlimit="2.6" stroke-width=".2" fill="#00209f"/><path d="M514.4 367s-3.6-1.6-4-2c-.5-.5-1.2-5.6-.8-5.3 0 0-1.5-1.7-2-1.7-.3 0-1.3.8-1 2.6.3 1.8.7 4.5 1.2 5.7 0 0 2.9-1.2 6.6.8z" fill-rule="evenodd" stroke="#000" stroke-miterlimit="2.6" stroke-width=".2" fill="#011322"/><path d="M517.7 370s2 1.3 2 3.5.9 6.4 2.7 7.3c0 0 .5-1.7 1-2 0 0 1.9 2.1 2.5 2.1 0 0-1-2-1-2.9 0-.9-1-4.3-2-5.2-.8-1-2.6-3-5.2-3.8v1z" fill-rule="evenodd" stroke="#000" stroke-miterlimit="2.6" stroke-width=".2" fill="#00209f"/><path d="M518.5 359.5l-1.7 6.5.5 1.4s.6-.2.9-1c.3-.7 1.2-6.3 1.7-6.5l-1.4-.4z" fill-rule="evenodd" stroke="#000" stroke-miterlimit="2.6" stroke-width=".2" fill="#011322"/><path fill-rule="evenodd" fill="#011d33" d="M514.4 369.3s-3 1-4.1 3.2c0 0-.4-1.5 4-3.6v.4zm3.4 0s2 .8 2.6 2l-2.6-1.5v-.5zm-3.4-1.7s-4.6.7-5.6.5c0 0 1.3.3 5.6 0v-.5zm7.4-2.8s.5 2.3.9 2.2c.4-.2 1.2-3.9 1.2-5.6 0-1.7-.7-2.1-1.4-2-.7 0-1 1.5-1 2.2l.3 3.2z"/><path fill-rule="evenodd" fill="#011d33" d="M516.8 366s1.9 4.1.5 4.4c-1.4.2.6.1-.4-2.7-.4-1.1-1-2.5-1.3-2.5 0 0 1.1.4 1.2.8z"/><path d="M514.6 366.1s.7-1.8 2.2-.1c0 0 1.9 4.2.5 4.3-1.4.2-2.7.5-2.9-.3-.1-.7.2-3.9.2-3.9z" stroke="#000" stroke-miterlimit="2.6" stroke-width=".2" fill="none"/><path d="M516.5 365.5s.5-6.4 1.4-6.7c.9-.3 3.6-1.8 5.3-.5 1.6 1.4 0 8-.5 8.7-.6.6-1.5 2.5-5 2l-.4-1.6s1.8-.2 3-.8c1.2-.6 1.6-1.2 1.5-1.8-.2-.9 0-4.2-1-4.5l-2.3-.8-1.7 6.5-.3-.5z" stroke="#000" stroke-miterlimit="2.6" stroke-width=".2" fill="none"/></g><g transform="translate(16.1)"><path fill-rule="evenodd" fill="#00209f" d="M509.8 255.9c-.4-1-.4-7.4-.4-8.4.2-1.7 3.2-10.2 3.8-11.2.6-1 .5-1.2.7-1.8l.9-1.2a10.9 10.9 0 011.2 4.1s-.5 4.1-1 6c-.4 1.7-1.6 4.3-1.8 4.8-.6 1.2-.5 2.4-.2 2.5l-3.2 5.2z"/><path fill-rule="evenodd" fill="#fff" d="M515 247.3l.5.6c1.3-1.5 1.4-4.5 1.4-4.5l-.9-6s-.5 4-1 6c-.4 1.7-1.6 4.2-1.8 4.8-.9 2.2-.2 2.4-.2 2.5l2-3.3z"/><path fill-rule="evenodd" fill="#00209f" d="M515.5 247.9c1.3-1.5 1.4-4.5 1.4-4.5s1 5 .4 6c-.5 1-.5.7-.4 1.2l-1.4-2.7z"/><path d="M517 250.7c-.2-.6-.2-.3.3-1.3.6-1-.4-6-.4-6l-.9-6c0-1.3-.6-3-1.2-4.1l-.9 1.2c-.2.6 0 .8-.7 1.8-.6 1-3.6 9.5-3.8 11.2 0 1 0 7.5.4 8.4" stroke="#000" stroke-miterlimit="2.6" stroke-width=".3" fill="none"/><path d="M515 234.1l-.2-1.3c0-.2.6.9 1 .7.9.3 1.9 1.5 2.1 1.8-.4.5-1.3 1.6-2 1.4-.5-.2-.4-1-.5-1.5-.1-.3-.4-.6-.4-1z" fill-rule="evenodd" stroke="#000" stroke-miterlimit="2.6" stroke-width=".1" fill="#FC0"/><path d="M515 233.3l.4.4c.2.2.4 0 .7.2.6.4.9.8 1.6 1.5m-2-1.4c.8.4 1.2 1 1.8 1.7" stroke="#000" stroke-miterlimit="2.6" stroke-width=".1" fill="none"/><path d="M514 233.4l1.3-.6c.1 0-.7.8-.4 1.2 0 .9-.7 2.2-1 2.5-.6-.1-1.2-.1-1.8-1.1-.2-.4.4-.8.8-1.1.2-.2.7-.8 1.2-.9z" fill-rule="evenodd" stroke="#000" stroke-miterlimit="2.6" stroke-width=".1" fill="#FC0"/><path d="M514.9 233.2l-.3.5.1.7c-.2.7-.5 1-.9 2" stroke="#000" stroke-miterlimit="2.6" stroke-width=".1" fill="none"/><path d="M514.4 234c0 .9-.5 1.5-1 2.3h.2" stroke="#000" stroke-miterlimit="2.6" stroke-width=".1" fill="none"/><path d="M515.4 232.8c.6-.7 1.7-1.4 2.3-1l.6.6c.2.3.2.5 0 .8-.3.8-1.4.4-2 0-.2 0-.6-.4-.8-.3l-.3.1.3.1 1.8.9c.5.2 1.5-.5 1.4-1 0-.5-.9-1.5-1.3-1.5-1 0-1.8.6-2.5 1.4.2-.2.4 0 .5 0z" fill-rule="evenodd" stroke="#000" stroke-miterlimit="2.6" stroke-width=".1" fill="#FC0"/><path d="M514.9 232.8c-.6-.7-1.7-1.4-2.2-1l-.6.6c-.3.3-.3.5-.1.8.3.8 1.4.4 2 0 .2 0 .6-.4.8-.3l.4.1-.4.1-1.8.9c-.5.2-1.4-.5-1.4-1 0-.6 1-1.5 1.4-1.5 1 0 1.7.6 2.4 1.4-.1-.2-.4 0-.5 0z" fill-rule="evenodd" stroke="#000" stroke-miterlimit="2.6" stroke-width=".1" fill="#FC0"/><path d="M515 232.4c-.2-.1-.5.1-.6.3 0 .2.1.6.4.6.3.2.8 0 .9-.3 0-.4-.3-.5-.6-.6z" fill-rule="evenodd" stroke="#000" stroke-miterlimit="2.6" stroke-width=".1" fill="#FC0"/><path fill-rule="evenodd" fill="#FC0" d="M515 226.3s.4 2.4 1.6 4-1.4 1.6-1.6 2.2c0 0-.8-1.7-1.6-2.2 0 0 1.3-2 1.6-4z"/><path d="M515 226.3s.4 2.4 1.6 4c0 0-1.4 1.6-1.6 2.2 0 0-.8-1.7-1.6-2.2 0 0 1.3-2 1.6-4" stroke="#000" stroke-miterlimit="2.6" stroke-width=".1" fill="none"/><path d="M515 228.8l.7 1.8s-.6.4-.7.7c0 0-.3-.8-.6-1 0 0 .6-.8.6-1.5z" stroke="#000" stroke-miterlimit="2.6" stroke-width=".1" fill="none"/><path fill-rule="evenodd" fill="#fff" d="M515 344.5l-.3-.2c-.4-.2-1.2-.2-1.3-.5-1-1.1-.4-3.4 0-4.8 1-2.6 1-5 1.6-7.4.6 2.4.7 4.8 1.6 7.4.4 1.4 1.1 3.7.1 4.8-.2.3-.9.3-1.3.5l-.4.2z"/><path fill-rule="evenodd" fill="#00209f" d="M515 331.5c.6 2.5.7 5 1.6 7.6.4 1.3 1 3.4.3 4.5.4 0 .7-.1 1-.3.2 0 .3 0 .4-.2 0-.2.3-.4.4-.5.3-.2.6 0 .9-.2l.1-.2c.6-.3 1-.6 1.3-1.1.1-.4.2-.9 0-1.3 0-.3 0-.5-.2-.8l-.5-1.1-.6-1.2a2.4 2.4 0 00-.3-.5l-.3-.6-.4-.4-.4-.3s-.3-.1-.2-.2l-.3-.1-1-2-.2-1.1H515zm0 0c-.5 2.5-.7 5-1.6 7.6-.3 1.3-1 3.4-.2 4.5-.4 0-.7-.1-1.1-.3-.1 0-.3 0-.3-.2a1.4 1.4 0 00-.5-.5c-.2-.2-.5 0-.8-.2l-.2-.2c-.5-.3-1-.6-1.2-1.1-.2-.4-.2-.9-.1-1.3l.2-.8.6-1.1.6-1.2c0-.2.1-.4.3-.5l.3-.6.4-.4.4-.3.2-.2.2-.1 1-2c.2-.2.2-.8.2-1.1h1.6z"/><g id="b" stroke-width=".2" stroke-miterlimit="2.6" fill="none"><path d="M514.3 331.6s-1 4-1.6 5c-.6 1.1-3 3-1.4 6" stroke="#011322"/><path d="M514.4 331.6s-1 4-1.6 5.1c-.6 1.1-3 3-1.4 6" stroke="#011d33"/><path d="M514.5 331.6s-1 4.1-1.6 5.2c-.6 1-2.9 3.1-1.3 6" stroke="#022743"/><path d="M514.6 331.6s-1 4.2-1.6 5.3c-.6 1-2.9 3-1.2 6.1" stroke="#033054"/><path d="M514.7 331.6s-1 4.3-1.6 5.3c-.6 1-2.8 3.2-1.2 6.3" stroke="#053a65"/><path d="M514.2 331.6s-1 4-1.6 5c-.6 1.1-3 3-1.4 6" stroke="#011d33"/><path d="M514 331.6s-.9 3.8-1.6 5c-.6 1-3 3-1.4 5.9" stroke="#022743"/><path d="M514 331.6s-1 3.6-1.7 5c-.5 1-3 3-1.4 5.9" stroke="#033054"/><path d="M513.8 331.6s-.8 3.6-1.6 5c-.6 1-3 3-1.4 5.9" stroke="#053a65"/><path d="M513.8 331.6s-.9 3.4-1.7 5c-.6 1-3 2.9-1.4 5.8" stroke="#00209f"/><path d="M514.8 331.6s-1 4.3-1.6 5.4c-.6 1-2.8 3.3-1.1 6.3" stroke="#00209f"/></g><use xlink:href="#b" transform="matrix(-1 0 0 1 1030 0)"/><path d="M518.6 335.2l.5.5.3.5.3.5.6 1.2.5 1.1.3.8-.1 1.3c-.2.5-.7.8-1.3 1.1l-.1.2c-.3.2-.6 0-.9.2l-.4.5-.3.2c-.4.2-.7.3-1.1.3l-.2.3c-.2.2-1 .2-1.3.4l-.4.2-.3-.2c-.4-.2-1.2-.2-1.3-.4l-.2-.3c-.4 0-.8-.1-1.1-.3-.1 0-.3 0-.3-.2a1.4 1.4 0 00-.5-.5c-.2-.2-.6 0-.8-.2l-.2-.2c-.5-.3-1-.6-1.2-1.1-.2-.4-.2-.9-.1-1.3l.2-.8.6-1.1.6-1.2c0-.2.1-.4.3-.5 0-.2.1-.4.3-.5 0-.2.3-.3.4-.5" stroke="#000" stroke-miterlimit="2.6" stroke-width=".2" fill="none"/><g id="c"><g fill-rule="evenodd"><path fill="#fff" d="M487.4 293.6c-1.5-3.7-3-11.3-3-13 .3-7.1.2-9.3.9-16.5l7.3 8.3c-.2 2.8-.2 3.7 0 5.5.1.7.5 3.9 1 5.1l-6.2 10.6z"/><path fill="#00209f" d="M493.6 283c-.5-1.3-.9-4.5-1-5.1-.2-1.8-.2-2.7 0-5.5l4.5 5-3.5 5.6zm-18.6 7a75.5 75.5 0 01-.3-4.4c0-5.1-.6-8 0-13.4.4-4.2 1.5-9.8 1.3-14.4-.1-1.3.1-2.6.2-3.9l9 10.2c-.6 7.2-.5 9.4-.8 16.5a53 53 0 003 13l-2 3.2-10.4-6.9zm6.3 13.7c-.6-1-1-3.9-1.2-4.5-.3-1.5-.3-2.3-.2-5l5 3.4-3.6 6zm-14.3 24a5.2 5.2 0 01-1.8-2.2c-.7-1.7-.5-1.7-1-3.6-.2-1.1-.2-2.3-.5-3.4-.2-1.2-1.8-4.8-1.8-6.2-.2-4.8-1.8-8-1.4-13.1.3-4 1.2-9.5.7-13.6l.1-3.6 10.3 6.7c-.4 6.9-.3 8.8-.3 15.4 0 1.6 1.4 8.1 3.2 11l-7.5 12.6zm17 3.8c1.9 1.7 5.4 2.6 6 3 1.2 1 3 2.3 6.3 2.5 2.3.1 3.3-.5 5.7-.8 2.8-.3-.3.1 2.3-.5 1.4-.3 1.4-.5 3.2-1 1.3-.3 2.7-.6 3.5-1.7.3-.5.6-.8.6-1.5h1.8c.2.5-.3 1.5-.5 1.9l-.5.6c-.2.6-.2.4-.7.9l-.8.6c-.4.3-.7.6-1.1.7-1.8.3-2.5.7-4.2 1.1-1.6.5-.7.4-2 .7l-2.4.7-2.4.6a30 30 0 01-8.6.3c-1.1 0-4-.7-5-1.4-1.8-1.2-5.7-1.7-7.4-2.9-.3-.2-1.4-.7-1.6-1-1.7-1.3-3-1.7-4.8-2.8H484z"/><path fill="#00209f" d="M497.7 331.5h14c-.1.7-.4 1-.7 1.5-.8 1-2.2 1.4-3.5 1.7-1.4.4-2.9-.4-4.4-.4-3.7-1.1-4.1-2.3-5.4-2.8z"/><path fill="#fff" d="M497.7 331.5c1.3.6 2 1.7 5.4 2.8 1.3 0 2.8.6 4 .6-1.5.3-1.5.5-2.8.8-2.6.6.5.2-2.3.5-2.4.3-3.4 1-5.7.8a11 11 0 01-6.3-2.5c-.6-.4-4.1-1.3-6-3h13.7z"/></g><g fill="none" stroke-width=".2" stroke-miterlimit="2.6"><path d="M476.6 259.7s1.7 15 7.5 14.4" stroke="#022743"/><path d="M484.2 274c-3 .2-4.9-3.5-6-7a46.5 46.5 0 01-1.5-7.3" stroke="#022847"/><path d="M484.2 274c-3-.1-4.9-3.8-5.8-7a43.5 43.5 0 01-1.7-7.4" stroke="#032b4c"/><path d="M484.2 274c-2.9-.3-4.9-4.1-5.8-7.2-1.1-3.3-1.7-7.1-1.7-7.2" stroke="#032d4f"/><path d="M484.2 273.9c-2.9-.5-4.9-4.4-5.8-7.2-1.1-3.2-1.7-7-1.7-7.2" stroke="#032f53"/><path d="M484.2 273.8c-3-.6-4.9-4.6-5.7-7.1-1.1-3.2-1.8-7.1-1.9-7.2" stroke="#043258"/><path d="M484.2 273.8c-2.9-.9-4.9-4.9-5.6-7.2a46 46 0 01-2-7.2" stroke="#04345b"/><path d="M484.3 273.7c-3-1-5-5-5.7-7.3a48.7 48.7 0 01-1.9-7" stroke="#04365e"/><path d="M484.3 273.7c-3-1.2-5-5.4-5.6-7.3a47.6 47.6 0 01-2-7.1" stroke="#043862"/><path d="M484.3 273.6c-3-1.4-5-5.6-5.6-7.3-1-2.8-2-6.8-2-7" stroke="#053b67"/><path d="M484.3 273.6c-3-1.6-5-6-5.5-7.4a50.3 50.3 0 01-2.1-7" stroke="#053d6a"/><path d="M484.3 273.5c-3-1.7-5-6.2-5.4-7.4a45.6 45.6 0 01-2.2-7" stroke="#053f6e"/><path d="M484.4 273.5c-3-2-5-6.4-5.5-7.5-1-2.4-2.1-6.6-2.2-7" stroke="#064172"/><path d="M476.7 259c0 .4 1.2 4.6 2.3 6.9.3.8 2.4 5.4 5.4 7.5" stroke="#00209f"/><path d="M476.9 256.3s4.8 12 8 10.6" stroke="#022743"/><path d="M484.8 266.9c-1.3.5-3.3-1.8-5-4.6-1.7-3-3-6-3-6" stroke="#022a49"/><path d="M484.8 266.8c-1.2.5-3.2-1.8-4.9-4.6-1.8-3.2-3-6-3-6" stroke="#032d4f"/><path d="M484.8 266.8c-1 .4-3.2-1.7-4.9-4.7a91.8 91.8 0 01-3-5.9" stroke="#033054"/><path d="M484.8 266.8c-.8.3-3.1-1.7-4.8-4.8-2-3.4-3-5.8-3-5.8" stroke="#043359"/><path d="M484.9 266.7c-.7.3-3.1-1.7-4.8-4.8l-3.1-5.8" stroke="#043760"/><path d="M484.9 266.7c-.6.3-3-1.7-4.8-4.9a749.5 749.5 0 00-3.2-5.8" stroke="#053a65"/><path d="M484.9 266.7c-.4.2-3-1.6-4.7-5a322 322 0 00-3.2-5.7" stroke="#053d6a"/><path d="M484.9 266.7c-.2 0-2.9-1.6-4.7-5L477 256" stroke="#064171"/><path d="M477 255.9s1 1.4 3.3 5.7c1.8 3.4 4.5 5 4.5 5m8.1 12.1l3.8-.7m-4-3.1l4 2.2" stroke="#00209f"/><path d="M492.5 275l4.2 2" stroke="#064171"/><path d="M492.5 275.2l4.2 2" stroke="#053e6c"/><path d="M492.5 275.4l4.2 1.8" stroke="#053b67"/><path d="M492.6 275.6l4.2 1.6" stroke="#043862"/><path d="M492.6 275.8l4.2 1.4" stroke="#04355c"/><path d="M492.6 276l4.3 1.2" stroke="#043258"/><path d="M492.6 276.1l4.3 1.2" stroke="#032f53"/><path d="M492.6 276.3l4.4 1" stroke="#032c4d"/><path d="M492.6 276.5l4.4.9" stroke="#022a49"/><path d="M492.8 278.5l3.9-.5" stroke="#064171"/><path d="M492.8 278.3l4-.4" stroke="#053e6c"/><path d="M492.8 278.1l4-.3" stroke="#053b67"/><path d="M492.8 278l4-.2" stroke="#043862"/><path d="M492.8 277.7h4" stroke="#04355c"/><path d="M492.8 277.5l4.1.2" stroke="#043258"/><path d="M492.8 277.3l4.2.3" stroke="#032f53"/><path d="M492.7 277.1l4.3.4" stroke="#032c4d"/><path d="M492.7 276.9l4.4.6" stroke="#022a49"/><path d="M492.7 276.7l4.4.7m-22.1.4s.2 3.2.9 4.5c1 1.9 3.9 4.7 7.2 6.8" stroke="#022743"/><path d="M483.2 289.1a27.1 27.1 0 01-5.5-4.6l-1.7-2.3c-.7-1.4-1-4.5-1-4.5" stroke="#022847"/><path d="M483.3 289.1a27.2 27.2 0 01-5.4-4.7 9.4 9.4 0 01-1.7-2.3c-.8-1.4-1.2-4.5-1.2-4.5" stroke="#032b4c"/><path d="M483.3 289.1a31.3 31.3 0 01-5.3-4.7 12 12 0 01-1.7-2.4c-.8-1.5-1.3-4.5-1.3-4.5" stroke="#032d4f"/><path d="M483.4 289a31.4 31.4 0 01-5.3-4.7 13.6 13.6 0 01-1.7-2.4c-.8-1.5-1.4-4.4-1.4-4.4" stroke="#032f53"/><path d="M483.5 289c-2.1-1.3-4-3.5-5.3-4.8a12.7 12.7 0 01-1.6-2.4c-1-1.5-1.6-4.4-1.6-4.4" stroke="#043258"/><path d="M483.6 289c-2.1-1.4-4-3.6-5.3-4.9l-1.6-2.3c-1-1.7-1.7-4.5-1.7-4.5" stroke="#04345b"/><path d="M483.6 289c-2-1.4-4-3.7-5.1-5a14 14 0 01-1.7-2.3c-1-1.7-1.8-4.5-1.8-4.5" stroke="#04365e"/><path d="M483.7 289c-2-1.4-4-3.8-5.1-5a15 15 0 01-1.6-2.4 25.9 25.9 0 01-2-4.5" stroke="#043862"/><path d="M483.8 289c-2-1.5-4-4-5-5.1a13.7 13.7 0 01-1.7-2.4c-1.1-1.8-2-4.5-2-4.5" stroke="#053b67"/><path d="M483.9 289c-2-1.5-4-4-5-5.2a16.7 16.7 0 01-1.7-2.4 41 41 0 01-2.1-4.5" stroke="#053d6a"/><path d="M484 289c-2-1.5-4-4.1-5-5.3a18.6 18.6 0 01-1.7-2.4 50.7 50.7 0 01-2.2-4.4" stroke="#053f6e"/><path d="M484 289c-2-1.6-3.9-4.3-4.9-5.4a16 16 0 01-1.6-2.4l-2.4-4.4" stroke="#064172"/><path d="M475 276.7s3 5.3 4.3 6.8c1 1 2.8 4 4.8 5.5" stroke="#00209f"/><path d="M475.2 290l10.2 6.6 2-3-1-2.7" stroke="#011d33"/><path d="M475.2 289.9l10.2 6.5h.1l1.7-3s0-.3-.3-.7l-.6-1.7" stroke="#011e34"/><path d="M475.2 289.9c2.9 1.9 4.1 2.7 10.2 6.4l.1-.1 1.6-2.9-.2-.7-.6-1.6" stroke="#022037"/><path d="M475.2 289.9a262.6 262.6 0 0010.2 6.3l.1-.1 1.5-2.9-.2-.7-.5-1.6" stroke="#022139"/><path d="M475.2 289.8c2.7 1.8 4.5 2.9 10.2 6.3l.1-.2 1.4-2.8-.1-.7a8.2 8.2 0 01-.5-1.4" stroke="#02223b"/><path d="M475.3 289.8c2.5 1.7 4.6 3 10.1 6.1h.1c0-.3 1.3-2.9 1.3-3l-.1-.5-.4-1.5" stroke="#02233d"/><path d="M475.3 289.8c2.4 1.6 4.7 3 10.2 6v-.1l1.2-2.8v-.6c-.3-.5-.4-1-.4-1.3" stroke="#022540"/><path d="M475.3 289.8c2.3 1.6 5 3 10.2 5.9v-.2l1.1-2.8v-.5a4.8 4.8 0 01-.4-1.3" stroke="#022541"/><path d="M475.3 289.8a110 110 0 0010.2 5.8v-.2l1-2.8v-.5a4.1 4.1 0 01-.3-1.2" stroke="#022743"/><path d="M475.3 289.7a92.5 92.5 0 0010.2 5.8v-.2c0-.3 1-2.8 1-2.8v-.5c-.3-.3-.3-.7-.3-1" stroke="#022847"/><path d="M475.3 289.7a80.7 80.7 0 0010.2 5.6.3.3 0 000-.1c0-.4.8-2.8.8-2.8s.2-.1 0-.4v-1" stroke="#022a49"/><path d="M475.3 289.7a80 80 0 0010.2 5.5v-.2l.7-2.7s.2-.1 0-.4v-1" stroke="#032a4a"/><path d="M475.4 289.7a67.7 67.7 0 0010 5.4l.2-.2.5-2.7s.2-.1.1-.4c-.1-.3 0-.5 0-.8" stroke="#032b4c"/><path d="M475.4 289.7a62.3 62.3 0 0010 5.3l.2-.2.4-2.8s.3 0 .2-.3c-.2-.3 0-.4 0-.7" stroke="#032d4f"/><path d="M475.4 289.7c1.7 1 6 3.6 10.1 5.2v-.2l.4-2.7s.3 0 .2-.3c-.1-.3 0-.3.1-.7" stroke="#032e50"/><path d="M475.4 289.6c1.6 1.1 6.2 3.7 10.1 5.1a.5.5 0 000-.2l.3-2.7.2-.2c-.1-.3 0-.3.2-.6" stroke="#032f53"/><path d="M475.4 289.6c1.5 1 6.3 3.8 10.1 5a.5.5 0 000-.2l.2-2.7s.4 0 .3-.2c-.2-.3 0-.2.1-.6" stroke="#033156"/><path d="M475.4 289.6a45 45 0 0010.1 4.9l.1-.2v-2.7s.4 0 .3-.2c-.1-.2.1-.1.3-.4" stroke="#043258"/><path d="M475.4 289.6c1.3.9 6.7 4 10.1 4.7l.1-.2-.1-2.6s.4 0 .3-.1c0-.3.2-.1.3-.4" stroke="#043359"/><path d="M475.4 289.6c1.2.8 6.8 4 10.1 4.6l.1-.2-.3-2.6.5-.1c-.1-.3.2 0 .3-.4" stroke="#04355c"/><path d="M475.4 289.6c1.1.7 7 4 10.1 4.5l.1-.2c0-.7-.3-2.6-.4-2.6h.5c0-.3.2 0 .4-.3" stroke="#04365e"/><path d="M475.4 289.6c1 .6 7.2 4.1 10.1 4.4l.1-.3c0-.6-.4-2.5-.5-2.6 0 0 .6.2.5 0 0-.1.3.2.5-.1" stroke="#043760"/><path d="M475.4 289.6c1 .5 7.3 4.2 10.1 4.3l.2-.3c0-.7-.6-2.5-.7-2.6 0 0 .6.2.5 0 0-.1.4.3.6 0" stroke="#043862"/><path d="M475.5 289.5c.8.5 7.4 4.3 10 4.2l.2-.2c0-.8-.7-2.6-.8-2.6s.7.2.6 0c0 0 .3.4.6 0" stroke="#053a65"/><path d="M475.5 289.5c.7.5 7.6 4.4 10 4.1l.2-.3a7.8 7.8 0 00-.9-2.5l.6.1c0-.1.5.3.7 0" stroke="#053b67"/><path d="M475.5 289.5c.6.4 7.8 4.4 10 4l.2-.3c0-.8-.9-2.5-1-2.5l.7.1c0-.1.4.5.7.1" stroke="#053c68"/><path d="M475.5 289.5c.5.3 8 4.5 10 3.9a.5.5 0 00.2-.3c0-.8-1-2.5-1.1-2.5l.7.1s.5.6.8.3" stroke="#053e6c"/><path d="M475.5 289.5c.4.2 8 4.6 10 3.8l.2-.4c0-.8-1.1-2.4-1.2-2.5l.7.3s.6.6.9.3" stroke="#053f6e"/><path d="M475.5 289.5c.3.2 8.2 4.6 10 3.6l.2-.3c0-.9-1.2-2.4-1.3-2.5l.7.3s.6.6 1 .4" stroke="#053f6f"/><path d="M475.5 289.4c.2.2 8.4 4.8 10 3.6a.7.7 0 00.2-.3c0-1-1.3-2.4-1.4-2.5l.8.3s.6.7 1 .4" stroke="#064171"/><path d="M475.5 289.4c.1 0 8.6 4.9 10 3.5l.2-.3c0-1-1.4-2.4-1.6-2.5l1 .3s.6.8 1 .6" stroke="#064374"/><path d="M475.6 289.4s9.7 5.5 10.1 3c0-1-1.6-2.4-1.6-2.4l.9.3s.6 1 1 .6" stroke="#00209f"/><path d="M474.4 315.1l-7.5 12.6a5.2 5.2 0 01-1.8-2.2c-.6-1.7-.5-1.7-1-3.6l-.4-3.4c-.3-1.2-1.9-4.8-2-6.2" stroke="#011d33"/><path d="M461.8 312.3c0 1.4 1.6 5 1.9 6 .2 1.2.2 2.4.5 3.5.4 1.9.3 1.8 1 3.6a5.2 5.2 0 001.7 2.2l7.5-12.5" stroke="#011d33"/><path d="M461.8 312.3c0 1.4 1.6 5 1.8 6 .3 1.2.3 2.3.6 3.4.4 1.8.3 1.8 1 3.6.2.8 1.2 1.8 1.7 2.1l7.5-12.3" stroke="#011e34"/><path d="M461.8 312.3c0 1.4 1.6 4.9 1.8 6 .3 1 .3 2.2.6 3.3.4 1.8.3 1.8 1 3.5.2.9 1.2 1.8 1.7 2.2l7.5-12.2" stroke="#011e34"/><path d="M461.8 312.3c0 1.3 1.6 4.8 1.8 5.9.3 1.1.3 2.3.6 3.3.4 1.8.3 1.8 1 3.5a5.5 5.5 0 001.7 2.1l7.5-12" stroke="#011f36"/><path d="M461.8 312.3c0 1.3 1.6 4.8 1.8 5.9.3 1 .3 2.2.6 3.3.4 1.7.3 1.7 1 3.4.2.8 1.2 1.8 1.7 2.1l7.5-11.9" stroke="#011f36"/><path d="M461.8 312.3c0 1.3 1.5 4.7 1.8 5.8.3 1 .3 2.2.6 3.3.4 1.7.3 1.7 1 3.4.2.8 1.2 1.7 1.7 2 .2.1 7.4-11.6 7.5-11.7" stroke="#022037"/><path d="M461.8 312.3c0 1.3 1.5 4.6 1.8 5.7l.6 3.3c.4 1.7.4 1.7 1 3.3.2.8 1.2 1.8 1.7 2.1.2 0 7.3-11.5 7.5-11.6" stroke="#022037"/><path d="M461.8 312.3c0 1.3 1.5 4.6 1.8 5.7.3 1 .3 2.2.6 3.2.4 1.7.4 1.7 1 3.3.3.8 1.2 1.7 1.7 2 .2.1 7.3-11.3 7.5-11.4" stroke="#022139"/><path d="M461.8 312.3c0 1.3 1.5 4.6 1.8 5.6.3 1 .3 2.2.6 3.2.4 1.7.4 1.7 1 3.3.3.8 1.2 1.7 1.7 2 .3 0 7.3-11.2 7.5-11.3" stroke="#022139"/><path d="M461.8 312.3c0 1.3 1.5 4.5 1.8 5.6.3 1 .3 2 .6 3.1.5 1.7.4 1.7 1 3.3.3.8 1.2 1.7 1.7 2 .3 0 7.2-11 7.5-11.2" stroke="#022139"/><path d="M461.8 312.3c0 1.3 1.5 4.4 1.8 5.5.3 1 .3 2.1.6 3 .5 1.8.4 1.8 1 3.3a5 5 0 001.7 2c.3.1 7.2-10.9 7.5-11" stroke="#02223b"/><path d="M461.8 312.3c0 1.2 1.5 4.4 1.8 5.4.3 1 .3 2.2.6 3.1.5 1.7.4 1.7 1 3.2a5 5 0 001.7 2c.3.1 7.2-10.8 7.5-10.9" stroke="#02223b"/><path d="M461.8 312.3c0 1.2 1.5 4.3 1.8 5.4l.6 3c.5 1.7.4 1.7 1 3.2a5 5 0 001.8 2c.3 0 7-10.6 7.4-10.8" stroke="#02233d"/><path d="M461.8 312.3c0 1.2 1.4 4.3 1.8 5.3l.6 3 1 3.2c.3.7 1.3 1.6 1.8 2 .3 0 7-10.6 7.4-10.7" stroke="#02233d"/><path d="M461.8 312.3c0 1.2 1.4 4.3 1.8 5.3l.6 3 1 3c.4.8 1.3 1.7 1.8 2 .3.1 7-10.3 7.4-10.5" stroke="#02233e"/><path d="M461.8 312.3c0 1.1 1.4 4.2 1.8 5.2l.6 3 1 3a5 5 0 001.8 2c.4 0 7-10.3 7.4-10.4" stroke="#02233e"/><path d="M461.8 312.2c0 1.2 1.4 4.2 1.8 5.3l.6 2.9 1 3a5.2 5.2 0 001.8 2c.4 0 7-10.1 7.4-10.3" stroke="#022540"/><path d="M461.8 312.2c0 1.2 1.4 4.2 1.8 5.2l.6 2.9 1 3c.4.7 1.3 1.5 1.8 1.8.4.2 7-9.8 7.4-10" stroke="#022540"/><path d="M461.8 312.2c0 1.2 1.4 4.1 1.8 5.1l.7 2.9c.4 1.5.4 1.6 1 3 .3.7 1.2 1.5 1.7 1.8.4.1 7-9.7 7.4-9.9" stroke="#022540"/><path d="M461.8 312.2c0 1.2 1.4 4 1.8 5l.7 3 1 2.9a5.2 5.2 0 001.7 1.8c.4.1 6.9-9.6 7.4-9.8" stroke="#022541"/><path d="M461.8 312.2c0 1.1 1.4 4 1.8 5l.7 2.8 1 3c.3.6 1.2 1.4 1.7 1.7.5.2 6.9-9.4 7.4-9.6" stroke="#022541"/><path d="M461.8 312.2c0 1.1 1.4 4 1.8 5l.7 2.7c.4 1.5.5 1.5 1 2.9.4.7 1.2 1.5 1.7 1.8.5.1 6.8-9.3 7.4-9.5" stroke="#022743"/><path d="M461.8 312.2c0 1.1 1.4 4 1.8 5l.7 2.6 1 3a5 5 0 001.7 1.6c.5.2 6.8-9 7.4-9.3" stroke="#022743"/><path d="M461.8 312.2c0 1.1 1.4 3.9 1.8 4.8l.7 2.8 1 2.8a5 5 0 001.7 1.7c.6.2 6.8-9 7.4-9.2" stroke="#022845"/><path d="M461.8 312.2c0 1.1 1.4 3.8 1.8 4.8l.7 2.7c.4 1.4.5 1.4 1 2.7a5.3 5.3 0 001.7 1.8c.6.2 6.7-8.9 7.4-9" stroke="#022845"/><path d="M461.8 312.2c0 1 1.3 3.7 1.8 4.7l.7 2.7 1 2.7a4.8 4.8 0 001.7 1.7c.6.2 6.7-8.7 7.4-8.9" stroke="#022847"/><path d="M461.8 312.2c0 1 1.3 3.7 1.8 4.6l.7 2.7 1.1 2.7a5 5 0 001.6 1.7c.7.2 6.7-8.6 7.4-8.8" stroke="#022847"/><path d="M461.8 312.2c0 1 1.3 3.6 1.8 4.6l.7 2.6 1.1 2.7a5 5 0 001.6 1.7c.7.1 6.7-8.4 7.4-8.7" stroke="#022847"/><path d="M461.8 312.2c0 1 1.3 3.6 1.8 4.6l.7 2.5 1.1 2.7c.4.6 1.1 1.3 1.7 1.6.6.2 6.6-8.2 7.3-8.5" stroke="#022a49"/><path d="M461.8 312.2c0 1 1.3 3.5 1.8 4.5l.7 2.5 1.1 2.6c.4.6 1.1 1.4 1.7 1.6.7.3 6.5-8 7.3-8.3" stroke="#022a49"/><path d="M461.8 312.2c0 1 1.3 3.5 1.8 4.4l.7 2.5c.5 1.3.5 1.4 1.2 2.6.3.6 1 1.4 1.6 1.6.7.2 6.5-8 7.3-8.2" stroke="#032a4a"/><path d="M461.8 312.2c0 1 1.3 3.4 1.7 4.4l.8 2.4 1.2 2.6a5 5 0 001.6 1.6c.7.2 6.5-7.8 7.3-8.1" stroke="#032a4a"/><path d="M461.8 312.2c0 1 1.2 3.4 1.7 4.3.4.8.5 1.6.8 2.4l1.1 2.6a5 5 0 001.7 1.5c.7.3 6.4-7.6 7.3-8" stroke="#032b4c"/><path d="M461.8 312.2c0 1 1.2 3.3 1.7 4.3.4.7.5 1.6.8 2.3l1.2 2.6c.3.5 1 1.2 1.6 1.5.8.2 6.4-7.5 7.3-7.8" stroke="#032b4c"/><path d="M461.8 312.2c0 1 1.2 3.3 1.7 4.2.4.8.5 1.6.8 2.4l1.2 2.4c.3.6 1 1.3 1.6 1.6.8.2 6.4-7.4 7.3-7.7" stroke="#032c4d"/><path d="M461.8 312.2c0 .9 1.2 3.2 1.7 4.1l.9 2.4c.4 1.2.5 1.3 1.1 2.4a5.2 5.2 0 001.6 1.5c.8.3 6.3-7.2 7.3-7.5" stroke="#032c4d"/><path d="M461.8 312.2a13 13 0 001.7 4l.9 2.4c.4 1.2.5 1.2 1.1 2.4a4.7 4.7 0 001.6 1.4c.9.4 6.3-7 7.3-7.3" stroke="#032c4d"/><path d="M461.8 312.2c0 .9 1.2 3.1 1.7 4 .4.8.5 1.6.9 2.3.4 1.2.5 1.3 1.1 2.3.3.6 1 1.3 1.6 1.5.9.3 6.3-6.8 7.3-7.2" stroke="#032d4f"/><path d="M461.8 312.2c0 .8 1.2 3 1.7 4 .4.7.5 1.5.9 2.2.4 1.2.6 1.2 1.1 2.4a4.9 4.9 0 001.6 1.4c1 .3 6.3-6.7 7.3-7.1" stroke="#032d4f"/><path d="M461.8 312.2c0 .8 1.2 3 1.7 4 .4.6.5 1.4.9 2.1.4 1.2.6 1.2 1.1 2.3a5.4 5.4 0 001.6 1.5c1 .2 6.3-6.6 7.3-7" stroke="#032e50"/><path d="M461.8 312.2c0 .8 1.1 3 1.7 3.8.4.8.5 1.5.9 2.2.4 1.2.6 1.3 1.1 2.3a4.7 4.7 0 001.6 1.4c1 .3 6.2-6.4 7.3-6.8" stroke="#032e50"/><path d="M461.8 312.2c0 .8 1.1 3 1.7 3.8.4.7.5 1.5.9 2.1.4 1.1.6 1.2 1.2 2.3a5 5 0 001.5 1.4c1 .3 6.2-6.3 7.3-6.7" stroke="#032f53"/><path d="M461.8 312.2c0 .7 1.1 2.9 1.7 3.7.4.7.5 1.5.9 2.2l1.2 2.1a5 5 0 001.5 1.4c1 .3 6.2-6 7.3-6.5" stroke="#032f53"/><path d="M461.8 312.2c0 .7 1.1 2.8 1.7 3.6.4.7.5 1.5.9 2.2l1.2 2.1a5.1 5.1 0 001.5 1.4c1 .3 6.1-6 7.3-6.4" stroke="#033054"/><path d="M461.8 312.2c0 .7 1 2.7 1.7 3.6.4.7.5 1.4 1 2l1 2.2a4.5 4.5 0 001.7 1.3c1 .4 6-5.8 7.2-6.2" stroke="#033054"/><path d="M461.8 312.2c0 .7 1 2.7 1.7 3.6l1 2c.4 1 .6 1.1 1.1 2a5.4 5.4 0 001.6 1.4c1 .3 6-5.7 7.2-6.1" stroke="#033054"/><path d="M461.8 312.2c0 .7 1 2.7 1.7 3.5l1 2c.3 1 .6 1.1 1.1 2a5.4 5.4 0 001.5 1.4c1.1.3 6-5.6 7.3-6" stroke="#033156"/><path d="M461.8 312.2c0 .7 1 2.6 1.7 3.4l1 2c.3 1 .6 1.1 1.1 2a5.4 5.4 0 001.5 1.3c1.2.3 6-5.3 7.3-5.8" stroke="#033156"/><path d="M461.8 312.2c0 .7 1 2.6 1.7 3.4l1 1.9c.3 1 .6 1 1.2 2 .3.5 1 1 1.4 1.3 1.2.3 6-5.2 7.3-5.7" stroke="#043258"/><path d="M461.8 312.2c0 .7 1 2.5 1.7 3.3l1 2c.3.9.6 1 1.2 2 .3.4 1 1 1.4 1.1 1.2.4 6-5 7.3-5.5" stroke="#043258"/><path d="M461.8 312.2c0 .6 1 2.4 1.7 3.3l1 1.8c.4 1 .6 1.1 1.2 2 .3.5 1 1 1.4 1.2 1.3.3 6-5 7.3-5.4" stroke="#043359"/><path d="M461.8 312.2c0 .6 1 2.4 1.7 3.2l1 1.9c.4.8.6 1 1.2 1.8.4.5 1 1 1.5 1.2 1.2.4 5.8-4.8 7.2-5.2" stroke="#043359"/><path d="M461.8 312.2c0 .6 1 2.4 1.7 3.1l1 1.9c.4.9.7 1 1.2 1.8.4.5 1 1 1.5 1.2 1.2.4 5.8-4.6 7.2-5.1" stroke="#04345b"/><path d="M461.8 312.2c0 .6 1 2.3 1.7 3l1 1.9c.4.8.7 1 1.2 1.8.4.5 1 1 1.5 1.2 1.3.4 5.8-4.5 7.2-5" stroke="#04345b"/><path d="M461.8 312.2c0 .6 1 2.2 1.7 3l1 1.8c.4.9.7 1 1.2 1.8.4.4 1 1 1.5 1.1 1.3.4 5.8-4.3 7.2-4.8" stroke="#04345b"/><path d="M461.8 312.2c0 .5 1 2.2 1.7 3l1 1.7c.4.8.7 1 1.2 1.8.4.4 1 .9 1.5 1 1.3.5 5.7-4.1 7.2-4.6" stroke="#04355c"/><path d="M461.8 312.2c0 .5 1 2.1 1.7 3l1 1.6c.4.8.7 1 1.3 1.7.3.5 1 1 1.4 1.1 1.3.5 5.7-4 7.2-4.5" stroke="#04355c"/><path d="M461.8 312.2c0 .5 1 2.1 1.7 2.9l1 1.6c.4.9.7 1 1.3 1.7.3.5 1 .9 1.4 1.1 1.4.4 5.7-3.9 7.2-4.4" stroke="#04365e"/><path d="M461.8 312.2c0 .5 1 2 1.7 2.8l1 1.6c.4.8.7 1 1.3 1.7.3.4 1 .9 1.4 1 1.4.5 5.6-3.7 7.2-4.2" stroke="#04365e"/><path d="M461.8 312.2c0 .5 1 2 1.7 2.8l1 1.5c.4.8.7 1 1.3 1.7.3.4 1 .8 1.4 1 1.4.4 5.6-3.6 7.2-4.1" stroke="#043760"/><path d="M461.8 312.2c0 .5 1 2 1.7 2.7l1 1.6c.4.7.7.8 1.3 1.6.3.4 1 .8 1.4 1 1.5.4 5.6-3.5 7.2-4" stroke="#043760"/><path d="M461.8 312.2c0 .5 1 1.9 1.7 2.6l1 1.6c.4.7.7.9 1.3 1.5.3.4 1 .8 1.4 1 1.5.5 5.5-3.3 7.2-3.9" stroke="#043862"/><path d="M461.8 312.2c0 .4 1 1.8 1.7 2.6l1 1.5c.4.7.7.9 1.3 1.5l1.4 1c1.5.4 5.5-3.2 7.2-3.8" stroke="#043862"/><path d="M461.8 312.2c0 .4.9 1.8 1.7 2.5l1 1.5c.4.7.8.8 1.4 1.5.3.4.9.8 1.3 1 1.6.4 5.5-3 7.2-3.7" stroke="#043862"/><path d="M461.8 312.2c0 .4.9 1.7 1.7 2.4l1 1.5c.4.7.8.8 1.4 1.5l1.3.9c1.6.5 5.5-2.8 7.2-3.5" stroke="#043963"/><path d="M461.8 312.2c0 .4.9 1.7 1.7 2.4l1 1.4c.4.7.8.8 1.4 1.5l1.3.9c1.6.5 5.5-2.7 7.2-3.4" stroke="#043963"/><path d="M461.8 312.2c0 .4.9 1.6 1.7 2.3l1 1.4 1.4 1.4c.3.4.9.7 1.3 1 1.6.4 5.4-2.6 7.2-3.3" stroke="#053a65"/><path d="M461.8 312.2c0 .3.8 1.6 1.7 2.3l1 1.3c.5.7.8.8 1.4 1.4.3.4.9.7 1.4.9 1.6.5 5.3-2.4 7.1-3" stroke="#053a65"/><path d="M461.8 312.2c0 .3.8 1.5 1.7 2.2l1 1.3 1.4 1.4c.4.3.9.7 1.4.8 1.6.5 5.3-2.2 7.1-2.9" stroke="#053b67"/><path d="M461.8 312.2c0 .3.8 1.5 1.7 2.1.3.5.6 1 1 1.3.5.7.8.8 1.4 1.4l1.4.8c1.6.5 5.2-2 7.1-2.8" stroke="#053b67"/><path d="M461.8 312.2c0 .3.8 1.4 1.7 2.1l1 1.3 1.4 1.3c.4.3.9.6 1.4.7 1.7.6 5.2-1.9 7.1-2.6" stroke="#053c68"/><path d="M461.8 312.2c0 .3.8 1.4 1.7 2l1 1.3 1.4 1.2 1.4.8c1.7.5 5.2-1.8 7.1-2.5" stroke="#053c68"/><path d="M461.8 312.2c0 .2.8 1.3 1.7 2l1 1.2 1.4 1.2 1.4.8c1.7.5 5.1-1.7 7.1-2.4" stroke="#053c68"/><path d="M461.8 312.2c0 .2.8 1.2 1.7 2l1 1 1.4 1.3 1.4.8c1.8.5 5.1-1.5 7.1-2.3" stroke="#053d6a"/><path d="M461.8 312.2c0 .2.8 1.2 1.7 1.9l1 1.1 1.4 1.1 1.4.8c1.8.5 5.1-1.3 7.1-2" stroke="#053d6a"/><path d="M461.8 312.2c0 .2.7 1.1 1.7 1.8l1 1.1c.5.5 1 .7 1.5 1.1l1.3.8c1.8.5 5.1-1.2 7.1-2" stroke="#053e6c"/><path d="M461.8 312.2c0 .2.7 1.1 1.6 1.8l1.1 1c.5.5 1 .7 1.5 1.1l1.3.7c1.8.6 5-1 7.1-1.8" stroke="#053e6c"/><path d="M461.8 312.2c0 .1.7 1 1.6 1.7l1.1 1c.5.5 1 .7 1.5 1 .4.4.8.6 1.3.8 1.8.6 5-1 7.1-1.7" stroke="#053f6e"/><path d="M461.8 312.2c0 .1.7 1 1.6 1.6l1.2 1c.4.5.9.7 1.4 1 .4.3.9.6 1.3.7 1.9.6 5-.7 7.1-1.5" stroke="#053f6e"/><path d="M461.8 312.2c0 .1.7 1 1.6 1.6l1.2 1 1.4 1 1.3.6c2 .5 5-.6 7.1-1.4" stroke="#053f6f"/><path d="M461.8 312.2c0 .1.7.9 1.6 1.5l1.2 1 1.4 1 1.3.6c2 .5 5-.5 7.1-1.3" stroke="#053f6f"/><path d="M461.8 312.2c0 .1.7.8 1.6 1.5l1.2.9 1.4 1 1.3.5c2 .6 5-.3 7.1-1" stroke="#053f6f"/><path d="M461.8 312.2s.7.8 1.6 1.4l1.2.9 1.5.9 1.2.6c2 .6 4.9-.2 7.1-1" stroke="#064171"/><path d="M461.8 312.2l1.6 1.4 1.2.8 1.5.9 1.3.5c2 .6 4.8 0 7-.8" stroke="#064171"/><path d="M461.8 312.2s.7.7 1.6 1.3l1.2.8 1.5.8 1.3.6c2 .6 4.7.2 7-.7" stroke="#064172"/><path d="M461.8 312.1c0 .1.7.7 1.6 1.3l1.2.8 1.5.8 1.3.6c2 .6 4.7.3 7-.6" stroke="#064172"/><path d="M461.8 312.1c0 .1.6.7 1.6 1.3l1.2.7a12 12 0 002.8 1.3c2 .6 4.7.5 7-.4" stroke="#064374"/><path d="M461.8 312.1s.6.6 1.6 1.2l1.2.7a14.5 14.5 0 002.8 1.3c2 .6 4.7.6 7-.3" stroke="#064374"/><path d="M461.8 312.1l1.6 1.2a23.3 23.3 0 002.7 1.3l1.3.5c2 .6 4.6.8 7 0m-12.6-3s6.5 5.1 12.6 3" stroke="#00209f"/><path d="M461.6 292.2s1.2 8 1.7 9.3c.4 1 3 5.6 6.9 6.7" stroke="#022743"/><path d="M461.6 292.2s1.3 8 1.8 9.2c.5 1 2.8 5.4 6.8 6.8" stroke="#022a49"/><path d="M461.6 292.1s1.4 8 1.9 9.2a14 14 0 006.7 6.9" stroke="#032b4c"/><path d="M461.6 292.1s1.5 8 2 9.1c.5 1 2.5 5 6.6 7" stroke="#032e50"/><path d="M461.6 292.1s1.6 7.9 2 9a15.2 15.2 0 006.7 7" stroke="#033054"/><path d="M461.6 292.1s1.6 7.8 2.2 9a15.8 15.8 0 006.5 7" stroke="#043359"/><path d="M461.6 292s1.7 7.8 2.3 9c.5 1.1 2 4.3 6.4 7" stroke="#04355c"/><path d="M461.7 292s1.7 7.8 2.3 9c.5 1 1.9 4 6.3 7" stroke="#043760"/><path d="M461.7 292s1.8 7.7 2.4 8.9c.5 1 1.7 3.8 6.2 7.1" stroke="#053a65"/><path d="M461.7 292s1.9 7.7 2.5 8.8c.6 1.1 1.6 3.5 6.1 7.2" stroke="#053c68"/><path d="M461.7 292s2 7.6 2.6 8.8c.5 1 1.4 3.2 6 7.2" stroke="#053f6e"/><path d="M461.8 292s2 7.5 2.6 8.7c.6 1.1 1.3 3 6 7.2" stroke="#064172"/><path d="M461.8 292s2.1 7.5 2.7 8.6c.6 1.1 1.1 2.8 5.9 7.3" stroke="#00209f"/><path d="M462 287.2s1.1 11.4 9.3 14.6" stroke="#022743"/><path d="M462 287.2c.1 0 .5 3.7 2.2 7.2 1.3 2.8 3.5 5.9 7 7.4" stroke="#022a49"/><path d="M462.1 287.2s.5 3.8 2.2 7.2a15 15 0 007 7.4" stroke="#032b4c"/><path d="M462.1 287.2s.7 3.9 2.3 7.1c1.1 2.3 3.3 5.7 6.9 7.4" stroke="#032e50"/><path d="M462.2 287.2s.7 4 2.3 7c1 2.2 3.2 5.7 6.8 7.5" stroke="#033054"/><path d="M462.2 287.2c0 .1.8 4 2.4 7 1 2 3.1 5.6 6.7 7.5" stroke="#043359"/><path d="M462.2 287.2c0 .1 1 4.2 2.5 7 .9 1.7 3 5.4 6.6 7.4" stroke="#04355c"/><path d="M462.2 287.1c0 .3 1 4.4 2.6 7 .8 1.5 3 5.4 6.5 7.5" stroke="#043760"/><path d="M462.2 287.1c0 .3 1.2 4.5 2.6 6.9.8 1.4 3 5.4 6.5 7.5" stroke="#053a65"/><path d="M462.3 287.1c0 .3 1.2 4.5 2.6 6.8.7 1.3 2.8 5.4 6.4 7.7" stroke="#053c68"/><path d="M462.3 287.1c0 .3 1.4 4.6 2.8 6.8.6 1 2.6 5.2 6.2 7.6" stroke="#053f6e"/><path d="M462.3 287.1a31 31 0 002.9 6.7c.5.8 2.5 5.2 6 7.7" stroke="#064172"/><path d="M462.3 287.1c0 .3 1.6 4.9 3 6.6.4.7 2.4 5.2 6 7.8" stroke="#00209f"/><path d="M462.2 284s2.4 9.2 9 11.5" stroke="#022743"/><path d="M462.2 284s.9 3.3 3 6.4c1.5 2.2 3.6 4.2 6 5" stroke="#022847"/><path d="M462.2 284s1 3.2 3 6.4c1.6 2.1 3.7 4.3 6 5" stroke="#032a4a"/><path d="M462.2 284s1 3.1 3.2 6.3c1.5 2.2 3.7 4.4 5.8 5.1" stroke="#032c4d"/><path d="M462.2 283.9s1 3.1 3.3 6.3c1.6 2.2 3.8 4.6 5.7 5.2" stroke="#032f53"/><path d="M462.2 283.9s1 3 3.3 6.2c1.7 2.3 4 4.7 5.7 5.3" stroke="#033156"/><path d="M462.2 283.8s1 3 3.4 6.2a17 17 0 005.6 5.4" stroke="#043359"/><path d="M462.2 283.8s1.1 3 3.5 6.2c1.8 2.3 4.2 4.9 5.5 5.4" stroke="#04355c"/><path d="M462.3 283.8s1 2.9 3.5 6.1a21 21 0 005.4 5.4" stroke="#043760"/><path d="M462.3 283.8s1 2.8 3.5 6c2 2.4 4.5 5.2 5.4 5.5" stroke="#043963"/><path d="M462.3 283.7s1.1 2.8 3.6 6a28 28 0 005.3 5.6" stroke="#053b67"/><path d="M462.3 283.7s1.2 2.7 3.7 6c2 2.5 4.7 5.4 5.2 5.6" stroke="#053e6c"/><path d="M462.3 283.7s1.2 2.7 3.8 5.9a44 44 0 005.1 5.7" stroke="#053f6f"/><path d="M462.3 283.6s1.3 2.7 3.9 6a58 58 0 005 5.7" stroke="#064172"/><path d="M462.3 283.6s1.3 2.6 3.9 5.8c2.1 2.7 5 5.9 5 5.9m8.7 1.3l4.6.8m-4.1 2.6l4-1.7" stroke="#00209f"/><path d="M479.9 296.7l4.5.7" stroke="#064171"/><path d="M479.9 296.9l4.6.5" stroke="#053e6c"/><path d="M479.9 297l4.6.4" stroke="#053b67"/><path d="M479.9 297.2l4.7.3" stroke="#043862"/><path d="M479.9 297.4h4.7" stroke="#04355c"/><path d="M480 297.6h4.6" stroke="#043258"/><path d="M480 297.7l4.7-.2" stroke="#032f53"/><path d="M480 297.9l4.7-.3" stroke="#032c4d"/><path d="M480 298l4.8-.5" stroke="#022a49"/><path d="M480.3 299.8l4.2-1.6" stroke="#064171"/><path d="M480.3 299.6l4.3-1.5" stroke="#053e6c"/><path d="M480.3 299.5l4.3-1.4" stroke="#053b67"/><path d="M480.3 299.3l4.3-1.3" stroke="#043862"/><path d="M480.2 299.1l4.5-1.2" stroke="#04355c"/><path d="M480.2 299l4.5-1.2" stroke="#043258"/><path d="M480.2 298.7l4.6-.9" stroke="#032f53"/><path d="M480.1 298.6l4.7-.9" stroke="#032c4d"/><path d="M480.1 298.4l4.7-.7" stroke="#022a49"/><path d="M480 298.2l4.9-.6" stroke="#022743"/><path d="M484.2 331.6l-2.6.2-9.9-.2" stroke="#032b4c"/><path d="M484.3 331.6l-2.7.3-9.8-.2" stroke="#032e50"/><path d="M484.3 331.6l-2.8.4c-.5.1-9.6-.3-9.6-.3" stroke="#033054"/><path d="M484.3 331.7l-2.8.5c-.7.1-9.6-.5-9.6-.5" stroke="#043359"/><path d="M484.3 331.7l-3 .6c-.7.2-9.3-.5-9.3-.5" stroke="#04355c"/><path d="M484.3 331.7l-3 .7c-.8.3-9.2-.6-9.2-.6" stroke="#043760"/><path d="M484.4 331.8l-3.1.8c-1 .2-9.1-.7-9.1-.7" stroke="#053a65"/><path d="M484.4 331.8s-2 .7-3.1 1c-1.2.2-9-.8-9-.8" stroke="#053c68"/><path d="M484.4 331.9s-2 .7-3.2 1-8.9-.9-8.9-.9" stroke="#053f6e"/><path d="M484.4 332s-1.8.7-3.2 1c-1.4.3-8.8-1-8.8-1" stroke="#064172"/><path d="M472.5 332s7.1 1.4 8.6 1.1c1.5-.3 3.3-1.1 3.3-1.1" stroke="#00209f"/><path d="M486 337l4.8.7 2.7-.2 2.2-.5" stroke="#022a49"/><path d="M485.8 337s4.7.7 5 .6l2.7-.1 2-.5" stroke="#032d4f"/><path d="M485.5 336.9s4.9.8 5.3.7l2.6-.2 2-.4" stroke="#033054"/><path d="M485.3 336.7s4.9.9 5.6.8a56.9 56.9 0 012.5-.2l1.7-.3" stroke="#043359"/><path d="M485 336.6s5 1 5.9.8l2.5-.2 1.5-.3" stroke="#043760"/><path d="M484.8 336.5s5.1 1 6.1.8l2.4-.2 1.4-.2" stroke="#053a65"/><path d="M484.5 336.4s5.3 1 6.4.9c.7-.2 2-.3 2.4-.3l1.2-.2" stroke="#053d6a"/><path d="M484.2 336.3s5.4 1.1 6.8.9c.7-.2 1.7-.3 2.2-.3h1.1" stroke="#064171"/><path stroke="#022743" d="M486.3 337.2l4.4.6 2.9-.1 2.4-.6"/><path d="M484 336.2s5.5 1.2 7 .9c1.5-.3 3-.3 3-.3M505.8 336.8l4.3-1.6c2.6-1 3-3.6 3-3.6" stroke="#00209f"/><path d="M505.5 336l3.1-1.3c3.8-1.4 3.4-3.2 3.4-3.2" stroke="#00209f"/><path d="M505.2 336.1l3.4-1.3 1.8-.8a4.7 4.7 0 001.3-1.2c.4-.5.4-1.3.4-1.3" stroke="#053e6c"/><path d="M505 336.3l3.6-1.4 1.8-.7 1.4-1.2a5.7 5.7 0 00.4-1.5" stroke="#043862"/><path d="M504.7 336.5l4-1.5 1.6-.7a16.7 16.7 0 001.5-1.2c.2-.3.5-1.6.5-1.6" stroke="#043258"/><path d="M504.4 336.7l4.2-1.5 1.7-.7a15.2 15.2 0 001.6-1.3l.6-1.6" stroke="#032c4d"/><path d="M505.5 336.9l4.6-1.8c.8-.3 1.7-1 2-1.5.6-.9.9-2 .9-2" stroke="#053e6c"/><path d="M505.1 336.9l5-2c.6-.1 1.7-1 2-1.4.4-.6.7-2 .7-2" stroke="#043862"/><path d="M504.8 336.9l5.4-2a8.2 8.2 0 001.9-1.4c.3-.5.6-2 .6-2" stroke="#043258"/><path d="M504.5 336.9l5.7-2.1 1.8-1.4.7-1.8" stroke="#032c4d"/><path stroke="#022743" d="M504.2 336.9l6-2.3 1.7-1.2.6-1.8"/><g><path d="M511.3 331.6l-2.8.2-10.3-.2" stroke="#032b4c"/><path d="M511.3 331.6l-2.8.3-10.2-.2" stroke="#032e50"/><path d="M511.3 331.6l-2.9.4c-.5.1-10-.3-10-.3" stroke="#033054"/><path d="M511.3 331.7l-3 .5c-.6.1-9.8-.5-9.8-.5" stroke="#043359"/><path d="M511.4 331.7l-3 .6c-.9.2-9.8-.5-9.8-.5" stroke="#04355c"/><path d="M511.4 331.7l-3.1.7c-1 .3-9.7-.6-9.7-.6" stroke="#043760"/><path d="M511.4 331.8l-3.2.8c-1 .2-9.5-.7-9.5-.7" stroke="#053a65"/><path d="M511.4 331.8s-2 .7-3.3 1c-1.1.2-9.3-.8-9.3-.8" stroke="#053c68"/><path d="M511.4 331.9s-2 .7-3.3 1c-1.3.2-9.2-.9-9.2-.9" stroke="#053f6e"/><path d="M511.4 332s-1.9.7-3.3 1c-1.5.3-9.2-1-9.2-1" stroke="#064172"/><path d="M499 332s7.5 1.4 9 1.1c1.6-.3 3.5-1.1 3.5-1.1" stroke="#00209f"/></g></g><path d="M475 290a34 34 0 01-.2-3.3c0-5.2-.7-9-.1-14.5.4-4.2 1.5-9.8 1.3-14.4-.1-1.3.1-2.6.2-3.9l21 23.5M467 327.7a5.2 5.2 0 01-1.8-2.2c-.7-1.7-.5-1.7-1-3.6-.2-1.1-.2-2.3-.5-3.4-.2-1.2-1.8-4.8-1.8-6.2-.2-4.8-1.8-8-1.4-13.1.3-4 1.2-9.5.7-13.6l.1-3.6 23.6 15.6m28.5 33.9c.2.5-.3 1.5-.5 1.9l-.5.6c-.2.6-.2.4-.7.9l-.8.6c-.4.3-.7.6-1.1.7-1.8.3-2.5.7-4.2 1.1-1.6.5-.7.4-2 .7l-2.4.7-2.4.6c-2.9.7-5.7.5-8.6.3-1.1 0-4-.7-5-1.4-1.8-1.2-5.7-1.7-7.4-2.9-.3-.2-1.4-.7-1.6-1-1.7-1.3-3-1.7-4.8-2.8" stroke="#000" stroke-width=".2" stroke-miterlimit="2.6" fill="none"/><g stroke="#000" stroke-miterlimit="2.6" stroke-width=".1"><path fill-rule="evenodd" fill="#FC0" d="M485.5 296.8l-24-15.7-.4.7 23.8 15.8z"/><path d="M461.2 280.9c-.2-1 0-2.1.7-2.3 0 0 .5-.1.8 0 .4 0 .5 0 .7.4.3.8-.7 1.3-1.4 1.6-.1 0-.6.1-.7.3l-.1.4.3-.3 1.7-.7c.6-.3.7-1.4.3-1.7-.4-.4-1.8-.3-2 0-.7.7-.8 1.7-.6 2.7 0-.2.3-.1.3-.4z" fill-rule="evenodd" fill="#FC0"/><path d="M460.8 281.3c-1 0-2.1.4-2.2 1v.9c0 .4.2.5.6.6.8.2 1.2-.8 1.4-1.6 0-.1 0-.6.2-.7l.4-.2-.3.3-.5 1.9c-.2.6-1.3.8-1.6.4-.5-.3-.6-1.7-.3-2 .7-.7 1.7-1 2.7-1-.2.1-.2.5-.4.4z" fill-rule="evenodd" fill="#FC0"/><path d="M460.6 281c-.3 0-.3.4-.1.6 0 .2.5.3.6.2.4-.2.6-.6.4-1-.2-.3-.6 0-.9.1z" fill-rule="evenodd" fill="#FC0"/><path d="M455.6 277.8s2.5 1 4.5 1c0 0 .1 1.8.5 2.3 0 0-1.8-.3-2.6 0 0 0-1-2.4-2.4-3.3z" fill-rule="evenodd" fill="#fc0"/><path d="M457.6 279s1 .4 1.8.4c0 0 0 .8.2 1 0 0-.7-.2-1 0 0 0-.4-1-1-1.4z" fill="none"/><path d="M460.8 282.9l.6-1.1c0-.2 0 1 .4 1 .5.8.7 2.3.7 2.7-.7.2-1.3.6-2.3.2-.3-.3 0-1 0-1.4.2-.3.3-1 .6-1.4z" fill-rule="evenodd" fill="#FC0"/><path d="M461.3 282.2v.6c0-.2.3.2.3.3.3.7.5 1.1.6 2.4m-.7-2.2c.2 1 .4 1 .4 2.4v-.1m-.5-1.4l.2 1.4-.3.2" fill="none"/><path fill-rule="evenodd" fill="#fc0" d="M497.8 276.8l-21.4-23.7-.4.5 21.1 23.8z"/><path d="M476.6 253c0-.9.6-2 1.2-2l.8.1c.4.1.5.3.6.6.1.9-1 1.2-1.7 1.3l-.8.1c-.2.3 0 .2-.2.3l.3-.1c.6-.2 1.2-.2 2-.3.5-.1.9-1.3.6-1.6-.3-.5-1.6-.8-2-.5-.8.5-1 1.5-1.2 2.5 0-.2.4-.1.4-.3z" fill-rule="evenodd" fill="#fc0"/><path d="M476.1 253.4c-.9-.3-2.1-.2-2.3.5l-.2.8c0 .4 0 .5.4.7.7.4 1.4-.5 1.7-1.2 0-.2.2-.6.4-.7h.4l-.3.2-1 1.7c-.2.5-1.4.5-1.7 0-.3-.4 0-1.7.3-2 .8-.6 1.8-.5 2.8-.2-.2 0-.3.3-.5.2z" fill-rule="evenodd" fill="#fc0"/><path d="M476 253c-.3 0-.3.4-.3.6 0 .2.4.4.6.3.4-.1.7-.4.6-.8-.1-.4-.6-.2-.9-.1z" fill-rule="evenodd" fill="#fc0"/><path d="M472 248.7s2 1.6 4 2c0 0-.3 1.9 0 2.4 0 0-1.7-.7-2.6-.5 0 0-.4-2.6-1.5-4z" fill-rule="evenodd" fill="#fc0"/><path d="M473.6 250.4s.8.6 1.6.9v.9s-.7-.3-1-.2c0 0-.2-1-.6-1.6z" fill="none"/><path d="M475.7 254.9l1-1c0-.1-.4 1 0 1.3.4.8.1 2.3 0 2.7-.7 0-1.3.3-2-.4-.4-.3 0-.9.3-1.3 0-.3.4-1 .7-1.3z" fill-rule="evenodd" fill="#FC0"/><path d="M476.4 254.4v.5l.2.7v2.2m-.3-2.5c.2.9 0 1.6-.1 2.5m0-1c-.2.4-.2.6-.2 1h-.3" fill="none"/></g></g><use xlink:href="#c" transform="matrix(-1 0 0 1 1030 0)"/></g><path d="M531.1 247.3l-50.3 84.2h100.7z" fill="#fc0" stroke="#000" stroke-miterlimit="2.6" stroke-width=".4"/><path d="M531.1 252.8l-45.4 76h90.9z" fill="#fff" stroke="#fff" stroke-miterlimit="2.6" stroke-width=".1"/><path d="M499.2 306.2l-13.4 22.6h90.7l-13.4-22.6z" fill="#007e93" stroke="#007e93" stroke-miterlimit="2.6" stroke-width=".3"/><g stroke-width=".2" stroke-miterlimit="2.6" fill="none"><path d="M523.2 266c2.2-1.8 4.8-2.6 7.8-2.6h.2c3 0 6 .7 7.9 2.7" stroke="#086aad"/><path d="M523.2 266.2c2-2 4.8-2.7 7.8-2.7h.2c3 0 6 .7 8 2.7" stroke="#0863aa"/><path d="M523.1 266.3c2.1-2 4.9-2.8 8-2.8h.2c3 0 6 .8 8 2.9" stroke="#095fa8"/><path d="M523 266.4c2.1-2 5-2.8 8-2.8h.3c3 0 6.1.8 8 3" stroke="#0a58a5"/><path d="M523 266.5c2-2.1 5-2.8 8-2.9h.3c3.2 0 6.2.8 8.1 3" stroke="#0a52a2"/><path d="M523 266.6c2-2.2 5-2.9 8-2.9h.4c3.2 0 6.2.8 8.2 3" stroke="#0b4d9f"/><path d="M522.9 266.7c2-2.2 5-3 8.2-3h.2c3.4 0 6.3 1 8.3 3.2" stroke="#0c479d"/><path d="M522.3 267.6c2.4-2.5 5.4-3.2 8.9-3.2h.2c3.9 0 7.2 1.3 9 4" stroke="#270a7f"/><path d="M522.4 267.5c2.3-2.4 5.3-3.2 8.8-3.2h.2c3.8 0 7 1.3 9 4" stroke="#241183"/><path d="M522.5 267.4c2.3-2.4 5.2-3.2 8.6-3.2h.2c3.8 0 7 1.2 9 3.9" stroke="#221786"/><path d="M522.5 267.3c2.3-2.4 5.2-3.1 8.6-3.2h.2c3.7 0 6.9 1.2 8.9 3.8" stroke="#1f1f8a"/><path d="M522.6 267.2c2.2-2.3 5.1-3.1 8.5-3.1h.2c3.6 0 6.8 1 8.8 3.6" stroke="#1a258d"/><path d="M522.6 267c2.1-2.2 5.1-3 8.4-3h.3c3.5 0 6.7 1 8.7 3.6" stroke="#172d91"/><path d="M522.7 267c2-2.3 5-3 8.3-3h.2c3.5 0 6.7.9 8.7 3.4" stroke="#143393"/><path d="M522.8 266.9c2-2.2 5-3 8.2-3h.2c3.4 0 6.6.8 8.6 3.4" stroke="#113b97"/><path d="M526.1 261.1a8 8 0 015-1.3c1.9 0 3.5.3 5 1.3" stroke="#ff0a00"/><path d="M526.1 261.2c1.5-1 3-1.3 5-1.3 1.9 0 3.6.3 5 1.2" stroke="#F10"/><path d="M526 261.3a8.5 8.5 0 015.1-1.4c1.9 0 3.6.4 5.1 1.3" stroke="#ff1500"/><path d="M526 261.4c1.5-1 3.1-1.4 5.1-1.4 2 0 3.7.4 5.2 1.3" stroke="#ff1a00"/><path d="M526 261.5c1.5-1 3.1-1.4 5.1-1.4 2 0 3.7.4 5.2 1.3" stroke="#ff2000"/><path d="M526 261.6a8.5 8.5 0 015.1-1.5c2 0 3.8.4 5.2 1.4" stroke="#ff2700"/><path d="M525.9 261.7a8.6 8.6 0 015.2-1.5c2 0 3.8.4 5.3 1.4" stroke="#ff2f00"/><path d="M525.8 261.8a8.4 8.4 0 015.3-1.5c2 0 3.8.4 5.4 1.4" stroke="#F30"/><path d="M525.8 261.9a8.6 8.6 0 015.3-1.5 9.8 9.8 0 015.4 1.4" stroke="#ff3c00"/><path d="M525.8 262a8.8 8.8 0 015.3-1.5c2 0 4 .4 5.4 1.4" stroke="#ff4100"/><path d="M525.7 262a8.9 8.9 0 015.4-1.5c2 0 4 .5 5.5 1.5" stroke="#ff4600"/><path d="M524.5 264c1.7-1.3 4.4-2 6.7-2 2.4 0 5 .7 6.7 2" stroke="#fff500"/><path d="M524.6 263.9c1.7-1.3 4.3-2 6.6-2s4.9.7 6.6 2" stroke="#ffeb00"/><path d="M524.7 263.8c1.7-1.3 4.2-2 6.5-2s4.8.7 6.5 2" stroke="#ffe000"/><path d="M524.8 263.7a11 11 0 016.4-2c2.3 0 4.8.7 6.4 2" stroke="#ffd600"/><path d="M524.8 263.6a11 11 0 016.4-1.9c2.2 0 4.7.6 6.4 1.9" stroke="#ffcf00"/><path d="M524.9 263.4c1.6-1.2 4-1.8 6.3-1.8 2.2 0 4.7.6 6.3 1.9" stroke="#ffc400"/><path d="M525 263.4c1.6-1.3 4-1.9 6.2-1.9s4.6.6 6.2 1.9" stroke="#ffba00"/><path d="M525 263.2c1.6-1.2 4-1.7 6.2-1.7s4.5.5 6.2 1.7" stroke="#ffb000"/><path d="M525 263.1c1.7-1.2 4-1.7 6.2-1.7 2.1 0 4.5.5 6 1.7" stroke="#ffa600"/><path d="M525.1 263c1.6-1.2 3.9-1.7 6-1.7 2.2 0 4.5.5 6.1 1.7" stroke="#ff9c00"/><path d="M525.2 263a10 10 0 016-1.8c2.1 0 4.4.5 6 1.7" stroke="#ff9100"/><path d="M525.3 262.8a10 10 0 015.9-1.7c2 0 4.3.5 5.9 1.7" stroke="#ff8700"/><path d="M525.3 262.7a9.6 9.6 0 015.9-1.7c2 0 4.2.5 5.8 1.7" stroke="#ff7d00"/><path d="M525.4 262.6a9.6 9.6 0 015.8-1.7c2 0 4.2.6 5.7 1.6" stroke="#ff7500"/><path d="M525.5 262.5a9.5 9.5 0 015.7-1.7c2 0 4.1.5 5.7 1.6" stroke="#ff6b00"/><path d="M525.5 262.4a9.2 9.2 0 015.7-1.6c2 0 4 .4 5.6 1.5" stroke="#ff6100"/><path d="M525.6 262.3a9.1 9.1 0 015.6-1.6c2 0 4 .4 5.5 1.5" stroke="#ff5700"/><path d="M524.3 264.2c1.8-1.4 4.5-2 6.9-2 2.4 0 5 .7 6.8 2" stroke="#ebf605"/><path d="M524.3 264.4c1.8-1.5 4.5-2.1 6.9-2.1 2.4 0 5.1.7 6.9 2.1" stroke="#d6ec09"/><path d="M524.2 264.5c2-1.6 4.5-2.2 7-2.2s5.2.8 7 2.2" stroke="#c2e30e"/><path d="M524.1 264.6a11 11 0 017-2.2c2.6 0 5.3.7 7 2.2" stroke="#add912"/><path d="M524 264.8a11 11 0 017.1-2.3c2.6 0 5.4.7 7.1 2.2" stroke="#99cf16"/><path d="M524 264.9a10.8 10.8 0 017.1-2.4c2.6 0 5.5.8 7.2 2.3" stroke="#85c61a"/><path d="M524 265c2.2-1.9 4.5-2.4 7.1-2.4 2.6 0 5.5.8 7.3 2.3" stroke="#70bc1f"/><path d="M523.8 265.1a10.6 10.6 0 017.3-2.4c2.7 0 5.5.8 7.3 2.3" stroke="#5cb323"/><path d="M523.8 265.2c2.5-2 4.6-2.4 7.3-2.4s5.6.8 7.4 2.3" stroke="#47a928"/><path d="M523.4 266c2.2-2 4.7-2.7 7.8-2.7 2.8 0 5.8.7 7.7 2.6" stroke="#0d74a4"/><path d="M523.4 265.9a11 11 0 017.8-2.7c2.8 0 5.8.8 7.7 2.6" stroke="#127a97"/><path d="M523.5 265.8c2.3-2 4.7-2.7 7.7-2.7 2.8 0 5.8.8 7.7 2.6" stroke="#17808b"/><path d="M523.5 265.7c2.3-2 4.7-2.6 7.7-2.6 2.7 0 5.7.8 7.6 2.5" stroke="#1a847d"/><path d="M523.5 265.7c2.4-2 4.7-2.7 7.6-2.7 2.8 0 5.8.8 7.6 2.5" stroke="#1e8a6d"/><path d="M523.6 265.6c2.4-2 4.6-2.6 7.5-2.6 2.8 0 5.8.8 7.6 2.5" stroke="#238f5e"/><path d="M523.6 265.5c2.5-2 4.7-2.6 7.5-2.6s5.7.8 7.5 2.5" stroke="#2b944e"/><path d="M523.7 265.4c2.5-2 4.6-2.5 7.4-2.5 2.7 0 5.7.8 7.5 2.4" stroke="#2f9b3e"/><path d="M536 261a8.6 8.6 0 00-4.9-1.3c-2 0-3.4.4-5 1.4" stroke="red"/><path d="M540.6 268.6c-2-2.9-5.4-4.2-9.4-4.2-3.6 0-6.5.8-9 3.3" stroke="#2a007c"/><path d="M539 266c-2-2-5-2.7-7.8-2.7-3.1 0-5.7.7-7.9 2.7" stroke="#0671b0"/><path d="M539.7 267c-2-2.4-5.1-3.2-8.6-3.2-3.2 0-6.3.8-8.3 3" stroke="#0c419a"/><path d="M538 264.2c-1.8-1.4-4.4-2-6.8-2-2.3 0-5.1.6-6.8 1.9" stroke="#FF0"/><path d="M536.6 262c-1.5-1-3.5-1.4-5.5-1.4s-3.9.4-5.4 1.6" stroke="#ff4d00"/><path d="M538.5 265.2a11.8 11.8 0 00-7.4-2.4c-2.8 0-4.8.5-7.4 2.6" stroke="#33a02c"/></g><g stroke-width=".2" stroke-miterlimit="2.6" fill="none"><path d="M522 268.1a20.3 20.3 0 019.1-2.2c3.3 0 6.8 1.2 9.5 2.7l9.6 16c0 10.6-8.6 19.3-19 19.3a19.2 19.2 0 01-19.2-19.1l10-16.7z" stroke="#fef2ec"/><path d="M531.1 266a21 21 0 019.4 2.8l9.5 15.9a19 19 0 01-18.9 19 18.9 18.9 0 01-18.8-19l9.8-16.3a19.8 19.8 0 019-2.3z" stroke="#fef2ea"/><path d="M531 266.6c3.3 0 6.6 1.2 9.2 2.6 0 0 9.2 15.3 9.2 15.5 0 10-8.2 18.5-18.3 18.5a18.4 18.4 0 01-18.3-18.4c0-.2 9.4-16 9.5-16a19.5 19.5 0 018.8-2.2z" stroke="#fef0e6"/><path d="M531 267.1c3.2 0 6.4 1.2 9 2.5.1.1 9 14.9 9 15.1a18 18 0 01-18 18 17.9 17.9 0 01-17.7-18c0-.2 9-15.3 9.2-15.5a18.9 18.9 0 018.6-2z" stroke="#feede3"/><path d="M531 267.9c3 0 6.2 1 8.6 2.4.3.2 8.6 14 8.6 14.4 0 9.4-7.7 17.2-17.1 17.2-9.4 0-17-7.6-17-17.1 0-.4 8.5-14.7 8.8-14.9a18 18 0 018.2-2z" stroke="#fee8dc"/><path d="M531 268.4c3 0 6 1 8.3 2.3.4.2 8.4 13.6 8.4 14 0 9.1-7.5 16.7-16.6 16.7a16.6 16.6 0 01-16.5-16.6c0-.5 8.2-14.2 8.6-14.4a17.5 17.5 0 017.9-2z" stroke="#fee6d5"/><path d="M531 269.1c2.8 0 5.7 1 8 2.3.4.3 7.9 12.7 7.9 13.3a15.9 15.9 0 01-15.8 16 15.8 15.8 0 01-15.8-16c0-.5 7.7-13.4 8.2-13.7a16.7 16.7 0 017.6-1.9z" stroke="#fee3cf"/><path d="M531 269.6c2.8 0 5.5 1 7.7 2.2.5.3 7.7 12.2 7.7 13 0 8.3-6.9 15.3-15.3 15.3a15.3 15.3 0 01-15.3-15.3c0-.7 7.4-13 8-13.3a15.9 15.9 0 017.3-1.9z" stroke="#fee0cc"/><path d="M531 270.2c2.7 0 5.3.9 7.5 2 .5.4 7.4 11.8 7.4 12.6a15 15 0 01-14.8 14.8c-8.1 0-14.7-6.6-14.8-14.8 0-.8 7-12.5 7.7-12.8a15.7 15.7 0 017-1.8z" stroke="#fedec6"/><path d="M531 273.5c2.1 0 4.2.7 5.8 1.6a34 34 0 015.7 9.7 11.5 11.5 0 01-11.4 11.5 11.5 11.5 0 01-11.5-11.5 35 35 0 016-10 12 12 0 015.5-1.3z" stroke="#fdcdaa"/><path d="M531 273.7c2 0 4 .7 5.7 1.6a32 32 0 015.6 9.5c0 6.2-5 11.2-11.2 11.2a11.2 11.2 0 01-11.2-11.2c0-1.3 4.6-9 5.8-9.7a11.4 11.4 0 015.4-1.4z" stroke="#fdcdaa"/><path d="M531 275c1.9 0 3.6.5 5 1.4 1.3.7 5 6.8 5 8.4 0 5.5-4.4 10-10 10s-9.8-4.5-9.8-10c0-1.6 3.8-7.9 5-8.6a10 10 0 014.9-1.3z" stroke="#fdc59e"/><path d="M531 275.2c1.8 0 3.6.6 5 1.4 1.3.8 4.8 6.6 4.8 8.2a9.7 9.7 0 11-19.4 0c0-1.6 3.7-7.6 5-8.4a9.9 9.9 0 014.7-1.2z" stroke="#fdc59e"/><path d="M531.1 266.4c3.2 0 6.6 1.2 9.2 2.6l9.4 15.7c0 10.2-8.4 18.8-18.6 18.8a18.7 18.7 0 01-18.6-18.7l9.7-16.2a19.5 19.5 0 019-2.2z" stroke="#fef0e9"/><path d="M531 266.9c3.2 0 6.5 1.1 9 2.5.2.1 9.2 15.1 9.2 15.3 0 10-8.1 18.2-18.1 18.2-10 0-18-8-18.1-18.1 0-.2 9.3-15.7 9.4-15.8a18.9 18.9 0 018.7-2.1z" stroke="#feede3"/><path d="M531 267.4c3.1 0 6.3 1.1 8.8 2.5.2 0 9 14.5 9 14.8 0 9.7-8 17.7-17.7 17.7a17.7 17.7 0 01-17.6-17.6c0-.3 9-15.2 9.1-15.3a18.6 18.6 0 018.5-2.1z" stroke="#feebdf"/><path d="M531 267.6c3 0 6.3 1.1 8.7 2.5.2.1 8.7 14.3 8.7 14.6 0 9.6-7.8 17.5-17.3 17.5a17.4 17.4 0 01-17.3-17.4c0-.3 8.7-15 9-15.1a18.5 18.5 0 018.3-2z" stroke="#feebdd"/><path d="M531 268.1c3 0 6 1.1 8.5 2.4.3.2 8.4 13.8 8.4 14.2a17 17 0 01-16.8 17 16.8 16.8 0 01-16.8-17c0-.3 8.4-14.3 8.7-14.5a17.5 17.5 0 018-2z" stroke="#fee8d9"/><path d="M531 268.6c3 0 5.9 1 8.2 2.3.4.3 8.2 13.3 8.2 13.8 0 9-7.3 16.4-16.3 16.4a16.4 16.4 0 01-16.3-16.3c0-.5 8-14 8.4-14.2a17.2 17.2 0 017.9-2z" stroke="#fee6d3"/><path d="M531 269c2.9 0 5.8 1 8 2.2.5.2 8.1 13 8.1 13.5 0 8.8-7.2 16.2-16 16.2s-16-7.2-16-16.1c0-.6 7.8-13.7 8.3-14 2.4-1.2 4.9-1.9 7.7-1.9z" stroke="#fee3d2"/><path d="M531 269.4c2.8 0 5.6 1 7.8 2.2.5.3 7.9 12.5 7.9 13.1a15.6 15.6 0 11-31.1 0c0-.6 7.5-13.1 8-13.4a16.1 16.1 0 017.5-2z" stroke="#fee0cc"/><path d="M531 270c2.7 0 5.4.9 7.6 2 .5.4 7.5 12 7.5 12.7 0 8.3-6.7 15.1-15 15.1a15 15 0 01-15-15c0-.7 7.2-12.8 7.7-13a15.8 15.8 0 017.3-1.9z" stroke="#fedec8"/><path d="M531 270.4c2.7 0 5.3 1 7.3 2 .6.5 7.3 11.6 7.3 12.4 0 8-6.5 14.6-14.5 14.6s-14.5-6.5-14.5-14.6c0-.8 6.9-12.2 7.5-12.6a15.1 15.1 0 017-1.8z" stroke="#fddbc5"/><path d="M531 270.6c2.6 0 5.2 1 7.2 2 .7.5 7.2 11.3 7.2 12.1 0 7.9-6.5 14.4-14.3 14.4a14.3 14.3 0 01-14.3-14.3c0-.9 6.7-12 7.4-12.4a15.1 15.1 0 016.9-1.7z" stroke="#fddbc2"/><path d="M531 271c2.6 0 5 .8 7 2 .8.3 7.1 10.9 7.1 11.8 0 7.7-6.3 14-14 14a14 14 0 01-14-14c0-1 6.5-11.8 7.2-12.2 2.1-1 4.3-1.7 6.8-1.7z" stroke="#fdd9bf"/><path d="M531 271.2c2.5 0 5 .8 7 2 .7.4 6.8 10.6 6.8 11.6 0 7.5-6.1 13.8-13.7 13.8a13.8 13.8 0 01-13.8-13.8c0-1 6.4-11.5 7.2-12 2-1 4.2-1.6 6.6-1.6z" stroke="#fdd9bf"/><path d="M531 271.4c2.5 0 4.9.9 6.8 2a65 65 0 016.8 11.4c0 7.4-6 13.5-13.5 13.5a13.6 13.6 0 01-13.5-13.5 64 64 0 017-11.7 13.8 13.8 0 016.5-1.7z" stroke="#fdd6bc"/><path d="M531 271.7c2.4 0 4.8.8 6.7 1.9.8.4 6.6 10.2 6.6 11.1 0 7.3-6 13.4-13.2 13.4-7.3 0-13.2-6-13.2-13.3 0-1 6-11 6.8-11.5 2-1 4-1.6 6.4-1.6z" stroke="#fdd6b9"/><path d="M531 272c2.4 0 4.7.7 6.6 1.8.8.5 6.5 10 6.5 11 0 7.1-5.8 13-13 13a13 13 0 01-13-13c0-1 5.8-10.8 6.7-11.3 2-1 4-1.5 6.3-1.5z" stroke="#fdd4b8"/><path d="M531 272.2c2.3 0 4.6.8 6.5 1.8.8.5 6.3 9.7 6.3 10.8 0 7-5.7 12.8-12.7 12.8a12.7 12.7 0 01-12.7-12.8c0-1.1 5.6-10.6 6.5-11 2-1 4-1.6 6.2-1.6z" stroke="#fdd4b6"/><path d="M531 272.4c2.3 0 4.6.8 6.3 1.8 1 .5 6.3 9.4 6.3 10.5a12.6 12.6 0 01-12.5 12.6c-6.9 0-12.5-5.6-12.5-12.5 0-1.1 5.5-10.3 6.5-10.8a13.4 13.4 0 016-1.6z" stroke="#fdd2b2"/><path d="M531 272.7c2.3 0 4.5.7 6.2 1.7 1 .6 6.1 9.2 6.1 10.4 0 6.7-5.5 12.3-12.2 12.3s-12.2-5.5-12.2-12.3c0-1.2 5.3-10 6.3-10.6a12.3 12.3 0 015.9-1.5z" stroke="#fdd1b0"/><path d="M531 273c2.2 0 4.3.7 6 1.6 1 .6 6 9 6 10.2a12 12 0 01-12 12 12 12 0 01-11.9-12 40 40 0 016.2-10.4 12.2 12.2 0 015.8-1.5z" stroke="#fdd0b0"/><path d="M531 273.2c2.2 0 4.3.7 6 1.7 1 .6 5.8 8.6 5.8 9.9a11.7 11.7 0 01-23.4 0c0-1.3 5-9.6 6-10.2a12 12 0 015.7-1.4z" stroke="#fdd0ad"/><path d="M531 274c2 0 4 .6 5.6 1.5 1 .7 5.4 8 5.4 9.3a11 11 0 11-21.9 0c0-1.4 4.5-8.9 5.7-9.5a11.4 11.4 0 015.3-1.4z" stroke="#fdcaa6"/><path d="M531 274.2c2 0 4 .7 5.5 1.5 1.1.7 5.3 7.7 5.3 9.1 0 5.9-4.8 10.8-10.7 10.8-6 0-10.7-4.8-10.7-10.8 0-1.4 4.3-8.6 5.5-9.3 1.6-.8 3.3-1.3 5.2-1.3z" stroke="#fdcaa4"/><path d="M531 274.5c2 0 3.8.6 5.3 1.5 1.2.6 5.2 7.3 5.2 8.8a10.5 10.5 0 01-10.4 10.5 10.5 10.5 0 01-10.5-10.5c0-1.5 4.2-8.3 5.4-9 1.6-.8 3.2-1.3 5-1.3z" stroke="#fdc8a4"/><path d="M531 274.7c2 0 3.7.6 5.2 1.5 1.2.7 5 7 5 8.6 0 5.6-4.5 10.2-10.1 10.2s-10.2-4.5-10.2-10.2c0-1.5 4-8.1 5.2-8.8a10.6 10.6 0 015-1.3z" stroke="#fdc8a1"/><path d="M531 275.5c1.8 0 3.5.5 4.8 1.3 1.4.8 4.7 6.3 4.7 8a9.4 9.4 0 11-18.8 0c0-1.7 3.4-7.4 4.8-8.2a9.6 9.6 0 014.6-1.1z" stroke="#fdc39b"/><path d="M531 275.7c1.7 0 3.4.5 4.7 1.3 1.4.9 4.5 6.1 4.5 7.8 0 5-4 9.2-9.1 9.2a9.2 9.2 0 01-9.2-9.2c0-1.7 3.3-7.1 4.7-8a9.6 9.6 0 014.5-1z" stroke="#fdc398"/><path d="M531 276c1.7 0 3.3.5 4.6 1.2 1.4.9 4.4 5.9 4.4 7.6 0 5-4 9-9 9s-8.8-4-8.8-9c0-1.8 3-7 4.6-7.7a9 9 0 014.3-1.1z" stroke="#fdc097"/><path d="M531 276.3a9 9 0 014.5 1.2c1.4.8 4.2 5.6 4.2 7.3a8.7 8.7 0 01-8.6 8.7 8.7 8.7 0 01-8.7-8.7c0-1.8 3-6.6 4.5-7.5a8.6 8.6 0 014.2-1z" stroke="#fdc095"/><path d="M531 276.5a9 9 0 014.3 1.2c1.5.8 4.2 5.3 4.2 7.1a8.4 8.4 0 11-16.8 0c0-1.8 2.8-6.4 4.3-7.3a8.8 8.8 0 014-1z" stroke="#fdbe92"/><path d="M531 276.7c1.6 0 3 .5 4.2 1.2 1.5.9 4 5 4 7a8.2 8.2 0 01-8.1 8 8.2 8.2 0 01-8.2-8c0-2 2.6-6.3 4.2-7.1a8.3 8.3 0 014-1z" stroke="#fdbe90"/><path d="M531 277a7.9 7.9 0 014 1.1c1.6 1 4 4.8 4 6.7a7.9 7.9 0 11-15.8 0c0-2 2.4-6 4-6.8 1.2-.6 2.5-1 3.9-1z" stroke="#fdbb8f"/><path d="M531 277.2c1.5 0 2.8.5 4 1.1 1.5 1 3.7 4.6 3.7 6.5a7.7 7.7 0 01-15.3 0c0-2 2.3-5.7 4-6.6a7.6 7.6 0 013.7-1z" stroke="#fdbb8d"/><path d="M531 277.5a7.3 7.3 0 013.8 1c1.6 1 3.7 4.3 3.7 6.3 0 4.1-3.3 7.5-7.4 7.5s-7.4-3.4-7.4-7.5c0-2 2-5.4 3.8-6.4a7.5 7.5 0 013.6-.9z" stroke="#fdb98a"/><path d="M531 277.8c1.4 0 2.7.3 3.7 1 1.6 1 3.5 4 3.5 6a7.2 7.2 0 01-7.1 7.2 7.1 7.1 0 01-7.1-7.2c0-2 1.9-5.2 3.6-6.1a6.8 6.8 0 013.5-1z" stroke="#fdb98a"/><path d="M531 278a7 7 0 013.6 1 8 8 0 013.3 5.8 6.9 6.9 0 11-13.7 0 8 8 0 013.5-6 6.8 6.8 0 013.4-.8z" stroke="#fcb687"/><path d="M531 278.2c1.3 0 2.5.4 3.5 1a7.4 7.4 0 013.2 5.6c0 3.7-3 6.7-6.6 6.7s-6.6-3-6.6-6.7c0-2.1 1.6-4.7 3.3-5.7a6.3 6.3 0 013.3-.9z" stroke="#fcb685"/><path d="M531 278.5c1.3 0 2.4.3 3.3 1a6.7 6.7 0 013.1 5.3 6.3 6.3 0 11-12.7 0 6.7 6.7 0 013.3-5.5 6.2 6.2 0 013-.8z" stroke="#fcb485"/><path d="M531 291a6.1 6.1 0 100-12.2 6.1 6.1 0 000 12.1z" stroke="#fcb482"/></g><path d="M531.1 291a6.1 6.1 0 100-12.2 6.1 6.1 0 000 12.2z" fill-rule="evenodd" stroke="#fff" stroke-miterlimit="2.6" stroke-width=".1" fill="#fff"/><g stroke="#000" stroke-width=".1"><path d="M532.4 278.9l.7-3.3m-1.3 3.2l.3-3.3m-1 3.3v-3.3m-.6 3.3l-.3-3.3m-.3 3.4l-.7-3.3m0 3.5l-1-3.2m.5 3.4l-1.4-3m.8 3.2l-1.7-2.8m1.1 3.2l-2-2.7m1.6 3.1l-2.3-2.5m1.8 3l-2.5-2.3m2 2.8l-2.6-2m2.3 2.5l-2.9-1.6m2.6 2.2l-3-1.4m2.8 2l-3.1-1m2.9 1.6l-3.2-.7m3.1 1.3l-3.3-.3m3.3 1h-3.3m3.3.6l-3.3.3m3.4.3l-3.3.7m3.5 0l-3.2 1m3.4-.4l-3 1.3m3.3-.8l-3.5 2.2m3.8-1.6l-7.2 5.1m7.6-4.6l-7.6 6.8m8-6.4l-6.3 7.1m6.9-6.7l-4.8 6.5m5.3-6l-5 8.6m5.6-8.4l-2.8 6.3m3.4-6l-2.8 8.7m3.4-8.6l-1.2 5.9m1.8-5.8l-.8 9m2.1-9l.3 3.3m.4-3.4l1.9 8.5m-1.3-8.7l1.6 5m-1-5.2l3.8 8.4m-3.2-8.7l4 7.1m-3.5-7.4l6 7.8m-5.5-8.2l5.2 6m-4.8-6.4l7.8 7m-7.4-7.6l4.2 3m-3.8-3.5l2.9 1.6m-2.6-2.2l3 1.4m-2.8-2l3.2 1m-3-1.6l3.2.7m-3.1-1.3l3.3.3m-3.3-1h3.3m-3.3-.6l3.3-.3m-3.4-.3l3.3-.7m-3.4 0l3.1-1m-3.4.4l3-1.3m-3.2.7l2.8-1.6m-3.2 1.1l2.7-2m-3.1 1.5l2.5-2.2m-3 1.8l2.3-2.5m-2.8 2l2-2.6m-2.5 2.3l1.7-2.9m-2.3 2.6l1.4-3m-2 2.8l1-3.2m-2.9-5v-2.5m-2.8 2.9l-.5-2.5m-2.3 3.4l-1-2.3m-1.5 3.7l-1.5-2m-.7 4l-1.9-1.7m.2 4l-2.2-1.3m1 4l-2.4-.8m1.8 3.6l-2.6-.3m2.6 3.2l-2.6.3m3.2 2.6l-2.5.8m27.8 1.9l2.2 1.3m-1-4l2.4.8m-1.9-3.6l2.6.3m-2.6-3.2l2.6-.3m-3.2-2.6l2.5-.8m-3.6-1.8l2.2-1.3m-4-1l2-1.8m-4-.2l1.4-2.1m-4 .6l1-2.3m-3.8 1.4l.6-2.5" fill="none"/><path d="M534.7 287.7s-.9-.4-1.4-.4c-.5 0-2.8-.2-3.7 0l-1 .7s.6.6 1.8.7c1.3.1 2 0 2.7-.2a7 7 0 001.6-.8z" fill-rule="evenodd" stroke-miterlimit="2.6" fill="#e60000"/><path d="M528.8 286.8s0-1.7 1.3-3.8l-.7 1.1s-.6.4-1 0c-.4-.5-.2-.7.1-1.3.3-.4.2-1 .6-1.2.3-.3.5-.4 1.4-.4.8 0 1.3.1 2 1l1.3 2.1c.7 1.1.7 2.4.7 2.4l.2 1s-.9-.4-1.4-.4c-.5 0-2.8-.2-3.7 0l-1 .7s-.3-.8.2-1.2z" fill-rule="evenodd" stroke-miterlimit="2.6" fill="#e60000"/><path d="M528.8 286.8s.6-.4 2.9-.3c2.5 0 2.6.2 2.8.4" stroke-miterlimit="2.6" fill="none"/><path d="M531 296.4v-9s.3-.3 1 0v8.9s.2 6.8-.5 6.8c-.9 0-.5-1.6-.5-6.7z" fill-rule="evenodd" stroke-miterlimit="2.6" fill="#FC0"/></g><g fill="#e60000"><path d="M521.7 288.8l.2.4-1.7.7.2.6-.2.1c-.2-.4-.3-.5-.8-.4l-.1-.3 2.4-1zm-1.9-.7a.8.8 0 01-.2-.5c-.1-.4 0-.9.6-1 .3-.1 1-.1 1.1.7.1.4 0 .8-.5 1v-.3c.2-.1.3-.4.2-.7 0-.3-.4-.5-.7-.4-.4.1-.5.4-.4.7 0 .2.1.4.3.4v.3l-1.4.1-.3-1.3h.3l.3 1h.7zm-.6-4.9c-.5 0-.7.3-.7.6s0 .7.4.7c.3 0 .4-.1.4-.3l.3-.7c0-.4.3-.6.7-.6.7 0 .8.7.8 1.2 0 .4-.3.7-.3.7-.3.3-.5.3-.8.3v-.4c.5 0 .7-.3.8-.7 0-.2 0-.7-.4-.7-.3 0-.4 0-.5.5l-.2.6c-.1.1-.2.5-.7.5-.4 0-.8-.4-.8-1 0-1 .7-1 1-1v.3zm-.2-1.7l.8.3.5-1.4.3.1-.5 1.4.9.3.5-1.6.3.1-.6 2-2.6-.9.6-2 .3.2z" fill-rule="evenodd"/><path d="M520.8 277.5a.9.9 0 00-.5.4l-.6 1 2.3 1.5.2-.3-1-.6.4-.7c.3-.5.1-1-.2-1.2a.7.7 0 00-.6 0zm.2.4l.1.1c.3.2.3.4.1.7l-.3.6-.8-.5.5-.6c0-.2.2-.3.4-.3z"/><path d="M524 277.7l-.2.2-1.8-1.6-.6.6-.2-.2 1.5-1.6.2.2-.6.7zm.9-.8l-1.6-2.2.2-.2 1.7 2.2zm0-2.9l.3.8 1.4-.7.1.3-1.3.7.4.7 1.5-.7.1.3-1.8 1-1.2-2.5 1.7-.9.2.3zm5 .8l-.4-1.6-.1-.6-.3 2.3-.3.1-1.3-2 .2.6.3 1.6h-.3l-.6-2.6h.5l1.3 2 .2-2.4.6-.2.5 2.7h-.3z" fill-rule="evenodd"/><path d="M530.8 272l-.1 2.7h1.1c.6 0 1-.2 1-.7 0-.5-.3-.6-.5-.7a.6.6 0 00.4-.5c0-.4-.2-.7-.7-.8h-1.2zm.4.4h.6c.4 0 .5.2.5.4 0 .3-.2.4-.6.4h-.6v-.8zm0 1.1h.6c.2 0 .5.2.5.5s-.2.4-.5.4h-.7v-.9zm2.6-1.3l-.7 2.7.3.1.3-1.1.9.2c.4.1.4.4.3.6v.7l.3.1v-.8c.2-.4 0-.5 0-.6.1 0 .4-.1.5-.5.2-.6-.2-.8-.7-1l-1.2-.4zm.4.5l.7.3c.2 0 .5.1.3.5 0 .3-.3.3-.6.3l-.7-.2.3-.9z"/><path d="M537 273.8l-.4.7 1.3.8-.2.2-1.3-.7-.4.8 1.4.8-.1.3-1.8-1 1.4-2.4 1.7 1-.2.3z" fill-rule="evenodd"/><path d="M540.3 275.8l-2 1.7.6.9c.6.7 1.4.4 1.8 0 .6-.5.8-1.2.3-1.8l-.7-.8zm0 .6l.4.5c.3.4.2.7-.2 1.2-.5.4-1 .3-1.3 0l-.4-.5 1.5-1.2z"/><path d="M542.2 278.9l-.8.3.7 1.3-.3.2-.6-1.3-.9.4.8 1.4-.3.2-1-1.8 2.5-1.2.9 1.8h-.3zm-1 4.8v-.3l1.9-.3-.1-.6h.2c.2.4.2.5.6.6v.2l-2.6.4z" fill-rule="evenodd"/><path d="M542 284.5s-.3 0-.5.3a1 1 0 00-.2.6c-.1.6.3 1 .7 1 .2 0 .5 0 .7-.4 0 .1.2.3.5.3.4 0 .8-.2.8-.8 0-.6-.4-.8-.7-.8-.3 0-.5.1-.5.4a.7.7 0 00-.7-.6zm0 .5c.3 0 .5.1.5.5 0 .3-.1.5-.5.5s-.4-.4-.4-.6c0-.4.3-.4.5-.4zm1.3 0c.2 0 .4.2.3.5 0 .4-.2.5-.3.5a.5.5 0 01-.4-.5c0-.3.2-.4.4-.4z"/><path d="M542.9 287c.9.1.8.8.7 1-.1.5-.5.8-1 .7-.4-.1-.5-.5-.7-1v-.2c-.2-.4-.3-.6-.5-.6l-.3 1.4h-.3l.4-1.9c.6.2.8.5 1 1v.3c.1.3.2.6.6.6.1.1.4 0 .5-.4.1-.5-.3-.6-.5-.6v-.4zm-2.6 2.5l.1-.3 1.7.8.3-.6.2.1c-.1.4-.2.6.2.9l-.1.2-2.5-1z" fill-rule="evenodd"/></g><path d="M531.1 252.8l-45.4 76h90.9z" stroke="#000" stroke-miterlimit="2.6" stroke-width=".3" fill="none"/><g stroke-miterlimit="2.6" fill="none"><path d="M533.6 319.4c1.1.3 2.6.5 4 0 2-.4 3.8-1.5 6-1.3 1.7.1 4 1.6 6.7 1.6s3.6-1 6-1.5c1.6-.3 2.4-.1 4.2.3 2 .4 3 1.5 6.5 1.3" stroke="#000" stroke-width=".1"/><path d="M498.6 322.6a8.1 8.1 0 016.2-1.1c2.7.5 3.9 1.2 6.7 1.2 2.2 0 4-1.5 6.1-1.5 3.6 0 3.8.7 7 1.3.8.2 1.8.2 2.6 0 1.2-.2 2.2-.6 3.2-1 1-.6 3.5-.5 4.8-.3 2.2.2 3.1 1 3.6 1.2 1.2.3 2.6.4 4 0 2-.5 3.8-1.8 6.2-1.5 1.6.2 3.9 1.8 6.6 1.8 2.6 0 3.6-1.1 5.9-1.6 1.7-.4 2.5-.2 4.3.2 2 .5 3 1.8 6.5 1.5" stroke="#fff" stroke-width=".5"/><path d="M493.4 320c1.6-1 4.2-1.4 6.3-1 2.7.5 3.8 1.2 6.7 1.2 2.1 0 4-1.4 6.1-1.4 3.6 0 3.7.7 7 1.2a9.3 9.3 0 002.6 0c1.2-.2 2.2-.5 3.2-1 1-.4 3.5-.3 4.8-.2 2.2.2 3.1 1 3.6 1a9 9 0 004 .1c2-.5 3.8-1.6 6.1-1.4 1.7.2 4 1.6 6.6 1.6 2.7 0 3.7-1 6-1.4 1.7-.4 2.5-.2 4.3.2 2 .4 3 1.6 6.5 1.3" stroke="#fff" stroke-width=".3"/><path d="M488.7 327.5a7.9 7.9 0 016.3-1.3c2.7.6 3.9 1.4 6.7 1.4 2.1 0 4-1.7 6.1-1.7 3.7 0 3.8.9 7 1.6h2.7c1.1-.3 2.1-.8 3-1.3 1-.5 3.6-.4 4.9-.3 2.2.2 3.1 1.2 3.6 1.3 1.2.3 2.6.5 4 .1 2-.6 3.9-2 6.2-1.7 1.6.2 3.9 2 6.6 2 2.6 0 3.6-1.2 5.9-1.9 1.7-.4 2.5-.1 4.3.3 2 .5 3 2 6.5 1.7" stroke="#fff" stroke-width=".6"/><path d="M490 323.2c1.5-1 4.2-1.4 6.2-1 2.7.5 4 1.1 6.8 1 1 0 1.8-.2 2.7-.5" stroke="#fff" stroke-width=".3"/><path d="M503.7 318.8c.4-.1 1.7-.7 3.5-.7 3.7 0 1.4 0 4.5.6.9.1 3.2.2 3.8-.5m31.8 10.3a14.2 14.2 0 003.1-1c1-.4 3.5-.4 4.8-.3 2.3.3 3.1 1 3.7 1a8 8 0 004 .2c2-.5 3.8-1.6 6.1-1.4 1.7.1 4 1.6 6.6 1.6" stroke="#000" stroke-width=".3"/><path d="M552.9 318.5c2.7 0 3.6-1 6-1.5 1.6-.3 2.4-.1 4.2.2 2 .4 3 1.7 6.5 1.4" stroke="#fff" stroke-width=".3"/><path d="M488.9 327.8a9.6 9.6 0 016.3-1c2.7.4 3.8 1 6.7 1 2.1 0 4-1.3 6.1-1.3 3.6 0 3.7.7 6.9 1.2a9.3 9.3 0 002.7 0c1.2-.2 2.2-.6 3.2-1s3.4-.3 4.7-.2c2.3.2 3.2.9 3.7 1" stroke="#000" stroke-width=".1"/><path d="M494.6 324.4c1.6-1 4.3-1.4 6.3-1 2.7.5 3.9 1.1 6.7 1 2.1 0 4-1.3 6-1.2 3.7 0 3.9.6 7 1.2a9.3 9.3 0 002.7 0c1.2-.2 2.2-.6 3.2-1s3.5-.4 4.8-.3c2.2.3 3 1 3.6 1a8 8 0 004 .2c2-.5 3.8-1.6 6.2-1.4 1.7.2 4 1.6 6.6 1.6 2.6 0 3.6-1 5.9-1.4 1.6-.4 2.5-.2 4.3.2 2 .4 3 1.5 6.5 1.2" stroke="#000" stroke-width=".6"/></g><g fill-rule="evenodd" stroke="#000" stroke-width=".3" fill="#fc0"><path d="M495.8 311.8c.4.1 1.5-.7 1.8-1 .4-.2.6-.8 1-1.2.3-.4 1.4-.9 1.9-1.2 2-1.3 3-2 4.4-4a22.2 22.2 0 017.1-6.4c1-.5 2.3-.4 3.3 0l1 .8a15 15 0 005 2.3c1.8.5 2.3 1.8 3.8 3.1.7.7 1.6 1.2 2.5 1.7l.4.4c.8.7 1.8 1.2 2.5 1.8a83.7 83.7 0 014 3.9l.5.8c1 1 2 2 3.2 2.5 1.2.6 2.3 1.4 3.4 2.1-11.5.4-22.1-.3-33.7 0h-2.2l-2.2.1h-11l3.3-5.7z"/><path d="M541.2 317.1l-3-1.8c-1.2-.5-2.2-1.5-3.2-2.5-.2-.1-.3-.6-.5-.8a76.8 76.8 0 00-4-3.9c-.7-.6-1.7-1.1-2.5-1.8l-.4-.4c-1-.4-1.8-1-2.5-1.7-1-.9-1.5-1.7-2.3-2.3v-.1l1.6-1c.7-.4 1.9-.2 2.7.1l.9.6c1 .8 2.4 1.4 4 1.9s2 1.5 3.3 2.6c.6.6 1.2 1 2 1.4l.3.4 2.2 1.5a77 77 0 013.3 3.2l.4.7c.8.8 1.6 1.6 2.6 2.1l2.9 1.7-7.8.1z"/><path d="M530.9 303l1 .4c1.7.5 2 1.5 3.4 2.6.6.6 1.2 1 2 1.4l.3.4 2.2 1.5a77 77 0 013.3 3.2l.4.7c.8.8 1.6 1.6 2.6 2.1 1 .4 1.6 1 2.4 1.4l6.5-.1-2.6-1.6c-1-.4-1.6-1.1-2.4-1.9-.2-.1-.2-.4-.4-.6l-3-2.9-2-1.4-.2-.3a7.8 7.8 0 01-2-1.3c-1-1-1.4-2-2.9-2.4-1.4-.4-2.7-1-3.6-1.7l-.8-.5c-.8-.4-1.8-.5-2.5-.1-.6.3-1.2.7-1.7 1.2z"/><path d="M541.5 305.5l1 1.1a7.8 7.8 0 001.9 1.3l.3.3 1.9 1.4 3 3c.2 0 .2.4.4.5.8.8 1.5 1.5 2.4 2 .6.2 1.1.6 1.7 1 2.5 0 5 0 7.5-.2-.7-.4-1.3-.9-2-1.2-.8-.4-1.4-1-2-1.6l-.3-.5a132 132 0 00-2.4-2.3c-.5-.5-1-.8-1.6-1.2l-.3-.2a7 7 0 01-1.5-1c-.9-.8-1.2-1.6-2.3-2a9.1 9.1 0 01-3-1.4l-.6-.4c-.7-.3-1.5-.4-2 0-.8.3-1.5.8-2.2 1.4z"/><path d="M561.1 315.6a9.2 9.2 0 00-1.6-1c-.7-.3-1.3-1-1.9-1.5l-.3-.5a106 106 0 00-2.4-2.3c-.5-.5-1-.8-1.6-1.2l-.2-.2a7 7 0 01-1.6-1c-.7-.7-1-1.4-1.8-1.8a9 9 0 011.3-.8c.5-.3 1.2-.2 1.7 0l.6.5c.6.4 1.4.8 2.5 1.1 1 .3 1.2 1 2 1.7l1.3.8.2.3 1.4 1 2 2c.2 0 .2.3.3.4.5.5 1 1 1.7 1.3l1.8 1c-1.8.2-3.6.2-5.4.2z"/></g><path d="M511 298.7c.5 0 .3-.2.8.2m-1.9.5c.6 0 .8-.5 1.3 0m-1.8.4c.2 0 .4-.3 1.2.2m-1.9.5h1.4m-2 .5c.5-.2.8.3 1.5.1m-2.3.7c.4 0 .5-.2.9 0h.8m-2.5.7h1c.5 0 .3.1.8 0m-2.3.7a3.1 3.1 0 011.7.2m-2.9 1.4c.8-.2 1.1-.2 1.8 0m-13.8 12.4c2.4-.4 5.2 0 7.6-.3m4.8-12.9c.6-.2.5-.1 1 0h1.1m-3 1.4c.5-.3 1.3-.1 1.9 0m-.4.7c-.7-.2-1.4 0-2 0m1.5.6c-.7-.2-1.5-.2-2.2 0m-1 .6c1 0 1.8-.3 2.6 0m-3.2.7c.9-.3 1.8 0 2.7 0m-3.6.5l2.8-.1h.6m-.3.6c-1.4.3-2.9 0-4.3.1m3.5.6c-.4 0-1.2.3-1.8.2l-.4-.1a5.2 5.2 0 00-2.2.2m-.3.5c.3-.2.7-.2 1-.1.9.1 1.7 0 2.6.2l.7.2m-4.8 0l2 .1 2.4.5m-5 0c.7 0 1.3 0 2 .2 1 .2 1.8 0 2.7.2m-5.6 0c1 .4 2 0 2.9.2l2.6.3m-6 .2c1.3 0 2.7 0 4.1.2.4.1 1 .3 1.6.2m-6.2.2c1.3.2 2.7 0 4 .4l2 .2h-.1m-6.5.4l.4-.1c1.1 0 2.2.2 3.3 0 .9 0 1.8-.1 2.7.2h-.1m-6.8.6c2.2-.2 4.4.1 6.6 0m-7 .7c2.3.2 4.6 0 6.9.2m-7.2.5c1 .2 2-.1 3 0 .7.2 1.4.4 2.1.2h1.9m9.3-9.5h.2m-.5.2h.3m-.5.4h.5m-.7.3h.6m-1 .4h1-.1m-1.3.5l1.2-.1m-1.7.7h1.7-.1m-1.9.4h1.8m-2.1.6h2m-2.4.6l1.2.3h1m-2.3.2c.6.2 1.3.2 2 .3m-2.4.2a4.4 4.4 0 011.6.2c.3.1.6 0 .8 0m-3.2.6c.8-.3 1.6-.1 2.3.1.3.1.5 0 .8 0m-3.1.4c.8-.3 1.7-.3 2.4.1h.5m-3.5.5c1.1.2 2.2-.1 3.3.2m-3.6.3c.9.3 1.9 0 2.8.3h1m-4.4.3c.4 0 .8-.2 1.2 0 1 .2 2 0 3 .2m-4.7.5c.3 0 .5.2.7.1 1.3-.2 2.6 0 4 0m-5 .5c1 .4 2.1 0 3.3.3h1.4m-5 .4c1.5 0 3 0 5 .2m4-9.4h.5m-.7.5l.6-.1m-.8.5l.9.1m-1 .5l1 .1m-1.4.5h1.4m-1.4.5h1.3m-1.6.6l1.2.1h.5m-1.7.6c.5-.3 1 0 1.7 0m-2 .7h2m-2.2.6c.2-.1.5-.3.8-.2.4.2.9.1 1.3.2m-2.2.6c.7-.2 1.5.2 2.2-.2m-2.3 1c.3-.2.7-.2 1 0h1.4m-2.6.6c.8-.2 1.7 0 2.7 0h-.1m-3.2.6l3.5-.2m-3.3.9c1.2-.3 2.5-.2 3.8-.2m-4 .9c1.2.1 1.5-.1 2.7-.2l1.5-.2h.8m-5 .7c1.8-.2 3.8.2 5.8-.3m-14.1 0h1.5m5.8.3h.6m6.7-.1c1.6-.2 3.2.3 4.7 0m-5.5-.6c1-.2 1.9 0 2.9.1l.1.3h2.6m-11.2-.4h-1m-5.1-.3c-.7 0-1.4 0-2.1.2m15.1-14.8h.3m-.2.5h.4m-.3.7l.1-.2h.4m-.3.6h.7m.1.4l-.7.1m.3.6a1 1 0 01.7-.1m.3.5h-1m.3.5c.4 0 .7.1 1-.1m.3.7l-1.1.1m.2.7c.4 0 .8 0 1.2-.3m0 .4l-1 .4m.2.6c.4-.3 1 0 1.5-.2m.1.6h-1.2l-.4.2m.4 1c.3-.2.6-.4 1-.4 0-.2.2 0 .3-.1h.4m.2.6l-1.7.2m.1.8c.7-.3 1.3-.3 2-.4m-1.9 1.2c.7-.2 1.5-.2 2.2-.5m.5.6c-.8 0-1.6 0-2.4.4m.2.7h.3c.8-.2 1.6-.5 2.4-.4m.2.6c-.8.4-1.7.2-2.6.3h-.3m.3.6l2.8-.3m.6.6l-2.2.1c-.4 0-.7.2-1 .3m.1.6h.4c1-.6 2-.4 3-.5m.4.6c-.9 0-1.8-.2-2.6.1-.3.2-.6.3-1 .3m.3.7l1.3-.4h3m0 .5a3.2 3.2 0 00-1.7 0l-2.5.5m.5.4l2-.5h1.7m-3.6.9c1-.2 2 0 3-.4h1.2m0-.3c1.7.1 3.5-.2 5.2.2m-4.8.3l.5-.1 4.3.1m-.5-3.7h.2m-.2.5c.2 0 .4-.2.6 0m-.4.5h.9m-.7.8c.3-.4.7 0 1-.3m-.8 1c.4-.4 1 0 1.4-.4m-1.3.9c.6-.2 1.2 0 1.8-.3m-1.6.8c.9-.4 1.9.2 2.7-.4m-2.6.8c1.1-.3 2.2 0 3.3 0m.7 0h5.8m-6.6-.7c1.7.2 4.3 0 6.4.2m-15.8-13.3l1.4-.2m-1 .5c.4 0 1.2 0 1.5-.2m-1 .8l1.1-.2h.5m-1 .5l1.7-.1m.4.4a6 6 0 00-1.6.2m1 .6l1.3-.3m.6.5H528m.8.6a3.6 3.6 0 001.3-.2m.7.6h-1.4m.6.6l1.5-.1m.5.3l-1.3.3m.7.6c.4-.3 1-.1 1.6-.3m.5.6h-1.3l-.4.2m3.2 1l-1.8.1m.6.7c.6-.3 1.3-.2 2-.4m-.5 2.2l.9-.1c1-.1 1.2-.4 2.2-.3m.6.4a27 27 0 01-2.7.4l-.6.1m.6.4c1-.2 2.3-.1 3.3-.2m1 .5l-2.4.1-1.3.2m.9.6h.4c.7-.5 2-.5 3.1-.5m.7.6l-2.3.1-1.1.2m.9.6l1.8-.3 2.3-.1m.3.4a5.5 5.5 0 00-2 0c-.4.2-.2.3-1.7.4m.6.3c.7-.1.8 0 1.4-.2.6-.2 1.2-.1 2-.1m-3 .5h3.3m-20.2-13.7c.2-.1.4-.2.9-.2-.1-.2.2 0 .3 0 0-.2.2-.1.4-.1m-2.1-.2c.2-.2.5-.2 1-.1-.2-.2.2 0 .2-.1h.5m6.9 7.5c.3-.2.3-.3.7-.2-.1-.2.5 0 .5-.1h.7m0 2c.6-.2 1.5-.2 2-.5m1.1.8c-.8.1-2 0-2.7.4m-9.9-10.5c-.7 0-.9.3-1.4.3m10 1.9l1.1-.2m-.8.6c.6-.2 1 0 1.2-.3m-.7.7l.8-.1h.5m-.9.5c.2-.2 1.3-.1 1.6-.2m.3.4l-1.5.2m.6.5l1.5-.2m.6.4l-1.6.2m.5.4c.4 0 1.5 0 1.6-.3m.7.7h-1.5m.5.5l1.7-.1m.4.3l-1.4.3m.8.5c.3-.2 1-.1 1.5-.2m.4.5h-1.1c-.2 0-.2.2-.4.1m3 1l-1.7.1m.5.6c.6-.2 1.3-.2 2-.3m-.5 2l.7-.1c1-.1 1.2-.3 2-.3m.6.4a14.2 14.2 0 01-2.5.3l-.5.2m.5.3l3-.2m1 .5l-2.2.1-1.2.2m.8.5h.4c.7-.5 1.8-.4 3-.4m.5.5l-2.1.1-1.2.2m.7.5c1-.2 3-.3 1.9-.3h2.2m.2.4a4.6 4.6 0 00-1.7 0c-.4 0-.5.3-2 .3m.6.3c.7 0 1 0 1.6-.2h1.7m-2.6.6c.9-.2 1-.3 2-.2l1-.1m-18.6-12.6c.2 0 .1-.2.5-.1l.6-.1h.4m-2.1 0c.2-.2.3-.3.7-.3l.6-.1h.4m6.5 6.9c.2-.2 0-.2.5-.2h.5l.6-.1m0 1.9l2-.4m.9.7c-.8.1-1.7 0-2.3.2m-9.3-9.5c-.7 0-1.3.3-1.8.6m10.7 3.2l1.2-.2m-.8.5c.4-.1 1 0 1.1-.3m-.7.6l.8-.2h.4m-.9.5l1.4-.2m.3.3a3.4 3.4 0 00-1.2.2m.6.4l1-.2m.5.3l-1.3.1m.5.4c.3 0 1-.1 1.2-.3m.5.5h-1.1m.3.5c.3 0 1 0 1.3-.2m.4.3l-1.1.2m.4.4c.2-.2 1 0 1.3-.1m.4.3h-1l-.3.1m2.4.8l-1.5.2m.5.3c.4-.2 1-.1 1.5-.2m-.4 1.5h.7c.7-.1.9-.3 1.6-.2m.4.3l-2 .2h-.4m.3.4c.7-.2 1.8-.1 2.5-.2m.7.4h-1.7l-1 .2m.5.5l.8-.2 2-.2m.4.4h-1.6l-1.2.3m.7.4c.6-.2 2.3-.3 1.6-.3h1.6m.2.3h-1.3l-1.6.2m.4.2l1.3-.1c.4-.2 1 0 1.4-.1m-2.2.5c.7 0 1-.2 1.8-.1h.7M542 306l.6-.2h.7m-1.6-.1c.2-.1.2-.2.5-.2h.8m4.8 5.2h.6c-.1-.2.3 0 .4-.1h.5m-.1 1.4l1.5-.4m.8.6c-.6 0-1.4 0-1.9.2m-7-7.3c-.6 0-.7.2-1 .4m8.7 1.1h1.1m-.8.4c.4-.1 1-.1 1.1-.3m-.7.5l.8-.1h.3m-.7.5a5.5 5.5 0 011.2-.2m.3.2a3.6 3.6 0 00-1.3.3m.5.3c.1-.1 1-.3 1.2-.2m.4.3l-1.3.1m.5.3l1.2-.2m.4.4l-1.2.1m.5.3h1.2m.4.1l-1.2.2m.5.4l1.2-.1m.4.3h-.9l-.3.1m2.2.7l-1.4.2m.4.3l1.6-.2m-.5 1.4h.7c.7-.1.8-.3 1.4-.2m.3.3l-1.7.2h-.4m.2.4a47.1 47.1 0 012.4-.2m.7.3h-1.6c-.4.2-1 .2-1 .2m.5.4l.7-.1 1.9-.2m.4.3l-1.5.1c-.4 0-1 .3-1.1.3m.6.3c.6-.1 2.1-.3 1.5-.3h1.5m.2.3h-1.3l-1.4.2m.4.2c.4 0 .8 0 1.2-.2h1.2m-2 .4h1.6l.6-.1m-13.2-9h.9l.3-.1m-1.6 0c.2-.2.2-.2.5-.2h.5l.3-.1m4.4 4.9l.5-.1c0-.1.3 0 .4 0l.4-.1m0 1.3c.4 0 1 0 1.4-.3m.7.5c-.6.1-1.4 0-1.9.2m-6.3-6.7c-.5 0-.7.1-1 .4" stroke="#00633b" stroke-width=".1" fill="none"/><g fill="#fc0"><path d="M491.5 373.3l.8 5.5c-1.5-.5-2.8.4-3.5 1.6-1 2-.1 3.7 1.9 4.7l2.7 1.3 5-9.7-2-1-2 4-.5-5.2-2.4-1.3zm.8 7.3l1 .3.3.2-1.4 2.6-.3-.1c-.9-.5-1.5-1-1-2.1.4-.7.8-1 1.4-1z"/><path fill-rule="evenodd" d="M482.3 372.9l2.9 2 1.6-2.5-3-2 1-1.6 4.9 3.3-6 9-5-3.2 1.1-1.6 3 2 1.4-2-3-2z"/><path d="M480.8 365.6l-2.6 3-.9-.6c-1.7-1.5-3.4-1.4-5 .3-1.6 1.9-1 3.6.9 5l2.2 2 7.1-8.2-1.7-1.5zm-5.5 3.6c.4 0 .8.3 1.3.6l.3.3-2 2.3-.3-.3c-.8-.7-1.3-1.3-.4-2.3.4-.5.7-.7 1.1-.6z"/><path fill-rule="evenodd" d="M467.4 368.3l-1.4-1.7 4.5-4.1c1-.9 2.3-2.3 1-3.6-1.2-1.4-2.7-.3-3.7.7l-4.5 4-1.5-1.6 4.8-4.4c2-1.7 4.3-2.2 6.3 0s1.3 4.5-.7 6.3l-4.8 4.4z"/><path d="M463.4 347.7a3 3 0 00-1.9.5c-1 .7-1.7 2-1.1 3.2-.8-.3-1.7-.1-2.3.4-1.8 1.2-1.8 2.7-.6 4.5l1.6 2.2 9-6.2-2-2.8c-.7-1-1.6-1.8-2.7-1.8zm0 2.3c.7 0 1.1.5 1.6 1.1l.3.4-2.3 1.5-.2-.2c-.6-.8-1.2-1.8 0-2.5l.6-.3zm-3.2 3.2c.4 0 .8.2 1 .7l.2.2-2 1.5-.2-.2c-.5-.7-.7-1.4.2-2 .3-.2.6-.2.8-.2z"/><path fill-rule="evenodd" d="M458.6 340.3l1.6-.8 2.6 4.6-9.6 5.2-1.1-1.9 8-4.3zm-.2-5l.9 2.1-10 4.4-.9-2zm-11.2-7.5c-.5.8-.6 1.8-.3 2.8.7 2 2.8 2.5 4.6 2 1.7-.6 3-2.4 2.4-4.3a3.5 3.5 0 00-1.8-2l2.4-.9a5.6 5.6 0 01-2.2 9.3c-3 1-6.3-.3-7.3-3.5a5.9 5.9 0 01-.2-2.6l2.4-.8z"/><path d="M452.4 313.3l-10.2 6.2.3 1.7 11.8 2.3-.5-2.2-2.4-.6-.7-3.9 2.2-1.2-.5-2.3zm-3.3 4.5l.5 2.6-4.1-.5 3.6-2.1zm-2.4-25c-2.8 0-5 2-5.3 5.1l-.2 3.2 10.8.8.3-3a5.3 5.3 0 00-5-6h-.6zm-.4 2.6h.7c2 .1 3.2 1.2 3 3.7v.3l-6.5-.6v-.3c.2-2 1.1-3 2.8-3.1z"/><path fill-rule="evenodd" d="M449.6 284.3l-.7 3.4 3 .7.7-3.6 1.7.3-1.1 5.8-10.7-2.2 1.2-5.8 1.8.4-.8 3.6 2.4.5.7-3.5zm4.6-13.5l-1.3 3.3 2.7 1 1.3-3.3 1.8.6-2.1 5.5-10.2-4 2.1-5.4 1.8.6-1.4 3.5 2.2.8 1.3-3.3zm6.5-6.6l1.7.8-2.5 4.8-9.7-5 1-2 8 4.2zm1.6-14.3c-.7 0-1.3.2-1.7.8-.5.6-.5 1.4.1 1.9 1.5 1 3.6-3 6.5-.8 1.7 1.3 2.1 3.3.8 5.2-1 1.2-2.3 1.6-3.8 1.5l-.2-2c.8.3 1.9.1 2.4-.6.6-.7.3-1.6-.4-2.1-.9-.7-1.7 0-2.6.5-1.3.8-2.5 1.3-3.8.3a3.2 3.2 0 01-.7-4.6 4.8 4.8 0 012.8-1.8l.6 1.7z"/><path d="M467.2 240.3l-1.2 1.2 5 11 1.6-1.7-1-2.2 2.7-2.8 2.3.9 1.6-1.7-11-4.7zm1.7 3.1l3.5 1.6-1.7 1.8-1.8-3.4z"/><path fill-rule="evenodd" d="M482.8 239l1.2 1.4-4.2 3.4-6.8-8.6 1.7-1.3 5.7 7zm2.7-12.7l2-1.3 2.3 11.9-1.1.7-9.7-7.2 2-1.3 6.3 4.8z"/><path d="M495.3 221l-1.6.8.6 12 2-1v-2.5l3.5-1.6 1.8 1.7 2.1-1-8.4-8.4zm.4 3.6l2.7 2.7-2.3 1-.4-3.7zm11.7-7.4a6 6 0 00-1.7.3l-3 .9 3 10.4 3-.8a5.3 5.3 0 003.8-6.8c-.7-2.4-2.7-4-5-4zm0 2.3c1.3 0 2.2.8 2.7 2.4.5 1.9 0 3.4-2.4 4.1l-.4.1-1.8-6.3h.3a5 5 0 011.5-.3zm13.1-5.4h-.6a5.5 5.5 0 00-4.8 6.4 5.5 5.5 0 006.3 5 5.6 5.6 0 004.8-6.4 5.6 5.6 0 00-5.7-5zm-.3 2.4c1.8-.2 3.2 1.2 3.5 2.8.1 1.5-1 3.5-2.6 3.8-1.7.2-3.3-1.5-3.5-3-.2-1.6.9-3.4 2.6-3.6zm9.3-3v11h2.1V220l2.8 4.4h2.7l-3.2-4.6c1.5-.2 2.3-1.6 2.3-3 0-2.3-1.5-3.3-3.7-3.3h-3zm2.3 2h.3c1 0 1.8.3 1.8 1.5s-.8 1.5-1.9 1.5h-.3v-3z"/><path fill-rule="evenodd" d="M555 223l-3.3-1-.7 3 3.5.8-.5 1.8-5.7-1.4 2.7-10.6 5.7 1.4-.5 1.8-3.5-.9-.6 2.4 3.4.8zm10.2 4.9l2.7-6.8 2 .8-4 10.3-1.5-.6-2.8-9.3-2.7 6.9-2-.8 4-10.4 1.6.5 2.7 9.4zm13 9l-1 1.6-4.6-2.8 5.9-9.2 1.8 1.1-4.8 7.7z"/><path d="M588.7 233.3l-10.5 5.9 1.8 1.4 2.2-1.2 3 2.5-.7 2.4 1.8 1.4 3.8-11.4-1.4-1zm-1.6 3.1l-1.3 3.6-1.9-1.5 3.2-2zm18 14l-11.7 2.9 1.4 1.9 2.4-.6 2.3 3.2-1.3 2 1.4 2 6.5-10.1-1-1.4zm-2.4 2.5l-2.1 3.2-1.5-2 3.6-1.2z"/><path fill-rule="evenodd" d="M605.8 273.8l-1-2 5.7-3.8-7.4.7-.3-.6 5-5.4-6.5 2.2-1-2 10.8-3.4.8 1.4-5.2 5.8 7.6-.9.7 1.5zm7 6.1l-1-3.3-2.8 1 1.1 3.4-1.7.6-1.9-5.6 10.3-3.4 2 5.5-1.8.6-1.2-3.4-2.3.7 1.2 3.3z"/><path d="M619.8 282.2l-10.6 2.2.4 2.2 4.3-1-3.7 3.7.6 2.6 3.8-4c.6 1.4 2 1.8 3.4 1.5 2.3-.4 3-2.1 2.5-4.3l-.7-3zm-1.3 2.6v.3c.2 1 .2 1.9-1 2-1.2.3-1.7-.4-1.9-1.4v-.3l2.9-.6z"/><path fill-rule="evenodd" d="M611.2 296.3l-.2-2.2 10.8-1.2.3 2.1zm8.5 10.5a3.3 3.3 0 001.1-2.5c0-2.1-2-3.3-3.8-3.2-1.8 0-3.6 1.3-3.6 3.3 0 1 .5 2 1.2 2.5H612a6 6 0 01-.7-2.5 5.6 5.6 0 015.5-5.6c3.1 0 5.9 2.1 6 5.5 0 .8-.3 1.8-.6 2.5h-2.6z"/><path d="M611.7 308.9l-.3 2.3 2.2 1.2-.5 3.9-2.4.5-.3 2.4 11.6-2.9.2-1.7-10.5-5.7zm3.6 4.4l3.4 1.6-3.7.9.3-2.5z"/><path fill-rule="evenodd" d="M612 340.2a3.5 3.5 0 002-2c.8-2-.5-3.8-2.2-4.5-1.7-.6-3.9-.1-4.7 1.8-.3.9-.2 2 .2 2.8l-2.4-1c0-.9 0-1.7.4-2.6a5.6 5.6 0 017.3-3c2.9 1 4.6 4.2 3.3 7.3a5.8 5.8 0 01-1.5 2l-2.4-.8zm-7 6.8l1.6-3-2.6-1.5-1.7 3.2-1.6-.9 2.7-5.1 9.6 5.2-2.8 5.1-1.6-.9 1.8-3.2-2.2-1.1-1.6 3zm-7.4 8.6l6 4.3-1.3 1.8-9-6.6.9-1.2 9.7-.4-6-4.4 1.3-1.8 9 6.6-.9 1.3-9.6.3zm-.7 9.2l1.6-1.7 1.3 1.3-4.7 4.9-1.3-1.3 1.6-1.6-6.5-6.3 1.5-1.6z"/><path d="M585.5 363.4l-1.7 1.4 2.8 3.4-5-1.6-2 1.7 5.4 1.5c-1 1.2-.7 2.7.2 3.8 1.5 1.8 3.3 1.5 5 0l2.3-1.8-7-8.4zm2.1 6.1l2 2.3-.3.2c-.8.7-1.6 1-2.3 0-.8-.9-.4-1.6.5-2.3l.1-.2zm-8.9-.4l-2 1.2.5 2.4-3.4 2.1-2-1.5-2 1.3 9.7 7.2 1.4-.9-2.2-11.8zm-1.2 5.7l1 3.6h-.1l-3-2.3 2-1.3z"/><path fill-rule="evenodd" d="M563.9 379.4l-.8-1.7 4.8-2.3 4.7 10-2 .8-3.8-8.1z"/></g></svg>