<svg xmlns="http://www.w3.org/2000/svg" xmlns:xlink="http://www.w3.org/1999/xlink" viewBox="0 0 600 400"><path fill="#3e5eb9" d="M0 0h600v400H0z"/><path fill="#ffd900" d="M0 75h600v250H0z"/><path fill="#b10c0c" d="M0 100h600v200H0z"/><g fill="#ffd900" stroke="#000"><g id="a"><path fill="#fff" d="M493 154l-24 9 24 8 24-8-24-9z"/><rect width="357" height="6" x="123" y="160" rx="3" ry="3"/><path d="M471 166c2 0 3-2 3-3 0-2-1-3-3-3m-2 6l2-3c0-2-1-3-2-3m-3 6l3-3c0-2-2-3-3-3"/></g><use xlink:href="#a" x="-23" y="17"/><rect width="486" height="9" x="60" y="196" rx="4" ry="4"/></g><path fill="#fff" stroke="#000" d="M443 200c-29 29-67 86-143 86-67 0-114-57-143-86 29-29 76-86 143-86 76 0 114 57 143 86z"/><path d="M290 144c8 9 1 12 9 13 9 0 4 9 11 9 5 0 0 20 4 27 5 7 9 2 10 7 0 5-14 4-14 20 0 9-11 10-12 16-1 5 22 8 21 13 0 5-24 4-25 10 0 5 33 9 35 24-4 1-18 3-29 3-67 0-114-57-143-86 29-29 76-86 143-86 0 0-20 18-10 30z"/><g stroke="#FFF"><g id="d" stroke-width="7"><g id="c"><path id="b" d="M214 192v-22m14 0v22m14-22v22"/><use xlink:href="#b" y="38"/></g><use xlink:href="#c" x="42"/></g></g><use xlink:href="#d" x="105" stroke="#000"/><g fill="#a70000"><path fill="#3d5da7" stroke="#000" d="M511 197c-4 7 4-3 22 10 4 2 7 8 7 12l-3-2c-1 1 2 7 2 10-3-1-3-2-4-4l1 11c-2 0-2-2-3-2 1 2-1 6-1 9l-3-3-3 7-1-2c-2 1-7 8-7 10-4-3-14-12-15-16l-6 5c-2-7-6-15-4-21l-5 4c2-11 11-22 23-28z"/><path d="M495 234l5-7c2-4 2-8 4-7 2 0 2 2-1 6-2 4-3 5-8 8zm12 8l1-5c0-3-2-6 0-6s2 1 2 4 0 4-3 7zm10 6l-1-8-1-8c2 0 3 1 3 5 1 5 0 6-1 11zm9-27l-5-3c-2-2-4-4-5-3 0 1 0 2 3 4s4 2 7 2zm-1 13l-4-5-2-5c-2 1-2 2 0 5 1 3 2 3 6 5z"/><path fill="#3d5da7" stroke="#000" d="M81 204l-1-4c2 1 2 3 4 1v-3l12 3c4 0 10-3 14 1s3 9 3 15l-3-4c2 5 0 15 0 20l-1-2c-2 5-4 6-4 12l-1-3c-1 3-13 7-8 10l-8-4-2 3c-7-3-5-10-10-15l-2 5-3-11-2 4c-1-5-3-7-2-10l-3 3c2-14 11-24 17-21z"/><path d="M72 226l5-8c2-5 2-9 4-9 2 1 2 3-1 8-2 5-3 6-8 9zm7 12l2-8 2-8c2 0 2 2 1 6-1 5-2 6-5 10zm8 7l1-8 1-7c2 0 3 1 2 6 0 4-1 5-4 9zm18-25l-8-6c-4-4-5-8-7-6s0 3 4 6c4 4 5 5 11 6zm-2 13l-5-6c-3-4-4-8-5-7-2 1-1 3 1 7 3 3 4 4 9 6z"/><path fill="#3d5da7" stroke="#000" d="M254 130c-4 7 7-3 24 10 3 2 7 12 7 16l-10-4s8 7 8 16l-5-4 2 9-5-3c3 4-4 13-1 16-6-1-12-5-15-10l-1 4s-10-7-9-10l-2 5c-3-4-7-7-8-12l-3 5c-1-8-1-7 1-13l-5 3c2-10 10-22 22-28z"/><path d="M244 167l2-11c1-6 0-10 2-10 3 0 3 2 2 8s-2 8-6 13zm11 10v-10c0-5-2-8 0-8 2-1 3 1 3 6s0 6-3 12zm17 7l-4-7c-2-4-3-8-5-7-1 0-1 2 1 6 3 5 4 6 8 8zm6-34c-4-3-7-3-10-4-5-3-9-6-10-4-1 1 1 3 6 6 6 2 8 2 14 2zm2 14l-8-5c-4-3-6-6-7-5s0 3 4 6 5 4 11 4z"/></g></svg>