<svg xmlns="http://www.w3.org/2000/svg" xmlns:xlink="http://www.w3.org/1999/xlink" viewBox="0 0 900 600"><path fill="#28ae66" d="M0 0h900v600H0z"/><g fill="#fff"><path d="M447 67a75 75 0 11-78 125 74 74 0 0026 6 75 75 0 0052-131z"/><path id="a" d="M376 121l8-26-22 16h27l-22-16z"/><use xlink:href="#a" y="-38" height="600"/><use xlink:href="#a" x="38" y="-19"/><use xlink:href="#a" x="-38" y="19"/><use xlink:href="#a" y="38" height="600"/></g><g fill="#383739"><path fill="#ca3745" d="M108 0h162v600H108z"/><g id="c"><g id="b"><path d="M108-40v6l9 9-3 3 7 6-3 2v-3h-6v4l13 12h6l1-4h-4l4-4 10 9-10 9-4-4h4l-1-4h-6l-13 12v4h6v-3l3 2-7 6 3 3-9 9v6l15-15-3-3 7-6-6-5 4-3 7 6 16-14-16-14-7 6-4-3 6-5-7-6 3-3-15-15zm0 29v22l4-4V3h3l3-3-3-3h-3v-4l-4-4zm26 8v6l4-3-4-3z"/><path fill="#faae29" d="M108-39v5l10 9-3 3 6 6-4 3v-4h-4v4l12 11h6v-3h-4l5-5 11 10-11 10-5-5h4V2h-6l-12 11v4h4v-4l4 3-6 6 3 3-10 9v5l15-14-3-3 6-6-5-5 4-4 7 7 15-14-15-14-7 7-4-4 5-5-6-6 3-3-15-14zm0 29v20l3-3V3h4l3-3-3-3h-4v-4l-3-3zm27 8l-1 2 1 2 2-2-2-2z"/></g><use xlink:href="#b" y="109"/><use xlink:href="#b" y="222"/><use xlink:href="#b" y="335"/><use xlink:href="#b" y="448"/></g><use xlink:href="#c" transform="matrix(-1 0 0 1 378 0)"/><path id="d" fill="#faae29" d="M121 531c1 3 4 6 4 9 2-3 3-6 2-10-1-3-3-5-3-8-3 2-4 5-3 9zm-1 14c3 3 6 6 9 7l2-7c2-2 3-5 1-8l-2 4c-2 2-3 4-3 7-2-1-2-3-3-5l-7-7 3 9zm13 9l-1 5-5-4-7-5c0 3 2 6 5 8 3 3 7 4 10 6-1-3 0-6 1-9 1-2 0-5-2-8 1 3 0 5-1 7zm7 11l4 7-9-4c-4-2-8-3-11-6 1 6 5 9 11 11l12 3c0-4-1-7-3-10l-3-7c-1 2-2 4-1 6zm12 9a15 15 0 005 5c-5 1-9-2-13-2h-9l11 5h17c-3-2-4-5-6-8s-5-6-9-6l4 6zm17 8l-25 4c10 3 19 3 28 0l13-3c5 1 12 3 20 11l2-2a45 45 0 00-38-10z"/><use xlink:href="#d" transform="matrix(-1 0 0 1 378 0)"/><path d="M128 70l-13-8V43l13-8V25l13-7h9l19-11h40l19 11h9l13 7v10l13 8v19l-13 8v10l-13 8h-9l-19 10h-40l-19-10h-9l-13-8z"/><path fill="#28ae66" d="M169 8l-19 10h-9l-12 7v11l-13 7v19l13 8v10l12 7h9l19 11h40l19-11h9l12-7V70l13-8V43l-13-7V25l-12-7h-9L209 8h-40zm1 4h38l18 10h10l9 6v10l13 8v14l-13 8v10l-9 6h-10l-18 10h-38l-18-10h-10l-9-6V68l-13-8V46l13-8V28l9-6h10l18-10z"/><path fill="#faae29" d="M189 53V12h-19l-18 11h-10l-9 5v10l-13 8v7h69v41h19l18-11h10l9-5V68l13-8v-7z"/><path fill="#fff" d="M120 53v7l13 8v10l9 5h10l18 11h19V53h69v-7l-13-8V28l-9-5h-10l-18-11h-19v41z"/><g id="f"><g id="e"><path d="M148 26l-3-3-3 2 3 3-4 3h9l8 7 2-3-7-7v-4z"/><path d="M164 25l-4-3-3 2 3 3-4 2h9l8 8 2-3-7-7v-5zm-17 10l-3-3-3 2 3 3-4 2h9l8 8 2-3-7-7v-5z"/><path d="M189 12h-8l-4 4h-9l-6 3 2 3 5-3h3l8 10 9-5z"/><path fill="#ca3745" d="M145 24l3 3-2 1-3-3 2-1zm7 0v5l8 6-2 2-8-7h-7l9-6zm8-1l3 2-2 2-3-3 2-1zm8 0v4l7 7-2 2-8-7h-7l10-6z"/><path fill="#ca3745" d="M144 32l3 3-2 2-3-3 2-2zm7 1v4l8 7-2 2-8-7h-7l9-6zm38-21h-8l-4 4h-8l-6 3 1 3 5-3h3l8 10 9-6z"/></g><use xlink:href="#e" transform="matrix(1 0 0 -1 0 106)"/><path d="M143 40l-4-2-5 4v1l-8 10 8 10v1l5 3 4-1-2-2v-3l1-1h4V45h-4l-1-1v-3z"/><path fill="#ca3745" d="M135 42l4-3 3 1-2 1v3l1 2h4v14h-4l-1 1v4l2 1-3 1-4-3v-1l-8-10 8-10z"/></g><use xlink:href="#f" transform="matrix(-1 0 0 1 378 0)"/><path d="M136 61l-2-2v-1l-5-5 5-6v-1l2-2 4 4-2-1 3 4h8l6-5V34h15l17-11v-3l-3-1-3 2-1 1-2-3 4-4h1l5-3h2l5 3h1l4 4-2 3-1-1-3-2-3 1v3l17 11h15v12l6 5h8l3-4-2 1 4-4 2 2v1l5 6-5 5v1l-2 2-4-3h2l-3-3h-8l-6 4v13h-15l-17 10v3l3 2 3-2 1-1 2 3-4 3h-1l-5 4h-2l-5-4h-1l-4-3 2-3 1 1 3 2 3-2v-3l-17-10h-15V59l-6-4h-8l-3 3h2z"/><path fill="#faae29" d="M189 87l2 2-2 1v-3zm-6 3l5 4h1v-3l-3-2 3-2v-6l-19-11h-14V59l-7-6h-10l-3 3-3-3h-3l4 5v1l2 2 3-2h-2v-1l4-4h8l6 5v12h15l18 11v3l-3 2h-2l-3-2-1 2 4 3zm-47-40l2 3h-4l2-3zm53-35l-2 2 2 1v-3zm51 38l2 2 2-2h-4zm-45-37l-5-4h-1v3l3 2-3 2v5l19 12h14v11l7 6h10l3-3 3 3h3l-4-6v-1l-2-1-3 2h2v1l-4 3h-8l-6-5V34h-15l-18-11v-3l3-2h2l3 2v1l1-2-4-3z"/><path fill="#fff" d="M189 90l-2-1 2-2v3zm-51-37l-2 2-2-2h4zm57 37l-5 4h-1v-3l3-2-3-2v-6l19-11h14V59l7-6h10l3 3 3-3h3l-4 5v1l-2 2-3-2h2v-1l-4-4h-8l-6 5v12h-15l-18 11v3l3 2h2l3-2 1 2-4 3zm47-40l-2 3h4l-2-3zm-59-34l5-4h1v3l-3 2 3 2v5l-19 12h-14v11l-7 6h-10l-3-3-3 3h-3l4-6v-1l2-1 3 2h-2v1l4 3h8l6-5V34h15l18-11v-3l-3-2h-2l-3 2v1l-1-2 4-3zm6 2l2-1-2-2v3z"/><path fill="#28ae66" d="M189 53V25l-19 11h-13v11l-7 6h39v28l19-11h13V58l7-5z"/><path fill="#ca3745" d="M150 53l7 5v12h13l19 11V53h39l-7-6V36h-13l-19-11v28z"/><path d="M169 39l-3-3-3 2 3 3-4 3h9l8 7 2-3-7-7v-5zm40 28l3 3 3-2-3-3 4-3h-9l-8-7-2 2 7 7v5zm-40 0l-3 3-3-2 3-3-4-3h9l8-7 2 2-7 7v5zm40-28l3-3 3 2-3 3 4 3h-9l-8 7-2-3 7-7v-5z"/><path fill="#ca3745" d="M212 69l-3-3 3-1 3 3-3 1zm-7 0v-5l-7-7 1-2 8 7h8l-10 7zm-39-32l3 2-3 2-3-3 3-1zm7 0v4l7 7-1 2-8-7h-8l10-6z"/><path fill="#28ae66" d="M212 37l-3 2 3 2 3-3-3-1zm-7 0v4l-7 7 1 2 8-7h8l-10-6zm-39 32l3-3-3-1-3 3 3 1zm7 0v-5l7-7-1-2-8 7h-8l10 7z"/><path d="M209 53l-20 13-20-13 20-13z"/><path fill="#fff" d="M189 40l-19 13h38l-19-13v25l19-12h-38l19 12z"/><path d="M194 57v4h-10v-4h-7v-9h7v-3h10v3h7v9z"/><path fill="#ca3745" d="M184 45v4h-7v4h12v-8h-5zm5 8h12v-4h-7v-4h-5v8zm-12 0v4h7v4h5v-8h-12zm12 8h5v-4h7v-4h-12v8z"/><path d="M223 204v-6h16v-6h16v-53h-16v-6h-16v-5h-16v-6h-36v6h-16v5h-16v6h-16v53h16v6h16v6h16v5h36v-5z"/><path fill="#ca3745" d="M172 122v6h-16v6h-16v6h-16v52h16v5h16v6h16v6h34v-6h16v-6h16v-5h16v-52h-16v-6h-16v-6h-16v-6h-34zm4 4h26v6h16v6h16v6h16v43h-16v6h-16v6h-16v6h-26v-6h-16v-6h-16v-6h-16v-43h16v-6h16v-6h16v-6z"/><path fill="#ca3745" d="M160 199v-6h-16v-6h-16v-43h16v-5h16v-6h16v-6h26v6h16v6h16v5h16v43h-16v6h-16v6h-16v5h-26v-5z"/><path d="M164 137l-4-3v6l-4 2v-3l-4 3-4-3v3l-4-2v5l-4 3v-4l-4 3-4-3v4l-4-3v17h-5v7h5v17l4-3v4l4-3 4 3v-4l4 3v6l4-3v4l4-4 4 4v-4l4 2v6l4-3v4l4-3 4 3v-4l4 3v6l5-5v6l8-5 8 5v-6l5 5v-6l4-3v4l4-3 4 3v-4l4 3v-6l4-2v4l4-4 4 4v-4l4 3v-6l4-3v4l4-3 4 3v-4l4 3v-17h5v-7h-5v-17l-4 3v-4l-4 3-4-3v4l-4-3v-5l-4 2v-3l-4 3-4-3v3l-4-2v-6l-4 3v-4l-4 3-4-3v4l-4-3v-6l-5 5v-6l-8 5-8-5v6l-5-5v6l-4 3v-4l-4 3-4-3z"/><path d="M132 149v-4l4 3 4-3v4l4-3v39l-4-2v3l-4-3-4 3v-3l-4 2v-16h-4v-7h4v-16zm32-15l4 3 4-3v4l4-3v61l-4-3v4l-4-3-4 3v-4l-4 3v-61l4 3zm50 0l-4 3-4-3v4l-4-3v61l4-3v4l4-3 4 3v-4l4 3v-61l-4 3zm32 15v-4l-4 3-4-3v4l-4-3v39l4-2v3l4-3 4 3v-3l4 2v-16h4v-7h-4v-16z" fill="#28ae66"/><path d="M149 140l3 3 3-3v3l5-3v51l-5-3v4l-3-3-3 3v-4l-5 3v-51l5 3zm33-6l-6-5v73l6-5v7l7-5 7 5v-7l6 5v-73l-6 5v-6l-7 4-7-4zm47 6l-3 3-3-3v3l-5-3v51l5-3v4l3-3 3 3v-4l5 3v-51l-5 3z" fill="#faae29"/><g id="h"><g id="g"><path d="M134 158l2 1 2-1 1-6-2 2-1-2-1 2-2-2 1 6zm17-4l-1-1v-3l-3 3 5 5 5-5-3-3v3l-1 1v-4l2-2-3-3-3 3 2 2zm16-5l-1-1v-3l-3 3 5 5 5-5-3-3v3l-1 1v-4l2-2-3-3-3 3 2 2z"/><path fill="#fff" d="M136 153l1 2 2-2-2 5a2 2 0 01-2 0l-2-5 2 2 1-2zm33-9v6l2-2v-2l2 2-5 5-5-5 2-2v2l2 2v-6l-2-1 3-3 3 3z"/><path fill="#ca3745" d="M153 149v6l2-2v-2l2 2-5 5-5-5 2-2v2l2 2v-6l-2-1 3-3 3 3z"/></g><use xlink:href="#g" transform="matrix(-1 0 0 1 378 0)"/><path d="M195 151l-1-2 4-5-4-3v3l-2 1v-4l4-3-7-5-7 5 4 3v4l-2-1v-3l-4 3 4 5-1 2z"/><path fill="#ca3745" d="M184 151l1-2-4-4 3-3v2l2 2v-6l-3-2 6-5 6 5-3 2v6l2-2v-2l3 3-4 4 1 2z"/><path d="M186 138l3 2 3-2-3-3z"/><path fill="#28ae66" d="M189 136l2 2-2 2-2-2 2-2z"/></g><use xlink:href="#h" transform="matrix(1 0 0 -1 0 331)"/><path d="M246 163h-7v-3h-22l-15-9h-26l-15 9h-22v3h-7v5h7v3h22l15 10h26l15-10h22v-3h7z"/><path fill="#ca3745" d="M176 151l-15 10h-21v3h-7v4h7v2h21l15 10h26l15-10h21v-2h7v-4h-7v-3h-21l-15-10zm0 1h26l14 9v2h15v5h-15v2l-14 9h-26l-14-9v-2h-15v-5h15v-2z"/><path fill="#ca3745" d="M202 153l13 9v1h16v5h-16v2l-13 8h-26l-13-8v-2h-16v-5h16v-1l13-9z"/><path d="M170 171l5 4 4-3-2-2-2 2-1-1 22-17h-5zm12 6h5l21-16-5-5-4 3 2 2 2-1 1 1zm9 0h5l-22-16 1-1 2 1 2-2-4-3-5 5zm13-6l-1 1-2-2-2 2 4 3 5-4-21-17h-5zm-39-5l4 2 4-2-4-3z"/><path d="M185 166l4 2 4-2-4-3zm28 0l-4 2-4-2 4-3z"/><path fill="#faae29" d="M208 171l-5 3-3-2 1-1 2 1 2-1-22-16h3zm-13 6h-3l-22-16 5-4 3 2-1 1-2-1-2 2zm-9 0h-3l22-16-2-2-2 1-1-1 3-2 5 4zm6-22h3l-22 16 2 1 2-1 1 1-3 2-5-3z"/><path fill="#28ae66" d="M169 164l3 2-3 2-3-2zm20 0l3 2-3 2-3-2zm20 0l-3 2 3 2 3-2z"/><path d="M121 274l-2 2 3 2-3 3 2 2h3l3-2 7 5v-5l-4-3 4-3v-4l-7 5-3-2z"/><path d="M121 260l-2 2 3 2-3 2 2 3h3l3-2 7 4v-4l-4-3 4-3v-4l-7 5-3-2zm0 37l-2-2 3-3-3-2 2-2h3l3 2 7-5v4l-4 3 4 4v4l-7-5-3 2zm136-23l2 2-3 2 3 3-2 2h-3l-3-2-7 5v-5l4-3-4-3v-4l7 5 3-2z"/><path d="M257 260l2 2-3 2 3 2-2 3h-3l-3-2-7 4v-4l4-3-4-3v-4l7 5 3-2zm0 37l2-2-3-3 3-2-2-2h-3l-3 2-7-5v4l4 3-4 4v4l7-5 3 2zm-30-61v6h4v2h4v-5h-4v-3h-4zm12 9v6h5v2h4v-4h-4v-4h-5zm-88-9v6h-4v2h-4v-5h4v-3h4zm76 85v-6h4v-2h4v4h-4v4h-4zm-76 0v-6h-4v-2h-4v4h4v4h4zm88-9v-6h5v-3h4v5h-4v4h-5zm-100-67v6h-5v2h-4v-4h4v-4h5zm0 67v-6h-5v-3h-4v5h4v4h5zm66-76l-3-4-4 3 3 3-4 4h6l2-2 2 2h5l-4-4 3-3-3-3-3 4zm-16 0l-3-4-3 3 2 3-3 4h5l2-2 2 2h5l-3-4 2-3-3-3-3 4zm-16 0l3-4 4 3-3 3 3 4h-5l-2-2-2 2h-5l4-4-3-3 3-3 3 4zm32 85l-3 3-4-3 3-2-4-4h6l2 2 2-2h5l-4 4 3 2-3 3-3-3zm-16 0l-3 3-3-3 2-2-3-4h5l2 2 2-2h5l-3 4 2 2-3 3-3-3zm-16 0l3 3 4-3-3-2 3-4h-5l-2 2-2-2h-5l4 4-3 2 3 3 3-3z"/><path d="M134 282v3l-7-5-3 3-3-1-1-1 2-3-2-2 1-1 3-1 3 3 7-5v3l-5 3zm0-14v3l-7-5-3 3-3-1-1-1 2-3-2-2 1-2h3l3 3 7-5v3l-5 3zm0 21v-3l-7 5-3-3-3 1-1 1 2 2-2 3 1 1 3 1 3-3 7 5v-3l-5-4zm110-7v3l7-5 3 3 3-1 1-1-2-3 2-2-1-1-3-1-3 3-7-5v3l5 3zm0-14v3l7-5 3 3 3-1 1-1-2-3 2-2-1-2h-3l-3 3-7-5v3l5 3zm0 21v-3l7 5 3-3 3 1 1 1-2 2 2 3-1 1-3 1-3-3-7 5v-3l5-4zm-13-53v4h4v4h-4v-3h-4v-5h4zm13 9v4h3v4h-3v-3h-4v-5h4zm-97-9v4h-4v4h4v-3h4v-5h-4zm84 85v-4h4v-4h-4v3h-4v5h4zm-84 0v-4h-4v-4h4v3h4v5h-4zm97-10v-3h3v-4h-3v2h-4v5h4zm-110-66v4h-3v4h3v-3h4v-5h-4zm0 66v-3h-3v-4h3v2h4v5h-4zm67-78l4 3 3-3 3 2-3 3 3 3h-4l-2-2-2 2h-4l3-3-3-3 2-2zm-15 0l3 3 3-3 3 2-3 3 3 3h-4l-2-2-2 2h-4l3-3-3-3 3-2zm-9 0l-4 3-3-3-3 2 3 3-3 3h4l2-2 2 2h4l-3-3 3-3-2-2zm24 91l4-3 3 3 3-3-3-2 3-3h-4l-2 2-2-2h-4l3 3-3 2 2 3zm-15 0l3-3 3 3 3-3-3-2 3-3h-4l-2 2-2-2h-4l3 3-3 2 3 3zm-9 0l-4-3-3 3-3-3 3-2-3-3h4l2 2 2-2h4l-3 3 3 2-2 3z" fill="#28ae66"/><path d="M147 306v10h84v-10h13v-56h-13v-9h-84v9h-13v56z"/><path fill="#ca3745" d="M147 242v9h-13v55h13v9h84v-9h13v-55h-13v-9h-84zm5 3h74v9l3 2h11v45h-11l-3 2v9h-74v-9l-3-2h-11v-45h11l3-2v-9z"/><path fill="#ca3745" d="M153 246v8l11-8h-11zm61 0l11 8v-8h-11zm-76 11v7l11-7h-11zm91 0l11 7v-7h-11zm11 35l-11 8h11v-8zm-102 0v8h11l-11-8zm15 11v8h11l-11-8zm72 0l-11 8h11v-8z"/><path fill="#28ae66" d="M213 246l27 19v27l-27 19h-48l-27-19v-27l27-19h48z"/><path d="M145 295l-3-3 2-4-2-3 2-3-2-4 2-3-2-3 2-3-2-4 3-3h88l3 3-2 4 2 3-2 3 2 3-2 4 2 3-2 3 2 4-3 3zm61-45l-4-3-3 3-3-3-4 3-3-3-3 3-4-3-3 3-3-3-4 3v57l4 3 3-3 3 3 4-3 3 3 3-3 4 3 3-3 3 3 4-3z"/><g fill="#faae29"><path d="M199 250l-3-3-4 3v57l4 2 3-2zm-13 0l-4-3-3 3v57l3 2 4-2z"/><path d="M145 295l-3-3 3-4h88l3 4-3 3zm88-20l3 3-3 3h-88l-3-3 3-3zm0-7l3-3-3-3h-88l-3 3 3 3z"/></g><g fill="#ca3745"><path d="M205 250l-3-3-3 3v57l3 2 3-2zm-26 0l-3-3-3 3v57l3 2 3-2z"/><path d="M145 288l-3-3 3-3h88l3 3-3 3zm0-13l-3-3 3-3h88l3 3-3 3z"/><path d="M192 307l-3 2-3-2v-57l3-3 3 3z"/></g><path d="M219 251h-60v5h-7v45h7v5h60v-5h7v-45h-7v-5z"/><path fill="#ca3745" d="M160 252v4h-8v45h8v4h6l-13-10v-33l13-10h-6zm52 0l13 10v33l-13 10h6v-4h8v-45h-8v-4h-6z"/><g fill="#28ae66"><path d="M167 252l-13 10v33l13 10h44l13-10v-33l-13-10zm0 1h44l11 10v31l-11 9h-44l-11-9v-31z"/><path d="M179 294l2 1v2l-2 3 3 3h-3l-3-2-2 2h-4l4-3-3-3 1-2 2-1 2 2zm12 0l2 1 1 2-3 3 4 3h-4l-2-2-2 2h-4l4-3-3-3 1-2 2-1 2 2zm8 0l-2 1v2l2 3-3 3h3l3-2 2 2h4l-4-3 3-3-1-2-2-1-2 2zm-20-31l2-1v-3l-2-2 3-3h-3l-3 2-2-2h-4l4 3-3 2 1 3 2 1 2-2zm12 0l2-1 1-3-3-2 4-3h-4l-2 2-2-2h-4l4 3-3 2 1 3 2 1 2-2zm8 0l-2-1v-3l2-2-3-3h3l3 2 2-2h4l-4 3 3 2-1 3-2 1-2-2zm23 3l-2 2 2 1v3l-3-2-2 2-3-1v-1l2-2-2-2v-2h3l2 2 3-3v3zm0 11l-2 1 2 2v3l-3-3-2 2h-3v-2l2-2-2-2v-1h3l2 2 3-3v3zm0 14l-2-2 2-2v-2l-3 2-2-2-3 1v1l2 2-2 2v2h3l2-2 3 2v-2zm-66-25l2 2-2 1v3l3-2 2 2 3-1v-1l-2-2 2-2v-2h-3l-2 2-3-3v3zm0 11l2 1-2 2v3l3-3 2 2h3v-2l-2-2 2-2v-1h-3l-2 2-3-3v3zm0 14l2-2-2-2v-2l3 2 2-2 3 1v1l-2 2 2 2v2h-3l-2-2-3 2v-2z"/></g><path fill="#ca3745" d="M167 254l-11 9 3 2 2-1h3l1 2-2 2 2 2-1 2h-3l-2-2-3 3v1l3 2 2-2 3 1 1 1-2 2 2 2-1 2-3 1-2-2-3 2v1l3 3 2-2h3l1 2-2 2 2 2-1 2h-3l-2-2-3 3 11 9h3l3-3-2-2v-3l3-1 2 2 3-2 2 1 1 3-3 2 4 3 3-3-2-2v-3l3-1 2 2 2-2 3 1v3l-2 2 3 3 4-3-2-2v-3l2-1 3 2 2-2 3 1v3l-2 2 3 3h3l11-9-3-3-2 2h-3l-1-2 2-2-2-2 1-2h3l2 2 3-3v-1l-3-2-2 2-3-1-1-2 2-2-2-2 1-1 3-1 2 2 3-2v-1l-3-3-2 2h-3l-1-2 2-2-2-2 1-2h3l2 1 3-2-11-9h-3l-3 3 2 2v3l-3 1-2-2-3 2-2-1v-3l2-2-4-3-3 3 2 2v3l-3 1-2-2-2 2-3-1v-3l2-2-3-3-4 3 3 2-1 3-2 1-3-2-2 2-3-1v-3l2-2-3-3zm-11 23v3l1-2z"/><path d="M176 301l-2 2h4l-2-2zm13 0l-2 2h4l-2-2zm13 0l-2 2h4l-2-2zm-28-47l2 2 2-2h-4zm13 0l2 2 2-2h-4zm13 0l2 2 2-2h-4zm22 13l-1 1 1 1v-2zm0 10l-1 1 1 1v-2zm0 11l-1 1 1 1v-2zm-66-21v2l1-1-1-1zm0 10v3l1-2-1-1zm0 11v2l1-1-1-1z" fill="#fff"/><path d="M200 275v-4h-4v-4h-14v4h-4v4h-5v7h5v4h4v4h14v-4h4v-4h5v-7z"/><path fill="#faae29" d="M189 267v5l-6 3v3h-10v-3h6v-4h3v-4zm0 22v-4l6-3v-3h10v3h-6v3h-3v4z"/><path fill="#fff" d="M195 278v-3l-6-3v-5h7v4h3v4h6v3zm-22 1h10v3l6 3v4h-7v-4h-3v-3h-6z"/><path fill="#ca3745" d="M183 279v3l6 3v-6z"/><path fill="#28ae66" d="M189 272l-6 3v3h6z"/><path fill="#ca3745" d="M195 278v-3l-6-3v6z"/><path fill="#28ae66" d="M189 285l6-3v-3h-6z"/><path d="M138 354v11h-12v11h-11v30h11v11h12v12h40l7 4-3 2h-15l-1-1h13l-3-4h-19l8 9h18l6-4 6 4h18l8-9h-19l-3 4h13l-1 1h-15l-3-2 7-4h40v-12h12v-11h11v-30h-11v-11h-12v-11h-40l-7-5 3-2h15l1 2h-13l3 4h19l-8-9h-18l-6 3-6-3h-18l-8 9h19l3-4h-13l1-2h15l3 2-7 5z"/><path fill="#ca3745" d="M200 428h40v-11h11v-11h11v-30h-11v-10h-11v-12h-40l-17-10h-17l-8 8h17l3-3h-13l2-2h15l19 11h35v12h11v11h11v21h-11v10h-11v12h-35l-19 11h-15l-2-2h13l-3-3h-17l8 8h17zm-23-4h-35v-12h-11v-10h-11v-21h11v-11h11v-12h35l19-11h15l2 2h-13l3 3h17l-8-8h-17l-17 10h-40v12h-11v10h-11v30h11v11h11v11h40l17 10h17l8-8h-17l-3 3h13l-2 2h-15z"/><path fill="#faae29" d="M189 352l-12 7h-34v12h-11v10h-12v20h12v11h11v12h34l12 7 12-7h34v-12h11v-11h12v-20h-12v-10h-11v-12h-34zm0 3l11 6h33v12h11v11h11v15h-11v10h-11v12h-33l-11 7-11-7h-33v-12h-11v-10h-11v-15h11v-11h11v-12h33z"/><path fill="#28ae66" d="M232 409v12h-32l-11 6-11-6h-32v-12h-12v-11h-11v-14h11v-11h12v-11h32l11-7 11 7h32v11h12v11h11v14h-11v11z"/><path d="M150 405v11h18l-18-12zm0-27v-12h18l-18 12zm78 27v11h-18l18-12zm0-27v-12h-18l18 12z"/><path fill="#ca3745" d="M150 405l16 11h-16zm0-28l16-10h-16v10zm78 28l-16 11h16v-11zm0-28l-16-10h16v10z"/><g id="i"><path d="M172 388v-6h-2l-9-6-9 6h-2v6h-5v6h5v6h2l9 6 9-6h2v-6h7v-6z"/><path fill="#ca3745" d="M161 377l9 5h-18l9-5zm9 23l-9 6-9-6h18zm-2-11v5h-11v-5z"/><path d="M172 394v6h-11v-6zm-11 0v6h-11v-6zm18-5v5h-11v-5zm-23 0v5h-10v-5zm16-6v5h-11v-5zm-11 0v5h-11v-5z" fill="#faae29"/><path d="M153 390v3h-5v-3zm5-6v3h-5v-3zm11 0v3h-5v-3zm-4 6v3h-5v-3zm11 0v3h-5v-3zm-7 6v2h-5v-2zm-11 0v2h-5v-2z"/><path d="M153 390h-4v2h4zm4-6h-4v2h4zm12 0h-4v2h4zm-5 6h-4v2h4zm11 0h-4v2h4zm-6 6h-4v2h4zm-12 0h-4v2h4z" fill="#fff"/></g><use xlink:href="#i" transform="matrix(-1 0 0 1 378 0)"/><g id="j"><path d="M200 378v6h-2l-9 6-9-6h-2v-6h-6v-6h6v-6h2l9-6 9 6h2v6h6v6z"/><path fill="#faae29" d="M189 390l9-6h-18l9 6zm9-24l-9-5-9 5h18z"/><path d="M200 372v-5h-11v5zm-11 0v-5h-11v5zm17 6v-5h-11v5zm-12 0v-5h-10v5zm-11 0v-5h-11v5zm17 6v-6h-11v6zm-11 0v-6h-11v6z" fill="#ca3745"/><path d="M186 368v3h-5v-3zm11 0v3h-5v-3zm-17 6v3h-5v-3zm11 0v3h-4v-3zm12 0v3h-5v-3zm-17 6v3h-5v-3zm11 0v3h-5v-3z"/><path d="M185 368h-4v3h4zm12 0h-4v3h4zm-17 6h-4v2h4zm11 0h-4v2h4zm11 0h-4v2h4zm-17 6h-4v2h4zm12 0h-4v2h4z" fill="#fff"/></g><use xlink:href="#j" y="32"/><path d="M128 479l42-22h38l42 22v38l-42 22h-38l-42-22z"/><path fill="#28ae66" d="M170 457l-42 23v36l42 23h38l42-23v-36l-42-23h-38zm1 3h36l40 21v34l-40 21h-36l-40-21v-34z"/><path fill="#faae29" d="M189 498v37h18l39-21v-16h-57v-37h-18l-39 21v16z"/><path fill="#fff" d="M189 498v37h-18l-39-21v-16h57v-37h18l39 21v16z"/><path d="M193 533v-11l-4 3-4-3v11h-10l7-5v-8l-11-7h-8v-30h8l11-7v-8l-7-5h10v11l4-3 4 3v-11h10l-7 5v8l11 7h8v30h-8l-11 7v8l7 5z"/><path fill="#faae29" d="M193 463v11l-4-2v3l17 11h6v12h3v-15h-8l-11-7v-8l6-5h-9zm-30 35v15h8l11 7v8l-6 5h9v-11l4 2v-3l-17-11h-6v-12h-3z"/><path fill="#fff" d="M176 463l6 5v8l-11 7h-8v15h3v-12h6l17-11v-3l-4 2v-11h-9zm36 35v12h-6l-17 11v3l4-2v11h9l-6-5v-8l11-7h8v-15h-3z"/><path fill="#ca3745" d="M166 509h6l17 11 17-11h6v-22h-6l-17-11-17 11h-6z"/><path d="M201 503h4v-1h-3v-3h6v8h-6v5h-12v-8h6v3h-2v2h5v-3l-22-13h-4v1h3v3h-6v-8h6v-5h12v8h-6v-3h2v-2h-5v3zm-2-13v-3h-5v2h2v3h-6v-8h12v5h6v8h-6v-3h3v-1h-4l-22 13v3h5v-2h-2v-3h6v8h-12v-5h-6v-8h6v3h-3v1h4z"/><path fill="#fff" d="M199 506v3h-6v-2h2v-2h-4v7h11v-6h5v-7h-5v2h3v3h-4l-22-14v-3h6v2h-2v2h4v-7h-11v6h-5v7h5v-2h-3v-3h4zm2-14h4v3h-3v2h5v-7h-5v-6h-11v7h4v-2h-2v-2h6v3l-22 14h-4v-3h3v-2h-5v7h5v6h11v-7h-4v2h2v2h-6v-3z"/><path d="M238 500v12h-5v-5h-5v5h-5v-12h5v4h5v-4zm-18 15v12h-5v-4h-5v4h-5v-12h5v5h5v-4zm18-19v-12h-5v5h-5v-5h-5v12h5v-4h5v4zm-98 4v12h5v-5h5v5h5v-12h-5v4h-5v-4zm0-4v-12h5v5h5v-5h5v12h-5v-4h-5v4zm80-16v-11h-5v4h-5v-4h-5v12h5v-5h5v5zm-62 35v12h5v-4h5v4h5v-12h-5v5h-5v-4zm0-35v-11h5v4h5v-4h5v12h-5v-5h-5v5zm65-8v9h17zm-68 52v-9h-17zm0-52v9h-17zm68 52v-9h17z"/><path d="M233 507v4h5v-11h-5v4h-5v-4h-5v11h5v-4zm-17 16v4h4v-11h-4v4h-6v-4h-4v11h4v-4zm17-34v-4h5v11h-5v-4h-5v4h-5v-11h5v4zm-88 18v4h-5v-11h5v4h5v-4h5v11h-5v-4zm0-18v-4h-5v11h5v-4h5v4h5v-11h-5v4zm71-16v-4h4v11h-4v-4h-6v4h-4v-11h4v4zm-54 50v4h-4v-11h4v4h6v-4h4v11h-4v-4zm0-50v-4h-4v11h4v-4h6v4h4v-11h-4v4z" fill="#ca3745"/><path fill="#faae29" d="M224 473v8h14l-14-8zm-84 42l14 8v-8h-14z"/><path fill="#fff" d="M154 473l-14 8h14v-8zm70 42v8l14-8h-14z"/></g></svg>