<svg xmlns="http://www.w3.org/2000/svg" viewBox="0 0 252 126"><path fill="#319208" d="M0 0h252v126H0z"/><path fill="#FFD200" d="M0 18h252v90H0z"/><path fill="#DE2010" d="M0 36h252v54H0z"/><path d="M0 54h252v18H0z"/><path d="M4.6 0l84 63-84 63H0V0h4.6z"/><path fill="#FFF" d="M0 0l84 63-84 63"/><path fill="#DE2010" d="M46.2 66l18.2-12.9-21-3L34 31l-9.4 19-21 3.1 18.2 13-4 19.1L34 76l16.2 9.2z"/><path fill="#FFC618" d="M28.6 55.1c2 4.3 2.5 4.6 7.4 6.3 5 1.7 19 3.3 20.3 3.4-.9-.9-16.6-12.5-19.8-14.8-3.3-2.4-4.2-3.4-4.2-3.4s-2.9-5.3-3.9-6.8-2.8-3.7-5.3-3.7-3.9 1.4-4.6 4c-.4 0-2.5 1.4-2.4 2.7.6-.1 4.4-1.2 5.7 3.1a27.7 27.7 0 010 14.7c-1.3 3.5-3.4 6-3.4 9.1 0 .4.3 1.3 1 1.3l2.2 10.9h28.2l4.4-17.3"/><g fill="none" stroke="#000" stroke-width=".2"><path d="M28.6 55.1c2 4.3 2.5 4.6 7.4 6.3 5 1.7 19 3.3 20.3 3.4-.9-.9-16.6-12.5-19.8-14.8-3.3-2.4-4.2-3.4-4.2-3.4s-2.9-5.3-3.9-6.8-2.8-3.7-5.3-3.7-3.9 1.4-4.6 4c-.4 0-2.5 1.4-2.4 2.7.6-.1 4.4-1.2 5.7 3.1a27.7 27.7 0 010 14.7c-1.3 3.5-3.4 6-3.4 9.1 0 .4.3 1.3 1 1.3l2.2 10.9h28.2l4.4-17.3"/><path d="M19.4 71l7.6-.4c1.6 0 16.7 0 25.2 2"/><path d="M21.5 70.9s-.6-.8-.2-2.2c.4-1.5 4.6-5.2 4.6-10.5m-.8 12.4s-.5-2.3 5-4.3c1.5-.5 5.8-3 6-5m-6.6 5.2s13.2 0 23.7 2.2"/><path d="M32.8 65s4.5 0 5.3-.2c.7-.2 2-.7 2.6-2.3M35.5 65s2.4-1.3 2.9-3M28.1 81.9s-1-7.2-1.2-11.3l2.7 2.6 2.9-2.5 2.5 2.7 2.8-2.5 2.5 2.8 2.8-2.4 2.3 2.6 2.8-2 3.3 3.2m-.5 2.2C40.9 76 27.4 76 27.4 76m-4.7-25s8.2-3.9 9.6-4.4"/></g><g transform="translate(16 36) scale(.21174)" fill="none" stroke="#000"><path d="M52.5 177l13 12 11.8-11.8 11.9 12.2 12.8-11.3 11.8 12.4 13.4-11 10.9 12.7 13.2-10.1 14 12.3"/><circle cx="89.4" cy="154.6" r="5.2"/><circle cx="111.2" cy="156" r="5.2"/><circle cx="30.1" cy="16.5" r="4"/></g></svg>